<svg width="390" height="325" viewBox="0 0 390 325" fill="none" xmlns="http://www.w3.org/2000/svg">
<g opacity="0.3" clip-path="url(#clip0_354_11218)">
<mask id="mask0_354_11218" style="mask-type:luminance" maskUnits="userSpaceOnUse" x="-110" y="-185" width="754" height="529">
<path d="M643.851 -184.067H-109.794V343.458H643.851V-184.067Z" fill="white"/>
</mask>
<g mask="url(#mask0_354_11218)">
<path d="M252.618 93.6934H216.183V311.907H252.618V93.6934Z" fill="#38A1DB"/>
<path d="M239.575 169.233H203.14V306.803H239.575V169.233Z" fill="#0081CC"/>
<path d="M178.648 56.5166H102.8V307.962H178.648V56.5166Z" fill="url(#paint0_linear_354_11218)"/>
<path d="M352.405 94.1981V84.8506H285.017V94.1981H264.061V295.115H378.375V94.1981H352.405Z" fill="url(#paint1_linear_354_11218)"/>
<path d="M55.4384 51.3534V40.6714H48.3184V35.5244H-20.1591V40.6714H-27.2844V51.3534H-39.3602V298.886H67.5142V51.3534H55.4384Z" fill="url(#paint2_linear_354_11218)"/>
<path d="M313.891 110.027H236.102V115.073H313.891V110.027Z" fill="#3071B9"/>
<path d="M315.587 113.133H234.029V123.326H315.587V113.133Z" fill="#38A1DB"/>
<path d="M315.587 121.385H234.029V298.891H315.587V121.385Z" fill="#9FD9F6"/>
<path d="M315.22 129.631H234.029V132.933H315.22V129.631Z" fill="#38A1DB"/>
<path d="M315.22 145.934H234.029V149.235H315.22V145.934Z" fill="#38A1DB"/>
<path d="M315.22 162.241H234.029V165.543H315.22V162.241Z" fill="#38A1DB"/>
<path d="M315.22 178.543H234.029V181.845H315.22V178.543Z" fill="#38A1DB"/>
<path d="M315.22 194.851H234.029V198.152H315.22V194.851Z" fill="#38A1DB"/>
<path d="M315.22 211.153H234.029V214.455H315.22V211.153Z" fill="#38A1DB"/>
<path d="M315.22 227.455H234.029V230.757H315.22V227.455Z" fill="#38A1DB"/>
<path d="M315.22 243.763H234.029V247.065H315.22V243.763Z" fill="#38A1DB"/>
<path d="M315.22 260.064H234.029V263.366H315.22V260.064Z" fill="#38A1DB"/>
<path d="M315.22 276.372H234.029V279.674H315.22V276.372Z" fill="#38A1DB"/>
<path d="M315.22 292.675H234.029V295.977H315.22V292.675Z" fill="#38A1DB"/>
<path d="M236.086 121.379H234.417V297.721H236.086V121.379Z" fill="#1D50A2"/>
<path d="M242.201 121.379H240.532V297.721H242.201V121.379Z" fill="#1D50A2"/>
<path d="M248.311 121.379H246.641V297.721H248.311V121.379Z" fill="#1D50A2"/>
<path d="M254.426 121.379H252.756V297.721H254.426V121.379Z" fill="#1D50A2"/>
<path d="M260.541 121.379H258.871V297.721H260.541V121.379Z" fill="#1D50A2"/>
<path d="M266.656 121.379H264.986V297.721H266.656V121.379Z" fill="#1D50A2"/>
<path d="M272.771 121.379H271.101V297.721H272.771V121.379Z" fill="#1D50A2"/>
<path d="M278.886 121.379H277.216V297.721H278.886V121.379Z" fill="#1D50A2"/>
<path d="M285.001 121.379H283.331V297.721H285.001V121.379Z" fill="#1D50A2"/>
<path d="M291.116 121.379H289.446V297.721H291.116V121.379Z" fill="#1D50A2"/>
<path d="M297.231 121.379H295.561V297.721H297.231V121.379Z" fill="#1D50A2"/>
<path d="M303.346 121.379H301.676V297.721H303.346V121.379Z" fill="#1D50A2"/>
<path d="M309.461 121.379H307.791V297.721H309.461V121.379Z" fill="#1D50A2"/>
<path d="M315.571 121.379H313.901V297.721H315.571V121.379Z" fill="#1D50A2"/>
<path d="M235.714 121.379H234.044V297.721H235.714V121.379Z" fill="#0079C3"/>
<path d="M241.829 121.379H240.159V297.721H241.829V121.379Z" fill="#0079C3"/>
<path d="M247.944 121.379H246.274V297.721H247.944V121.379Z" fill="#0079C3"/>
<path d="M254.059 121.379H252.389V297.721H254.059V121.379Z" fill="#0079C3"/>
<path d="M260.174 121.379H258.504V297.721H260.174V121.379Z" fill="#0079C3"/>
<path d="M266.289 121.379H264.619V297.721H266.289V121.379Z" fill="#0079C3"/>
<path d="M272.404 121.379H270.734V297.721H272.404V121.379Z" fill="#0079C3"/>
<path d="M278.514 121.379H276.844V297.721H278.514V121.379Z" fill="#0079C3"/>
<path d="M284.629 121.379H282.959V297.721H284.629V121.379Z" fill="#0079C3"/>
<path d="M290.744 121.379H289.074V297.721H290.744V121.379Z" fill="#0079C3"/>
<path d="M296.859 121.379H295.189V297.721H296.859V121.379Z" fill="#0079C3"/>
<path d="M302.974 121.379H301.304V297.721H302.974V121.379Z" fill="#0079C3"/>
<path d="M309.089 121.379H307.419V297.721H309.089V121.379Z" fill="#0079C3"/>
<path d="M315.204 121.379H313.534V297.721H315.204V121.379Z" fill="#0079C3"/>
<path d="M308.866 107.311H240.755V110.028H308.866V107.311Z" fill="#38A1DB"/>
<path d="M17.3976 155.808H-29.337V159.843H17.3976V155.808Z" fill="#5183B7"/>
<path d="M18.4186 158.291H-30.5812V166.442H18.4186V158.291Z" fill="#61AED7"/>
<path d="M18.4186 164.89H-30.5812V306.856H18.4186V164.89Z" fill="#CFEBF9"/>
<path d="M18.1953 171.488H-30.5812V174.126H18.1953V171.488Z" fill="#61AED7"/>
<path d="M18.1953 184.525H-30.5812V187.163H18.1953V184.525Z" fill="#61AED7"/>
<path d="M18.1953 197.568H-30.5812V200.206H18.1953V197.568Z" fill="#61AED7"/>
<path d="M18.1953 210.606H-30.5812V213.244H18.1953V210.606Z" fill="#61AED7"/>
<path d="M18.1953 223.649H-30.5812V226.287H18.1953V223.649Z" fill="#61AED7"/>
<path d="M18.1953 236.687H-30.5812V239.324H18.1953V236.687Z" fill="#61AED7"/>
<path d="M18.1953 249.729H-30.5812V252.367H18.1953V249.729Z" fill="#61AED7"/>
<path d="M18.1953 262.767H-30.5812V265.404H18.1953V262.767Z" fill="#61AED7"/>
<path d="M18.1953 275.81H-30.5812V278.447H18.1953V275.81Z" fill="#61AED7"/>
<path d="M18.1953 288.848H-30.5812V291.485H18.1953V288.848Z" fill="#61AED7"/>
<path d="M18.1953 301.891H-30.5812V304.528H18.1953V301.891Z" fill="#61AED7"/>
<path d="M0.0416702 164.89H-0.963318V305.926H0.0416702V164.89Z" fill="#5674A3"/>
<path d="M3.71599 164.89H2.711V305.926H3.71599V164.89Z" fill="#5674A3"/>
<path d="M7.39033 164.89H6.38535V305.926H7.39033V164.89Z" fill="#5674A3"/>
<path d="M11.0646 164.89H10.0597V305.926H11.0646V164.89Z" fill="#5674A3"/>
<path d="M14.739 164.89H13.734V305.926H14.739V164.89Z" fill="#5674A3"/>
<path d="M18.4134 164.89H17.4084V305.926H18.4134V164.89Z" fill="#5674A3"/>
<path d="M3.49266 164.89H2.48767V305.926H3.49266V164.89Z" fill="#4893C0"/>
<path d="M7.16698 164.89H6.16199V305.926H7.16698V164.89Z" fill="#4893C0"/>
<path d="M10.8413 164.89H9.8363V305.926H10.8413V164.89Z" fill="#4893C0"/>
<path d="M14.5156 164.89H13.5107V305.926H14.5156V164.89Z" fill="#4893C0"/>
<path d="M18.1899 164.89H17.185V305.926H18.1899V164.89Z" fill="#4893C0"/>
<path d="M14.3827 153.633H-26.54V155.808H14.3827V153.633Z" fill="#61AED7"/>
<path d="M94.4255 96.3838H93.8618V119.449H94.4255V96.3838Z" fill="#4694D1"/>
<path d="M95.5794 101.717H95.1327V108.278H95.5794V101.717Z" fill="#4694D1"/>
<path d="M95.3029 103.195H94.3404V103.344H95.3029V103.195Z" fill="#4694D1"/>
<path d="M95.3029 107.172H94.2341V107.363H95.3029V107.172Z" fill="#4694D1"/>
<path d="M96.0473 111.617H92.2401V120.433H96.0473V111.617Z" fill="#3071B9"/>
<path d="M86.7419 112.25H57.8896V119.444H86.7419V112.25Z" fill="#4694D1"/>
<path d="M130.541 118.179H50.7643V298.891H130.541V118.179Z" fill="url(#paint3_linear_354_11218)"/>
<path d="M55.6351 120.715H52.2479V298.886H55.6351V120.715Z" fill="#187FC4"/>
<path d="M66.004 120.715H62.6168V298.886H66.004V120.715Z" fill="#187FC4"/>
<path d="M76.3729 120.715H72.9857V298.886H76.3729V120.715Z" fill="#187FC4"/>
<path d="M86.7419 120.715H83.3547V298.886H86.7419V120.715Z" fill="#187FC4"/>
<path d="M97.1108 120.715H93.7236V298.886H97.1108V120.715Z" fill="#187FC4"/>
<path d="M107.48 120.715H104.093V298.886H107.48V120.715Z" fill="#187FC4"/>
<path d="M117.849 120.715H114.461V298.886H117.849V120.715Z" fill="#187FC4"/>
<path d="M128.218 120.715H124.83V298.886H128.218V120.715Z" fill="#187FC4"/>
<path d="M130.541 123.469H50.7643V125.16H130.541V123.469Z" fill="#4694D1"/>
<path d="M130.541 131.646H50.7643V133.337H130.541V131.646Z" fill="#4694D1"/>
<path d="M130.541 139.83H50.7643V141.521H130.541V139.83Z" fill="#4694D1"/>
<path d="M130.541 148.013H50.7643V149.704H130.541V148.013Z" fill="#4694D1"/>
<path d="M130.541 156.196H50.7643V157.887H130.541V156.196Z" fill="#4694D1"/>
<path d="M130.541 164.379H50.7643V166.07H130.541V164.379Z" fill="#4694D1"/>
<path d="M130.541 172.557H50.7643V174.247H130.541V172.557Z" fill="#4694D1"/>
<path d="M130.541 180.739H50.7643V182.43H130.541V180.739Z" fill="#4694D1"/>
<path d="M130.541 188.923H50.7643V190.614H130.541V188.923Z" fill="#4694D1"/>
<path d="M130.541 197.105H50.7643V198.796H130.541V197.105Z" fill="#4694D1"/>
<path d="M130.541 205.289H50.7643V206.98H130.541V205.289Z" fill="#4694D1"/>
<path d="M130.541 213.472H50.7643V215.163H130.541V213.472Z" fill="#4694D1"/>
<path d="M130.541 221.649H50.7643V223.34H130.541V221.649Z" fill="#4694D1"/>
<path d="M130.541 229.832H50.7643V231.523H130.541V229.832Z" fill="#4694D1"/>
<path d="M130.541 238.016H50.7643V239.706H130.541V238.016Z" fill="#4694D1"/>
<path d="M130.541 246.198H50.7643V247.889H130.541V246.198Z" fill="#4694D1"/>
<path d="M130.541 254.382H50.7643V256.073H130.541V254.382Z" fill="#4694D1"/>
<path d="M130.541 262.56H50.7643V264.25H130.541V262.56Z" fill="#4694D1"/>
<path d="M130.541 270.742H50.7643V272.433H130.541V270.742Z" fill="#4694D1"/>
<path d="M130.541 278.925H50.7643V280.616H130.541V278.925Z" fill="#4694D1"/>
<path d="M130.541 287.108H50.7643V288.799H130.541V287.108Z" fill="#4694D1"/>
<path d="M438.648 211.754H366.549V215.077H438.648V211.754Z" fill="#4694D1"/>
<path d="M441.71 213.349H362.364V216.672H441.71V213.349Z" fill="#78B8E5"/>
<path d="M450.176 216.087H353.75V299.56H450.176V216.087Z" fill="#82C1EA"/>
<path d="M359.636 217.263H355.542V299.561H359.636V217.263Z" fill="#4EA5DC"/>
<path d="M372.169 217.263H368.075V299.561H372.169V217.263Z" fill="#4EA5DC"/>
<path d="M384.703 217.263H380.608V299.561H384.703V217.263Z" fill="#4EA5DC"/>
<path d="M450.176 218.533H353.75V219.315H450.176V218.533Z" fill="#78B8E5"/>
<path d="M450.176 222.313H353.75V223.095H450.176V222.313Z" fill="#78B8E5"/>
<path d="M450.176 226.089H353.75V226.87H450.176V226.089Z" fill="#78B8E5"/>
<path d="M450.176 229.869H353.75V230.651H450.176V229.869Z" fill="#78B8E5"/>
<path d="M450.176 233.65H353.75V234.432H450.176V233.65Z" fill="#78B8E5"/>
<path d="M450.176 237.431H353.75V238.212H450.176V237.431Z" fill="#78B8E5"/>
<path d="M450.176 241.211H353.75V241.993H450.176V241.211Z" fill="#78B8E5"/>
<path d="M450.176 244.986H353.75V245.768H450.176V244.986Z" fill="#78B8E5"/>
<path d="M450.176 248.767H353.75V249.548H450.176V248.767Z" fill="#78B8E5"/>
<path d="M450.176 252.547H353.75V253.328H450.176V252.547Z" fill="#78B8E5"/>
<path d="M450.176 256.327H353.75V257.109H450.176V256.327Z" fill="#78B8E5"/>
<path d="M450.176 260.108H353.75V260.89H450.176V260.108Z" fill="#78B8E5"/>
<path d="M450.176 263.883H353.75V264.664H450.176V263.883Z" fill="#78B8E5"/>
<path d="M450.176 267.663H353.75V268.445H450.176V267.663Z" fill="#78B8E5"/>
<path d="M450.176 271.444H353.75V272.226H450.176V271.444Z" fill="#78B8E5"/>
<path d="M450.176 275.225H353.75V276.006H450.176V275.225Z" fill="#78B8E5"/>
<path d="M450.176 279.005H353.75V279.787H450.176V279.005Z" fill="#78B8E5"/>
<path d="M450.176 282.78H353.75V283.562H450.176V282.78Z" fill="#78B8E5"/>
<path d="M450.176 286.561H353.75V287.342H450.176V286.561Z" fill="#78B8E5"/>
<path d="M450.176 290.341H353.75V291.122H450.176V290.341Z" fill="#78B8E5"/>
<path d="M450.176 294.121H353.75V294.903H450.176V294.121Z" fill="#78B8E5"/>
<path d="M381.725 226.595H376.306V298.556H381.725V226.595Z" fill="#005EAD"/>
<path d="M321.218 222.872H304.622V227.36H321.218V222.872Z" fill="#006CB8"/>
<path d="M347.512 222.872H330.917V227.36H347.512V222.872Z" fill="#006CB8"/>
<path d="M370.755 218.385H363.14V228.11H370.755V218.385Z" fill="#006CB8"/>
<path d="M362.71 218.385H362.508V228.11H362.71V218.385Z" fill="#006CB8"/>
<path d="M363.257 219.507H362.609V219.618H363.257V219.507Z" fill="#006CB8"/>
<path d="M363.257 220.725H362.609V220.836H363.257V220.725Z" fill="#006CB8"/>
<path d="M363.257 221.942H362.609V222.054H363.257V221.942Z" fill="#006CB8"/>
<path d="M363.257 223.159H362.609V223.271H363.257V223.159Z" fill="#006CB8"/>
<path d="M363.257 224.377H362.609V224.489H363.257V224.377Z" fill="#006CB8"/>
<path d="M363.257 225.595H362.609V225.706H363.257V225.595Z" fill="#006CB8"/>
<path d="M363.257 226.812H362.609V226.924H363.257V226.812Z" fill="#006CB8"/>
<path d="M376.306 226.595H295.482V298.886H376.306V226.595Z" fill="url(#paint4_linear_354_11218)"/>
<path d="M301.256 231.688H298.13V236.739H301.256V231.688Z" fill="#65AADD"/>
<path d="M304.622 231.688H301.496V236.739H304.622V231.688Z" fill="#65AADD"/>
<path d="M307.228 230.247H306.925V237.383H307.228V230.247Z" fill="#1D50A2"/>
<path d="M312.8 231.688H309.674V236.739H312.8V231.688Z" fill="#65AADD"/>
<path d="M316.166 231.688H313.04V236.739H316.166V231.688Z" fill="#65AADD"/>
<path d="M318.772 230.247H318.469V237.383H318.772V230.247Z" fill="#1D50A2"/>
<path d="M324.345 231.688H321.218V236.739H324.345V231.688Z" fill="#65AADD"/>
<path d="M327.71 231.688H324.584V236.739H327.71V231.688Z" fill="#65AADD"/>
<path d="M330.316 230.247H330.013V237.383H330.316V230.247Z" fill="#1D50A2"/>
<path d="M335.883 231.688H332.757V236.739H335.883V231.688Z" fill="#65AADD"/>
<path d="M339.255 231.688H336.128V236.739H339.255V231.688Z" fill="#65AADD"/>
<path d="M341.86 230.247H341.557V237.383H341.86V230.247Z" fill="#1D50A2"/>
<path d="M347.427 231.688H344.301V236.739H347.427V231.688Z" fill="#65AADD"/>
<path d="M350.793 231.688H347.667V236.739H350.793V231.688Z" fill="#65AADD"/>
<path d="M353.404 230.247H353.101V237.383H353.404V230.247Z" fill="#1D50A2"/>
<path d="M358.971 231.688H355.845V236.739H358.971V231.688Z" fill="#65AADD"/>
<path d="M362.337 231.688H359.211V236.739H362.337V231.688Z" fill="#65AADD"/>
<path d="M364.948 230.247H364.645V237.383H364.948V230.247Z" fill="#1D50A2"/>
<path d="M370.516 231.688H367.389V236.74H370.516V231.688Z" fill="#65AADD"/>
<path d="M373.881 231.688H370.755V236.74H373.881V231.688Z" fill="#65AADD"/>
<path d="M377.402 236.5H297.21V239.047H377.402V236.5Z" fill="#005EAD"/>
<path d="M301.256 243.125H298.13V248.176H301.256V243.125Z" fill="#65AADD"/>
<path d="M304.622 243.125H301.496V248.176H304.622V243.125Z" fill="#65AADD"/>
<path d="M307.228 241.679H306.925V248.814H307.228V241.679Z" fill="#1D50A2"/>
<path d="M312.8 243.125H309.674V248.176H312.8V243.125Z" fill="#65AADD"/>
<path d="M316.166 243.125H313.04V248.176H316.166V243.125Z" fill="#65AADD"/>
<path d="M318.772 241.679H318.469V248.814H318.772V241.679Z" fill="#1D50A2"/>
<path d="M324.345 243.125H321.218V248.176H324.345V243.125Z" fill="#65AADD"/>
<path d="M327.71 243.125H324.584V248.176H327.71V243.125Z" fill="#65AADD"/>
<path d="M330.316 241.679H330.013V248.814H330.316V241.679Z" fill="#1D50A2"/>
<path d="M335.883 243.125H332.757V248.176H335.883V243.125Z" fill="#65AADD"/>
<path d="M339.255 243.125H336.128V248.176H339.255V243.125Z" fill="#65AADD"/>
<path d="M341.86 241.679H341.557V248.814H341.86V241.679Z" fill="#1D50A2"/>
<path d="M347.427 243.125H344.301V248.176H347.427V243.125Z" fill="#65AADD"/>
<path d="M350.793 243.125H347.667V248.176H350.793V243.125Z" fill="#65AADD"/>
<path d="M353.404 241.679H353.101V248.814H353.404V241.679Z" fill="#1D50A2"/>
<path d="M358.971 243.125H355.845V248.176H358.971V243.125Z" fill="#65AADD"/>
<path d="M362.337 243.125H359.211V248.176H362.337V243.125Z" fill="#65AADD"/>
<path d="M364.948 241.679H364.645V248.814H364.948V241.679Z" fill="#1D50A2"/>
<path d="M370.516 243.125H367.389V248.176H370.516V243.125Z" fill="#65AADD"/>
<path d="M373.881 243.125H370.755V248.176H373.881V243.125Z" fill="#65AADD"/>
<path d="M377.396 247.932H295.482V250.479H377.396V247.932Z" fill="#005EAD"/>
<path d="M301.256 254.562H298.13V259.614H301.256V254.562Z" fill="#65AADD"/>
<path d="M304.622 254.562H301.496V259.614H304.622V254.562Z" fill="#65AADD"/>
<path d="M307.228 253.116H306.925V260.252H307.228V253.116Z" fill="#1D50A2"/>
<path d="M312.8 254.562H309.674V259.614H312.8V254.562Z" fill="#65AADD"/>
<path d="M316.166 254.562H313.04V259.614H316.166V254.562Z" fill="#65AADD"/>
<path d="M318.772 253.116H318.469V260.252H318.772V253.116Z" fill="#1D50A2"/>
<path d="M324.345 254.562H321.218V259.614H324.345V254.562Z" fill="#65AADD"/>
<path d="M327.71 254.562H324.584V259.614H327.71V254.562Z" fill="#65AADD"/>
<path d="M330.316 253.116H330.013V260.252H330.316V253.116Z" fill="#1D50A2"/>
<path d="M335.883 254.562H332.757V259.614H335.883V254.562Z" fill="#65AADD"/>
<path d="M339.255 254.562H336.128V259.614H339.255V254.562Z" fill="#65AADD"/>
<path d="M341.86 253.116H341.557V260.252H341.86V253.116Z" fill="#1D50A2"/>
<path d="M347.427 254.562H344.301V259.614H347.427V254.562Z" fill="#65AADD"/>
<path d="M350.793 254.562H347.667V259.614H350.793V254.562Z" fill="#65AADD"/>
<path d="M353.404 253.116H353.101V260.252H353.404V253.116Z" fill="#1D50A2"/>
<path d="M358.971 254.562H355.845V259.614H358.971V254.562Z" fill="#65AADD"/>
<path d="M362.337 254.562H359.211V259.614H362.337V254.562Z" fill="#65AADD"/>
<path d="M364.948 253.116H364.645V260.252H364.948V253.116Z" fill="#1D50A2"/>
<path d="M370.516 254.562H367.389V259.614H370.516V254.562Z" fill="#65AADD"/>
<path d="M373.881 254.562H370.755V259.614H373.881V254.562Z" fill="#65AADD"/>
<path d="M377.396 259.369H295.482V261.916H377.396V259.369Z" fill="#005EAD"/>
<path d="M301.256 265.994H298.13V271.045H301.256V265.994Z" fill="#65AADD"/>
<path d="M304.622 265.994H301.496V271.045H304.622V265.994Z" fill="#65AADD"/>
<path d="M307.228 264.553H306.925V271.688H307.228V264.553Z" fill="#1D50A2"/>
<path d="M312.8 265.994H309.674V271.045H312.8V265.994Z" fill="#65AADD"/>
<path d="M316.166 265.994H313.04V271.045H316.166V265.994Z" fill="#65AADD"/>
<path d="M318.772 264.553H318.469V271.688H318.772V264.553Z" fill="#1D50A2"/>
<path d="M324.345 265.994H321.218V271.045H324.345V265.994Z" fill="#65AADD"/>
<path d="M327.71 265.994H324.584V271.045H327.71V265.994Z" fill="#65AADD"/>
<path d="M330.316 264.553H330.013V271.688H330.316V264.553Z" fill="#1D50A2"/>
<path d="M335.883 265.994H332.757V271.045H335.883V265.994Z" fill="#65AADD"/>
<path d="M339.255 265.994H336.128V271.045H339.255V265.994Z" fill="#65AADD"/>
<path d="M341.86 264.553H341.557V271.688H341.86V264.553Z" fill="#1D50A2"/>
<path d="M347.427 265.994H344.301V271.045H347.427V265.994Z" fill="#65AADD"/>
<path d="M350.793 265.994H347.667V271.045H350.793V265.994Z" fill="#65AADD"/>
<path d="M353.404 264.553H353.101V271.688H353.404V264.553Z" fill="#1D50A2"/>
<path d="M358.971 265.994H355.845V271.045H358.971V265.994Z" fill="#65AADD"/>
<path d="M362.337 265.994H359.211V271.045H362.337V265.994Z" fill="#65AADD"/>
<path d="M364.948 264.553H364.645V271.688H364.948V264.553Z" fill="#1D50A2"/>
<path d="M370.516 265.994H367.389V271.045H370.516V265.994Z" fill="#65AADD"/>
<path d="M373.881 265.994H370.755V271.045H373.881V265.994Z" fill="#65AADD"/>
<path d="M377.396 270.806H295.482V273.353H377.396V270.806Z" fill="#005EAD"/>
<path d="M301.256 277.432H298.13V282.483H301.256V277.432Z" fill="#65AADD"/>
<path d="M304.622 277.432H301.496V282.483H304.622V277.432Z" fill="#65AADD"/>
<path d="M307.228 275.99H306.925V283.126H307.228V275.99Z" fill="#1D50A2"/>
<path d="M312.8 277.432H309.674V282.483H312.8V277.432Z" fill="#65AADD"/>
<path d="M316.166 277.432H313.04V282.483H316.166V277.432Z" fill="#65AADD"/>
<path d="M318.772 275.99H318.469V283.126H318.772V275.99Z" fill="#1D50A2"/>
<path d="M324.345 277.432H321.218V282.483H324.345V277.432Z" fill="#65AADD"/>
<path d="M327.71 277.432H324.584V282.483H327.71V277.432Z" fill="#65AADD"/>
<path d="M330.316 275.99H330.013V283.126H330.316V275.99Z" fill="#1D50A2"/>
<path d="M335.883 277.432H332.757V282.483H335.883V277.432Z" fill="#65AADD"/>
<path d="M339.255 277.432H336.128V282.483H339.255V277.432Z" fill="#65AADD"/>
<path d="M341.86 275.99H341.557V283.126H341.86V275.99Z" fill="#1D50A2"/>
<path d="M347.427 277.432H344.301V282.483H347.427V277.432Z" fill="#65AADD"/>
<path d="M350.793 277.432H347.667V282.483H350.793V277.432Z" fill="#65AADD"/>
<path d="M353.404 275.99H353.101V283.126H353.404V275.99Z" fill="#1D50A2"/>
<path d="M358.971 277.432H355.845V282.483H358.971V277.432Z" fill="#65AADD"/>
<path d="M362.337 277.432H359.211V282.483H362.337V277.432Z" fill="#65AADD"/>
<path d="M364.948 275.99H364.645V283.126H364.948V275.99Z" fill="#1D50A2"/>
<path d="M370.516 277.432H367.389V282.483H370.516V277.432Z" fill="#65AADD"/>
<path d="M373.881 277.432H370.755V282.483H373.881V277.432Z" fill="#65AADD"/>
<path d="M377.396 282.243H295.482V284.79H377.396V282.243Z" fill="#005EAD"/>
<path d="M301.256 288.868H298.13V293.919H301.256V288.868Z" fill="#65AADD"/>
<path d="M304.622 288.868H301.496V293.919H304.622V288.868Z" fill="#65AADD"/>
<path d="M307.228 287.422H306.925V294.557H307.228V287.422Z" fill="#1D50A2"/>
<path d="M312.8 288.868H309.674V293.919H312.8V288.868Z" fill="#65AADD"/>
<path d="M316.166 288.868H313.04V293.919H316.166V288.868Z" fill="#65AADD"/>
<path d="M318.772 287.422H318.469V294.557H318.772V287.422Z" fill="#1D50A2"/>
<path d="M324.345 288.868H321.218V293.919H324.345V288.868Z" fill="#65AADD"/>
<path d="M327.71 288.868H324.584V293.919H327.71V288.868Z" fill="#65AADD"/>
<path d="M330.316 287.422H330.013V294.557H330.316V287.422Z" fill="#1D50A2"/>
<path d="M335.883 288.868H332.757V293.919H335.883V288.868Z" fill="#65AADD"/>
<path d="M339.255 288.868H336.128V293.919H339.255V288.868Z" fill="#65AADD"/>
<path d="M341.86 287.422H341.557V294.557H341.86V287.422Z" fill="#1D50A2"/>
<path d="M347.427 288.868H344.301V293.919H347.427V288.868Z" fill="#65AADD"/>
<path d="M350.793 288.868H347.667V293.919H350.793V288.868Z" fill="#65AADD"/>
<path d="M353.404 287.422H353.101V294.557H353.404V287.422Z" fill="#1D50A2"/>
<path d="M358.971 288.868H355.845V293.919H358.971V288.868Z" fill="#65AADD"/>
<path d="M362.337 288.868H359.211V293.919H362.337V288.868Z" fill="#65AADD"/>
<path d="M364.948 287.422H364.645V294.557H364.948V287.422Z" fill="#1D50A2"/>
<path d="M370.516 288.868H367.389V293.919H370.516V288.868Z" fill="#65AADD"/>
<path d="M373.881 288.868H370.755V293.919H373.881V288.868Z" fill="#65AADD"/>
<path d="M377.396 293.675H295.482V296.222H377.396V293.675Z" fill="#005EAD"/>
<path d="M180.998 35.5244H179.233V55.8517H180.998V35.5244Z" fill="#0079C3"/>
<path d="M181.641 55.3789H178.584V66.4385H181.641V55.3789Z" fill="#0079C3"/>
<path d="M183.354 70.3936H176.877V84.888H183.354V70.3936Z" fill="#0079C3"/>
<path d="M197.291 81.8838H162.945V93.6931H197.291V81.8838Z" fill="#1D50A2"/>
<path d="M185.651 65.0186H174.585V72.2711H185.651V65.0186Z" fill="#006CB8"/>
<path d="M183.354 53.5596H176.877V56.5212H183.354V53.5596Z" fill="#006CB8"/>
<path d="M209.111 91.2207H151.12V298.891H209.111V91.2207Z" fill="url(#paint5_linear_354_11218)"/>
<path d="M209.111 107.757H151.12V111.67H209.111V107.757Z" fill="#00A5E3"/>
<path d="M209.111 118.52H151.12V122.433H209.111V118.52Z" fill="#00A5E3"/>
<path d="M209.111 129.281H151.12V133.195H209.111V129.281Z" fill="#00A5E3"/>
<path d="M209.111 140.037H151.12V143.95H209.111V140.037Z" fill="#00A5E3"/>
<path d="M209.111 150.799H151.12V154.712H209.111V150.799Z" fill="#00A5E3"/>
<path d="M209.111 161.562H151.12V165.475H209.111V161.562Z" fill="#00A5E3"/>
<path d="M209.111 172.323H151.12V176.237H209.111V172.323Z" fill="#00A5E3"/>
<path d="M209.111 183.085H151.12V186.998H209.111V183.085Z" fill="#00A5E3"/>
<path d="M209.111 193.841H151.12V197.754H209.111V193.841Z" fill="#00A5E3"/>
<path d="M209.111 204.604H151.12V208.517H209.111V204.604Z" fill="#00A5E3"/>
<path d="M209.111 215.365H151.12V219.279H209.111V215.365Z" fill="#00A5E3"/>
<path d="M209.111 226.127H151.12V230.04H209.111V226.127Z" fill="#00A5E3"/>
<path d="M209.111 236.889H151.12V240.802H209.111V236.889Z" fill="#00A5E3"/>
<path d="M209.111 247.645H151.12V251.558H209.111V247.645Z" fill="#00A5E3"/>
<path d="M209.111 258.406H151.12V262.32H209.111V258.406Z" fill="#00A5E3"/>
<path d="M209.111 269.169H151.12V273.082H209.111V269.169Z" fill="#00A5E3"/>
<path d="M209.111 279.931H151.12V283.844H209.111V279.931Z" fill="#00A5E3"/>
<path d="M105.23 323.499H108.969L108.969 245.46H105.23L105.23 323.499Z" fill="#116EB6"/>
<path d="M108.192 323.493H147.222V248.288H108.192V323.493Z" fill="#7ECEF4"/>
<path d="M143.946 258.082H145.595V253.307H143.946V258.082Z" fill="#20AEE5"/>
<path d="M140.533 258.082H142.181V253.307H140.533V258.082Z" fill="#20AEE5"/>
<path d="M137.119 258.082H138.767V253.307H137.119V258.082Z" fill="#20AEE5"/>
<path d="M133.705 258.082H135.354V253.307H133.705V258.082Z" fill="#20AEE5"/>
<path d="M130.291 258.082H131.94V253.307H130.291V258.082Z" fill="#20AEE5"/>
<path d="M126.878 258.082H128.526V253.307H126.878V258.082Z" fill="#20AEE5"/>
<path d="M123.469 258.082H125.118V253.307H123.469V258.082Z" fill="#20AEE5"/>
<path d="M120.055 258.082H121.704V253.307H120.055V258.082Z" fill="#20AEE5"/>
<path d="M116.642 258.082H118.29V253.307H116.642V258.082Z" fill="#20AEE5"/>
<path d="M113.228 258.082H114.876V253.307H113.228V258.082Z" fill="#20AEE5"/>
<path d="M109.814 258.082H111.462V253.307H109.814V258.082Z" fill="#20AEE5"/>
<path d="M108.192 261.719H147.222V257.178H108.192V261.719Z" fill="#008CCF"/>
<path d="M108.192 249.995H147.222V245.454H108.192V249.995Z" fill="#008CCF"/>
<path d="M143.946 270.434H145.595V265.659H143.946V270.434Z" fill="#20AEE5"/>
<path d="M140.533 270.434H142.181V265.659H140.533V270.434Z" fill="#20AEE5"/>
<path d="M137.119 270.434H138.767V265.659H137.119V270.434Z" fill="#20AEE5"/>
<path d="M133.705 270.434H135.354V265.659H133.705V270.434Z" fill="#20AEE5"/>
<path d="M130.291 270.434H131.94V265.659H130.291V270.434Z" fill="#20AEE5"/>
<path d="M126.878 270.434H128.526V265.659H126.878V270.434Z" fill="#20AEE5"/>
<path d="M123.469 270.434H125.118V265.659H123.469V270.434Z" fill="#20AEE5"/>
<path d="M120.055 270.434H121.704V265.659H120.055V270.434Z" fill="#20AEE5"/>
<path d="M116.642 270.434H118.29V265.659H116.642V270.434Z" fill="#20AEE5"/>
<path d="M113.228 270.434H114.876V265.659H113.228V270.434Z" fill="#20AEE5"/>
<path d="M109.814 270.434H111.462V265.659H109.814V270.434Z" fill="#20AEE5"/>
<path d="M108.192 274.076H147.222V269.535H108.192V274.076Z" fill="#008CCF"/>
<path d="M143.946 282.79H145.595V278.015H143.946V282.79Z" fill="#20AEE5"/>
<path d="M140.533 282.79H142.181V278.015H140.533V282.79Z" fill="#20AEE5"/>
<path d="M137.119 282.79H138.767V278.015H137.119V282.79Z" fill="#20AEE5"/>
<path d="M133.705 282.79H135.354V278.015H133.705V282.79Z" fill="#20AEE5"/>
<path d="M130.291 282.79H131.94V278.015H130.291V282.79Z" fill="#20AEE5"/>
<path d="M126.878 282.79H128.526V278.015H126.878V282.79Z" fill="#20AEE5"/>
<path d="M123.469 282.79H125.118V278.015H123.469V282.79Z" fill="#20AEE5"/>
<path d="M120.055 282.79H121.704V278.015H120.055V282.79Z" fill="#20AEE5"/>
<path d="M116.642 282.79H118.29V278.015H116.642V282.79Z" fill="#20AEE5"/>
<path d="M113.228 282.79H114.876V278.015H113.228V282.79Z" fill="#20AEE5"/>
<path d="M109.814 282.79H111.462V278.015H109.814V282.79Z" fill="#20AEE5"/>
<path d="M108.192 286.428H147.222V281.887H108.192V286.428Z" fill="#008CCF"/>
<path d="M143.946 295.147H145.595V290.373H143.946V295.147Z" fill="#20AEE5"/>
<path d="M140.533 295.147H142.181V290.373H140.533V295.147Z" fill="#20AEE5"/>
<path d="M137.119 295.147H138.767V290.373H137.119V295.147Z" fill="#20AEE5"/>
<path d="M133.705 295.147H135.354V290.373H133.705V295.147Z" fill="#20AEE5"/>
<path d="M130.291 295.147H131.94V290.373H130.291V295.147Z" fill="#20AEE5"/>
<path d="M126.878 295.147H128.526V290.373H126.878V295.147Z" fill="#20AEE5"/>
<path d="M123.469 295.147H125.118V290.373H123.469V295.147Z" fill="#20AEE5"/>
<path d="M120.055 295.147H121.704V290.373H120.055V295.147Z" fill="#20AEE5"/>
<path d="M116.642 295.147H118.29V290.373H116.642V295.147Z" fill="#20AEE5"/>
<path d="M113.228 295.147H114.876V290.373H113.228V295.147Z" fill="#20AEE5"/>
<path d="M109.814 295.147H111.462V290.373H109.814V295.147Z" fill="#20AEE5"/>
<path d="M108.192 298.785H147.222V294.244H108.192V298.785Z" fill="#008CCF"/>
<path d="M143.946 307.499H145.595V302.724H143.946V307.499Z" fill="#20AEE5"/>
<path d="M140.533 307.499H142.181V302.724H140.533V307.499Z" fill="#20AEE5"/>
<path d="M137.119 307.499H138.767V302.724H137.119V307.499Z" fill="#20AEE5"/>
<path d="M133.705 307.499H135.354V302.724H133.705V307.499Z" fill="#20AEE5"/>
<path d="M130.291 307.499H131.94V302.724H130.291V307.499Z" fill="#20AEE5"/>
<path d="M126.878 307.499H128.526V302.724H126.878V307.499Z" fill="#20AEE5"/>
<path d="M123.469 307.499H125.118V302.724H123.469V307.499Z" fill="#20AEE5"/>
<path d="M120.055 307.499H121.704V302.724H120.055V307.499Z" fill="#20AEE5"/>
<path d="M116.642 307.499H118.29V302.724H116.642V307.499Z" fill="#20AEE5"/>
<path d="M113.228 307.499H114.876V302.724H113.228V307.499Z" fill="#20AEE5"/>
<path d="M109.814 307.499H111.462V302.724H109.814V307.499Z" fill="#20AEE5"/>
<path d="M108.192 311.142H147.222V306.601H108.192V311.142Z" fill="#008CCF"/>
<path d="M143.946 319.856H145.595V315.082H143.946V319.856Z" fill="#20AEE5"/>
<path d="M140.533 319.856H142.181V315.082H140.533V319.856Z" fill="#20AEE5"/>
<path d="M137.119 319.856H138.767V315.082H137.119V319.856Z" fill="#20AEE5"/>
<path d="M133.705 319.856H135.354V315.082H133.705V319.856Z" fill="#20AEE5"/>
<path d="M130.291 319.856H131.94V315.082H130.291V319.856Z" fill="#20AEE5"/>
<path d="M126.878 319.856H128.526V315.082H126.878V319.856Z" fill="#20AEE5"/>
<path d="M123.469 319.856H125.118V315.082H123.469V319.856Z" fill="#20AEE5"/>
<path d="M120.055 319.856H121.704V315.082H120.055V319.856Z" fill="#20AEE5"/>
<path d="M116.642 319.856H118.29V315.082H116.642V319.856Z" fill="#20AEE5"/>
<path d="M113.228 319.856H114.876V315.082H113.228V319.856Z" fill="#20AEE5"/>
<path d="M109.814 319.856H111.462V315.082H109.814V319.856Z" fill="#20AEE5"/>
<path d="M108.192 323.494H147.222V318.953H108.192V323.494Z" fill="#008CCF"/>
<path d="M4.38596 298.886H11.0806L11.0806 238.813H4.38596L4.38596 298.886Z" fill="#187FC4"/>
<path d="M9.69805 298.886H79.6059V240.993H9.69805V298.886Z" fill="#65AADD"/>
<path d="M73.7514 248.533H76.6973V244.859H73.7514V248.533Z" fill="#9FD9F6"/>
<path d="M67.6311 248.533H70.577V244.859H67.6311V248.533Z" fill="#9FD9F6"/>
<path d="M61.5214 248.533H64.4673V244.859H61.5214V248.533Z" fill="#9FD9F6"/>
<path d="M55.4064 248.533H58.3523V244.859H55.4064V248.533Z" fill="#9FD9F6"/>
<path d="M49.2914 248.533H52.2373V244.859H49.2914V248.533Z" fill="#9FD9F6"/>
<path d="M43.1764 248.533H46.1223V244.859H43.1764V248.533Z" fill="#9FD9F6"/>
<path d="M37.0614 248.533H40.0073V244.859H37.0614V248.533Z" fill="#9FD9F6"/>
<path d="M30.9517 248.533H33.8976V244.859H30.9517V248.533Z" fill="#9FD9F6"/>
<path d="M24.8367 248.533H27.7825V244.859H24.8367V248.533Z" fill="#9FD9F6"/>
<path d="M18.7217 248.533H21.6675V244.859H18.7217V248.533Z" fill="#9FD9F6"/>
<path d="M12.6067 248.533H15.5525V244.859H12.6067V248.533Z" fill="#9FD9F6"/>
<path d="M9.69805 251.33H79.6059V247.837H9.69805V251.33Z" fill="#38A1DB"/>
<path d="M9.69805 242.307H79.6059V238.813H9.69805V242.307Z" fill="#38A1DB"/>
<path d="M73.7514 258.04H76.6973V254.366H73.7514V258.04Z" fill="#9FD9F6"/>
<path d="M67.6311 258.04H70.577V254.366H67.6311V258.04Z" fill="#9FD9F6"/>
<path d="M61.5214 258.04H64.4673V254.366H61.5214V258.04Z" fill="#9FD9F6"/>
<path d="M55.4065 258.04H58.3523V254.366H55.4065V258.04Z" fill="#9FD9F6"/>
<path d="M49.2914 258.04H52.2372V254.366H49.2914V258.04Z" fill="#9FD9F6"/>
<path d="M43.1764 258.04H46.1223V254.366H43.1764V258.04Z" fill="#9FD9F6"/>
<path d="M37.0614 258.04H40.0073V254.366H37.0614V258.04Z" fill="#9FD9F6"/>
<path d="M30.9517 258.04H33.8975V254.366H30.9517V258.04Z" fill="#9FD9F6"/>
<path d="M24.8367 258.04H27.7825V254.366H24.8367V258.04Z" fill="#9FD9F6"/>
<path d="M18.7217 258.04H21.6675V254.366H18.7217V258.04Z" fill="#9FD9F6"/>
<path d="M12.6066 258.04H15.5525V254.366H12.6066V258.04Z" fill="#9FD9F6"/>
<path d="M9.69805 260.848H79.6059V257.354H9.69805V260.848Z" fill="#38A1DB"/>
<path d="M73.7514 267.552H76.6973V263.878H73.7514V267.552Z" fill="#9FD9F6"/>
<path d="M67.6311 267.552H70.577V263.878H67.6311V267.552Z" fill="#9FD9F6"/>
<path d="M61.5214 267.552H64.4673V263.878H61.5214V267.552Z" fill="#9FD9F6"/>
<path d="M55.4065 267.552H58.3523V263.878H55.4065V267.552Z" fill="#9FD9F6"/>
<path d="M49.2914 267.552H52.2372V263.878H49.2914V267.552Z" fill="#9FD9F6"/>
<path d="M43.1764 267.552H46.1223V263.878H43.1764V267.552Z" fill="#9FD9F6"/>
<path d="M37.0614 267.552H40.0073V263.878H37.0614V267.552Z" fill="#9FD9F6"/>
<path d="M30.9517 267.552H33.8975V263.878H30.9517V267.552Z" fill="#9FD9F6"/>
<path d="M24.8367 267.552H27.7825V263.878H24.8367V267.552Z" fill="#9FD9F6"/>
<path d="M18.7217 267.552H21.6675V263.878H18.7217V267.552Z" fill="#9FD9F6"/>
<path d="M12.6066 267.552H15.5525V263.878H12.6066V267.552Z" fill="#9FD9F6"/>
<path d="M9.69805 270.354H79.6059V266.861H9.69805V270.354Z" fill="#38A1DB"/>
<path d="M73.7514 277.064H76.6973V273.39H73.7514V277.064Z" fill="#9FD9F6"/>
<path d="M67.6311 277.064H70.577V273.39H67.6311V277.064Z" fill="#9FD9F6"/>
<path d="M61.5214 277.064H64.4673V273.39H61.5214V277.064Z" fill="#9FD9F6"/>
<path d="M55.4065 277.064H58.3523V273.39H55.4065V277.064Z" fill="#9FD9F6"/>
<path d="M49.2914 277.064H52.2372V273.39H49.2914V277.064Z" fill="#9FD9F6"/>
<path d="M43.1764 277.064H46.1223V273.39H43.1764V277.064Z" fill="#9FD9F6"/>
<path d="M37.0614 277.064H40.0073V273.39H37.0614V277.064Z" fill="#9FD9F6"/>
<path d="M30.9517 277.064H33.8975V273.39H30.9517V277.064Z" fill="#9FD9F6"/>
<path d="M24.8367 277.064H27.7825V273.39H24.8367V277.064Z" fill="#9FD9F6"/>
<path d="M18.7217 277.064H21.6675V273.39H18.7217V277.064Z" fill="#9FD9F6"/>
<path d="M12.6066 277.064H15.5525V273.39H12.6066V277.064Z" fill="#9FD9F6"/>
<path d="M9.69805 279.867H79.6059V276.374H9.69805V279.867Z" fill="#38A1DB"/>
<path d="M73.7514 286.577H76.6973V282.903H73.7514V286.577Z" fill="#9FD9F6"/>
<path d="M67.6311 286.577H70.577V282.903H67.6311V286.577Z" fill="#9FD9F6"/>
<path d="M61.5214 286.577H64.4673V282.903H61.5214V286.577Z" fill="#9FD9F6"/>
<path d="M55.4065 286.577H58.3523V282.903H55.4065V286.577Z" fill="#9FD9F6"/>
<path d="M49.2914 286.577H52.2372V282.903H49.2914V286.577Z" fill="#9FD9F6"/>
<path d="M43.1764 286.577H46.1223V282.903H43.1764V286.577Z" fill="#9FD9F6"/>
<path d="M37.0614 286.577H40.0073V282.903H37.0614V286.577Z" fill="#9FD9F6"/>
<path d="M30.9517 286.577H33.8975V282.903H30.9517V286.577Z" fill="#9FD9F6"/>
<path d="M24.8367 286.577H27.7825V282.903H24.8367V286.577Z" fill="#9FD9F6"/>
<path d="M18.7217 286.577H21.6675V282.903H18.7217V286.577Z" fill="#9FD9F6"/>
<path d="M12.6066 286.577H15.5525V282.903H12.6066V286.577Z" fill="#9FD9F6"/>
<path d="M9.69805 289.374H79.6059V285.881H9.69805V289.374Z" fill="#38A1DB"/>
<path d="M73.7514 296.084H76.6973V292.41H73.7514V296.084Z" fill="#9FD9F6"/>
<path d="M67.6311 296.084H70.577V292.41H67.6311V296.084Z" fill="#9FD9F6"/>
<path d="M61.5214 296.084H64.4673V292.41H61.5214V296.084Z" fill="#9FD9F6"/>
<path d="M55.4065 296.084H58.3523V292.41H55.4065V296.084Z" fill="#9FD9F6"/>
<path d="M49.2914 296.084H52.2372V292.41H49.2914V296.084Z" fill="#9FD9F6"/>
<path d="M43.1764 296.084H46.1223V292.41H43.1764V296.084Z" fill="#9FD9F6"/>
<path d="M37.0614 296.084H40.0073V292.41H37.0614V296.084Z" fill="#9FD9F6"/>
<path d="M30.9517 296.084H33.8975V292.41H30.9517V296.084Z" fill="#9FD9F6"/>
<path d="M24.8367 296.084H27.7825V292.41H24.8367V296.084Z" fill="#9FD9F6"/>
<path d="M18.7217 296.084H21.6675V292.41H18.7217V296.084Z" fill="#9FD9F6"/>
<path d="M12.6066 296.084H15.5525V292.41H12.6066V296.084Z" fill="#9FD9F6"/>
<path d="M9.69805 298.892H79.6059V295.398H9.69805V298.892Z" fill="#38A1DB"/>
<path d="M668.125 277.271H-124.38V298.885H668.125V277.271Z" fill="#54C3F1"/>
<path d="M668.125 284.248H-124.38V305.862H668.125V284.248Z" fill="#20AEE5"/>
<path d="M668.125 295.791H-124.38V324.748H668.125V295.791Z" fill="#0092D8"/>
<path d="M668.125 312.806H-124.38V346.862H668.125V312.806Z" fill="#0068B7"/>
</g>
</g>
<defs>
<linearGradient id="paint0_linear_354_11218" x1="140.724" y1="307.962" x2="140.724" y2="56.5166" gradientUnits="userSpaceOnUse">
<stop offset="0.52" stop-color="#38A1DB"/>
<stop offset="1" stop-color="#9FD9F6"/>
</linearGradient>
<linearGradient id="paint1_linear_354_11218" x1="321.218" y1="295.115" x2="321.218" y2="84.8506" gradientUnits="userSpaceOnUse">
<stop offset="0.52" stop-color="#38A1DB"/>
<stop offset="1" stop-color="#9FD9F6"/>
</linearGradient>
<linearGradient id="paint2_linear_354_11218" x1="14.0796" y1="298.886" x2="14.0796" y2="35.5244" gradientUnits="userSpaceOnUse">
<stop offset="0.52" stop-color="#38A1DB"/>
<stop offset="1" stop-color="#9FD9F6"/>
</linearGradient>
<linearGradient id="paint3_linear_354_11218" x1="90.6555" y1="298.886" x2="90.6555" y2="118.179" gradientUnits="userSpaceOnUse">
<stop stop-color="#005BAC"/>
<stop offset="0.5" stop-color="#006CB8"/>
<stop offset="1" stop-color="#006CB8"/>
</linearGradient>
<linearGradient id="paint4_linear_354_11218" x1="335.894" y1="226.595" x2="335.894" y2="298.886" gradientUnits="userSpaceOnUse">
<stop stop-color="#008CCF"/>
<stop offset="1" stop-color="#006CB8"/>
</linearGradient>
<linearGradient id="paint5_linear_354_11218" x1="180.115" y1="-184.067" x2="180.115" y2="91.2207" gradientUnits="userSpaceOnUse">
<stop stop-color="#005BAC"/>
<stop offset="0.5" stop-color="#006CB8"/>
<stop offset="1" stop-color="#006CB8"/>
</linearGradient>
<clipPath id="clip0_354_11218">
<rect width="390" height="325" fill="white"/>
</clipPath>
</defs>
</svg>
