<svg width="1440" height="926" viewBox="0 0 1440 926" fill="none" xmlns="http://www.w3.org/2000/svg">
<g opacity="0.3" clip-path="url(#clip0_345_7386)">
<mask id="mask0_345_7386" style="mask-type:luminance" maskUnits="userSpaceOnUse" x="0" y="-52" width="1448" height="1014">
<path d="M1447.39 -52H0.394531V961.462H1447.39V-52Z" fill="white"/>
</mask>
<g mask="url(#mask0_345_7386)">
<path d="M696.227 481.623H626.272V900.847H696.227V481.623Z" fill="#38A1DB"/>
<path d="M1460.96 642.989H1315.34V884.523H1460.96V642.989Z" fill="#0075C2"/>
<path d="M1056 625.113H986.041V889.406H1056V625.113Z" fill="#38A1DB"/>
<path d="M671.183 626.747H601.229V891.04H671.183V626.747Z" fill="#0081CC"/>
<path d="M1494 509.52H1424.05V928.744H1494V509.52Z" fill="#38A1DB"/>
<path d="M554.204 410.199H408.577V893.267H554.204V410.199Z" fill="url(#paint0_linear_345_7386)"/>
<path d="M887.817 482.593V464.635H758.433V482.593H718.198V868.588H937.68V482.593H887.817Z" fill="url(#paint1_linear_345_7386)"/>
<path d="M1206.76 539.521V521.563H1077.36V539.521H1037.13V925.526H1256.61V539.521H1206.76Z" fill="url(#paint2_linear_345_7386)"/>
<path d="M317.642 400.28V379.758H303.971V369.87H172.494V379.758H158.814V400.28H135.628V875.83H340.827V400.28H317.642Z" fill="url(#paint3_linear_345_7386)"/>
<path d="M813.87 513.003H664.516V522.697H813.87V513.003Z" fill="#3071B9"/>
<path d="M817.127 518.969H660.535V538.551H817.127V518.969Z" fill="#38A1DB"/>
<path d="M817.127 534.822H660.535V875.84H817.127V534.822Z" fill="#9FD9F6"/>
<path d="M816.422 550.666H660.535V557.009H816.422V550.666Z" fill="#38A1DB"/>
<path d="M816.422 581.985H660.535V588.328H816.422V581.985Z" fill="#38A1DB"/>
<path d="M816.422 613.314H660.535V619.658H816.422V613.314Z" fill="#38A1DB"/>
<path d="M816.422 644.634H660.535V650.977H816.422V644.634Z" fill="#38A1DB"/>
<path d="M816.422 675.963H660.535V682.306H816.422V675.963Z" fill="#38A1DB"/>
<path d="M816.422 707.282H660.535V713.626H816.422V707.282Z" fill="#38A1DB"/>
<path d="M816.422 738.602H660.535V744.945H816.422V738.602Z" fill="#38A1DB"/>
<path d="M816.422 769.931H660.535V776.275H816.422V769.931Z" fill="#38A1DB"/>
<path d="M816.422 801.25H660.535V807.594H816.422V801.25Z" fill="#38A1DB"/>
<path d="M816.422 832.58H660.535V838.923H816.422V832.58Z" fill="#38A1DB"/>
<path d="M816.422 863.899H660.535V870.242H816.422V863.899Z" fill="#38A1DB"/>
<path d="M664.486 534.812H661.28V873.593H664.486V534.812Z" fill="#1D50A2"/>
<path d="M676.227 534.812H673.021V873.593H676.227V534.812Z" fill="#1D50A2"/>
<path d="M687.957 534.812H684.751V873.593H687.957V534.812Z" fill="#1D50A2"/>
<path d="M699.698 534.812H696.492V873.593H699.698V534.812Z" fill="#1D50A2"/>
<path d="M711.439 534.812H708.233V873.593H711.439V534.812Z" fill="#1D50A2"/>
<path d="M723.18 534.812H719.974V873.593H723.18V534.812Z" fill="#1D50A2"/>
<path d="M734.92 534.812H731.715V873.593H734.92V534.812Z" fill="#1D50A2"/>
<path d="M746.661 534.812H743.455V873.593H746.661V534.812Z" fill="#1D50A2"/>
<path d="M758.402 534.812H755.196V873.593H758.402V534.812Z" fill="#1D50A2"/>
<path d="M770.143 534.812H766.937V873.593H770.143V534.812Z" fill="#1D50A2"/>
<path d="M781.884 534.812H778.678V873.593H781.884V534.812Z" fill="#1D50A2"/>
<path d="M793.625 534.812H790.419V873.593H793.625V534.812Z" fill="#1D50A2"/>
<path d="M805.365 534.812H802.16V873.593H805.365V534.812Z" fill="#1D50A2"/>
<path d="M817.096 534.812H813.89V873.593H817.096V534.812Z" fill="#1D50A2"/>
<path d="M663.771 534.812H660.565V873.593H663.771V534.812Z" fill="#0079C3"/>
<path d="M675.512 534.812H672.306V873.593H675.512V534.812Z" fill="#0079C3"/>
<path d="M687.253 534.812H684.047V873.593H687.253V534.812Z" fill="#0079C3"/>
<path d="M698.994 534.812H695.788V873.593H698.994V534.812Z" fill="#0079C3"/>
<path d="M710.734 534.812H707.529V873.593H710.734V534.812Z" fill="#0079C3"/>
<path d="M722.475 534.812H719.269V873.593H722.475V534.812Z" fill="#0079C3"/>
<path d="M734.216 534.812H731.01V873.593H734.216V534.812Z" fill="#0079C3"/>
<path d="M745.947 534.812H742.741V873.593H745.947V534.812Z" fill="#0079C3"/>
<path d="M757.687 534.812H754.482V873.593H757.687V534.812Z" fill="#0079C3"/>
<path d="M769.428 534.812H766.222V873.593H769.428V534.812Z" fill="#0079C3"/>
<path d="M781.169 534.812H777.963V873.593H781.169V534.812Z" fill="#0079C3"/>
<path d="M792.91 534.812H789.704V873.593H792.91V534.812Z" fill="#0079C3"/>
<path d="M804.651 534.812H801.445V873.593H804.651V534.812Z" fill="#0079C3"/>
<path d="M816.391 534.812H813.186V873.593H816.391V534.812Z" fill="#0079C3"/>
<path d="M804.222 507.783H673.45V513.003H804.222V507.783Z" fill="#38A1DB"/>
<path d="M244.604 600.954H154.873V608.707H244.604V600.954Z" fill="#5183B7"/>
<path d="M246.564 605.725H152.484V621.384H246.564V605.725Z" fill="#61AED7"/>
<path d="M246.564 618.401H152.484V891.142H246.564V618.401Z" fill="#CFEBF9"/>
<path d="M246.135 631.078H152.484V636.145H246.135V631.078Z" fill="#61AED7"/>
<path d="M246.135 656.125H152.484V661.192H246.135V656.125Z" fill="#61AED7"/>
<path d="M246.135 681.183H152.484V686.25H246.135V681.183Z" fill="#61AED7"/>
<path d="M246.135 706.23H152.484V711.297H246.135V706.23Z" fill="#61AED7"/>
<path d="M246.135 731.288H152.484V736.354H246.135V731.288Z" fill="#61AED7"/>
<path d="M246.135 756.335H152.484V761.402H246.135V756.335Z" fill="#61AED7"/>
<path d="M246.135 781.392H152.484V786.459H246.135V781.392Z" fill="#61AED7"/>
<path d="M246.135 806.439H152.484V811.506H246.135V806.439Z" fill="#61AED7"/>
<path d="M246.135 831.497H152.484V836.564H246.135V831.497Z" fill="#61AED7"/>
<path d="M246.135 856.544H152.484V861.611H246.135V856.544Z" fill="#61AED7"/>
<path d="M246.135 881.602H152.484V886.668H246.135V881.602Z" fill="#61AED7"/>
<path d="M154.863 618.401H152.933V889.355H154.863V618.401Z" fill="#5674A3"/>
<path d="M161.907 618.401H159.978V889.355H161.907V618.401Z" fill="#5674A3"/>
<path d="M168.962 618.401H167.032V889.355H168.962V618.401Z" fill="#5674A3"/>
<path d="M176.017 618.401H174.087V889.355H176.017V618.401Z" fill="#5674A3"/>
<path d="M183.071 618.401H181.142V889.355H183.071V618.401Z" fill="#5674A3"/>
<path d="M190.126 618.401H188.197V889.355H190.126V618.401Z" fill="#5674A3"/>
<path d="M197.181 618.401H195.251V889.355H197.181V618.401Z" fill="#5674A3"/>
<path d="M204.225 618.401H202.296V889.355H204.225V618.401Z" fill="#5674A3"/>
<path d="M211.28 618.401H209.35V889.355H211.28V618.401Z" fill="#5674A3"/>
<path d="M218.335 618.401H216.405V889.355H218.335V618.401Z" fill="#5674A3"/>
<path d="M225.389 618.401H223.46V889.355H225.389V618.401Z" fill="#5674A3"/>
<path d="M232.444 618.401H230.515V889.355H232.444V618.401Z" fill="#5674A3"/>
<path d="M239.499 618.401H237.569V889.355H239.499V618.401Z" fill="#5674A3"/>
<path d="M246.554 618.401H244.624V889.355H246.554V618.401Z" fill="#5674A3"/>
<path d="M154.434 618.401H152.504V889.355H154.434V618.401Z" fill="#4893C0"/>
<path d="M161.489 618.401H159.559V889.355H161.489V618.401Z" fill="#4893C0"/>
<path d="M168.533 618.401H166.604V889.355H168.533V618.401Z" fill="#4893C0"/>
<path d="M175.588 618.401H173.658V889.355H175.588V618.401Z" fill="#4893C0"/>
<path d="M182.643 618.401H180.713V889.355H182.643V618.401Z" fill="#4893C0"/>
<path d="M189.697 618.401H187.768V889.355H189.697V618.401Z" fill="#4893C0"/>
<path d="M196.752 618.401H194.823V889.355H196.752V618.401Z" fill="#4893C0"/>
<path d="M203.807 618.401H201.877V889.355H203.807V618.401Z" fill="#4893C0"/>
<path d="M210.861 618.401H208.932V889.355H210.861V618.401Z" fill="#4893C0"/>
<path d="M217.906 618.401H215.976V889.355H217.906V618.401Z" fill="#4893C0"/>
<path d="M224.961 618.401H223.031V889.355H224.961V618.401Z" fill="#4893C0"/>
<path d="M232.015 618.401H230.086V889.355H232.015V618.401Z" fill="#4893C0"/>
<path d="M239.07 618.401H237.141V889.355H239.07V618.401Z" fill="#4893C0"/>
<path d="M246.125 618.401H244.195V889.355H246.125V618.401Z" fill="#4893C0"/>
<path d="M238.815 596.776H160.243V600.954H238.815V596.776Z" fill="#61AED7"/>
<path d="M1370.18 411.833V397.011H1331.41V411.833H1331.19V397.011H1202.07V411.833H1186.15V868.352H1338.01H1355.91H1381.63V411.833H1370.18Z" fill="#008CCF"/>
<path d="M392.497 486.791H391.415V531.104H392.497V486.791Z" fill="#4694D1"/>
<path d="M394.712 497.037H393.855V509.642H394.712V497.037Z" fill="#4694D1"/>
<path d="M394.181 499.876H392.334V500.162H394.181V499.876Z" fill="#4694D1"/>
<path d="M394.181 507.517H392.129V507.885H394.181V507.517Z" fill="#4694D1"/>
<path d="M395.611 516.057H388.301V532.994H395.611V516.057Z" fill="#3071B9"/>
<path d="M377.744 517.272H322.348V531.093H377.744V517.272Z" fill="#4694D1"/>
<path d="M461.839 528.663H308.668V875.84H461.839V528.663Z" fill="url(#paint4_linear_345_7386)"/>
<path d="M318.019 533.535H311.516V875.83H318.019V533.535Z" fill="#187FC4"/>
<path d="M337.928 533.535H331.424V875.83H337.928V533.535Z" fill="#187FC4"/>
<path d="M357.836 533.535H351.333V875.83H357.836V533.535Z" fill="#187FC4"/>
<path d="M377.744 533.535H371.241V875.83H377.744V533.535Z" fill="#187FC4"/>
<path d="M397.653 533.535H391.149V875.83H397.653V533.535Z" fill="#187FC4"/>
<path d="M417.561 533.535H411.058V875.83H417.561V533.535Z" fill="#187FC4"/>
<path d="M437.469 533.535H430.966V875.83H437.469V533.535Z" fill="#187FC4"/>
<path d="M457.378 533.535H450.874V875.83H457.378V533.535Z" fill="#187FC4"/>
<path d="M461.839 538.827H308.668V542.075H461.839V538.827Z" fill="#4694D1"/>
<path d="M461.839 554.537H308.668V557.785H461.839V554.537Z" fill="#4694D1"/>
<path d="M461.839 570.258H308.668V573.507H461.839V570.258Z" fill="#4694D1"/>
<path d="M461.839 585.979H308.668V589.227H461.839V585.979Z" fill="#4694D1"/>
<path d="M461.839 601.7H308.668V604.948H461.839V601.7Z" fill="#4694D1"/>
<path d="M461.839 617.421H308.668V620.669H461.839V617.421Z" fill="#4694D1"/>
<path d="M461.839 633.131H308.668V636.38H461.839V633.131Z" fill="#4694D1"/>
<path d="M461.839 648.853H308.668V652.101H461.839V648.853Z" fill="#4694D1"/>
<path d="M461.839 664.573H308.668V667.822H461.839V664.573Z" fill="#4694D1"/>
<path d="M461.839 680.294H308.668V683.543H461.839V680.294Z" fill="#4694D1"/>
<path d="M461.839 696.015H308.668V699.264H461.839V696.015Z" fill="#4694D1"/>
<path d="M461.839 711.736H308.668V714.984H461.839V711.736Z" fill="#4694D1"/>
<path d="M461.839 727.447H308.668V730.695H461.839V727.447Z" fill="#4694D1"/>
<path d="M461.839 743.167H308.668V746.416H461.839V743.167Z" fill="#4694D1"/>
<path d="M461.839 758.889H308.668V762.137H461.839V758.889Z" fill="#4694D1"/>
<path d="M461.839 774.609H308.668V777.858H461.839V774.609Z" fill="#4694D1"/>
<path d="M461.839 790.331H308.668V793.579H461.839V790.331Z" fill="#4694D1"/>
<path d="M461.839 806.041H308.668V809.289H461.839V806.041Z" fill="#4694D1"/>
<path d="M461.839 821.762H308.668V825.011H461.839V821.762Z" fill="#4694D1"/>
<path d="M461.839 837.483H308.668V840.731H461.839V837.483Z" fill="#4694D1"/>
<path d="M461.839 853.204H308.668V856.452H461.839V853.204Z" fill="#4694D1"/>
<path d="M1401.28 593.814H1322.86V604.489H1401.28V593.814Z" fill="#4694D1"/>
<path d="M1404.61 598.952H1318.31V609.627H1404.61V598.952Z" fill="#78B8E5"/>
<path d="M1413.83 607.737H1308.94V875.83H1413.83V607.737Z" fill="#0079C3"/>
<path d="M1315.34 611.506H1310.88V875.84H1315.34V611.506Z" fill="#4EA5DC"/>
<path d="M1328.98 611.506H1324.52V875.84H1328.98V611.506Z" fill="#4EA5DC"/>
<path d="M1342.6 611.506H1338.15V875.84H1342.6V611.506Z" fill="#4EA5DC"/>
<path d="M1356.23 611.506H1351.78V875.84H1356.23V611.506Z" fill="#4EA5DC"/>
<path d="M1369.86 611.506H1365.41V875.84H1369.86V611.506Z" fill="#4EA5DC"/>
<path d="M1383.49 611.506H1379.04V875.84H1383.49V611.506Z" fill="#4EA5DC"/>
<path d="M1397.12 611.506H1392.67V875.84H1397.12V611.506Z" fill="#4EA5DC"/>
<path d="M1410.75 611.506H1406.3V875.84H1410.75V611.506Z" fill="#4EA5DC"/>
<path d="M1413.83 615.582H1308.94V618.095H1413.83V615.582Z" fill="#78B8E5"/>
<path d="M1413.83 627.728H1308.94V630.241H1413.83V627.728Z" fill="#78B8E5"/>
<path d="M1413.83 639.863H1308.94V642.376H1413.83V639.863Z" fill="#78B8E5"/>
<path d="M1413.83 651.999H1308.94V654.511H1413.83V651.999Z" fill="#78B8E5"/>
<path d="M1413.83 664.145H1308.94V666.657H1413.83V664.145Z" fill="#78B8E5"/>
<path d="M1413.83 676.28H1308.94V678.793H1413.83V676.28Z" fill="#78B8E5"/>
<path d="M1413.83 688.415H1308.94V690.928H1413.83V688.415Z" fill="#78B8E5"/>
<path d="M1413.83 700.561H1308.94V703.074H1413.83V700.561Z" fill="#78B8E5"/>
<path d="M1413.83 712.696H1308.94V715.209H1413.83V712.696Z" fill="#78B8E5"/>
<path d="M1413.83 724.832H1308.94V727.344H1413.83V724.832Z" fill="#78B8E5"/>
<path d="M1413.83 736.967H1308.94V739.48H1413.83V736.967Z" fill="#78B8E5"/>
<path d="M1413.83 749.113H1308.94V751.626H1413.83V749.113Z" fill="#78B8E5"/>
<path d="M1413.83 761.248H1308.94V763.761H1413.83V761.248Z" fill="#78B8E5"/>
<path d="M1413.83 773.384H1308.94V775.897H1413.83V773.384Z" fill="#78B8E5"/>
<path d="M1413.83 785.529H1308.94V788.042H1413.83V785.529Z" fill="#78B8E5"/>
<path d="M1413.83 797.665H1308.94V800.178H1413.83V797.665Z" fill="#78B8E5"/>
<path d="M1413.83 809.8H1308.94V812.313H1413.83V809.8Z" fill="#78B8E5"/>
<path d="M1413.83 821.946H1308.94V824.459H1413.83V821.946Z" fill="#78B8E5"/>
<path d="M1413.83 834.082H1308.94V836.594H1413.83V834.082Z" fill="#78B8E5"/>
<path d="M1413.83 846.217H1308.94V848.73H1413.83V846.217Z" fill="#78B8E5"/>
<path d="M1413.83 858.362H1308.94V860.875H1413.83V858.362Z" fill="#78B8E5"/>
<path d="M1053.4 708.437H914.974V714.821H1053.4V708.437Z" fill="#4694D1"/>
<path d="M1059.28 711.501H906.939V717.885H1059.28V711.501Z" fill="#78B8E5"/>
<path d="M1075.54 716.762H890.4V877.127H1075.54V716.762Z" fill="#82C1EA"/>
<path d="M901.702 719.019H893.84V877.127H901.702V719.019Z" fill="#4EA5DC"/>
<path d="M925.765 719.019H917.904V877.127H925.765V719.019Z" fill="#4EA5DC"/>
<path d="M949.829 719.019H941.968V877.127H949.829V719.019Z" fill="#4EA5DC"/>
<path d="M973.892 719.019H966.031V877.127H973.892V719.019Z" fill="#4EA5DC"/>
<path d="M997.956 719.019H990.095V877.127H997.956V719.019Z" fill="#4EA5DC"/>
<path d="M1022.02 719.019H1014.16V877.127H1022.02V719.019Z" fill="#4EA5DC"/>
<path d="M1046.08 719.019H1038.22V877.127H1046.08V719.019Z" fill="#4EA5DC"/>
<path d="M1070.15 719.019H1062.29V877.127H1070.15V719.019Z" fill="#4EA5DC"/>
<path d="M1075.54 721.46H890.4V722.962H1075.54V721.46Z" fill="#78B8E5"/>
<path d="M1075.54 728.723H890.4V730.225H1075.54V728.723Z" fill="#78B8E5"/>
<path d="M1075.54 735.976H890.4V737.478H1075.54V735.976Z" fill="#78B8E5"/>
<path d="M1075.54 743.239H890.4V744.74H1075.54V743.239Z" fill="#78B8E5"/>
<path d="M1075.54 750.502H890.4V752.004H1075.54V750.502Z" fill="#78B8E5"/>
<path d="M1075.54 757.765H890.4V759.266H1075.54V757.765Z" fill="#78B8E5"/>
<path d="M1075.54 765.027H890.4V766.529H1075.54V765.027Z" fill="#78B8E5"/>
<path d="M1075.54 772.28H890.4V773.782H1075.54V772.28Z" fill="#78B8E5"/>
<path d="M1075.54 779.543H890.4V781.045H1075.54V779.543Z" fill="#78B8E5"/>
<path d="M1075.54 786.806H890.4V788.308H1075.54V786.806Z" fill="#78B8E5"/>
<path d="M1075.54 794.069H890.4V795.57H1075.54V794.069Z" fill="#78B8E5"/>
<path d="M1075.54 801.332H890.4V802.833H1075.54V801.332Z" fill="#78B8E5"/>
<path d="M1075.54 808.584H890.4V810.086H1075.54V808.584Z" fill="#78B8E5"/>
<path d="M1075.54 815.847H890.4V817.349H1075.54V815.847Z" fill="#78B8E5"/>
<path d="M1075.54 823.11H890.4V824.611H1075.54V823.11Z" fill="#78B8E5"/>
<path d="M1075.54 830.373H890.4V831.875H1075.54V830.373Z" fill="#78B8E5"/>
<path d="M1075.54 837.636H890.4V839.137H1075.54V837.636Z" fill="#78B8E5"/>
<path d="M1075.54 844.889H890.4V846.39H1075.54V844.889Z" fill="#78B8E5"/>
<path d="M1075.54 852.151H890.4V853.653H1075.54V852.151Z" fill="#78B8E5"/>
<path d="M1075.54 859.414H890.4V860.916H1075.54V859.414Z" fill="#78B8E5"/>
<path d="M1075.54 866.677H890.4V868.179H1075.54V866.677Z" fill="#78B8E5"/>
<path d="M944.111 736.947H933.708V875.197H944.111V736.947Z" fill="#005EAD"/>
<path d="M827.938 729.796H796.075V738.418H827.938V729.796Z" fill="#006CB8"/>
<path d="M878.424 729.796H846.56V738.418H878.424V729.796Z" fill="#006CB8"/>
<path d="M923.049 721.175H908.429V739.858H923.049V721.175Z" fill="#006CB8"/>
<path d="M907.602 721.175H907.214V739.858H907.602V721.175Z" fill="#006CB8"/>
<path d="M908.654 723.33H907.408V723.545H908.654V723.33Z" fill="#006CB8"/>
<path d="M908.654 725.669H907.408V725.884H908.654V725.669Z" fill="#006CB8"/>
<path d="M908.654 728.009H907.408V728.223H908.654V728.009Z" fill="#006CB8"/>
<path d="M908.654 730.348H907.408V730.562H908.654V730.348Z" fill="#006CB8"/>
<path d="M908.654 732.687H907.408V732.902H908.654V732.687Z" fill="#006CB8"/>
<path d="M908.654 735.026H907.408V735.241H908.654V735.026Z" fill="#006CB8"/>
<path d="M908.654 737.366H907.408V737.58H908.654V737.366Z" fill="#006CB8"/>
<path d="M933.708 736.947H778.525V875.83H933.708V736.947Z" fill="url(#paint5_linear_345_7386)"/>
<path d="M789.612 746.732H783.609V756.437H789.612V746.732Z" fill="#65AADD"/>
<path d="M796.075 746.732H790.072V756.437H796.075V746.732Z" fill="#65AADD"/>
<path d="M801.077 743.964H800.495V757.673H801.077V743.964Z" fill="#1D50A2"/>
<path d="M811.777 746.732H805.774V756.437H811.777V746.732Z" fill="#65AADD"/>
<path d="M818.239 746.732H812.236V756.437H818.239V746.732Z" fill="#65AADD"/>
<path d="M823.242 743.964H822.66V757.673H823.242V743.964Z" fill="#1D50A2"/>
<path d="M833.941 746.732H827.938V756.437H833.941V746.732Z" fill="#65AADD"/>
<path d="M840.404 746.732H834.401V756.437H840.404V746.732Z" fill="#65AADD"/>
<path d="M845.407 743.964H844.825V757.673H845.407V743.964Z" fill="#1D50A2"/>
<path d="M856.096 746.732H850.093V756.437H856.096V746.732Z" fill="#65AADD"/>
<path d="M862.569 746.732H856.565V756.437H862.569V746.732Z" fill="#65AADD"/>
<path d="M867.571 743.964H866.989V757.673H867.571V743.964Z" fill="#1D50A2"/>
<path d="M878.26 746.732H872.257V756.437H878.26V746.732Z" fill="#65AADD"/>
<path d="M884.723 746.732H878.72V756.437H884.723V746.732Z" fill="#65AADD"/>
<path d="M889.736 743.964H889.154V757.673H889.736V743.964Z" fill="#1D50A2"/>
<path d="M900.425 746.732H894.422V756.437H900.425V746.732Z" fill="#65AADD"/>
<path d="M906.888 746.732H900.885V756.437H906.888V746.732Z" fill="#65AADD"/>
<path d="M911.9 743.964H911.319V757.673H911.9V743.964Z" fill="#1D50A2"/>
<path d="M922.59 746.733H916.587V756.437H922.59V746.733Z" fill="#65AADD"/>
<path d="M929.052 746.733H923.049V756.437H929.052V746.733Z" fill="#65AADD"/>
<path d="M935.811 755.977H781.843V760.87H935.811V755.977Z" fill="#005EAD"/>
<path d="M789.612 768.705H783.609V778.409H789.612V768.705Z" fill="#65AADD"/>
<path d="M796.075 768.705H790.072V778.409H796.075V768.705Z" fill="#65AADD"/>
<path d="M801.077 765.927H800.495V779.635H801.077V765.927Z" fill="#1D50A2"/>
<path d="M811.777 768.705H805.774V778.409H811.777V768.705Z" fill="#65AADD"/>
<path d="M818.239 768.705H812.236V778.409H818.239V768.705Z" fill="#65AADD"/>
<path d="M823.242 765.927H822.66V779.635H823.242V765.927Z" fill="#1D50A2"/>
<path d="M833.941 768.705H827.938V778.409H833.941V768.705Z" fill="#65AADD"/>
<path d="M840.404 768.705H834.401V778.409H840.404V768.705Z" fill="#65AADD"/>
<path d="M845.407 765.927H844.825V779.635H845.407V765.927Z" fill="#1D50A2"/>
<path d="M856.096 768.705H850.093V778.409H856.096V768.705Z" fill="#65AADD"/>
<path d="M862.569 768.705H856.565V778.409H862.569V768.705Z" fill="#65AADD"/>
<path d="M867.571 765.927H866.989V779.635H867.571V765.927Z" fill="#1D50A2"/>
<path d="M878.26 768.705H872.257V778.409H878.26V768.705Z" fill="#65AADD"/>
<path d="M884.723 768.705H878.72V778.409H884.723V768.705Z" fill="#65AADD"/>
<path d="M889.736 765.927H889.154V779.635H889.736V765.927Z" fill="#1D50A2"/>
<path d="M900.425 768.705H894.422V778.409H900.425V768.705Z" fill="#65AADD"/>
<path d="M906.888 768.705H900.885V778.409H906.888V768.705Z" fill="#65AADD"/>
<path d="M911.9 765.927H911.319V779.635H911.9V765.927Z" fill="#1D50A2"/>
<path d="M922.59 768.705H916.587V778.409H922.59V768.705Z" fill="#65AADD"/>
<path d="M929.052 768.705H923.049V778.409H929.052V768.705Z" fill="#65AADD"/>
<path d="M935.801 777.939H778.525V782.832H935.801V777.939Z" fill="#005EAD"/>
<path d="M789.612 790.678H783.609V800.382H789.612V790.678Z" fill="#65AADD"/>
<path d="M796.075 790.678H790.072V800.382H796.075V790.678Z" fill="#65AADD"/>
<path d="M801.077 787.899H800.495V801.608H801.077V787.899Z" fill="#1D50A2"/>
<path d="M811.777 790.678H805.774V800.382H811.777V790.678Z" fill="#65AADD"/>
<path d="M818.239 790.678H812.236V800.382H818.239V790.678Z" fill="#65AADD"/>
<path d="M823.242 787.899H822.66V801.608H823.242V787.899Z" fill="#1D50A2"/>
<path d="M833.941 790.678H827.938V800.382H833.941V790.678Z" fill="#65AADD"/>
<path d="M840.404 790.678H834.401V800.382H840.404V790.678Z" fill="#65AADD"/>
<path d="M845.407 787.899H844.825V801.608H845.407V787.899Z" fill="#1D50A2"/>
<path d="M856.096 790.678H850.093V800.382H856.096V790.678Z" fill="#65AADD"/>
<path d="M862.569 790.678H856.565V800.382H862.569V790.678Z" fill="#65AADD"/>
<path d="M867.571 787.899H866.989V801.608H867.571V787.899Z" fill="#1D50A2"/>
<path d="M878.26 790.678H872.257V800.382H878.26V790.678Z" fill="#65AADD"/>
<path d="M884.723 790.678H878.72V800.382H884.723V790.678Z" fill="#65AADD"/>
<path d="M889.736 787.899H889.154V801.608H889.736V787.899Z" fill="#1D50A2"/>
<path d="M900.425 790.678H894.422V800.382H900.425V790.678Z" fill="#65AADD"/>
<path d="M906.888 790.678H900.885V800.382H906.888V790.678Z" fill="#65AADD"/>
<path d="M911.9 787.899H911.319V801.608H911.9V787.899Z" fill="#1D50A2"/>
<path d="M922.59 790.678H916.587V800.382H922.59V790.678Z" fill="#65AADD"/>
<path d="M929.052 790.678H923.049V800.382H929.052V790.678Z" fill="#65AADD"/>
<path d="M935.801 799.912H778.525V804.805H935.801V799.912Z" fill="#005EAD"/>
<path d="M789.612 812.64H783.609V822.344H789.612V812.64Z" fill="#65AADD"/>
<path d="M796.075 812.64H790.072V822.344H796.075V812.64Z" fill="#65AADD"/>
<path d="M801.077 809.872H800.495V823.58H801.077V809.872Z" fill="#1D50A2"/>
<path d="M811.777 812.64H805.774V822.344H811.777V812.64Z" fill="#65AADD"/>
<path d="M818.239 812.64H812.236V822.344H818.239V812.64Z" fill="#65AADD"/>
<path d="M823.242 809.872H822.66V823.58H823.242V809.872Z" fill="#1D50A2"/>
<path d="M833.941 812.64H827.938V822.344H833.941V812.64Z" fill="#65AADD"/>
<path d="M840.404 812.64H834.401V822.344H840.404V812.64Z" fill="#65AADD"/>
<path d="M845.407 809.872H844.825V823.58H845.407V809.872Z" fill="#1D50A2"/>
<path d="M856.096 812.64H850.093V822.344H856.096V812.64Z" fill="#65AADD"/>
<path d="M862.569 812.64H856.565V822.344H862.569V812.64Z" fill="#65AADD"/>
<path d="M867.571 809.872H866.989V823.58H867.571V809.872Z" fill="#1D50A2"/>
<path d="M878.26 812.64H872.257V822.344H878.26V812.64Z" fill="#65AADD"/>
<path d="M884.723 812.64H878.72V822.344H884.723V812.64Z" fill="#65AADD"/>
<path d="M889.736 809.872H889.154V823.58H889.736V809.872Z" fill="#1D50A2"/>
<path d="M900.425 812.64H894.422V822.344H900.425V812.64Z" fill="#65AADD"/>
<path d="M906.888 812.64H900.885V822.344H906.888V812.64Z" fill="#65AADD"/>
<path d="M911.9 809.872H911.319V823.58H911.9V809.872Z" fill="#1D50A2"/>
<path d="M922.59 812.64H916.587V822.344H922.59V812.64Z" fill="#65AADD"/>
<path d="M929.052 812.64H923.049V822.344H929.052V812.64Z" fill="#65AADD"/>
<path d="M935.801 821.885H778.525V826.778H935.801V821.885Z" fill="#005EAD"/>
<path d="M789.612 834.612H783.609V844.317H789.612V834.612Z" fill="#65AADD"/>
<path d="M796.075 834.612H790.072V844.317H796.075V834.612Z" fill="#65AADD"/>
<path d="M801.077 831.844H800.495V845.553H801.077V831.844Z" fill="#1D50A2"/>
<path d="M811.777 834.612H805.774V844.317H811.777V834.612Z" fill="#65AADD"/>
<path d="M818.239 834.612H812.236V844.317H818.239V834.612Z" fill="#65AADD"/>
<path d="M823.242 831.844H822.66V845.553H823.242V831.844Z" fill="#1D50A2"/>
<path d="M833.941 834.612H827.938V844.317H833.941V834.612Z" fill="#65AADD"/>
<path d="M840.404 834.612H834.401V844.317H840.404V834.612Z" fill="#65AADD"/>
<path d="M845.407 831.844H844.825V845.553H845.407V831.844Z" fill="#1D50A2"/>
<path d="M856.096 834.612H850.093V844.317H856.096V834.612Z" fill="#65AADD"/>
<path d="M862.569 834.612H856.565V844.317H862.569V834.612Z" fill="#65AADD"/>
<path d="M867.571 831.844H866.989V845.553H867.571V831.844Z" fill="#1D50A2"/>
<path d="M878.26 834.612H872.257V844.317H878.26V834.612Z" fill="#65AADD"/>
<path d="M884.723 834.612H878.72V844.317H884.723V834.612Z" fill="#65AADD"/>
<path d="M889.736 831.844H889.154V845.553H889.736V831.844Z" fill="#1D50A2"/>
<path d="M900.425 834.612H894.422V844.317H900.425V834.612Z" fill="#65AADD"/>
<path d="M906.888 834.612H900.885V844.317H906.888V834.612Z" fill="#65AADD"/>
<path d="M911.9 831.844H911.319V845.553H911.9V831.844Z" fill="#1D50A2"/>
<path d="M922.59 834.612H916.587V844.317H922.59V834.612Z" fill="#65AADD"/>
<path d="M929.052 834.612H923.049V844.317H929.052V834.612Z" fill="#65AADD"/>
<path d="M935.801 843.857H778.525V848.75H935.801V843.857Z" fill="#005EAD"/>
<path d="M789.612 856.585H783.609V866.289H789.612V856.585Z" fill="#65AADD"/>
<path d="M796.075 856.585H790.072V866.289H796.075V856.585Z" fill="#65AADD"/>
<path d="M801.077 853.807H800.495V867.515H801.077V853.807Z" fill="#1D50A2"/>
<path d="M811.777 856.585H805.774V866.289H811.777V856.585Z" fill="#65AADD"/>
<path d="M818.239 856.585H812.236V866.289H818.239V856.585Z" fill="#65AADD"/>
<path d="M823.242 853.807H822.66V867.515H823.242V853.807Z" fill="#1D50A2"/>
<path d="M833.941 856.585H827.938V866.289H833.941V856.585Z" fill="#65AADD"/>
<path d="M840.404 856.585H834.401V866.289H840.404V856.585Z" fill="#65AADD"/>
<path d="M845.407 853.807H844.825V867.515H845.407V853.807Z" fill="#1D50A2"/>
<path d="M856.096 856.585H850.093V866.289H856.096V856.585Z" fill="#65AADD"/>
<path d="M862.569 856.585H856.565V866.289H862.569V856.585Z" fill="#65AADD"/>
<path d="M867.571 853.807H866.989V867.515H867.571V853.807Z" fill="#1D50A2"/>
<path d="M878.26 856.585H872.257V866.289H878.26V856.585Z" fill="#65AADD"/>
<path d="M884.723 856.585H878.72V866.289H884.723V856.585Z" fill="#65AADD"/>
<path d="M889.736 853.807H889.154V867.515H889.736V853.807Z" fill="#1D50A2"/>
<path d="M900.425 856.585H894.422V866.289H900.425V856.585Z" fill="#65AADD"/>
<path d="M906.888 856.585H900.885V866.289H906.888V856.585Z" fill="#65AADD"/>
<path d="M911.9 853.807H911.319V867.515H911.9V853.807Z" fill="#1D50A2"/>
<path d="M922.59 856.585H916.587V866.289H922.59V856.585Z" fill="#65AADD"/>
<path d="M929.052 856.585H923.049V866.289H929.052V856.585Z" fill="#65AADD"/>
<path d="M935.801 865.819H778.525V870.712H935.801V865.819Z" fill="#005EAD"/>
<path d="M558.716 369.87H555.327V408.922H558.716V369.87Z" fill="#0079C3"/>
<path d="M559.952 408.013H554.081V429.26H559.952V408.013Z" fill="#0079C3"/>
<path d="M563.239 436.86H550.804V464.706H563.239V436.86Z" fill="#0079C3"/>
<path d="M589.998 458.935H524.055V481.623H589.998V458.935Z" fill="#1D50A2"/>
<path d="M567.65 426.533H546.404V440.466H567.65V426.533Z" fill="#006CB8"/>
<path d="M563.239 404.52H550.804V410.209H563.239V404.52Z" fill="#006CB8"/>
<path d="M612.693 476.873H501.35V875.84H612.693V476.873Z" fill="url(#paint6_linear_345_7386)"/>
<path d="M612.693 508.641H501.35V516.159H612.693V508.641Z" fill="#00A5E3"/>
<path d="M612.693 529.316H501.35V536.835H612.693V529.316Z" fill="#00A5E3"/>
<path d="M612.693 549.992H501.35V557.51H612.693V549.992Z" fill="#00A5E3"/>
<path d="M612.693 570.656H501.35V578.174H612.693V570.656Z" fill="#00A5E3"/>
<path d="M612.693 591.332H501.35V598.85H612.693V591.332Z" fill="#00A5E3"/>
<path d="M612.693 612.007H501.35V619.525H612.693V612.007Z" fill="#00A5E3"/>
<path d="M612.693 632.682H501.35V640.2H612.693V632.682Z" fill="#00A5E3"/>
<path d="M612.693 653.357H501.35V660.876H612.693V653.357Z" fill="#00A5E3"/>
<path d="M612.693 674.022H501.35V681.541H612.693V674.022Z" fill="#00A5E3"/>
<path d="M612.693 694.698H501.35V702.216H612.693V694.698Z" fill="#00A5E3"/>
<path d="M612.693 715.373H501.35V722.891H612.693V715.373Z" fill="#00A5E3"/>
<path d="M612.693 736.048H501.35V743.566H612.693V736.048Z" fill="#00A5E3"/>
<path d="M612.693 756.723H501.35V764.241H612.693V756.723Z" fill="#00A5E3"/>
<path d="M612.693 777.388H501.35V784.906H612.693V777.388Z" fill="#00A5E3"/>
<path d="M612.693 798.063H501.35V805.581H612.693V798.063Z" fill="#00A5E3"/>
<path d="M612.693 818.738H501.35V826.257H612.693V818.738Z" fill="#00A5E3"/>
<path d="M612.693 839.414H501.35V846.932H612.693V839.414Z" fill="#00A5E3"/>
<path d="M95.097 535.128H3.8147V555.15H95.097V535.128Z" fill="#5F80B4"/>
<path d="M126.532 550.952H-27.6099V903.145H126.532V550.952Z" fill="url(#paint7_linear_345_7386)"/>
<path d="M126.532 579.002H-27.6099V585.632H126.532V579.002Z" fill="#5EC5EF"/>
<path d="M126.532 597.256H-27.6099V603.886H126.532V597.256Z" fill="#5EC5EF"/>
<path d="M126.532 615.5H-27.6099V622.13H126.532V615.5Z" fill="#5EC5EF"/>
<path d="M126.532 633.754H-27.6099V640.384H126.532V633.754Z" fill="#5EC5EF"/>
<path d="M126.532 651.999H-27.6099V658.628H126.532V651.999Z" fill="#5EC5EF"/>
<path d="M126.532 670.252H-27.6099V676.882H126.532V670.252Z" fill="#5EC5EF"/>
<path d="M126.532 688.497H-27.6099V695.126H126.532V688.497Z" fill="#5EC5EF"/>
<path d="M126.532 706.751H-27.6099V713.381H126.532V706.751Z" fill="#5EC5EF"/>
<path d="M126.532 725.005H-27.6099V731.635H126.532V725.005Z" fill="#5EC5EF"/>
<path d="M126.532 743.249H-27.6099V749.879H126.532V743.249Z" fill="#5EC5EF"/>
<path d="M126.532 761.503H-27.6099V768.133H126.532V761.503Z" fill="#5EC5EF"/>
<path d="M126.532 779.748H-27.6099V786.377H126.532V779.748Z" fill="#5EC5EF"/>
<path d="M126.532 798.001H-27.6099V804.631H126.532V798.001Z" fill="#5EC5EF"/>
<path d="M126.532 816.246H-27.6099V822.875H126.532V816.246Z" fill="#5EC5EF"/>
<path d="M126.532 834.5H-27.6099V841.13H126.532V834.5Z" fill="#5EC5EF"/>
<path d="M126.532 852.744H-27.6099V859.373H126.532V852.744Z" fill="#5EC5EF"/>
<path d="M126.532 870.998H-27.6099V877.628H126.532V870.998Z" fill="#5EC5EF"/>
<path d="M1121.81 753.066H1108.95V868.475H1121.81V753.066Z" fill="#116EB6"/>
<path d="M1111.61 757.254H977.383V868.475H1111.61V757.254Z" fill="#4492CE"/>
<path d="M988.624 764.67H982.968V771.729H988.624V764.67Z" fill="#73C1EA"/>
<path d="M1000.36 764.67H994.709V771.729H1000.36V764.67Z" fill="#73C1EA"/>
<path d="M1012.11 764.67H1006.45V771.729H1012.11V764.67Z" fill="#73C1EA"/>
<path d="M1023.85 764.67H1018.19V771.729H1023.85V764.67Z" fill="#73C1EA"/>
<path d="M1035.59 764.67H1029.93V771.729H1035.59V764.67Z" fill="#73C1EA"/>
<path d="M1047.33 764.67H1041.67V771.729H1047.33V764.67Z" fill="#73C1EA"/>
<path d="M1059.07 764.67H1053.41V771.729H1059.07V764.67Z" fill="#73C1EA"/>
<path d="M1070.81 764.67H1065.15V771.729H1070.81V764.67Z" fill="#73C1EA"/>
<path d="M1082.55 764.67H1076.89V771.729H1082.55V764.67Z" fill="#73C1EA"/>
<path d="M1094.28 764.67H1088.62V771.729H1094.28V764.67Z" fill="#73C1EA"/>
<path d="M1106.02 764.67H1100.37V771.729H1106.02V764.67Z" fill="#73C1EA"/>
<path d="M1111.61 770.401H977.383V777.112H1111.61V770.401Z" fill="#248DCB"/>
<path d="M1111.61 753.066H977.383V759.777H1111.61V753.066Z" fill="#248DCB"/>
<path d="M988.624 782.945H982.968V790.003H988.624V782.945Z" fill="#73C1EA"/>
<path d="M1000.36 782.945H994.709V790.003H1000.36V782.945Z" fill="#73C1EA"/>
<path d="M1012.11 782.945H1006.45V790.003H1012.11V782.945Z" fill="#73C1EA"/>
<path d="M1023.85 782.945H1018.19V790.003H1023.85V782.945Z" fill="#73C1EA"/>
<path d="M1035.59 782.945H1029.93V790.003H1035.59V782.945Z" fill="#73C1EA"/>
<path d="M1047.33 782.945H1041.67V790.003H1047.33V782.945Z" fill="#73C1EA"/>
<path d="M1059.07 782.945H1053.41V790.003H1059.07V782.945Z" fill="#73C1EA"/>
<path d="M1070.81 782.945H1065.15V790.003H1070.81V782.945Z" fill="#73C1EA"/>
<path d="M1082.55 782.945H1076.89V790.003H1082.55V782.945Z" fill="#73C1EA"/>
<path d="M1094.28 782.945H1088.62V790.003H1094.28V782.945Z" fill="#73C1EA"/>
<path d="M1106.02 782.945H1100.37V790.003H1106.02V782.945Z" fill="#73C1EA"/>
<path d="M1111.61 788.675H977.383V795.387H1111.61V788.675Z" fill="#248DCB"/>
<path d="M988.624 801.209H982.968V808.268H988.624V801.209Z" fill="#73C1EA"/>
<path d="M1000.36 801.209H994.709V808.268H1000.36V801.209Z" fill="#73C1EA"/>
<path d="M1012.11 801.209H1006.45V808.268H1012.11V801.209Z" fill="#73C1EA"/>
<path d="M1023.85 801.209H1018.19V808.268H1023.85V801.209Z" fill="#73C1EA"/>
<path d="M1035.59 801.209H1029.93V808.268H1035.59V801.209Z" fill="#73C1EA"/>
<path d="M1047.33 801.209H1041.67V808.268H1047.33V801.209Z" fill="#73C1EA"/>
<path d="M1059.07 801.209H1053.41V808.268H1059.07V801.209Z" fill="#73C1EA"/>
<path d="M1070.81 801.209H1065.15V808.268H1070.81V801.209Z" fill="#73C1EA"/>
<path d="M1082.55 801.209H1076.89V808.268H1082.55V801.209Z" fill="#73C1EA"/>
<path d="M1094.28 801.209H1088.62V808.268H1094.28V801.209Z" fill="#73C1EA"/>
<path d="M1106.02 801.209H1100.37V808.268H1106.02V801.209Z" fill="#73C1EA"/>
<path d="M1111.61 806.95H977.383V813.661H1111.61V806.95Z" fill="#248DCB"/>
<path d="M988.624 819.484H982.968V826.542H988.624V819.484Z" fill="#73C1EA"/>
<path d="M1000.36 819.484H994.709V826.542H1000.36V819.484Z" fill="#73C1EA"/>
<path d="M1012.11 819.484H1006.45V826.542H1012.11V819.484Z" fill="#73C1EA"/>
<path d="M1023.85 819.484H1018.19V826.542H1023.85V819.484Z" fill="#73C1EA"/>
<path d="M1035.59 819.484H1029.93V826.542H1035.59V819.484Z" fill="#73C1EA"/>
<path d="M1047.33 819.484H1041.67V826.542H1047.33V819.484Z" fill="#73C1EA"/>
<path d="M1059.07 819.484H1053.41V826.542H1059.07V819.484Z" fill="#73C1EA"/>
<path d="M1070.81 819.484H1065.15V826.542H1070.81V819.484Z" fill="#73C1EA"/>
<path d="M1082.55 819.484H1076.89V826.542H1082.55V819.484Z" fill="#73C1EA"/>
<path d="M1094.28 819.484H1088.62V826.542H1094.28V819.484Z" fill="#73C1EA"/>
<path d="M1106.02 819.484H1100.37V826.542H1106.02V819.484Z" fill="#73C1EA"/>
<path d="M1111.61 825.214H977.383V831.926H1111.61V825.214Z" fill="#248DCB"/>
<path d="M988.624 837.759H982.968V844.817H988.624V837.759Z" fill="#73C1EA"/>
<path d="M1000.36 837.759H994.709V844.817H1000.36V837.759Z" fill="#73C1EA"/>
<path d="M1012.11 837.759H1006.45V844.817H1012.11V837.759Z" fill="#73C1EA"/>
<path d="M1023.85 837.759H1018.19V844.817H1023.85V837.759Z" fill="#73C1EA"/>
<path d="M1035.59 837.759H1029.93V844.817H1035.59V837.759Z" fill="#73C1EA"/>
<path d="M1047.33 837.759H1041.67V844.817H1047.33V837.759Z" fill="#73C1EA"/>
<path d="M1059.07 837.759H1053.41V844.817H1059.07V837.759Z" fill="#73C1EA"/>
<path d="M1070.81 837.759H1065.15V844.817H1070.81V837.759Z" fill="#73C1EA"/>
<path d="M1082.55 837.759H1076.89V844.817H1082.55V837.759Z" fill="#73C1EA"/>
<path d="M1094.28 837.759H1088.62V844.817H1094.28V837.759Z" fill="#73C1EA"/>
<path d="M1106.02 837.759H1100.37V844.817H1106.02V837.759Z" fill="#73C1EA"/>
<path d="M1111.61 843.489H977.383V850.201H1111.61V843.489Z" fill="#248DCB"/>
<path d="M988.624 856.033H982.968V863.092H988.624V856.033Z" fill="#73C1EA"/>
<path d="M1000.36 856.033H994.709V863.092H1000.36V856.033Z" fill="#73C1EA"/>
<path d="M1012.11 856.033H1006.45V863.092H1012.11V856.033Z" fill="#73C1EA"/>
<path d="M1023.85 856.033H1018.19V863.092H1023.85V856.033Z" fill="#73C1EA"/>
<path d="M1035.59 856.033H1029.93V863.092H1035.59V856.033Z" fill="#73C1EA"/>
<path d="M1047.33 856.033H1041.67V863.092H1047.33V856.033Z" fill="#73C1EA"/>
<path d="M1059.07 856.033H1053.41V863.092H1059.07V856.033Z" fill="#73C1EA"/>
<path d="M1070.81 856.033H1065.15V863.092H1070.81V856.033Z" fill="#73C1EA"/>
<path d="M1082.55 856.033H1076.89V863.092H1082.55V856.033Z" fill="#73C1EA"/>
<path d="M1094.28 856.033H1088.62V863.092H1094.28V856.033Z" fill="#73C1EA"/>
<path d="M1106.02 856.033H1100.37V863.092H1106.02V856.033Z" fill="#73C1EA"/>
<path d="M1111.61 861.764H977.383V868.475H1111.61V861.764Z" fill="#248DCB"/>
<path d="M413.243 923.115H420.42V773.189H413.243V923.115Z" fill="#116EB6"/>
<path d="M418.929 923.105H493.866V778.624H418.929V923.105Z" fill="#7ECEF4"/>
<path d="M487.577 797.44H490.742V788.267H487.577V797.44Z" fill="#20AEE5"/>
<path d="M481.023 797.44H484.188V788.267H481.023V797.44Z" fill="#20AEE5"/>
<path d="M474.468 797.44H477.633V788.267H474.468V797.44Z" fill="#20AEE5"/>
<path d="M467.914 797.44H471.079V788.267H467.914V797.44Z" fill="#20AEE5"/>
<path d="M461.359 797.44H464.524V788.267H461.359V797.44Z" fill="#20AEE5"/>
<path d="M454.805 797.44H457.97V788.267H454.805V797.44Z" fill="#20AEE5"/>
<path d="M448.261 797.44H451.426V788.267H448.261V797.44Z" fill="#20AEE5"/>
<path d="M441.706 797.44H444.871V788.267H441.706V797.44Z" fill="#20AEE5"/>
<path d="M435.152 797.44H438.317V788.267H435.152V797.44Z" fill="#20AEE5"/>
<path d="M428.597 797.44H431.762V788.267H428.597V797.44Z" fill="#20AEE5"/>
<path d="M422.043 797.44H425.208V788.267H422.043V797.44Z" fill="#20AEE5"/>
<path d="M418.929 804.427H493.866V795.703H418.929V804.427Z" fill="#008CCF"/>
<path d="M418.929 781.903H493.866V773.179H418.929V781.903Z" fill="#008CCF"/>
<path d="M487.577 821.169H490.742V811.996H487.577V821.169Z" fill="#20AEE5"/>
<path d="M481.023 821.169H484.188V811.996H481.023V821.169Z" fill="#20AEE5"/>
<path d="M474.468 821.169H477.633V811.996H474.468V821.169Z" fill="#20AEE5"/>
<path d="M467.914 821.169H471.079V811.996H467.914V821.169Z" fill="#20AEE5"/>
<path d="M461.359 821.169H464.524V811.996H461.359V821.169Z" fill="#20AEE5"/>
<path d="M454.805 821.169H457.97V811.996H454.805V821.169Z" fill="#20AEE5"/>
<path d="M448.261 821.169H451.426V811.996H448.261V821.169Z" fill="#20AEE5"/>
<path d="M441.706 821.169H444.871V811.996H441.706V821.169Z" fill="#20AEE5"/>
<path d="M435.152 821.169H438.317V811.996H435.152V821.169Z" fill="#20AEE5"/>
<path d="M428.597 821.169H431.762V811.996H428.597V821.169Z" fill="#20AEE5"/>
<path d="M422.043 821.169H425.208V811.996H422.043V821.169Z" fill="#20AEE5"/>
<path d="M418.929 828.167H493.866V819.443H418.929V828.167Z" fill="#008CCF"/>
<path d="M487.577 844.909H490.742V835.736H487.577V844.909Z" fill="#20AEE5"/>
<path d="M481.023 844.909H484.188V835.736H481.023V844.909Z" fill="#20AEE5"/>
<path d="M474.468 844.909H477.633V835.736H474.468V844.909Z" fill="#20AEE5"/>
<path d="M467.914 844.909H471.079V835.736H467.914V844.909Z" fill="#20AEE5"/>
<path d="M461.359 844.909H464.524V835.736H461.359V844.909Z" fill="#20AEE5"/>
<path d="M454.805 844.909H457.97V835.736H454.805V844.909Z" fill="#20AEE5"/>
<path d="M448.261 844.909H451.426V835.736H448.261V844.909Z" fill="#20AEE5"/>
<path d="M441.706 844.909H444.871V835.736H441.706V844.909Z" fill="#20AEE5"/>
<path d="M435.152 844.909H438.317V835.736H435.152V844.909Z" fill="#20AEE5"/>
<path d="M428.597 844.909H431.762V835.736H428.597V844.909Z" fill="#20AEE5"/>
<path d="M422.043 844.909H425.208V835.736H422.043V844.909Z" fill="#20AEE5"/>
<path d="M418.929 851.896H493.866V843.172H418.929V851.896Z" fill="#008CCF"/>
<path d="M487.577 868.648H490.742V859.475H487.577V868.648Z" fill="#20AEE5"/>
<path d="M481.023 868.648H484.188V859.475H481.023V868.648Z" fill="#20AEE5"/>
<path d="M474.468 868.648H477.633V859.475H474.468V868.648Z" fill="#20AEE5"/>
<path d="M467.914 868.648H471.079V859.475H467.914V868.648Z" fill="#20AEE5"/>
<path d="M461.359 868.648H464.524V859.475H461.359V868.648Z" fill="#20AEE5"/>
<path d="M454.805 868.648H457.97V859.475H454.805V868.648Z" fill="#20AEE5"/>
<path d="M448.261 868.648H451.426V859.475H448.261V868.648Z" fill="#20AEE5"/>
<path d="M441.706 868.648H444.871V859.475H441.706V868.648Z" fill="#20AEE5"/>
<path d="M435.152 868.648H438.317V859.475H435.152V868.648Z" fill="#20AEE5"/>
<path d="M428.597 868.648H431.762V859.475H428.597V868.648Z" fill="#20AEE5"/>
<path d="M422.043 868.648H425.208V859.475H422.043V868.648Z" fill="#20AEE5"/>
<path d="M418.929 875.636H493.866V866.912H418.929V875.636Z" fill="#008CCF"/>
<path d="M487.577 892.378H490.742V883.205H487.577V892.378Z" fill="#20AEE5"/>
<path d="M481.023 892.378H484.188V883.205H481.023V892.378Z" fill="#20AEE5"/>
<path d="M474.468 892.378H477.633V883.205H474.468V892.378Z" fill="#20AEE5"/>
<path d="M467.914 892.378H471.079V883.205H467.914V892.378Z" fill="#20AEE5"/>
<path d="M461.359 892.378H464.524V883.205H461.359V892.378Z" fill="#20AEE5"/>
<path d="M454.805 892.378H457.97V883.205H454.805V892.378Z" fill="#20AEE5"/>
<path d="M448.261 892.378H451.426V883.205H448.261V892.378Z" fill="#20AEE5"/>
<path d="M441.706 892.378H444.871V883.205H441.706V892.378Z" fill="#20AEE5"/>
<path d="M435.152 892.378H438.317V883.205H435.152V892.378Z" fill="#20AEE5"/>
<path d="M428.597 892.378H431.762V883.205H428.597V892.378Z" fill="#20AEE5"/>
<path d="M422.043 892.378H425.208V883.205H422.043V892.378Z" fill="#20AEE5"/>
<path d="M418.929 899.375H493.866V890.652H418.929V899.375Z" fill="#008CCF"/>
<path d="M487.577 916.118H490.742V906.945H487.577V916.118Z" fill="#20AEE5"/>
<path d="M481.023 916.118H484.188V906.945H481.023V916.118Z" fill="#20AEE5"/>
<path d="M474.468 916.118H477.633V906.945H474.468V916.118Z" fill="#20AEE5"/>
<path d="M467.914 916.118H471.079V906.945H467.914V916.118Z" fill="#20AEE5"/>
<path d="M461.359 916.118H464.524V906.945H461.359V916.118Z" fill="#20AEE5"/>
<path d="M454.805 916.118H457.97V906.945H454.805V916.118Z" fill="#20AEE5"/>
<path d="M448.261 916.118H451.426V906.945H448.261V916.118Z" fill="#20AEE5"/>
<path d="M441.706 916.118H444.871V906.945H441.706V916.118Z" fill="#20AEE5"/>
<path d="M435.152 916.118H438.317V906.945H435.152V916.118Z" fill="#20AEE5"/>
<path d="M428.597 916.118H431.762V906.945H428.597V916.118Z" fill="#20AEE5"/>
<path d="M422.043 916.118H425.208V906.945H422.043V916.118Z" fill="#20AEE5"/>
<path d="M418.929 923.105H493.866V914.381H418.929V923.105Z" fill="#008CCF"/>
<path d="M1231.53 743.454H1169.55V751.861H1231.53V743.454Z" fill="#3071B9"/>
<path d="M1240.03 748.725H1159.3V874.451H1240.03V748.725Z" fill="#9FD9F6"/>
<path d="M1172.88 756.304H1168.17V766.632H1172.88V756.304Z" fill="#82C1EA"/>
<path d="M1178.07 756.304H1173.35V766.632H1178.07V756.304Z" fill="#82C1EA"/>
<path d="M1190.05 756.304H1185.33V766.632H1190.05V756.304Z" fill="#82C1EA"/>
<path d="M1195.23 756.304H1190.52V766.632H1195.23V756.304Z" fill="#82C1EA"/>
<path d="M1207.2 756.304H1202.48V766.632H1207.2V756.304Z" fill="#82C1EA"/>
<path d="M1212.38 756.304H1207.67V766.632H1212.38V756.304Z" fill="#82C1EA"/>
<path d="M1224.36 756.304H1219.64V766.632H1224.36V756.304Z" fill="#82C1EA"/>
<path d="M1229.55 756.304H1224.83V766.632H1229.55V756.304Z" fill="#82C1EA"/>
<path d="M1240.03 764.466H1159.3V772.015H1240.03V764.466Z" fill="#187FC4"/>
<path d="M1172.88 777.071H1168.17V787.399H1172.88V777.071Z" fill="#82C1EA"/>
<path d="M1178.07 777.071H1173.35V787.399H1178.07V777.071Z" fill="#82C1EA"/>
<path d="M1190.05 777.071H1185.33V787.399H1190.05V777.071Z" fill="#82C1EA"/>
<path d="M1195.23 777.071H1190.52V787.399H1195.23V777.071Z" fill="#82C1EA"/>
<path d="M1207.2 777.071H1202.48V787.399H1207.2V777.071Z" fill="#82C1EA"/>
<path d="M1212.38 777.071H1207.67V787.399H1212.38V777.071Z" fill="#82C1EA"/>
<path d="M1224.36 777.071H1219.64V787.399H1224.36V777.071Z" fill="#82C1EA"/>
<path d="M1229.55 777.071H1224.83V787.399H1229.55V777.071Z" fill="#82C1EA"/>
<path d="M1240.03 785.223H1159.3V792.772H1240.03V785.223Z" fill="#187FC4"/>
<path d="M1172.88 797.838H1168.17V808.166H1172.88V797.838Z" fill="#82C1EA"/>
<path d="M1178.07 797.838H1173.35V808.166H1178.07V797.838Z" fill="#82C1EA"/>
<path d="M1190.05 797.838H1185.33V808.166H1190.05V797.838Z" fill="#82C1EA"/>
<path d="M1195.23 797.838H1190.52V808.166H1195.23V797.838Z" fill="#82C1EA"/>
<path d="M1207.2 797.838H1202.48V808.166H1207.2V797.838Z" fill="#82C1EA"/>
<path d="M1212.38 797.838H1207.67V808.166H1212.38V797.838Z" fill="#82C1EA"/>
<path d="M1224.36 797.838H1219.64V808.166H1224.36V797.838Z" fill="#82C1EA"/>
<path d="M1229.55 797.838H1224.83V808.166H1229.55V797.838Z" fill="#82C1EA"/>
<path d="M1240.03 805.99H1159.3V813.539H1240.03V805.99Z" fill="#187FC4"/>
<path d="M1172.88 818.595H1168.17V828.923H1172.88V818.595Z" fill="#82C1EA"/>
<path d="M1178.07 818.595H1173.35V828.923H1178.07V818.595Z" fill="#82C1EA"/>
<path d="M1190.05 818.595H1185.33V828.923H1190.05V818.595Z" fill="#82C1EA"/>
<path d="M1195.23 818.595H1190.52V828.923H1195.23V818.595Z" fill="#82C1EA"/>
<path d="M1207.2 818.595H1202.48V828.923H1207.2V818.595Z" fill="#82C1EA"/>
<path d="M1212.38 818.595H1207.67V828.923H1212.38V818.595Z" fill="#82C1EA"/>
<path d="M1224.36 818.595H1219.64V828.923H1224.36V818.595Z" fill="#82C1EA"/>
<path d="M1229.55 818.595H1224.83V828.923H1229.55V818.595Z" fill="#82C1EA"/>
<path d="M1240.03 826.757H1159.3V834.306H1240.03V826.757Z" fill="#187FC4"/>
<path d="M1172.88 839.362H1168.17V849.69H1172.88V839.362Z" fill="#82C1EA"/>
<path d="M1178.07 839.362H1173.35V849.69H1178.07V839.362Z" fill="#82C1EA"/>
<path d="M1190.05 839.362H1185.33V849.69H1190.05V839.362Z" fill="#82C1EA"/>
<path d="M1195.23 839.362H1190.52V849.69H1195.23V839.362Z" fill="#82C1EA"/>
<path d="M1207.2 839.362H1202.48V849.69H1207.2V839.362Z" fill="#82C1EA"/>
<path d="M1212.38 839.362H1207.67V849.69H1212.38V839.362Z" fill="#82C1EA"/>
<path d="M1224.36 839.362H1219.64V849.69H1224.36V839.362Z" fill="#82C1EA"/>
<path d="M1229.55 839.362H1224.83V849.69H1229.55V839.362Z" fill="#82C1EA"/>
<path d="M1240.03 847.514H1159.3V855.063H1240.03V847.514Z" fill="#187FC4"/>
<path d="M1172.88 860.119H1168.17V870.447H1172.88V860.119Z" fill="#82C1EA"/>
<path d="M1178.07 860.119H1173.35V870.447H1178.07V860.119Z" fill="#82C1EA"/>
<path d="M1190.05 860.119H1185.33V870.447H1190.05V860.119Z" fill="#82C1EA"/>
<path d="M1195.23 860.119H1190.52V870.447H1195.23V860.119Z" fill="#82C1EA"/>
<path d="M1207.2 860.119H1202.48V870.447H1207.2V860.119Z" fill="#82C1EA"/>
<path d="M1212.38 860.119H1207.67V870.447H1212.38V860.119Z" fill="#82C1EA"/>
<path d="M1224.36 860.119H1219.64V870.447H1224.36V860.119Z" fill="#82C1EA"/>
<path d="M1229.55 860.119H1224.83V870.447H1229.55V860.119Z" fill="#82C1EA"/>
<path d="M1240.03 868.281H1159.3V875.83H1240.03V868.281Z" fill="#187FC4"/>
<path d="M174.71 724.74H102.713V734.505H174.71V724.74Z" fill="#3071B9"/>
<path d="M184.593 730.869H90.8192V876.913H184.593V730.869Z" fill="#38A1DB"/>
<path d="M106.603 739.674H101.12V751.667H106.603V739.674Z" fill="#82C1EA"/>
<path d="M112.626 739.674H107.144V751.667H112.626V739.674Z" fill="#82C1EA"/>
<path d="M126.522 739.674H121.039V751.667H126.522V739.674Z" fill="#82C1EA"/>
<path d="M132.555 739.674H127.073V751.667H132.555V739.674Z" fill="#82C1EA"/>
<path d="M146.45 739.674H140.968V751.667H146.45V739.674Z" fill="#82C1EA"/>
<path d="M152.484 739.674H147.002V751.667H152.484V739.674Z" fill="#82C1EA"/>
<path d="M166.379 739.674H160.897V751.667H166.379V739.674Z" fill="#82C1EA"/>
<path d="M172.413 739.674H166.93V751.667H172.413V739.674Z" fill="#82C1EA"/>
<path d="M184.593 749.154H90.8192V757.929H184.593V749.154Z" fill="#187FC4"/>
<path d="M106.603 763.792H101.12V775.784H106.603V763.792Z" fill="#82C1EA"/>
<path d="M112.626 763.792H107.144V775.784H112.626V763.792Z" fill="#82C1EA"/>
<path d="M126.522 763.792H121.039V775.784H126.522V763.792Z" fill="#82C1EA"/>
<path d="M132.555 763.792H127.073V775.784H132.555V763.792Z" fill="#82C1EA"/>
<path d="M146.45 763.792H140.968V775.784H146.45V763.792Z" fill="#82C1EA"/>
<path d="M152.484 763.792H147.002V775.784H152.484V763.792Z" fill="#82C1EA"/>
<path d="M166.379 763.792H160.897V775.784H166.379V763.792Z" fill="#82C1EA"/>
<path d="M172.413 763.792H166.93V775.784H172.413V763.792Z" fill="#82C1EA"/>
<path d="M184.593 773.271H90.8192V782.046H184.593V773.271Z" fill="#187FC4"/>
<path d="M106.603 787.909H101.12V799.902H106.603V787.909Z" fill="#82C1EA"/>
<path d="M112.626 787.909H107.144V799.902H112.626V787.909Z" fill="#82C1EA"/>
<path d="M126.522 787.909H121.039V799.902H126.522V787.909Z" fill="#82C1EA"/>
<path d="M132.555 787.909H127.073V799.902H132.555V787.909Z" fill="#82C1EA"/>
<path d="M146.45 787.909H140.968V799.902H146.45V787.909Z" fill="#82C1EA"/>
<path d="M152.484 787.909H147.002V799.902H152.484V787.909Z" fill="#82C1EA"/>
<path d="M166.379 787.909H160.897V799.902H166.379V787.909Z" fill="#82C1EA"/>
<path d="M172.413 787.909H166.93V799.902H172.413V787.909Z" fill="#82C1EA"/>
<path d="M184.593 797.389H90.8192V806.163H184.593V797.389Z" fill="#187FC4"/>
<path d="M106.603 812.037H101.12V824.03H106.603V812.037Z" fill="#82C1EA"/>
<path d="M112.626 812.037H107.144V824.03H112.626V812.037Z" fill="#82C1EA"/>
<path d="M126.522 812.037H121.039V824.03H126.522V812.037Z" fill="#82C1EA"/>
<path d="M132.555 812.037H127.073V824.03H132.555V812.037Z" fill="#82C1EA"/>
<path d="M146.45 812.037H140.968V824.03H146.45V812.037Z" fill="#82C1EA"/>
<path d="M152.484 812.037H147.002V824.03H152.484V812.037Z" fill="#82C1EA"/>
<path d="M166.379 812.037H160.897V824.03H166.379V812.037Z" fill="#82C1EA"/>
<path d="M172.413 812.037H166.93V824.03H172.413V812.037Z" fill="#82C1EA"/>
<path d="M184.593 821.506H90.8192V830.281H184.593V821.506Z" fill="#187FC4"/>
<path d="M106.603 836.155H101.12V848.147H106.603V836.155Z" fill="#82C1EA"/>
<path d="M112.626 836.155H107.144V848.147H112.626V836.155Z" fill="#82C1EA"/>
<path d="M126.522 836.155H121.039V848.147H126.522V836.155Z" fill="#82C1EA"/>
<path d="M132.555 836.155H127.073V848.147H132.555V836.155Z" fill="#82C1EA"/>
<path d="M146.45 836.155H140.968V848.147H146.45V836.155Z" fill="#82C1EA"/>
<path d="M152.484 836.155H147.002V848.147H152.484V836.155Z" fill="#82C1EA"/>
<path d="M166.379 836.155H160.897V848.147H166.379V836.155Z" fill="#82C1EA"/>
<path d="M172.413 836.155H166.93V848.147H172.413V836.155Z" fill="#82C1EA"/>
<path d="M184.593 845.624H90.8192V854.399H184.593V845.624Z" fill="#187FC4"/>
<path d="M106.603 860.272H101.12V872.265H106.603V860.272Z" fill="#82C1EA"/>
<path d="M112.626 860.272H107.144V872.265H112.626V860.272Z" fill="#82C1EA"/>
<path d="M126.522 860.272H121.039V872.265H126.522V860.272Z" fill="#82C1EA"/>
<path d="M132.555 860.272H127.073V872.265H132.555V860.272Z" fill="#82C1EA"/>
<path d="M146.45 860.272H140.968V872.265H146.45V860.272Z" fill="#82C1EA"/>
<path d="M152.484 860.272H147.002V872.265H152.484V860.272Z" fill="#82C1EA"/>
<path d="M166.379 860.272H160.897V872.265H166.379V860.272Z" fill="#82C1EA"/>
<path d="M172.413 860.272H166.93V872.265H172.413V860.272Z" fill="#82C1EA"/>
<path d="M184.593 869.742H90.8192V878.516H184.593V869.742Z" fill="#187FC4"/>
<path d="M219.621 875.83H232.475V760.421H219.621V875.83Z" fill="#187FC4"/>
<path d="M229.82 875.83H364.043V764.609H229.82V875.83Z" fill="#65AADD"/>
<path d="M352.803 779.094H358.459V772.035H352.803V779.094Z" fill="#9FD9F6"/>
<path d="M341.052 779.094H346.708V772.035H341.052V779.094Z" fill="#9FD9F6"/>
<path d="M329.321 779.094H334.977V772.035H329.321V779.094Z" fill="#9FD9F6"/>
<path d="M317.58 779.094H323.236V772.035H317.58V779.094Z" fill="#9FD9F6"/>
<path d="M305.84 779.094H311.496V772.035H305.84V779.094Z" fill="#9FD9F6"/>
<path d="M294.099 779.094H299.755V772.035H294.099V779.094Z" fill="#9FD9F6"/>
<path d="M282.358 779.094H288.014V772.035H282.358V779.094Z" fill="#9FD9F6"/>
<path d="M270.627 779.094H276.283V772.035H270.627V779.094Z" fill="#9FD9F6"/>
<path d="M258.886 779.094H264.542V772.035H258.886V779.094Z" fill="#9FD9F6"/>
<path d="M247.146 779.094H252.802V772.035H247.146V779.094Z" fill="#9FD9F6"/>
<path d="M235.405 779.094H241.061V772.035H235.405V779.094Z" fill="#9FD9F6"/>
<path d="M229.82 784.467H364.043V777.756H229.82V784.467Z" fill="#38A1DB"/>
<path d="M229.82 767.132H364.043V760.421H229.82V767.132Z" fill="#38A1DB"/>
<path d="M352.803 797.358H358.459V790.3H352.803V797.358Z" fill="#9FD9F6"/>
<path d="M341.052 797.358H346.708V790.3H341.052V797.358Z" fill="#9FD9F6"/>
<path d="M329.321 797.358H334.977V790.3H329.321V797.358Z" fill="#9FD9F6"/>
<path d="M317.58 797.358H323.236V790.3H317.58V797.358Z" fill="#9FD9F6"/>
<path d="M305.84 797.358H311.496V790.3H305.84V797.358Z" fill="#9FD9F6"/>
<path d="M294.099 797.358H299.755V790.3H294.099V797.358Z" fill="#9FD9F6"/>
<path d="M282.358 797.358H288.014V790.3H282.358V797.358Z" fill="#9FD9F6"/>
<path d="M270.627 797.358H276.283V790.3H270.627V797.358Z" fill="#9FD9F6"/>
<path d="M258.886 797.358H264.542V790.3H258.886V797.358Z" fill="#9FD9F6"/>
<path d="M247.146 797.358H252.802V790.3H247.146V797.358Z" fill="#9FD9F6"/>
<path d="M235.405 797.358H241.061V790.3H235.405V797.358Z" fill="#9FD9F6"/>
<path d="M229.82 802.752H364.043V796.041H229.82V802.752Z" fill="#38A1DB"/>
<path d="M352.803 815.633H358.459V808.575H352.803V815.633Z" fill="#9FD9F6"/>
<path d="M341.052 815.633H346.708V808.575H341.052V815.633Z" fill="#9FD9F6"/>
<path d="M329.321 815.633H334.977V808.575H329.321V815.633Z" fill="#9FD9F6"/>
<path d="M317.58 815.633H323.236V808.575H317.58V815.633Z" fill="#9FD9F6"/>
<path d="M305.84 815.633H311.496V808.575H305.84V815.633Z" fill="#9FD9F6"/>
<path d="M294.099 815.633H299.755V808.575H294.099V815.633Z" fill="#9FD9F6"/>
<path d="M282.358 815.633H288.014V808.575H282.358V815.633Z" fill="#9FD9F6"/>
<path d="M270.627 815.633H276.283V808.575H270.627V815.633Z" fill="#9FD9F6"/>
<path d="M258.886 815.633H264.542V808.575H258.886V815.633Z" fill="#9FD9F6"/>
<path d="M247.146 815.633H252.802V808.575H247.146V815.633Z" fill="#9FD9F6"/>
<path d="M235.405 815.633H241.061V808.575H235.405V815.633Z" fill="#9FD9F6"/>
<path d="M229.82 821.017H364.043V814.305H229.82V821.017Z" fill="#38A1DB"/>
<path d="M352.803 833.908H358.459V826.849H352.803V833.908Z" fill="#9FD9F6"/>
<path d="M341.052 833.908H346.708V826.849H341.052V833.908Z" fill="#9FD9F6"/>
<path d="M329.321 833.908H334.977V826.849H329.321V833.908Z" fill="#9FD9F6"/>
<path d="M317.58 833.908H323.236V826.849H317.58V833.908Z" fill="#9FD9F6"/>
<path d="M305.84 833.908H311.496V826.849H305.84V833.908Z" fill="#9FD9F6"/>
<path d="M294.099 833.908H299.755V826.849H294.099V833.908Z" fill="#9FD9F6"/>
<path d="M282.358 833.908H288.014V826.849H282.358V833.908Z" fill="#9FD9F6"/>
<path d="M270.627 833.908H276.283V826.849H270.627V833.908Z" fill="#9FD9F6"/>
<path d="M258.886 833.908H264.542V826.849H258.886V833.908Z" fill="#9FD9F6"/>
<path d="M247.146 833.908H252.802V826.849H247.146V833.908Z" fill="#9FD9F6"/>
<path d="M235.405 833.908H241.061V826.849H235.405V833.908Z" fill="#9FD9F6"/>
<path d="M229.82 839.291H364.043V832.58H229.82V839.291Z" fill="#38A1DB"/>
<path d="M352.803 852.183H358.459V845.124H352.803V852.183Z" fill="#9FD9F6"/>
<path d="M341.052 852.183H346.708V845.124H341.052V852.183Z" fill="#9FD9F6"/>
<path d="M329.321 852.183H334.977V845.124H329.321V852.183Z" fill="#9FD9F6"/>
<path d="M317.58 852.183H323.236V845.124H317.58V852.183Z" fill="#9FD9F6"/>
<path d="M305.84 852.183H311.496V845.124H305.84V852.183Z" fill="#9FD9F6"/>
<path d="M294.099 852.183H299.755V845.124H294.099V852.183Z" fill="#9FD9F6"/>
<path d="M282.358 852.183H288.014V845.124H282.358V852.183Z" fill="#9FD9F6"/>
<path d="M270.627 852.183H276.283V845.124H270.627V852.183Z" fill="#9FD9F6"/>
<path d="M258.886 852.183H264.542V845.124H258.886V852.183Z" fill="#9FD9F6"/>
<path d="M247.146 852.183H252.802V845.124H247.146V852.183Z" fill="#9FD9F6"/>
<path d="M235.405 852.183H241.061V845.124H235.405V852.183Z" fill="#9FD9F6"/>
<path d="M229.82 857.556H364.043V850.844H229.82V857.556Z" fill="#38A1DB"/>
<path d="M352.803 870.447H358.459V863.388H352.803V870.447Z" fill="#9FD9F6"/>
<path d="M341.052 870.447H346.708V863.388H341.052V870.447Z" fill="#9FD9F6"/>
<path d="M329.321 870.447H334.977V863.388H329.321V870.447Z" fill="#9FD9F6"/>
<path d="M317.58 870.447H323.236V863.388H317.58V870.447Z" fill="#9FD9F6"/>
<path d="M305.84 870.447H311.496V863.388H305.84V870.447Z" fill="#9FD9F6"/>
<path d="M294.099 870.447H299.755V863.388H294.099V870.447Z" fill="#9FD9F6"/>
<path d="M282.358 870.447H288.014V863.388H282.358V870.447Z" fill="#9FD9F6"/>
<path d="M270.627 870.447H276.283V863.388H270.627V870.447Z" fill="#9FD9F6"/>
<path d="M258.886 870.447H264.542V863.388H258.886V870.447Z" fill="#9FD9F6"/>
<path d="M247.146 870.447H252.802V863.388H247.146V870.447Z" fill="#9FD9F6"/>
<path d="M235.405 870.447H241.061V863.388H235.405V870.447Z" fill="#9FD9F6"/>
<path d="M229.82 875.84H364.043V869.129H229.82V875.84Z" fill="#38A1DB"/>
<path d="M1494 834.306H-27.6099V875.83H1494V834.306Z" fill="#54C3F1"/>
<path d="M1494 847.708H-27.6099V889.232H1494V847.708Z" fill="#20AEE5"/>
<path d="M1494 869.885H-27.6099V925.516H1494V869.885Z" fill="#0092D8"/>
<path d="M1494 902.573H-27.6099V968H1494V902.573Z" fill="#0068B7"/>
</g>
</g>
<defs>
<linearGradient id="paint0_linear_345_7386" x1="481.39" y1="893.267" x2="481.39" y2="410.199" gradientUnits="userSpaceOnUse">
<stop offset="0.52" stop-color="#38A1DB"/>
<stop offset="1" stop-color="#9FD9F6"/>
</linearGradient>
<linearGradient id="paint1_linear_345_7386" x1="827.939" y1="868.588" x2="827.939" y2="464.635" gradientUnits="userSpaceOnUse">
<stop offset="0.52" stop-color="#38A1DB"/>
<stop offset="1" stop-color="#9FD9F6"/>
</linearGradient>
<linearGradient id="paint2_linear_345_7386" x1="1146.87" y1="925.526" x2="1146.87" y2="521.563" gradientUnits="userSpaceOnUse">
<stop offset="0.52" stop-color="#38A1DB"/>
<stop offset="1" stop-color="#9FD9F6"/>
</linearGradient>
<linearGradient id="paint3_linear_345_7386" x1="238.233" y1="875.83" x2="238.233" y2="369.87" gradientUnits="userSpaceOnUse">
<stop offset="0.52" stop-color="#38A1DB"/>
<stop offset="1" stop-color="#9FD9F6"/>
</linearGradient>
<linearGradient id="paint4_linear_345_7386" x1="385.259" y1="875.83" x2="385.259" y2="528.663" gradientUnits="userSpaceOnUse">
<stop stop-color="#005BAC"/>
<stop offset="0.5" stop-color="#006CB8"/>
<stop offset="1" stop-color="#006CB8"/>
</linearGradient>
<linearGradient id="paint5_linear_345_7386" x1="856.116" y1="736.947" x2="856.116" y2="875.83" gradientUnits="userSpaceOnUse">
<stop stop-color="#008CCF"/>
<stop offset="1" stop-color="#006CB8"/>
</linearGradient>
<linearGradient id="paint6_linear_345_7386" x1="557.022" y1="-51.9997" x2="557.022" y2="476.873" gradientUnits="userSpaceOnUse">
<stop stop-color="#005BAC"/>
<stop offset="0.5" stop-color="#006CB8"/>
<stop offset="1" stop-color="#006CB8"/>
</linearGradient>
<linearGradient id="paint7_linear_345_7386" x1="49.4609" y1="903.145" x2="49.4609" y2="550.952" gradientUnits="userSpaceOnUse">
<stop stop-color="#4382BB"/>
<stop offset="0.5" stop-color="#4892C7"/>
<stop offset="1" stop-color="#4892C7"/>
</linearGradient>
<clipPath id="clip0_345_7386">
<rect width="1440" height="926" fill="white"/>
</clipPath>
</defs>
</svg>
