<svg width="296" height="188" viewBox="0 0 296 188" fill="none" xmlns="http://www.w3.org/2000/svg">
<g clip-path="url(#clip0_465_1558)">
<g filter="url(#filter0_d_465_1558)">
<mask id="path-1-inside-1_465_1558" fill="white">
<path fill-rule="evenodd" clip-rule="evenodd" d="M245.5 85.5C268.972 85.5 288 66.4721 288 43C288 19.5279 268.972 0.5 245.5 0.5C222.028 0.5 203 19.5279 203 43C203 52.4456 206.081 61.1716 211.294 68.2274L207.95 80.935L220.763 77.5631C227.731 82.559 236.272 85.5 245.5 85.5Z"/>
</mask>
<path fill-rule="evenodd" clip-rule="evenodd" d="M245.5 85.5C268.972 85.5 288 66.4721 288 43C288 19.5279 268.972 0.5 245.5 0.5C222.028 0.5 203 19.5279 203 43C203 52.4456 206.081 61.1716 211.294 68.2274L207.95 80.935L220.763 77.5631C227.731 82.559 236.272 85.5 245.5 85.5Z" fill="white"/>
<path d="M211.294 68.2274L212.261 68.4819L212.383 68.0186L212.098 67.6332L211.294 68.2274ZM207.95 80.935L206.983 80.6805L206.546 82.3384L208.204 81.9021L207.95 80.935ZM220.763 77.5631L221.346 76.7504L220.963 76.4763L220.509 76.596L220.763 77.5631ZM287 43C287 65.9198 268.42 84.5 245.5 84.5V86.5C269.524 86.5 289 67.0244 289 43H287ZM245.5 1.5C268.42 1.5 287 20.0802 287 43H289C289 18.9756 269.524 -0.5 245.5 -0.5V1.5ZM204 43C204 20.0802 222.58 1.5 245.5 1.5V-0.5C221.476 -0.5 202 18.9756 202 43H204ZM212.098 67.6332C207.009 60.7436 204 52.2246 204 43H202C202 52.6667 205.154 61.5996 210.49 68.8216L212.098 67.6332ZM208.917 81.1895L212.261 68.4819L210.327 67.9729L206.983 80.6805L208.917 81.1895ZM220.509 76.596L207.695 79.9679L208.204 81.9021L221.018 78.5302L220.509 76.596ZM245.5 84.5C236.488 84.5 228.149 81.6285 221.346 76.7504L220.18 78.3758C227.313 83.4894 236.056 86.5 245.5 86.5V84.5Z" fill="#E9E8E8" mask="url(#path-1-inside-1_465_1558)"/>
</g>
<path d="M16 61.5L53 67.5V186L16 171.5L16 61.5Z" fill="#D9D9D9"/>
<path d="M16 61.5L53 67.5V186L16 171.5L16 61.5Z" fill="url(#paint0_linear_465_1558)"/>
<path d="M140.018 172.683L138.218 171.977L138.4 171.512L137.5 171.159L137.5 170.149H137V168.129H137.5V166.109H137V164.089H137.5V162.07H137V160.05H137.5V158.03H137V156.01H137.5V153.99H137V151.97H137.5V149.951H137V147.931H137.5V145.911H137V143.891H137.5V141.871H137V139.851H137.5V137.832H137V135.812H137.5V133.792H137V131.772H137.5V129.752H137V127.732H137.5V125.713H137V123.693H137.5V121.673H137V119.653H137.5V117.633H137V115.613H137.5V113.594H137V111.574H137.5V109.554H137V107.534H137.5V105.514H137V103.494H137.5V101.474H137V99.4546H137.5V97.4348H137V95.415H137.5V93.3951H137V91.3753H137.5V89.3554H137V87.3356H137.5V85.3158H137V83.2959H137.5V81.2761H137V79.2562H137.5V77.2364H137V75.2166H137.5V73.1967H137V71.1769H137.5V69.1571H137V67.1372H137.5V65.1174H137V63.0975H137.5V62.0876L138.5 62.2498L138.58 61.7562L140.58 62.0805L140.5 62.5741L142.5 62.8984L142.58 62.4049L144.58 62.7292L144.5 63.2227L146.5 63.5471L146.58 63.0535L148.58 63.3778L148.5 63.8714L150.5 64.1957L150.58 63.7022L152.58 64.0265L152.5 64.52L154.5 64.8444L154.58 64.3508L156.58 64.6751L156.5 65.1687L158.5 65.493L158.58 64.9995L160.58 65.3238L160.5 65.8173L162.5 66.1417L162.58 65.6481L164.58 65.9724L164.5 66.466L166.5 66.7903L166.58 66.2968L168.58 66.6211L168.5 67.1146L170.5 67.439L170.58 66.9454L172.58 67.2697L172.5 67.7633L173.5 67.9255V68.9369H174V70.9601H173.5V72.9832H174V75.0063H173.5V77.0295H174V79.0526H173.5V81.0757H174V83.0989H173.5V85.122H174V87.1451H173.5V89.1683H174V91.1914H173.5V93.2145H174V95.2377H173.5V97.2608H174V99.2839H173.5V101.307H174V103.33H173.5V105.353H174V107.376H173.5V109.4H174V111.423H173.5V113.446H174V115.469H173.5V117.492H174V119.515H173.5V121.538H174V123.562H173.5V125.585H174V127.608H173.5V129.631H174V131.654H173.5V133.677H174V135.7H173.5V137.723H174V139.747H173.5V141.77H174V143.793H173.5V145.816H174V147.839H173.5V149.862H174V151.885H173.5V153.909H174V155.932H173.5V157.955H174V159.978H173.5V162.001H174V164.024H173.5V166.047H174V168.07H173.5V170.094H174V172.117H173.5V174.14H174V176.163H173.5V178.186H174V180.209H173.5V182.232H174V184.255H173.5L173.5 185.267L172.6 184.914L172.418 185.38L170.618 184.674L170.8 184.209L169 183.504L168.818 183.969L167.018 183.264L167.2 182.798L165.4 182.093L165.218 182.558L163.418 181.853L163.6 181.387L161.8 180.682L161.618 181.147L159.818 180.442L160 179.976L158.2 179.271L158.018 179.737L156.218 179.031L156.4 178.566L154.6 177.86L154.418 178.326L152.618 177.62L152.8 177.155L151 176.449L150.818 176.915L149.018 176.21L149.2 175.744L147.4 175.039L147.218 175.504L145.418 174.799L145.6 174.333L143.8 173.628L143.618 174.093L141.818 173.388L142 172.922L140.2 172.217L140.018 172.683Z" fill="white" stroke="#005694" stroke-dasharray="2 2"/>
<path d="M137 147L174 157V186L137 171.5L137 147Z" fill="#D9D9D9"/>
<path d="M137 147L174 157V186L137 171.5L137 147Z" fill="url(#paint1_linear_465_1558)"/>
<path d="M74 59.5L54 67.5V186L74 175V59.5Z" fill="#D9D9D9"/>
<path d="M74 59.5L54 67.5V186L74 175V59.5Z" fill="url(#paint2_linear_465_1558)"/>
<path d="M191.891 176.71L193.791 175.665L193.55 175.227L194.5 174.704L194.5 173.718H195V171.744H194.5V169.77H195V167.797H194.5V165.823H195V163.85H194.5V161.876H195V159.903H194.5V157.929H195V155.956H194.5V153.982H195V152.009H194.5V150.035H195V148.061H194.5V146.088H195V144.114H194.5V142.141H195V140.167H194.5V138.194H195V136.22H194.5V134.247H195V132.273H194.5V130.3H195V128.326H194.5V126.352H195V124.379H194.5V122.405H195V120.432H194.5V118.458H195V116.485H194.5V114.511H195V112.538H194.5V110.564H195V108.59H194.5V106.617H195V104.643H194.5V102.67H195V100.696H194.5V98.7227H195V96.7492H194.5V94.7756H195V92.8021H194.5V90.8285H195V88.855H194.5V86.8814H195V84.9079H194.5V82.9343H195V80.9608H194.5V78.9872H195V77.0137H194.5V75.0401H195V73.0666H194.5V71.093H195V69.1195H194.5V67.1459H195V65.1724H194.5V63.1988H195V61.2253H194.5V60.2385L193.55 60.6185L193.364 60.1543L191.464 60.9143L191.65 61.3785L189.75 62.1385L189.564 61.6743L187.664 62.4343L187.85 62.8985L185.95 63.6585L185.764 63.1943L183.864 63.9543L184.05 64.4185L182.15 65.1785L181.964 64.7143L180.064 65.4743L180.25 65.9385L178.35 66.6985L178.164 66.2343L176.264 66.9943L176.45 67.4585L175.5 67.8385V68.8498H175V70.8725H175.5V72.8952H175V74.9179H175.5V76.9406H175V78.9633H175.5V80.986H175V83.0086H175.5V85.0313H175V87.054H175.5V89.0767H175V91.0994H175.5V93.1221H175V95.1448H175.5V97.1675H175V99.1902H175.5V101.213H175V103.236H175.5V105.258H175V107.281H175.5V109.304H175V111.326H175.5V113.349H175V115.372H175.5V117.394H175V119.417H175.5V121.44H175V123.462H175.5V125.485H175V127.508H175.5V129.53H175V131.553H175.5V133.576H175V135.599H175.5V137.621H175V139.644H175.5V141.667H175V143.689H175.5V145.712H175V147.735H175.5V149.757H175V151.78H175.5V153.803H175V155.825H175.5V157.848H175V159.871H175.5V161.893H175V163.916H175.5V165.939H175V167.962H175.5V169.984H175V172.007H175.5V174.03H175V176.052H175.5V178.075H175V180.098H175.5V182.12H175V184.143H175.5V185.154L176.45 184.632L176.691 185.07L178.591 184.025L178.35 183.587L180.25 182.542L180.491 182.98L182.391 181.935L182.15 181.497L184.05 180.452L184.291 180.89L186.191 179.845L185.95 179.407L187.85 178.362L188.091 178.8L189.991 177.755L189.75 177.317L191.65 176.272L191.891 176.71Z" fill="white" stroke="#005694" stroke-dasharray="2 2"/>
<path d="M195 149L175 157V186L195 175V149Z" fill="#D9D9D9"/>
<path d="M195 149L175 157V186L195 175V149Z" fill="url(#paint3_linear_465_1558)"/>
<path d="M17 60.5L38.5002 53.5L73.9998 58.5002L54 66.5002L17 60.5Z" fill="#D9D9D9"/>
<path d="M17 60.5L38.5002 53.5L73.9998 58.5002L54 66.5002L17 60.5Z" fill="url(#paint4_linear_465_1558)"/>
<path d="M140.933 59.545L142.876 58.9125L143.031 59.3879L144.974 58.7553L144.819 58.2799L146.762 57.6474L146.917 58.1228L148.859 57.4903L148.705 57.0148L150.647 56.3823L150.802 56.8577L152.745 56.2252L152.59 55.7497L154.533 55.1172L154.688 55.5926L156.631 54.9601L156.476 54.4846L158.419 53.8521L158.574 54.3275L159.545 54.0112L160.593 54.1588L160.662 53.6637L162.758 53.9588L162.688 54.4539L164.783 54.7491L164.853 54.254L166.948 54.5491L166.879 55.0442L168.974 55.3394L169.044 54.8442L171.139 55.1394L171.069 55.6345L173.165 55.9296L173.235 55.4345L175.33 55.7297L175.26 56.2248L177.355 56.5199L177.425 56.0248L179.521 56.3199L179.451 56.815L181.546 57.1102L181.616 56.6151L183.711 56.9102L183.641 57.4053L185.737 57.7005L185.807 57.2053L187.902 57.5005L187.832 57.9956L189.927 58.2907L189.997 57.7956L192.093 58.0908L192.023 58.5859L193.071 58.7334L192.164 59.096L192.35 59.5602L190.537 60.2853L190.351 59.8211L188.539 60.5462L188.724 61.0104L186.912 61.7355L186.726 61.2713L184.913 61.9964L185.099 62.4606L183.286 63.1858L183.1 62.7215L181.288 63.4466L181.473 63.9109L179.661 64.636L179.475 64.1717L177.662 64.8968L177.848 65.3611L176.035 66.0862L175.849 65.6219L174.943 65.9845L173.976 65.8276L173.896 66.3212L171.961 66.0074L172.041 65.5138L170.106 65.2001L170.026 65.6936L168.091 65.3799L168.171 64.8863L166.236 64.5725L166.156 65.0661L164.222 64.7523L164.302 64.2588L162.367 63.945L162.287 64.4386L160.352 64.1248L160.432 63.6312L158.497 63.3175L158.417 63.811L156.482 63.4973L156.562 63.0037L154.628 62.69L154.548 63.1835L152.613 62.8697L152.693 62.3762L150.758 62.0624L150.678 62.556L148.743 62.2422L148.823 61.7487L146.888 61.4349L146.808 61.9284L144.874 61.6147L144.954 61.1211L143.019 60.8074L142.939 61.3009L141.004 60.9871L141.084 60.4936L140.117 60.3367L141.088 60.0204L140.933 59.545Z" fill="white" stroke="#005694" stroke-dasharray="2 2"/>
<path d="M138 146.505L159.5 139.505L195 148L174.5 156.5L138 146.505Z" fill="url(#paint5_linear_465_1558)" fill-opacity="0.6"/>
<path d="M122.435 127.9C122.932 127.66 123.141 127.062 122.9 126.565L118.985 118.461C118.745 117.964 118.147 117.756 117.65 117.996C117.152 118.236 116.944 118.834 117.184 119.331L120.665 126.535L113.461 130.015C112.964 130.255 112.756 130.853 112.996 131.35C113.236 131.848 113.834 132.056 114.331 131.816L122.435 127.9ZM81.02 81.1988C83.3923 92.8912 94.8123 118.584 121.671 127.944L122.329 126.056C96.3877 117.016 85.2743 92.1088 82.98 80.8012L81.02 81.1988Z" fill="#ADADAD"/>
<path d="M83.748 150.885C83.748 150.038 83.875 149.146 84.1289 148.209C84.4609 146.952 84.9655 145.862 85.6426 144.938C86.3262 144.013 87.1855 143.284 88.2207 142.75C89.2559 142.21 90.4342 141.939 91.7559 141.939C93.5267 141.939 94.9557 142.49 96.043 143.59C97.1367 144.69 97.6836 146.148 97.6836 147.965C97.6836 149.475 97.3288 150.937 96.6191 152.35C95.9095 153.762 94.946 154.85 93.7285 155.611C92.5111 156.373 91.1341 156.754 89.5977 156.754C88.263 156.754 87.1432 156.451 86.2383 155.846C85.3333 155.24 84.6921 154.492 84.3145 153.6C83.9368 152.701 83.748 151.796 83.748 150.885ZM86.6582 150.826C86.6582 151.809 86.9577 152.633 87.5566 153.297C88.1556 153.961 88.9434 154.293 89.9199 154.293C90.7142 154.293 91.4759 154.033 92.2051 153.512C92.9408 152.984 93.5462 152.19 94.0215 151.129C94.5033 150.061 94.7441 149.023 94.7441 148.014C94.7441 146.887 94.4414 146.005 93.8359 145.367C93.2305 144.723 92.459 144.4 91.5215 144.4C90.0827 144.4 88.9108 145.071 88.0059 146.412C87.1074 147.753 86.6582 149.225 86.6582 150.826ZM98.3477 156.5L101.346 142.184H111.365L110.857 144.576H103.787L103.064 148.014H109.998L109.5 150.406H102.566L101.297 156.5H98.3477ZM110.574 156.5L113.572 142.184H123.592L123.084 144.576H116.014L115.291 148.014H122.225L121.727 150.406H114.793L113.523 156.5H110.574ZM126.102 152.857H124.559L125.438 145.553L126.141 142.184H129.08L128.328 145.807L126.102 152.857ZM123.816 153.795H126.59L126.023 156.5H123.25L123.816 153.795Z" fill="#005694"/>
<path d="M223.748 62.8848C223.748 62.0384 223.875 61.1465 224.129 60.209C224.461 58.9525 224.965 57.862 225.643 56.9375C226.326 56.013 227.186 55.2839 228.221 54.75C229.256 54.2096 230.434 53.9395 231.756 53.9395C233.527 53.9395 234.956 54.4896 236.043 55.5898C237.137 56.6901 237.684 58.1484 237.684 59.9648C237.684 61.4753 237.329 62.9368 236.619 64.3496C235.91 65.7624 234.946 66.8496 233.729 67.6113C232.511 68.373 231.134 68.7539 229.598 68.7539C228.263 68.7539 227.143 68.4512 226.238 67.8457C225.333 67.2402 224.692 66.4915 224.314 65.5996C223.937 64.7012 223.748 63.7962 223.748 62.8848ZM226.658 62.8262C226.658 63.8092 226.958 64.6328 227.557 65.2969C228.156 65.9609 228.943 66.293 229.92 66.293C230.714 66.293 231.476 66.0326 232.205 65.5117C232.941 64.9844 233.546 64.1901 234.021 63.1289C234.503 62.0612 234.744 61.0228 234.744 60.0137C234.744 58.8874 234.441 58.0052 233.836 57.3672C233.23 56.7227 232.459 56.4004 231.521 56.4004C230.083 56.4004 228.911 57.071 228.006 58.4121C227.107 59.7533 226.658 61.2246 226.658 62.8262ZM238.348 68.5L241.346 54.1836H251.365L250.857 56.5762H243.787L243.064 60.0137H249.998L249.5 62.4062H242.566L241.297 68.5H238.348ZM250.574 68.5L253.572 54.1836H263.592L263.084 56.5762H256.014L255.291 60.0137H262.225L261.727 62.4062H254.793L253.523 68.5H250.574ZM266.102 64.8574H264.559L265.438 57.5527L266.141 54.1836H269.08L268.328 57.8066L266.102 64.8574ZM263.816 65.7949H266.59L266.023 68.5H263.25L263.816 65.7949Z" fill="#005694"/>
<path d="M259.816 37.627C259.816 36.3835 260.152 35.293 260.822 34.3555C261.493 33.4115 262.43 32.9395 263.635 32.9395C264.455 32.9395 265.109 33.1999 265.598 33.7207C266.092 34.2415 266.34 34.9674 266.34 35.8984C266.34 36.6667 266.171 37.4382 265.832 38.2129C265.5 38.9876 265.044 39.5573 264.465 39.9219C263.885 40.2799 263.238 40.459 262.521 40.459C261.714 40.459 261.06 40.2051 260.559 39.6973C260.064 39.1895 259.816 38.4993 259.816 37.627ZM261.877 37.8516C261.877 38.1836 261.949 38.4277 262.092 38.584C262.235 38.7337 262.43 38.8086 262.678 38.8086C263.146 38.8086 263.537 38.457 263.85 37.7539C264.169 37.0443 264.328 36.2956 264.328 35.5078C264.328 35.2214 264.253 35 264.104 34.8438C263.954 34.681 263.758 34.5996 263.518 34.5996C263.244 34.5996 262.997 34.7135 262.775 34.9414C262.561 35.1628 262.355 35.6022 262.16 36.2598C261.971 36.9108 261.877 37.4414 261.877 37.8516ZM262.736 48.1152H260.48L272.414 32.9395H274.66L262.736 48.1152ZM268.762 45.2637C268.762 44.0202 269.097 42.9264 269.768 41.9824C270.438 41.0384 271.376 40.5664 272.58 40.5664C273.4 40.5664 274.055 40.8268 274.543 41.3477C275.038 41.8685 275.285 42.5944 275.285 43.5254C275.285 44.2936 275.116 45.0684 274.777 45.8496C274.445 46.6243 273.99 47.1908 273.41 47.5488C272.831 47.9069 272.183 48.0859 271.467 48.0859C270.66 48.0859 270.005 47.832 269.504 47.3242C269.009 46.8164 268.762 46.1296 268.762 45.2637ZM270.812 45.4785C270.812 45.8105 270.884 46.0547 271.027 46.2109C271.171 46.3607 271.369 46.4355 271.623 46.4355C272.092 46.4355 272.482 46.084 272.795 45.3809C273.114 44.6777 273.273 43.9323 273.273 43.1445C273.273 42.8516 273.199 42.627 273.049 42.4707C272.899 42.3079 272.704 42.2266 272.463 42.2266C272.189 42.2266 271.942 42.3405 271.721 42.5684C271.506 42.7897 271.301 43.2292 271.105 43.8867C270.91 44.5378 270.812 45.0684 270.812 45.4785Z" fill="#005694"/>
<path d="M223.594 31.7383C222.591 31.0742 221.836 30.3125 221.328 29.4531C220.833 28.5807 220.586 27.6172 220.586 26.5625C220.586 25.3385 220.938 24.0951 221.641 22.832C222.344 21.569 223.392 20.5729 224.785 19.8438C226.191 19.1146 227.78 18.75 229.551 18.75C232.103 18.75 234.095 19.4141 235.527 20.7422C236.96 22.0703 237.676 23.75 237.676 25.7812C237.676 27.2135 237.272 28.4635 236.465 29.5312C235.658 30.5859 234.447 31.4648 232.832 32.168C234.004 32.8841 234.876 33.7565 235.449 34.7852C236.035 35.8008 236.328 36.9661 236.328 38.2812C236.328 40.4427 235.638 42.4089 234.258 44.1797C232.253 46.7318 229.512 48.0078 226.035 48.0078C223.509 48.0078 221.478 47.2656 219.941 45.7812C218.405 44.2839 217.637 42.3828 217.637 40.0781C217.637 38.1641 218.171 36.4518 219.238 34.9414C220.306 33.431 221.758 32.3633 223.594 31.7383ZM225.723 26.9336C225.723 27.832 225.996 28.5612 226.543 29.1211C227.09 29.668 227.799 29.9414 228.672 29.9414C229.674 29.9414 230.553 29.5638 231.309 28.8086C232.077 28.0404 232.461 27.1484 232.461 26.1328C232.461 25.2083 232.181 24.4596 231.621 23.8867C231.061 23.3138 230.345 23.0273 229.473 23.0273C228.444 23.0273 227.559 23.4049 226.816 24.1602C226.087 24.9154 225.723 25.8398 225.723 26.9336ZM223.223 40.1758C223.223 41.2435 223.516 42.0833 224.102 42.6953C224.688 43.3073 225.449 43.6133 226.387 43.6133C227.832 43.6133 228.945 42.9753 229.727 41.6992C230.521 40.4232 230.918 39.0365 230.918 37.5391C230.918 36.5755 230.612 35.7878 230 35.1758C229.401 34.5508 228.633 34.2383 227.695 34.2383C226.523 34.2383 225.482 34.7786 224.57 35.8594C223.672 36.9401 223.223 38.3789 223.223 40.1758ZM238.205 39.2969L243.654 38.8086C243.641 39.069 243.634 39.2643 243.634 39.3945C243.634 40.7227 243.927 41.7188 244.513 42.3828C245.112 43.0469 245.887 43.3789 246.837 43.3789C248.166 43.3789 249.37 42.7474 250.451 41.4844C251.545 40.2083 252.091 38.4505 252.091 36.2109C252.091 34.8828 251.785 33.8802 251.173 33.2031C250.561 32.526 249.748 32.1875 248.732 32.1875C248.003 32.1875 247.293 32.3568 246.603 32.6953C245.926 33.0339 245.268 33.5482 244.63 34.2383L240.021 33.8867L244.377 19.2578H258.771L257.716 24.375H248.205L246.896 28.7891C247.443 28.5417 247.99 28.3594 248.537 28.2422C249.084 28.112 249.624 28.0469 250.158 28.0469C252.345 28.0469 254.142 28.7826 255.548 30.2539C256.955 31.7253 257.658 33.6979 257.658 36.1719C257.658 38.151 257.163 40.1042 256.173 42.0312C255.197 43.9453 253.836 45.4167 252.091 46.4453C250.347 47.474 248.517 47.9883 246.603 47.9883C244.168 47.9883 242.163 47.2005 240.587 45.625C239.025 44.0495 238.231 41.9401 238.205 39.2969Z" fill="#005694"/>
</g>
<defs>
<filter id="filter0_d_465_1558" x="183" y="-15.5" width="125" height="125" filterUnits="userSpaceOnUse" color-interpolation-filters="sRGB">
<feFlood flood-opacity="0" result="BackgroundImageFix"/>
<feColorMatrix in="SourceAlpha" type="matrix" values="0 0 0 0 0 0 0 0 0 0 0 0 0 0 0 0 0 0 127 0" result="hardAlpha"/>
<feOffset dy="4"/>
<feGaussianBlur stdDeviation="10"/>
<feComposite in2="hardAlpha" operator="out"/>
<feColorMatrix type="matrix" values="0 0 0 0 0 0 0 0 0 0 0 0 0 0 0 0 0 0 0.06 0"/>
<feBlend mode="normal" in2="BackgroundImageFix" result="effect1_dropShadow_465_1558"/>
<feBlend mode="normal" in="SourceGraphic" in2="effect1_dropShadow_465_1558" result="shape"/>
</filter>
<linearGradient id="paint0_linear_465_1558" x1="34.5" y1="149.833" x2="34.5" y2="81.2222" gradientUnits="userSpaceOnUse">
<stop stop-color="#0072BE"/>
<stop offset="1" stop-color="#36A4ED"/>
</linearGradient>
<linearGradient id="paint1_linear_465_1558" x1="155.5" y1="149.833" x2="155.5" y2="81.2222" gradientUnits="userSpaceOnUse">
<stop stop-color="#0072BE"/>
<stop offset="1" stop-color="#00A0E6"/>
</linearGradient>
<linearGradient id="paint2_linear_465_1558" x1="72.5" y1="149.833" x2="72.5" y2="81.2222" gradientUnits="userSpaceOnUse">
<stop stop-color="#0072BE"/>
<stop offset="1" stop-color="#36A4ED"/>
</linearGradient>
<linearGradient id="paint3_linear_465_1558" x1="193.5" y1="149.833" x2="193.5" y2="81.2223" gradientUnits="userSpaceOnUse">
<stop stop-color="#0072BE"/>
<stop offset="1" stop-color="#36A4ED"/>
</linearGradient>
<linearGradient id="paint4_linear_465_1558" x1="101.276" y1="60.2247" x2="34.1645" y2="45.9597" gradientUnits="userSpaceOnUse">
<stop stop-color="#0072BE"/>
<stop offset="1" stop-color="#36A4ED"/>
</linearGradient>
<linearGradient id="paint5_linear_465_1558" x1="222.276" y1="146.23" x2="155.164" y2="131.965" gradientUnits="userSpaceOnUse">
<stop stop-color="#0072BE"/>
<stop offset="1" stop-color="#36A4ED"/>
</linearGradient>
<clipPath id="clip0_465_1558">
<rect width="296" height="188" fill="white"/>
</clipPath>
</defs>
</svg>
