<svg width="200" height="200" viewBox="0 0 200 200" fill="none" xmlns="http://www.w3.org/2000/svg">
<circle cx="100" cy="100" r="98" fill="url(#paint0_linear_363_39)" stroke="white" stroke-width="4"/>
<path d="M82.256 64.872L80.792 67.008C80.048 66.072 78.392 64.776 77.072 63.888L78.44 61.968C79.784 62.76 81.488 63.984 82.256 64.872ZM75.968 69.912L77.312 67.872C78.704 68.616 80.48 69.768 81.344 70.632L79.904 72.912C79.112 72.024 77.36 70.752 75.968 69.912ZM73.808 61.992L76.208 62.52C75.584 64.44 74.888 66.72 74.288 68.112L72.488 67.608C72.968 66.096 73.544 63.672 73.808 61.992ZM69.152 67.608L67.016 68.184C66.968 66.696 66.488 64.368 65.936 62.64L67.928 62.112C68.552 63.84 69.032 66.12 69.152 67.608ZM75.704 75.504L73.952 77.712C73.592 76.944 72.92 75.696 72.224 74.592V83.016H69.584V74.544C68.816 76.776 67.856 79.008 66.824 80.448C66.584 79.584 65.96 78.288 65.528 77.496C66.728 76.032 67.952 73.464 68.696 71.28H65.96V68.616H69.584V60.768H72.224V68.616H75.776V71.28H72.224V71.448C72.92 72.144 75.2 74.832 75.704 75.504ZM88.4 76.056L85.52 76.584V83.064H82.832V77.064L76.136 78.264L75.704 75.6L82.832 74.328V60.648H85.52V73.848L87.968 73.392L88.4 76.056ZM99.368 75.144H95.888C96.8 76.368 97.736 78 98.096 79.104L96.128 79.944H99.368V75.144ZM96.656 67.824H105.32C103.544 66.384 101.96 64.824 100.904 63.384C99.872 64.824 98.384 66.384 96.656 67.824ZM105.704 75.144L108.44 76.152C107.528 77.472 106.592 78.936 105.752 79.944H111.176V82.392H90.872V79.944H95.552C95.192 78.864 94.4 77.256 93.56 76.08L95.744 75.144H92.072V72.696H99.368V70.32H94.952V69.144C93.824 69.96 92.6 70.728 91.376 71.376C91.016 70.704 90.224 69.672 89.6 69.072C93.68 67.08 97.52 63.48 99.296 60.6H102.248C104.84 64.224 108.704 67.248 112.496 68.784C111.776 69.504 111.128 70.464 110.6 71.352C109.4 70.728 108.152 69.936 106.952 69.072V70.32H102.368V72.696H109.76V75.144H102.368V79.944H104.984L103.424 79.296C104.216 78.168 105.176 76.416 105.704 75.144ZM133.16 72.288L135.536 74.064C134.024 75.144 132.248 76.248 130.76 77.04C132.176 78.624 134.048 79.8 136.424 80.472C135.8 81.072 134.984 82.224 134.576 83.016C129.512 81.288 126.872 77.64 125.288 72.312C124.376 73.176 123.296 73.992 122.144 74.736V79.2C123.848 78.84 125.648 78.456 127.376 78.072L127.64 80.664C123.872 81.552 119.84 82.392 116.864 83.04L116.024 80.4C116.96 80.232 118.088 80.016 119.288 79.776V76.344C117.968 76.992 116.624 77.52 115.304 77.928C114.896 77.28 114.08 76.2 113.48 75.624C116.336 74.88 119.408 73.512 121.664 71.952H114.368V69.528H123.512V68.184H116.384V65.904H123.512V64.68H115.256V62.256H123.512V60.672H126.368V62.256H134.816V64.68H126.368V65.904H133.88V68.184H126.368V69.528H135.584V71.952H127.952C128.336 73.128 128.792 74.184 129.392 75.168C130.736 74.28 132.176 73.2 133.16 72.288ZM47.696 91.296C48.296 92.16 49.16 93.696 49.592 94.584L48.248 95.16L50 96.24C49.736 96.72 49.424 97.368 49.208 97.968C48.584 99.912 47.384 102.48 45.656 104.88C46.688 105.624 47.624 106.32 48.344 106.896L46.04 109.608C45.392 109.008 44.504 108.264 43.52 107.472C41.408 109.704 38.696 111.744 34.952 113.16L32.168 110.736C36.32 109.464 38.984 107.52 40.952 105.504C39.392 104.376 37.808 103.296 36.584 102.504L38.72 100.32C39.992 101.04 41.504 102.024 43.04 103.056C44.264 101.304 45.296 99.24 45.656 97.752H38.792C37.112 99.984 34.88 102.288 32.456 103.968L29.864 101.952C34.064 99.36 36.296 96.072 37.52 93.984C37.88 93.408 38.384 92.304 38.6 91.488L42.08 92.568C41.504 93.408 40.88 94.488 40.592 95.016H45.488C46.136 95.016 46.832 94.944 47.36 94.8C46.904 93.888 46.328 92.832 45.8 92.064L47.696 91.296ZM50.528 90.192C51.152 91.104 52.04 92.616 52.472 93.456L50.576 94.296C50.072 93.288 49.304 91.896 48.632 90.984L50.528 90.192ZM66.728 91.392C66.608 92.424 66.56 92.928 66.56 93.6V95.448H70.736C71.744 95.448 72.32 95.328 72.728 95.184L74.816 96.456C74.624 96.984 74.432 97.896 74.336 98.376C73.928 100.68 73.28 102.984 72.104 105.168C70.184 108.72 66.584 111.264 62.312 112.368L59.816 109.488C60.896 109.296 62.216 108.936 63.2 108.552C65.192 107.808 67.304 106.392 68.648 104.448C69.872 102.696 70.496 100.416 70.784 98.28H58.88V101.784C58.88 102.336 58.904 103.08 58.952 103.56H55.64C55.712 102.96 55.76 102.192 55.76 101.544V97.392C55.76 96.864 55.736 95.904 55.64 95.328C56.456 95.424 57.176 95.448 58.088 95.448H63.224V93.6C63.224 92.928 63.2 92.424 63.032 91.392H66.728ZM82.784 92.76C84.464 93.888 87.584 96.384 88.976 97.848L86.528 100.344C85.28 99 82.28 96.384 80.528 95.16L82.784 92.76ZM79.784 108.744C83.528 108.216 86.648 106.992 88.976 105.6C93.08 103.176 96.2 99.504 97.712 96.264L99.584 99.648C97.76 102.888 94.568 106.2 90.704 108.528C88.28 109.992 85.184 111.336 81.8 111.912L79.784 108.744ZM104.024 93.984C105.008 94.008 105.92 94.032 106.568 94.032H119.768C120.368 94.032 121.28 94.032 122.144 93.984C122.096 94.704 122.096 95.592 122.096 96.312V108.072C122.096 109.008 122.144 111.312 122.144 111.408H118.832C118.832 111.36 118.856 110.808 118.856 110.112H107.288C107.312 110.784 107.312 111.336 107.312 111.408H104C104 111.288 104.072 109.2 104.072 108.048V96.312C104.072 95.64 104.072 94.656 104.024 93.984ZM107.288 97.08V107.04H118.88V97.08H107.288ZM127.208 99.888C128.072 99.96 129.824 100.032 131.072 100.032H143.96C145.088 100.032 146.144 99.936 146.768 99.888V103.656C146.192 103.632 144.968 103.536 143.96 103.536H131.072C129.704 103.536 128.096 103.584 127.208 103.656V99.888ZM165.368 93.144C166.04 94.152 167 95.688 167.552 96.768L165.464 97.704C164.768 96.192 164.24 95.232 163.352 93.984L165.368 93.144ZM168.512 91.824C169.208 92.784 170.216 94.296 170.768 95.376L168.752 96.36C167.984 94.848 167.408 93.96 166.52 92.76L168.512 91.824ZM155.792 109.056V95.256C155.792 94.392 155.72 93.216 155.552 92.352H159.296C159.2 93.192 159.08 94.248 159.08 95.256V98.76C162.272 99.72 166.904 101.424 169.112 102.504L167.768 105.84C165.272 104.52 161.672 103.128 159.08 102.264V109.056C159.08 109.728 159.2 111.408 159.32 112.392H155.552C155.696 111.456 155.792 109.992 155.792 109.056Z" fill="white"/>
<line x1="64.433" y1="33.8936" x2="72.433" y2="47.75" stroke="white"/>
<path d="M94.798 37.82V35.516H93.43V37.82H94.798ZM94.798 42.014V39.728H93.43V42.014H94.798ZM87.238 39.728V42.014H88.534V39.728H87.238ZM91.648 39.728H90.316V42.014H91.648V39.728ZM90.316 37.82H91.648V35.516H90.316V37.82ZM87.238 35.516V37.82H88.534V35.516H87.238ZM85.348 37.82V36.524C84.988 36.866 84.646 37.19 84.286 37.46C83.89 37.082 83.026 36.398 82.54 36.056C84.052 35.066 85.474 33.428 86.266 31.754L88.354 32.366C88.156 32.798 87.922 33.212 87.652 33.626H98.452V35.516H96.76V37.82H99.1V39.728H96.76V42.014H98.848V43.922H83.206V42.014H85.348V39.728H82.936V37.82H85.348ZM84.79 48.584L82.756 47.756C83.548 47 84.358 45.614 84.772 44.3L86.842 44.804C86.446 46.172 85.672 47.648 84.79 48.584ZM87.994 44.93L89.974 44.696C90.19 45.794 90.406 47.216 90.424 48.062L88.336 48.368C88.336 47.504 88.192 46.028 87.994 44.93ZM91.558 44.966L93.574 44.624C94.006 45.686 94.456 47.09 94.618 47.972L92.476 48.386C92.368 47.522 91.954 46.064 91.558 44.966ZM95.122 44.876L97.174 44.228C97.984 45.326 98.992 46.838 99.442 47.828L97.246 48.566C96.868 47.612 95.914 46.028 95.122 44.876ZM112.942 34.904L111.844 36.506C111.286 35.804 110.044 34.832 109.054 34.166L110.08 32.726C111.088 33.32 112.366 34.238 112.942 34.904ZM108.226 38.684L109.234 37.154C110.278 37.712 111.61 38.576 112.258 39.224L111.178 40.934C110.584 40.268 109.27 39.314 108.226 38.684ZM106.606 32.744L108.406 33.14C107.938 34.58 107.416 36.29 106.966 37.334L105.616 36.956C105.976 35.822 106.408 34.004 106.606 32.744ZM103.114 36.956L101.512 37.388C101.476 36.272 101.116 34.526 100.702 33.23L102.196 32.834C102.664 34.13 103.024 35.84 103.114 36.956ZM108.028 42.878L106.714 44.534C106.444 43.958 105.94 43.022 105.418 42.194V48.512H103.438V42.158C102.862 43.832 102.142 45.506 101.368 46.586C101.188 45.938 100.72 44.966 100.396 44.372C101.296 43.274 102.214 41.348 102.772 39.71H100.72V37.712H103.438V31.826H105.418V37.712H108.082V39.71H105.418V39.836C105.94 40.358 107.65 42.374 108.028 42.878ZM117.55 43.292L115.39 43.688V48.548H113.374V44.048L108.352 44.948L108.028 42.95L113.374 41.996V31.736H115.39V41.636L117.226 41.294L117.55 43.292Z" fill="white"/>
<line y1="-0.5" x2="16" y2="-0.5" transform="matrix(-0.5 0.866025 0.866025 0.5 136 34.1436)" stroke="white"/>
<rect x="27" y="128" width="146" height="32" rx="16" fill="white"/>
<path d="M44.404 138.576V139.836H40.176V138.576H44.404ZM44.936 140.452V141.768H39.462V140.452H44.936ZM42.976 147.564H41.492V149.174H42.976V147.564ZM44.418 146.248V150.476H41.492V151.022H40.078V146.248H44.418ZM40.12 145.562V144.316H44.432V145.562H40.12ZM40.12 143.672V142.398H44.432V143.672H40.12ZM52.566 146.5V148.012H49.514V151.218H47.876V148.012H44.754V146.5H47.876V145.086H45.482V143.616H47.876V142.286H45.202V140.774H46.476C46.308 140.144 45.972 139.332 45.622 138.702L46.966 138.198C47.414 138.926 47.82 139.864 47.974 140.508L47.302 140.774H50.032L49.402 140.564C49.738 139.892 50.158 138.856 50.368 138.114L51.992 138.576C51.6 139.374 51.18 140.186 50.83 140.774H52.342V142.286H49.514V143.616H52.048V145.086H49.514V146.5H52.566ZM58.194 138.898C58.11 139.486 58.04 140.2 58.012 140.76C57.956 142.272 57.844 145.408 57.844 147.144C57.844 148.558 58.684 149.02 59.776 149.02C62.086 149.02 63.556 147.69 64.564 146.164L65.838 147.704C64.942 149.048 62.954 150.924 59.762 150.924C57.466 150.924 55.982 149.916 55.982 147.522C55.982 145.646 56.122 141.964 56.122 140.76C56.122 140.102 56.066 139.43 55.94 138.87L58.194 138.898ZM77.276 139.906C76.842 140.242 76.38 140.606 76.058 140.872C75.148 141.6 73.3 143.028 72.362 143.826C71.62 144.47 71.634 144.624 72.39 145.282C73.44 146.164 76.1 148.264 77.528 149.65L75.89 151.148C75.498 150.714 75.092 150.266 74.672 149.846C73.818 148.964 71.76 147.214 70.486 146.122C69.086 144.932 69.198 144.19 70.598 143.014C71.704 142.118 73.622 140.564 74.56 139.654C74.966 139.248 75.414 138.8 75.638 138.464L77.276 139.906ZM87.636 148.18C87.636 148.754 88.196 148.992 88.938 148.992C89.792 148.992 90.086 148.544 90.086 147.718C90.086 147.648 90.086 147.564 90.086 147.466C89.722 147.368 89.344 147.312 88.966 147.312C88.168 147.312 87.636 147.648 87.636 148.18ZM91.794 139.038C91.752 139.304 91.724 139.64 91.71 139.948C91.696 140.256 91.682 140.774 91.668 141.39C92.438 141.32 93.166 141.208 93.838 141.068V142.818C93.166 142.916 92.438 143 91.668 143.056C91.696 144.414 91.766 145.534 91.822 146.486C92.984 146.962 93.866 147.676 94.538 148.292L93.572 149.762C92.984 149.216 92.424 148.726 91.864 148.348C91.78 149.692 91.024 150.644 89.134 150.644C87.202 150.644 85.998 149.832 85.998 148.362C85.998 146.948 87.202 145.968 89.106 145.968C89.428 145.968 89.736 145.982 90.016 146.024C89.988 145.156 89.932 144.134 89.918 143.14C89.582 143.154 89.246 143.154 88.924 143.154C88.098 143.154 87.3 143.126 86.474 143.07V141.404C87.272 141.488 88.084 141.53 88.924 141.53C89.246 141.53 89.582 141.53 89.904 141.516C89.904 140.83 89.89 140.256 89.89 139.962C89.89 139.752 89.848 139.318 89.792 139.038H91.794ZM84.962 139.192C84.85 139.472 84.682 140.186 84.64 140.438C84.43 141.376 83.968 144.456 83.968 145.856C83.968 146.136 83.982 146.486 84.024 146.766C84.206 146.276 84.444 145.8 84.654 145.324L85.508 146.024C85.116 147.172 84.668 148.6 84.5 149.356C84.458 149.552 84.43 149.86 84.43 150.014C84.43 150.154 84.444 150.392 84.458 150.588L82.876 150.714C82.582 149.734 82.316 148.138 82.316 146.234C82.316 144.12 82.736 141.474 82.89 140.396C82.946 140.004 83.016 139.472 83.03 139.024L84.962 139.192ZM98.052 139.822C99.088 139.934 100.39 139.99 101.86 139.99C103.246 139.99 104.842 139.906 105.92 139.794V141.656C104.94 141.74 103.204 141.824 101.874 141.824C100.404 141.824 99.186 141.768 98.052 141.67V139.822ZM99.228 145.758C99.088 146.262 98.99 146.696 98.99 147.172C98.99 148.068 99.844 148.712 101.86 148.712C103.75 148.712 105.542 148.502 106.774 148.152L106.788 150.126C105.57 150.42 103.89 150.602 101.93 150.602C98.724 150.602 97.114 149.524 97.114 147.606C97.114 146.794 97.282 146.108 97.394 145.59L99.228 145.758ZM115.342 138.842C115.188 139.332 115.104 139.808 115.006 140.27C114.978 140.396 114.95 140.55 114.922 140.704C116.518 140.62 118.408 140.41 120.102 140.046L120.13 141.712C118.674 141.95 116.448 142.216 114.572 142.314C114.376 143.168 114.152 144.064 113.942 144.75C115.076 144.12 116.168 143.868 117.414 143.868C119.682 143.868 121.18 145.072 121.18 146.864C121.18 150.014 118.142 151.148 113.62 150.658L113.13 148.852C116.196 149.356 119.29 148.978 119.29 146.92C119.29 146.08 118.576 145.38 117.204 145.38C115.594 145.38 114.166 145.954 113.326 147.018C113.172 147.214 113.074 147.396 112.934 147.634L111.282 147.046C111.954 145.744 112.514 143.882 112.878 142.342C111.996 142.328 111.17 142.286 110.456 142.216V140.48C111.296 140.62 112.346 140.732 113.2 140.746C113.228 140.536 113.256 140.34 113.284 140.172C113.368 139.57 113.382 139.22 113.354 138.758L115.342 138.842ZM127.676 138.73C129.006 139.15 132.058 139.682 133.276 139.822L132.856 141.53C131.442 141.348 128.32 140.69 127.228 140.41L127.676 138.73ZM127.76 141.544C127.578 142.314 127.326 144.022 127.228 144.82C128.502 143.896 129.888 143.49 131.358 143.49C133.808 143.49 135.236 145.002 135.236 146.696C135.236 149.244 133.22 151.204 127.396 150.714L126.864 148.88C131.064 149.454 133.29 148.432 133.29 146.654C133.29 145.744 132.422 145.072 131.204 145.072C129.622 145.072 128.194 145.66 127.312 146.724C127.06 147.032 126.92 147.256 126.794 147.536L125.184 147.13C125.464 145.758 125.786 143.014 125.884 141.278L127.76 141.544Z" fill="#005694"/>
<path d="M153 148L148 143L149.4 141.55L152 144.15V136H154V144.15L156.6 141.55L158 143L153 148ZM147 152C146.45 152 145.979 151.804 145.588 151.413C145.196 151.021 145 150.55 145 150V147H147V150H159V147H161V150C161 150.55 160.804 151.021 160.413 151.413C160.021 151.804 159.55 152 159 152H147Z" fill="#005694"/>
<defs>
<linearGradient id="paint0_linear_363_39" x1="7.45058e-07" y1="100" x2="200" y2="100" gradientUnits="userSpaceOnUse">
<stop stop-color="#4889D8"/>
<stop offset="1" stop-color="#63B1C2"/>
</linearGradient>
</defs>
</svg>
