<svg width="113" height="113" viewBox="0 0 113 113" fill="none" xmlns="http://www.w3.org/2000/svg">
<path d="M56.5 0L64.4547 6.27605L73.9595 2.76531L79.5854 11.1923L89.7099 10.7905L92.4564 20.5436L102.209 23.2901L101.808 33.4146L110.235 39.0405L106.724 48.5453L113 56.5L106.724 64.4547L110.235 73.9595L101.808 79.5854L102.209 89.7099L92.4564 92.4564L89.7099 102.209L79.5854 101.808L73.9595 110.235L64.4547 106.724L56.5 113L48.5453 106.724L39.0405 110.235L33.4146 101.808L23.2901 102.209L20.5436 92.4564L10.7905 89.7099L11.1923 79.5854L2.76531 73.9595L6.27605 64.4547L0 56.5L6.27605 48.5453L2.76531 39.0405L11.1923 33.4146L10.7905 23.2901L20.5436 20.5436L23.2901 10.7905L33.4146 11.1923L39.0405 2.76531L48.5453 6.27605L56.5 0Z" fill="white"/>
<path d="M44.34 29.64H41.2V30.3H44.34V29.64ZM41.2 32.26H44.34V31.58H41.2V32.26ZM46.48 33.62H41.2V41.72H39.04V28.26H46.48V33.62ZM49.8 32.26H53.04V31.58H49.8V32.26ZM53.04 29.64H49.8V30.3H53.04V29.64ZM45.36 38.68H48.68V37.82H45.36V38.68ZM48.68 35.7H45.36V36.54H48.68V35.7ZM55.26 28.26V39.34C55.26 40.44 55.04 41.02 54.32 41.34C53.62 41.7 52.56 41.74 51.08 41.72C51.04 41.22 50.8 40.54 50.58 39.98H45.36V40.68H43.22V34.38H50.78V39.66C51.58 39.7 52.38 39.68 52.64 39.68C52.94 39.68 53.04 39.6 53.04 39.32V33.62H47.66V28.26H55.26ZM50.44 24.46H56.08V26.26H52.78C53.14 26.72 53.46 27.2 53.64 27.58L51.5 28.18C51.3 27.64 50.8 26.9 50.32 26.26H49.28C48.78 26.94 48.22 27.52 47.7 27.98C47.2 27.64 46.18 27.08 45.62 26.86C45.86 26.68 46.1 26.48 46.34 26.26H43.68C43.96 26.72 44.2 27.2 44.34 27.56L42.26 28.14C42.1 27.62 41.74 26.88 41.36 26.26H41.14C40.62 27 40.06 27.66 39.52 28.18C39.06 27.8 38.12 27.16 37.58 26.9C38.8 25.9 39.92 24.38 40.52 22.9L42.74 23.5C42.6 23.82 42.44 24.14 42.28 24.46H46.72V25.88C47.54 25.02 48.22 23.96 48.64 22.9L50.92 23.44C50.78 23.78 50.62 24.12 50.44 24.46ZM62.08 33H65.74V31.64H62.08V33ZM65.74 29.82V28.48H62.08V29.82H65.74ZM71.98 29.82V28.48H68.18V29.82H71.98ZM71.98 33V31.64H68.18V33H71.98ZM76.04 36.26V38.46H68.18V41.72H65.74V38.46H58.02V36.26H65.74V34.96H59.78V26.54H61.46C61.04 25.78 60.38 24.82 59.8 24.08L61.84 23.14C62.56 23.98 63.46 25.14 63.86 25.94L62.62 26.54H66.16C65.86 25.72 65.26 24.64 64.66 23.78L66.8 22.98C67.48 23.88 68.22 25.12 68.56 25.96L67.12 26.54H70.18C70.86 25.54 71.66 24.14 72.06 23.06L74.72 23.82C74.12 24.78 73.46 25.74 72.86 26.54H74.44V34.96H68.18V36.26H76.04Z" fill="#005694"/>
<path d="M71.68 70.064L74.488 68.936C76 71.984 79 75.464 81.616 77.48C80.848 78.08 79.744 79.232 79.192 80.048C78.688 79.592 78.184 79.064 77.656 78.512V78.68C77.392 85.928 77.104 88.76 76.264 89.768C75.664 90.536 75.016 90.776 74.08 90.896C73.264 91.016 71.872 91.016 70.456 90.968C70.408 90.104 70.024 88.904 69.52 88.088C70.84 88.184 72.088 88.208 72.688 88.208C73.12 88.208 73.384 88.16 73.648 87.872C74.128 87.368 74.392 85.232 74.608 80.216H69.88C69.28 84.824 67.72 88.928 61.504 91.256C61.144 90.44 60.304 89.264 59.608 88.616C65.032 86.864 66.28 83.72 66.76 80.216H62.704V78.536C62.08 79.184 61.432 79.76 60.784 80.264C60.256 79.616 59.032 78.464 58.336 77.96C61.336 75.944 63.976 72.632 65.416 68.984L68.488 69.872C67.312 72.632 65.632 75.272 63.736 77.432H76.696C74.8 75.224 73 72.584 71.68 70.064Z" fill="#005694"/>
<path d="M33.4199 66.332L35.002 58.832C42.248 55.668 47.8535 51.9863 51.8184 47.7871H56.9453L47.8926 91H39.4258L45.666 61.2344C43.9082 62.3672 41.877 63.4023 39.5723 64.3398C37.2871 65.2773 35.2363 65.9414 33.4199 66.332Z" fill="#005694"/>
</svg>
