<svg width="80" height="80" viewBox="0 0 80 80" fill="none" xmlns="http://www.w3.org/2000/svg">
<path d="M55.7084 46.7881L59.8299 50.925C60.2749 51.3717 60.2749 52.1097 59.8299 52.5759L53.5026 58.9269L59.8299 65.278C60.2749 65.7441 60.2749 66.4822 59.8299 66.9289L55.7084 71.0658C55.244 71.5319 54.5087 71.5319 54.0637 71.0658L47.7364 64.6953L41.4284 71.0464C40.964 71.5125 40.2287 71.5125 39.7837 71.0464L35.6622 66.9094C35.2171 66.4627 35.2171 65.7247 35.6622 65.2586L41.9895 58.9075L35.6622 52.5564C35.2171 52.1097 35.2171 51.3523 35.6622 50.9056L39.7837 46.7686C40.2481 46.3025 40.9833 46.3025 41.4284 46.7686L47.7364 53.1197L54.0637 46.7686C54.5087 46.3219 55.244 46.3219 55.7084 46.7881ZM57.3725 51.7407L54.8957 49.2547L48.5684 55.6057C48.104 56.0524 47.3687 56.0524 46.9237 55.6057L40.5963 49.2547L38.1196 51.7407L44.4469 58.0918C44.9113 58.5579 44.9113 59.2959 44.4469 59.7427L38.1196 66.0937L40.5963 68.5798L46.9237 62.2287C47.3687 61.782 48.104 61.782 48.5684 62.2287L54.8957 68.5798L57.3725 66.0937L51.0451 59.7427C50.5808 59.2765 50.5808 58.5385 51.0451 58.0918L57.3725 51.7407ZM47.7364 37.815C55.0892 37.815 61.6681 41.6217 65.4606 47.5649C66.9312 47.5649 68.1115 47.7009 69.2725 46.5356C69.911 45.8946 70.298 45.0401 70.298 44.0689V30.8036L65.6541 31.6776V36.6497C65.6541 37.2906 65.1317 37.815 64.4931 37.815H58.3593C57.7208 37.815 57.1983 37.2906 57.1983 36.6497V33.2896L45.3757 35.5232C45.2403 35.5426 45.0855 35.562 44.9307 35.5232L36.2233 33.8723V41.2916C39.5128 39.0969 43.4794 37.815 47.7364 37.815ZM66.757 49.8762C70.5689 57.9558 68.8662 67.5504 62.6162 73.8237C54.412 82.0588 41.0994 82.0588 32.8952 73.8237C30.4184 71.3377 28.5415 68.2107 27.5547 64.7342H6.36684C4.50927 64.7342 3 63.2192 3 61.3547V22.0442C3 20.1797 4.50927 18.6647 6.36684 18.6647H15.2483V12.9934C15.2483 9.80821 17.8218 7.22505 20.9952 7.22505H34.2497C35.6622 -2.40835 54.5861 -2.40835 55.9987 7.22505H69.2532C72.4265 7.22505 75 9.80821 75 12.9934V25.1323C75 27.0163 74.1099 28.7254 72.6393 29.7936V44.0495C72.62 47.2736 70.0271 49.8762 66.757 49.8762ZM27.0129 62.4035C26.8388 61.3353 26.742 60.2282 26.7227 59.1017H10.5851C9.94652 59.1017 9.42408 58.5773 9.42408 57.9364C9.42408 57.2955 9.94652 56.7711 10.5851 56.7711H26.8194C26.8775 56.3049 26.9355 55.8388 27.0129 55.3921H10.5851C9.94652 55.3921 9.42408 54.8677 9.42408 54.2268C9.42408 53.5858 9.94652 53.0614 10.5851 53.0614H27.5547C28.677 49.1576 30.9022 45.7004 33.882 43.0784V22.0442C33.882 21.4809 33.4176 20.9954 32.8371 20.9954H6.36684C5.78635 20.9954 5.32196 21.4615 5.32196 22.0442V61.3547C5.32196 61.9374 5.78635 62.4035 6.36684 62.4035H27.0129ZM60.9522 45.6421C53.6573 38.32 41.8154 38.32 34.5206 45.6421C31.0183 49.1576 29.0446 53.916 29.0446 58.9075C29.0446 69.2595 37.423 77.6693 47.7364 77.6693C58.0691 77.6693 66.4281 69.2595 66.4281 58.9075C66.4475 53.8577 64.4351 49.1381 60.9522 45.6421ZM19.5826 31.5416C16.2352 31.5416 14.5324 35.6397 16.9124 38.0092C19.273 40.3787 23.3558 38.689 23.3558 35.329C23.3752 33.2314 21.6724 31.5416 19.5826 31.5416ZM15.287 30.9978C17.667 28.6089 21.537 28.6089 23.917 30.9978C25.8519 32.94 26.2776 35.9505 24.9038 38.3588C26.8001 39.5436 27.5934 41.68 27.5934 44.1661V49.0022C27.5934 49.6431 27.0709 50.1675 26.4324 50.1675H12.7522C12.1137 50.1675 11.5912 49.6431 11.5912 49.0022V44.1661C11.5912 41.6994 12.4039 39.5436 14.2808 38.3588C12.9264 35.9505 13.3327 32.94 15.287 30.9978ZM23.3365 40.1457C21.1306 41.8742 18.0347 41.8742 15.8482 40.1457C14.4163 40.8254 13.9132 42.3598 13.9132 44.1466V47.8174H25.2714V44.1466C25.2714 42.3792 24.7683 40.8449 23.3365 40.1457ZM14.4743 26.22C13.8358 26.22 13.3134 25.6956 13.3134 25.0546C13.3134 24.4137 13.8358 23.8893 14.4743 23.8893H24.7103C25.3488 23.8893 25.8713 24.4137 25.8713 25.0546C25.8713 25.6956 25.3488 26.22 24.7103 26.22H14.4743ZM17.5703 18.6647H32.8371C34.6947 18.6647 36.204 20.1797 36.204 22.0442V31.5028L45.1242 33.1925L57.1983 30.9007V25.9869C57.1983 25.346 57.7208 24.8216 58.3593 24.8216H64.4931C65.1317 24.8216 65.6541 25.346 65.6541 25.9869V29.3081L69.8723 28.5118C71.4784 28.201 72.6587 26.822 72.6587 25.1323V12.9934C72.6587 11.0901 71.1301 9.55572 69.2338 9.55572H20.9952C19.1182 9.55572 17.5703 11.0901 17.5703 12.9934V18.6647ZM63.3128 27.1328H59.4816V35.4649H63.3128V27.1328ZM53.6186 7.22505C52.1287 0.699199 38.1002 0.699199 36.6103 7.22505H53.6186Z" fill="url(#paint0_linear_68_1779)"/>
<path d="M55.7084 46.7881L59.8299 50.925C60.2749 51.3717 60.2749 52.1097 59.8299 52.5759L53.5026 58.9269L59.8299 65.278C60.2749 65.7441 60.2749 66.4822 59.8299 66.9289L55.7084 71.0658C55.244 71.5319 54.5087 71.5319 54.0637 71.0658L47.7364 64.6953L41.4284 71.0464C40.964 71.5125 40.2287 71.5125 39.7837 71.0464L35.6622 66.9094C35.2171 66.4627 35.2171 65.7247 35.6622 65.2586L41.9895 58.9075L35.6622 52.5564C35.2171 52.1097 35.2171 51.3523 35.6622 50.9056L39.7837 46.7686C40.2481 46.3025 40.9833 46.3025 41.4284 46.7686L47.7364 53.1197L54.0637 46.7686C54.5087 46.3219 55.244 46.3219 55.7084 46.7881ZM57.3725 51.7407L54.8957 49.2547L48.5684 55.6057C48.104 56.0524 47.3687 56.0524 46.9237 55.6057L40.5963 49.2547L38.1196 51.7407L44.4469 58.0918C44.9113 58.5579 44.9113 59.2959 44.4469 59.7427L38.1196 66.0937L40.5963 68.5798L46.9237 62.2287C47.3687 61.782 48.104 61.782 48.5684 62.2287L54.8957 68.5798L57.3725 66.0937L51.0451 59.7427C50.5808 59.2765 50.5808 58.5385 51.0451 58.0918L57.3725 51.7407ZM47.7364 37.815C55.0892 37.815 61.6681 41.6217 65.4606 47.5649C66.9312 47.5649 68.1115 47.7009 69.2725 46.5356C69.911 45.8946 70.298 45.0401 70.298 44.0689V30.8036L65.6541 31.6776V36.6497C65.6541 37.2906 65.1317 37.815 64.4931 37.815H58.3593C57.7208 37.815 57.1983 37.2906 57.1983 36.6497V33.2896L45.3757 35.5232C45.2403 35.5426 45.0855 35.562 44.9307 35.5232L36.2233 33.8723V41.2916C39.5128 39.0969 43.4794 37.815 47.7364 37.815ZM66.757 49.8762C70.5689 57.9558 68.8662 67.5504 62.6162 73.8237C54.412 82.0588 41.0994 82.0588 32.8952 73.8237C30.4184 71.3377 28.5415 68.2107 27.5547 64.7342H6.36684C4.50927 64.7342 3 63.2192 3 61.3547V22.0442C3 20.1797 4.50927 18.6647 6.36684 18.6647H15.2483V12.9934C15.2483 9.80821 17.8218 7.22505 20.9952 7.22505H34.2497C35.6622 -2.40835 54.5861 -2.40835 55.9987 7.22505H69.2532C72.4265 7.22505 75 9.80821 75 12.9934V25.1323C75 27.0163 74.1099 28.7254 72.6393 29.7936V44.0495C72.62 47.2736 70.0271 49.8762 66.757 49.8762ZM27.0129 62.4035C26.8388 61.3353 26.742 60.2282 26.7227 59.1017H10.5851C9.94652 59.1017 9.42408 58.5773 9.42408 57.9364C9.42408 57.2955 9.94652 56.7711 10.5851 56.7711H26.8194C26.8775 56.3049 26.9355 55.8388 27.0129 55.3921H10.5851C9.94652 55.3921 9.42408 54.8677 9.42408 54.2268C9.42408 53.5858 9.94652 53.0614 10.5851 53.0614H27.5547C28.677 49.1576 30.9022 45.7004 33.882 43.0784V22.0442C33.882 21.4809 33.4176 20.9954 32.8371 20.9954H6.36684C5.78635 20.9954 5.32196 21.4615 5.32196 22.0442V61.3547C5.32196 61.9374 5.78635 62.4035 6.36684 62.4035H27.0129ZM60.9522 45.6421C53.6573 38.32 41.8154 38.32 34.5206 45.6421C31.0183 49.1576 29.0446 53.916 29.0446 58.9075C29.0446 69.2595 37.423 77.6693 47.7364 77.6693C58.0691 77.6693 66.4281 69.2595 66.4281 58.9075C66.4475 53.8577 64.4351 49.1381 60.9522 45.6421ZM19.5826 31.5416C16.2352 31.5416 14.5324 35.6397 16.9124 38.0092C19.273 40.3787 23.3558 38.689 23.3558 35.329C23.3752 33.2314 21.6724 31.5416 19.5826 31.5416ZM15.287 30.9978C17.667 28.6089 21.537 28.6089 23.917 30.9978C25.8519 32.94 26.2776 35.9505 24.9038 38.3588C26.8001 39.5436 27.5934 41.68 27.5934 44.1661V49.0022C27.5934 49.6431 27.0709 50.1675 26.4324 50.1675H12.7522C12.1137 50.1675 11.5912 49.6431 11.5912 49.0022V44.1661C11.5912 41.6994 12.4039 39.5436 14.2808 38.3588C12.9264 35.9505 13.3327 32.94 15.287 30.9978ZM23.3365 40.1457C21.1306 41.8742 18.0347 41.8742 15.8482 40.1457C14.4163 40.8254 13.9132 42.3598 13.9132 44.1466V47.8174H25.2714V44.1466C25.2714 42.3792 24.7683 40.8449 23.3365 40.1457ZM14.4743 26.22C13.8358 26.22 13.3134 25.6956 13.3134 25.0546C13.3134 24.4137 13.8358 23.8893 14.4743 23.8893H24.7103C25.3488 23.8893 25.8713 24.4137 25.8713 25.0546C25.8713 25.6956 25.3488 26.22 24.7103 26.22H14.4743ZM17.5703 18.6647H32.8371C34.6947 18.6647 36.204 20.1797 36.204 22.0442V31.5028L45.1242 33.1925L57.1983 30.9007V25.9869C57.1983 25.346 57.7208 24.8216 58.3593 24.8216H64.4931C65.1317 24.8216 65.6541 25.346 65.6541 25.9869V29.3081L69.8723 28.5118C71.4784 28.201 72.6587 26.822 72.6587 25.1323V12.9934C72.6587 11.0901 71.1301 9.55572 69.2338 9.55572H20.9952C19.1182 9.55572 17.5703 11.0901 17.5703 12.9934V18.6647ZM63.3128 27.1328H59.4816V35.4649H63.3128V27.1328ZM53.6186 7.22505C52.1287 0.699199 38.1002 0.699199 36.6103 7.22505H53.6186Z" fill="white"/>
<defs>
<linearGradient id="paint0_linear_68_1779" x1="3" y1="40" x2="75" y2="40" gradientUnits="userSpaceOnUse">
<stop stop-color="#4889D8"/>
<stop offset="1" stop-color="#63B1C2"/>
</linearGradient>
</defs>
</svg>
