<svg width="120" height="120" viewBox="0 0 120 120" fill="none" xmlns="http://www.w3.org/2000/svg">
<circle cx="60" cy="60" r="60" fill="white"/>
<path d="M66.2475 31.875C59.7 31.875 54.3725 35.3887 54.3725 39.7062C54.3725 39.7175 54.375 44.4075 54.375 44.4075C54.1663 44.3963 53.9612 44.375 53.75 44.375C47.2025 44.375 41.875 49.7025 41.875 56.25C41.875 62.7975 47.2025 68.125 53.75 68.125C55.8 68.125 57.7288 67.6025 59.4138 66.685C61.3925 67.62 63.7437 68.125 66.25 68.125C72.7975 68.125 78.125 64.615 78.125 60.3C78.125 60.3 78.12 39.6838 78.12 39.6763C78.0963 35.3725 72.78 31.875 66.2475 31.875ZM76.875 43.825C76.875 47.45 72.1087 50.4 66.25 50.4C65.4825 50.4 64.7175 50.3387 63.9687 50.2312C63.1262 48.8062 61.9987 47.5737 60.66 46.6112C62.3262 47.2 64.2287 47.5363 66.2475 47.5363C70.9025 47.5363 74.9287 45.7562 76.875 43.1775V43.825ZM66.2475 33.125C72.1062 33.125 76.8725 36.0775 76.8725 39.7062C76.8725 43.335 72.1062 46.2875 66.2475 46.2875C60.405 46.2875 55.6512 43.3512 55.625 39.7363V39.7C55.625 39.6975 55.6237 39.695 55.6237 39.6938C55.635 36.07 60.3962 33.125 66.2475 33.125ZM55.625 43.185C56.1275 43.85 56.7675 44.4588 57.5238 45C56.9113 44.7937 56.2775 44.6425 55.625 44.5375V43.185ZM43.125 56.25C43.125 50.3913 47.8913 45.625 53.75 45.625C59.6087 45.625 64.375 50.3913 64.375 56.25C64.375 62.1087 59.6087 66.875 53.75 66.875C47.8913 66.875 43.125 62.1087 43.125 56.25ZM76.875 60.3C76.875 63.925 72.1087 66.875 66.25 66.875C64.2337 66.875 62.3425 66.5163 60.69 65.8663C61.5463 65.2463 62.32 64.5225 62.9837 63.7013C64.0387 63.9 65.1325 64.0125 66.25 64.0125C70.9038 64.0125 74.9287 62.2325 76.875 59.6537V60.3ZM76.875 56.175C76.875 59.8075 72.1087 62.7625 66.25 62.7625C65.4112 62.7625 64.5925 62.6812 63.7913 62.5612C64.3238 61.7175 64.76 60.8087 65.0675 59.84C65.4438 59.8687 65.83 59.8875 66.25 59.8875C70.9038 59.8875 74.9287 58.11 76.875 55.5363V56.175ZM76.875 52.0625C76.875 55.6875 72.1087 58.6375 66.25 58.6375C65.9475 58.6375 65.6625 58.6275 65.3875 58.6112C65.5425 57.8475 65.625 57.0575 65.625 56.2488C65.625 56.08 65.6062 55.9175 65.6 55.75C65.8162 55.7575 66.0275 55.7737 66.25 55.7737C70.9038 55.7737 74.9287 53.9937 76.875 51.415V52.0625ZM76.875 47.9375C76.875 51.57 72.1087 54.525 66.25 54.525C65.9863 54.525 65.735 54.5087 65.4813 54.4975C65.3288 53.475 65.0575 52.4913 64.6613 51.57C65.1875 51.6175 65.7187 51.65 66.25 51.65C70.9038 51.65 74.9287 49.8725 76.875 47.2987V47.9375Z" fill="url(#paint0_linear_107_43)"/>
<path d="M66.2476 44.7063C70.9788 44.7063 74.6851 42.51 74.6851 39.7063C74.6851 36.9025 70.9788 34.7063 66.2476 34.7063C61.5163 34.7063 57.8101 36.9025 57.8101 39.7063C57.8101 42.51 61.5163 44.7063 66.2476 44.7063ZM66.2476 35.9563C70.1438 35.9563 73.4351 37.6738 73.4351 39.7063C73.4351 41.7388 70.1438 43.4563 66.2476 43.4563C62.3513 43.4563 59.0601 41.7388 59.0601 39.7063C59.0601 37.6738 62.3513 35.9563 66.2476 35.9563Z" fill="url(#paint1_linear_107_43)"/>
<path d="M56.2987 57.1562C56.6437 57.1562 56.9237 56.8762 56.9237 56.5312C56.9237 56.1862 56.6437 55.9062 56.2987 55.9062H54.375V55.8112L56.8262 51.9437C57.0112 51.6525 56.925 51.2662 56.6337 51.0812C56.345 50.8987 55.9562 50.9825 55.7725 51.275L53.75 54.4637L51.7275 51.275C51.5425 50.9825 51.155 50.8975 50.8662 51.0812C50.575 51.2662 50.4875 51.6525 50.6737 51.9437L53.1262 55.8112V55.9062H51.2C50.855 55.9062 50.575 56.1862 50.575 56.5312C50.575 56.8762 50.855 57.1562 51.2 57.1562H53.125V57.6025H51.2C50.855 57.6025 50.575 57.8825 50.575 58.2275C50.575 58.5725 50.855 58.8525 51.2 58.8525H53.125V60.89C53.125 61.235 53.405 61.515 53.75 61.515C54.095 61.515 54.375 61.235 54.375 60.89V58.8525H56.2987C56.6437 58.8525 56.9237 58.5725 56.9237 58.2275C56.9237 57.8825 56.6437 57.6025 56.2987 57.6025H54.375V57.1562H56.2987Z" fill="url(#paint2_linear_107_43)"/>
<path d="M53.7499 47.3149C48.8237 47.3149 44.8149 51.3237 44.8149 56.2499C44.8149 61.1762 48.8237 65.1849 53.7499 65.1849C58.6762 65.1849 62.6837 61.1762 62.6837 56.2499C62.6837 51.3237 58.6774 47.3149 53.7499 47.3149ZM53.7499 63.9349C49.5112 63.9349 46.0649 60.4874 46.0649 56.2499C46.0649 52.0124 49.5124 48.5649 53.7499 48.5649C57.9874 48.5649 61.4337 52.0124 61.4337 56.2499C61.4337 60.4874 57.9874 63.9349 53.7499 63.9349Z" fill="url(#paint3_linear_107_43)"/>
<path d="M33.54 87.344V84.344H32.46V87.344H33.54ZM34.908 80.696H33.156C32.988 81.5 32.772 82.316 32.508 83.084H34.752V88.604H32.46V89.48H31.272V85.76C31.116 85.988 30.96 86.204 30.792 86.408C30.744 86.024 30.492 85.112 30.3 84.704C31.032 83.72 31.524 82.268 31.824 80.696H30.552V79.4H34.908V80.696ZM37.644 83.72H38.988V80.756H37.644V83.72ZM41.604 83.72V85.064H40.344V90.056H38.988V85.064H37.62C37.548 86.828 37.2 88.832 35.964 90.14C35.724 89.888 35.208 89.492 34.884 89.312C35.916 88.196 36.216 86.528 36.288 85.064H35.172V83.72H36.312V80.756H35.484V79.436H41.364V80.756H40.344V83.72H41.604ZM44.532 78.872L45.84 79.268C45.588 80.012 45.288 80.792 44.952 81.536V90.032H43.596V84.032C43.356 84.392 43.104 84.74 42.84 85.04C42.72 84.704 42.384 83.876 42.156 83.504C43.116 82.376 44.004 80.624 44.532 78.872ZM46.86 82.184V83.852C47.712 83.636 48.48 83.348 49.152 82.964C48.816 82.664 48.516 82.352 48.264 82.04C48.048 82.304 47.808 82.544 47.568 82.76C47.412 82.604 47.124 82.376 46.86 82.184ZM51.072 81.188H48.96C49.26 81.572 49.644 81.956 50.112 82.292C50.496 81.968 50.808 81.608 51.072 81.188ZM53.46 81.188H52.56C52.212 81.872 51.756 82.448 51.228 82.952C51.972 83.312 52.848 83.6 53.844 83.756C53.592 84.02 53.244 84.56 53.076 84.896C51.972 84.656 51.012 84.248 50.22 83.756C49.416 84.284 48.492 84.692 47.484 84.992C47.376 84.776 47.1 84.404 46.86 84.128V88.04H45.624V80.36H46.86V81.632C47.64 80.9 48.288 79.88 48.66 78.836L49.944 79.136C49.836 79.436 49.704 79.748 49.56 80.036H53.46V81.188ZM51.456 85.436L52.476 85.856C51.528 86.888 49.932 87.608 48.3 88.028C48.144 87.764 47.856 87.368 47.604 87.14C49.104 86.828 50.664 86.228 51.456 85.436ZM50.28 84.344L51.324 84.776C50.58 85.532 49.392 86.096 48.276 86.456C48.108 86.192 47.796 85.856 47.52 85.64C48.54 85.376 49.692 84.884 50.28 84.344ZM52.32 86.792L53.544 87.284C52.296 88.748 50.172 89.552 47.724 89.996C47.568 89.648 47.28 89.18 47.004 88.868C49.212 88.568 51.288 87.92 52.32 86.792ZM55.884 80.48C56.328 80.528 56.952 80.552 57.36 80.552H63.408C63.756 80.552 64.26 80.54 64.464 80.528C64.452 80.804 64.428 81.284 64.428 81.632V87.848C64.428 88.268 64.452 88.904 64.476 89.264H62.736C62.748 89.072 62.748 88.868 62.748 88.64H57.276C56.808 88.64 56.124 88.676 55.728 88.712V86.996C56.148 87.032 56.688 87.068 57.228 87.068H62.76V82.1H57.372C56.868 82.1 56.22 82.124 55.884 82.148V80.48ZM76.008 80.864C75.912 80.996 75.696 81.368 75.588 81.608C75.18 82.544 74.508 83.828 73.704 84.908C74.892 85.94 76.344 87.476 77.052 88.34L75.684 89.528C74.904 88.448 73.788 87.224 72.66 86.132C71.388 87.476 69.792 88.724 68.148 89.504L66.912 88.208C68.844 87.488 70.704 86.024 71.832 84.764C72.624 83.864 73.356 82.676 73.62 81.824H69.552C69.048 81.824 68.388 81.896 68.136 81.908V80.204C68.46 80.252 69.192 80.288 69.552 80.288H73.788C74.304 80.288 74.784 80.216 75.024 80.132L76.008 80.864ZM81.768 87.848V80.948C81.768 80.528 81.732 79.928 81.648 79.508H83.52C83.472 79.928 83.412 80.456 83.412 80.948V82.724C85.02 83.192 87.324 84.044 88.428 84.584L87.744 86.24C86.508 85.592 84.708 84.896 83.412 84.452V87.848C83.412 88.196 83.472 89.036 83.52 89.528H81.648C81.72 89.048 81.768 88.328 81.768 87.848Z" fill="#005694"/>
<defs>
<linearGradient id="paint0_linear_107_43" x1="41.875" y1="50" x2="78.125" y2="50" gradientUnits="userSpaceOnUse">
<stop stop-color="#4889D8"/>
<stop offset="1" stop-color="#63B1C2"/>
</linearGradient>
<linearGradient id="paint1_linear_107_43" x1="57.8101" y1="39.7063" x2="74.6851" y2="39.7063" gradientUnits="userSpaceOnUse">
<stop stop-color="#4889D8"/>
<stop offset="1" stop-color="#63B1C2"/>
</linearGradient>
<linearGradient id="paint2_linear_107_43" x1="50.575" y1="56.2497" x2="56.9237" y2="56.2497" gradientUnits="userSpaceOnUse">
<stop stop-color="#4889D8"/>
<stop offset="1" stop-color="#63B1C2"/>
</linearGradient>
<linearGradient id="paint3_linear_107_43" x1="44.8149" y1="56.2499" x2="62.6837" y2="56.2499" gradientUnits="userSpaceOnUse">
<stop stop-color="#4889D8"/>
<stop offset="1" stop-color="#63B1C2"/>
</linearGradient>
</defs>
</svg>
