<svg width="80" height="80" viewBox="0 0 80 80" fill="none" xmlns="http://www.w3.org/2000/svg">
<path d="M22.6394 25.1187C26.8475 25.1187 30.2727 21.7295 30.2727 17.5618C30.2727 13.3942 26.8492 10.005 22.6394 10.005C18.4296 10.005 15.0061 13.3942 15.0061 17.5618C15.0061 21.7295 18.4313 25.1187 22.6394 25.1187ZM22.6394 11.9983C25.7394 11.9983 28.2609 14.4946 28.2609 17.5635C28.2609 20.6324 25.7394 23.1286 22.6394 23.1286C19.5395 23.1286 17.018 20.6324 17.018 17.5635C17.018 14.4946 19.5395 11.9983 22.6394 11.9983ZM31.6022 63.9618H20.0056C15.598 63.9618 12.0118 60.4116 12.0118 56.0481V44.566C12.0118 44.0166 11.5609 43.5701 11.0059 43.5701C10.451 43.5701 10 44.0166 10 44.566V56.0481C10 59.4755 11.7671 62.4996 14.4462 64.2788L12.4796 78.3983C12.4042 78.9427 12.7881 79.4456 13.338 79.5203C13.3849 79.527 13.4302 79.5303 13.4771 79.5303C13.9717 79.5303 14.4026 79.1685 14.473 78.6705L15.3213 72.5776H30.603L30.6097 79.0058C30.6097 79.5552 31.0607 80 31.6156 80H31.6173C32.1722 80 32.6232 79.5535 32.6215 79.0025L32.6065 64.956C32.6065 64.4066 32.1571 63.9618 31.6022 63.9618ZM15.5996 70.5859L16.3407 65.2631C17.4757 65.7079 18.7113 65.9535 20.0056 65.9535H30.5963L30.6013 70.5859H15.5996ZM68.9941 47.0954H63.7364L68.7745 28.4813C69.1634 27.0423 68.2983 25.5568 66.8448 25.1718C66.1423 24.9859 65.4063 25.0822 64.7742 25.444C64.1422 25.8058 63.6895 26.3884 63.5017 27.0838L59.0086 43.6847H45.1185C45.3985 43.2581 45.5829 42.7934 45.6684 42.322C46.0255 40.3369 44.691 37.8589 40.9137 37.112L34.7558 35.8921C32.8663 35.5187 30.484 32.2639 28.9063 30.1095C28.4973 29.5519 28.11 29.0224 27.7613 28.5793C26.9498 27.0622 25.3621 26.088 23.6856 26.088H19.5496C17.0113 26.088 14.9441 28.1328 14.9441 30.6473V55.5867C14.9441 58.9477 17.7071 61.683 21.102 61.683H33.656V73.5585C33.656 77.4788 36.7626 79.5934 39.6848 79.5934C41.1903 79.5934 42.5768 79.0423 43.5895 78.0432C44.7211 76.9261 45.3197 75.3178 45.3197 73.3959V58.0083C45.3197 53.8523 42.0756 50.3734 38.0887 50.2523C38.0787 50.2523 38.0686 50.2523 38.0586 50.2523H28.291V43.1535C30.1822 44.3768 33.5906 44.8697 37.4718 45.3245C38.072 45.3942 38.6101 45.4573 39.0662 45.5203C38.9723 45.7925 38.9203 46.083 38.9203 46.3851C38.9203 46.6307 38.9572 46.868 39.0192 47.0954H31.4999C30.945 47.0954 30.494 47.5419 30.494 48.0913C30.494 48.6407 30.945 49.0871 31.4999 49.0871H49.2411V79.0042C49.2411 79.5535 49.6921 80 50.247 80C50.8019 80 51.2529 79.5535 51.2529 79.0042V49.0871H68.9941C69.549 49.0871 70 48.6407 70 48.0913C70 47.5419 69.549 47.0954 68.9941 47.0954ZM28.9265 41.0938L24.4333 35.6581C24.0813 35.2332 23.4475 35.1701 23.0183 35.5187C22.5891 35.8672 22.5254 36.4946 22.8775 36.9195L26.2792 41.034V51.2465C26.2792 51.7959 26.7302 52.2423 27.2851 52.2423H38.0435C40.9489 52.3386 43.3095 54.9228 43.3095 58.0066V73.3909C43.3095 74.7734 42.9155 75.8921 42.1711 76.6274C41.5391 77.2514 40.6572 77.595 39.6882 77.595C37.74 77.595 35.6712 76.1776 35.6712 73.5519V60.6805C35.6712 60.1311 35.2202 59.6847 34.6653 59.6847H21.1054C18.8186 59.6847 16.9593 57.8423 16.9593 55.5801V30.644C16.9593 29.2282 18.1228 28.0763 19.5529 28.0763H23.6889C24.6312 28.0763 25.565 28.6739 26.016 29.5618C26.0462 29.6216 26.083 29.678 26.1233 29.7311C26.4636 30.1593 26.861 30.7021 27.2801 31.2764C29.25 33.9668 31.7028 37.3162 34.3635 37.8423L40.5231 39.0622C42.9725 39.5469 43.8829 40.9095 43.6917 41.9701C43.5023 43.0241 42.1979 43.9867 39.7888 43.6116C39.2221 43.5237 38.5213 43.4423 37.7098 43.3461C35.0291 43.0324 30.0464 42.4481 28.9265 41.0938ZM40.9305 46.3834C40.9305 45.9917 41.2524 45.673 41.648 45.673H59.7798C60.2358 45.673 60.6332 45.371 60.7522 44.9344L65.4448 27.5967C65.4935 27.4158 65.6125 27.2631 65.7801 27.1668C65.9478 27.0705 66.1406 27.0456 66.3233 27.0938C66.5061 27.1419 66.6603 27.2598 66.7576 27.4257C66.8548 27.5917 66.88 27.7826 66.8313 27.9635L61.6542 47.0938H50.247H41.648C41.2524 47.0954 40.9305 46.7751 40.9305 46.3834ZM35.2604 15.9203V18.0448C35.2604 18.6042 35.5974 19.1054 36.1205 19.3212C36.2948 19.3925 36.4793 19.429 36.6603 19.429C37.0191 19.429 37.3729 19.2913 37.6394 19.0324L40.8467 15.922H43.6783V20.0133C43.6783 22 45.3163 23.6149 47.3315 23.6149H55.7109L58.9181 26.7253C59.1846 26.9842 59.5384 27.122 59.8972 27.122C60.0782 27.122 60.261 27.0871 60.437 27.0158C60.9601 26.8 61.2971 26.2988 61.2971 25.7394V23.6149C63.2687 23.5668 64.8564 21.9701 64.8564 20.0133V11.2963C64.8564 9.30954 63.2184 7.69461 61.2032 7.69461H52.8775V3.60166C52.8775 1.61494 51.2395 0 49.2243 0H35.351C33.3374 0 31.6978 1.6166 31.6978 3.60166V12.3203C31.7011 14.2755 33.2888 15.8722 35.2604 15.9203ZM52.8809 12.3203V9.68465H61.2065C62.1119 9.68465 62.8479 10.4066 62.8479 11.2946V20.0116C62.8479 20.8996 62.1119 21.6216 61.2065 21.6216H60.2945C59.7396 21.6216 59.2886 22.0681 59.2886 22.6174V24.2921L56.8274 21.9087C56.6397 21.7261 56.3865 21.6249 56.1233 21.6249H47.3332C46.4279 21.6249 45.6919 20.9029 45.6919 20.0149V15.9237H49.2277C51.2412 15.922 52.8809 14.3071 52.8809 12.3203ZM33.713 3.60166C33.713 2.71369 34.449 1.9917 35.3543 1.9917H49.2277C50.133 1.9917 50.869 2.71369 50.869 3.60166V12.3203C50.869 13.2083 50.133 13.9303 49.2277 13.9303H40.4376C40.1744 13.9303 39.9212 14.0332 39.7334 14.2141L37.2723 16.6008V14.9261C37.2723 14.3768 36.8213 13.9303 36.2663 13.9303H35.3543C34.449 13.9303 33.713 13.2083 33.713 12.3203V3.60166ZM35.978 5.73112C35.978 5.18174 36.429 4.73527 36.9839 4.73527H47.0918C47.6467 4.73527 48.0977 5.18174 48.0977 5.73112C48.0977 6.2805 47.6467 6.72697 47.0918 6.72697H36.9839C36.4273 6.72697 35.978 6.2805 35.978 5.73112ZM35.978 9.71452C35.978 9.16514 36.429 8.71867 36.9839 8.71867H46.0557C46.6106 8.71867 47.0616 9.16514 47.0616 9.71452C47.0616 10.2639 46.6106 10.7104 46.0557 10.7104H36.9839C36.4273 10.7104 35.978 10.2656 35.978 9.71452Z" fill="url(#paint0_linear_68_1748)"/>
<path d="M22.6394 25.1187C26.8475 25.1187 30.2727 21.7295 30.2727 17.5618C30.2727 13.3942 26.8492 10.005 22.6394 10.005C18.4296 10.005 15.0061 13.3942 15.0061 17.5618C15.0061 21.7295 18.4313 25.1187 22.6394 25.1187ZM22.6394 11.9983C25.7394 11.9983 28.2609 14.4946 28.2609 17.5635C28.2609 20.6324 25.7394 23.1286 22.6394 23.1286C19.5395 23.1286 17.018 20.6324 17.018 17.5635C17.018 14.4946 19.5395 11.9983 22.6394 11.9983ZM31.6022 63.9618H20.0056C15.598 63.9618 12.0118 60.4116 12.0118 56.0481V44.566C12.0118 44.0166 11.5609 43.5701 11.0059 43.5701C10.451 43.5701 10 44.0166 10 44.566V56.0481C10 59.4755 11.7671 62.4996 14.4462 64.2788L12.4796 78.3983C12.4042 78.9427 12.7881 79.4456 13.338 79.5203C13.3849 79.527 13.4302 79.5303 13.4771 79.5303C13.9717 79.5303 14.4026 79.1685 14.473 78.6705L15.3213 72.5776H30.603L30.6097 79.0058C30.6097 79.5552 31.0607 80 31.6156 80H31.6173C32.1722 80 32.6232 79.5535 32.6215 79.0025L32.6065 64.956C32.6065 64.4066 32.1571 63.9618 31.6022 63.9618ZM15.5996 70.5859L16.3407 65.2631C17.4757 65.7079 18.7113 65.9535 20.0056 65.9535H30.5963L30.6013 70.5859H15.5996ZM68.9941 47.0954H63.7364L68.7745 28.4813C69.1634 27.0423 68.2983 25.5568 66.8448 25.1718C66.1423 24.9859 65.4063 25.0822 64.7742 25.444C64.1422 25.8058 63.6895 26.3884 63.5017 27.0838L59.0086 43.6847H45.1185C45.3985 43.2581 45.5829 42.7934 45.6684 42.322C46.0255 40.3369 44.691 37.8589 40.9137 37.112L34.7558 35.8921C32.8663 35.5187 30.484 32.2639 28.9063 30.1095C28.4973 29.5519 28.11 29.0224 27.7613 28.5793C26.9498 27.0622 25.3621 26.088 23.6856 26.088H19.5496C17.0113 26.088 14.9441 28.1328 14.9441 30.6473V55.5867C14.9441 58.9477 17.7071 61.683 21.102 61.683H33.656V73.5585C33.656 77.4788 36.7626 79.5934 39.6848 79.5934C41.1903 79.5934 42.5768 79.0423 43.5895 78.0432C44.7211 76.9261 45.3197 75.3178 45.3197 73.3959V58.0083C45.3197 53.8523 42.0756 50.3734 38.0887 50.2523C38.0787 50.2523 38.0686 50.2523 38.0586 50.2523H28.291V43.1535C30.1822 44.3768 33.5906 44.8697 37.4718 45.3245C38.072 45.3942 38.6101 45.4573 39.0662 45.5203C38.9723 45.7925 38.9203 46.083 38.9203 46.3851C38.9203 46.6307 38.9572 46.868 39.0192 47.0954H31.4999C30.945 47.0954 30.494 47.5419 30.494 48.0913C30.494 48.6407 30.945 49.0871 31.4999 49.0871H49.2411V79.0042C49.2411 79.5535 49.6921 80 50.247 80C50.8019 80 51.2529 79.5535 51.2529 79.0042V49.0871H68.9941C69.549 49.0871 70 48.6407 70 48.0913C70 47.5419 69.549 47.0954 68.9941 47.0954ZM28.9265 41.0938L24.4333 35.6581C24.0813 35.2332 23.4475 35.1701 23.0183 35.5187C22.5891 35.8672 22.5254 36.4946 22.8775 36.9195L26.2792 41.034V51.2465C26.2792 51.7959 26.7302 52.2423 27.2851 52.2423H38.0435C40.9489 52.3386 43.3095 54.9228 43.3095 58.0066V73.3909C43.3095 74.7734 42.9155 75.8921 42.1711 76.6274C41.5391 77.2514 40.6572 77.595 39.6882 77.595C37.74 77.595 35.6712 76.1776 35.6712 73.5519V60.6805C35.6712 60.1311 35.2202 59.6847 34.6653 59.6847H21.1054C18.8186 59.6847 16.9593 57.8423 16.9593 55.5801V30.644C16.9593 29.2282 18.1228 28.0763 19.5529 28.0763H23.6889C24.6312 28.0763 25.565 28.6739 26.016 29.5618C26.0462 29.6216 26.083 29.678 26.1233 29.7311C26.4636 30.1593 26.861 30.7021 27.2801 31.2764C29.25 33.9668 31.7028 37.3162 34.3635 37.8423L40.5231 39.0622C42.9725 39.5469 43.8829 40.9095 43.6917 41.9701C43.5023 43.0241 42.1979 43.9867 39.7888 43.6116C39.2221 43.5237 38.5213 43.4423 37.7098 43.3461C35.0291 43.0324 30.0464 42.4481 28.9265 41.0938ZM40.9305 46.3834C40.9305 45.9917 41.2524 45.673 41.648 45.673H59.7798C60.2358 45.673 60.6332 45.371 60.7522 44.9344L65.4448 27.5967C65.4935 27.4158 65.6125 27.2631 65.7801 27.1668C65.9478 27.0705 66.1406 27.0456 66.3233 27.0938C66.5061 27.1419 66.6603 27.2598 66.7576 27.4257C66.8548 27.5917 66.88 27.7826 66.8313 27.9635L61.6542 47.0938H50.247H41.648C41.2524 47.0954 40.9305 46.7751 40.9305 46.3834ZM35.2604 15.9203V18.0448C35.2604 18.6042 35.5974 19.1054 36.1205 19.3212C36.2948 19.3925 36.4793 19.429 36.6603 19.429C37.0191 19.429 37.3729 19.2913 37.6394 19.0324L40.8467 15.922H43.6783V20.0133C43.6783 22 45.3163 23.6149 47.3315 23.6149H55.7109L58.9181 26.7253C59.1846 26.9842 59.5384 27.122 59.8972 27.122C60.0782 27.122 60.261 27.0871 60.437 27.0158C60.9601 26.8 61.2971 26.2988 61.2971 25.7394V23.6149C63.2687 23.5668 64.8564 21.9701 64.8564 20.0133V11.2963C64.8564 9.30954 63.2184 7.69461 61.2032 7.69461H52.8775V3.60166C52.8775 1.61494 51.2395 0 49.2243 0H35.351C33.3374 0 31.6978 1.6166 31.6978 3.60166V12.3203C31.7011 14.2755 33.2888 15.8722 35.2604 15.9203ZM52.8809 12.3203V9.68465H61.2065C62.1119 9.68465 62.8479 10.4066 62.8479 11.2946V20.0116C62.8479 20.8996 62.1119 21.6216 61.2065 21.6216H60.2945C59.7396 21.6216 59.2886 22.0681 59.2886 22.6174V24.2921L56.8274 21.9087C56.6397 21.7261 56.3865 21.6249 56.1233 21.6249H47.3332C46.4279 21.6249 45.6919 20.9029 45.6919 20.0149V15.9237H49.2277C51.2412 15.922 52.8809 14.3071 52.8809 12.3203ZM33.713 3.60166C33.713 2.71369 34.449 1.9917 35.3543 1.9917H49.2277C50.133 1.9917 50.869 2.71369 50.869 3.60166V12.3203C50.869 13.2083 50.133 13.9303 49.2277 13.9303H40.4376C40.1744 13.9303 39.9212 14.0332 39.7334 14.2141L37.2723 16.6008V14.9261C37.2723 14.3768 36.8213 13.9303 36.2663 13.9303H35.3543C34.449 13.9303 33.713 13.2083 33.713 12.3203V3.60166ZM35.978 5.73112C35.978 5.18174 36.429 4.73527 36.9839 4.73527H47.0918C47.6467 4.73527 48.0977 5.18174 48.0977 5.73112C48.0977 6.2805 47.6467 6.72697 47.0918 6.72697H36.9839C36.4273 6.72697 35.978 6.2805 35.978 5.73112ZM35.978 9.71452C35.978 9.16514 36.429 8.71867 36.9839 8.71867H46.0557C46.6106 8.71867 47.0616 9.16514 47.0616 9.71452C47.0616 10.2639 46.6106 10.7104 46.0557 10.7104H36.9839C36.4273 10.7104 35.978 10.2656 35.978 9.71452Z" fill="white"/>
<defs>
<linearGradient id="paint0_linear_68_1748" x1="10" y1="40" x2="70" y2="40" gradientUnits="userSpaceOnUse">
<stop stop-color="#4889D8"/>
<stop offset="1" stop-color="#63B1C2"/>
</linearGradient>
</defs>
</svg>
