<svg width="80" height="80" viewBox="0 0 80 80" fill="none" xmlns="http://www.w3.org/2000/svg">
<path d="M52.495 3.75C39.4 3.75 28.745 10.7775 28.745 19.4125C28.745 19.435 28.75 28.815 28.75 28.815C28.3325 28.7925 27.9225 28.75 27.5 28.75C14.405 28.75 3.75 39.405 3.75 52.5C3.75 65.595 14.405 76.25 27.5 76.25C31.6 76.25 35.4575 75.205 38.8275 73.37C42.785 75.24 47.4875 76.25 52.5 76.25C65.595 76.25 76.25 69.23 76.25 60.6C76.25 60.6 76.24 19.3675 76.24 19.3525C76.1925 10.745 65.56 3.75 52.495 3.75ZM73.75 27.65C73.75 34.9 64.2175 40.8 52.5 40.8C50.965 40.8 49.435 40.6775 47.9375 40.4625C46.2525 37.6125 43.9975 35.1475 41.32 33.2225C44.6525 34.4 48.4575 35.0725 52.495 35.0725C61.805 35.0725 69.8575 31.5125 73.75 26.355V27.65ZM52.495 6.25C64.2125 6.25 73.745 12.155 73.745 19.4125C73.745 26.67 64.2125 32.575 52.495 32.575C40.81 32.575 31.3025 26.7025 31.25 19.4725V19.4C31.25 19.395 31.2475 19.39 31.2475 19.3875C31.27 12.14 40.7925 6.25 52.495 6.25ZM31.25 26.37C32.255 27.7 33.535 28.9175 35.0475 30C33.8225 29.5875 32.555 29.285 31.25 29.075V26.37ZM6.25 52.5C6.25 40.7825 15.7825 31.25 27.5 31.25C39.2175 31.25 48.75 40.7825 48.75 52.5C48.75 64.2175 39.2175 73.75 27.5 73.75C15.7825 73.75 6.25 64.2175 6.25 52.5ZM73.75 60.6C73.75 67.85 64.2175 73.75 52.5 73.75C48.4675 73.75 44.685 73.0325 41.38 71.7325C43.0925 70.4925 44.64 69.045 45.9675 67.4025C48.0775 67.8 50.265 68.025 52.5 68.025C61.8075 68.025 69.8575 64.465 73.75 59.3075V60.6ZM73.75 52.35C73.75 59.615 64.2175 65.525 52.5 65.525C50.8225 65.525 49.185 65.3625 47.5825 65.1225C48.6475 63.435 49.52 61.6175 50.135 59.68C50.8875 59.7375 51.66 59.775 52.5 59.775C61.8075 59.775 69.8575 56.22 73.75 51.0725V52.35ZM73.75 44.125C73.75 51.375 64.2175 57.275 52.5 57.275C51.895 57.275 51.325 57.255 50.775 57.2225C51.085 55.695 51.25 54.115 51.25 52.4975C51.25 52.16 51.2125 51.835 51.2 51.5C51.6325 51.515 52.055 51.5475 52.5 51.5475C61.8075 51.5475 69.8575 47.9875 73.75 42.83V44.125ZM73.75 35.875C73.75 43.14 64.2175 49.05 52.5 49.05C51.9725 49.05 51.47 49.0175 50.9625 48.995C50.6575 46.95 50.115 44.9825 49.3225 43.14C50.375 43.235 51.4375 43.3 52.5 43.3C61.8075 43.3 69.8575 39.745 73.75 34.5975V35.875Z" fill="url(#paint0_linear_68_1783)"/>
<path d="M52.495 3.75C39.4 3.75 28.745 10.7775 28.745 19.4125C28.745 19.435 28.75 28.815 28.75 28.815C28.3325 28.7925 27.9225 28.75 27.5 28.75C14.405 28.75 3.75 39.405 3.75 52.5C3.75 65.595 14.405 76.25 27.5 76.25C31.6 76.25 35.4575 75.205 38.8275 73.37C42.785 75.24 47.4875 76.25 52.5 76.25C65.595 76.25 76.25 69.23 76.25 60.6C76.25 60.6 76.24 19.3675 76.24 19.3525C76.1925 10.745 65.56 3.75 52.495 3.75ZM73.75 27.65C73.75 34.9 64.2175 40.8 52.5 40.8C50.965 40.8 49.435 40.6775 47.9375 40.4625C46.2525 37.6125 43.9975 35.1475 41.32 33.2225C44.6525 34.4 48.4575 35.0725 52.495 35.0725C61.805 35.0725 69.8575 31.5125 73.75 26.355V27.65ZM52.495 6.25C64.2125 6.25 73.745 12.155 73.745 19.4125C73.745 26.67 64.2125 32.575 52.495 32.575C40.81 32.575 31.3025 26.7025 31.25 19.4725V19.4C31.25 19.395 31.2475 19.39 31.2475 19.3875C31.27 12.14 40.7925 6.25 52.495 6.25ZM31.25 26.37C32.255 27.7 33.535 28.9175 35.0475 30C33.8225 29.5875 32.555 29.285 31.25 29.075V26.37ZM6.25 52.5C6.25 40.7825 15.7825 31.25 27.5 31.25C39.2175 31.25 48.75 40.7825 48.75 52.5C48.75 64.2175 39.2175 73.75 27.5 73.75C15.7825 73.75 6.25 64.2175 6.25 52.5ZM73.75 60.6C73.75 67.85 64.2175 73.75 52.5 73.75C48.4675 73.75 44.685 73.0325 41.38 71.7325C43.0925 70.4925 44.64 69.045 45.9675 67.4025C48.0775 67.8 50.265 68.025 52.5 68.025C61.8075 68.025 69.8575 64.465 73.75 59.3075V60.6ZM73.75 52.35C73.75 59.615 64.2175 65.525 52.5 65.525C50.8225 65.525 49.185 65.3625 47.5825 65.1225C48.6475 63.435 49.52 61.6175 50.135 59.68C50.8875 59.7375 51.66 59.775 52.5 59.775C61.8075 59.775 69.8575 56.22 73.75 51.0725V52.35ZM73.75 44.125C73.75 51.375 64.2175 57.275 52.5 57.275C51.895 57.275 51.325 57.255 50.775 57.2225C51.085 55.695 51.25 54.115 51.25 52.4975C51.25 52.16 51.2125 51.835 51.2 51.5C51.6325 51.515 52.055 51.5475 52.5 51.5475C61.8075 51.5475 69.8575 47.9875 73.75 42.83V44.125ZM73.75 35.875C73.75 43.14 64.2175 49.05 52.5 49.05C51.9725 49.05 51.47 49.0175 50.9625 48.995C50.6575 46.95 50.115 44.9825 49.3225 43.14C50.375 43.235 51.4375 43.3 52.5 43.3C61.8075 43.3 69.8575 39.745 73.75 34.5975V35.875Z" fill="white"/>
<path d="M52.495 29.4126C61.9575 29.4126 69.37 25.0201 69.37 19.4126C69.37 13.8051 61.9575 9.4126 52.495 9.4126C43.0325 9.4126 35.62 13.8051 35.62 19.4126C35.62 25.0201 43.0325 29.4126 52.495 29.4126ZM52.495 11.9126C60.2875 11.9126 66.87 15.3476 66.87 19.4126C66.87 23.4776 60.2875 26.9126 52.495 26.9126C44.7025 26.9126 38.12 23.4776 38.12 19.4126C38.12 15.3476 44.7025 11.9126 52.495 11.9126Z" fill="url(#paint1_linear_68_1783)"/>
<path d="M52.495 29.4126C61.9575 29.4126 69.37 25.0201 69.37 19.4126C69.37 13.8051 61.9575 9.4126 52.495 9.4126C43.0325 9.4126 35.62 13.8051 35.62 19.4126C35.62 25.0201 43.0325 29.4126 52.495 29.4126ZM52.495 11.9126C60.2875 11.9126 66.87 15.3476 66.87 19.4126C66.87 23.4776 60.2875 26.9126 52.495 26.9126C44.7025 26.9126 38.12 23.4776 38.12 19.4126C38.12 15.3476 44.7025 11.9126 52.495 11.9126Z" fill="white"/>
<path d="M32.5975 54.3124C33.2875 54.3124 33.8475 53.7524 33.8475 53.0624C33.8475 52.3724 33.2875 51.8124 32.5975 51.8124H28.75V51.6224L33.6525 43.8874C34.0225 43.3049 33.85 42.5324 33.2675 42.1624C32.69 41.7974 31.9125 41.9649 31.545 42.5499L27.5 48.9274L23.455 42.5499C23.085 41.9649 22.31 41.7949 21.7325 42.1624C21.15 42.5324 20.975 43.3049 21.3475 43.8874L26.2525 51.6224V51.8124H22.4C21.71 51.8124 21.15 52.3724 21.15 53.0624C21.15 53.7524 21.71 54.3124 22.4 54.3124H26.25V55.2049H22.4C21.71 55.2049 21.15 55.7649 21.15 56.4549C21.15 57.1449 21.71 57.7049 22.4 57.7049H26.25V61.7799C26.25 62.4699 26.81 63.0299 27.5 63.0299C28.19 63.0299 28.75 62.4699 28.75 61.7799V57.7049H32.5975C33.2875 57.7049 33.8475 57.1449 33.8475 56.4549C33.8475 55.7649 33.2875 55.2049 32.5975 55.2049H28.75V54.3124H32.5975Z" fill="url(#paint2_linear_68_1783)"/>
<path d="M32.5975 54.3124C33.2875 54.3124 33.8475 53.7524 33.8475 53.0624C33.8475 52.3724 33.2875 51.8124 32.5975 51.8124H28.75V51.6224L33.6525 43.8874C34.0225 43.3049 33.85 42.5324 33.2675 42.1624C32.69 41.7974 31.9125 41.9649 31.545 42.5499L27.5 48.9274L23.455 42.5499C23.085 41.9649 22.31 41.7949 21.7325 42.1624C21.15 42.5324 20.975 43.3049 21.3475 43.8874L26.2525 51.6224V51.8124H22.4C21.71 51.8124 21.15 52.3724 21.15 53.0624C21.15 53.7524 21.71 54.3124 22.4 54.3124H26.25V55.2049H22.4C21.71 55.2049 21.15 55.7649 21.15 56.4549C21.15 57.1449 21.71 57.7049 22.4 57.7049H26.25V61.7799C26.25 62.4699 26.81 63.0299 27.5 63.0299C28.19 63.0299 28.75 62.4699 28.75 61.7799V57.7049H32.5975C33.2875 57.7049 33.8475 57.1449 33.8475 56.4549C33.8475 55.7649 33.2875 55.2049 32.5975 55.2049H28.75V54.3124H32.5975Z" fill="white"/>
<path d="M27.5 34.6299C17.6475 34.6299 9.63 42.6474 9.63 52.4999C9.63 62.3524 17.6475 70.3699 27.5 70.3699C37.3525 70.3699 45.3675 62.3524 45.3675 52.4999C45.3675 42.6474 37.355 34.6299 27.5 34.6299ZM27.5 67.8699C19.0225 67.8699 12.13 60.9749 12.13 52.4999C12.13 44.0249 19.025 37.1299 27.5 37.1299C35.975 37.1299 42.8675 44.0249 42.8675 52.4999C42.8675 60.9749 35.975 67.8699 27.5 67.8699Z" fill="url(#paint3_linear_68_1783)"/>
<path d="M27.5 34.6299C17.6475 34.6299 9.63 42.6474 9.63 52.4999C9.63 62.3524 17.6475 70.3699 27.5 70.3699C37.3525 70.3699 45.3675 62.3524 45.3675 52.4999C45.3675 42.6474 37.355 34.6299 27.5 34.6299ZM27.5 67.8699C19.0225 67.8699 12.13 60.9749 12.13 52.4999C12.13 44.0249 19.025 37.1299 27.5 37.1299C35.975 37.1299 42.8675 44.0249 42.8675 52.4999C42.8675 60.9749 35.975 67.8699 27.5 67.8699Z" fill="white"/>
<defs>
<linearGradient id="paint0_linear_68_1783" x1="3.75" y1="40" x2="76.25" y2="40" gradientUnits="userSpaceOnUse">
<stop stop-color="#4889D8"/>
<stop offset="1" stop-color="#63B1C2"/>
</linearGradient>
<linearGradient id="paint1_linear_68_1783" x1="35.62" y1="19.4126" x2="69.37" y2="19.4126" gradientUnits="userSpaceOnUse">
<stop stop-color="#4889D8"/>
<stop offset="1" stop-color="#63B1C2"/>
</linearGradient>
<linearGradient id="paint2_linear_68_1783" x1="21.15" y1="52.4993" x2="33.8475" y2="52.4993" gradientUnits="userSpaceOnUse">
<stop stop-color="#4889D8"/>
<stop offset="1" stop-color="#63B1C2"/>
</linearGradient>
<linearGradient id="paint3_linear_68_1783" x1="9.63001" y1="52.4999" x2="45.3675" y2="52.4999" gradientUnits="userSpaceOnUse">
<stop stop-color="#4889D8"/>
<stop offset="1" stop-color="#63B1C2"/>
</linearGradient>
</defs>
</svg>
