<svg width="120" height="120" viewBox="0 0 120 120" fill="none" xmlns="http://www.w3.org/2000/svg">
<circle cx="60" cy="60" r="60" fill="white"/>
<path d="M51.3197 42.5593C53.4238 42.5593 55.1364 40.8647 55.1364 38.7809C55.1364 36.6971 53.4246 35.0025 51.3197 35.0025C49.2148 35.0025 47.5031 36.6971 47.5031 38.7809C47.5031 40.8647 49.2157 42.5593 51.3197 42.5593ZM51.3197 35.9992C52.8697 35.9992 54.1304 37.2473 54.1304 38.7817C54.1304 40.3162 52.8697 41.5643 51.3197 41.5643C49.7698 41.5643 48.509 40.3162 48.509 38.7817C48.509 37.2473 49.7698 35.9992 51.3197 35.9992ZM55.8011 61.9809H50.0028C47.799 61.9809 46.0059 60.2058 46.0059 58.0241V52.283C46.0059 52.0083 45.7804 51.7851 45.503 51.7851C45.2255 51.7851 45 52.0083 45 52.283V58.0241C45 59.7378 45.8835 61.2498 47.2231 62.1394L46.2398 69.1992C46.2021 69.4714 46.394 69.7228 46.669 69.7602C46.6925 69.7635 46.7151 69.7651 46.7386 69.7651C46.9859 69.7651 47.2013 69.5842 47.2365 69.3353L47.6607 66.2888H55.3015L55.3049 69.5029C55.3049 69.7776 55.5303 70 55.8078 70H55.8087C56.0861 70 56.3116 69.7768 56.3108 69.5012L56.3032 62.478C56.3032 62.2033 56.0786 61.9809 55.8011 61.9809ZM47.7998 65.2929L48.1703 62.6315C48.7378 62.8539 49.3557 62.9768 50.0028 62.9768H55.2981L55.3007 65.2929H47.7998ZM74.497 53.5477H71.8682L74.3872 44.2407C74.5817 43.5212 74.1492 42.7784 73.4224 42.5859C73.0711 42.4929 72.7031 42.5411 72.3871 42.722C72.0711 42.9029 71.8448 43.1942 71.7509 43.5419L69.5043 51.8423H62.5592C62.6992 51.629 62.7914 51.3967 62.8342 51.161C63.0127 50.1685 62.3455 48.9295 60.4569 48.556L57.3779 47.9461C56.4332 47.7593 55.242 46.132 54.4532 45.0548C54.2486 44.7759 54.055 44.5112 53.8806 44.2896C53.4749 43.5311 52.6811 43.044 51.8428 43.044H49.7748C48.5056 43.044 47.4721 44.0664 47.4721 45.3237V57.7934C47.4721 59.4739 48.8535 60.8415 50.551 60.8415H56.828V66.7793C56.828 68.7394 58.3813 69.7967 59.8424 69.7967C60.5952 69.7967 61.2884 69.5212 61.7947 69.0216C62.3606 68.4631 62.6598 67.6589 62.6598 66.6979V59.0042C62.6598 56.9261 61.0378 55.1867 59.0444 55.1261C59.0393 55.1261 59.0343 55.1261 59.0293 55.1261H54.1455V51.5768C55.0911 52.1884 56.7953 52.4349 58.7359 52.6622C59.036 52.6971 59.3051 52.7286 59.5331 52.7602C59.4861 52.8963 59.4602 53.0415 59.4602 53.1925C59.4602 53.3154 59.4786 53.434 59.5096 53.5477H55.75C55.4725 53.5477 55.247 53.771 55.247 54.0456C55.247 54.3203 55.4725 54.5436 55.75 54.5436H64.6205V69.5021C64.6205 69.7768 64.846 70 65.1235 70C65.401 70 65.6265 69.7768 65.6265 69.5021V54.5436H74.497C74.7745 54.5436 75 54.3203 75 54.0456C75 53.771 74.7745 53.5477 74.497 53.5477ZM54.4632 50.5469L52.2167 47.829C52.0406 47.6166 51.7238 47.5851 51.5092 47.7593C51.2946 47.9336 51.2627 48.2473 51.4388 48.4598L53.1396 50.517V55.6232C53.1396 55.8979 53.3651 56.1212 53.6426 56.1212H59.0217C60.4745 56.1693 61.6547 57.4614 61.6547 59.0033V66.6954C61.6547 67.3867 61.4578 67.9461 61.0856 68.3137C60.7695 68.6257 60.3286 68.7975 59.8441 68.7975C58.87 68.7975 57.8356 68.0888 57.8356 66.7759V60.3403C57.8356 60.0656 57.6101 59.8423 57.3326 59.8423H50.5527C49.4093 59.8423 48.4797 58.9212 48.4797 57.79V45.322C48.4797 44.6141 49.0614 44.0382 49.7765 44.0382H51.8445C52.3156 44.0382 52.7825 44.3369 53.008 44.7809C53.0231 44.8108 53.0415 44.839 53.0616 44.8656C53.2318 45.0797 53.4305 45.351 53.64 45.6382C54.625 46.9834 55.8514 48.6581 57.1817 48.9212L60.2615 49.5311C61.4863 49.7734 61.9414 50.4548 61.8459 50.9851C61.7511 51.512 61.099 51.9934 59.8944 51.8058C59.611 51.7618 59.2606 51.7212 58.8549 51.673C57.5145 51.5162 55.0232 51.2241 54.4632 50.5469ZM60.4652 53.1917C60.4652 52.9959 60.6262 52.8365 60.824 52.8365H69.8899C70.1179 52.8365 70.3166 52.6855 70.3761 52.4672L72.7224 43.7983C72.7467 43.7079 72.8062 43.6315 72.8901 43.5834C72.9739 43.5353 73.0703 43.5228 73.1617 43.5469C73.253 43.571 73.3302 43.6299 73.3788 43.7129C73.4274 43.7959 73.44 43.8913 73.4157 43.9817L70.8271 53.5469H65.1235H60.824C60.6262 53.5477 60.4652 53.3876 60.4652 53.1917ZM57.6302 37.9602V39.0224C57.6302 39.3021 57.7987 39.5527 58.0602 39.6606C58.1474 39.6963 58.2396 39.7145 58.3302 39.7145C58.5096 39.7145 58.6864 39.6456 58.8197 39.5162L60.4233 37.961H61.8392V40.0066C61.8392 41 62.6582 41.8075 63.6658 41.8075H67.8554L69.459 43.3627C69.5923 43.4921 69.7692 43.561 69.9486 43.561C70.0391 43.561 70.1305 43.5436 70.2185 43.5079C70.48 43.4 70.6485 43.1494 70.6485 42.8697V41.8075C71.6343 41.7834 72.4282 40.9851 72.4282 40.0066V35.6481C72.4282 34.6548 71.6092 33.8473 70.6016 33.8473H66.4388V31.8008C66.4388 30.8075 65.6198 30 64.6122 30H57.6755C56.6687 30 55.8489 30.8083 55.8489 31.8008V36.1602C55.8506 37.1378 56.6444 37.9361 57.6302 37.9602ZM66.4404 36.1602V34.8423H70.6033C71.0559 34.8423 71.4239 35.2033 71.4239 35.6473V40.0058C71.4239 40.4498 71.0559 40.8108 70.6033 40.8108H70.1473C69.8698 40.8108 69.6443 41.034 69.6443 41.3087V42.1461L68.4137 40.9544C68.3198 40.8631 68.1933 40.8124 68.0616 40.8124H63.6666C63.2139 40.8124 62.8459 40.4515 62.8459 40.0075V37.9618H64.6138C65.6206 37.961 66.4404 37.1535 66.4404 36.1602ZM56.8565 31.8008C56.8565 31.3568 57.2245 30.9959 57.6772 30.9959H64.6138C65.0665 30.9959 65.4345 31.3568 65.4345 31.8008V36.1602C65.4345 36.6041 65.0665 36.9651 64.6138 36.9651H60.2188C60.0872 36.9651 59.9606 37.0166 59.8667 37.1071L58.6361 38.3004V37.4631C58.6361 37.1884 58.4106 36.9651 58.1332 36.9651H57.6772C57.2245 36.9651 56.8565 36.6041 56.8565 36.1602V31.8008ZM57.989 32.8656C57.989 32.5909 58.2145 32.3676 58.492 32.3676H63.5459C63.8233 32.3676 64.0488 32.5909 64.0488 32.8656C64.0488 33.1402 63.8233 33.3635 63.5459 33.3635H58.492C58.2136 33.3635 57.989 33.1402 57.989 32.8656ZM57.989 34.8573C57.989 34.5826 58.2145 34.3593 58.492 34.3593H63.0278C63.3053 34.3593 63.5308 34.5826 63.5308 34.8573C63.5308 35.132 63.3053 35.3552 63.0278 35.3552H58.492C58.2136 35.3552 57.989 35.1328 57.989 34.8573Z" fill="url(#paint0_linear_107_3)"/>
<path d="M27.54 87.344V84.344H26.46V87.344H27.54ZM28.908 80.696H27.156C26.988 81.5 26.772 82.316 26.508 83.084H28.752V88.604H26.46V89.48H25.272V85.76C25.116 85.988 24.96 86.204 24.792 86.408C24.744 86.024 24.492 85.112 24.3 84.704C25.032 83.72 25.524 82.268 25.824 80.696H24.552V79.4H28.908V80.696ZM31.644 83.72H32.988V80.756H31.644V83.72ZM35.604 83.72V85.064H34.344V90.056H32.988V85.064H31.62C31.548 86.828 31.2 88.832 29.964 90.14C29.724 89.888 29.208 89.492 28.884 89.312C29.916 88.196 30.216 86.528 30.288 85.064H29.172V83.72H30.312V80.756H29.484V79.436H35.364V80.756H34.344V83.72H35.604ZM38.532 78.872L39.84 79.268C39.588 80.012 39.288 80.792 38.952 81.536V90.032H37.596V84.032C37.356 84.392 37.104 84.74 36.84 85.04C36.72 84.704 36.384 83.876 36.156 83.504C37.116 82.376 38.004 80.624 38.532 78.872ZM40.86 82.184V83.852C41.712 83.636 42.48 83.348 43.152 82.964C42.816 82.664 42.516 82.352 42.264 82.04C42.048 82.304 41.808 82.544 41.568 82.76C41.412 82.604 41.124 82.376 40.86 82.184ZM45.072 81.188H42.96C43.26 81.572 43.644 81.956 44.112 82.292C44.496 81.968 44.808 81.608 45.072 81.188ZM47.46 81.188H46.56C46.212 81.872 45.756 82.448 45.228 82.952C45.972 83.312 46.848 83.6 47.844 83.756C47.592 84.02 47.244 84.56 47.076 84.896C45.972 84.656 45.012 84.248 44.22 83.756C43.416 84.284 42.492 84.692 41.484 84.992C41.376 84.776 41.1 84.404 40.86 84.128V88.04H39.624V80.36H40.86V81.632C41.64 80.9 42.288 79.88 42.66 78.836L43.944 79.136C43.836 79.436 43.704 79.748 43.56 80.036H47.46V81.188ZM45.456 85.436L46.476 85.856C45.528 86.888 43.932 87.608 42.3 88.028C42.144 87.764 41.856 87.368 41.604 87.14C43.104 86.828 44.664 86.228 45.456 85.436ZM44.28 84.344L45.324 84.776C44.58 85.532 43.392 86.096 42.276 86.456C42.108 86.192 41.796 85.856 41.52 85.64C42.54 85.376 43.692 84.884 44.28 84.344ZM46.32 86.792L47.544 87.284C46.296 88.748 44.172 89.552 41.724 89.996C41.568 89.648 41.28 89.18 41.004 88.868C43.212 88.568 45.288 87.92 46.32 86.792ZM50.688 78.848L51.948 79.34C51.192 80.372 50.076 81.536 49.08 82.268C48.9 81.98 48.552 81.476 48.336 81.224C49.188 80.624 50.184 79.628 50.688 78.848ZM50.904 81.404L52.152 81.872C51.888 82.352 51.576 82.844 51.24 83.324V90.068H49.908V84.932C49.596 85.268 49.284 85.556 48.972 85.82C48.84 85.508 48.456 84.788 48.228 84.488C49.224 83.732 50.28 82.568 50.904 81.404ZM54.408 86.108L54.396 86.12C54.708 86.552 55.116 86.936 55.584 87.284C56.04 86.936 56.424 86.552 56.736 86.108H54.408ZM57.708 84.992L58.596 85.388C58.188 86.444 57.552 87.296 56.772 87.98C57.636 88.388 58.644 88.688 59.76 88.856C59.46 89.156 59.088 89.708 58.908 90.08C57.636 89.828 56.532 89.408 55.596 88.82C54.6 89.408 53.436 89.828 52.2 90.104C52.068 89.744 51.768 89.18 51.516 88.892C52.584 88.712 53.592 88.4 54.468 87.956C54.12 87.644 53.796 87.296 53.52 86.912C53.16 87.188 52.8 87.44 52.44 87.656C52.248 87.38 51.792 86.852 51.516 86.6C52.536 86.084 53.52 85.292 54.192 84.38L51.792 84.452L51.672 83.192C52.212 83.192 52.836 83.192 53.52 83.18C53.688 83.036 53.868 82.88 54.036 82.724C53.484 82.16 52.644 81.488 51.924 81.02L52.776 80.096C52.98 80.228 53.208 80.372 53.436 80.528C53.904 79.988 54.408 79.328 54.72 78.8L55.956 79.436C55.44 80.048 54.852 80.696 54.348 81.2C54.6 81.404 54.84 81.608 55.032 81.8C55.764 81.092 56.448 80.336 56.964 79.676L58.224 80.372C57.36 81.284 56.292 82.304 55.284 83.156L57.432 83.12C57.24 82.844 57.036 82.592 56.832 82.352L57.936 81.74C58.632 82.52 59.424 83.6 59.76 84.368L58.56 85.04C58.464 84.812 58.332 84.536 58.164 84.248C57.372 84.284 56.556 84.308 55.776 84.332C55.632 84.572 55.476 84.812 55.308 85.04H57.48L57.708 84.992ZM63.564 81.488V80.528H63.072V81.488H63.564ZM64.632 84.8V82.676H64.104V84.62C64.104 84.776 64.116 84.788 64.2 84.788H64.416C64.524 84.788 64.548 84.788 64.572 84.752C64.584 84.764 64.608 84.788 64.632 84.8ZM61.848 88.112H64.632V87.296H61.848V88.112ZM62.376 82.676H61.848V85.328C62.316 84.812 62.376 84.152 62.376 83.612V82.676ZM64.524 85.484H64.116C63.6 85.484 63.444 85.328 63.444 84.62V82.676H63.036V83.624C63.036 84.296 62.904 85.184 62.352 85.808C62.244 85.688 62.004 85.46 61.848 85.364V86.312H64.632V85.484H64.524ZM60.528 80.528L60.54 79.268H65.988V80.528H64.512V81.488H65.772V89.816H64.632V89.216H61.848V89.972H60.756V81.488H62.148V80.528H60.528ZM68.436 88.544H69.78C70.236 88.544 70.308 88.256 70.38 86.672C70.692 86.9 71.292 87.152 71.664 87.236C71.52 89.264 71.136 89.876 69.9 89.876H68.232C66.9 89.876 66.48 89.468 66.48 87.992V83.012H69.828V80.756H66.432V79.376H71.208V85.112H69.828V84.368H67.896V87.98C67.896 88.484 67.968 88.544 68.436 88.544ZM81.36 80.408H74.964V81.068H81.36V80.408ZM82.8 82.16H74.964V82.844C74.964 84.932 74.784 88.028 73.572 89.984C73.308 89.78 72.684 89.408 72.324 89.276C73.476 87.44 73.56 84.752 73.56 82.844V79.316H82.8V82.16ZM81.444 89.084H81.504C81.624 89.084 81.66 89.06 81.66 88.94V87.452H79.62V88.1L80.184 88.088C80.136 87.956 80.088 87.836 80.04 87.728L80.856 87.524C81.108 88.016 81.348 88.652 81.444 89.084ZM76.896 85.28H78.336V84.716H76.896V85.28ZM81.084 84.716H79.62V85.28H81.084V84.716ZM82.968 86.528V88.94C82.968 89.48 82.884 89.72 82.524 89.876C82.188 90.032 81.696 90.032 81.048 90.032C81.012 89.816 80.928 89.576 80.832 89.372L80.628 89.432C80.604 89.3 80.556 89.144 80.508 88.976C79.164 89.06 77.832 89.132 76.8 89.192L76.716 88.208L78.336 88.148V87.452H76.452V90.044H75.156V86.528H78.336V86.072H75.636V83.936H78.336V83.504C77.448 83.564 76.548 83.588 75.72 83.588C75.684 83.336 75.564 82.952 75.444 82.724C77.604 82.688 80.184 82.544 81.588 82.232L82.392 83.036C81.6 83.204 80.64 83.324 79.62 83.42V83.936H82.416V86.072H79.62V86.528H82.968ZM87.72 84.74L88.356 84.716C88.584 84.5 88.812 84.272 89.04 84.044C88.608 83.672 88.032 83.252 87.528 82.916L86.652 83.66C86.28 83.276 85.488 82.7 84.852 82.34L85.8 81.56C86.352 81.86 87.084 82.328 87.528 82.7L88.08 82.04L88.368 82.208C88.56 81.92 88.764 81.584 88.932 81.284H85.008V80.012H89.232V78.848H90.696V80.012H95.028V81.284H90.06L90.324 81.38C89.952 81.86 89.556 82.352 89.208 82.76C89.424 82.916 89.628 83.06 89.808 83.204C90.216 82.712 90.6 82.232 90.9 81.8L92.016 82.316C91.356 83.096 90.552 83.936 89.784 84.656L91.02 84.596C90.888 84.368 90.732 84.152 90.588 83.948L91.596 83.528C91.788 83.78 92.004 84.068 92.196 84.356L92.928 83.768C93.756 84.176 94.872 84.836 95.436 85.304L94.404 86.156C93.996 85.796 93.228 85.268 92.496 84.848C92.676 85.16 92.82 85.46 92.904 85.712L91.824 86.192C91.764 86.012 91.68 85.808 91.572 85.592C90.12 85.724 88.656 85.832 87.504 85.916L87.36 85.088C86.604 85.46 85.812 85.832 85.164 86.12L84.492 84.968C85.248 84.728 86.4 84.284 87.504 83.852L87.72 84.74ZM93.264 83.528L92.22 82.964C92.76 82.556 93.432 81.932 93.84 81.44L95.112 82.052C94.5 82.616 93.804 83.156 93.264 83.528ZM90.696 85.82V86.588H95.4V87.908H90.696V90.044H89.232V87.908H84.624V86.588H89.232V85.82H90.696Z" fill="#005694"/>
<defs>
<linearGradient id="paint0_linear_107_3" x1="45" y1="50" x2="75" y2="50" gradientUnits="userSpaceOnUse">
<stop stop-color="#4889D8"/>
<stop offset="1" stop-color="#63B1C2"/>
</linearGradient>
</defs>
</svg>
