<svg width="80" height="80" viewBox="0 0 80 80" fill="none" xmlns="http://www.w3.org/2000/svg">
<path d="M11.25 77.5H43.75C44.0815 77.5 44.3995 77.3683 44.6339 77.1339C44.8683 76.8995 45 76.5815 45 76.25V70.9375C44.9989 70.1857 44.7517 69.4549 44.2962 68.8568C43.8407 68.2586 43.2019 67.826 42.4775 67.625C42.3039 62.8803 41.0625 58.2358 38.8456 54.0372L31.9563 41.0234C31.7891 40.7082 31.7017 40.3568 31.7017 40C31.7017 39.6432 31.7891 39.2918 31.9563 38.9766L38.8456 25.9633C41.0625 21.7645 42.304 17.1199 42.4775 12.375C43.2019 12.174 43.8407 11.7414 44.2962 11.1432C44.7517 10.5451 44.9989 9.81432 45 9.0625V3.75C45 3.41848 44.8683 3.10054 44.6339 2.86612C44.3995 2.6317 44.0815 2.5 43.75 2.5H11.25C10.9185 2.5 10.6005 2.6317 10.3661 2.86612C10.1317 3.10054 10 3.41848 10 3.75V9.0625C10.0011 9.81432 10.2483 10.5451 10.7038 11.1432C11.1593 11.7414 11.7981 12.174 12.5225 12.375C12.6961 17.1197 13.9375 21.7642 16.1544 25.9628L23.0437 38.9766C23.2109 39.2918 23.2983 39.6432 23.2983 40C23.2983 40.3568 23.2109 40.7082 23.0437 41.0234L16.1544 54.0367C13.9375 58.2355 12.696 62.8801 12.5225 67.625C11.7981 67.826 11.1593 68.2586 10.7038 68.8568C10.2483 69.4549 10.0011 70.1857 10 70.9375V76.25C10 76.5815 10.1317 76.8995 10.3661 77.1339C10.6005 77.3683 10.9185 77.5 11.25 77.5ZM42.5 5V6.25H22.5V8.75H42.5V9.0625C42.4998 9.31106 42.4009 9.54938 42.2251 9.72514C42.0494 9.9009 41.8111 9.99975 41.5625 10H13.4375C13.1889 9.99975 12.9506 9.9009 12.7749 9.72514C12.5991 9.54938 12.5002 9.31106 12.5 9.0625V8.75H20V6.25H12.5V5H42.5ZM18.3639 55.2064L25.2533 42.1933C25.6113 41.5177 25.7985 40.7646 25.7985 40C25.7985 39.2354 25.6113 38.4823 25.2533 37.8067L18.3639 24.7936C16.3564 20.9928 15.2168 16.7942 15.0273 12.5H39.9727C39.7832 16.7942 38.6436 20.9928 36.6361 24.7936L29.7467 37.8067C29.3887 38.4823 29.2015 39.2354 29.2015 40C29.2015 40.7646 29.3887 41.5177 29.7467 42.1933L36.6361 55.2064C38.6436 59.0072 39.7832 63.2058 39.9727 67.5H15.0273C15.2168 63.2058 16.3564 59.0072 18.3639 55.2064ZM13.4375 70H41.5625C41.8111 70.0003 42.0494 70.0991 42.2251 70.2749C42.4009 70.4506 42.4998 70.6889 42.5 70.9375V71.25H37.5V73.75H42.5V75H12.5V73.75H35V71.25H12.5V70.9375C12.5002 70.6889 12.5991 70.4506 12.7749 70.2749C12.9506 70.0991 13.1889 70.0003 13.4375 70Z" fill="url(#paint0_linear_68_1752)"/>
<path d="M11.25 77.5H43.75C44.0815 77.5 44.3995 77.3683 44.6339 77.1339C44.8683 76.8995 45 76.5815 45 76.25V70.9375C44.9989 70.1857 44.7517 69.4549 44.2962 68.8568C43.8407 68.2586 43.2019 67.826 42.4775 67.625C42.3039 62.8803 41.0625 58.2358 38.8456 54.0372L31.9563 41.0234C31.7891 40.7082 31.7017 40.3568 31.7017 40C31.7017 39.6432 31.7891 39.2918 31.9563 38.9766L38.8456 25.9633C41.0625 21.7645 42.304 17.1199 42.4775 12.375C43.2019 12.174 43.8407 11.7414 44.2962 11.1432C44.7517 10.5451 44.9989 9.81432 45 9.0625V3.75C45 3.41848 44.8683 3.10054 44.6339 2.86612C44.3995 2.6317 44.0815 2.5 43.75 2.5H11.25C10.9185 2.5 10.6005 2.6317 10.3661 2.86612C10.1317 3.10054 10 3.41848 10 3.75V9.0625C10.0011 9.81432 10.2483 10.5451 10.7038 11.1432C11.1593 11.7414 11.7981 12.174 12.5225 12.375C12.6961 17.1197 13.9375 21.7642 16.1544 25.9628L23.0437 38.9766C23.2109 39.2918 23.2983 39.6432 23.2983 40C23.2983 40.3568 23.2109 40.7082 23.0437 41.0234L16.1544 54.0367C13.9375 58.2355 12.696 62.8801 12.5225 67.625C11.7981 67.826 11.1593 68.2586 10.7038 68.8568C10.2483 69.4549 10.0011 70.1857 10 70.9375V76.25C10 76.5815 10.1317 76.8995 10.3661 77.1339C10.6005 77.3683 10.9185 77.5 11.25 77.5ZM42.5 5V6.25H22.5V8.75H42.5V9.0625C42.4998 9.31106 42.4009 9.54938 42.2251 9.72514C42.0494 9.9009 41.8111 9.99975 41.5625 10H13.4375C13.1889 9.99975 12.9506 9.9009 12.7749 9.72514C12.5991 9.54938 12.5002 9.31106 12.5 9.0625V8.75H20V6.25H12.5V5H42.5ZM18.3639 55.2064L25.2533 42.1933C25.6113 41.5177 25.7985 40.7646 25.7985 40C25.7985 39.2354 25.6113 38.4823 25.2533 37.8067L18.3639 24.7936C16.3564 20.9928 15.2168 16.7942 15.0273 12.5H39.9727C39.7832 16.7942 38.6436 20.9928 36.6361 24.7936L29.7467 37.8067C29.3887 38.4823 29.2015 39.2354 29.2015 40C29.2015 40.7646 29.3887 41.5177 29.7467 42.1933L36.6361 55.2064C38.6436 59.0072 39.7832 63.2058 39.9727 67.5H15.0273C15.2168 63.2058 16.3564 59.0072 18.3639 55.2064ZM13.4375 70H41.5625C41.8111 70.0003 42.0494 70.0991 42.2251 70.2749C42.4009 70.4506 42.4998 70.6889 42.5 70.9375V71.25H37.5V73.75H42.5V75H12.5V73.75H35V71.25H12.5V70.9375C12.5002 70.6889 12.5991 70.4506 12.7749 70.2749C12.9506 70.0991 13.1889 70.0003 13.4375 70Z" fill="white"/>
<path d="M18.75 20H21.25V22.5H18.75V20Z" fill="url(#paint1_linear_68_1752)"/>
<path d="M18.75 20H21.25V22.5H18.75V20Z" fill="white"/>
<path d="M22.5 22.5H25V25H22.5V22.5Z" fill="url(#paint2_linear_68_1752)"/>
<path d="M22.5 22.5H25V25H22.5V22.5Z" fill="white"/>
<path d="M26.25 20H28.75V22.5H26.25V20Z" fill="url(#paint3_linear_68_1752)"/>
<path d="M26.25 20H28.75V22.5H26.25V20Z" fill="white"/>
<path d="M30 22.5H32.5V25H30V22.5Z" fill="url(#paint4_linear_68_1752)"/>
<path d="M30 22.5H32.5V25H30V22.5Z" fill="white"/>
<path d="M33.447 20H35.947V22.5H33.447V20Z" fill="url(#paint5_linear_68_1752)"/>
<path d="M33.447 20H35.947V22.5H33.447V20Z" fill="white"/>
<path d="M21.25 26.25H23.75V28.75H21.25V26.25Z" fill="url(#paint6_linear_68_1752)"/>
<path d="M21.25 26.25H23.75V28.75H21.25V26.25Z" fill="white"/>
<path d="M23.75 30H26.25V32.5H23.75V30Z" fill="url(#paint7_linear_68_1752)"/>
<path d="M23.75 30H26.25V32.5H23.75V30Z" fill="white"/>
<path d="M27.5 26.25H30V28.75H27.5V26.25Z" fill="url(#paint8_linear_68_1752)"/>
<path d="M27.5 26.25H30V28.75H27.5V26.25Z" fill="white"/>
<path d="M28.75 30H31.25V32.5H28.75V30Z" fill="url(#paint9_linear_68_1752)"/>
<path d="M28.75 30H31.25V32.5H28.75V30Z" fill="white"/>
<path d="M26.25 33.458H28.75V35.958H26.25V33.458Z" fill="url(#paint10_linear_68_1752)"/>
<path d="M26.25 33.458H28.75V35.958H26.25V33.458Z" fill="white"/>
<path d="M26.25 45H28.75V47.5H26.25V45Z" fill="url(#paint11_linear_68_1752)"/>
<path d="M26.25 45H28.75V47.5H26.25V45Z" fill="white"/>
<path d="M26.25 50H28.75V52.5H26.25V50Z" fill="url(#paint12_linear_68_1752)"/>
<path d="M26.25 50H28.75V52.5H26.25V50Z" fill="white"/>
<path d="M26.25 58.75H28.75V61.25H26.25V58.75Z" fill="url(#paint13_linear_68_1752)"/>
<path d="M26.25 58.75H28.75V61.25H26.25V58.75Z" fill="white"/>
<path d="M26.25 63.75H28.75V66.25H26.25V63.75Z" fill="url(#paint14_linear_68_1752)"/>
<path d="M26.25 63.75H28.75V66.25H26.25V63.75Z" fill="white"/>
<path d="M21.25 63.75H23.75V66.25H21.25V63.75Z" fill="url(#paint15_linear_68_1752)"/>
<path d="M21.25 63.75H23.75V66.25H21.25V63.75Z" fill="white"/>
<path d="M31.25 63.75H33.75V66.25H31.25V63.75Z" fill="url(#paint16_linear_68_1752)"/>
<path d="M31.25 63.75H33.75V66.25H31.25V63.75Z" fill="white"/>
<path d="M36.25 63.75H38.75V66.25H36.25V63.75Z" fill="url(#paint17_linear_68_1752)"/>
<path d="M36.25 63.75H38.75V66.25H36.25V63.75Z" fill="white"/>
<path d="M16.25 63.75H18.75V66.25H16.25V63.75Z" fill="url(#paint18_linear_68_1752)"/>
<path d="M16.25 63.75H18.75V66.25H16.25V63.75Z" fill="white"/>
<path d="M46.25 15C60.035 15 71.25 26.215 71.25 40C71.25 53.785 60.035 65 46.25 65C45.9185 65 45.6005 65.1317 45.3661 65.3661C45.1317 65.6005 45 65.9185 45 66.25C45 66.5815 45.1317 66.8995 45.3661 67.1339C45.6005 67.3683 45.9185 67.5 46.25 67.5C61.4136 67.5 73.75 55.1636 73.75 40C73.75 24.8364 61.4136 12.5 46.25 12.5C45.9185 12.5 45.6005 12.6317 45.3661 12.8661C45.1317 13.1005 45 13.4185 45 13.75C45 14.0815 45.1317 14.3995 45.3661 14.6339C45.6005 14.8683 45.9185 15 46.25 15Z" fill="url(#paint19_linear_68_1752)"/>
<path d="M46.25 15C60.035 15 71.25 26.215 71.25 40C71.25 53.785 60.035 65 46.25 65C45.9185 65 45.6005 65.1317 45.3661 65.3661C45.1317 65.6005 45 65.9185 45 66.25C45 66.5815 45.1317 66.8995 45.3661 67.1339C45.6005 67.3683 45.9185 67.5 46.25 67.5C61.4136 67.5 73.75 55.1636 73.75 40C73.75 24.8364 61.4136 12.5 46.25 12.5C45.9185 12.5 45.6005 12.6317 45.3661 12.8661C45.1317 13.1005 45 13.4185 45 13.75C45 14.0815 45.1317 14.3995 45.3661 14.6339C45.6005 14.8683 45.9185 15 46.25 15Z" fill="white"/>
<path d="M55.7675 27.7631C55.6379 27.6622 55.4898 27.5879 55.3315 27.5443C55.1733 27.5008 55.008 27.4888 54.8451 27.5091C54.6822 27.5294 54.5249 27.5816 54.3821 27.6627C54.2394 27.7438 54.1141 27.8523 54.0133 27.9818L46.5914 37.5253C46.2204 37.4746 45.8427 37.508 45.4864 37.623C45.13 37.7379 44.8041 37.9315 44.5326 38.1894C44.2611 38.4473 44.0511 38.7629 43.918 39.1129C43.7849 39.4629 43.7322 39.8383 43.7638 40.2114C43.7953 40.5845 43.9103 40.9458 44.1003 41.2685C44.2902 41.5912 44.5503 41.867 44.8612 42.0757C45.1722 42.2843 45.526 42.4204 45.8966 42.4739C46.2672 42.5273 46.6451 42.4969 47.0023 42.3846L60.4053 54.6717C60.6498 54.8957 60.9733 55.0134 61.3046 54.9989C61.6359 54.9845 61.9478 54.839 62.1719 54.5945C62.3959 54.35 62.5136 54.0265 62.4991 53.6952C62.4847 53.3639 62.3392 53.0519 62.0947 52.8279L48.6897 40.5404C48.8008 40.0455 48.7571 39.5283 48.5647 39.059L55.9865 29.5173C56.0873 29.3877 56.1616 29.2396 56.2052 29.0813C56.2487 28.923 56.2607 28.7577 56.2403 28.5948C56.22 28.4319 56.1678 28.2746 56.0866 28.1319C56.0055 27.9892 55.8971 27.8639 55.7675 27.7631Z" fill="url(#paint20_linear_68_1752)"/>
<path d="M55.7675 27.7631C55.6379 27.6622 55.4898 27.5879 55.3315 27.5443C55.1733 27.5008 55.008 27.4888 54.8451 27.5091C54.6822 27.5294 54.5249 27.5816 54.3821 27.6627C54.2394 27.7438 54.1141 27.8523 54.0133 27.9818L46.5914 37.5253C46.2204 37.4746 45.8427 37.508 45.4864 37.623C45.13 37.7379 44.8041 37.9315 44.5326 38.1894C44.2611 38.4473 44.0511 38.7629 43.918 39.1129C43.7849 39.4629 43.7322 39.8383 43.7638 40.2114C43.7953 40.5845 43.9103 40.9458 44.1003 41.2685C44.2902 41.5912 44.5503 41.867 44.8612 42.0757C45.1722 42.2843 45.526 42.4204 45.8966 42.4739C46.2672 42.5273 46.6451 42.4969 47.0023 42.3846L60.4053 54.6717C60.6498 54.8957 60.9733 55.0134 61.3046 54.9989C61.6359 54.9845 61.9478 54.839 62.1719 54.5945C62.3959 54.35 62.5136 54.0265 62.4991 53.6952C62.4847 53.3639 62.3392 53.0519 62.0947 52.8279L48.6897 40.5404C48.8008 40.0455 48.7571 39.5283 48.5647 39.059L55.9865 29.5173C56.0873 29.3877 56.1616 29.2396 56.2052 29.0813C56.2487 28.923 56.2607 28.7577 56.2403 28.5948C56.22 28.4319 56.1678 28.2746 56.0866 28.1319C56.0055 27.9892 55.8971 27.8639 55.7675 27.7631Z" fill="white"/>
<defs>
<linearGradient id="paint0_linear_68_1752" x1="10" y1="40" x2="45" y2="40" gradientUnits="userSpaceOnUse">
<stop stop-color="#4889D8"/>
<stop offset="1" stop-color="#63B1C2"/>
</linearGradient>
<linearGradient id="paint1_linear_68_1752" x1="18.75" y1="21.25" x2="21.25" y2="21.25" gradientUnits="userSpaceOnUse">
<stop stop-color="#4889D8"/>
<stop offset="1" stop-color="#63B1C2"/>
</linearGradient>
<linearGradient id="paint2_linear_68_1752" x1="22.5" y1="23.75" x2="25" y2="23.75" gradientUnits="userSpaceOnUse">
<stop stop-color="#4889D8"/>
<stop offset="1" stop-color="#63B1C2"/>
</linearGradient>
<linearGradient id="paint3_linear_68_1752" x1="26.25" y1="21.25" x2="28.75" y2="21.25" gradientUnits="userSpaceOnUse">
<stop stop-color="#4889D8"/>
<stop offset="1" stop-color="#63B1C2"/>
</linearGradient>
<linearGradient id="paint4_linear_68_1752" x1="30" y1="23.75" x2="32.5" y2="23.75" gradientUnits="userSpaceOnUse">
<stop stop-color="#4889D8"/>
<stop offset="1" stop-color="#63B1C2"/>
</linearGradient>
<linearGradient id="paint5_linear_68_1752" x1="33.447" y1="21.25" x2="35.947" y2="21.25" gradientUnits="userSpaceOnUse">
<stop stop-color="#4889D8"/>
<stop offset="1" stop-color="#63B1C2"/>
</linearGradient>
<linearGradient id="paint6_linear_68_1752" x1="21.25" y1="27.5" x2="23.75" y2="27.5" gradientUnits="userSpaceOnUse">
<stop stop-color="#4889D8"/>
<stop offset="1" stop-color="#63B1C2"/>
</linearGradient>
<linearGradient id="paint7_linear_68_1752" x1="23.75" y1="31.25" x2="26.25" y2="31.25" gradientUnits="userSpaceOnUse">
<stop stop-color="#4889D8"/>
<stop offset="1" stop-color="#63B1C2"/>
</linearGradient>
<linearGradient id="paint8_linear_68_1752" x1="27.5" y1="27.5" x2="30" y2="27.5" gradientUnits="userSpaceOnUse">
<stop stop-color="#4889D8"/>
<stop offset="1" stop-color="#63B1C2"/>
</linearGradient>
<linearGradient id="paint9_linear_68_1752" x1="28.75" y1="31.25" x2="31.25" y2="31.25" gradientUnits="userSpaceOnUse">
<stop stop-color="#4889D8"/>
<stop offset="1" stop-color="#63B1C2"/>
</linearGradient>
<linearGradient id="paint10_linear_68_1752" x1="26.25" y1="34.708" x2="28.75" y2="34.708" gradientUnits="userSpaceOnUse">
<stop stop-color="#4889D8"/>
<stop offset="1" stop-color="#63B1C2"/>
</linearGradient>
<linearGradient id="paint11_linear_68_1752" x1="26.25" y1="46.25" x2="28.75" y2="46.25" gradientUnits="userSpaceOnUse">
<stop stop-color="#4889D8"/>
<stop offset="1" stop-color="#63B1C2"/>
</linearGradient>
<linearGradient id="paint12_linear_68_1752" x1="26.25" y1="51.25" x2="28.75" y2="51.25" gradientUnits="userSpaceOnUse">
<stop stop-color="#4889D8"/>
<stop offset="1" stop-color="#63B1C2"/>
</linearGradient>
<linearGradient id="paint13_linear_68_1752" x1="26.25" y1="60" x2="28.75" y2="60" gradientUnits="userSpaceOnUse">
<stop stop-color="#4889D8"/>
<stop offset="1" stop-color="#63B1C2"/>
</linearGradient>
<linearGradient id="paint14_linear_68_1752" x1="26.25" y1="65" x2="28.75" y2="65" gradientUnits="userSpaceOnUse">
<stop stop-color="#4889D8"/>
<stop offset="1" stop-color="#63B1C2"/>
</linearGradient>
<linearGradient id="paint15_linear_68_1752" x1="21.25" y1="65" x2="23.75" y2="65" gradientUnits="userSpaceOnUse">
<stop stop-color="#4889D8"/>
<stop offset="1" stop-color="#63B1C2"/>
</linearGradient>
<linearGradient id="paint16_linear_68_1752" x1="31.25" y1="65" x2="33.75" y2="65" gradientUnits="userSpaceOnUse">
<stop stop-color="#4889D8"/>
<stop offset="1" stop-color="#63B1C2"/>
</linearGradient>
<linearGradient id="paint17_linear_68_1752" x1="36.25" y1="65" x2="38.75" y2="65" gradientUnits="userSpaceOnUse">
<stop stop-color="#4889D8"/>
<stop offset="1" stop-color="#63B1C2"/>
</linearGradient>
<linearGradient id="paint18_linear_68_1752" x1="16.25" y1="65" x2="18.75" y2="65" gradientUnits="userSpaceOnUse">
<stop stop-color="#4889D8"/>
<stop offset="1" stop-color="#63B1C2"/>
</linearGradient>
<linearGradient id="paint19_linear_68_1752" x1="45" y1="40" x2="73.75" y2="40" gradientUnits="userSpaceOnUse">
<stop stop-color="#4889D8"/>
<stop offset="1" stop-color="#63B1C2"/>
</linearGradient>
<linearGradient id="paint20_linear_68_1752" x1="43.7549" y1="41.2498" x2="62.5003" y2="41.2498" gradientUnits="userSpaceOnUse">
<stop stop-color="#4889D8"/>
<stop offset="1" stop-color="#63B1C2"/>
</linearGradient>
</defs>
</svg>
