<svg width="120" height="120" viewBox="0 0 120 120" fill="none" xmlns="http://www.w3.org/2000/svg">
<circle cx="60" cy="60" r="60" fill="white"/>
<path d="M67.8542 53.394L69.9149 55.4625C70.1375 55.6858 70.1375 56.0549 69.9149 56.2879L66.7513 59.4635L69.9149 62.639C70.1375 62.8721 70.1375 63.2411 69.9149 63.4644L67.8542 65.5329C67.622 65.766 67.2544 65.766 67.0318 65.5329L63.8682 62.3477L60.7142 65.5232C60.482 65.7563 60.1144 65.7563 59.8918 65.5232L57.8311 63.4547C57.6086 63.2314 57.6086 62.8623 57.8311 62.6293L60.9948 59.4538L57.8311 56.2782C57.6086 56.0549 57.6086 55.6761 57.8311 55.4528L59.8918 53.3843C60.124 53.1513 60.4917 53.1513 60.7142 53.3843L63.8682 56.5598L67.0318 53.3843C67.2544 53.161 67.622 53.161 67.8542 53.394ZM68.6862 55.8704L67.4479 54.6273L64.2842 57.8029C64.052 58.0262 63.6844 58.0262 63.4618 57.8029L60.2982 54.6273L59.0598 55.8704L62.2235 59.0459C62.4557 59.279 62.4557 59.648 62.2235 59.8713L59.0598 63.0469L60.2982 64.2899L63.4618 61.1143C63.6844 60.891 64.052 60.891 64.2842 61.1143L67.4479 64.2899L68.6862 63.0469L65.5226 59.8713C65.2904 59.6383 65.2904 59.2692 65.5226 59.0459L68.6862 55.8704ZM63.8682 48.9075C67.5446 48.9075 70.834 50.8109 72.7303 53.7825C73.4656 53.7825 74.0558 53.8504 74.6363 53.2678C74.9555 52.9473 75.149 52.52 75.149 52.0345V45.4018L72.8271 45.8388V48.3248C72.8271 48.6453 72.5658 48.9075 72.2466 48.9075H69.1797C68.8604 48.9075 68.5992 48.6453 68.5992 48.3248V46.6448L62.6879 47.7616C62.6201 47.7713 62.5427 47.781 62.4653 47.7616L58.1117 46.9362V50.6458C59.7564 49.5484 61.7397 48.9075 63.8682 48.9075ZM73.3785 54.9381C75.2845 58.9779 74.4331 63.7752 71.3081 66.9119C67.206 71.0294 60.5497 71.0294 56.4476 66.9119C55.2092 65.6689 54.2708 64.1054 53.7773 62.3671H43.1834C42.2546 62.3671 41.5 61.6096 41.5 60.6773V41.0221C41.5 40.0898 42.2546 39.3324 43.1834 39.3324H47.6242V36.4967C47.6242 34.9041 48.9109 33.6125 50.4976 33.6125H57.1248C57.8311 28.7958 67.2931 28.7958 67.9993 33.6125H74.6266C76.2132 33.6125 77.5 34.9041 77.5 36.4967V42.5662C77.5 43.5081 77.055 44.3627 76.3197 44.8968V52.0248C76.31 53.6368 75.0136 54.9381 73.3785 54.9381ZM53.5064 61.2017C53.4194 60.6676 53.371 60.1141 53.3613 59.5509H45.2925C44.9733 59.5509 44.712 59.2887 44.712 58.9682C44.712 58.6477 44.9733 58.3855 45.2925 58.3855H53.4097C53.4387 58.1525 53.4677 57.9194 53.5064 57.696H45.2925C44.9733 57.696 44.712 57.4338 44.712 57.1134C44.712 56.7929 44.9733 56.5307 45.2925 56.5307H53.7773C54.3385 54.5788 55.4511 52.8502 56.941 51.5392V41.0221C56.941 40.7405 56.7088 40.4977 56.4186 40.4977H43.1834C42.8932 40.4977 42.661 40.7308 42.661 41.0221V60.6773C42.661 60.9687 42.8932 61.2017 43.1834 61.2017H53.5064ZM70.4761 52.8211C66.8287 49.16 60.9077 49.16 57.2603 52.8211C55.5091 54.5788 54.5223 56.958 54.5223 59.4538C54.5223 64.6298 58.7115 68.8347 63.8682 68.8347C69.0345 68.8347 73.2141 64.6298 73.2141 59.4538C73.2237 56.9289 72.2175 54.5691 70.4761 52.8211ZM49.7913 45.7708C48.1176 45.7708 47.2662 47.8199 48.4562 49.0046C49.6365 50.1894 51.6779 49.3445 51.6779 47.6645C51.6876 46.6157 50.8362 45.7708 49.7913 45.7708ZM47.6435 45.4989C48.8335 44.3044 50.7685 44.3044 51.9585 45.4989C52.926 46.47 53.1388 47.9752 52.4519 49.1794C53.4 49.7718 53.7967 50.84 53.7967 52.083V54.5011C53.7967 54.8216 53.5355 55.0838 53.2162 55.0838H46.3761C46.0568 55.0838 45.7956 54.8216 45.7956 54.5011V52.083C45.7956 50.8497 46.202 49.7718 47.1404 49.1794C46.4632 47.9752 46.6664 46.47 47.6435 45.4989ZM51.6682 50.0728C50.5653 50.9371 49.0173 50.9371 47.9241 50.0728C47.2081 50.4127 46.9566 51.1799 46.9566 52.0733V53.9087H52.6357V52.0733C52.6357 51.1896 52.3842 50.4224 51.6682 50.0728ZM47.2372 43.11C46.9179 43.11 46.6567 42.8478 46.6567 42.5273C46.6567 42.2068 46.9179 41.9446 47.2372 41.9446H52.3551C52.6744 41.9446 52.9356 42.2068 52.9356 42.5273C52.9356 42.8478 52.6744 43.11 52.3551 43.11H47.2372ZM48.7851 39.3324H56.4186C57.3474 39.3324 58.102 40.0898 58.102 41.0221V45.7514L62.5621 46.5963L68.5992 45.4504V42.9934C68.5992 42.673 68.8604 42.4108 69.1797 42.4108H72.2466C72.5658 42.4108 72.8271 42.673 72.8271 42.9934V44.654L74.9362 44.2559C75.7392 44.1005 76.3293 43.411 76.3293 42.5662V36.4967C76.3293 35.545 75.565 34.7779 74.6169 34.7779H50.4976C49.5591 34.7779 48.7851 35.545 48.7851 36.4967V39.3324ZM71.6564 43.5664H69.7408V47.7325H71.6564V43.5664ZM66.8093 33.6125C66.0644 30.3496 59.0501 30.3496 58.3052 33.6125H66.8093Z" fill="url(#paint0_linear_107_36)"/>
<path d="M41.424 79.316V80.636H35.292V79.316H41.424ZM39.66 84.26V82.808H37.044V84.26H39.66ZM41.052 81.56V85.508H35.736V81.56H41.052ZM39.84 88.4L38.64 88.124C38.928 87.464 39.228 86.432 39.372 85.676L40.776 85.976C40.452 86.852 40.128 87.812 39.84 88.4ZM37.824 88.04L36.552 88.364C36.516 87.752 36.276 86.768 36.012 86.036L37.224 85.748C37.524 86.468 37.776 87.404 37.824 88.04ZM35.568 87.272L34.656 88.448C34.38 87.968 33.888 87.272 33.444 86.684C33.084 87.92 32.46 89.132 31.392 90.044C31.2 89.744 30.672 89.216 30.408 89.036C31.824 87.824 32.304 86.204 32.472 84.74H30.504V83.42H32.544V83.204V81.56H32.22C31.992 82.16 31.74 82.7 31.476 83.132C31.2 82.928 30.588 82.604 30.264 82.472C30.876 81.608 31.32 80.204 31.548 78.848L32.892 79.1C32.82 79.496 32.724 79.892 32.628 80.276H35.244V81.56H33.9V83.216V83.42H35.388V84.74H33.816C33.804 84.896 33.792 85.04 33.768 85.196C34.248 85.688 35.304 86.96 35.568 87.272ZM34.74 88.496H41.592V89.816H34.74V88.496ZM44.76 85.136V85.952H46.248V85.136H44.76ZM46.248 81.5H44.76V82.196H46.248V81.5ZM44.76 83.288V84.044H46.248V83.288H44.76ZM48.288 85.952V87.2H42.396V85.952H43.476V81.5H42.54V80.252H43.476V78.98H44.76V80.252H46.248V78.98H47.556V80.252H48.372V81.5H47.556V85.952H48.288ZM43.884 87.284L45.216 87.68C44.796 88.556 44.088 89.492 43.44 90.08C43.176 89.828 42.624 89.42 42.3 89.228C42.924 88.76 43.548 88.004 43.884 87.284ZM50.1 84.8H51.84V83.324H50.112V83.768C50.112 84.08 50.112 84.428 50.1 84.8ZM51.84 80.66H50.112V82.064H51.84V80.66ZM53.22 79.364V88.46C53.22 89.168 53.088 89.54 52.668 89.768C52.248 89.996 51.636 90.032 50.748 90.02C50.7 89.648 50.52 89.024 50.34 88.664C50.856 88.7 51.432 88.688 51.6 88.688C51.78 88.688 51.84 88.628 51.84 88.436V86.072H50.016C49.884 87.488 49.584 88.988 48.936 90.068C48.708 89.816 48.12 89.384 47.808 89.264C47.844 89.192 47.892 89.132 47.928 89.06L46.932 89.624C46.692 89.156 46.116 88.364 45.648 87.812L46.728 87.224C47.16 87.704 47.724 88.364 48.024 88.856C48.72 87.356 48.78 85.328 48.78 83.768V79.364H53.22ZM60.384 79.808V80.936H54.408V79.808H56.688V78.836H58.068V79.808H60.384ZM62.076 87.008V88.196H63.06V87.008H62.076ZM63.06 83.456V82.34H62.076V83.456H63.06ZM63.06 85.808V84.656H62.076V85.808H63.06ZM58.944 86.24H57.624C57.552 86.636 57.468 87.02 57.384 87.356L57.9 87.332C57.84 87.128 57.768 86.936 57.696 86.756L58.44 86.564C58.644 87.044 58.848 87.644 58.944 88.1V86.24ZM65.604 88.196V89.492H62.076V90.056H60.792V83.852C60.72 83.972 60.636 84.08 60.564 84.188C60.408 84.032 60.132 83.78 59.868 83.564V84.632H57.936L57.828 85.22H60.144V88.844C60.144 89.384 60.048 89.672 59.664 89.864C59.316 90.032 58.812 90.044 58.116 90.044C58.068 89.72 57.9 89.276 57.756 88.976C58.176 89 58.632 88.988 58.764 88.988C58.908 88.988 58.944 88.952 58.944 88.832V88.388L58.2 88.616C58.188 88.496 58.164 88.352 58.128 88.196C57.384 88.256 56.676 88.316 56.028 88.352L55.932 87.428L56.376 87.404C56.46 87.056 56.52 86.648 56.592 86.24H55.812V90.056H54.66V85.22H56.724C56.748 85.016 56.772 84.824 56.796 84.632H54.936V81.236H55.92V83.66H56.664C56.472 83.504 56.172 83.276 55.98 83.144C56.268 82.94 56.544 82.7 56.784 82.436C56.544 82.28 56.292 82.136 56.064 82.004L56.616 81.38C56.832 81.5 57.072 81.632 57.312 81.776C57.456 81.548 57.588 81.32 57.696 81.08L58.608 81.296C58.464 81.632 58.284 81.956 58.08 82.256C58.344 82.436 58.584 82.616 58.752 82.772L58.176 83.48C58.02 83.324 57.792 83.132 57.54 82.952C57.312 83.216 57.06 83.456 56.808 83.66H58.848V81.236H59.868V82.832C60.588 81.764 61.176 80.288 61.548 78.848L62.82 79.136C62.64 79.784 62.424 80.444 62.172 81.068H63.036C63.276 80.42 63.516 79.592 63.648 78.956L64.992 79.256C64.764 79.868 64.524 80.516 64.296 81.068H65.484V82.34H64.26V83.456H65.352V84.656H64.26V85.808H65.352V87.008H64.26V88.196H65.604ZM71.928 87.56H73.032V86.84H71.928V87.56ZM73.032 85.196H71.928V85.916H73.032V85.196ZM72.996 80.984H71.808C71.988 81.44 72.096 82.052 72.12 82.448L71.58 82.58H73.296L72.684 82.448C72.804 82.028 72.936 81.416 72.996 80.984ZM68.988 81.836V80.54H68.196V81.836H68.988ZM68.196 86.888L68.988 86.744V85.436H68.196V86.888ZM68.988 84.284V82.988H68.196V84.284H68.988ZM76.356 84.128L77.496 84.38C77.172 85.532 76.728 86.564 76.164 87.464C76.272 88.04 76.404 88.364 76.548 88.376C76.692 88.376 76.788 87.824 76.836 86.876C77.04 87.164 77.556 87.536 77.76 87.668C77.46 89.612 76.896 90.032 76.488 90.032C75.948 90.02 75.552 89.54 75.264 88.664C74.796 89.204 74.268 89.672 73.692 90.068C73.536 89.828 73.128 89.36 72.876 89.132C73.176 88.952 73.464 88.748 73.728 88.532H71.928V89.228H70.836V84.212H74.136V88.16C74.424 87.884 74.688 87.572 74.928 87.236C74.772 86.264 74.664 85.064 74.604 83.684H70.392V82.58H71.148C71.124 82.184 71.028 81.596 70.884 81.152L71.58 80.984H70.632V80.54H70.176V90.044H68.988V87.992C68.136 88.172 67.284 88.352 66.564 88.496L66.324 87.188C66.54 87.164 66.78 87.128 67.032 87.08V80.54H66.564V79.292H70.68V79.94H71.856V78.86H73.068V79.94H74.292V80.984H73.26L74.076 81.14C73.896 81.656 73.728 82.196 73.596 82.58H74.556C74.52 81.44 74.496 80.18 74.484 78.848H75.732V79.748L76.5 79.34C76.992 79.928 77.46 80.708 77.664 81.248L76.68 81.8C76.512 81.32 76.128 80.612 75.732 80.048C75.732 80.936 75.744 81.776 75.768 82.58H77.616V83.684H75.816C75.84 84.32 75.876 84.908 75.924 85.448C76.092 85.028 76.236 84.584 76.356 84.128ZM81.72 84.74L82.356 84.716C82.584 84.5 82.812 84.272 83.04 84.044C82.608 83.672 82.032 83.252 81.528 82.916L80.652 83.66C80.28 83.276 79.488 82.7 78.852 82.34L79.8 81.56C80.352 81.86 81.084 82.328 81.528 82.7L82.08 82.04L82.368 82.208C82.56 81.92 82.764 81.584 82.932 81.284H79.008V80.012H83.232V78.848H84.696V80.012H89.028V81.284H84.06L84.324 81.38C83.952 81.86 83.556 82.352 83.208 82.76C83.424 82.916 83.628 83.06 83.808 83.204C84.216 82.712 84.6 82.232 84.9 81.8L86.016 82.316C85.356 83.096 84.552 83.936 83.784 84.656L85.02 84.596C84.888 84.368 84.732 84.152 84.588 83.948L85.596 83.528C85.788 83.78 86.004 84.068 86.196 84.356L86.928 83.768C87.756 84.176 88.872 84.836 89.436 85.304L88.404 86.156C87.996 85.796 87.228 85.268 86.496 84.848C86.676 85.16 86.82 85.46 86.904 85.712L85.824 86.192C85.764 86.012 85.68 85.808 85.572 85.592C84.12 85.724 82.656 85.832 81.504 85.916L81.36 85.088C80.604 85.46 79.812 85.832 79.164 86.12L78.492 84.968C79.248 84.728 80.4 84.284 81.504 83.852L81.72 84.74ZM87.264 83.528L86.22 82.964C86.76 82.556 87.432 81.932 87.84 81.44L89.112 82.052C88.5 82.616 87.804 83.156 87.264 83.528ZM84.696 85.82V86.588H89.4V87.908H84.696V90.044H83.232V87.908H78.624V86.588H83.232V85.82H84.696Z" fill="#005694"/>
<defs>
<linearGradient id="paint0_linear_107_36" x1="41.5" y1="50" x2="77.5" y2="50" gradientUnits="userSpaceOnUse">
<stop stop-color="#4889D8"/>
<stop offset="1" stop-color="#63B1C2"/>
</linearGradient>
</defs>
</svg>
