<svg width="120" height="120" viewBox="0 0 120 120" fill="none" xmlns="http://www.w3.org/2000/svg">
<circle cx="60" cy="60" r="60" fill="white"/>
<path d="M45.625 68.75H61.875C62.0408 68.75 62.1997 68.6842 62.3169 68.5669C62.4342 68.4497 62.5 68.2908 62.5 68.125V65.4688C62.4994 65.0928 62.3758 64.7275 62.1481 64.4284C61.9203 64.1293 61.601 63.913 61.2387 63.8125C61.1519 61.4401 60.5312 59.1179 59.4228 57.0186L55.9781 50.5117C55.8946 50.3541 55.8509 50.1784 55.8509 50C55.8509 49.8216 55.8946 49.6459 55.9781 49.4883L59.4228 42.9816C60.5313 40.8823 61.152 38.5599 61.2387 36.1875C61.601 36.087 61.9203 35.8707 62.1481 35.5716C62.3758 35.2725 62.4994 34.9072 62.5 34.5312V31.875C62.5 31.7092 62.4342 31.5503 62.3169 31.4331C62.1997 31.3158 62.0408 31.25 61.875 31.25H45.625C45.4592 31.25 45.3003 31.3158 45.1831 31.4331C45.0658 31.5503 45 31.7092 45 31.875V34.5312C45.0006 34.9072 45.1242 35.2725 45.3519 35.5716C45.5797 35.8707 45.899 36.087 46.2612 36.1875C46.3481 38.5599 46.9688 40.8821 48.0772 42.9814L51.5219 49.4883C51.6054 49.6459 51.6491 49.8216 51.6491 50C51.6491 50.1784 51.6054 50.3541 51.5219 50.5117L48.0772 57.0184C46.9687 59.1177 46.348 61.4401 46.2612 63.8125C45.899 63.913 45.5797 64.1293 45.3519 64.4284C45.1242 64.7275 45.0006 65.0928 45 65.4688V68.125C45 68.2908 45.0658 68.4497 45.1831 68.5669C45.3003 68.6842 45.4592 68.75 45.625 68.75ZM61.25 32.5V33.125H51.25V34.375H61.25V34.5312C61.2499 34.6555 61.2004 34.7747 61.1126 34.8626C61.0247 34.9505 60.9055 34.9999 60.7812 35H46.7188C46.5945 34.9999 46.4753 34.9505 46.3874 34.8626C46.2996 34.7747 46.2501 34.6555 46.25 34.5312V34.375H50V33.125H46.25V32.5H61.25ZM49.182 57.6032L52.6266 51.0966C52.8057 50.7588 52.8993 50.3823 52.8993 50C52.8993 49.6177 52.8057 49.2412 52.6266 48.9034L49.182 42.3968C48.1782 40.4964 47.6084 38.3971 47.5137 36.25H59.9863C59.8916 38.3971 59.3218 40.4964 58.318 42.3968L54.8734 48.9034C54.6943 49.2412 54.6007 49.6177 54.6007 50C54.6007 50.3823 54.6943 50.7588 54.8734 51.0966L58.318 57.6032C59.3218 59.5036 59.8916 61.6029 59.9863 63.75H47.5137C47.6084 61.6029 48.1782 59.5036 49.182 57.6032ZM46.7188 65H60.7812C60.9055 65.0001 61.0247 65.0496 61.1126 65.1374C61.2004 65.2253 61.2499 65.3445 61.25 65.4688V65.625H58.75V66.875H61.25V67.5H46.25V66.875H57.5V65.625H46.25V65.4688C46.2501 65.3445 46.2996 65.2253 46.3874 65.1374C46.4753 65.0496 46.5945 65.0001 46.7188 65Z" fill="url(#paint0_linear_107_9)"/>
<path d="M49.375 40H50.625V41.25H49.375V40Z" fill="url(#paint1_linear_107_9)"/>
<path d="M51.25 41.25H52.5V42.5H51.25V41.25Z" fill="url(#paint2_linear_107_9)"/>
<path d="M53.125 40H54.375V41.25H53.125V40Z" fill="url(#paint3_linear_107_9)"/>
<path d="M55 41.25H56.25V42.5H55V41.25Z" fill="url(#paint4_linear_107_9)"/>
<path d="M56.7236 40H57.9736V41.25H56.7236V40Z" fill="url(#paint5_linear_107_9)"/>
<path d="M50.625 43.125H51.875V44.375H50.625V43.125Z" fill="url(#paint6_linear_107_9)"/>
<path d="M51.875 45H53.125V46.25H51.875V45Z" fill="url(#paint7_linear_107_9)"/>
<path d="M53.75 43.125H55V44.375H53.75V43.125Z" fill="url(#paint8_linear_107_9)"/>
<path d="M54.375 45H55.625V46.25H54.375V45Z" fill="url(#paint9_linear_107_9)"/>
<path d="M53.125 46.729H54.375V47.979H53.125V46.729Z" fill="url(#paint10_linear_107_9)"/>
<path d="M53.125 52.5H54.375V53.75H53.125V52.5Z" fill="url(#paint11_linear_107_9)"/>
<path d="M53.125 55H54.375V56.25H53.125V55Z" fill="url(#paint12_linear_107_9)"/>
<path d="M53.125 59.375H54.375V60.625H53.125V59.375Z" fill="url(#paint13_linear_107_9)"/>
<path d="M53.125 61.875H54.375V63.125H53.125V61.875Z" fill="url(#paint14_linear_107_9)"/>
<path d="M50.625 61.875H51.875V63.125H50.625V61.875Z" fill="url(#paint15_linear_107_9)"/>
<path d="M55.625 61.875H56.875V63.125H55.625V61.875Z" fill="url(#paint16_linear_107_9)"/>
<path d="M58.125 61.875H59.375V63.125H58.125V61.875Z" fill="url(#paint17_linear_107_9)"/>
<path d="M48.125 61.875H49.375V63.125H48.125V61.875Z" fill="url(#paint18_linear_107_9)"/>
<path d="M63.125 37.5C70.0175 37.5 75.625 43.1075 75.625 50C75.625 56.8925 70.0175 62.5 63.125 62.5C62.9592 62.5 62.8003 62.5658 62.6831 62.6831C62.5658 62.8003 62.5 62.9592 62.5 63.125C62.5 63.2908 62.5658 63.4497 62.6831 63.5669C62.8003 63.6842 62.9592 63.75 63.125 63.75C70.7068 63.75 76.875 57.5818 76.875 50C76.875 42.4182 70.7068 36.25 63.125 36.25C62.9592 36.25 62.8003 36.3158 62.6831 36.4331C62.5658 36.5503 62.5 36.7092 62.5 36.875C62.5 37.0408 62.5658 37.1997 62.6831 37.3169C62.8003 37.4342 62.9592 37.5 63.125 37.5Z" fill="url(#paint19_linear_107_9)"/>
<path d="M67.8837 43.8815C67.819 43.8311 67.7449 43.794 67.6658 43.7722C67.5866 43.7504 67.504 43.7444 67.4225 43.7546C67.3411 43.7647 67.2624 43.7908 67.1911 43.8314C67.1197 43.8719 67.057 43.9261 67.0066 43.9909L63.2957 48.7626C63.1102 48.7373 62.9214 48.754 62.7432 48.8115C62.565 48.869 62.402 48.9658 62.2663 49.0947C62.1306 49.2236 62.0255 49.3815 61.959 49.5564C61.8925 49.7314 61.8661 49.9192 61.8819 50.1057C61.8977 50.2923 61.9552 50.4729 62.0501 50.6342C62.1451 50.7956 62.2752 50.9335 62.4306 51.0378C62.5861 51.1421 62.763 51.2102 62.9483 51.2369C63.1336 51.2637 63.3225 51.2484 63.5012 51.1923L70.2026 57.3358C70.3249 57.4478 70.4866 57.5067 70.6523 57.4995C70.8179 57.4922 70.9739 57.4195 71.0859 57.2972C71.1979 57.175 71.2568 57.0132 71.2496 56.8476C71.2423 56.682 71.1696 56.526 71.0473 56.414L64.3448 50.2702C64.4004 50.0227 64.3786 49.7642 64.2823 49.5295L67.9933 44.7586C68.0437 44.6939 68.0808 44.6198 68.1026 44.5406C68.1244 44.4615 68.1303 44.3788 68.1202 44.2974C68.11 44.216 68.0839 44.1373 68.0433 44.066C68.0028 43.9946 67.9485 43.9319 67.8837 43.8815Z" fill="url(#paint20_linear_107_9)"/>
<path d="M21.564 81.488V80.528H21.072V81.488H21.564ZM22.632 84.8V82.676H22.104V84.62C22.104 84.776 22.116 84.788 22.2 84.788H22.416C22.524 84.788 22.548 84.788 22.572 84.752C22.584 84.764 22.608 84.788 22.632 84.8ZM19.848 88.112H22.632V87.296H19.848V88.112ZM20.376 82.676H19.848V85.328C20.316 84.812 20.376 84.152 20.376 83.612V82.676ZM22.524 85.484H22.116C21.6 85.484 21.444 85.328 21.444 84.62V82.676H21.036V83.624C21.036 84.296 20.904 85.184 20.352 85.808C20.244 85.688 20.004 85.46 19.848 85.364V86.312H22.632V85.484H22.524ZM18.528 80.528L18.54 79.268H23.988V80.528H22.512V81.488H23.772V89.816H22.632V89.216H19.848V89.972H18.756V81.488H20.148V80.528H18.528ZM26.436 88.544H27.78C28.236 88.544 28.308 88.256 28.38 86.672C28.692 86.9 29.292 87.152 29.664 87.236C29.52 89.264 29.136 89.876 27.9 89.876H26.232C24.9 89.876 24.48 89.468 24.48 87.992V83.012H27.828V80.756H24.432V79.376H29.208V85.112H27.828V84.368H25.896V87.98C25.896 88.484 25.968 88.544 26.436 88.544ZM39.36 80.408H32.964V81.068H39.36V80.408ZM40.8 82.16H32.964V82.844C32.964 84.932 32.784 88.028 31.572 89.984C31.308 89.78 30.684 89.408 30.324 89.276C31.476 87.44 31.56 84.752 31.56 82.844V79.316H40.8V82.16ZM39.444 89.084H39.504C39.624 89.084 39.66 89.06 39.66 88.94V87.452H37.62V88.1L38.184 88.088C38.136 87.956 38.088 87.836 38.04 87.728L38.856 87.524C39.108 88.016 39.348 88.652 39.444 89.084ZM34.896 85.28H36.336V84.716H34.896V85.28ZM39.084 84.716H37.62V85.28H39.084V84.716ZM40.968 86.528V88.94C40.968 89.48 40.884 89.72 40.524 89.876C40.188 90.032 39.696 90.032 39.048 90.032C39.012 89.816 38.928 89.576 38.832 89.372L38.628 89.432C38.604 89.3 38.556 89.144 38.508 88.976C37.164 89.06 35.832 89.132 34.8 89.192L34.716 88.208L36.336 88.148V87.452H34.452V90.044H33.156V86.528H36.336V86.072H33.636V83.936H36.336V83.504C35.448 83.564 34.548 83.588 33.72 83.588C33.684 83.336 33.564 82.952 33.444 82.724C35.604 82.688 38.184 82.544 39.588 82.232L40.392 83.036C39.6 83.204 38.64 83.324 37.62 83.42V83.936H40.416V86.072H37.62V86.528H40.968ZM48.828 79.496C48.528 79.916 48.228 80.456 48.084 80.72H50.52C50.892 80.72 51.3 80.672 51.564 80.588L52.788 81.344C52.656 81.572 52.5 81.896 52.392 82.196C52.068 83.168 51.468 84.452 50.616 85.652C51.132 86.024 51.6 86.372 51.948 86.66L50.808 88.016C50.484 87.716 50.04 87.344 49.548 86.948C48.492 88.064 47.124 89.084 45.252 89.792L43.86 88.58C45.936 87.944 47.268 86.972 48.264 85.976C47.484 85.4 46.692 84.86 46.08 84.476L47.148 83.384C47.784 83.744 48.54 84.236 49.296 84.74C49.92 83.876 50.436 82.832 50.616 82.088H47.184C46.344 83.204 45.228 84.356 44.016 85.196L42.72 84.2C44.82 82.892 45.936 81.248 46.536 80.204C46.728 79.916 46.98 79.364 47.088 78.956L48.828 79.496ZM54.744 84.332C56.892 83.78 58.656 83 59.988 82.184C61.224 81.416 62.592 80.216 63.372 79.268L64.668 80.504C63.756 81.404 62.604 82.34 61.44 83.108V87.956C61.44 88.484 61.464 89.228 61.548 89.528H59.652C59.7 89.24 59.736 88.484 59.736 87.956V84.116C58.5 84.764 56.976 85.412 55.5 85.844L54.744 84.332ZM72.4256 79.952C72.2696 80.312 72.0896 80.756 71.9096 81.284C71.5256 82.46 70.5536 85.508 69.9536 87.116C71.4176 86.972 73.1216 86.78 74.3336 86.636C73.9136 85.772 73.4696 84.968 73.0736 84.44L74.5736 83.828C75.4256 85.124 76.6496 87.476 77.2016 88.82L75.5816 89.54C75.4256 89.132 75.2336 88.64 75.0056 88.124C73.0616 88.352 69.4256 88.736 67.9136 88.892C67.6136 88.928 67.1696 88.988 66.7856 89.036L66.5096 87.284C66.9176 87.284 67.4336 87.284 67.8296 87.272C67.9256 87.272 68.0456 87.26 68.1536 87.26C68.8496 85.484 69.8816 82.196 70.2296 80.948C70.3976 80.336 70.4696 79.964 70.5176 79.556L72.4256 79.952ZM79.844 79.796C80.18 79.844 80.684 79.856 81.092 79.856H85.712C86.084 79.856 86.672 79.844 87.008 79.796V81.344C86.684 81.32 86.12 81.308 85.688 81.308H81.092C80.708 81.308 80.192 81.32 79.844 81.344V79.796ZM88.016 83.276C87.932 83.432 87.836 83.648 87.788 83.78C87.428 84.944 86.912 86.108 86.012 87.104C84.8 88.448 83.264 89.264 81.728 89.696L80.54 88.34C82.34 87.968 83.78 87.176 84.692 86.24C85.34 85.58 85.712 84.836 85.928 84.164H80.132C79.844 84.164 79.244 84.176 78.74 84.224V82.664C79.244 82.7 79.76 82.736 80.132 82.736H86.072C86.456 82.736 86.78 82.688 86.948 82.616L88.016 83.276ZM98.516 79.172C98.816 79.604 99.248 80.372 99.464 80.816L98.576 81.188L99.596 81.812C99.464 82.04 99.296 82.376 99.2 82.676C98.876 83.744 98.192 85.34 97.1 86.672C95.96 88.076 94.52 89.168 92.264 90.068L90.848 88.796C93.296 88.064 94.628 87.02 95.684 85.82C96.5 84.896 97.196 83.444 97.388 82.556H94.016C93.212 83.6 92.168 84.656 90.98 85.46L89.636 84.452C91.736 83.18 92.792 81.62 93.38 80.588C93.56 80.3 93.812 79.748 93.92 79.34L95.684 79.916C95.396 80.336 95.084 80.876 94.952 81.14C94.94 81.164 94.928 81.176 94.916 81.2H97.316C97.688 81.2 98.096 81.14 98.36 81.056L98.444 81.104C98.204 80.624 97.868 79.988 97.568 79.556L98.516 79.172ZM99.932 78.632C100.244 79.076 100.688 79.844 100.904 80.264L99.956 80.672C99.704 80.168 99.32 79.472 98.984 79.016L99.932 78.632Z" fill="#005694"/>
<defs>
<linearGradient id="paint0_linear_107_9" x1="45" y1="50" x2="62.5" y2="50" gradientUnits="userSpaceOnUse">
<stop stop-color="#4889D8"/>
<stop offset="1" stop-color="#63B1C2"/>
</linearGradient>
<linearGradient id="paint1_linear_107_9" x1="49.375" y1="40.625" x2="50.625" y2="40.625" gradientUnits="userSpaceOnUse">
<stop stop-color="#4889D8"/>
<stop offset="1" stop-color="#63B1C2"/>
</linearGradient>
<linearGradient id="paint2_linear_107_9" x1="51.25" y1="41.875" x2="52.5" y2="41.875" gradientUnits="userSpaceOnUse">
<stop stop-color="#4889D8"/>
<stop offset="1" stop-color="#63B1C2"/>
</linearGradient>
<linearGradient id="paint3_linear_107_9" x1="53.125" y1="40.625" x2="54.375" y2="40.625" gradientUnits="userSpaceOnUse">
<stop stop-color="#4889D8"/>
<stop offset="1" stop-color="#63B1C2"/>
</linearGradient>
<linearGradient id="paint4_linear_107_9" x1="55" y1="41.875" x2="56.25" y2="41.875" gradientUnits="userSpaceOnUse">
<stop stop-color="#4889D8"/>
<stop offset="1" stop-color="#63B1C2"/>
</linearGradient>
<linearGradient id="paint5_linear_107_9" x1="56.7236" y1="40.625" x2="57.9736" y2="40.625" gradientUnits="userSpaceOnUse">
<stop stop-color="#4889D8"/>
<stop offset="1" stop-color="#63B1C2"/>
</linearGradient>
<linearGradient id="paint6_linear_107_9" x1="50.625" y1="43.75" x2="51.875" y2="43.75" gradientUnits="userSpaceOnUse">
<stop stop-color="#4889D8"/>
<stop offset="1" stop-color="#63B1C2"/>
</linearGradient>
<linearGradient id="paint7_linear_107_9" x1="51.875" y1="45.625" x2="53.125" y2="45.625" gradientUnits="userSpaceOnUse">
<stop stop-color="#4889D8"/>
<stop offset="1" stop-color="#63B1C2"/>
</linearGradient>
<linearGradient id="paint8_linear_107_9" x1="53.75" y1="43.75" x2="55" y2="43.75" gradientUnits="userSpaceOnUse">
<stop stop-color="#4889D8"/>
<stop offset="1" stop-color="#63B1C2"/>
</linearGradient>
<linearGradient id="paint9_linear_107_9" x1="54.375" y1="45.625" x2="55.625" y2="45.625" gradientUnits="userSpaceOnUse">
<stop stop-color="#4889D8"/>
<stop offset="1" stop-color="#63B1C2"/>
</linearGradient>
<linearGradient id="paint10_linear_107_9" x1="53.125" y1="47.354" x2="54.375" y2="47.354" gradientUnits="userSpaceOnUse">
<stop stop-color="#4889D8"/>
<stop offset="1" stop-color="#63B1C2"/>
</linearGradient>
<linearGradient id="paint11_linear_107_9" x1="53.125" y1="53.125" x2="54.375" y2="53.125" gradientUnits="userSpaceOnUse">
<stop stop-color="#4889D8"/>
<stop offset="1" stop-color="#63B1C2"/>
</linearGradient>
<linearGradient id="paint12_linear_107_9" x1="53.125" y1="55.625" x2="54.375" y2="55.625" gradientUnits="userSpaceOnUse">
<stop stop-color="#4889D8"/>
<stop offset="1" stop-color="#63B1C2"/>
</linearGradient>
<linearGradient id="paint13_linear_107_9" x1="53.125" y1="60" x2="54.375" y2="60" gradientUnits="userSpaceOnUse">
<stop stop-color="#4889D8"/>
<stop offset="1" stop-color="#63B1C2"/>
</linearGradient>
<linearGradient id="paint14_linear_107_9" x1="53.125" y1="62.5" x2="54.375" y2="62.5" gradientUnits="userSpaceOnUse">
<stop stop-color="#4889D8"/>
<stop offset="1" stop-color="#63B1C2"/>
</linearGradient>
<linearGradient id="paint15_linear_107_9" x1="50.625" y1="62.5" x2="51.875" y2="62.5" gradientUnits="userSpaceOnUse">
<stop stop-color="#4889D8"/>
<stop offset="1" stop-color="#63B1C2"/>
</linearGradient>
<linearGradient id="paint16_linear_107_9" x1="55.625" y1="62.5" x2="56.875" y2="62.5" gradientUnits="userSpaceOnUse">
<stop stop-color="#4889D8"/>
<stop offset="1" stop-color="#63B1C2"/>
</linearGradient>
<linearGradient id="paint17_linear_107_9" x1="58.125" y1="62.5" x2="59.375" y2="62.5" gradientUnits="userSpaceOnUse">
<stop stop-color="#4889D8"/>
<stop offset="1" stop-color="#63B1C2"/>
</linearGradient>
<linearGradient id="paint18_linear_107_9" x1="48.125" y1="62.5" x2="49.375" y2="62.5" gradientUnits="userSpaceOnUse">
<stop stop-color="#4889D8"/>
<stop offset="1" stop-color="#63B1C2"/>
</linearGradient>
<linearGradient id="paint19_linear_107_9" x1="62.5" y1="50" x2="76.875" y2="50" gradientUnits="userSpaceOnUse">
<stop stop-color="#4889D8"/>
<stop offset="1" stop-color="#63B1C2"/>
</linearGradient>
<linearGradient id="paint20_linear_107_9" x1="61.8774" y1="50.6249" x2="71.2502" y2="50.6249" gradientUnits="userSpaceOnUse">
<stop stop-color="#4889D8"/>
<stop offset="1" stop-color="#63B1C2"/>
</linearGradient>
</defs>
</svg>
