<svg width="140" height="24" viewBox="0 0 140 24" fill="none" xmlns="http://www.w3.org/2000/svg">
<g clip-path="url(#clip0_345_8277)">
<path d="M35.63 8.06662L38.85 16.2L42.07 8.06662H43.89V17.7333H42.63V9.66662L39.48 17.7333H38.36L35.21 9.66662V17.7333H33.95V8.06662H35.63ZM48.72 10.5333C50.54 10.5333 51.45 11.1333 51.45 12.4V16.4666C51.45 16.7333 51.59 16.8666 51.8 16.8666C51.94 16.8666 52.08 16.8666 52.15 16.8V17.6666C51.87 17.8 51.59 17.8666 51.31 17.8666C50.61 17.8666 50.26 17.5333 50.26 16.8C49.63 17.5333 48.65 17.9333 47.67 17.8666C47.04 17.9333 46.41 17.7333 45.92 17.3333C45.5 17 45.22 16.4 45.29 15.8666C45.29 15.3333 45.5 14.7333 45.92 14.4C46.34 14 47.32 13.7333 48.86 13.5333C49.21 13.5333 49.63 13.4 49.91 13.2666C50.12 13.1333 50.19 12.9333 50.19 12.6666C50.19 11.9333 49.63 11.5333 48.58 11.5333C48.09 11.5333 47.67 11.6 47.25 11.8666C46.9 12.1333 46.76 12.4666 46.76 12.8666H45.57C45.64 11.3333 46.69 10.5333 48.72 10.5333ZM46.55 15.8C46.55 16.0666 46.69 16.4 46.9 16.5333C47.18 16.7333 47.6 16.8 47.95 16.8C48.51 16.8 49.07 16.6666 49.56 16.3333C49.98 16.0666 50.19 15.6666 50.19 15.2666V14.0666C49.91 14.2 49.63 14.3333 49.35 14.3333L48.09 14.5333C47.67 14.5333 47.25 14.7333 46.9 14.9333C46.69 15.2 46.55 15.4666 46.55 15.8ZM56.84 10.5333C58.52 10.5333 59.36 11.4 59.36 13.0666V17.7333H58.17V12.9333C58.17 12.6 58.03 12.2 57.82 11.9333C57.54 11.6666 57.12 11.5333 56.7 11.5333C56.07 11.4666 55.51 11.7333 55.09 12.1333C54.67 12.5333 54.53 13.1333 54.53 13.6666V17.6666H53.34V10.7333H54.46V11.8666C54.95 11 55.86 10.5333 56.84 10.5333ZM64.54 10.5333C65.45 10.4666 66.36 10.8666 66.99 11.5333C67.62 12.2666 67.97 13.2666 67.9 14.2C67.97 15.1333 67.62 16.0666 66.99 16.8666C66.36 17.5333 65.45 17.9333 64.54 17.8666C64.05 17.8666 63.63 17.8 63.21 17.6C62.79 17.4 62.44 17.1333 62.16 16.8V20.4H60.97V10.7333H62.16V11.6666C62.65 10.9333 63.42 10.5333 64.54 10.5333ZM62.16 14.2C62.09 14.8666 62.3 15.6 62.79 16.1333C63.21 16.6 63.84 16.8666 64.47 16.8666C65.1 16.8666 65.73 16.6 66.08 16.1333C66.5 15.5333 66.71 14.8666 66.64 14.1333C66.64 13.4666 66.43 12.8 66.01 12.2666C65.59 11.8 64.96 11.5333 64.33 11.5333C63.7 11.5333 63.07 11.8 62.72 12.2666C62.3 12.8 62.09 13.5333 62.16 14.2ZM72.38 10.5333C73.36 10.4666 74.34 10.8666 74.97 11.5333C76.23 13.0666 76.23 15.2666 74.97 16.8C74.34 17.4666 73.36 17.8666 72.38 17.8C71.4 17.8666 70.49 17.4666 69.79 16.8C69.09 16.0666 68.74 15.1333 68.81 14.1333C68.74 13.1333 69.09 12.2 69.79 11.4666C70.42 10.8666 71.4 10.4666 72.38 10.5333ZM70.07 14.2C70.07 14.8666 70.28 15.5333 70.7 16.1333C71.12 16.6 71.68 16.8666 72.31 16.8666C72.94 16.8666 73.57 16.6 73.99 16.1333C74.41 15.6 74.69 14.9333 74.62 14.2C74.62 13.5333 74.41 12.8 73.99 12.2666C73.57 11.8 72.94 11.5333 72.31 11.5333C71.68 11.5333 71.05 11.8 70.7 12.2666C70.28 12.8666 70.07 13.5333 70.07 14.2ZM77.7 10.7333L79.38 16.4666L80.85 10.7333H82.18L83.72 16.4666L85.4 10.7333H86.66L84.35 17.7333H83.09L81.55 12.2L80.08 17.7333H78.75L76.37 10.7333H77.7ZM90.37 10.5333C91.35 10.4666 92.26 10.8666 92.82 11.6C93.45 12.4 93.73 13.4 93.73 14.4V14.5333H88.2V14.6C88.2 15.2 88.41 15.8 88.83 16.2C89.25 16.6 89.88 16.8666 90.51 16.8C91.56 16.8 92.19 16.3333 92.4 15.4666H93.59C93.45 16.1333 93.1 16.8 92.54 17.2666C91.91 17.6666 91.21 17.8666 90.44 17.8666C89.25 17.8666 88.41 17.5333 87.78 16.8C87.15 16.0666 86.87 15.1333 86.87 14.2C86.87 13.2666 87.22 12.3333 87.85 11.6C88.48 10.8666 89.39 10.5333 90.37 10.5333ZM92.4 13.5333C92.4 13 92.12 12.4666 91.77 12.1333C91.35 11.7333 90.86 11.5333 90.3 11.6C89.74 11.6 89.25 11.8 88.9 12.1333C88.48 12.5333 88.27 13 88.2 13.6H92.4V13.5333ZM98.77 10.5333V11.7333C97.86 11.7333 97.16 11.9333 96.74 12.4C96.32 12.8666 96.11 13.6 96.11 14.5333V17.6666H94.92V10.7333H96.04V12.2C96.6 11.1333 97.44 10.5333 98.56 10.5333H98.77ZM104.37 7.79996C105.42 7.73329 106.47 8.06662 107.31 8.59996C108.08 9.19996 108.64 10.0666 108.71 11H107.38C107.31 10.4 106.96 9.79996 106.4 9.39996C105.77 8.99996 105.07 8.79996 104.37 8.86662C103.39 8.86662 102.48 9.26662 101.85 9.99996C101.22 10.7333 100.87 11.7333 100.87 13C100.87 14 101.15 15 101.85 15.7333C102.48 16.4666 103.39 16.8666 104.37 16.8666C105.21 16.8666 106.05 16.6 106.68 16.0666C107.31 15.4666 107.66 14.7333 107.59 13.8666V13.7333H104.37V12.6666H108.85V17.7333H108.01L107.66 16.5333C107.31 17 106.82 17.3333 106.26 17.6C105.7 17.8666 105.07 18 104.44 18C103.11 18 101.85 17.5333 101.01 16.6C100.1 15.6666 99.61 14.4 99.61 13.1333C99.61 11.6 100.03 10.3333 100.87 9.33329C101.71 8.26662 102.9 7.79996 104.37 7.79996ZM114.31 10.5333V11.7333C113.4 11.7333 112.7 11.9333 112.28 12.4C111.86 12.8666 111.65 13.6 111.65 14.5333V17.6666H110.46V10.7333H111.58V12.2C112.14 11.1333 112.98 10.5333 114.1 10.5333H114.31ZM118.16 10.5333C119.14 10.4666 120.12 10.8666 120.75 11.5333C122.01 13.0666 122.01 15.2666 120.75 16.8C120.12 17.4666 119.14 17.8666 118.16 17.8C117.18 17.8666 116.27 17.4666 115.57 16.8C114.87 16.0666 114.52 15.1333 114.59 14.1333C114.52 13.1333 114.87 12.2 115.57 11.4666C116.2 10.8666 117.18 10.4666 118.16 10.5333ZM115.85 14.2C115.85 14.8666 116.06 15.5333 116.48 16.1333C116.9 16.6 117.46 16.8666 118.09 16.8666C118.72 16.8666 119.35 16.6 119.77 16.1333C120.19 15.6 120.47 14.9333 120.4 14.2C120.4 13.5333 120.19 12.8 119.77 12.2666C119.35 11.8 118.72 11.5333 118.09 11.5333C117.46 11.5333 116.83 11.8 116.48 12.2666C116.06 12.8666 115.85 13.5333 115.85 14.2ZM124.11 10.7333V15.4666C124.11 15.8666 124.25 16.2 124.53 16.4666C124.81 16.7333 125.23 16.8666 125.65 16.8666C126.28 16.9333 126.84 16.6666 127.26 16.2666C127.61 15.8 127.82 15.2666 127.82 14.7333V10.7333H129.01V17.7333H127.89V16.6C127.4 17.4 126.49 17.9333 125.51 17.8666C123.83 17.8666 122.99 17.0666 122.99 15.4V10.7333H124.11ZM134.19 10.5333C135.1 10.4666 136.01 10.8666 136.64 11.5333C137.27 12.2666 137.62 13.2666 137.55 14.2C137.62 15.1333 137.27 16.0666 136.64 16.8666C136.01 17.5333 135.1 17.9333 134.19 17.8666C133.7 17.8666 133.28 17.8 132.86 17.6C132.44 17.4 132.09 17.1333 131.81 16.8V20.4H130.62V10.7333H131.81V11.6666C132.23 10.9333 133 10.5333 134.19 10.5333ZM131.74 14.2C131.67 14.8666 131.88 15.6 132.37 16.1333C132.79 16.6 133.42 16.8666 134.05 16.8666C134.68 16.8666 135.31 16.6 135.66 16.1333C136.08 15.5333 136.29 14.8666 136.22 14.1333C136.22 13.4666 136.01 12.8 135.59 12.2666C135.17 11.8 134.54 11.5333 133.91 11.5333C133.28 11.5333 132.65 11.8 132.3 12.2666C131.88 12.8 131.67 13.5333 131.74 14.2Z" fill="#386097"/>
<path fill-rule="evenodd" clip-rule="evenodd" d="M2.8 14.4665C2.52 15.1999 1.68 15.5332 0.979996 15.2665C0.209996 14.9999 -0.140004 14.1999 0.139996 13.5332L3.01 5.93321C3.29 5.19987 4.13 4.86654 4.83 5.13321C5.6 5.39987 5.95 6.19987 5.67 6.86654L2.8 14.4665Z" fill="#386097"/>
<path fill-rule="evenodd" clip-rule="evenodd" d="M7.69998 16.4C7.34998 17.3333 6.29998 17.8 5.31998 17.4667C4.33998 17.1333 3.84999 16.1333 4.19998 15.2L8.11999 4.93334C8.46999 4.00001 9.51998 3.53334 10.5 3.86667C11.48 4.20001 11.97 5.20001 11.62 6.13334L7.69998 16.4Z" fill="#4C79AF"/>
<path fill-rule="evenodd" clip-rule="evenodd" d="M13.93 18.867C13.44 20.1337 12.04 20.7337 10.71 20.267C9.38 19.8003 8.75 18.467 9.24 17.2003L14.42 3.73366C14.7 2.93366 15.4 2.33366 16.31 2.20033C17.22 2.06699 18.06 2.33366 18.69 3.00033C19.32 3.66699 19.46 4.53366 19.11 5.33366L13.93 18.867Z" fill="#5C7D70"/>
<path fill-rule="evenodd" clip-rule="evenodd" d="M21.77 21.8668C21.14 23.5334 19.25 24.3334 17.5 23.7334C15.75 23.1334 14.91 21.3334 15.54 19.6667L22.26 2.13342C22.68 1.06675 23.66 0.266748 24.78 0.0667484C25.97 -0.133252 27.16 0.266748 27.93 1.13342C28.7 2.00008 28.91 3.20008 28.49 4.26675L21.77 21.8668Z" fill="#C25700"/>
<path d="M137.48 8.60013C137.55 8.4668 137.62 8.33346 137.69 8.2668C137.76 8.20013 137.9 8.13347 138.04 8.0668C138.6 7.8668 139.23 8.0668 139.44 8.60013C139.51 8.73346 139.51 8.8668 139.51 9.00013C139.51 9.13346 139.51 9.2668 139.44 9.40013C139.37 9.53347 139.3 9.6668 139.23 9.73347C139.16 9.80013 139.02 9.93346 138.88 9.93346C138.6 10.0668 138.32 10.0668 138.04 9.93346C137.9 9.8668 137.76 9.80013 137.69 9.73347C137.62 9.6668 137.48 9.53347 137.48 9.40013C137.41 9.2668 137.41 9.13346 137.41 9.00013C137.34 8.8668 137.41 8.73346 137.48 8.60013ZM137.62 9.33346C137.69 9.4668 137.76 9.53346 137.83 9.60013C137.9 9.6668 138.04 9.73346 138.11 9.80013C138.25 9.8668 138.32 9.8668 138.46 9.8668C138.6 9.8668 138.67 9.8668 138.81 9.80013C138.95 9.73346 139.02 9.6668 139.09 9.60013C139.16 9.53346 139.23 9.40013 139.3 9.33346C139.37 9.20013 139.37 9.0668 139.37 9.00013C139.37 8.8668 139.37 8.73346 139.3 8.6668C139.23 8.4668 139.02 8.2668 138.81 8.20013C138.67 8.13346 138.6 8.13346 138.46 8.13346C138.25 8.13346 137.97 8.20013 137.83 8.40013C137.76 8.4668 137.69 8.60013 137.62 8.6668C137.55 8.80013 137.55 8.8668 137.55 9.00013C137.55 9.13346 137.62 9.2668 137.62 9.33346ZM138.53 8.40013C138.67 8.40013 138.74 8.40013 138.88 8.4668C138.95 8.53346 139.02 8.60013 139.02 8.73347C139.02 8.80013 139.02 8.93346 138.95 9.00013C138.88 9.0668 138.81 9.0668 138.74 9.0668L139.09 9.60013H138.88L138.53 9.0668H138.32V9.60013H138.11V8.40013H138.53ZM138.46 8.93346C138.53 8.93346 138.53 8.93346 138.6 8.93346C138.67 8.93346 138.67 8.93346 138.74 8.93346L138.81 8.8668C138.81 8.80013 138.81 8.80013 138.81 8.73347C138.81 8.6668 138.81 8.6668 138.81 8.6668L138.74 8.60013H138.67H138.6H138.32V9.00013H138.46V8.93346Z" fill="#386097"/>
</g>
<defs>
<clipPath id="clip0_345_8277">
<rect width="140" height="24" fill="white"/>
</clipPath>
</defs>
</svg>
