<svg width="108" height="24" viewBox="0 0 108 24" fill="none" xmlns="http://www.w3.org/2000/svg">
<g clip-path="url(#clip0_345_8268)">
<path d="M50.3846 16.2705C49.3462 14.7801 49.3462 13.0346 49.3462 12.014C49.3462 10.9127 49.3462 9.16722 50.3846 7.69722C51.4231 6.22722 53.5092 5.03155 57.6755 5.03155C61.8418 5.03155 63.9251 6.26736 64.9663 7.75962C66.0076 9.25187 66.0089 10.9956 66.0089 12.0154C66.0089 13.1175 66.009 14.8644 64.9663 16.3329C63.9237 17.8015 61.8421 19 57.6762 19C53.5102 19 51.4258 17.7628 50.3846 16.2705ZM53.4655 9.52153C52.8625 10.3712 52.8625 11.379 52.8625 12.0147C52.8026 12.8806 53.0141 13.7432 53.4655 14.4743C54.0671 15.334 55.2707 16.0476 57.6762 16.0476C60.0816 16.0476 61.2865 15.3569 61.8881 14.5086C62.4898 13.6604 62.4878 12.6533 62.4878 12.0154C62.5476 11.1506 62.3377 10.2883 61.8881 9.55729C61.2865 8.69575 60.083 7.98257 57.6762 7.98257C55.2694 7.98257 54.0665 8.67148 53.4648 9.52153H53.4655ZM93.691 18.1292C92.2064 17.515 91.2855 16.4779 91.2855 14.7778H94.6281C94.6281 14.7778 94.716 15.1573 95.3623 15.5386C96.0086 15.9198 97.2214 16.3007 99.4756 16.3007C101.73 16.3007 103.013 16.1249 103.733 15.8478C104.453 15.5706 104.612 15.1885 104.612 14.7778C104.612 14.3672 104.455 14.0262 103.733 13.7591C103.011 13.492 101.726 13.2998 99.4756 13.1828C97.2256 13.0658 95.2575 12.9549 93.8594 12.4045C92.4613 11.8542 91.6256 10.8716 91.6256 8.9985C91.6256 7.12537 92.7823 6.12657 94.3428 5.59385C95.9032 5.06113 97.8653 5 99.4756 5C101.086 5 103.045 5.0646 104.605 5.59876C106.165 6.13291 107.322 7.13147 107.322 8.9985H103.978C103.978 8.9985 103.978 8.69091 103.416 8.38291C102.853 8.07491 101.726 7.76593 99.4756 7.76593C97.5371 7.76593 96.4105 7.93771 95.7666 8.17678C95.1228 8.41586 94.9668 8.72496 94.9668 8.9985C94.9668 9.27204 95.0469 9.6519 95.6517 9.98287C96.2505 10.316 97.3824 10.6036 99.4756 10.6973C101.726 10.7982 103.858 10.8221 105.429 11.3171C107.001 11.8121 108.002 12.783 108.002 14.7785C108.002 16.7741 106.997 17.8095 105.429 18.3487C103.862 18.8878 101.726 18.9285 99.4756 18.9285C97.2256 18.9285 95.1736 18.7405 93.6904 18.1299L93.691 18.1292ZM87.4677 18.7644H85.7964V9.97516H89.1403V18.7644H87.4677ZM71.7502 18.7644H67.9114V15.9109H75.5896C77.9937 15.9109 79.2 15.2419 79.8003 14.4217C80.4005 13.6014 80.4013 12.6233 80.4013 12.0112C80.4608 11.1712 80.2497 10.3346 79.8003 9.63301C79.2 8.79876 77.9937 8.10948 75.5896 8.10948H71.2519V14.3705H67.912V5.25661H75.5903C79.7563 5.25661 81.8382 6.45187 82.8818 7.89423C83.9255 9.33659 83.923 11.0233 83.923 12.0112C83.923 13.077 83.9231 14.7637 82.8818 16.1878C81.8406 17.6119 79.7563 18.7644 75.5903 18.7644H71.7502ZM15.8253 18.7644H14.1554V7.70773L9.33226 13.2361L4.50977 18.7644H0.000976562L5.89235 12.0112L11.7824 5.25661H17.4966V18.7644H15.8253Z" fill="#0A1D2A"/>
<path d="M47.1978 18.7643H44.7747L41.9987 16.0201L39.2227 13.2752L37.2492 14.7798L35.2764 16.2844L36.5306 17.5233L37.7847 18.7643H32.9386L30.1504 16.0089L27.3602 13.2535L25.3205 14.8107L23.2807 16.3665V18.7643H19.9375V5.2558H23.2807V12.0602L27.7388 8.65834L32.1989 5.2551H37.8415L33.9696 8.21103L30.0963 11.1656L31.4552 12.5089L32.8148 13.8537L38.4506 9.55437L44.0871 5.25439H49.729L45.8422 8.22224L41.9548 11.188L45.7875 14.9754L49.6202 18.7636L47.1978 18.7643ZM87.47 8.16475H85.7987V5.2572H89.1412V8.16475H87.47Z" fill="#FABD00"/>
</g>
<defs>
<clipPath id="clip0_345_8268">
<rect width="108" height="24" fill="white"/>
</clipPath>
</defs>
</svg>
