<svg width="290" height="37" viewBox="0 0 290 37" fill="none" xmlns="http://www.w3.org/2000/svg">
<g clip-path="url(#clip0_345_7026)">
<path fill-rule="evenodd" clip-rule="evenodd" d="M65.9055 23.4914C66.7309 22.694 67.3831 21.7365 67.8215 20.6781C68.3008 19.5068 68.5381 18.2514 68.5192 16.9868V0.213445H63.7826V16.8092C63.8589 18.0631 63.4506 19.2986 62.6411 20.2625C62.2457 20.6769 61.7651 21.0015 61.2321 21.2144C60.6992 21.4272 60.1264 21.5232 59.5528 21.4958C58.9818 21.5246 58.4114 21.4291 57.8812 21.2161C57.3511 21.0031 56.8739 20.6777 56.483 20.2625C55.6844 19.2935 55.283 18.0601 55.3589 16.8092V0.214677H50.6148V16.988C50.5971 18.2529 50.8357 19.5083 51.3163 20.6794C51.7546 21.7372 52.4058 22.6946 53.2298 23.4926C54.0477 24.2741 55.0114 24.8888 56.0666 25.3019C58.3216 26.1616 60.8162 26.1616 63.0712 25.3019C64.1263 24.8896 65.0894 24.2743 65.9055 23.4914ZM88.9568 21.2886H78.5478L88.9518 4.15764V0.210977H73.4343V4.65098H83.3588L72.9907 21.7178V25.7311H88.9518V21.2911L88.9568 21.2886ZM111.366 0.214677H106.62V16.8092C106.696 18.0631 106.287 19.2985 105.478 20.2625C105.083 20.677 104.602 21.0018 104.069 21.2146C103.536 21.4274 102.963 21.5234 102.39 21.4958C101.819 21.5245 101.248 21.429 100.718 21.216C100.188 21.003 99.7109 20.6776 99.32 20.2625C98.5212 19.2935 98.1193 18.0603 98.1947 16.8092V0.214677H93.4543V16.988C93.4365 18.2529 93.675 19.5083 94.1557 20.6794C94.5931 21.7377 95.2444 22.6952 96.0692 23.4926C96.8856 24.2749 97.8487 24.8896 98.9035 25.3019C101.159 26.1622 103.655 26.1622 105.911 25.3019C106.966 24.8893 107.929 24.2746 108.746 23.4926C109.571 22.6952 110.222 21.7377 110.66 20.6794C111.14 19.5083 111.379 18.2529 111.361 16.988V0.214677H111.366ZM116.279 4.65468H126.201L115.833 21.7129V25.7262H131.795V21.2862H121.392L131.795 4.15518V0.208512H116.274V4.64851L116.279 4.65468ZM149.413 7.93164C149.47 7.4988 149.59 7.0766 149.77 6.67858C149.936 6.34841 150.144 6.04118 150.39 5.76468C151.123 4.98208 152.13 4.51018 153.203 4.4468C154.276 4.38343 155.333 4.73344 156.154 5.42428C156.852 6.1552 157.325 7.06982 157.517 8.05991H162.327C162.079 5.76708 161.008 3.64047 159.309 2.07208C157.52 0.612765 155.245 -0.123514 152.935 0.00946381C150.626 0.142442 148.451 1.13495 146.843 2.78988C145.816 3.8456 145.127 5.17961 144.86 6.62431C144.538 8.72359 144.4 10.8468 144.448 12.9698C144.4 15.092 144.538 17.2144 144.86 19.3128C145.126 20.7577 145.816 22.0918 146.843 23.1473C147.673 24.0488 148.686 24.7644 149.815 25.2465C150.944 25.7285 152.163 25.966 153.391 25.9432C154.494 25.9539 155.59 25.7719 156.63 25.4055C157.609 25.0614 158.513 24.5329 159.292 23.849C160.091 23.1334 160.75 22.2766 161.235 21.3219C161.785 20.2422 162.153 19.0803 162.327 17.8822H157.517C157.325 18.8711 156.852 19.7844 156.154 20.5141C155.79 20.8536 155.361 21.1161 154.892 21.2857C154.424 21.4553 153.925 21.5285 153.427 21.5008C152.852 21.5338 152.277 21.4308 151.75 21.2001C151.222 20.9694 150.757 20.6177 150.392 20.1737C150.147 19.8975 149.939 19.5907 149.773 19.261C149.592 18.8626 149.472 18.44 149.416 18.0067C149.323 17.3525 149.266 16.6938 149.245 16.0334C149.21 15.2342 149.193 14.2134 149.195 12.971C149.195 11.7291 149.21 10.7066 149.245 9.90621C149.264 9.24723 149.318 8.58975 149.408 7.93658L149.413 7.93164ZM183.926 18.7467C184.078 17.859 184.164 16.961 184.181 16.0605C184.203 15.1018 184.214 14.0741 184.213 12.9772C184.212 11.8804 184.202 10.8526 184.181 9.89388C184.164 8.99296 184.078 8.09461 183.926 7.20644C183.786 6.39873 183.545 5.61154 183.209 4.86311C182.857 4.10155 182.379 3.40443 181.794 2.80098C180.978 1.92899 179.999 1.22355 178.911 0.724044C177.756 0.224268 176.505 -0.0226222 175.245 7.7744e-05C173.98 -0.02397 172.724 0.220736 171.561 0.717879C170.467 1.21381 169.481 1.91958 168.661 2.79481C168.075 3.39732 167.597 4.09466 167.247 4.85694C166.911 5.60405 166.676 6.39196 166.548 7.20028C166.408 8.08977 166.327 8.98757 166.307 9.88771C166.287 10.8423 166.276 11.8701 166.274 12.971C166.272 14.072 166.284 15.0998 166.307 16.0544C166.328 16.9541 166.408 17.8515 166.548 18.7406C166.677 19.5488 166.912 20.3366 167.247 21.0839C167.598 21.8452 168.076 22.5416 168.661 23.1436C169.482 24.0189 170.467 24.7254 171.561 25.223C172.724 25.7193 173.98 25.9631 175.245 25.9383C176.505 25.9637 177.755 25.7198 178.911 25.223C179.998 24.7218 180.977 24.0156 181.794 23.1436C182.378 22.5425 182.856 21.8484 183.209 21.0901C183.544 20.3414 183.785 19.5543 183.926 18.7467ZM179.423 16.005C179.402 16.6714 179.339 17.3358 179.235 17.9944C179.172 18.434 179.046 18.8624 178.863 19.2672C178.709 19.5838 178.515 19.879 178.284 20.1453C177.932 20.5598 177.496 20.896 177.005 21.132C176.457 21.3909 175.856 21.5201 175.249 21.5094C174.636 21.5185 174.029 21.3895 173.473 21.132C172.976 20.8982 172.535 20.5619 172.178 20.1453C171.95 19.8803 171.761 19.5847 171.615 19.2672C171.445 18.859 171.326 18.4315 171.26 17.9944C171.153 17.3352 171.087 16.6699 171.064 16.0026C171.032 15.2017 171.015 14.1925 171.014 12.9747C171.014 11.755 171.032 10.7473 171.064 9.94444C171.086 9.27883 171.15 8.61522 171.255 7.95754C171.321 7.52039 171.44 7.09292 171.611 6.68474C171.757 6.36732 171.946 6.07142 172.173 5.80538C172.53 5.38944 172.972 5.05322 173.468 4.81871C174.025 4.56375 174.632 4.43726 175.244 4.44871C175.82 4.43453 176.391 4.54906 176.917 4.78385C177.442 5.01865 177.908 5.36773 178.279 5.80538C178.509 6.07277 178.704 6.36829 178.858 6.68474C179.042 7.08946 179.167 7.51797 179.23 7.95754C179.334 8.61529 179.397 9.27889 179.418 9.94444C179.453 10.7473 179.47 11.755 179.47 12.9747C179.47 14.1945 179.458 15.2021 179.423 16.0026V16.005ZM205.498 21.2911H194.487V0.214677H189.74V25.7311H205.498V21.2911ZM225.791 21.2911H214.777V0.214677H210.034V25.7311H225.791V21.2911ZM246.325 21.2911H235.067V15.0874H244.655V10.6474H235.067V4.65961H246.325V0.21961H230.329V25.7311H246.325V21.2911ZM259.763 15.6992H264.225V16.6661C264.278 17.8941 263.891 19.1008 263.133 20.0713C262.713 20.5458 262.192 20.9209 261.608 21.1691C261.024 21.4173 260.391 21.5323 259.757 21.5057C259.181 21.5387 258.606 21.4357 258.078 21.2051C257.55 20.9744 257.084 20.6227 256.719 20.1786C256.478 19.9039 256.278 19.5966 256.123 19.266C255.954 18.8647 255.84 18.443 255.782 18.0117C255.692 17.3647 255.635 16.7134 255.613 16.0605C255.578 15.2696 255.561 14.2418 255.563 12.9772C255.565 11.7126 255.581 10.6849 255.613 9.89388C255.633 9.2389 255.696 8.58592 255.801 7.93904C255.904 7.15759 256.222 6.41962 256.719 5.80661C257.085 5.36175 257.55 5.00763 258.078 4.77219C258.605 4.53675 259.18 4.42643 259.757 4.44995C262.077 4.44995 263.532 5.69232 264.123 8.17708H268.932C268.776 7.09279 268.466 6.03621 268.009 5.03948C267.564 4.06512 266.945 3.17923 266.181 2.42481C265.397 1.65859 264.467 1.0553 263.446 0.650045C262.278 0.199008 261.033 -0.0217433 259.78 7.7744e-05C258.55 -0.0227408 257.329 0.214709 256.198 0.696712C255.067 1.17871 254.052 1.89428 253.219 2.79604C252.194 3.85206 251.504 5.18595 251.237 6.63048C250.915 8.72982 250.778 10.853 250.825 12.976C250.778 15.0982 250.915 17.2205 251.237 19.319C251.503 20.7637 252.193 22.0977 253.219 23.1534C254.051 24.0559 255.066 24.7719 256.198 25.254C257.329 25.736 258.55 25.9731 259.78 25.9494C261.062 25.9654 262.334 25.7281 263.523 25.2513C264.709 24.7432 265.773 23.9923 266.647 23.0474C267.481 22.133 268.095 21.042 268.442 19.8567C268.833 18.3587 269.01 16.8135 268.97 15.2663V11.5391H259.761V15.6967L259.763 15.6992ZM290.052 4.66208V0.222078H274.051V25.7311H290.047V21.2911H278.789V15.0874H288.376V10.6474H278.789V4.65961H290.047L290.052 4.66208ZM15.8508 25.889C16.198 26.22 16.6068 26.4806 17.0541 26.6561C18.0116 27.0214 19.071 27.0214 20.0285 26.6561C20.4759 26.4807 20.8847 26.2201 21.2319 25.889C21.5814 25.5502 21.8576 25.144 22.0436 24.6951C22.2479 24.1983 22.3491 23.6655 22.3411 23.1288V18.5001H20.3259V23.0535C20.3589 23.5864 20.1855 24.1116 19.8414 24.5212C19.674 24.6972 19.4704 24.8351 19.2445 24.9255C19.0187 25.016 18.7758 25.0569 18.5326 25.0454C18.2903 25.0575 18.0482 25.0168 17.8233 24.9263C17.5983 24.8358 17.3959 24.6975 17.2301 24.5212C16.8904 24.1096 16.72 23.5852 16.753 23.0535V18.5001H14.7416V23.13C14.7336 23.6667 14.8348 24.1995 15.039 24.6963C15.2251 25.1448 15.5014 25.5506 15.8508 25.889ZM35.5286 12.3334H30.8973V9.25008H26.261V4.62508H18.5388V3.08341H23.1726V7.7744e-05H16.9946V4.62508H10.8204V9.25008H6.18409V12.3334H1.55029V33.9167H0.00610352V37.0001H37.0728V33.9167H35.5286V12.3334ZM7.72209 30.8334H4.63867V27.7501H7.72209V30.8334ZM7.72209 24.6667H4.63867V21.5834H7.72209V24.6667ZM7.72209 18.5001H4.63867V15.4167H7.72209V18.5001ZM25.3204 27.739L18.6987 30.8334L11.8094 27.7501V15.4167H25.3315V27.7501L25.3204 27.739ZM32.439 30.8334H29.3506V27.7501H32.439V30.8334ZM32.439 24.6667H29.3506V21.5834H32.439V24.6667ZM32.439 18.5001H29.3506V15.4167H32.439V18.5001ZM52.1764 33.1027C52.3598 33.1016 52.5372 33.1679 52.6745 33.289C52.8117 33.4102 52.8992 33.5775 52.9199 33.7589H53.7875C53.7565 33.4495 53.6368 33.1555 53.4426 32.9119C53.2485 32.6683 52.9881 32.4854 52.6924 32.385C52.3967 32.2845 52.0783 32.2707 51.775 32.3453C51.4717 32.4199 51.1963 32.5796 50.9817 32.8055C50.7895 33.0686 50.6523 33.3672 50.578 33.6839C50.5037 34.0006 50.4939 34.3288 50.5491 34.6493C50.4939 34.9699 50.5037 35.2981 50.578 35.6148C50.6523 35.9315 50.7895 36.2301 50.9817 36.4932C51.1963 36.7191 51.4717 36.8788 51.775 36.9534C52.0783 37.028 52.3967 37.0142 52.6924 36.9137C52.9881 36.8133 53.2485 36.6304 53.4426 36.3868C53.6368 36.1432 53.7565 35.8492 53.7875 35.5398H52.9199C52.8992 35.7212 52.8117 35.8885 52.6745 36.0097C52.5372 36.1308 52.3598 36.1971 52.1764 36.1959C52.0724 36.1995 51.969 36.1797 51.8737 36.138C51.7785 36.0964 51.6938 36.034 51.6261 35.9554C51.3974 35.5605 51.3203 35.0965 51.4092 34.6493C51.3203 34.2022 51.3974 33.7381 51.6261 33.3432C51.6938 33.2647 51.7785 33.2023 51.8737 33.1606C51.969 33.119 52.0724 33.0992 52.1764 33.1027ZM57.2898 32.2974C57.0662 32.2919 56.844 32.3343 56.6383 32.4218C56.4326 32.5092 56.2482 32.6397 56.0976 32.8043C55.9054 33.0673 55.7682 33.366 55.6939 33.6827C55.6196 33.9993 55.6098 34.3276 55.665 34.6481C55.6098 34.9686 55.6196 35.2969 55.6939 35.6136C55.7682 35.9302 55.9054 36.2289 56.0976 36.4919C56.251 36.6522 56.4356 36.7799 56.6401 36.8671C56.8446 36.9543 57.0648 36.9992 57.2873 36.9992C57.5098 36.9992 57.73 36.9543 57.9345 36.8671C58.139 36.7799 58.3236 36.6522 58.477 36.4919C58.6701 36.2293 58.8084 35.9308 58.8837 35.6142C58.9591 35.2975 58.97 34.969 58.9158 34.6481C58.97 34.3272 58.9591 33.9987 58.8837 33.6821C58.8084 33.3654 58.6701 33.0669 58.477 32.8043C58.3281 32.6403 58.1454 32.5102 57.9414 32.4227C57.7374 32.3352 57.5168 32.2925 57.2947 32.2974H57.2898ZM57.84 35.9468C57.7726 36.0262 57.6882 36.0895 57.593 36.1322C57.4978 36.1748 57.3942 36.1958 57.2898 36.1935C57.1845 36.1958 57.0799 36.1749 56.9837 36.1323C56.8875 36.0896 56.802 36.0263 56.7333 35.9468C56.5078 35.5535 56.4329 35.0921 56.5226 34.6481C56.4329 34.2041 56.5078 33.7428 56.7333 33.3494C56.802 33.2699 56.8875 33.2066 56.9837 33.1639C57.0799 33.1213 57.1845 33.1004 57.2898 33.1027C57.3942 33.1004 57.4978 33.1214 57.593 33.1641C57.6882 33.2067 57.7726 33.2701 57.84 33.3494C58.0686 33.7417 58.1453 34.2035 58.0557 34.6481C58.1456 35.0931 58.0689 35.5542 57.84 35.9468ZM61.8629 32.3356H61.0028V36.9594H63.8532V36.1552H61.8616V32.3319L61.8629 32.3356ZM66.6479 32.3356H65.7878V36.9594H68.6382V36.1552H66.6466V32.3319L66.6479 32.3356ZM70.5728 36.9594H73.4715V36.1552H71.4316V35.0267H73.1667V34.2263H71.4316V33.1422H73.4715V32.3356H70.5715L70.5728 36.9594ZM76.9478 33.1027C77.1313 33.1016 77.3087 33.1679 77.4459 33.289C77.5832 33.4102 77.6706 33.5775 77.6914 33.7589H78.5589C78.5265 33.4512 78.4063 33.1591 78.2126 32.9171C78.0188 32.6752 77.7595 32.4934 77.4653 32.3933C77.1711 32.2932 76.8543 32.279 76.5523 32.3522C76.2502 32.4255 75.9755 32.5832 75.7605 32.8067C75.5685 33.0698 75.4313 33.3685 75.357 33.6852C75.2827 34.0018 75.2729 34.3301 75.328 34.6506C75.2729 34.9711 75.2827 35.2993 75.357 35.616C75.4313 35.9327 75.5685 36.2313 75.7605 36.4944C75.9752 36.7203 76.2506 36.8801 76.5539 36.9546C76.8572 37.0292 77.1756 37.0154 77.4713 36.915C77.7669 36.8145 78.0274 36.6316 78.2215 36.388C78.4157 36.1444 78.5354 35.8504 78.5664 35.541H77.6988C77.6781 35.7224 77.5906 35.8898 77.4534 36.0109C77.3161 36.132 77.1387 36.1984 76.9553 36.1972C76.8513 36.2006 76.7479 36.1808 76.6527 36.1392C76.5574 36.0975 76.4728 36.0352 76.405 35.9567C76.1763 35.5618 76.0992 35.0977 76.1881 34.6506C76.0992 34.2034 76.1763 33.7394 76.405 33.3445C76.4719 33.2667 76.5553 33.2047 76.6491 33.1629C76.743 33.1211 76.845 33.1006 76.9478 33.1027ZM80.2704 33.1422H81.4193V36.9655H82.2781V33.1422H83.4282V32.3356H80.2704V33.1422ZM85.3516 36.9655H86.2105V32.3356H85.3578V36.9594L85.3516 36.9655ZM89.8243 35.356L88.9407 32.343H88.0508L89.5033 36.9668H90.1453L91.604 32.343H90.7079L89.8243 35.356ZM93.4543 36.9655H96.353V36.1552H94.3131V35.0267H96.0482V34.2263H94.3131V33.1422H96.353V32.3356H93.4543V36.9594V36.9655ZM102.759 34.2658L102.24 34.1868C102.088 34.1691 101.946 34.1053 101.832 34.0043C101.791 33.96 101.758 33.9081 101.737 33.8513C101.716 33.7946 101.706 33.7343 101.708 33.6738C101.708 33.589 101.727 33.5051 101.762 33.4281C101.798 33.351 101.85 33.2824 101.914 33.2269C101.979 33.1715 102.054 33.1305 102.136 33.1067C102.218 33.083 102.304 33.077 102.388 33.0892C102.553 33.0765 102.718 33.0983 102.873 33.1531C103.029 33.2079 103.171 33.2946 103.291 33.4074L103.835 32.8413C103.651 32.6551 103.428 32.5107 103.183 32.4177C102.938 32.3247 102.675 32.2853 102.413 32.3023C102.217 32.2814 102.019 32.3023 101.832 32.3637C101.645 32.425 101.473 32.5254 101.328 32.6581C101.183 32.7909 101.068 32.9529 100.991 33.1333C100.913 33.3138 100.876 33.5085 100.88 33.7046C100.861 34.0374 100.974 34.3645 101.195 34.6148C101.429 34.8318 101.729 34.9661 102.048 34.9971L102.579 35.0748C102.724 35.0836 102.862 35.141 102.97 35.2376C103.017 35.2905 103.053 35.3521 103.077 35.419C103.1 35.4859 103.109 35.5568 103.105 35.6274C103.101 35.7198 103.077 35.8102 103.033 35.8919C102.99 35.9737 102.929 36.0447 102.854 36.0996C102.779 36.1546 102.693 36.1921 102.602 36.2094C102.51 36.2267 102.416 36.2234 102.327 36.1996C102.132 36.212 101.936 36.1836 101.753 36.1162C101.57 36.0489 101.403 35.9441 101.263 35.8087L100.707 36.3933C100.912 36.6089 101.164 36.7762 101.442 36.8828C101.721 36.9895 102.02 37.033 102.318 37.0099C102.52 37.0358 102.725 37.0191 102.919 36.9608C103.114 36.9024 103.294 36.8039 103.448 36.6716C103.602 36.5392 103.726 36.3761 103.813 36.1927C103.899 36.0094 103.945 35.81 103.949 35.6076C103.962 35.4289 103.938 35.2495 103.88 35.08C103.821 34.9105 103.729 34.7544 103.609 34.621C103.376 34.411 103.079 34.284 102.765 34.2596L102.759 34.2658ZM107.468 33.1089C107.652 33.1077 107.829 33.1741 107.967 33.2952C108.104 33.4163 108.191 33.5837 108.212 33.765H109.08C109.049 33.4557 108.929 33.1617 108.735 32.9181C108.541 32.6745 108.28 32.4916 107.984 32.3911C107.689 32.2907 107.37 32.2769 107.067 32.3515C106.764 32.426 106.488 32.5858 106.274 32.8117C106.082 33.0748 105.945 33.3735 105.87 33.6901C105.796 34.0068 105.786 34.335 105.841 34.6555C105.786 34.976 105.796 35.3043 105.87 35.6209C105.945 35.9376 106.082 36.2362 106.274 36.4993C106.488 36.7253 106.764 36.885 107.067 36.9596C107.37 37.0341 107.689 37.0204 107.984 36.9199C108.28 36.8194 108.541 36.6365 108.735 36.3929C108.929 36.1493 109.049 35.8554 109.08 35.546H108.212C108.191 35.7274 108.104 35.8947 107.967 36.0158C107.829 36.1369 107.652 36.2033 107.468 36.2021C107.364 36.2057 107.261 36.186 107.166 36.1443C107.07 36.1027 106.986 36.0402 106.918 35.9616C106.689 35.5669 106.612 35.1026 106.701 34.6555C106.612 34.2084 106.689 33.7442 106.918 33.3494C106.986 33.2687 107.072 33.2044 107.168 33.1617C107.265 33.1189 107.37 33.0988 107.476 33.1027L107.468 33.1089ZM113.384 34.2325H111.897V32.3356H111.038V36.9594H111.897V35.0267H113.384V36.9606H114.243V32.3356H113.384V34.2251V34.2325ZM117.958 32.3035C117.734 32.298 117.512 32.3403 117.306 32.4278C117.1 32.5152 116.915 32.6457 116.765 32.8104C116.573 33.0736 116.435 33.3722 116.361 33.6889C116.287 34.0055 116.277 34.3338 116.332 34.6543C116.277 34.9748 116.287 35.303 116.361 35.6197C116.435 35.9363 116.573 36.235 116.765 36.4981C116.915 36.6627 117.1 36.7932 117.306 36.8807C117.512 36.9681 117.734 37.0105 117.958 37.005C118.181 37.0105 118.402 36.9681 118.607 36.8806C118.811 36.7931 118.995 36.6626 119.144 36.4981C119.337 36.2355 119.475 35.937 119.551 35.6203C119.626 35.3037 119.637 34.9752 119.583 34.6543C119.637 34.3334 119.626 34.0049 119.551 33.6882C119.475 33.3716 119.337 33.0731 119.144 32.8104C118.996 32.6458 118.814 32.5147 118.611 32.4262C118.408 32.3377 118.187 32.2937 117.965 32.2974L117.958 32.3035ZM118.508 35.953C118.441 36.0323 118.356 36.0955 118.261 36.1382C118.166 36.1809 118.062 36.2019 117.958 36.1996C117.853 36.202 117.748 36.1811 117.652 36.1385C117.556 36.0958 117.47 36.0325 117.402 35.953C117.176 35.5598 117.101 35.0983 117.191 34.6543C117.101 34.2103 117.176 33.7488 117.402 33.3556C117.47 33.2761 117.556 33.2127 117.652 33.1701C117.748 33.1274 117.853 33.1065 117.958 33.1089C118.062 33.1067 118.166 33.1277 118.261 33.1703C118.356 33.213 118.441 33.2763 118.508 33.3556C118.736 33.748 118.813 34.2097 118.724 34.6543C118.814 35.0963 118.741 35.5559 118.517 35.948L118.508 35.953ZM123.166 32.3035C122.942 32.298 122.72 32.3404 122.514 32.4278C122.308 32.5153 122.124 32.6458 121.973 32.8104C121.781 33.0734 121.644 33.3721 121.569 33.6888C121.495 34.0055 121.485 34.3338 121.541 34.6543C121.485 34.9748 121.495 35.3031 121.569 35.6198C121.644 35.9365 121.781 36.2352 121.973 36.4981C122.127 36.6584 122.311 36.786 122.516 36.8732C122.72 36.9604 122.941 37.0054 123.163 37.0054C123.386 37.0054 123.606 36.9604 123.81 36.8732C124.015 36.786 124.199 36.6584 124.353 36.4981C124.546 36.2353 124.684 35.9369 124.759 35.6202C124.835 35.3036 124.846 34.9752 124.792 34.6543C124.846 34.3334 124.835 34.0049 124.759 33.6883C124.684 33.3717 124.546 33.0732 124.353 32.8104C124.205 32.6458 124.023 32.5148 123.819 32.4263C123.615 32.3377 123.395 32.2938 123.173 32.2974L123.166 32.3035ZM123.716 35.953C123.649 36.0324 123.564 36.0958 123.469 36.1385C123.374 36.1811 123.27 36.2021 123.166 36.1996C123.06 36.2019 122.956 36.181 122.86 36.1383C122.763 36.0957 122.678 36.0324 122.609 35.953C122.384 35.5593 122.31 35.0982 122.4 34.6543C122.31 34.2104 122.384 33.7492 122.609 33.3556C122.678 33.2762 122.763 33.2129 122.86 33.1702C122.956 33.1276 123.06 33.1066 123.166 33.1089C123.27 33.1065 123.374 33.1274 123.469 33.1701C123.564 33.2128 123.649 33.2762 123.716 33.3556C123.945 33.7478 124.021 34.2097 123.932 34.6543C124.022 35.0965 123.948 35.5564 123.722 35.948L123.716 35.953ZM127.737 32.3418H126.879V36.9655H129.729V36.1552H127.733V32.3319L127.737 32.3418ZM135.813 32.3035C135.589 32.298 135.367 32.3404 135.161 32.4278C134.956 32.5153 134.771 32.6458 134.621 32.8104C134.429 33.0736 134.291 33.3722 134.217 33.6889C134.143 34.0055 134.133 34.3338 134.188 34.6543C134.133 34.9748 134.143 35.303 134.217 35.6197C134.291 35.9363 134.429 36.235 134.621 36.4981C134.774 36.6584 134.959 36.786 135.163 36.8732C135.368 36.9604 135.588 37.0054 135.81 37.0054C136.033 37.0054 136.253 36.9604 136.458 36.8732C136.662 36.786 136.847 36.6584 137 36.4981C137.193 36.2355 137.331 35.937 137.407 35.6203C137.482 35.3037 137.493 34.9752 137.439 34.6543C137.493 34.3334 137.482 34.0049 137.407 33.6882C137.331 33.3716 137.193 33.0731 137 32.8104C136.852 32.6457 136.67 32.5147 136.466 32.4261C136.263 32.3376 136.042 32.2937 135.82 32.2974L135.813 32.3035ZM136.363 35.953C136.296 36.0324 136.211 36.0958 136.116 36.1385C136.021 36.1811 135.917 36.2021 135.813 36.1996C135.708 36.2019 135.603 36.181 135.507 36.1383C135.411 36.0957 135.325 36.0324 135.256 35.953C135.032 35.5593 134.957 35.0982 135.047 34.6543C134.957 34.2104 135.032 33.7492 135.256 33.3556C135.325 33.2762 135.411 33.2129 135.507 33.1702C135.603 33.1276 135.708 33.1066 135.813 33.1089C135.917 33.1065 136.021 33.1274 136.116 33.1701C136.211 33.2128 136.296 33.2762 136.363 33.3556C136.592 33.7478 136.669 34.2097 136.579 34.6543C136.67 35.0964 136.596 35.5563 136.371 35.948L136.363 35.953ZM139.527 36.9655H140.386V35.0835H142.121V34.2781H140.386V33.1422H142.436V32.3356H139.538V36.9594L139.527 36.9655ZM146.749 33.1422H147.899V36.9655H148.758V33.1422H149.906V32.3356H146.749V33.1422ZM154.989 33.7515C154.997 33.5629 154.966 33.3746 154.897 33.1986C154.829 33.0227 154.724 32.863 154.589 32.7297C154.455 32.5965 154.294 32.4926 154.117 32.4247C153.94 32.3568 153.751 32.3265 153.561 32.3356H151.836V36.9594H152.695V35.1155H153.314L154.173 36.9594H155.165L154.182 34.9663C154.429 34.8755 154.641 34.709 154.788 34.4907C154.934 34.2724 155.007 34.0136 154.996 33.7515H154.989ZM153.502 34.3681H152.691V33.1471H153.502C153.586 33.1388 153.672 33.1481 153.753 33.1745C153.834 33.2009 153.908 33.2438 153.972 33.3004C154.035 33.357 154.086 33.4262 154.121 33.5034C154.156 33.5807 154.175 33.6643 154.175 33.7491C154.176 33.8339 154.159 33.9179 154.126 33.9958C154.092 34.0736 154.042 34.1437 153.98 34.2015C153.918 34.2592 153.844 34.3035 153.764 34.3313C153.683 34.3591 153.598 34.37 153.513 34.3632L153.502 34.3681ZM158.459 32.3418L156.858 36.9655H157.755L158.02 36.1478H159.584L159.843 36.9655H160.739L159.128 32.3418H158.454H158.459ZM158.262 35.3881L158.817 33.7058L159.355 35.3881H158.262ZM165.105 35.1735L163.362 32.3368H162.596V36.9606H163.453V34.1239L165.197 36.9606H165.983V32.3356H165.115V35.1723L165.105 35.1735ZM169.92 34.2645L169.401 34.1856C169.249 34.1678 169.107 34.1041 168.993 34.0031C168.95 33.9593 168.917 33.9076 168.895 33.8508C168.872 33.7941 168.862 33.7335 168.863 33.6725C168.863 33.5877 168.882 33.5039 168.917 33.4268C168.953 33.3497 169.005 33.2811 169.069 33.2257C169.134 33.1703 169.209 33.1293 169.291 33.1055C169.373 33.0817 169.459 33.0757 169.543 33.0879C169.708 33.0755 169.873 33.0973 170.028 33.1521C170.184 33.2069 170.326 33.2934 170.446 33.4061L170.99 32.84C170.805 32.6538 170.583 32.5093 170.338 32.4163C170.093 32.3233 169.83 32.284 169.568 32.3011C169.372 32.2802 169.174 32.3011 168.987 32.3624C168.8 32.4238 168.628 32.5242 168.483 32.6569C168.338 32.7896 168.223 32.9516 168.145 33.1321C168.068 33.3125 168.031 33.5073 168.035 33.7034C168.015 34.0362 168.129 34.3633 168.35 34.6136C168.584 34.8305 168.884 34.9649 169.203 34.9959L169.734 35.0736C169.879 35.082 170.016 35.1395 170.123 35.2364C170.171 35.2888 170.208 35.3504 170.232 35.4174C170.255 35.4844 170.265 35.5554 170.26 35.6261C170.256 35.7186 170.232 35.809 170.188 35.8907C170.145 35.9725 170.083 36.0434 170.009 36.0984C169.934 36.1533 169.848 36.1909 169.756 36.2082C169.665 36.2255 169.571 36.2222 169.481 36.1984C169.286 36.211 169.091 36.1827 168.908 36.1153C168.725 36.048 168.558 35.9431 168.418 35.8074L167.862 36.392C168.067 36.6077 168.318 36.7749 168.597 36.8816C168.876 36.9883 169.175 37.0317 169.473 37.0087C169.674 37.0346 169.879 37.0178 170.074 36.9595C170.269 36.9012 170.45 36.8027 170.604 36.6704C170.758 36.5381 170.882 36.3749 170.968 36.1916C171.055 36.0083 171.101 35.8089 171.105 35.6064C171.117 35.4276 171.094 35.2481 171.035 35.0786C170.977 34.9091 170.884 34.7531 170.764 34.6197C170.534 34.4132 170.243 34.2868 169.935 34.2596L169.92 34.2645ZM173.085 36.9643H173.944V35.0835H175.679V34.2781H173.944V33.1422H175.984V32.3356H173.085V36.9594V36.9643ZM177.938 36.9643H180.855V36.1552H178.813V35.0267H180.548V34.2263H178.813V33.1422H180.855V32.3356H177.956V36.9594L177.938 36.9643ZM186.035 33.7576C186.043 33.569 186.012 33.3807 185.943 33.2048C185.875 33.0289 185.77 32.8692 185.635 32.7359C185.501 32.6026 185.34 32.4987 185.163 32.4309C184.986 32.363 184.797 32.3327 184.607 32.3418H182.883V36.9655H183.741V35.1155H184.361L185.221 36.9594H186.212L185.229 34.9663C185.478 34.8765 185.691 34.7105 185.839 34.4921C185.986 34.2738 186.06 34.0144 186.05 33.7515L186.035 33.7576ZM184.548 34.3743H183.737V33.1533H184.573C184.659 33.1416 184.747 33.1485 184.831 33.1735C184.915 33.1985 184.993 33.2411 185.059 33.2985C185.125 33.3558 185.177 33.4264 185.214 33.5057C185.25 33.5851 185.269 33.6712 185.269 33.7583C185.269 33.8454 185.25 33.9315 185.214 34.0108C185.177 34.0901 185.125 34.1608 185.059 34.2181C184.993 34.2754 184.915 34.318 184.831 34.343C184.747 34.368 184.659 34.3749 184.573 34.3632L184.548 34.3743ZM189.505 32.3479L187.904 36.9717H188.8L189.066 36.154H190.629L190.889 36.9717H191.785L190.174 32.3479H189.53H189.505ZM189.307 35.3943L189.863 33.712L190.401 35.3943H189.307ZM196.225 34.6012C196.393 34.5051 196.532 34.3658 196.627 34.1979C196.723 34.03 196.771 33.8396 196.767 33.6466C196.779 33.468 196.752 33.2889 196.687 33.122C196.622 32.955 196.52 32.8044 196.39 32.6805C196.26 32.5567 196.105 32.4628 195.934 32.4053C195.764 32.3478 195.583 32.3283 195.404 32.3479H193.637V36.9717H195.478C195.659 36.988 195.84 36.9648 196.01 36.9039C196.181 36.8429 196.335 36.7456 196.464 36.6188C196.592 36.4919 196.691 36.3387 196.754 36.1698C196.816 36.0008 196.841 35.8203 196.826 35.6409C196.845 35.4286 196.8 35.2154 196.697 35.0284C196.594 34.8413 196.438 34.6888 196.248 34.5901L196.225 34.6012ZM194.499 33.1533H195.34C195.413 33.1483 195.487 33.1584 195.556 33.183C195.625 33.2075 195.689 33.2459 195.742 33.2959C195.796 33.3458 195.839 33.4063 195.868 33.4734C195.898 33.5405 195.913 33.6129 195.913 33.6861C195.913 33.7593 195.898 33.8317 195.868 33.8988C195.839 33.966 195.796 34.0264 195.742 34.0763C195.689 34.1263 195.625 34.1647 195.556 34.1893C195.487 34.2138 195.413 34.2239 195.34 34.2189H194.499V33.1422V33.1533ZM195.397 36.1663H194.499V35.0193H195.397C195.472 35.0178 195.546 35.031 195.616 35.0581C195.686 35.0852 195.75 35.1258 195.804 35.1774C195.858 35.2291 195.901 35.2908 195.931 35.3591C195.961 35.4274 195.978 35.501 195.979 35.5756C195.981 35.6502 195.967 35.7243 195.94 35.7938C195.913 35.8633 195.872 35.9268 195.82 35.9806C195.768 36.0344 195.706 36.0776 195.638 36.1075C195.569 36.1375 195.495 36.1537 195.42 36.1552L195.397 36.1663ZM199.755 32.343H198.895V36.9668H201.746V36.1552H199.75V32.3319L199.755 32.343ZM203.68 36.9668H206.579V36.1552H204.563V35.0267H206.298V34.2263H204.563V33.1422H206.603V32.3356H203.704V36.9594L203.68 36.9668ZM212.985 34.267L212.467 34.1881C212.315 34.1705 212.172 34.1068 212.058 34.0055C211.975 33.9159 211.93 33.7971 211.934 33.675C211.934 33.5902 211.952 33.5065 211.988 33.4294C212.023 33.3523 212.075 33.2837 212.139 33.2282C212.204 33.1727 212.28 33.1317 212.361 33.108C212.443 33.0842 212.529 33.0782 212.613 33.0904C212.778 33.0777 212.943 33.0994 213.098 33.1543C213.254 33.2091 213.396 33.2957 213.516 33.4086L214.06 32.8425C213.875 32.6563 213.653 32.5118 213.408 32.4188C213.163 32.3258 212.9 32.2865 212.638 32.3035C212.442 32.2826 212.244 32.3035 212.057 32.3649C211.87 32.4263 211.698 32.5266 211.553 32.6594C211.408 32.7921 211.293 32.9541 211.215 33.1345C211.138 33.315 211.101 33.5098 211.105 33.7058C211.085 34.0389 211.199 34.3662 211.421 34.616C211.655 34.8332 211.955 34.9676 212.274 34.9984L212.805 35.0761C212.95 35.0848 213.087 35.1422 213.195 35.2389C213.242 35.2914 213.279 35.353 213.302 35.42C213.326 35.4869 213.336 35.5579 213.331 35.6286C213.326 35.7207 213.301 35.8105 213.257 35.8916C213.213 35.9728 213.151 36.0432 213.077 36.098C213.002 36.1527 212.917 36.1903 212.826 36.2081C212.735 36.2259 212.641 36.2234 212.551 36.2009C212.357 36.2134 212.162 36.185 211.979 36.1176C211.796 36.0503 211.629 35.9455 211.489 35.8099L210.933 36.3945C211.138 36.6102 211.389 36.7775 211.668 36.8842C211.947 36.9909 212.246 37.0343 212.544 37.0112C212.746 37.037 212.951 37.0203 213.146 36.962C213.34 36.9037 213.521 36.8052 213.675 36.6728C213.829 36.5405 213.953 36.3774 214.039 36.194C214.126 36.0107 214.172 35.8113 214.176 35.6089C214.189 35.4302 214.165 35.2508 214.107 35.0813C214.048 34.9119 213.956 34.7558 213.836 34.6222C213.607 34.415 213.317 34.2877 213.009 34.2596L212.985 34.267ZM219.605 32.3442H218.561L217.009 34.3583V32.3356H216.175V36.9594H217.034V35.5706L217.603 34.8578L218.734 36.9544H219.736L218.172 34.1696L219.605 32.3442ZM221.57 36.968H222.429V32.3356H221.57V36.9594V36.968ZM225.496 32.3442H224.637V36.968H227.488V36.1552H225.52V32.3319L225.496 32.3442ZM230.281 32.3442H229.422V36.968H232.273V36.1552H230.303V32.3319L230.281 32.3442ZM236.067 34.267L235.548 34.1881C235.397 34.1703 235.254 34.1066 235.14 34.0055C235.057 33.9159 235.012 33.7971 235.016 33.675C235.016 33.5902 235.035 33.5065 235.07 33.4294C235.106 33.3523 235.157 33.2837 235.222 33.2282C235.286 33.1727 235.362 33.1317 235.444 33.108C235.525 33.0842 235.611 33.0782 235.696 33.0904C235.86 33.0777 236.025 33.0994 236.181 33.1543C236.336 33.2091 236.478 33.2957 236.598 33.4086L237.142 32.8425C236.958 32.6563 236.735 32.5118 236.49 32.4188C236.245 32.3258 235.982 32.2865 235.72 32.3035C235.524 32.2826 235.326 32.3035 235.139 32.3649C234.952 32.4263 234.78 32.5266 234.635 32.6594C234.49 32.7921 234.375 32.9541 234.298 33.1345C234.22 33.315 234.183 33.5098 234.187 33.7058C234.168 34.0389 234.281 34.3662 234.503 34.616C234.738 34.8332 235.037 34.9676 235.356 34.9984L235.888 35.0761C236.032 35.0848 236.169 35.1422 236.277 35.2389C236.325 35.2914 236.361 35.353 236.385 35.42C236.408 35.4869 236.418 35.5579 236.413 35.6286C236.408 35.7207 236.383 35.8105 236.339 35.8916C236.295 35.9728 236.234 36.0432 236.159 36.098C236.085 36.1527 235.999 36.1903 235.908 36.2081C235.817 36.2259 235.723 36.2234 235.634 36.2009C235.439 36.2134 235.244 36.185 235.061 36.1176C234.878 36.0503 234.711 35.9455 234.571 35.8099L234.015 36.3945C234.22 36.6102 234.472 36.7775 234.751 36.8842C235.029 36.9909 235.328 37.0343 235.626 37.0112C235.828 37.037 236.033 37.0203 236.228 36.962C236.423 36.9037 236.603 36.8052 236.757 36.6728C236.911 36.5405 237.035 36.3774 237.122 36.194C237.208 36.0107 237.255 35.8113 237.258 35.6089C237.271 35.4302 237.247 35.2508 237.189 35.0813C237.131 34.9119 237.039 34.7558 236.919 34.6222C236.69 34.415 236.399 34.2877 236.091 34.2596L236.067 34.267ZM239.195 36.9668H240.116V35.9998H239.195V36.9606V36.9668ZM246.616 34.267L246.097 34.1881C245.946 34.1703 245.803 34.1066 245.689 34.0055C245.647 33.9618 245.613 33.91 245.591 33.8533C245.569 33.7965 245.558 33.7359 245.559 33.675C245.559 33.5902 245.578 33.5064 245.613 33.4293C245.649 33.3522 245.701 33.2836 245.765 33.2282C245.83 33.1727 245.906 33.1317 245.987 33.108C246.069 33.0842 246.155 33.0782 246.24 33.0904C246.404 33.0779 246.569 33.0998 246.725 33.1546C246.88 33.2094 247.022 33.2959 247.142 33.4086L247.686 32.8425C247.502 32.6563 247.28 32.5118 247.034 32.4188C246.789 32.3258 246.526 32.2865 246.264 32.3035C246.068 32.2826 245.87 32.3035 245.683 32.3649C245.496 32.4263 245.324 32.5266 245.179 32.6594C245.034 32.7921 244.919 32.9541 244.842 33.1345C244.765 33.315 244.727 33.5098 244.731 33.7058C244.712 34.0387 244.825 34.3658 245.046 34.616C245.281 34.833 245.58 34.9673 245.899 34.9984L246.431 35.0761C246.575 35.0849 246.713 35.1423 246.821 35.2389C246.869 35.2915 246.905 35.3531 246.928 35.4201C246.951 35.487 246.961 35.558 246.956 35.6286C246.952 35.721 246.928 35.8114 246.885 35.8932C246.841 35.9749 246.78 36.0459 246.705 36.1009C246.63 36.1558 246.544 36.1933 246.453 36.2106C246.362 36.228 246.267 36.2246 246.178 36.2009C245.983 36.2134 245.787 36.185 245.604 36.1177C245.421 36.0503 245.254 35.9455 245.114 35.8099L244.558 36.3945C244.763 36.6101 245.015 36.7774 245.293 36.8841C245.572 36.9908 245.871 37.0342 246.169 37.0112C246.371 37.037 246.576 37.0203 246.771 36.962C246.966 36.9037 247.146 36.8052 247.3 36.6728C247.454 36.5405 247.578 36.3774 247.664 36.194C247.751 36.0107 247.797 35.8113 247.801 35.6089C247.814 35.4301 247.79 35.2506 247.731 35.0811C247.673 34.9116 247.581 34.7555 247.46 34.6222C247.233 34.4165 246.946 34.2893 246.64 34.2596L246.616 34.267ZM249.782 36.9668H250.64V32.3356H249.782V36.9594V36.9668ZM255.359 35.1747L253.615 32.3381H252.849V36.9618H253.708V34.1252L255.45 36.9618H256.217V32.3356H255.359V35.1723V35.1747ZM259.933 33.1089C260.116 33.1077 260.294 33.1741 260.431 33.2952C260.568 33.4163 260.656 33.5837 260.676 33.765H261.544C261.513 33.4557 261.393 33.1617 261.199 32.9181C261.005 32.6745 260.745 32.4916 260.449 32.3911C260.153 32.2907 259.835 32.2769 259.531 32.3515C259.228 32.426 258.953 32.5858 258.738 32.8117C258.546 33.0748 258.409 33.3735 258.335 33.6901C258.26 34.0068 258.251 34.335 258.306 34.6555C258.251 34.976 258.26 35.3043 258.335 35.6209C258.409 35.9376 258.546 36.2362 258.738 36.4993C258.953 36.7253 259.228 36.885 259.531 36.9596C259.835 37.0341 260.153 37.0204 260.449 36.9199C260.745 36.8194 261.005 36.6365 261.199 36.3929C261.393 36.1493 261.513 35.8554 261.544 35.546H260.676C260.656 35.7274 260.568 35.8947 260.431 36.0158C260.294 36.1369 260.116 36.2033 259.933 36.2021C259.829 36.2056 259.726 36.1858 259.631 36.1442C259.536 36.1026 259.451 36.0401 259.384 35.9616C259.155 35.5669 259.078 35.1026 259.167 34.6555C259.078 34.2084 259.155 33.7442 259.384 33.3494C259.453 33.2663 259.541 33.2007 259.641 33.1579C259.741 33.115 259.849 33.0961 259.958 33.1027L259.933 33.1089ZM263.501 36.9655H266.4V36.1552H264.384V35.0267H266.12V34.2263H264.384V33.1422H266.424V32.3356H263.526V36.9594L263.501 36.9655ZM273.672 33.6479C273.684 33.4696 273.658 33.2908 273.595 33.1234C273.533 32.9559 273.435 32.8036 273.309 32.6765C273.183 32.5495 273.031 32.4505 272.863 32.3862C272.696 32.3219 272.516 32.2937 272.337 32.3035C272.157 32.295 271.977 32.3245 271.809 32.3899C271.641 32.4554 271.488 32.5554 271.362 32.6835C271.235 32.8115 271.137 32.9647 271.074 33.133C271.011 33.3013 270.985 33.481 270.996 33.6602H271.82C271.812 33.5862 271.82 33.5114 271.843 33.4405C271.865 33.3696 271.903 33.3042 271.952 33.2485C272.002 33.1928 272.063 33.148 272.131 33.117C272.199 33.0861 272.272 33.0696 272.347 33.0686C272.422 33.0677 272.496 33.0823 272.565 33.1115C272.633 33.1408 272.695 33.184 272.746 33.2384C272.797 33.2928 272.836 33.3573 272.861 33.4276C272.885 33.4979 272.895 33.5725 272.889 33.6466C272.887 33.855 272.805 34.0549 272.661 34.2053L271.017 36.212V36.9705H273.693V36.2009H271.993L273.223 34.6999C273.368 34.5633 273.485 34.3994 273.566 34.2178C273.647 34.0362 273.692 33.8404 273.697 33.6417L273.672 33.6479ZM276.92 32.3035C276.739 32.298 276.558 32.3303 276.39 32.3981C276.222 32.466 276.07 32.568 275.944 32.6977C275.818 32.8273 275.72 32.9818 275.657 33.1511C275.595 33.3205 275.568 33.501 275.579 33.6812V35.6286C275.571 35.8084 275.6 35.9878 275.664 36.1562C275.728 36.3245 275.825 36.4783 275.95 36.6082C276.075 36.7381 276.225 36.8415 276.392 36.9121C276.558 36.9828 276.737 37.0192 276.918 37.0192C277.098 37.0192 277.277 36.9828 277.444 36.9121C277.61 36.8415 277.76 36.7381 277.885 36.6082C278.01 36.4783 278.108 36.3245 278.171 36.1562C278.235 35.9878 278.264 35.8084 278.256 35.6286V33.6701C278.267 33.4927 278.241 33.3149 278.18 33.1479C278.119 32.9808 278.024 32.8281 277.901 32.6993C277.778 32.5705 277.63 32.4683 277.465 32.3991C277.301 32.33 277.124 32.2953 276.945 32.2974L276.92 32.3035ZM277.452 35.6224C277.464 35.6995 277.46 35.7782 277.439 35.8533C277.417 35.9284 277.38 35.998 277.329 36.0574C277.278 36.1167 277.215 36.1644 277.144 36.197C277.073 36.2297 276.995 36.2467 276.917 36.2467C276.839 36.2467 276.761 36.2297 276.69 36.197C276.619 36.1644 276.556 36.1167 276.505 36.0574C276.454 35.998 276.417 35.9284 276.396 35.8533C276.374 35.7782 276.37 35.6995 276.382 35.6224V33.6873C276.369 33.6097 276.372 33.5301 276.393 33.454C276.414 33.3779 276.451 33.3073 276.502 33.247C276.553 33.1867 276.616 33.1382 276.688 33.1049C276.76 33.0717 276.838 33.0544 276.917 33.0544C276.996 33.0544 277.074 33.0717 277.146 33.1049C277.218 33.1382 277.282 33.1867 277.333 33.247C277.383 33.3073 277.421 33.3779 277.441 33.454C277.462 33.5301 277.465 33.6097 277.452 33.6873V35.6175V35.6224ZM280.323 33.1558V34.0647L281.219 33.247V36.9606H282.024V32.3356H281.239L280.323 33.1558ZM286.98 33.6417C286.992 33.4633 286.966 33.2845 286.903 33.1169C286.84 32.9494 286.742 32.797 286.616 32.6699C286.49 32.5428 286.338 32.4438 286.17 32.3796C286.003 32.3154 285.823 32.2874 285.644 32.2974C285.464 32.2891 285.284 32.3186 285.116 32.3842C284.948 32.4497 284.795 32.5497 284.669 32.6777C284.542 32.8057 284.444 32.9588 284.381 33.1271C284.318 33.2953 284.291 33.4748 284.303 33.654H285.106C285.099 33.5805 285.107 33.5064 285.13 33.4363C285.154 33.3662 285.191 33.3016 285.241 33.2466C285.29 33.1917 285.351 33.1476 285.418 33.1171C285.486 33.0866 285.559 33.0703 285.633 33.0694C285.707 33.0684 285.781 33.0828 285.849 33.1116C285.918 33.1404 285.979 33.183 286.03 33.2366C286.081 33.2903 286.12 33.3539 286.145 33.4234C286.17 33.4929 286.181 33.5668 286.175 33.6405C286.173 33.8487 286.092 34.0484 285.947 34.1992L284.303 36.2058V36.9643H286.98V36.2009H285.304L286.534 34.6999C286.678 34.5632 286.794 34.3993 286.875 34.2177C286.956 34.0361 287 33.8403 287.004 33.6417H286.98ZM289.043 36.9594H289.964V35.9998H289.043V36.9594Z" fill="black"/>
</g>
<defs>
<clipPath id="clip0_345_7026">
<rect width="290" height="37" fill="white"/>
</clipPath>
</defs>
</svg>
