<svg width="322" height="308" viewBox="0 0 322 308" fill="none" xmlns="http://www.w3.org/2000/svg">
<g filter="url(#filter0_d_550_68)">
<path d="M91.5325 149.257C125.471 149.257 152.983 121.753 152.983 87.8251C152.983 53.8974 125.471 26.3936 91.5325 26.3936C57.5944 26.3936 30.082 53.8974 30.082 87.8251C30.082 121.753 57.5944 149.257 91.5325 149.257Z" fill="white"/>
<path d="M91.5331 148.818C125.229 148.818 152.545 121.511 152.545 87.8253C152.545 54.1399 125.229 26.8325 91.5331 26.8325C57.8373 26.8325 30.5215 54.1399 30.5215 87.8253C30.5215 121.511 57.8373 148.818 91.5331 148.818Z" stroke="#F6F6F6"/>
</g>
<path d="M54.2402 77.2771H51.589C51.8875 77.8739 52.1157 78.6813 52.186 79.2078L51.3081 79.4535H54.7493L53.5905 79.2078C53.8188 78.6813 54.0997 77.8739 54.2402 77.2771ZM54.0119 84.2803V84.4207C54.644 84.8595 56.1012 86.0179 56.505 86.3339L55.2936 87.8258C55.0127 87.4747 54.5211 86.9482 54.0119 86.4567V90.1953H51.9928V86.6674C51.3081 87.6503 50.518 88.5279 49.763 89.1422C49.447 88.6858 48.8501 88.0013 48.4111 87.6678C49.5524 86.9131 50.7638 85.5967 51.5714 84.2803H48.9027V82.5251H51.9928V81.1736H48.8501V79.4535H50.4653C50.3951 78.8743 50.1844 78.1196 49.9386 77.5228L51.0096 77.2771H49.0432V75.5746H51.9928V73.9774H54.0119V75.5746H56.9264V77.2771H55.118L56.1363 77.4702C55.8203 78.2249 55.5394 78.927 55.2936 79.4535H57.0669V81.1736H54.0119V82.5251H56.9089V84.2803H54.0119ZM65.0379 79.6115V81.5422H63.3699V90.1251H61.3509V81.5422H59.56C59.5425 84.1574 59.1738 87.8609 56.8562 90.2655C56.5928 89.8091 55.8379 89.0895 55.3638 88.8438C57.3829 86.7025 57.5936 83.7186 57.5936 81.2965V75.2235L58.805 75.557C60.473 75.1533 62.2112 74.5917 63.2822 74.0125L64.9501 75.5395C63.4051 76.224 61.4035 76.7681 59.56 77.1542V79.6115H65.0379ZM69.6906 74.8198H75.7654C75.7654 78.1371 76.2394 84.5436 82.7005 88.3523C82.244 88.7209 81.3837 89.6336 81.015 90.1777C77.3807 87.9837 75.5196 84.6664 74.5539 81.5247C73.2371 85.4563 71.1303 88.3699 68.0753 90.1953C67.689 89.7565 66.7058 88.8964 66.1615 88.4928C69.8135 86.6498 71.9028 83.2623 72.8684 78.6462L73.9394 78.8392C73.8165 78.1723 73.7463 77.5404 73.6936 76.9436H69.6906V74.8198ZM91.5318 83.7537L90.2677 85.4563C89.899 84.9648 89.3021 84.2627 88.7051 83.6133V90.2304H86.6333V84.175C85.9311 84.8244 85.1936 85.4036 84.4562 85.86C84.2807 85.2983 83.7891 84.2803 83.473 83.8766C85.3868 82.841 87.2303 80.9981 88.3715 78.9796H84.1402V77.084H86.6333V73.8545H88.7051V77.084H89.4952L89.8639 76.9963L91.0402 77.751C90.5135 79.0849 89.8112 80.3487 88.9685 81.5071C89.8112 82.1916 91.1631 83.4027 91.5318 83.7537ZM96.5883 87.6854H100.328V89.7214H90.3906V87.6854H94.4463V81.2614H91.1105V79.2429H94.4463V73.9949H96.5883V79.2429H99.9066V81.2614H96.5883V87.6854ZM113.11 77.1542V76.0134H106.017V77.1542H113.11ZM115.34 74.381V78.769H103.91V74.381H115.34ZM105.191 84.9999V85.7722H113.794V84.9999H105.191ZM105.191 82.9288V83.666H113.794V82.9288H105.191ZM105.191 80.8401V81.5949H113.794V80.8401H105.191ZM115.954 87.1764H113.11C114.76 87.6678 116.604 88.2997 117.815 88.7911L115.972 90.2655C114.62 89.6336 112.197 88.7736 110.336 88.2295L111.81 87.1764H107.017L108.369 88.1242C106.947 88.9491 104.7 89.7916 102.927 90.2304C102.54 89.7916 101.82 89.1422 101.346 88.7385C102.874 88.405 104.682 87.7731 105.876 87.1764H103.12V79.4184H115.954V87.1764ZM134.582 82.5251C134.582 86.2286 132.317 88.8438 127.893 89.5283L126.576 87.4396C127.243 87.3694 127.735 87.2641 128.209 87.1588C130.456 86.6323 132.212 85.0175 132.212 82.4549C132.212 80.0327 130.895 78.2249 128.525 77.8212C128.279 79.3131 127.981 80.9279 127.472 82.5778C126.418 86.1232 124.908 88.2997 122.994 88.2997C121.046 88.2997 119.43 86.1584 119.43 83.1921C119.43 79.1376 122.942 75.6799 127.489 75.6799C131.843 75.6799 134.582 78.6988 134.582 82.5251ZM121.678 82.9639C121.678 84.7367 122.38 85.5967 123.065 85.5967C123.802 85.5967 124.487 84.4909 125.207 82.1214C125.611 80.8226 125.944 79.3307 126.137 77.8739C123.24 78.4706 121.678 81.0332 121.678 82.9639Z" fill="#808080"/>
<path d="M58.2176 100.498L60.3069 101.007C59.5871 103.289 58.5512 105.325 57.2871 107.028C57.7962 108.291 58.3581 109.028 58.9199 109.028C59.3413 109.028 59.552 108.151 59.6398 105.957C60.1138 106.448 60.8512 106.905 61.413 107.133C61.0795 110.38 60.3772 111.152 58.7443 111.152C57.5153 111.152 56.5497 110.275 55.7772 108.835C54.8817 109.766 53.8985 110.555 52.81 111.222C52.4939 110.766 51.739 109.906 51.3001 109.502C52.652 108.765 53.8634 107.8 54.8817 106.659C54.2848 104.676 53.8985 102.218 53.6703 99.5855H48.5787V101.464H52.9153C52.9153 101.464 52.8978 102.008 52.8978 102.253C52.8451 105.939 52.7398 107.501 52.3359 108.01C52.0023 108.467 51.6512 108.625 51.1245 108.713C50.668 108.783 49.913 108.783 49.1054 108.765C49.0703 108.151 48.842 107.343 48.526 106.817C49.1581 106.87 49.755 106.887 50.0359 106.887C50.2817 106.887 50.4222 106.852 50.5626 106.676C50.7382 106.431 50.8084 105.588 50.8611 103.377H48.5787C48.5084 105.939 48.1397 109.362 46.7 111.503C46.3313 111.1 45.4008 110.327 44.9268 110.082C46.2611 107.975 46.384 104.921 46.384 102.64V97.5144H53.5474C53.5123 96.6544 53.4772 95.7943 53.4772 94.9167H55.6718C55.6543 95.7943 55.6718 96.6544 55.7069 97.5144H58.3932C57.7436 96.9879 56.8657 96.4262 56.1459 95.9874L57.41 94.7412C58.3756 95.2327 59.6573 96.04 60.2718 96.6193L59.4291 97.5144H61.255V99.5855H55.8298C55.9878 101.341 56.2336 102.991 56.5321 104.395C57.2169 103.219 57.7962 101.92 58.2176 100.498ZM76.1966 104.992H72.123C72.5093 105.676 72.9657 106.273 73.51 106.817C74.4405 106.273 75.4417 105.588 76.1966 104.992ZM76.8111 104.992L78.163 105.939C77.1623 106.659 75.9859 107.361 74.9325 107.923C76.0562 108.625 77.4081 109.134 79.0234 109.432C78.5844 109.888 77.9875 110.749 77.7066 111.31C73.7383 110.397 71.4031 108.309 69.9459 104.992H67.9268V108.713C69.1558 108.537 70.455 108.344 71.7192 108.151L71.807 109.994C69.1207 110.433 66.2237 110.871 64.0993 111.187L63.6253 109.274C64.2573 109.204 64.9772 109.099 65.7673 109.011V104.992H62.8703V103.149H65.7848V95.4959H76.8638V97.1985H67.9268V98.1287H76.3722V99.7435H67.9268V100.621H76.3722V102.236H67.9268V103.149H78.6898V104.992H76.8111ZM93.5081 100.709H91.5592V102.236H93.5081V100.709ZM87.6791 100.709V102.236H89.5226V100.709H87.6791ZM89.5226 99.1116V98.1638H85.2035V96.4262H89.5226V94.9167H91.5592V96.4262H96.1417V98.1638H91.5592V99.1116H95.5448V103.816H92.2791C93.3325 104.904 94.9478 105.939 96.3875 106.519C95.9486 106.922 95.299 107.642 94.9829 108.151C93.8241 107.537 92.5776 106.519 91.5592 105.395V108.484H89.5226V105.272C88.557 106.483 87.3104 107.554 86.0463 108.203C85.7478 107.712 85.1684 106.992 84.7295 106.624C86.1692 106.027 87.644 104.974 88.5921 103.816H85.7478V99.1116H89.5226ZM84.8699 97.9532L83.2195 99.3398C82.6753 98.4973 81.4287 97.3389 80.3928 96.5666L81.9379 95.3029C82.9913 96.04 84.273 97.1283 84.8699 97.9532ZM84.431 101.709V107.221C85.1508 108.397 86.4676 108.87 88.2936 108.941C90.3478 109.028 94.2982 108.976 96.6333 108.8C96.4051 109.292 96.089 110.31 95.9837 110.906C93.8768 111.012 90.3478 111.047 88.2585 110.959C86.0989 110.871 84.6592 110.38 83.518 109.011C82.7455 109.695 81.973 110.38 81.0073 111.117L79.989 108.941C80.744 108.502 81.6218 107.923 82.3943 107.326V103.622H80.3753V101.709H84.431ZM101.093 98.3393V101.393C101.093 104.237 100.829 108.537 99.2318 111.24C98.8806 110.889 98.0028 110.31 97.5287 110.099C98.986 107.607 99.0913 103.956 99.0913 101.393V96.4788H105.342V94.9167H107.519V96.4788H113.752V98.3393H101.093ZM109.064 101.464H105.868V102.622H109.064V101.464ZM111.136 104.202H103.902V101.464H101.532V99.8137H103.902V98.6553H105.868V99.8137H109.064V98.6553H111.136V99.8137H113.664V101.464H111.136V104.202ZM109.713 106.536H105.552C106.079 107.098 106.781 107.572 107.607 107.975C108.414 107.589 109.134 107.098 109.713 106.536ZM111.487 104.816L112.786 105.465C112.084 106.87 111.048 107.958 109.784 108.8C111.065 109.169 112.523 109.415 114.103 109.555C113.681 109.994 113.137 110.801 112.874 111.345C110.855 111.1 109.064 110.643 107.536 109.959C105.816 110.643 103.849 111.064 101.76 111.328C101.602 110.801 101.233 110.011 100.917 109.573C102.533 109.432 104.078 109.186 105.465 108.783C104.692 108.239 104.007 107.589 103.446 106.834L104.271 106.536H101.655V104.904H111.118L111.487 104.816ZM121.249 110.011C118.088 110.011 116.192 108.239 116.192 103.921V96.7597H118.791V104.149C118.791 106.852 119.739 107.765 121.249 107.765C122.794 107.765 123.777 106.852 123.777 104.149V96.7597H126.27V103.921C126.27 108.239 124.426 110.011 121.249 110.011ZM129.396 109.766V96.7597H133.662C136.542 96.7597 138.754 97.7777 138.754 100.849C138.754 103.816 136.524 105.149 133.733 105.149H131.995V109.766H129.396ZM131.995 103.096H133.557C135.348 103.096 136.208 102.341 136.208 100.849C136.208 99.3398 135.26 98.8308 133.469 98.8308H131.995V103.096Z" fill="#005694"/>
<path d="M84.6191 59.9826C84.6191 58.9724 84.7903 57.9486 85.1336 56.911C85.5541 55.6449 86.094 54.7033 86.7524 54.0863C87.4107 53.4692 88.142 53.1607 88.947 53.1607C89.7608 53.1607 90.428 53.4555 90.9494 54.0451C91.4753 54.6348 91.7377 55.4917 91.7377 56.6162C91.7377 57.6446 91.5464 58.7325 91.1619 59.8797C90.7826 61.0224 90.2682 61.9 89.6186 62.5125C88.9698 63.1205 88.2377 63.4244 87.4239 63.4244C86.6101 63.4244 85.9386 63.1296 85.4075 62.54C84.8816 61.9503 84.6191 61.0979 84.6191 59.9826ZM86.5531 60.3803C86.5531 60.9196 86.64 61.2989 86.8138 61.5183C86.9876 61.7377 87.2115 61.8474 87.4862 61.8474C87.8514 61.8474 88.1762 61.6783 88.4598 61.3401C88.839 60.8876 89.1753 59.9963 89.4676 58.6662C89.7011 57.6103 89.8179 56.7739 89.8179 56.1569C89.8179 55.654 89.7283 55.293 89.5501 55.0736C89.3763 54.8496 89.1524 54.7376 88.8785 54.7376C88.5309 54.7376 88.2219 54.9044 87.9524 55.2381C87.5547 55.7226 87.2115 56.575 86.9235 57.7954C86.6769 58.8513 86.5531 59.7129 86.5531 60.3803ZM93.1985 57.4801L93.569 55.7249C95.2659 54.9844 96.5774 54.1229 97.5062 53.1401H98.7062L96.5871 63.253H94.6048L96.0656 56.2871C95.6539 56.5522 95.179 56.7944 94.6391 57.0138C94.1045 57.2332 93.6243 57.3887 93.1985 57.4801Z" fill="#005694"/>
<g filter="url(#filter1_d_550_68)">
<path d="M229.55 149.257C263.488 149.257 291.001 121.753 291.001 87.8251C291.001 53.8974 263.488 26.3936 229.55 26.3936C195.612 26.3936 168.1 53.8974 168.1 87.8251C168.1 121.753 195.612 149.257 229.55 149.257Z" fill="white"/>
<path d="M229.551 148.818C263.246 148.818 290.562 121.511 290.562 87.8253C290.562 54.1399 263.246 26.8325 229.551 26.8325C195.855 26.8325 168.539 54.1399 168.539 87.8253C168.539 121.511 195.855 148.818 229.551 148.818Z" stroke="#F6F6F6"/>
</g>
<path d="M190.834 86.2812V81.8932H189.254V86.2812H190.834ZM192.836 76.5575H190.272C190.027 77.7334 189.711 78.927 189.324 80.0503H192.608V88.1241H189.254V89.4054H187.516V83.9643C187.288 84.2978 187.059 84.6138 186.814 84.9121C186.743 84.3505 186.375 83.0165 186.094 82.4198C187.165 80.9805 187.885 78.8568 188.324 76.5575H186.462V74.6619H192.836V76.5575ZM196.839 80.9805H198.805V76.6452H196.839V80.9805ZM202.633 80.9805V82.9463H200.789V90.2479H198.805V82.9463H196.804C196.698 85.5265 196.189 88.4576 194.381 90.3708C194.03 90.0022 193.275 89.423 192.801 89.1597C194.311 87.5274 194.75 85.0877 194.855 82.9463H193.222V80.9805H194.89V76.6452H193.679V74.7145H202.282V76.6452H200.789V80.9805H202.633ZM206.917 73.8896L208.83 74.4688C208.462 75.557 208.023 76.6979 207.531 77.7861V90.2128H205.547V81.4369C205.196 81.9634 204.827 82.4724 204.441 82.9112C204.266 82.4198 203.774 81.2087 203.44 80.6646C204.845 79.0147 206.144 76.4521 206.917 73.8896ZM210.323 78.7339V81.1736C211.569 80.8577 212.693 80.4364 213.676 79.8748C213.185 79.436 212.746 78.9796 212.377 78.5233C212.061 78.9094 211.71 79.2604 211.359 79.5764C211.13 79.3482 210.709 79.0147 210.323 78.7339ZM216.485 77.2771H213.395C213.834 77.8387 214.396 78.4004 215.081 78.8919C215.643 78.418 216.099 77.8914 216.485 77.2771ZM219.979 77.2771H218.663C218.153 78.2775 217.486 79.12 216.714 79.8572C217.802 80.3838 219.084 80.805 220.541 81.0332C220.172 81.4193 219.663 82.2092 219.417 82.7006C217.802 82.3496 216.398 81.7528 215.239 81.0332C214.063 81.8055 212.711 82.4022 211.236 82.841C211.078 82.5251 210.674 81.981 210.323 81.5773V87.2992H208.514V76.066H210.323V77.9265C211.464 76.8558 212.412 75.3639 212.956 73.8369L214.835 74.2757C214.677 74.7145 214.484 75.1709 214.273 75.5921H219.979V77.2771ZM217.047 83.4904L218.54 84.1048C217.153 85.6142 214.817 86.6673 212.43 87.2816C212.201 86.8955 211.78 86.3163 211.411 85.9828C213.606 85.5265 215.888 84.6489 217.047 83.4904ZM215.327 81.8932L216.854 82.5251C215.766 83.6309 214.027 84.4558 212.395 84.9824C212.149 84.5962 211.692 84.1048 211.288 83.7888C212.781 83.4027 214.466 82.6831 215.327 81.8932ZM218.311 85.4738L220.102 86.1934C218.276 88.3348 215.169 89.5107 211.587 90.1602C211.359 89.6512 210.937 88.9666 210.533 88.5103C213.764 88.0715 216.801 87.1237 218.311 85.4738ZM223.526 76.2415C224.176 76.3117 225.088 76.3468 225.685 76.3468H234.534C235.043 76.3468 235.781 76.3293 236.079 76.3117C236.062 76.7154 236.027 77.4175 236.027 77.9265V87.0184C236.027 87.6327 236.062 88.5629 236.097 89.0895H233.551C233.569 88.8087 233.569 88.5103 233.569 88.1768H225.563C224.878 88.1768 223.877 88.2294 223.298 88.2821V85.7722C223.912 85.8248 224.702 85.8775 225.492 85.8775H233.586V78.611H225.703C224.966 78.611 224.018 78.6461 223.526 78.6812V76.2415ZM252.969 76.8032C252.829 76.9963 252.513 77.5404 252.355 77.8914C251.758 79.2604 250.775 81.1385 249.598 82.7182C251.337 84.2276 253.461 86.4743 254.497 87.738L252.495 89.4756C251.354 87.896 249.721 86.1057 248.071 84.5085C246.21 86.4743 243.875 88.2997 241.469 89.4405L239.661 87.5449C242.488 86.4918 245.209 84.3505 246.86 82.5075C248.018 81.1912 249.089 79.4535 249.476 78.2073H243.524C242.786 78.2073 241.821 78.3126 241.452 78.3302V75.8378C241.926 75.908 242.997 75.9607 243.524 75.9607H249.721C250.476 75.9607 251.179 75.8554 251.53 75.7325L252.969 76.8032ZM261.397 87.0184V76.926C261.397 76.3117 261.344 75.4341 261.221 74.8198H263.96C263.89 75.4341 263.802 76.2064 263.802 76.926V79.5237C266.155 80.2082 269.526 81.4544 271.141 82.2443L270.14 84.6664C268.332 83.7186 265.698 82.7006 263.802 82.0512V87.0184C263.802 87.5274 263.89 88.756 263.96 89.4756H261.221C261.327 88.7736 261.397 87.7204 261.397 87.0184Z" fill="#808080"/>
<path d="M211.009 101.761H204.828C205.987 105.184 208.112 107.939 211.395 109.273C210.868 109.712 210.183 110.642 209.85 111.239C206.672 109.747 204.635 107.185 203.266 103.797C202.318 106.728 200.421 109.466 196.699 111.257C196.366 110.678 195.751 109.923 195.137 109.484C199.157 107.694 200.825 104.78 201.51 101.761H195.47V99.6023H201.861C202.037 97.9525 202.019 96.3552 202.037 94.916H204.319C204.302 96.3552 204.284 97.97 204.108 99.6023H211.009V101.761ZM216.943 105.71H217.61C217.698 105.71 217.733 105.675 217.733 105.535V99.9534H216.943V105.71ZM219.225 98.1104V105.588C219.225 106.237 219.155 106.764 218.786 107.079C218.418 107.395 218.014 107.448 217.399 107.448C217.382 106.974 217.189 106.219 216.943 105.745V111.292H215.187V99.9534H214.432V107.659H212.905V98.1104H215.187V94.916H216.943V98.1104H219.225ZM223.193 105.131H221.543V106.325H223.193V105.131ZM226.705 106.325V105.131H224.949V106.325H226.705ZM224.949 109.133H226.705V107.887H224.949V109.133ZM221.543 109.133H223.193V107.887H221.543V109.133ZM219.682 111.274V103.516H228.636V111.257H226.705V110.748H221.543V111.274H219.682ZM226.178 101.059V99.7603H222.193V101.059H226.178ZM220.437 98.2157H228.004V102.586H220.437V98.2157ZM219.682 95.6532H228.706V97.3381H219.682V95.6532ZM233.131 98.8476L231.322 99.5321C231.164 98.637 230.69 97.1977 230.234 96.1622L231.937 95.5654C232.446 96.601 232.938 97.9525 233.131 98.8476ZM232.902 105.623H236.502V104.482H232.902V105.623ZM236.502 101.638H232.902V102.727H236.502V101.638ZM238.521 99.6901V108.852C238.521 109.818 238.345 110.362 237.713 110.695C237.116 111.011 236.291 111.046 235.062 111.046C234.992 110.484 234.746 109.624 234.5 109.098C235.185 109.133 235.94 109.133 236.186 109.133C236.414 109.115 236.502 109.045 236.502 108.817V107.378H232.902V111.081H230.901V99.6901H233.64V94.8984H235.712V99.6901H238.521ZM237.924 99.4268L236.186 98.988C236.607 98.0051 237.064 96.5132 237.292 95.425L239.364 95.8813C238.907 97.1626 238.363 98.5317 237.924 99.4268ZM241.892 97.0222V106.816H239.873V97.0222H241.892ZM243.735 95.2319H245.807V108.729C245.807 109.958 245.561 110.52 244.841 110.871C244.122 111.222 242.945 111.292 241.348 111.274C241.26 110.678 240.944 109.712 240.628 109.115C241.769 109.168 242.893 109.168 243.261 109.168C243.595 109.151 243.735 109.045 243.735 108.712V95.2319ZM252.549 96.6712L251.302 98.3562C250.723 97.7769 249.477 96.9871 248.458 96.5308L249.635 94.9862C250.618 95.4074 251.917 96.1095 252.549 96.6712ZM251.689 101.305L250.46 102.99C249.88 102.428 248.634 101.691 247.651 101.252L248.792 99.7077C249.793 100.094 251.057 100.743 251.689 101.305ZM250.021 104.061L251.706 105.149C251.109 107.079 250.354 109.168 249.635 110.923L247.738 109.888C248.406 108.484 249.354 106.184 250.021 104.061ZM257.219 104.306H256.008V106.184H257.219V104.306ZM258.606 107.711H256.008V108.659H254.638V102.797H258.606V107.711ZM258.466 100.287V101.814H254.726V100.287H258.466ZM261.995 100.445L263.786 100.778C263.259 103.06 262.504 105.079 261.503 106.799C261.784 108.045 262.083 108.764 262.399 108.782C262.645 108.8 262.82 107.904 262.908 106.29C263.241 106.693 264.049 107.202 264.383 107.36C263.944 110.555 263.083 111.239 262.364 111.239C261.398 111.222 260.661 110.362 260.116 108.8C259.361 109.712 258.501 110.502 257.553 111.169C257.272 110.818 256.587 110.151 256.183 109.835C257.535 109.01 258.641 107.939 259.537 106.623C259.151 104.675 258.905 102.182 258.764 99.304H254.147V102.358C254.147 104.991 253.901 108.817 252.426 111.274C252.093 110.941 251.302 110.414 250.864 110.221C252.198 107.957 252.321 104.727 252.321 102.358V97.461H258.677C258.641 96.6887 258.624 95.8989 258.606 95.0915H260.52C260.52 95.8989 260.538 96.6887 260.573 97.461H262.557C262.048 96.9696 261.293 96.3904 260.608 95.9867L261.732 94.9335C262.522 95.3723 263.522 96.0744 263.979 96.6185L263.119 97.461H263.838V99.304H260.661C260.748 100.936 260.871 102.446 261.029 103.762C261.433 102.744 261.749 101.638 261.995 100.445Z" fill="#005694"/>
<path d="M221.758 59.9825C221.758 58.9724 221.929 57.9485 222.272 56.911C222.693 55.6448 223.233 54.7033 223.891 54.0862C224.549 53.4692 225.281 53.1606 226.086 53.1606C226.899 53.1606 227.567 53.4554 228.088 54.0451C228.614 54.6347 228.876 55.4917 228.876 56.6162C228.876 57.6446 228.685 58.7325 228.301 59.8797C227.921 61.0224 227.407 61.9 226.757 62.5125C226.109 63.1205 225.376 63.4244 224.563 63.4244C223.749 63.4244 223.077 63.1296 222.546 62.5399C222.02 61.9503 221.758 61.0979 221.758 59.9825ZM223.692 60.3803C223.692 60.9195 223.779 61.2989 223.952 61.5183C224.126 61.7377 224.35 61.8474 224.625 61.8474C224.99 61.8474 225.315 61.6783 225.598 61.3401C225.978 60.8876 226.314 59.9963 226.606 58.6661C226.84 57.6103 226.957 56.7739 226.957 56.1568C226.957 55.654 226.867 55.2929 226.689 55.0735C226.515 54.8496 226.291 54.7376 226.017 54.7376C225.67 54.7376 225.361 54.9044 225.091 55.2381C224.693 55.7226 224.35 56.575 224.062 57.7954C223.816 58.8513 223.692 59.7128 223.692 60.3803ZM232.382 56.3351L230.454 56.0471C230.609 55.1147 230.971 54.4017 231.538 53.908C232.11 53.4098 232.822 53.1606 233.677 53.1606C234.615 53.1606 235.351 53.4144 235.886 53.9217C236.421 54.429 236.689 55.0735 236.689 55.8551C236.689 56.2528 236.606 56.6528 236.442 57.055C236.277 57.4526 236.007 57.8709 235.632 58.3097C235.362 58.6205 234.921 59.0616 234.309 59.6329C233.696 60.1996 233.289 60.5882 233.088 60.7984C232.891 61.0041 232.701 61.2235 232.519 61.4566H236.003L235.632 63.253H229.522C229.586 62.7593 229.73 62.2908 229.954 61.8474C230.182 61.3995 230.465 60.9836 230.804 60.5997C231.142 60.2157 231.762 59.5963 232.663 58.7416C233.339 58.0925 233.767 57.6697 233.945 57.4732C234.265 57.1167 234.484 56.8081 234.604 56.5476C234.722 56.2871 234.782 56.0517 234.782 55.8414C234.782 55.5032 234.681 55.229 234.48 55.0187C234.283 54.8084 234.032 54.7033 233.726 54.7033C233.415 54.7033 233.143 54.8221 232.909 55.0598C232.676 55.2929 232.5 55.718 232.382 56.3351Z" fill="#005694"/>
<g filter="url(#filter2_d_550_68)">
<path d="M162.821 273.29C196.759 273.29 224.271 245.787 224.271 211.859C224.271 177.931 196.759 150.427 162.821 150.427C128.882 150.427 101.37 177.931 101.37 211.859C101.37 245.787 128.882 273.29 162.821 273.29Z" fill="white"/>
<path d="M162.821 272.852C196.517 272.852 223.833 245.544 223.833 211.859C223.833 178.174 196.517 150.866 162.821 150.866C129.125 150.866 101.81 178.174 101.81 211.859C101.81 245.544 129.125 272.852 162.821 272.852Z" stroke="#F6F6F6"/>
</g>
<path d="M145.872 199.385V200.991H137V199.385H140.385V198H142.433V199.385H145.872ZM148.383 209.641V211.333H149.844V209.641H148.383ZM149.844 204.581V202.991H148.383V204.581H149.844ZM149.844 207.932V206.291H148.383V207.932H149.844ZM143.734 208.547H141.774C141.667 209.111 141.543 209.658 141.418 210.137L142.184 210.103C142.095 209.812 141.988 209.538 141.881 209.282L142.986 209.009C143.288 209.692 143.591 210.547 143.734 211.197V208.547ZM153.621 211.333V213.179H148.383V213.983H146.477V205.145C146.37 205.316 146.246 205.47 146.139 205.624C145.907 205.402 145.497 205.043 145.106 204.735V206.256H142.237L142.077 207.094H145.515V212.256C145.515 213.026 145.373 213.436 144.803 213.709C144.286 213.949 143.538 213.966 142.505 213.966C142.433 213.504 142.184 212.872 141.97 212.444C142.594 212.479 143.271 212.462 143.467 212.462C143.68 212.462 143.734 212.41 143.734 212.239V211.607L142.629 211.932C142.612 211.761 142.576 211.556 142.522 211.333C141.418 211.419 140.367 211.504 139.405 211.556L139.262 210.239L139.922 210.205C140.046 209.709 140.135 209.128 140.242 208.547H139.084V213.983H137.374V207.094H140.438C140.474 206.803 140.509 206.53 140.545 206.256H137.784V201.419H139.245V204.872H140.349C140.064 204.65 139.619 204.325 139.334 204.137C139.761 203.846 140.171 203.504 140.527 203.128C140.171 202.906 139.797 202.701 139.458 202.513L140.278 201.624C140.598 201.795 140.955 201.983 141.311 202.188C141.525 201.863 141.721 201.538 141.881 201.197L143.235 201.504C143.021 201.983 142.754 202.444 142.451 202.872C142.843 203.128 143.199 203.385 143.449 203.607L142.594 204.615C142.362 204.393 142.024 204.12 141.65 203.863C141.311 204.239 140.937 204.581 140.563 204.872H143.591V201.419H145.106V203.692C146.174 202.171 147.047 200.068 147.6 198.017L149.488 198.427C149.221 199.35 148.9 200.291 148.526 201.179H149.808C150.165 200.256 150.521 199.077 150.717 198.171L152.712 198.598C152.374 199.47 152.017 200.393 151.679 201.179H153.443V202.991H151.626V204.581H153.247V206.291H151.626V207.932H153.247V209.641H151.626V211.333H153.621ZM163.009 210.427H164.648V209.402H163.009V210.427ZM164.648 207.06H163.009V208.085H164.648V207.06ZM164.594 201.06H162.831C163.098 201.709 163.258 202.581 163.294 203.145L162.492 203.333H165.04L164.131 203.145C164.309 202.547 164.505 201.675 164.594 201.06ZM158.644 202.274V200.427H157.469V202.274H158.644ZM157.469 209.47L158.644 209.265V207.402H157.469V209.47ZM158.644 205.761V203.915H157.469V205.761H158.644ZM169.582 205.538L171.275 205.897C170.794 207.538 170.135 209.009 169.297 210.291C169.458 211.111 169.654 211.573 169.867 211.59C170.081 211.59 170.224 210.803 170.295 209.453C170.598 209.863 171.364 210.393 171.667 210.581C171.221 213.35 170.384 213.949 169.778 213.949C168.977 213.932 168.389 213.248 167.961 212C167.267 212.769 166.483 213.436 165.628 214C165.396 213.658 164.79 212.991 164.416 212.667C164.862 212.41 165.289 212.12 165.681 211.812H163.009V212.803H161.388V205.658H166.287V211.282C166.714 210.889 167.106 210.444 167.462 209.966C167.231 208.581 167.071 206.872 166.982 204.906H160.729V203.333H161.851C161.815 202.769 161.673 201.932 161.459 201.299L162.492 201.06H161.085V200.427H160.408V213.966H158.644V211.043C157.38 211.299 156.115 211.556 155.046 211.761L154.69 209.897C155.01 209.863 155.367 209.812 155.741 209.744V200.427H155.046V198.65H161.156V199.573H162.902V198.034H164.701V199.573H166.518V201.06H164.986L166.198 201.282C165.93 202.017 165.681 202.786 165.485 203.333H166.91C166.857 201.709 166.821 199.915 166.803 198.017H168.656V199.299L169.796 198.718C170.527 199.556 171.221 200.667 171.524 201.436L170.063 202.222C169.814 201.538 169.244 200.53 168.656 199.726C168.656 200.991 168.674 202.188 168.709 203.333H171.453V204.906H168.781C168.816 205.812 168.87 206.65 168.941 207.419C169.19 206.821 169.404 206.188 169.582 205.538ZM177.545 206.41L178.49 206.376C178.828 206.068 179.166 205.744 179.505 205.419C178.864 204.889 178.009 204.291 177.26 203.812L175.96 204.872C175.408 204.325 174.232 203.504 173.288 202.991L174.695 201.88C175.515 202.308 176.601 202.974 177.26 203.504L178.08 202.564L178.507 202.803C178.792 202.393 179.095 201.915 179.345 201.487H173.519V199.675H179.79V198.017H181.963V199.675H188.394V201.487H181.019L181.411 201.624C180.859 202.308 180.271 203.009 179.754 203.59C180.075 203.812 180.378 204.017 180.645 204.222C181.251 203.521 181.821 202.838 182.266 202.222L183.923 202.957C182.943 204.068 181.75 205.265 180.609 206.291L182.444 206.205C182.248 205.88 182.017 205.573 181.803 205.282L183.299 204.684C183.584 205.043 183.905 205.453 184.19 205.863L185.277 205.026C186.506 205.607 188.163 206.547 189 207.214L187.468 208.427C186.862 207.915 185.722 207.162 184.635 206.564C184.903 207.009 185.116 207.436 185.241 207.795L183.638 208.479C183.549 208.222 183.424 207.932 183.264 207.624C181.108 207.812 178.935 207.966 177.225 208.085L177.011 206.906C175.889 207.436 174.713 207.966 173.751 208.376L172.753 206.735C173.876 206.393 175.586 205.761 177.225 205.145L177.545 206.41ZM185.776 204.684L184.226 203.88C185.027 203.299 186.025 202.41 186.631 201.709L188.519 202.581C187.61 203.385 186.577 204.154 185.776 204.684ZM181.963 207.949V209.043H188.947V210.923H181.963V213.966H179.79V210.923H172.949V209.043H179.79V207.949H181.963Z" fill="#808080"/>
<path d="M143.969 225.688H137.751C138.917 229.032 141.055 231.725 144.358 233.028C143.828 233.457 143.139 234.365 142.803 234.949C139.606 233.491 137.557 230.987 136.179 227.677C135.225 230.541 133.317 233.217 129.572 234.966C129.237 234.4 128.618 233.662 128 233.234C132.045 231.484 133.724 228.638 134.412 225.688H128.336V223.579H134.766C134.942 221.967 134.925 220.406 134.942 219H137.239C137.221 220.406 137.204 221.984 137.027 223.579H143.969V225.688ZM149.94 229.547H150.611C150.7 229.547 150.735 229.512 150.735 229.375V223.922H149.94V229.547ZM152.237 222.121V229.427C152.237 230.061 152.166 230.576 151.795 230.884C151.424 231.193 151.018 231.244 150.399 231.244C150.382 230.781 150.187 230.044 149.94 229.581V235H148.174V223.922H147.414V231.45H145.877V222.121H148.174V219H149.94V222.121H152.237ZM156.229 228.981H154.568V230.147H156.229V228.981ZM159.762 230.147V228.981H157.995V230.147H159.762ZM157.995 232.891H159.762V231.673H157.995V232.891ZM154.568 232.891H156.229V231.673H154.568V232.891ZM152.696 234.983V227.403H161.705V234.966H159.762V234.468H154.568V234.983H152.696ZM159.232 225.002V223.733H155.222V225.002H159.232ZM153.455 222.224H161.069V226.494H153.455V222.224ZM152.696 219.72H161.776V221.367H152.696V219.72ZM166.846 219.034L168.842 219.652C168.383 220.835 167.8 222.035 167.146 223.184V234.966H165.15V226.203C164.761 226.7 164.355 227.163 163.949 227.574C163.754 227.077 163.189 225.945 162.836 225.465C164.426 223.922 165.945 221.487 166.846 219.034ZM168.524 234.657V232.856H175.59V234.657H168.524ZM171.068 224.745H173.929C173.859 223.905 173.823 223.03 173.788 222.173C172.869 222.31 171.951 222.43 171.068 222.533V224.745ZM179.688 226.58H176.173C176.561 229.907 177.286 232.445 177.957 232.445C178.24 232.445 178.381 231.707 178.416 230.13C178.858 230.558 179.529 230.987 180.059 231.193C179.777 233.834 179.141 234.417 177.763 234.417C175.731 234.417 174.601 230.936 174.106 226.58H171.068V229.924C172.092 229.787 173.187 229.615 174.247 229.461L174.353 231.279C172.269 231.622 170.025 231.965 168.294 232.222L167.888 230.335C168.241 230.301 168.612 230.25 169.018 230.198V220.492L170.379 220.921C172.958 220.595 175.696 220.08 177.427 219.48L178.982 221.041C178.045 221.332 177.003 221.589 175.89 221.795C175.89 222.79 175.926 223.785 175.996 224.745H179.688V226.58ZM197 222.293H189.899V224.985L190.252 224.591C192.16 225.517 194.933 226.991 196.276 228.055L194.721 229.924C193.697 229.049 191.683 227.797 189.899 226.803V234.949H187.638V222.293H181.26V220.235H197V222.293Z" fill="#005694"/>
<path d="M155 184.311C155 183.229 155.174 182.131 155.522 181.019C155.949 179.662 156.497 178.653 157.165 177.992C157.833 177.331 158.575 177 159.392 177C160.218 177 160.895 177.316 161.425 177.948C161.958 178.58 162.225 179.498 162.225 180.703C162.225 181.806 162.03 182.972 161.64 184.201C161.255 185.426 160.733 186.366 160.074 187.023C159.416 187.674 158.672 188 157.847 188C157.021 188 156.339 187.684 155.8 187.052C155.266 186.42 155 185.507 155 184.311ZM156.963 184.738C156.963 185.315 157.051 185.722 157.227 185.957C157.404 186.192 157.631 186.31 157.91 186.31C158.28 186.31 158.61 186.129 158.898 185.766C159.283 185.281 159.624 184.326 159.921 182.9C160.158 181.769 160.276 180.872 160.276 180.211C160.276 179.672 160.185 179.285 160.004 179.05C159.828 178.81 159.601 178.69 159.323 178.69C158.97 178.69 158.656 178.869 158.383 179.226C157.979 179.746 157.631 180.659 157.339 181.967C157.088 183.099 156.963 184.022 156.963 184.738ZM162.74 185.002L164.654 184.76C164.733 185.333 164.874 185.729 165.079 185.95C165.288 186.17 165.564 186.281 165.907 186.281C166.362 186.281 166.737 186.119 167.035 185.796C167.336 185.472 167.488 185.058 167.488 184.554C167.488 184.113 167.366 183.765 167.125 183.51C166.884 183.251 166.559 183.121 166.151 183.121C166.049 183.121 165.942 183.131 165.83 183.15L166.179 181.394C166.248 181.404 166.316 181.409 166.38 181.409C166.914 181.409 167.32 181.267 167.599 180.983C167.877 180.694 168.016 180.304 168.016 179.814C168.016 179.466 167.921 179.192 167.731 178.991C167.545 178.79 167.3 178.69 166.993 178.69C166.705 178.69 166.448 178.803 166.221 179.028C165.993 179.248 165.812 179.628 165.677 180.167L163.853 179.785C164.086 178.991 164.408 178.381 164.821 177.955C165.448 177.318 166.218 177 167.132 177C168.069 177 168.782 177.277 169.269 177.83C169.757 178.379 170 179.038 170 179.807C170 180.365 169.844 180.87 169.534 181.321C169.223 181.771 168.795 182.102 168.253 182.313C168.684 182.553 169.002 182.864 169.206 183.246C169.41 183.628 169.513 184.027 169.513 184.444C169.513 185.237 169.246 185.967 168.713 186.633C167.984 187.544 167.044 188 165.894 188C165.03 188 164.318 187.74 163.756 187.221C163.199 186.697 162.861 185.957 162.74 185.002Z" fill="#005694"/>
<defs>
<filter id="filter0_d_550_68" x="0.0214844" y="0.33252" width="183.023" height="182.985" filterUnits="userSpaceOnUse" color-interpolation-filters="sRGB">
<feFlood flood-opacity="0" result="BackgroundImageFix"/>
<feColorMatrix in="SourceAlpha" type="matrix" values="0 0 0 0 0 0 0 0 0 0 0 0 0 0 0 0 0 0 127 0" result="hardAlpha"/>
<feOffset dy="4"/>
<feGaussianBlur stdDeviation="15"/>
<feComposite in2="hardAlpha" operator="out"/>
<feColorMatrix type="matrix" values="0 0 0 0 0.618306 0 0 0 0 0.618306 0 0 0 0 0.618306 0 0 0 0.15 0"/>
<feBlend mode="normal" in2="BackgroundImageFix" result="effect1_dropShadow_550_68"/>
<feBlend mode="normal" in="SourceGraphic" in2="effect1_dropShadow_550_68" result="shape"/>
</filter>
<filter id="filter1_d_550_68" x="138.039" y="0.33252" width="183.023" height="182.985" filterUnits="userSpaceOnUse" color-interpolation-filters="sRGB">
<feFlood flood-opacity="0" result="BackgroundImageFix"/>
<feColorMatrix in="SourceAlpha" type="matrix" values="0 0 0 0 0 0 0 0 0 0 0 0 0 0 0 0 0 0 127 0" result="hardAlpha"/>
<feOffset dy="4"/>
<feGaussianBlur stdDeviation="15"/>
<feComposite in2="hardAlpha" operator="out"/>
<feColorMatrix type="matrix" values="0 0 0 0 0.618306 0 0 0 0 0.618306 0 0 0 0 0.618306 0 0 0 0.15 0"/>
<feBlend mode="normal" in2="BackgroundImageFix" result="effect1_dropShadow_550_68"/>
<feBlend mode="normal" in="SourceGraphic" in2="effect1_dropShadow_550_68" result="shape"/>
</filter>
<filter id="filter2_d_550_68" x="71.3096" y="124.366" width="183.023" height="182.985" filterUnits="userSpaceOnUse" color-interpolation-filters="sRGB">
<feFlood flood-opacity="0" result="BackgroundImageFix"/>
<feColorMatrix in="SourceAlpha" type="matrix" values="0 0 0 0 0 0 0 0 0 0 0 0 0 0 0 0 0 0 127 0" result="hardAlpha"/>
<feOffset dy="4"/>
<feGaussianBlur stdDeviation="15"/>
<feComposite in2="hardAlpha" operator="out"/>
<feColorMatrix type="matrix" values="0 0 0 0 0.618306 0 0 0 0 0.618306 0 0 0 0 0.618306 0 0 0 0.15 0"/>
<feBlend mode="normal" in2="BackgroundImageFix" result="effect1_dropShadow_550_68"/>
<feBlend mode="normal" in="SourceGraphic" in2="effect1_dropShadow_550_68" result="shape"/>
</filter>
</defs>
</svg>
