<svg width="348" height="198" viewBox="0 0 348 198" fill="none" xmlns="http://www.w3.org/2000/svg">
<path d="M326.896 58.9369C327.856 58.9129 328.792 58.865 329.248 58.817C331.264 58.6493 335.224 58.2898 339.616 57.9304C342.088 57.7147 344.704 57.5709 346.408 57.499L346.432 60.5664C345.136 60.5904 343.072 60.5904 341.8 60.9019C338.896 61.6687 336.712 64.7601 336.712 67.6118C336.712 71.5658 340.408 72.9797 344.488 73.1953L343.36 76.4784C338.32 76.1429 333.568 73.459 333.568 68.2588C333.568 64.808 335.512 62.0761 337.144 60.854C334.888 61.0936 329.992 61.6208 327.208 62.2199L326.896 58.9369ZM343 62.9149C343.6 63.7776 344.464 65.2393 344.92 66.1739L343.096 66.9887C342.496 65.6707 341.992 64.7361 341.224 63.6577L343 62.9149ZM345.688 61.8125C346.288 62.6513 347.2 64.0651 347.704 64.9997L345.904 65.8624C345.256 64.5684 344.704 63.6817 343.936 62.6273L345.688 61.8125Z" fill="#222222"/>
<mask id="mask0_495_3" style="mask-type:luminance" maskUnits="userSpaceOnUse" x="200" y="14" width="136" height="84">
<path d="M335.907 14.1348H200.573V97.3426H335.907V14.1348Z" fill="white"/>
</mask>
<g mask="url(#mask0_495_3)">
<path d="M259.058 95.9358C282.95 87.9479 339.95 62.9855 333.147 31.6428C328.211 15.3558 295.04 10.9666 259.058 21.8392C223.076 32.7119 197.908 54.7293 202.845 71.0161C206.947 84.551 230.548 89.8697 259.058 85.0403" stroke="#00A0E6" stroke-opacity="0.25" stroke-width="3" stroke-linecap="round"/>
</g>
<path d="M294.107 60.3188H310.427V55.4461H294.387C294.347 56.9638 294.267 58.6413 294.107 60.3188ZM310.427 46.0603H294.387V50.9329H310.427V46.0603ZM315.467 41.4272V70.783C315.467 73.6586 314.787 75.0166 312.947 75.8154C311.027 76.6541 308.227 76.734 304.107 76.734C303.827 75.3361 302.867 73.0595 302.107 71.7415C304.907 71.9013 308.267 71.8613 309.147 71.8613C310.107 71.8613 310.427 71.5418 310.427 70.7031V64.9118H293.307C292.267 69.3851 290.267 73.7385 286.547 76.8538C285.827 75.8553 283.907 74.098 282.867 73.419C288.907 68.2668 289.467 60.6383 289.467 54.5674V41.4272H315.467Z" fill="#222222"/>
<path d="M294.107 60.3188H310.427V55.4461H294.387C294.347 56.9638 294.267 58.6413 294.107 60.3188ZM310.427 46.0603H294.387V50.9329H310.427V46.0603ZM315.467 41.4272V70.783C315.467 73.6586 314.787 75.0166 312.947 75.8154C311.027 76.6541 308.227 76.734 304.107 76.734C303.827 75.3361 302.867 73.0595 302.107 71.7415C304.907 71.9013 308.267 71.8613 309.147 71.8613C310.107 71.8613 310.427 71.5418 310.427 70.7031V64.9118H293.307C292.267 69.3851 290.267 73.7385 286.547 76.8538C285.827 75.8553 283.907 74.098 282.867 73.419C288.907 68.2668 289.467 60.6383 289.467 54.5674V41.4272H315.467Z" fill="url(#paint0_linear_495_3)"/>
<path d="M294.107 60.3188H310.427V55.4461H294.387C294.347 56.9638 294.267 58.6413 294.107 60.3188ZM310.427 46.0603H294.387V50.9329H310.427V46.0603ZM315.467 41.4272V70.783C315.467 73.6586 314.787 75.0166 312.947 75.8154C311.027 76.6541 308.227 76.734 304.107 76.734C303.827 75.3361 302.867 73.0595 302.107 71.7415C304.907 71.9013 308.267 71.8613 309.147 71.8613C310.107 71.8613 310.427 71.5418 310.427 70.7031V64.9118H293.307C292.267 69.3851 290.267 73.7385 286.547 76.8538C285.827 75.8553 283.907 74.098 282.867 73.419C288.907 68.2668 289.467 60.6383 289.467 54.5674V41.4272H315.467Z" fill="url(#paint1_linear_495_3)"/>
<path d="M263.6 49.4947C263.24 50.4133 262.92 51.1322 262.68 51.8511C262.4 52.57 262.04 53.4887 261.64 54.4073H276.24C277.12 54.4073 278.72 54.3673 279.8 54.2076V59.0802C278.56 58.9604 277.04 58.9604 276.24 58.9604H271.36C270.68 67.4276 267.48 73.3787 261.08 77.2928L256.12 73.9777C257.24 73.4985 258.76 72.6198 259.72 71.8609C263.04 69.145 265.68 65.3508 266.32 58.9604H259.32C257.76 61.4367 255.44 64.4322 253.8 65.87L249.12 63.1541C251.72 61.197 253.8 58.561 255.2 56.3643C256.32 54.6469 257 52.8496 257.44 51.252C257.72 50.3334 257.92 49.1752 258 48.3364L263.6 49.4947Z" fill="#222222"/>
<path d="M263.6 49.4947C263.24 50.4133 262.92 51.1322 262.68 51.8511C262.4 52.57 262.04 53.4887 261.64 54.4073H276.24C277.12 54.4073 278.72 54.3673 279.8 54.2076V59.0802C278.56 58.9604 277.04 58.9604 276.24 58.9604H271.36C270.68 67.4276 267.48 73.3787 261.08 77.2928L256.12 73.9777C257.24 73.4985 258.76 72.6198 259.72 71.8609C263.04 69.145 265.68 65.3508 266.32 58.9604H259.32C257.76 61.4367 255.44 64.4322 253.8 65.87L249.12 63.1541C251.72 61.197 253.8 58.561 255.2 56.3643C256.32 54.6469 257 52.8496 257.44 51.252C257.72 50.3334 257.92 49.1752 258 48.3364L263.6 49.4947Z" fill="url(#paint2_linear_495_3)"/>
<path d="M263.6 49.4947C263.24 50.4133 262.92 51.1322 262.68 51.8511C262.4 52.57 262.04 53.4887 261.64 54.4073H276.24C277.12 54.4073 278.72 54.3673 279.8 54.2076V59.0802C278.56 58.9604 277.04 58.9604 276.24 58.9604H271.36C270.68 67.4276 267.48 73.3787 261.08 77.2928L256.12 73.9777C257.24 73.4985 258.76 72.6198 259.72 71.8609C263.04 69.145 265.68 65.3508 266.32 58.9604H259.32C257.76 61.4367 255.44 64.4322 253.8 65.87L249.12 63.1541C251.72 61.197 253.8 58.561 255.2 56.3643C256.32 54.6469 257 52.8496 257.44 51.252C257.72 50.3334 257.92 49.1752 258 48.3364L263.6 49.4947Z" fill="url(#paint3_linear_495_3)"/>
<path d="M211.229 32.9192L214.042 19.6059C226.924 13.9893 236.889 7.45402 243.938 0H253.053L236.959 76.7072H221.907L233.001 23.8703C229.875 25.8811 226.264 27.7186 222.167 29.3828C218.105 31.0469 214.459 32.2257 211.229 32.9192Z" fill="#222222"/>
<path d="M211.229 32.9192L214.042 19.6059C226.924 13.9893 236.889 7.45402 243.938 0H253.053L236.959 76.7072H221.907L233.001 23.8703C229.875 25.8811 226.264 27.7186 222.167 29.3828C218.105 31.0469 214.459 32.2257 211.229 32.9192Z" fill="url(#paint4_linear_495_3)"/>
<path d="M211.229 32.9192L214.042 19.6059C226.924 13.9893 236.889 7.45402 243.938 0H253.053L236.959 76.7072H221.907L233.001 23.8703C229.875 25.8811 226.264 27.7186 222.167 29.3828C218.105 31.0469 214.459 32.2257 211.229 32.9192Z" fill="url(#paint5_linear_495_3)"/>
<path d="M180.827 56.612C180.683 57.2351 180.515 58.002 180.395 58.6011C180.251 59.32 180.059 60.2066 179.891 61.0693C180.707 61.0214 181.403 60.9735 181.907 60.9735C184.451 60.9735 186.251 62.0998 186.251 65.5506C186.251 68.3783 185.915 72.2604 184.883 74.3453C184.091 76.0228 182.771 76.55 180.947 76.55C180.035 76.55 178.883 76.3822 178.067 76.2145L177.563 73.0513C178.475 73.3149 179.867 73.5545 180.491 73.5545C181.307 73.5545 181.907 73.3149 182.291 72.5241C182.939 71.1581 183.275 68.2585 183.275 65.8861C183.275 63.969 182.435 63.7054 180.947 63.7054C180.563 63.7054 179.963 63.7533 179.267 63.8012C178.355 67.4437 176.579 73.1231 174.371 76.6458L171.251 75.3997C173.579 72.2604 175.235 67.4197 176.123 64.1367C175.259 64.2326 174.491 64.3284 174.059 64.3763C173.363 64.4962 172.115 64.6639 171.371 64.7837L171.083 61.5246C171.971 61.5965 172.763 61.5486 173.651 61.5246C174.395 61.5007 175.523 61.4288 176.747 61.309C177.083 59.5117 177.299 57.7623 177.251 56.2526L180.827 56.612ZM191.507 54.623C192.131 55.5337 193.019 57.0434 193.427 57.8821L191.531 58.6969C191.027 57.7144 190.259 56.3005 189.587 55.3899L191.507 54.623ZM188.651 55.7014C189.251 56.5881 190.115 58.0978 190.571 58.9845L189.395 59.4877C190.835 61.7164 192.635 65.7183 193.307 67.8511L190.259 69.241C189.635 66.581 187.931 62.3634 186.227 60.2546L188.387 59.32C187.907 58.4093 187.307 57.2591 186.755 56.4922L188.651 55.7014Z" fill="#222222"/>
<path d="M13.28 48.0436H7.24C7.92 49.4016 8.44 51.2388 8.6 52.437L6.6 52.9962H14.44L11.8 52.437C12.32 51.2388 12.96 49.4016 13.28 48.0436ZM12.76 63.9796V64.2991C14.2 65.2976 17.52 67.9336 18.44 68.6525L15.68 72.0474C15.04 71.2486 13.92 70.0504 12.76 68.9321V77.4393H8.16V69.4114C6.6 71.648 4.8 73.645 3.08 75.0429C2.36 74.0045 1 72.4468 0 71.688C2.6 69.9706 5.36 66.9751 7.2 63.9796H1.12V59.9856H8.16V56.9103H1V52.9962H4.68C4.52 51.6781 4.04 49.9607 3.48 48.6028L5.92 48.0436H1.44V44.1695H8.16V40.535H12.76V44.1695H19.4V48.0436H15.28L17.6 48.483C16.88 50.2004 16.24 51.798 15.68 52.9962H19.72V56.9103H12.76V59.9856H19.36V63.9796H12.76ZM37.88 53.3556V57.749H34.08V77.2795H29.48V57.749H25.4C25.36 63.7 24.52 72.1273 19.24 77.599C18.64 76.5606 16.92 74.9231 15.84 74.3639C20.44 69.4913 20.92 62.7015 20.92 57.1898V43.3707L23.68 44.1295C27.48 43.2109 31.44 41.9328 33.88 40.6148L37.68 44.0896C34.16 45.6472 29.6 46.8854 25.4 47.764V53.3556H37.88ZM49.28 42.4521H63.12C63.12 50.0007 64.2 64.5787 78.92 73.2456C77.88 74.0844 75.92 76.1612 75.08 77.3993C66.8 72.4069 62.56 64.8583 60.36 57.709C57.36 66.6556 52.56 73.2856 45.6 77.4393C44.72 76.4408 42.48 74.4837 41.24 73.5651C49.56 69.3715 54.32 61.6631 56.52 51.1589L58.96 51.5983C58.68 50.0806 58.52 48.6427 58.4 47.2848H49.28V42.4521ZM99.84 62.7814L96.96 66.6555C96.12 65.5372 94.76 63.9396 93.4 62.4619V77.5192H88.68V63.74C87.08 65.2177 85.4 66.5357 83.72 67.5742C83.32 66.2961 82.2 63.9796 81.48 63.061C85.84 60.7045 90.04 56.5109 92.64 51.9178H83V47.6043H88.68V40.2554H93.4V47.6043H95.2L96.04 47.4046L98.72 49.122C97.52 52.1574 95.92 55.0331 94 57.6691C95.92 59.2268 99 61.9826 99.84 62.7814ZM111.36 71.7279H119.88V76.3609H97.24V71.7279H106.48V57.1099H98.88V52.5169H106.48V40.5749H111.36V52.5169H118.92V57.1099H111.36V71.7279ZM152.2 47.764V45.168H136.04V47.764H152.2ZM157.28 41.4536V51.4385H131.24V41.4536H157.28ZM134.16 65.6171V67.3745H153.76V65.6171H134.16ZM134.16 60.9042V62.5817H153.76V60.9042H134.16ZM134.16 56.1514V57.8688H153.76V56.1514H134.16ZM158.68 70.5696H152.2C155.96 71.688 160.16 73.1258 162.92 74.2441L158.72 77.599C155.64 76.1612 150.12 74.2042 145.88 72.966L149.24 70.5696H138.32L141.4 72.7264C138.16 74.6036 133.04 76.5207 129 77.5192C128.12 76.5207 126.48 75.0429 125.4 74.1243C128.88 73.3654 133 71.9276 135.72 70.5696H129.44V52.9163H158.68V70.5696Z" fill="#222222"/>
<path d="M205.992 178.444C208.944 178.852 213.72 178.732 216.312 178.42V181.512C213.36 181.775 209.016 181.799 205.992 181.512V178.444ZM207.912 188.677C207.72 189.468 207.624 190.043 207.624 190.69C207.624 191.744 208.536 192.391 210.984 192.391C213.12 192.391 214.896 192.2 217.008 191.768L217.056 195.003C215.496 195.291 213.576 195.459 210.864 195.459C206.736 195.459 204.744 193.997 204.744 191.529C204.744 190.594 204.888 189.636 205.152 188.413L207.912 188.677ZM202.296 176.839C202.104 177.342 201.792 178.54 201.696 178.972C201.384 180.577 200.544 185.37 200.544 187.766C200.544 188.222 200.568 188.845 200.64 189.324C201 188.509 201.384 187.67 201.72 186.88L203.208 188.054C202.536 190.043 201.744 192.655 201.48 193.925C201.408 194.285 201.36 194.812 201.36 195.051C201.36 195.315 201.384 195.698 201.408 196.034L198.624 196.226C198.144 194.572 197.688 191.648 197.688 188.389C197.688 184.795 198.432 180.745 198.696 178.9C198.768 178.229 198.912 177.318 198.936 176.551L202.296 176.839Z" fill="#222222"/>
<path d="M236.854 190.935L244.654 190.016L244.814 194.449C237.694 195.448 230.054 196.366 224.654 197.085L223.894 192.372C226.214 192.133 229.054 191.853 232.134 191.494V186.342H225.494V182.108H232.134V178.234H236.854V182.108H243.374V186.342H236.854V190.935ZM236.494 170.006L240.014 168.169C242.214 170.845 244.774 174.519 245.774 176.996L242.014 179.152C241.774 178.513 241.454 177.834 241.054 177.076C235.134 177.395 228.974 177.675 224.534 177.874L224.254 173.441L227.734 173.361C228.414 171.484 229.094 169.327 229.574 167.41H224.334V163.216H244.614V167.41H234.894C234.134 169.367 233.294 171.404 232.454 173.241C234.454 173.201 236.574 173.121 238.694 173.042C237.974 171.963 237.214 170.925 236.494 170.006ZM250.654 165.533V188.019H246.094V165.533H250.654ZM255.174 161.819H259.854V192.332C259.854 195.008 259.294 196.366 257.694 197.085C256.134 197.844 253.534 198.004 250.134 198.004C249.934 196.646 249.254 194.529 248.574 193.131C250.974 193.251 253.414 193.251 254.214 193.251C254.934 193.211 255.174 193.011 255.174 192.332V161.819ZM290.854 175.039L289.934 174.799C290.334 173.92 290.774 172.802 291.134 171.803H283.814C284.334 172.802 284.774 173.96 284.974 174.799L283.894 175.039H290.854ZM279.294 171.923L279.854 171.803H274.614V168.369H285.174V166.332H277.294V163.057H285.174V160.7H289.894V163.057H298.174V166.332H289.894V168.369H300.614V171.803H295.094L296.094 172.043C295.414 173.161 294.814 174.2 294.254 175.039H300.214V178.394H289.894V180.191H298.694V183.466H289.894V185.343H300.294V188.778H289.894V191.454H285.174V188.778H275.214V185.343H285.174V183.466H276.814V180.191H285.174V178.394H275.254V175.039H280.534C280.294 174.04 279.814 172.842 279.294 171.923ZM274.294 168.049L270.374 171.045C269.254 169.088 266.614 166.332 264.374 164.415L268.014 161.699C270.254 163.496 273.014 166.132 274.294 168.049ZM273.214 176.197V188.938C274.774 191.614 277.574 192.732 281.654 192.892C286.454 193.091 295.894 192.972 301.414 192.532C300.854 193.651 300.174 195.847 299.934 197.165C294.974 197.405 286.494 197.485 281.614 197.285C276.854 197.085 273.654 195.927 271.254 192.852C269.654 194.409 268.014 195.927 265.974 197.644L263.734 192.932C265.294 191.933 267.094 190.615 268.694 189.257V180.55H264.214V176.197H273.214Z" fill="#222222"/>
<path d="M18.6001 167.33V193.611C21.2401 192.133 23.5601 189.976 25.5201 187.26C23.0801 182.827 21.3601 177.475 20.1201 171.444L24.6801 170.525C25.4801 174.799 26.6801 178.833 28.3601 182.348C29.9201 178.913 31.1201 174.919 31.8001 170.446H20.0001V167.33H18.6001ZM8.32012 183.626V187.979C10.1601 187.74 12.0801 187.46 14.0001 187.22V183.626H8.32012ZM8.32012 175.398V179.392H14.0001V175.398H8.32012ZM14.0001 167.33H8.32012V171.125H14.0001V167.33ZM33.9201 165.653L37.0401 166.412C36.2001 175.119 34.2801 181.988 31.2801 187.34C33.2401 190.016 35.6401 192.253 38.5201 193.81C37.4401 194.689 35.9601 196.486 35.2401 197.724C32.5201 196.087 30.2801 194.05 28.3601 191.614C26.3201 194.09 23.9601 196.087 21.2401 197.724C20.6401 196.686 19.5601 195.208 18.6001 194.25V198.004H14.0001V191.614C9.40012 192.412 4.72012 193.131 1.04012 193.691L0.120117 188.938C1.20012 188.818 2.44012 188.698 3.80012 188.538V167.33H1.08012V162.937H21.1601V165.773H33.1201L33.9201 165.653ZM70.4401 167.171V165.174H60.0401V167.171H70.4401ZM70.4401 172.363V170.286H60.0401V172.363H70.4401ZM75.2401 161.859V175.678H55.4401V161.859H75.2401ZM48.5601 160.74L53.0801 162.577C50.4401 166.252 46.3601 170.166 42.6001 172.602C42.1201 171.524 40.9601 169.567 40.2401 168.568C43.3601 166.651 46.8801 163.416 48.5601 160.74ZM49.6001 169.447L53.7601 171.244C52.8001 172.922 51.6001 174.599 50.2801 176.277V197.964H45.6801V181.389C44.4801 182.587 43.2801 183.706 42.0801 184.624C41.7201 183.586 40.5201 180.87 39.8001 179.712C43.3601 177.235 47.2801 173.361 49.6001 169.447ZM77.3601 183.586L77.4001 187.62H71.9201V193.291C71.9201 195.488 71.5201 196.606 69.9601 197.285C68.4801 197.964 66.4801 197.964 63.7601 197.964C63.5601 196.686 62.8801 194.929 62.2801 193.73C63.9601 193.81 65.8401 193.81 66.3601 193.81C66.9201 193.77 67.0801 193.611 67.0801 193.171V187.62H58.6801C60.2801 189.137 62.2401 191.214 63.2401 192.612L59.6801 195.128C58.8001 193.611 56.7601 191.254 55.0801 189.577L58.0401 187.62H52.4401V183.586H67.0801V181.309H53.4001V177.435H76.5601V181.309H71.9201V183.586H77.3601ZM83.8401 192.932C84.3201 191.933 84.3601 191.254 84.3601 190.336V168.688C84.3601 167.171 84.1601 165.293 83.9201 164.135H90.2001C89.9601 165.693 89.8001 167.131 89.8001 168.688V189.457C96.3201 187.58 105.24 182.467 110.36 176.237L113.2 180.75C107.72 187.3 99.4401 192.053 90.0001 195.128C89.4401 195.328 88.5601 195.608 87.6401 196.207L83.8401 192.932ZM142.8 166.851C143.92 168.489 145.68 171.404 146.56 173.241L142.96 174.799C141.8 172.283 140.8 170.326 139.32 168.289L142.8 166.851ZM148.16 164.654C149.32 166.252 151.12 169.088 152.04 170.885L148.56 172.562C147.28 170.046 146.2 168.209 144.72 166.212L148.16 164.654ZM115.84 183.146C117.04 182.188 117.92 181.309 119.16 180.111C120.96 178.274 124.08 174.36 126.84 171.085C129.2 168.289 131.56 167.85 134.68 170.765C137.36 173.281 140.44 176.477 142.84 179.073C145.52 181.908 149.6 186.342 152.68 189.617L148.28 194.33C145.6 191.015 142.2 186.901 139.84 184.145C137.52 181.389 133.96 177.515 132.52 176.037C131.24 174.759 130.4 174.839 129.24 176.277C127.68 178.274 124.84 182.228 123.24 184.385C122.32 185.663 121.36 187.061 120.64 188.099L115.84 183.146ZM172.96 193.651C173.12 192.892 173.28 191.773 173.28 190.695V167.41C173.28 165.613 173 164.095 172.96 163.975H178.92C178.88 164.095 178.64 165.653 178.64 167.45V188.339C181.88 186.941 185.84 183.785 188.52 179.911L191.6 184.305C188.28 188.618 182.52 192.932 178.04 195.208C177.16 195.688 176.68 196.087 176.32 196.406L172.96 193.651ZM154.44 193.052C157.96 190.575 160.12 186.901 161.24 183.506C162.36 180.071 162.4 172.522 162.4 167.69C162.4 166.092 162.28 165.014 162.04 164.015H167.92C167.88 164.215 167.64 165.972 167.64 167.65C167.64 172.363 167.52 180.79 166.44 184.824C165.24 189.337 162.72 193.251 159.32 196.287L154.44 193.052Z" fill="#222222"/>
<path d="M21.623 120.329L27.5606 121.226C26.4017 124.437 24.6634 126.895 22.3457 128.598C20.028 130.288 17.3132 131.133 14.2012 131.133C10.6986 131.133 7.9577 130.08 5.9785 127.974C4.01237 125.868 3.0293 122.812 3.0293 118.808C3.0293 115.557 3.68685 112.586 5.00196 109.895C6.3301 107.191 8.16604 105.124 10.5098 103.694C12.8535 102.264 15.4056 101.548 18.166 101.548C21.265 101.548 23.7715 102.38 25.6856 104.045C27.5996 105.696 28.7259 107.952 29.0644 110.812L23.4199 111.358C23.1074 109.694 22.502 108.491 21.6035 107.75C20.7181 106.996 19.5332 106.619 18.0488 106.619C16.4212 106.619 14.8978 107.113 13.4785 108.101C12.0722 109.089 10.946 110.637 10.0996 112.743C9.25324 114.836 8.8301 116.929 8.8301 119.022C8.8301 121.311 9.37697 123.079 10.4707 124.327C11.5775 125.575 12.9512 126.199 14.5918 126.199C16.1152 126.199 17.5084 125.705 18.7715 124.717C20.0475 123.729 20.998 122.266 21.623 120.329ZM50.5293 120.329L56.4668 121.226C55.308 124.437 53.5696 126.895 51.252 128.598C48.9342 130.288 46.2194 131.133 43.1074 131.133C39.6048 131.133 36.8639 130.08 34.8848 127.974C32.9186 125.868 31.9356 122.812 31.9356 118.808C31.9356 115.557 32.5931 112.586 33.9082 109.895C35.2363 107.191 37.0722 105.124 39.416 103.694C41.7598 102.264 44.3118 101.548 47.0722 101.548C50.1712 101.548 52.6777 102.38 54.5918 104.045C56.5058 105.696 57.6322 107.952 57.9707 110.812L52.3262 111.358C52.0137 109.694 51.4082 108.491 50.5098 107.75C49.6244 106.996 48.4394 106.619 46.9551 106.619C45.3275 106.619 43.804 107.113 42.3848 108.101C40.9785 109.089 39.8522 110.637 39.0058 112.743C38.1595 114.836 37.7363 116.929 37.7363 119.022C37.7363 121.311 38.2832 123.079 39.377 124.327C40.4837 125.575 41.8574 126.199 43.498 126.199C45.0215 126.199 46.4147 125.705 47.6777 124.717C48.9538 123.729 49.9043 122.266 50.5293 120.329ZM81.5842 130.626H76.0956L68.3616 111.417L64.3379 130.626H58.8496L64.8262 102.036H70.3342L78.0876 121.167L82.0916 102.036H87.5602L81.5842 130.626ZM106.35 124.307H95.0022L91.5642 130.626H85.5096L101.701 102.036H108.244L112.893 130.626H107.307L106.35 124.307ZM105.627 119.549L103.967 108.043L97.0529 119.549H105.627Z" fill="#222222"/>
<path d="M125.24 115.022C126.813 115.022 128.066 116.274 128.066 117.845C128.066 119.416 126.813 120.667 125.24 120.667C123.666 120.667 122.413 119.416 122.413 117.845C122.413 116.274 123.666 115.022 125.24 115.022Z" fill="#222222"/>
<path d="M137.703 130.626L143.699 102.036H149.578L144.598 125.848H159.168L158.172 130.626H137.703ZM167.938 102.036H173.543L172.488 107.107H166.883L167.938 102.036ZM166.297 109.915H171.902L167.566 130.626H161.961L166.297 109.915ZM177.508 109.915H182.82L182.274 112.606C183.602 111.462 184.838 110.649 185.984 110.169C187.143 109.674 188.361 109.427 189.637 109.427C191.342 109.427 192.684 109.915 193.66 110.89C194.65 111.865 195.144 113.159 195.144 114.771C195.144 115.499 194.93 116.877 194.5 118.906L192.059 130.626H186.453L188.914 118.866C189.279 117.111 189.461 116.064 189.461 115.726C189.461 115.011 189.246 114.452 188.816 114.049C188.4 113.633 187.814 113.425 187.059 113.425C186.238 113.425 185.327 113.77 184.324 114.459C183.322 115.148 182.534 116.058 181.961 117.189C181.544 117.995 181.076 119.64 180.555 122.123L178.778 130.626H173.172L177.508 109.915ZM201.844 109.915H207.449L204.891 122.181C204.578 123.65 204.422 124.567 204.422 124.931C204.422 125.53 204.643 126.043 205.086 126.472C205.529 126.901 206.095 127.116 206.785 127.116C207.28 127.116 207.768 127.025 208.25 126.842C208.732 126.647 209.226 126.362 209.734 125.984C210.242 125.594 210.698 125.152 211.102 124.658C211.505 124.164 211.883 123.514 212.234 122.708C212.482 122.11 212.749 121.135 213.035 119.783L215.106 109.915H220.711L216.375 130.626H211.141L211.726 127.817C209.435 130.015 206.942 131.113 204.246 131.113C202.54 131.113 201.199 130.626 200.223 129.651C199.246 128.675 198.758 127.369 198.758 125.731C198.758 125.016 198.979 123.592 199.422 121.46L201.844 109.915ZM242.781 120.329L248.719 121.226C247.56 124.437 245.822 126.895 243.504 128.598C241.186 130.288 238.472 131.133 235.36 131.133C231.857 131.133 229.116 130.08 227.137 127.974C225.17 125.868 224.188 122.812 224.188 118.808C224.188 115.557 224.845 112.586 226.16 109.895C227.488 107.191 229.324 105.124 231.668 103.694C234.012 102.264 236.564 101.548 239.324 101.548C242.423 101.548 244.93 102.38 246.844 104.045C248.758 105.696 249.884 107.952 250.223 110.812L244.578 111.358C244.266 109.694 243.66 108.491 242.762 107.75C241.876 106.996 240.692 106.619 239.207 106.619C237.58 106.619 236.056 107.113 234.637 108.101C233.23 109.089 232.104 110.637 231.258 112.743C230.412 114.836 229.988 116.929 229.988 119.022C229.988 121.311 230.535 123.079 231.629 124.327C232.736 125.575 234.11 126.199 235.75 126.199C237.274 126.199 238.667 125.705 239.93 124.717C241.206 123.729 242.156 122.266 242.781 120.329Z" fill="#222222"/>
<path d="M2.40596 136.37C2.5072 136.117 2.75234 135.951 3.02494 135.951H113.589C114.06 135.951 114.383 136.427 114.208 136.864L113.408 138.861C113.307 139.114 113.062 139.279 112.789 139.279H2.22494C1.7533 139.279 1.43079 138.804 1.60596 138.367L2.40596 136.37Z" fill="black"/>
<path d="M137.74 136.37C137.841 136.117 138.086 135.951 138.359 135.951H248.923C249.394 135.951 249.717 136.427 249.541 136.864L248.741 138.861C248.641 139.114 248.395 139.279 248.123 139.279H137.559C137.087 139.279 136.765 138.804 136.94 138.367L137.74 136.37Z" fill="black"/>
<path d="M261.254 129.668C261.542 129.068 261.566 128.661 261.566 128.11V115.121C261.566 114.211 261.446 113.085 261.302 112.39H265.07C264.926 113.324 264.83 114.187 264.83 115.121V127.583C268.742 126.456 274.094 123.389 277.166 119.651L278.87 122.359C275.582 126.289 270.614 129.14 264.95 130.986C264.614 131.105 264.086 131.273 263.534 131.633L261.254 129.668ZM296.63 114.019C297.302 115.002 298.358 116.751 298.886 117.853L296.726 118.788C296.03 117.278 295.43 116.104 294.542 114.882L296.63 114.019ZM299.846 112.701C300.542 113.66 301.622 115.361 302.174 116.439L300.086 117.446C299.318 115.936 298.67 114.834 297.782 113.636L299.846 112.701ZM280.454 123.796C281.174 123.221 281.702 122.694 282.446 121.975C283.526 120.873 285.398 118.524 287.054 116.559C288.47 114.882 289.886 114.618 291.758 116.368C293.366 117.877 295.214 119.794 296.654 121.352C298.262 123.054 300.71 125.713 302.558 127.679L299.918 130.506C298.31 128.517 296.27 126.049 294.854 124.395C293.462 122.742 291.326 120.417 290.462 119.531C289.694 118.764 289.19 118.812 288.494 119.675C287.558 120.873 285.854 123.245 284.894 124.539C284.342 125.306 283.766 126.145 283.334 126.768L280.454 123.796ZM314.726 130.099C314.822 129.644 314.918 128.973 314.918 128.326V114.355C314.918 113.276 314.75 112.366 314.726 112.294H318.302C318.278 112.366 318.134 113.3 318.134 114.379V126.912C320.078 126.073 322.454 124.18 324.062 121.855L325.91 124.491C323.918 127.079 320.462 129.668 317.774 131.033C317.246 131.321 316.958 131.561 316.742 131.752L314.726 130.099ZM303.614 129.739C305.726 128.254 307.022 126.049 307.694 124.012C308.366 121.951 308.39 117.422 308.39 114.522C308.39 113.564 308.318 112.917 308.174 112.318H311.702C311.678 112.438 311.534 113.492 311.534 114.498C311.534 117.326 311.462 122.383 310.814 124.803C310.094 127.511 308.582 129.859 306.542 131.68L303.614 129.739ZM338.109 130.626H334.45V116.858C333.113 118.106 331.537 119.029 329.723 119.627V116.312C330.678 115.999 331.715 115.41 332.835 114.544C333.955 113.668 334.723 112.65 335.14 111.488H338.109V130.626Z" fill="#222222"/>
<defs>
<linearGradient id="paint0_linear_495_3" x1="317.251" y1="56.0718" x2="306.107" y2="56.0718" gradientUnits="userSpaceOnUse">
<stop stop-color="#0072BE"/>
<stop offset="1" stop-color="#00A0E6"/>
</linearGradient>
<linearGradient id="paint1_linear_495_3" x1="281.907" y1="56.0718" x2="321.907" y2="56.0718" gradientUnits="userSpaceOnUse">
<stop stop-color="#4889D8"/>
<stop offset="1" stop-color="#63B1C2"/>
</linearGradient>
<linearGradient id="paint2_linear_495_3" x1="280.583" y1="56.0714" x2="269.439" y2="56.0714" gradientUnits="userSpaceOnUse">
<stop stop-color="#0072BE"/>
<stop offset="1" stop-color="#00A0E6"/>
</linearGradient>
<linearGradient id="paint3_linear_495_3" x1="245.24" y1="56.0714" x2="285.24" y2="56.0714" gradientUnits="userSpaceOnUse">
<stop stop-color="#4889D8"/>
<stop offset="1" stop-color="#63B1C2"/>
</linearGradient>
<linearGradient id="paint4_linear_495_3" x1="251.588" y1="40.0957" x2="234.873" y2="40.0957" gradientUnits="userSpaceOnUse">
<stop stop-color="#0072BE"/>
<stop offset="1" stop-color="#00A0E6"/>
</linearGradient>
<linearGradient id="paint5_linear_495_3" x1="198.573" y1="40.0958" x2="258.573" y2="40.0958" gradientUnits="userSpaceOnUse">
<stop stop-color="#4889D8"/>
<stop offset="1" stop-color="#63B1C2"/>
</linearGradient>
</defs>
</svg>
