<svg width="525" height="299" viewBox="0 0 525 299" fill="none" xmlns="http://www.w3.org/2000/svg">
<path d="M491.484 89.304C492.924 89.268 494.328 89.196 495.012 89.124C498.036 88.872 503.976 88.332 510.564 87.792C514.272 87.468 518.196 87.252 520.752 87.144L520.788 91.752C518.844 91.788 515.748 91.788 513.84 92.256C509.484 93.408 506.208 98.052 506.208 102.336C506.208 108.276 511.752 110.4 517.872 110.724L516.18 115.656C508.62 115.152 501.492 111.12 501.492 103.308C501.492 98.124 504.408 94.02 506.856 92.184C503.472 92.544 496.128 93.336 491.952 94.236L491.484 89.304ZM515.64 95.28C516.54 96.576 517.836 98.772 518.52 100.176L515.784 101.4C514.884 99.42 514.128 98.016 512.976 96.396L515.64 95.28ZM519.672 93.624C520.572 94.884 521.94 97.008 522.696 98.412L519.996 99.708C519.024 97.764 518.196 96.432 517.044 94.848L519.672 93.624Z" fill="#222222"/>
<g clip-path="url(#clip0_626_45)">
<path d="M389.727 144.886C425.565 132.886 511.065 95.3862 500.861 48.3015C493.457 23.8341 443.7 17.2404 389.727 33.5739C335.754 49.9075 298.002 82.9831 305.407 107.451C311.56 127.784 346.962 135.773 389.727 128.518" stroke="#00A0E6" stroke-opacity="0.25" stroke-width="3" stroke-linecap="round"/>
</g>
<path d="M442.3 91.38H466.78V84.06H442.72C442.66 86.34 442.54 88.86 442.3 91.38ZM466.78 69.96H442.72V77.28H466.78V69.96ZM474.34 63V107.1C474.34 111.42 473.32 113.46 470.56 114.66C467.68 115.92 463.48 116.04 457.3 116.04C456.88 113.94 455.44 110.52 454.3 108.54C458.5 108.78 463.54 108.72 464.86 108.72C466.3 108.72 466.78 108.24 466.78 106.98V98.28H441.1C439.54 105 436.54 111.54 430.96 116.22C429.88 114.72 427 112.08 425.44 111.06C434.5 103.32 435.34 91.86 435.34 82.74V63H474.34Z" fill="#222222"/>
<path d="M442.3 91.38H466.78V84.06H442.72C442.66 86.34 442.54 88.86 442.3 91.38ZM466.78 69.96H442.72V77.28H466.78V69.96ZM474.34 63V107.1C474.34 111.42 473.32 113.46 470.56 114.66C467.68 115.92 463.48 116.04 457.3 116.04C456.88 113.94 455.44 110.52 454.3 108.54C458.5 108.78 463.54 108.72 464.86 108.72C466.3 108.72 466.78 108.24 466.78 106.98V98.28H441.1C439.54 105 436.54 111.54 430.96 116.22C429.88 114.72 427 112.08 425.44 111.06C434.5 103.32 435.34 91.86 435.34 82.74V63H474.34Z" fill="url(#paint0_linear_626_45)"/>
<path d="M442.3 91.38H466.78V84.06H442.72C442.66 86.34 442.54 88.86 442.3 91.38ZM466.78 69.96H442.72V77.28H466.78V69.96ZM474.34 63V107.1C474.34 111.42 473.32 113.46 470.56 114.66C467.68 115.92 463.48 116.04 457.3 116.04C456.88 113.94 455.44 110.52 454.3 108.54C458.5 108.78 463.54 108.72 464.86 108.72C466.3 108.72 466.78 108.24 466.78 106.98V98.28H441.1C439.54 105 436.54 111.54 430.96 116.22C429.88 114.72 427 112.08 425.44 111.06C434.5 103.32 435.34 91.86 435.34 82.74V63H474.34Z" fill="url(#paint1_linear_626_45)"/>
<path d="M396.54 75.12C396 76.5 395.52 77.58 395.16 78.66C394.74 79.74 394.2 81.12 393.6 82.5H415.5C416.82 82.5 419.22 82.44 420.84 82.2V89.52C418.98 89.34 416.7 89.34 415.5 89.34H408.18C407.16 102.06 402.36 111 392.76 116.88L385.32 111.9C387 111.18 389.28 109.86 390.72 108.72C395.7 104.64 399.66 98.94 400.62 89.34H390.12C387.78 93.06 384.3 97.56 381.84 99.72L374.82 95.64C378.72 92.7 381.84 88.74 383.94 85.44C385.62 82.86 386.64 80.16 387.3 77.76C387.72 76.38 388.02 74.64 388.14 73.38L396.54 75.12Z" fill="#222222"/>
<path d="M396.54 75.12C396 76.5 395.52 77.58 395.16 78.66C394.74 79.74 394.2 81.12 393.6 82.5H415.5C416.82 82.5 419.22 82.44 420.84 82.2V89.52C418.98 89.34 416.7 89.34 415.5 89.34H408.18C407.16 102.06 402.36 111 392.76 116.88L385.32 111.9C387 111.18 389.28 109.86 390.72 108.72C395.7 104.64 399.66 98.94 400.62 89.34H390.12C387.78 93.06 384.3 97.56 381.84 99.72L374.82 95.64C378.72 92.7 381.84 88.74 383.94 85.44C385.62 82.86 386.64 80.16 387.3 77.76C387.72 76.38 388.02 74.64 388.14 73.38L396.54 75.12Z" fill="url(#paint2_linear_626_45)"/>
<path d="M396.54 75.12C396 76.5 395.52 77.58 395.16 78.66C394.74 79.74 394.2 81.12 393.6 82.5H415.5C416.82 82.5 419.22 82.44 420.84 82.2V89.52C418.98 89.34 416.7 89.34 415.5 89.34H408.18C407.16 102.06 402.36 111 392.76 116.88L385.32 111.9C387 111.18 389.28 109.86 390.72 108.72C395.7 104.64 399.66 98.94 400.62 89.34H390.12C387.78 93.06 384.3 97.56 381.84 99.72L374.82 95.64C378.72 92.7 381.84 88.74 383.94 85.44C385.62 82.86 386.64 80.16 387.3 77.76C387.72 76.38 388.02 74.64 388.14 73.38L396.54 75.12Z" fill="url(#paint3_linear_626_45)"/>
<path d="M317.984 50.2188L322.203 30.2188C341.526 21.7812 356.474 11.9635 367.047 0.765625H380.719L356.578 116H334L350.641 36.625C345.953 39.6458 340.536 42.4062 334.391 44.9062C328.297 47.4062 322.828 49.1771 317.984 50.2188Z" fill="#222222"/>
<path d="M317.984 50.2188L322.203 30.2188C341.526 21.7812 356.474 11.9635 367.047 0.765625H380.719L356.578 116H334L350.641 36.625C345.953 39.6458 340.536 42.4062 334.391 44.9062C328.297 47.4062 322.828 49.1771 317.984 50.2188Z" fill="url(#paint4_linear_626_45)"/>
<path d="M317.984 50.2188L322.203 30.2188C341.526 21.7812 356.474 11.9635 367.047 0.765625H380.719L356.578 116H334L350.641 36.625C345.953 39.6458 340.536 42.4062 334.391 44.9062C328.297 47.4062 322.828 49.1771 317.984 50.2188Z" fill="url(#paint5_linear_626_45)"/>
<path d="M272.38 85.812C272.164 86.748 271.912 87.9 271.732 88.8C271.516 89.88 271.228 91.212 270.976 92.508C272.2 92.436 273.244 92.364 274 92.364C277.816 92.364 280.516 94.056 280.516 99.24C280.516 103.488 280.012 109.32 278.464 112.452C277.276 114.972 275.296 115.764 272.56 115.764C271.192 115.764 269.464 115.512 268.24 115.26L267.484 110.508C268.852 110.904 270.94 111.264 271.876 111.264C273.1 111.264 274 110.904 274.576 109.716C275.548 107.664 276.052 103.308 276.052 99.744C276.052 96.864 274.792 96.468 272.56 96.468C271.984 96.468 271.084 96.54 270.04 96.612C268.672 102.084 266.008 110.616 262.696 115.908L258.016 114.036C261.508 109.32 263.992 102.048 265.324 97.116C264.028 97.26 262.876 97.404 262.228 97.476C261.184 97.656 259.312 97.908 258.196 98.088L257.764 93.192C259.096 93.3 260.284 93.228 261.616 93.192C262.732 93.156 264.424 93.048 266.26 92.868C266.764 90.168 267.088 87.54 267.016 85.272L272.38 85.812ZM288.4 82.824C289.336 84.192 290.668 86.46 291.28 87.72L288.436 88.944C287.68 87.468 286.528 85.344 285.52 83.976L288.4 82.824ZM284.116 84.444C285.016 85.776 286.312 88.044 286.996 89.376L285.232 90.132C287.392 93.48 290.092 99.492 291.1 102.696L286.528 104.784C285.592 100.788 283.036 94.452 280.48 91.284L283.72 89.88C283 88.512 282.1 86.784 281.272 85.632L284.116 84.444Z" fill="#222222"/>
<path d="M21.06 72.94H12C13.02 74.98 13.8 77.74 14.04 79.54L11.04 80.38H22.8L18.84 79.54C19.62 77.74 20.58 74.98 21.06 72.94ZM20.28 96.88V97.36C22.44 98.86 27.42 102.82 28.8 103.9L24.66 109C23.7 107.8 22.02 106 20.28 104.32V117.1H13.38V105.04C11.04 108.4 8.34 111.4 5.76 113.5C4.68 111.94 2.64 109.6 1.14 108.46C5.04 105.88 9.18 101.38 11.94 96.88H2.82V90.88H13.38V86.26H2.64V80.38H8.16C7.92 78.4 7.2 75.82 6.36 73.78L10.02 72.94H3.3V67.12H13.38V61.66H20.28V67.12H30.24V72.94H24.06L27.54 73.6C26.46 76.18 25.5 78.58 24.66 80.38H30.72V86.26H20.28V90.88H30.18V96.88H20.28ZM57.96 80.92V87.52H52.26V116.86H45.36V87.52H39.24C39.18 96.46 37.92 109.12 30 117.34C29.1 115.78 26.52 113.32 24.9 112.48C31.8 105.16 32.52 94.96 32.52 86.68V65.92L36.66 67.06C42.36 65.68 48.3 63.76 51.96 61.78L57.66 67C52.38 69.34 45.54 71.2 39.24 72.52V80.92H57.96ZM75.06 64.54H95.82C95.82 75.88 97.44 97.78 119.52 110.8C117.96 112.06 115.02 115.18 113.76 117.04C101.34 109.54 94.98 98.2 91.68 87.46C87.18 100.9 79.98 110.86 69.54 117.1C68.22 115.6 64.86 112.66 63 111.28C75.48 104.98 82.62 93.4 85.92 77.62L89.58 78.28C89.16 76 88.92 73.84 88.74 71.8H75.06V64.54ZM150.9 95.08L146.58 100.9C145.32 99.22 143.28 96.82 141.24 94.6V117.22H134.16V96.52C131.76 98.74 129.24 100.72 126.72 102.28C126.12 100.36 124.44 96.88 123.36 95.5C129.9 91.96 136.2 85.66 140.1 78.76H125.64V72.28H134.16V61.24H141.24V72.28H143.94L145.2 71.98L149.22 74.56C147.42 79.12 145.02 83.44 142.14 87.4C145.02 89.74 149.64 93.88 150.9 95.08ZM168.18 108.52H180.96V115.48H147V108.52H160.86V86.56H149.46V79.66H160.86V61.72H168.18V79.66H179.52V86.56H168.18V108.52ZM229.44 72.52V68.62H205.2V72.52H229.44ZM237.06 63.04V78.04H198V63.04H237.06ZM202.38 99.34V101.98H231.78V99.34H202.38ZM202.38 92.26V94.78H231.78V92.26H202.38ZM202.38 85.12V87.7H231.78V85.12H202.38ZM239.16 106.78H229.44C235.08 108.46 241.38 110.62 245.52 112.3L239.22 117.34C234.6 115.18 226.32 112.24 219.96 110.38L225 106.78H208.62L213.24 110.02C208.38 112.84 200.7 115.72 194.64 117.22C193.32 115.72 190.86 113.5 189.24 112.12C194.46 110.98 200.64 108.82 204.72 106.78H195.3V80.26H239.16V106.78Z" fill="#222222"/>
<path d="M310.128 268.836C314.556 269.448 321.72 269.268 325.608 268.8V273.444C321.18 273.84 314.664 273.876 310.128 273.444V268.836ZM313.008 284.208C312.72 285.396 312.576 286.26 312.576 287.232C312.576 288.816 313.944 289.788 317.616 289.788C320.82 289.788 323.484 289.5 326.652 288.852L326.724 293.712C324.384 294.144 321.504 294.396 317.436 294.396C311.244 294.396 308.256 292.2 308.256 288.492C308.256 287.088 308.472 285.648 308.868 283.812L313.008 284.208ZM304.584 266.424C304.296 267.18 303.828 268.98 303.684 269.628C303.216 272.04 301.956 279.24 301.956 282.84C301.956 283.524 301.992 284.46 302.1 285.18C302.64 283.956 303.216 282.696 303.72 281.508L305.952 283.272C304.944 286.26 303.756 290.184 303.36 292.092C303.252 292.632 303.18 293.424 303.18 293.784C303.18 294.18 303.216 294.756 303.252 295.26L299.076 295.548C298.356 293.064 297.672 288.672 297.672 283.776C297.672 278.376 298.788 272.292 299.184 269.52C299.292 268.512 299.508 267.144 299.544 265.992L304.584 266.424Z" fill="#222222"/>
<path d="M356.42 287.6L368.12 286.22L368.36 292.88C357.68 294.38 346.22 295.76 338.12 296.84L336.98 289.76C340.46 289.4 344.72 288.98 349.34 288.44V280.7H339.38V274.34H349.34V268.52H356.42V274.34H366.2V280.7H356.42V287.6ZM355.88 256.16L361.16 253.4C364.46 257.42 368.3 262.94 369.8 266.66L364.16 269.9C363.8 268.94 363.32 267.92 362.72 266.78C353.84 267.26 344.6 267.68 337.94 267.98L337.52 261.32L342.74 261.2C343.76 258.38 344.78 255.14 345.5 252.26H337.64V245.96H368.06V252.26H353.48C352.34 255.2 351.08 258.26 349.82 261.02C352.82 260.96 356 260.84 359.18 260.72C358.1 259.1 356.96 257.54 355.88 256.16ZM377.12 249.44V283.22H370.28V249.44H377.12ZM383.9 243.86H390.92V289.7C390.92 293.72 390.08 295.76 387.68 296.84C385.34 297.98 381.44 298.22 376.34 298.22C376.04 296.18 375.02 293 374 290.9C377.6 291.08 381.26 291.08 382.46 291.08C383.54 291.02 383.9 290.72 383.9 289.7V243.86ZM437.42 263.72L436.04 263.36C436.64 262.04 437.3 260.36 437.84 258.86H426.86C427.64 260.36 428.3 262.1 428.6 263.36L426.98 263.72H437.42ZM420.08 259.04L420.92 258.86H413.06V253.7H428.9V250.64H417.08V245.72H428.9V242.18H435.98V245.72H448.4V250.64H435.98V253.7H452.06V258.86H443.78L445.28 259.22C444.26 260.9 443.36 262.46 442.52 263.72H451.46V268.76H435.98V271.46H449.18V276.38H435.98V279.2H451.58V284.36H435.98V288.38H428.9V284.36H413.96V279.2H428.9V276.38H416.36V271.46H428.9V268.76H414.02V263.72H421.94C421.58 262.22 420.86 260.42 420.08 259.04ZM412.58 253.22L406.7 257.72C405.02 254.78 401.06 250.64 397.7 247.76L403.16 243.68C406.52 246.38 410.66 250.34 412.58 253.22ZM410.96 265.46V284.6C413.3 288.62 417.5 290.3 423.62 290.54C430.82 290.84 444.98 290.66 453.26 290C452.42 291.68 451.4 294.98 451.04 296.96C443.6 297.32 430.88 297.44 423.56 297.14C416.42 296.84 411.62 295.1 408.02 290.48C405.62 292.82 403.16 295.1 400.1 297.68L396.74 290.6C399.08 289.1 401.78 287.12 404.18 285.08V272H397.46V265.46H410.96Z" fill="#222222"/>
<path d="M29.04 252.14V291.62C33 289.4 36.48 286.16 39.42 282.08C35.76 275.42 33.18 267.38 31.32 258.32L38.16 256.94C39.36 263.36 41.16 269.42 43.68 274.7C46.02 269.54 47.82 263.54 48.84 256.82H31.14V252.14H29.04ZM13.62 276.62V283.16C16.38 282.8 19.26 282.38 22.14 282.02V276.62H13.62ZM13.62 264.26V270.26H22.14V264.26H13.62ZM22.14 252.14H13.62V257.84H22.14V252.14ZM52.02 249.62L56.7 250.76C55.44 263.84 52.56 274.16 48.06 282.2C51 286.22 54.6 289.58 58.92 291.92C57.3 293.24 55.08 295.94 54 297.8C49.92 295.34 46.56 292.28 43.68 288.62C40.62 292.34 37.08 295.34 33 297.8C32.1 296.24 30.48 294.02 29.04 292.58V298.22H22.14V288.62C15.24 289.82 8.22 290.9 2.7 291.74L1.32 284.6C2.94 284.42 4.8 284.24 6.84 284V252.14H2.76V245.54H32.88V249.8H50.82L52.02 249.62ZM106.8 251.9V248.9H91.2V251.9H106.8ZM106.8 259.7V256.58H91.2V259.7H106.8ZM114 243.92V264.68H84.3V243.92H114ZM73.98 242.24L80.76 245C76.8 250.52 70.68 256.4 65.04 260.06C64.32 258.44 62.58 255.5 61.5 254C66.18 251.12 71.46 246.26 73.98 242.24ZM75.54 255.32L81.78 258.02C80.34 260.54 78.54 263.06 76.56 265.58V298.16H69.66V273.26C67.86 275.06 66.06 276.74 64.26 278.12C63.72 276.56 61.92 272.48 60.84 270.74C66.18 267.02 72.06 261.2 75.54 255.32ZM117.18 276.56L117.24 282.62H109.02V291.14C109.02 294.44 108.42 296.12 106.08 297.14C103.86 298.16 100.86 298.16 96.78 298.16C96.48 296.24 95.46 293.6 94.56 291.8C97.08 291.92 99.9 291.92 100.68 291.92C101.52 291.86 101.76 291.62 101.76 290.96V282.62H89.16C91.56 284.9 94.5 288.02 96 290.12L90.66 293.9C89.34 291.62 86.28 288.08 83.76 285.56L88.2 282.62H79.8V276.56H101.76V273.14H81.24V267.32H115.98V273.14H109.02V276.56H117.18ZM126.9 290.6C127.62 289.1 127.68 288.08 127.68 286.7V254.18C127.68 251.9 127.38 249.08 127.02 247.34H136.44C136.08 249.68 135.84 251.84 135.84 254.18V285.38C145.62 282.56 159 274.88 166.68 265.52L170.94 272.3C162.72 282.14 150.3 289.28 136.14 293.9C135.3 294.2 133.98 294.62 132.6 295.52L126.9 290.6ZM215.34 251.42C217.02 253.88 219.66 258.26 220.98 261.02L215.58 263.36C213.84 259.58 212.34 256.64 210.12 253.58L215.34 251.42ZM223.38 248.12C225.12 250.52 227.82 254.78 229.2 257.48L223.98 260C222.06 256.22 220.44 253.46 218.22 250.46L223.38 248.12ZM174.9 275.9C176.7 274.46 178.02 273.14 179.88 271.34C182.58 268.58 187.26 262.7 191.4 257.78C194.94 253.58 198.48 252.92 203.16 257.3C207.18 261.08 211.8 265.88 215.4 269.78C219.42 274.04 225.54 280.7 230.16 285.62L223.56 292.7C219.54 287.72 214.44 281.54 210.9 277.4C207.42 273.26 202.08 267.44 199.92 265.22C198 263.3 196.74 263.42 195 265.58C192.66 268.58 188.4 274.52 186 277.76C184.62 279.68 183.18 281.78 182.1 283.34L174.9 275.9ZM260.58 291.68C260.82 290.54 261.06 288.86 261.06 287.24V252.26C261.06 249.56 260.64 247.28 260.58 247.1H269.52C269.46 247.28 269.1 249.62 269.1 252.32V283.7C273.96 281.6 279.9 276.86 283.92 271.04L288.54 277.64C283.56 284.12 274.92 290.6 268.2 294.02C266.88 294.74 266.16 295.34 265.62 295.82L260.58 291.68ZM232.8 290.78C238.08 287.06 241.32 281.54 243 276.44C244.68 271.28 244.74 259.94 244.74 252.68C244.74 250.28 244.56 248.66 244.2 247.16H253.02C252.96 247.46 252.6 250.1 252.6 252.62C252.6 259.7 252.42 272.36 250.8 278.42C249 285.2 245.22 291.08 240.12 295.64L232.8 290.78Z" fill="#222222"/>
<path d="M33.5742 181.531L42.4805 182.879C40.7422 187.703 38.1348 191.395 34.6582 193.953C31.1816 196.492 27.1094 197.762 22.4414 197.762C17.1875 197.762 13.0762 196.18 10.1074 193.016C7.1582 189.852 5.68359 185.262 5.68359 179.246C5.68359 174.363 6.66992 169.9 8.64258 165.857C10.6348 161.795 13.3887 158.689 16.9043 156.541C20.4199 154.393 24.248 153.318 28.3887 153.318C33.0371 153.318 36.7969 154.568 39.668 157.068C42.5391 159.549 44.2285 162.938 44.7363 167.234L36.2695 168.055C35.8008 165.555 34.8926 163.748 33.5449 162.635C32.2168 161.502 30.4395 160.936 28.2129 160.936C25.7715 160.936 23.4863 161.678 21.3574 163.162C19.248 164.646 17.5586 166.971 16.2891 170.135C15.0195 173.279 14.3848 176.424 14.3848 179.568C14.3848 183.006 15.2051 185.662 16.8457 187.537C18.5059 189.412 20.5664 190.35 23.0273 190.35C25.3125 190.35 27.4023 189.607 29.2969 188.123C31.2109 186.639 32.6367 184.441 33.5742 181.531ZM76.9336 181.531L85.8398 182.879C84.1016 187.703 81.4941 191.395 78.0176 193.953C74.541 196.492 70.4688 197.762 65.8008 197.762C60.5469 197.762 56.4355 196.18 53.4668 193.016C50.5176 189.852 49.043 185.262 49.043 179.246C49.043 174.363 50.0293 169.9 52.002 165.857C53.9941 161.795 56.748 158.689 60.2637 156.541C63.7793 154.393 67.6074 153.318 71.748 153.318C76.3965 153.318 80.1562 154.568 83.0273 157.068C85.8984 159.549 87.5879 162.938 88.0957 167.234L79.6289 168.055C79.1602 165.555 78.252 163.748 76.9043 162.635C75.5762 161.502 73.7988 160.936 71.5723 160.936C69.1309 160.936 66.8457 161.678 64.7168 163.162C62.6074 164.646 60.918 166.971 59.6484 170.135C58.3789 173.279 57.7441 176.424 57.7441 179.568C57.7441 183.006 58.5645 185.662 60.2051 187.537C61.8652 189.412 63.9258 190.35 66.3867 190.35C68.6719 190.35 70.7617 189.607 72.6562 188.123C74.5703 186.639 75.9961 184.441 76.9336 181.531ZM123.516 197H115.283L103.682 168.143L97.6465 197H89.4141L98.3789 154.051H106.641L118.271 182.791L124.277 154.051H132.48L123.516 197ZM160.664 187.508H143.643L138.486 197H129.404L153.691 154.051H163.506L170.479 197H162.1L160.664 187.508ZM159.58 180.359L157.09 163.074L146.719 180.359H159.58Z" fill="#222222"/>
<path d="M189 173.56C191.36 173.56 193.24 175.44 193.24 177.8C193.24 180.16 191.36 182.04 189 182.04C186.64 182.04 184.76 180.16 184.76 177.8C184.76 175.44 186.64 173.56 189 173.56Z" fill="#222222"/>
<path d="M207.695 197L216.689 154.051H225.508L218.037 189.822H239.893L238.398 197H207.695ZM253.047 154.051H261.455L259.873 161.668H251.465L253.047 154.051ZM250.586 165.887H258.994L252.49 197H244.082L250.586 165.887ZM267.402 165.887H275.371L274.551 169.93C276.543 168.211 278.398 166.99 280.117 166.268C281.855 165.525 283.682 165.154 285.596 165.154C288.154 165.154 290.166 165.887 291.631 167.352C293.115 168.816 293.857 170.76 293.857 173.182C293.857 174.275 293.535 176.346 292.891 179.393L289.229 197H280.82L284.512 179.334C285.059 176.697 285.332 175.125 285.332 174.617C285.332 173.543 285.01 172.703 284.365 172.098C283.74 171.473 282.861 171.16 281.729 171.16C280.498 171.16 279.131 171.678 277.627 172.713C276.123 173.748 274.941 175.115 274.082 176.814C273.457 178.025 272.754 180.496 271.973 184.227L269.307 197H260.898L267.402 165.887ZM303.906 165.887H312.314L308.477 184.314C308.008 186.521 307.773 187.898 307.773 188.445C307.773 189.344 308.105 190.115 308.77 190.76C309.434 191.404 310.283 191.727 311.318 191.727C312.061 191.727 312.793 191.59 313.516 191.316C314.238 191.023 314.98 190.594 315.742 190.027C316.504 189.441 317.188 188.777 317.793 188.035C318.398 187.293 318.965 186.316 319.492 185.105C319.863 184.207 320.264 182.742 320.693 180.711L323.799 165.887H332.207L325.703 197H317.852L318.73 192.781C315.293 196.082 311.553 197.732 307.51 197.732C304.951 197.732 302.939 197 301.475 195.535C300.01 194.07 299.277 192.107 299.277 189.646C299.277 188.572 299.609 186.434 300.273 183.23L303.906 165.887ZM365.312 181.531L374.219 182.879C372.48 187.703 369.873 191.395 366.396 193.953C362.92 196.492 358.848 197.762 354.18 197.762C348.926 197.762 344.814 196.18 341.846 193.016C338.896 189.852 337.422 185.262 337.422 179.246C337.422 174.363 338.408 169.9 340.381 165.857C342.373 161.795 345.127 158.689 348.643 156.541C352.158 154.393 355.986 153.318 360.127 153.318C364.775 153.318 368.535 154.568 371.406 157.068C374.277 159.549 375.967 162.938 376.475 167.234L368.008 168.055C367.539 165.555 366.631 163.748 365.283 162.635C363.955 161.502 362.178 160.936 359.951 160.936C357.51 160.936 355.225 161.678 353.096 163.162C350.986 164.646 349.297 166.971 348.027 170.135C346.758 173.279 346.123 176.424 346.123 179.568C346.123 183.006 346.943 185.662 348.584 187.537C350.244 189.412 352.305 190.35 354.766 190.35C357.051 190.35 359.141 189.607 361.035 188.123C362.949 186.639 364.375 184.441 365.312 181.531Z" fill="#222222"/>
<path d="M4.74856 205.629C4.90042 205.249 5.26813 205 5.67703 205H171.523C172.23 205 172.714 205.715 172.451 206.371L171.251 209.371C171.1 209.751 170.732 210 170.323 210H4.47703C3.76957 210 3.28581 209.285 3.54856 208.629L4.74856 205.629Z" fill="black"/>
<path d="M207.749 205.629C207.9 205.249 208.268 205 208.677 205H374.523C375.23 205 375.714 205.715 375.451 206.371L374.251 209.371C374.1 209.751 373.732 210 373.323 210H207.477C206.77 210 206.286 209.285 206.549 208.629L207.749 205.629Z" fill="black"/>
<path d="M393.02 195.56C393.452 194.66 393.488 194.048 393.488 193.22V173.708C393.488 172.34 393.308 170.648 393.092 169.604H398.744C398.528 171.008 398.384 172.304 398.384 173.708V192.428C404.252 190.736 412.28 186.128 416.888 180.512L419.444 184.58C414.512 190.484 407.06 194.768 398.564 197.54C398.06 197.72 397.268 197.972 396.44 198.512L393.02 195.56ZM446.084 172.052C447.092 173.528 448.676 176.156 449.468 177.812L446.228 179.216C445.184 176.948 444.284 175.184 442.952 173.348L446.084 172.052ZM450.908 170.072C451.952 171.512 453.572 174.068 454.4 175.688L451.268 177.2C450.116 174.932 449.144 173.276 447.812 171.476L450.908 170.072ZM421.82 186.74C422.9 185.876 423.692 185.084 424.808 184.004C426.428 182.348 429.236 178.82 431.72 175.868C433.844 173.348 435.968 172.952 438.776 175.58C441.188 177.848 443.96 180.728 446.12 183.068C448.532 185.624 452.204 189.62 454.976 192.572L451.016 196.82C448.604 193.832 445.544 190.124 443.42 187.64C441.332 185.156 438.128 181.664 436.832 180.332C435.68 179.18 434.924 179.252 433.88 180.548C432.476 182.348 429.92 185.912 428.48 187.856C427.652 189.008 426.788 190.268 426.14 191.204L421.82 186.74ZM473.228 196.208C473.372 195.524 473.516 194.516 473.516 193.544V172.556C473.516 170.936 473.264 169.568 473.228 169.46H478.592C478.556 169.568 478.34 170.972 478.34 172.592V191.42C481.256 190.16 484.82 187.316 487.232 183.824L490.004 187.784C487.016 191.672 481.832 195.56 477.8 197.612C477.008 198.044 476.576 198.404 476.252 198.692L473.228 196.208ZM456.56 195.668C459.728 193.436 461.672 190.124 462.68 187.064C463.688 183.968 463.724 177.164 463.724 172.808C463.724 171.368 463.616 170.396 463.4 169.496H468.692C468.656 169.676 468.44 171.26 468.44 172.772C468.44 177.02 468.332 184.616 467.36 188.252C466.28 192.32 464.012 195.848 460.952 198.584L456.56 195.668ZM508.302 197H502.814V176.316C500.809 178.191 498.445 179.578 495.724 180.477V175.496C497.156 175.027 498.712 174.142 500.392 172.84C502.072 171.525 503.224 169.995 503.849 168.25H508.302V197Z" fill="#222222"/>
<defs>
<linearGradient id="paint0_linear_626_45" x1="477.015" y1="85" x2="460.299" y2="85" gradientUnits="userSpaceOnUse">
<stop stop-color="#0072BE"/>
<stop offset="1" stop-color="#00A0E6"/>
</linearGradient>
<linearGradient id="paint1_linear_626_45" x1="424" y1="85" x2="484" y2="85" gradientUnits="userSpaceOnUse">
<stop stop-color="#4889D8"/>
<stop offset="1" stop-color="#63B1C2"/>
</linearGradient>
<linearGradient id="paint2_linear_626_45" x1="422.015" y1="85" x2="405.299" y2="85" gradientUnits="userSpaceOnUse">
<stop stop-color="#0072BE"/>
<stop offset="1" stop-color="#00A0E6"/>
</linearGradient>
<linearGradient id="paint3_linear_626_45" x1="369" y1="85" x2="429" y2="85" gradientUnits="userSpaceOnUse">
<stop stop-color="#4889D8"/>
<stop offset="1" stop-color="#63B1C2"/>
</linearGradient>
<linearGradient id="paint4_linear_626_45" x1="378.522" y1="60.9999" x2="353.449" y2="60.9999" gradientUnits="userSpaceOnUse">
<stop stop-color="#0072BE"/>
<stop offset="1" stop-color="#00A0E6"/>
</linearGradient>
<linearGradient id="paint5_linear_626_45" x1="299" y1="61" x2="389" y2="61" gradientUnits="userSpaceOnUse">
<stop stop-color="#4889D8"/>
<stop offset="1" stop-color="#63B1C2"/>
</linearGradient>
<clipPath id="clip0_626_45">
<rect width="203" height="125" fill="white" transform="translate(302 22)"/>
</clipPath>
</defs>
</svg>
