<svg width="525" height="332" viewBox="0 0 525 332" fill="none" xmlns="http://www.w3.org/2000/svg">
<path d="M491.484 122.304C492.924 122.268 494.328 122.196 495.012 122.124C498.036 121.872 503.976 121.332 510.564 120.792C514.272 120.468 518.196 120.252 520.752 120.144L520.788 124.752C518.844 124.788 515.748 124.788 513.84 125.256C509.484 126.408 506.208 131.052 506.208 135.336C506.208 141.276 511.752 143.4 517.872 143.724L516.18 148.656C508.62 148.152 501.492 144.12 501.492 136.308C501.492 131.124 504.408 127.02 506.856 125.184C503.472 125.544 496.128 126.336 491.952 127.236L491.484 122.304ZM515.64 128.28C516.54 129.576 517.836 131.772 518.52 133.176L515.784 134.4C514.884 132.42 514.128 131.016 512.976 129.396L515.64 128.28ZM519.672 126.624C520.572 127.884 521.94 130.008 522.696 131.412L519.996 132.708C519.024 130.764 518.196 129.432 517.044 127.848L519.672 126.624Z" fill="#222222"/>
<g clip-path="url(#clip0_360_10)">
<path d="M389.727 177.887C425.565 165.887 511.065 128.387 500.861 81.302C493.457 56.8346 443.7 50.2409 389.727 66.5744C335.754 82.908 298.002 115.984 305.407 140.451C311.56 160.784 346.962 168.774 389.727 161.519" stroke="#00A0E6" stroke-opacity="0.25" stroke-width="3" stroke-linecap="round"/>
</g>
<path d="M442.3 124.38H466.78V117.06H442.72C442.66 119.34 442.54 121.86 442.3 124.38ZM466.78 102.96H442.72V110.28H466.78V102.96ZM474.34 96V140.1C474.34 144.42 473.32 146.46 470.56 147.66C467.68 148.92 463.48 149.04 457.3 149.04C456.88 146.94 455.44 143.52 454.3 141.54C458.5 141.78 463.54 141.72 464.86 141.72C466.3 141.72 466.78 141.24 466.78 139.98V131.28H441.1C439.54 138 436.54 144.54 430.96 149.22C429.88 147.72 427 145.08 425.44 144.06C434.5 136.32 435.34 124.86 435.34 115.74V96H474.34Z" fill="#222222"/>
<path d="M442.3 124.38H466.78V117.06H442.72C442.66 119.34 442.54 121.86 442.3 124.38ZM466.78 102.96H442.72V110.28H466.78V102.96ZM474.34 96V140.1C474.34 144.42 473.32 146.46 470.56 147.66C467.68 148.92 463.48 149.04 457.3 149.04C456.88 146.94 455.44 143.52 454.3 141.54C458.5 141.78 463.54 141.72 464.86 141.72C466.3 141.72 466.78 141.24 466.78 139.98V131.28H441.1C439.54 138 436.54 144.54 430.96 149.22C429.88 147.72 427 145.08 425.44 144.06C434.5 136.32 435.34 124.86 435.34 115.74V96H474.34Z" fill="url(#paint0_linear_360_10)"/>
<path d="M442.3 124.38H466.78V117.06H442.72C442.66 119.34 442.54 121.86 442.3 124.38ZM466.78 102.96H442.72V110.28H466.78V102.96ZM474.34 96V140.1C474.34 144.42 473.32 146.46 470.56 147.66C467.68 148.92 463.48 149.04 457.3 149.04C456.88 146.94 455.44 143.52 454.3 141.54C458.5 141.78 463.54 141.72 464.86 141.72C466.3 141.72 466.78 141.24 466.78 139.98V131.28H441.1C439.54 138 436.54 144.54 430.96 149.22C429.88 147.72 427 145.08 425.44 144.06C434.5 136.32 435.34 124.86 435.34 115.74V96H474.34Z" fill="url(#paint1_linear_360_10)"/>
<path d="M396.54 108.12C396 109.5 395.52 110.58 395.16 111.66C394.74 112.74 394.2 114.12 393.6 115.5H415.5C416.82 115.5 419.22 115.44 420.84 115.2V122.52C418.98 122.34 416.7 122.34 415.5 122.34H408.18C407.16 135.06 402.36 144 392.76 149.88L385.32 144.9C387 144.18 389.28 142.86 390.72 141.72C395.7 137.64 399.66 131.94 400.62 122.34H390.12C387.78 126.06 384.3 130.56 381.84 132.72L374.82 128.64C378.72 125.7 381.84 121.74 383.94 118.44C385.62 115.86 386.64 113.16 387.3 110.76C387.72 109.38 388.02 107.64 388.14 106.38L396.54 108.12Z" fill="#222222"/>
<path d="M396.54 108.12C396 109.5 395.52 110.58 395.16 111.66C394.74 112.74 394.2 114.12 393.6 115.5H415.5C416.82 115.5 419.22 115.44 420.84 115.2V122.52C418.98 122.34 416.7 122.34 415.5 122.34H408.18C407.16 135.06 402.36 144 392.76 149.88L385.32 144.9C387 144.18 389.28 142.86 390.72 141.72C395.7 137.64 399.66 131.94 400.62 122.34H390.12C387.78 126.06 384.3 130.56 381.84 132.72L374.82 128.64C378.72 125.7 381.84 121.74 383.94 118.44C385.62 115.86 386.64 113.16 387.3 110.76C387.72 109.38 388.02 107.64 388.14 106.38L396.54 108.12Z" fill="url(#paint2_linear_360_10)"/>
<path d="M396.54 108.12C396 109.5 395.52 110.58 395.16 111.66C394.74 112.74 394.2 114.12 393.6 115.5H415.5C416.82 115.5 419.22 115.44 420.84 115.2V122.52C418.98 122.34 416.7 122.34 415.5 122.34H408.18C407.16 135.06 402.36 144 392.76 149.88L385.32 144.9C387 144.18 389.28 142.86 390.72 141.72C395.7 137.64 399.66 131.94 400.62 122.34H390.12C387.78 126.06 384.3 130.56 381.84 132.72L374.82 128.64C378.72 125.7 381.84 121.74 383.94 118.44C385.62 115.86 386.64 113.16 387.3 110.76C387.72 109.38 388.02 107.64 388.14 106.38L396.54 108.12Z" fill="url(#paint3_linear_360_10)"/>
<path d="M317.984 83.2188L322.203 63.2188C341.526 54.7812 356.474 44.9635 367.047 33.7656H380.719L356.578 149H334L350.641 69.625C345.953 72.6458 340.536 75.4062 334.391 77.9062C328.297 80.4062 322.828 82.1771 317.984 83.2188Z" fill="#222222"/>
<path d="M317.984 83.2188L322.203 63.2188C341.526 54.7812 356.474 44.9635 367.047 33.7656H380.719L356.578 149H334L350.641 69.625C345.953 72.6458 340.536 75.4062 334.391 77.9062C328.297 80.4062 322.828 82.1771 317.984 83.2188Z" fill="url(#paint4_linear_360_10)"/>
<path d="M317.984 83.2188L322.203 63.2188C341.526 54.7812 356.474 44.9635 367.047 33.7656H380.719L356.578 149H334L350.641 69.625C345.953 72.6458 340.536 75.4062 334.391 77.9062C328.297 80.4062 322.828 82.1771 317.984 83.2188Z" fill="url(#paint5_linear_360_10)"/>
<path d="M272.38 118.812C272.164 119.748 271.912 120.9 271.732 121.8C271.516 122.88 271.228 124.212 270.976 125.508C272.2 125.436 273.244 125.364 274 125.364C277.816 125.364 280.516 127.056 280.516 132.24C280.516 136.488 280.012 142.32 278.464 145.452C277.276 147.972 275.296 148.764 272.56 148.764C271.192 148.764 269.464 148.512 268.24 148.26L267.484 143.508C268.852 143.904 270.94 144.264 271.876 144.264C273.1 144.264 274 143.904 274.576 142.716C275.548 140.664 276.052 136.308 276.052 132.744C276.052 129.864 274.792 129.468 272.56 129.468C271.984 129.468 271.084 129.54 270.04 129.612C268.672 135.084 266.008 143.616 262.696 148.908L258.016 147.036C261.508 142.32 263.992 135.048 265.324 130.116C264.028 130.26 262.876 130.404 262.228 130.476C261.184 130.656 259.312 130.908 258.196 131.088L257.764 126.192C259.096 126.3 260.284 126.228 261.616 126.192C262.732 126.156 264.424 126.048 266.26 125.868C266.764 123.168 267.088 120.54 267.016 118.272L272.38 118.812ZM288.4 115.824C289.336 117.192 290.668 119.46 291.28 120.72L288.436 121.944C287.68 120.468 286.528 118.344 285.52 116.976L288.4 115.824ZM284.116 117.444C285.016 118.776 286.312 121.044 286.996 122.376L285.232 123.132C287.392 126.48 290.092 132.492 291.1 135.696L286.528 137.784C285.592 133.788 283.036 127.452 280.48 124.284L283.72 122.88C283 121.512 282.1 119.784 281.272 118.632L284.116 117.444Z" fill="#222222"/>
<path d="M21.06 105.94H12C13.02 107.98 13.8 110.74 14.04 112.54L11.04 113.38H22.8L18.84 112.54C19.62 110.74 20.58 107.98 21.06 105.94ZM20.28 129.88V130.36C22.44 131.86 27.42 135.82 28.8 136.9L24.66 142C23.7 140.8 22.02 139 20.28 137.32V150.1H13.38V138.04C11.04 141.4 8.34 144.4 5.76 146.5C4.68 144.94 2.64 142.6 1.14 141.46C5.04 138.88 9.18 134.38 11.94 129.88H2.82V123.88H13.38V119.26H2.64V113.38H8.16C7.92 111.4 7.2 108.82 6.36 106.78L10.02 105.94H3.3V100.12H13.38V94.66H20.28V100.12H30.24V105.94H24.06L27.54 106.6C26.46 109.18 25.5 111.58 24.66 113.38H30.72V119.26H20.28V123.88H30.18V129.88H20.28ZM57.96 113.92V120.52H52.26V149.86H45.36V120.52H39.24C39.18 129.46 37.92 142.12 30 150.34C29.1 148.78 26.52 146.32 24.9 145.48C31.8 138.16 32.52 127.96 32.52 119.68V98.92L36.66 100.06C42.36 98.68 48.3 96.76 51.96 94.78L57.66 100C52.38 102.34 45.54 104.2 39.24 105.52V113.92H57.96ZM75.06 97.54H95.82C95.82 108.88 97.44 130.78 119.52 143.8C117.96 145.06 115.02 148.18 113.76 150.04C101.34 142.54 94.98 131.2 91.68 120.46C87.18 133.9 79.98 143.86 69.54 150.1C68.22 148.6 64.86 145.66 63 144.28C75.48 137.98 82.62 126.4 85.92 110.62L89.58 111.28C89.16 109 88.92 106.84 88.74 104.8H75.06V97.54ZM150.9 128.08L146.58 133.9C145.32 132.22 143.28 129.82 141.24 127.6V150.22H134.16V129.52C131.76 131.74 129.24 133.72 126.72 135.28C126.12 133.36 124.44 129.88 123.36 128.5C129.9 124.96 136.2 118.66 140.1 111.76H125.64V105.28H134.16V94.24H141.24V105.28H143.94L145.2 104.98L149.22 107.56C147.42 112.12 145.02 116.44 142.14 120.4C145.02 122.74 149.64 126.88 150.9 128.08ZM168.18 141.52H180.96V148.48H147V141.52H160.86V119.56H149.46V112.66H160.86V94.72H168.18V112.66H179.52V119.56H168.18V141.52ZM229.44 105.52V101.62H205.2V105.52H229.44ZM237.06 96.04V111.04H198V96.04H237.06ZM202.38 132.34V134.98H231.78V132.34H202.38ZM202.38 125.26V127.78H231.78V125.26H202.38ZM202.38 118.12V120.7H231.78V118.12H202.38ZM239.16 139.78H229.44C235.08 141.46 241.38 143.62 245.52 145.3L239.22 150.34C234.6 148.18 226.32 145.24 219.96 143.38L225 139.78H208.62L213.24 143.02C208.38 145.84 200.7 148.72 194.64 150.22C193.32 148.72 190.86 146.5 189.24 145.12C194.46 143.98 200.64 141.82 204.72 139.78H195.3V113.26H239.16V139.78Z" fill="#222222"/>
<path d="M310.128 301.836C314.556 302.448 321.72 302.268 325.608 301.8V306.444C321.18 306.84 314.664 306.876 310.128 306.444V301.836ZM313.008 317.208C312.72 318.396 312.576 319.26 312.576 320.232C312.576 321.816 313.944 322.788 317.616 322.788C320.82 322.788 323.484 322.5 326.652 321.852L326.724 326.712C324.384 327.144 321.504 327.396 317.436 327.396C311.244 327.396 308.256 325.2 308.256 321.492C308.256 320.088 308.472 318.648 308.868 316.812L313.008 317.208ZM304.584 299.424C304.296 300.18 303.828 301.98 303.684 302.628C303.216 305.04 301.956 312.24 301.956 315.84C301.956 316.524 301.992 317.46 302.1 318.18C302.64 316.956 303.216 315.696 303.72 314.508L305.952 316.272C304.944 319.26 303.756 323.184 303.36 325.092C303.252 325.632 303.18 326.424 303.18 326.784C303.18 327.18 303.216 327.756 303.252 328.26L299.076 328.548C298.356 326.064 297.672 321.672 297.672 316.776C297.672 311.376 298.788 305.292 299.184 302.52C299.292 301.512 299.508 300.144 299.544 298.992L304.584 299.424Z" fill="#222222"/>
<path d="M356.42 320.6L368.12 319.22L368.36 325.88C357.68 327.38 346.22 328.76 338.12 329.84L336.98 322.76C340.46 322.4 344.72 321.98 349.34 321.44V313.7H339.38V307.34H349.34V301.52H356.42V307.34H366.2V313.7H356.42V320.6ZM355.88 289.16L361.16 286.4C364.46 290.42 368.3 295.94 369.8 299.66L364.16 302.9C363.8 301.94 363.32 300.92 362.72 299.78C353.84 300.26 344.6 300.68 337.94 300.98L337.52 294.32L342.74 294.2C343.76 291.38 344.78 288.14 345.5 285.26H337.64V278.96H368.06V285.26H353.48C352.34 288.2 351.08 291.26 349.82 294.02C352.82 293.96 356 293.84 359.18 293.72C358.1 292.1 356.96 290.54 355.88 289.16ZM377.12 282.44V316.22H370.28V282.44H377.12ZM383.9 276.86H390.92V322.7C390.92 326.72 390.08 328.76 387.68 329.84C385.34 330.98 381.44 331.22 376.34 331.22C376.04 329.18 375.02 326 374 323.9C377.6 324.08 381.26 324.08 382.46 324.08C383.54 324.02 383.9 323.72 383.9 322.7V276.86ZM437.42 296.72L436.04 296.36C436.64 295.04 437.3 293.36 437.84 291.86H426.86C427.64 293.36 428.3 295.1 428.6 296.36L426.98 296.72H437.42ZM420.08 292.04L420.92 291.86H413.06V286.7H428.9V283.64H417.08V278.72H428.9V275.18H435.98V278.72H448.4V283.64H435.98V286.7H452.06V291.86H443.78L445.28 292.22C444.26 293.9 443.36 295.46 442.52 296.72H451.46V301.76H435.98V304.46H449.18V309.38H435.98V312.2H451.58V317.36H435.98V321.38H428.9V317.36H413.96V312.2H428.9V309.38H416.36V304.46H428.9V301.76H414.02V296.72H421.94C421.58 295.22 420.86 293.42 420.08 292.04ZM412.58 286.22L406.7 290.72C405.02 287.78 401.06 283.64 397.7 280.76L403.16 276.68C406.52 279.38 410.66 283.34 412.58 286.22ZM410.96 298.46V317.6C413.3 321.62 417.5 323.3 423.62 323.54C430.82 323.84 444.98 323.66 453.26 323C452.42 324.68 451.4 327.98 451.04 329.96C443.6 330.32 430.88 330.44 423.56 330.14C416.42 329.84 411.62 328.1 408.02 323.48C405.62 325.82 403.16 328.1 400.1 330.68L396.74 323.6C399.08 322.1 401.78 320.12 404.18 318.08V305H397.46V298.46H410.96Z" fill="#222222"/>
<path d="M29.04 285.14V324.62C33 322.4 36.48 319.16 39.42 315.08C35.76 308.42 33.18 300.38 31.32 291.32L38.16 289.94C39.36 296.36 41.16 302.42 43.68 307.7C46.02 302.54 47.82 296.54 48.84 289.82H31.14V285.14H29.04ZM13.62 309.62V316.16C16.38 315.8 19.26 315.38 22.14 315.02V309.62H13.62ZM13.62 297.26V303.26H22.14V297.26H13.62ZM22.14 285.14H13.62V290.84H22.14V285.14ZM52.02 282.62L56.7 283.76C55.44 296.84 52.56 307.16 48.06 315.2C51 319.22 54.6 322.58 58.92 324.92C57.3 326.24 55.08 328.94 54 330.8C49.92 328.34 46.56 325.28 43.68 321.62C40.62 325.34 37.08 328.34 33 330.8C32.1 329.24 30.48 327.02 29.04 325.58V331.22H22.14V321.62C15.24 322.82 8.22 323.9 2.7 324.74L1.32 317.6C2.94 317.42 4.8 317.24 6.84 317V285.14H2.76V278.54H32.88V282.8H50.82L52.02 282.62ZM106.8 284.9V281.9H91.2V284.9H106.8ZM106.8 292.7V289.58H91.2V292.7H106.8ZM114 276.92V297.68H84.3V276.92H114ZM73.98 275.24L80.76 278C76.8 283.52 70.68 289.4 65.04 293.06C64.32 291.44 62.58 288.5 61.5 287C66.18 284.12 71.46 279.26 73.98 275.24ZM75.54 288.32L81.78 291.02C80.34 293.54 78.54 296.06 76.56 298.58V331.16H69.66V306.26C67.86 308.06 66.06 309.74 64.26 311.12C63.72 309.56 61.92 305.48 60.84 303.74C66.18 300.02 72.06 294.2 75.54 288.32ZM117.18 309.56L117.24 315.62H109.02V324.14C109.02 327.44 108.42 329.12 106.08 330.14C103.86 331.16 100.86 331.16 96.78 331.16C96.48 329.24 95.46 326.6 94.56 324.8C97.08 324.92 99.9 324.92 100.68 324.92C101.52 324.86 101.76 324.62 101.76 323.96V315.62H89.16C91.56 317.9 94.5 321.02 96 323.12L90.66 326.9C89.34 324.62 86.28 321.08 83.76 318.56L88.2 315.62H79.8V309.56H101.76V306.14H81.24V300.32H115.98V306.14H109.02V309.56H117.18ZM126.9 323.6C127.62 322.1 127.68 321.08 127.68 319.7V287.18C127.68 284.9 127.38 282.08 127.02 280.34H136.44C136.08 282.68 135.84 284.84 135.84 287.18V318.38C145.62 315.56 159 307.88 166.68 298.52L170.94 305.3C162.72 315.14 150.3 322.28 136.14 326.9C135.3 327.2 133.98 327.62 132.6 328.52L126.9 323.6ZM215.34 284.42C217.02 286.88 219.66 291.26 220.98 294.02L215.58 296.36C213.84 292.58 212.34 289.64 210.12 286.58L215.34 284.42ZM223.38 281.12C225.12 283.52 227.82 287.78 229.2 290.48L223.98 293C222.06 289.22 220.44 286.46 218.22 283.46L223.38 281.12ZM174.9 308.9C176.7 307.46 178.02 306.14 179.88 304.34C182.58 301.58 187.26 295.7 191.4 290.78C194.94 286.58 198.48 285.92 203.16 290.3C207.18 294.08 211.8 298.88 215.4 302.78C219.42 307.04 225.54 313.7 230.16 318.62L223.56 325.7C219.54 320.72 214.44 314.54 210.9 310.4C207.42 306.26 202.08 300.44 199.92 298.22C198 296.3 196.74 296.42 195 298.58C192.66 301.58 188.4 307.52 186 310.76C184.62 312.68 183.18 314.78 182.1 316.34L174.9 308.9ZM260.58 324.68C260.82 323.54 261.06 321.86 261.06 320.24V285.26C261.06 282.56 260.64 280.28 260.58 280.1H269.52C269.46 280.28 269.1 282.62 269.1 285.32V316.7C273.96 314.6 279.9 309.86 283.92 304.04L288.54 310.64C283.56 317.12 274.92 323.6 268.2 327.02C266.88 327.74 266.16 328.34 265.62 328.82L260.58 324.68ZM232.8 323.78C238.08 320.06 241.32 314.54 243 309.44C244.68 304.28 244.74 292.94 244.74 285.68C244.74 283.28 244.56 281.66 244.2 280.16H253.02C252.96 280.46 252.6 283.1 252.6 285.62C252.6 292.7 252.42 305.36 250.8 311.42C249 318.2 245.22 324.08 240.12 328.64L232.8 323.78Z" fill="#222222"/>
<path d="M33.5742 214.531L42.4805 215.879C40.7422 220.703 38.1348 224.395 34.6582 226.953C31.1816 229.492 27.1094 230.762 22.4414 230.762C17.1875 230.762 13.0762 229.18 10.1074 226.016C7.1582 222.852 5.68359 218.262 5.68359 212.246C5.68359 207.363 6.66992 202.9 8.64258 198.857C10.6348 194.795 13.3887 191.689 16.9043 189.541C20.4199 187.393 24.248 186.318 28.3887 186.318C33.0371 186.318 36.7969 187.568 39.668 190.068C42.5391 192.549 44.2285 195.938 44.7363 200.234L36.2695 201.055C35.8008 198.555 34.8926 196.748 33.5449 195.635C32.2168 194.502 30.4395 193.936 28.2129 193.936C25.7715 193.936 23.4863 194.678 21.3574 196.162C19.248 197.646 17.5586 199.971 16.2891 203.135C15.0195 206.279 14.3848 209.424 14.3848 212.568C14.3848 216.006 15.2051 218.662 16.8457 220.537C18.5059 222.412 20.5664 223.35 23.0273 223.35C25.3125 223.35 27.4023 222.607 29.2969 221.123C31.2109 219.639 32.6367 217.441 33.5742 214.531ZM76.9336 214.531L85.8398 215.879C84.1016 220.703 81.4941 224.395 78.0176 226.953C74.541 229.492 70.4688 230.762 65.8008 230.762C60.5469 230.762 56.4355 229.18 53.4668 226.016C50.5176 222.852 49.043 218.262 49.043 212.246C49.043 207.363 50.0293 202.9 52.002 198.857C53.9941 194.795 56.748 191.689 60.2637 189.541C63.7793 187.393 67.6074 186.318 71.748 186.318C76.3965 186.318 80.1562 187.568 83.0273 190.068C85.8984 192.549 87.5879 195.938 88.0957 200.234L79.6289 201.055C79.1602 198.555 78.252 196.748 76.9043 195.635C75.5762 194.502 73.7988 193.936 71.5723 193.936C69.1309 193.936 66.8457 194.678 64.7168 196.162C62.6074 197.646 60.918 199.971 59.6484 203.135C58.3789 206.279 57.7441 209.424 57.7441 212.568C57.7441 216.006 58.5645 218.662 60.2051 220.537C61.8652 222.412 63.9258 223.35 66.3867 223.35C68.6719 223.35 70.7617 222.607 72.6562 221.123C74.5703 219.639 75.9961 217.441 76.9336 214.531ZM123.516 230H115.283L103.682 201.143L97.6465 230H89.4141L98.3789 187.051H106.641L118.271 215.791L124.277 187.051H132.48L123.516 230ZM160.664 220.508H143.643L138.486 230H129.404L153.691 187.051H163.506L170.479 230H162.1L160.664 220.508ZM159.58 213.359L157.09 196.074L146.719 213.359H159.58Z" fill="#222222"/>
<path d="M189 206.56C191.36 206.56 193.24 208.44 193.24 210.8C193.24 213.16 191.36 215.04 189 215.04C186.64 215.04 184.76 213.16 184.76 210.8C184.76 208.44 186.64 206.56 189 206.56Z" fill="#222222"/>
<path d="M207.695 230L216.689 187.051H225.508L218.037 222.822H239.893L238.398 230H207.695ZM253.047 187.051H261.455L259.873 194.668H251.465L253.047 187.051ZM250.586 198.887H258.994L252.49 230H244.082L250.586 198.887ZM267.402 198.887H275.371L274.551 202.93C276.543 201.211 278.398 199.99 280.117 199.268C281.855 198.525 283.682 198.154 285.596 198.154C288.154 198.154 290.166 198.887 291.631 200.352C293.115 201.816 293.857 203.76 293.857 206.182C293.857 207.275 293.535 209.346 292.891 212.393L289.229 230H280.82L284.512 212.334C285.059 209.697 285.332 208.125 285.332 207.617C285.332 206.543 285.01 205.703 284.365 205.098C283.74 204.473 282.861 204.16 281.729 204.16C280.498 204.16 279.131 204.678 277.627 205.713C276.123 206.748 274.941 208.115 274.082 209.814C273.457 211.025 272.754 213.496 271.973 217.227L269.307 230H260.898L267.402 198.887ZM303.906 198.887H312.314L308.477 217.314C308.008 219.521 307.773 220.898 307.773 221.445C307.773 222.344 308.105 223.115 308.77 223.76C309.434 224.404 310.283 224.727 311.318 224.727C312.061 224.727 312.793 224.59 313.516 224.316C314.238 224.023 314.98 223.594 315.742 223.027C316.504 222.441 317.188 221.777 317.793 221.035C318.398 220.293 318.965 219.316 319.492 218.105C319.863 217.207 320.264 215.742 320.693 213.711L323.799 198.887H332.207L325.703 230H317.852L318.73 225.781C315.293 229.082 311.553 230.732 307.51 230.732C304.951 230.732 302.939 230 301.475 228.535C300.01 227.07 299.277 225.107 299.277 222.646C299.277 221.572 299.609 219.434 300.273 216.23L303.906 198.887ZM365.312 214.531L374.219 215.879C372.48 220.703 369.873 224.395 366.396 226.953C362.92 229.492 358.848 230.762 354.18 230.762C348.926 230.762 344.814 229.18 341.846 226.016C338.896 222.852 337.422 218.262 337.422 212.246C337.422 207.363 338.408 202.9 340.381 198.857C342.373 194.795 345.127 191.689 348.643 189.541C352.158 187.393 355.986 186.318 360.127 186.318C364.775 186.318 368.535 187.568 371.406 190.068C374.277 192.549 375.967 195.938 376.475 200.234L368.008 201.055C367.539 198.555 366.631 196.748 365.283 195.635C363.955 194.502 362.178 193.936 359.951 193.936C357.51 193.936 355.225 194.678 353.096 196.162C350.986 197.646 349.297 199.971 348.027 203.135C346.758 206.279 346.123 209.424 346.123 212.568C346.123 216.006 346.943 218.662 348.584 220.537C350.244 222.412 352.305 223.35 354.766 223.35C357.051 223.35 359.141 222.607 361.035 221.123C362.949 219.639 364.375 217.441 365.312 214.531Z" fill="#222222"/>
<path d="M4.74856 238.629C4.90042 238.249 5.26813 238 5.67703 238H171.523C172.23 238 172.714 238.715 172.451 239.371L171.251 242.371C171.1 242.751 170.732 243 170.323 243H4.47703C3.76957 243 3.28581 242.285 3.54856 241.629L4.74856 238.629Z" fill="black"/>
<path d="M207.749 238.629C207.9 238.249 208.268 238 208.677 238H374.523C375.23 238 375.714 238.715 375.451 239.371L374.251 242.371C374.1 242.751 373.732 243 373.323 243H207.477C206.77 243 206.286 242.285 206.549 241.629L207.749 238.629Z" fill="black"/>
<path d="M393.02 228.56C393.452 227.66 393.488 227.048 393.488 226.22V206.708C393.488 205.34 393.308 203.648 393.092 202.604H398.744C398.528 204.008 398.384 205.304 398.384 206.708V225.428C404.252 223.736 412.28 219.128 416.888 213.512L419.444 217.58C414.512 223.484 407.06 227.768 398.564 230.54C398.06 230.72 397.268 230.972 396.44 231.512L393.02 228.56ZM446.084 205.052C447.092 206.528 448.676 209.156 449.468 210.812L446.228 212.216C445.184 209.948 444.284 208.184 442.952 206.348L446.084 205.052ZM450.908 203.072C451.952 204.512 453.572 207.068 454.4 208.688L451.268 210.2C450.116 207.932 449.144 206.276 447.812 204.476L450.908 203.072ZM421.82 219.74C422.9 218.876 423.692 218.084 424.808 217.004C426.428 215.348 429.236 211.82 431.72 208.868C433.844 206.348 435.968 205.952 438.776 208.58C441.188 210.848 443.96 213.728 446.12 216.068C448.532 218.624 452.204 222.62 454.976 225.572L451.016 229.82C448.604 226.832 445.544 223.124 443.42 220.64C441.332 218.156 438.128 214.664 436.832 213.332C435.68 212.18 434.924 212.252 433.88 213.548C432.476 215.348 429.92 218.912 428.48 220.856C427.652 222.008 426.788 223.268 426.14 224.204L421.82 219.74ZM473.228 229.208C473.372 228.524 473.516 227.516 473.516 226.544V205.556C473.516 203.936 473.264 202.568 473.228 202.46H478.592C478.556 202.568 478.34 203.972 478.34 205.592V224.42C481.256 223.16 484.82 220.316 487.232 216.824L490.004 220.784C487.016 224.672 481.832 228.56 477.8 230.612C477.008 231.044 476.576 231.404 476.252 231.692L473.228 229.208ZM456.56 228.668C459.728 226.436 461.672 223.124 462.68 220.064C463.688 216.968 463.724 210.164 463.724 205.808C463.724 204.368 463.616 203.396 463.4 202.496H468.692C468.656 202.676 468.44 204.26 468.44 205.772C468.44 210.02 468.332 217.616 467.36 221.252C466.28 225.32 464.012 228.848 460.952 231.584L456.56 228.668ZM508.302 230H502.814V209.316C500.809 211.191 498.445 212.578 495.724 213.477V208.496C497.156 208.027 498.712 207.142 500.392 205.84C502.072 204.525 503.224 202.995 503.849 201.25H508.302V230Z" fill="#222222"/>
<mask id="path-17-inside-1_360_10" fill="white">
<path d="M0 0H174V32H0V0Z"/>
</mask>
<path d="M174 31H0V33H174V31Z" fill="url(#paint6_linear_360_10)" mask="url(#path-17-inside-1_360_10)"/>
<path d="M174 31H0V33H174V31Z" fill="url(#paint7_linear_360_10)" mask="url(#path-17-inside-1_360_10)"/>
<path d="M6.24 25.28C4.26 25.28 2.28 24.5 0.84 23.12L2.54 21.08C3.6 22.06 5 22.72 6.3 22.72C7.84 22.72 8.66 22.06 8.66 21.02C8.66 19.92 7.76 19.58 6.44 19.02L4.46 18.18C2.96 17.56 1.46 16.36 1.46 14.2C1.46 11.78 3.58 9.92 6.58 9.92C8.3 9.92 10.02 10.6 11.22 11.82L9.72 13.68C8.78 12.9 7.8 12.46 6.58 12.46C5.28 12.46 4.46 13.04 4.46 14.02C4.46 15.08 5.5 15.46 6.76 15.96L8.7 16.78C10.5 17.52 11.68 18.66 11.68 20.8C11.68 23.22 9.66 25.28 6.24 25.28ZM13.9005 25V10.18H22.9805V12.66H16.8605V16.08H22.0605V18.56H16.8605V22.52H23.2005V25H13.9005ZM30.2252 25.28C28.2452 25.28 26.2652 24.5 24.8252 23.12L26.5252 21.08C27.5852 22.06 28.9852 22.72 30.2852 22.72C31.8252 22.72 32.6452 22.06 32.6452 21.02C32.6452 19.92 31.7452 19.58 30.4252 19.02L28.4452 18.18C26.9452 17.56 25.4452 16.36 25.4452 14.2C25.4452 11.78 27.5652 9.92 30.5652 9.92C32.2852 9.92 34.0052 10.6 35.2052 11.82L33.7052 13.68C32.7652 12.9 31.7852 12.46 30.5652 12.46C29.2652 12.46 28.4452 13.04 28.4452 14.02C28.4452 15.08 29.4852 15.46 30.7452 15.96L32.6852 16.78C34.4852 17.52 35.6652 18.66 35.6652 20.8C35.6652 23.22 33.6452 25.28 30.2252 25.28ZM50.8056 22.12V21.18H47.2056V22.12H50.8056ZM47.2056 18.5V19.36H50.8056V18.5H47.2056ZM41.6456 14.52H44.7856V13.56H41.6456V14.52ZM50.4456 13.56H47.2056V14.52H50.4456V13.56ZM55.3056 19.36V21.18H53.2256V24.66H50.8056V23.84H47.2056V24.46C47.2056 25.64 46.9256 26.12 46.1456 26.46C45.3856 26.76 44.3056 26.8 42.6056 26.8C42.4856 26.24 42.1256 25.42 41.8256 24.92C42.7856 24.96 43.9656 24.96 44.2856 24.96C44.6656 24.94 44.7856 24.82 44.7856 24.46V23.84H38.7056V22.12H44.7856V21.18H36.8656V19.36H44.7856V18.5H38.8656V16.9H44.7856V16.02H39.3656V12.06H44.7856V11.24H37.3256V9.36H44.7856V8.06H47.2056V9.36H54.8456V11.24H47.2056V12.06H52.8856V16.02H47.2056V16.9H53.2256V19.36H55.3056ZM68.1256 13.26H63.3456C63.6256 13.78 63.8856 14.38 64.0256 14.8L63.6856 14.86H67.4256C67.6656 14.38 67.9056 13.8 68.1256 13.26ZM74.5856 22.18H68.7856C70.4856 23.22 72.8056 24 75.1256 24.36C74.5856 24.88 73.8856 25.88 73.5256 26.52C71.0656 25.9 68.6456 24.7 66.8056 23.14V26.74H64.4656V23.26C62.6056 24.72 60.1456 25.88 57.7656 26.5C57.4256 25.92 56.7456 25 56.2456 24.52C58.4856 24.06 60.8456 23.22 62.5656 22.18H56.8256V20.22H64.4656V19.34H58.7056V17.62H64.4656V16.72H57.7056V14.86H61.5056C61.3456 14.36 61.0856 13.76 60.8256 13.3L61.0656 13.26H56.8856V11.32H59.5656C59.2856 10.56 58.7656 9.6 58.3256 8.84L60.3656 8.14C60.9456 9 61.6056 10.18 61.8856 10.96L60.9056 11.32H62.7256V8.06H64.9456V11.32H66.4256V8.06H68.6656V11.32H70.4456L69.7256 11.1C70.2056 10.28 70.7056 9.08 70.9856 8.2L73.4856 8.8C72.9256 9.72 72.3856 10.62 71.9256 11.32H74.5256V13.26H70.7656C70.4456 13.84 70.1256 14.38 69.8256 14.86H73.7456V16.72H66.8056V17.62H72.8056V19.34H66.8056V20.22H74.5856V22.18ZM85.0856 12.28V14.1H86.1856C86.9456 13.52 87.6656 12.92 88.3456 12.28H85.0856ZM89.4456 21.02V19.74H82.5656V21.02H89.4456ZM82.5656 24.18H89.4456V22.82H82.5656V24.18ZM94.2256 16.2H87.0256C86.2456 16.76 85.4856 17.28 84.6656 17.8H91.9456V26.68H89.4456V26.16H82.5656V26.76H80.1856V20.22C79.1856 20.66 78.1456 21.1 77.1256 21.48C76.8456 20.96 76.1256 20 75.6856 19.52C78.3056 18.7 80.8056 17.56 83.1056 16.2H76.3056V14.1H82.7256V12.28H78.0256V10.22H82.7256V8.06H85.0856V10.22H89.4256V11.2C90.1856 10.38 90.8656 9.54 91.4856 8.66L93.5256 9.7C92.3856 11.28 91.0456 12.76 89.5856 14.1H94.2256V16.2ZM113.406 17.96C113.406 22.18 110.826 25.16 105.786 25.94L104.286 23.56C105.046 23.48 105.606 23.36 106.146 23.24C108.706 22.64 110.706 20.8 110.706 17.88C110.706 15.12 109.206 13.06 106.506 12.6C106.226 14.3 105.886 16.14 105.306 18.02C104.106 22.06 102.386 24.54 100.206 24.54C97.9856 24.54 96.1456 22.1 96.1456 18.72C96.1456 14.1 100.146 10.16 105.326 10.16C110.286 10.16 113.406 13.6 113.406 17.96ZM98.7056 18.46C98.7056 20.48 99.5056 21.46 100.286 21.46C101.126 21.46 101.906 20.2 102.726 17.5C103.186 16.02 103.566 14.32 103.786 12.66C100.486 13.34 98.7056 16.26 98.7056 18.46ZM126.206 20.12C126.046 20.68 125.926 21.34 125.926 21.78C125.926 22.66 126.526 23.32 128.666 23.32C130.006 23.32 131.386 23.16 132.826 22.9L132.726 25.46C131.606 25.6 130.246 25.74 128.646 25.74C125.286 25.74 123.466 24.58 123.466 22.56C123.466 21.64 123.666 20.68 123.826 19.88L126.206 20.12ZM123.946 9.04C123.786 9.58 123.606 10.48 123.526 10.92C123.486 11.14 123.426 11.4 123.366 11.68C124.486 11.52 125.606 11.3 126.706 11.04V13.54C125.506 13.82 124.146 14.04 122.806 14.2C122.626 15.06 122.426 15.94 122.206 16.76C121.486 19.56 120.146 23.64 119.026 26.02L116.246 25.08C117.446 23.08 118.966 18.88 119.706 16.08C119.846 15.54 120.006 14.98 120.126 14.4C119.666 14.42 119.226 14.44 118.806 14.44C117.846 14.44 117.086 14.4 116.386 14.36L116.326 11.86C117.346 11.98 118.026 12.02 118.846 12.02C119.426 12.02 120.026 12 120.646 11.96C120.726 11.52 120.786 11.14 120.826 10.82C120.906 10.08 120.946 9.26 120.886 8.8L123.946 9.04ZM125.126 15.08C126.246 14.98 127.686 14.88 128.966 14.88C130.106 14.88 131.306 14.94 132.486 15.06L132.426 17.46C131.426 17.34 130.206 17.22 128.986 17.22C127.626 17.22 126.386 17.28 125.126 17.42V15.08ZM148.046 9.32C147.886 9.86 147.706 10.84 147.586 11.34C147.526 11.6 147.466 11.84 147.406 12.1C150.546 12.82 152.626 15.36 152.626 18.86C152.626 23.1 149.606 25.52 145.446 26.16L143.926 23.84C148.306 23.48 150.046 21.22 150.046 18.72C150.046 16.5 148.806 14.84 146.806 14.3C146.106 16.62 145.226 18.92 144.086 20.66C144.446 21.08 144.806 21.5 145.186 21.86L143.166 23.46C142.926 23.2 142.686 22.94 142.486 22.68C141.146 24.14 140.026 24.8 138.546 24.8C136.886 24.8 135.366 23.4 135.366 20.82C135.366 18.54 136.506 16.1 138.326 14.5C138.126 13.96 137.966 13.42 137.786 12.88C137.566 12.16 137.346 11.52 136.986 10.8L139.606 9.98C139.726 10.64 139.886 11.3 140.046 11.9C140.146 12.28 140.266 12.7 140.406 13.12C141.926 12.36 143.406 11.98 144.946 11.92C145.026 11.58 145.086 11.26 145.126 10.96C145.226 10.38 145.286 9.52 145.286 9.06L148.046 9.32ZM137.706 20.62C137.706 21.6 138.126 22.22 138.846 22.22C139.566 22.22 140.306 21.6 141.046 20.7C140.406 19.72 139.766 18.36 139.186 16.86C138.246 17.96 137.706 19.38 137.706 20.62ZM141.126 15.3C141.586 16.54 142.086 17.7 142.566 18.5C143.286 17.22 143.886 15.66 144.346 14.18C143.126 14.32 142.066 14.74 141.126 15.3ZM172.206 17.96C172.206 22.18 169.626 25.16 164.586 25.94L163.086 23.56C163.846 23.48 164.406 23.36 164.946 23.24C167.506 22.64 169.506 20.8 169.506 17.88C169.506 15.12 168.006 13.06 165.306 12.6C165.026 14.3 164.686 16.14 164.106 18.02C162.906 22.06 161.186 24.54 159.006 24.54C156.786 24.54 154.946 22.1 154.946 18.72C154.946 14.1 158.946 10.16 164.126 10.16C169.086 10.16 172.206 13.6 172.206 17.96ZM157.506 18.46C157.506 20.48 158.306 21.46 159.086 21.46C159.926 21.46 160.706 20.2 161.526 17.5C161.986 16.02 162.366 14.32 162.586 12.66C159.286 13.34 157.506 16.26 157.506 18.46Z" fill="#222222"/>
<path d="M6.24 25.28C4.26 25.28 2.28 24.5 0.84 23.12L2.54 21.08C3.6 22.06 5 22.72 6.3 22.72C7.84 22.72 8.66 22.06 8.66 21.02C8.66 19.92 7.76 19.58 6.44 19.02L4.46 18.18C2.96 17.56 1.46 16.36 1.46 14.2C1.46 11.78 3.58 9.92 6.58 9.92C8.3 9.92 10.02 10.6 11.22 11.82L9.72 13.68C8.78 12.9 7.8 12.46 6.58 12.46C5.28 12.46 4.46 13.04 4.46 14.02C4.46 15.08 5.5 15.46 6.76 15.96L8.7 16.78C10.5 17.52 11.68 18.66 11.68 20.8C11.68 23.22 9.66 25.28 6.24 25.28ZM13.9005 25V10.18H22.9805V12.66H16.8605V16.08H22.0605V18.56H16.8605V22.52H23.2005V25H13.9005ZM30.2252 25.28C28.2452 25.28 26.2652 24.5 24.8252 23.12L26.5252 21.08C27.5852 22.06 28.9852 22.72 30.2852 22.72C31.8252 22.72 32.6452 22.06 32.6452 21.02C32.6452 19.92 31.7452 19.58 30.4252 19.02L28.4452 18.18C26.9452 17.56 25.4452 16.36 25.4452 14.2C25.4452 11.78 27.5652 9.92 30.5652 9.92C32.2852 9.92 34.0052 10.6 35.2052 11.82L33.7052 13.68C32.7652 12.9 31.7852 12.46 30.5652 12.46C29.2652 12.46 28.4452 13.04 28.4452 14.02C28.4452 15.08 29.4852 15.46 30.7452 15.96L32.6852 16.78C34.4852 17.52 35.6652 18.66 35.6652 20.8C35.6652 23.22 33.6452 25.28 30.2252 25.28ZM50.8056 22.12V21.18H47.2056V22.12H50.8056ZM47.2056 18.5V19.36H50.8056V18.5H47.2056ZM41.6456 14.52H44.7856V13.56H41.6456V14.52ZM50.4456 13.56H47.2056V14.52H50.4456V13.56ZM55.3056 19.36V21.18H53.2256V24.66H50.8056V23.84H47.2056V24.46C47.2056 25.64 46.9256 26.12 46.1456 26.46C45.3856 26.76 44.3056 26.8 42.6056 26.8C42.4856 26.24 42.1256 25.42 41.8256 24.92C42.7856 24.96 43.9656 24.96 44.2856 24.96C44.6656 24.94 44.7856 24.82 44.7856 24.46V23.84H38.7056V22.12H44.7856V21.18H36.8656V19.36H44.7856V18.5H38.8656V16.9H44.7856V16.02H39.3656V12.06H44.7856V11.24H37.3256V9.36H44.7856V8.06H47.2056V9.36H54.8456V11.24H47.2056V12.06H52.8856V16.02H47.2056V16.9H53.2256V19.36H55.3056ZM68.1256 13.26H63.3456C63.6256 13.78 63.8856 14.38 64.0256 14.8L63.6856 14.86H67.4256C67.6656 14.38 67.9056 13.8 68.1256 13.26ZM74.5856 22.18H68.7856C70.4856 23.22 72.8056 24 75.1256 24.36C74.5856 24.88 73.8856 25.88 73.5256 26.52C71.0656 25.9 68.6456 24.7 66.8056 23.14V26.74H64.4656V23.26C62.6056 24.72 60.1456 25.88 57.7656 26.5C57.4256 25.92 56.7456 25 56.2456 24.52C58.4856 24.06 60.8456 23.22 62.5656 22.18H56.8256V20.22H64.4656V19.34H58.7056V17.62H64.4656V16.72H57.7056V14.86H61.5056C61.3456 14.36 61.0856 13.76 60.8256 13.3L61.0656 13.26H56.8856V11.32H59.5656C59.2856 10.56 58.7656 9.6 58.3256 8.84L60.3656 8.14C60.9456 9 61.6056 10.18 61.8856 10.96L60.9056 11.32H62.7256V8.06H64.9456V11.32H66.4256V8.06H68.6656V11.32H70.4456L69.7256 11.1C70.2056 10.28 70.7056 9.08 70.9856 8.2L73.4856 8.8C72.9256 9.72 72.3856 10.62 71.9256 11.32H74.5256V13.26H70.7656C70.4456 13.84 70.1256 14.38 69.8256 14.86H73.7456V16.72H66.8056V17.62H72.8056V19.34H66.8056V20.22H74.5856V22.18ZM85.0856 12.28V14.1H86.1856C86.9456 13.52 87.6656 12.92 88.3456 12.28H85.0856ZM89.4456 21.02V19.74H82.5656V21.02H89.4456ZM82.5656 24.18H89.4456V22.82H82.5656V24.18ZM94.2256 16.2H87.0256C86.2456 16.76 85.4856 17.28 84.6656 17.8H91.9456V26.68H89.4456V26.16H82.5656V26.76H80.1856V20.22C79.1856 20.66 78.1456 21.1 77.1256 21.48C76.8456 20.96 76.1256 20 75.6856 19.52C78.3056 18.7 80.8056 17.56 83.1056 16.2H76.3056V14.1H82.7256V12.28H78.0256V10.22H82.7256V8.06H85.0856V10.22H89.4256V11.2C90.1856 10.38 90.8656 9.54 91.4856 8.66L93.5256 9.7C92.3856 11.28 91.0456 12.76 89.5856 14.1H94.2256V16.2ZM113.406 17.96C113.406 22.18 110.826 25.16 105.786 25.94L104.286 23.56C105.046 23.48 105.606 23.36 106.146 23.24C108.706 22.64 110.706 20.8 110.706 17.88C110.706 15.12 109.206 13.06 106.506 12.6C106.226 14.3 105.886 16.14 105.306 18.02C104.106 22.06 102.386 24.54 100.206 24.54C97.9856 24.54 96.1456 22.1 96.1456 18.72C96.1456 14.1 100.146 10.16 105.326 10.16C110.286 10.16 113.406 13.6 113.406 17.96ZM98.7056 18.46C98.7056 20.48 99.5056 21.46 100.286 21.46C101.126 21.46 101.906 20.2 102.726 17.5C103.186 16.02 103.566 14.32 103.786 12.66C100.486 13.34 98.7056 16.26 98.7056 18.46ZM126.206 20.12C126.046 20.68 125.926 21.34 125.926 21.78C125.926 22.66 126.526 23.32 128.666 23.32C130.006 23.32 131.386 23.16 132.826 22.9L132.726 25.46C131.606 25.6 130.246 25.74 128.646 25.74C125.286 25.74 123.466 24.58 123.466 22.56C123.466 21.64 123.666 20.68 123.826 19.88L126.206 20.12ZM123.946 9.04C123.786 9.58 123.606 10.48 123.526 10.92C123.486 11.14 123.426 11.4 123.366 11.68C124.486 11.52 125.606 11.3 126.706 11.04V13.54C125.506 13.82 124.146 14.04 122.806 14.2C122.626 15.06 122.426 15.94 122.206 16.76C121.486 19.56 120.146 23.64 119.026 26.02L116.246 25.08C117.446 23.08 118.966 18.88 119.706 16.08C119.846 15.54 120.006 14.98 120.126 14.4C119.666 14.42 119.226 14.44 118.806 14.44C117.846 14.44 117.086 14.4 116.386 14.36L116.326 11.86C117.346 11.98 118.026 12.02 118.846 12.02C119.426 12.02 120.026 12 120.646 11.96C120.726 11.52 120.786 11.14 120.826 10.82C120.906 10.08 120.946 9.26 120.886 8.8L123.946 9.04ZM125.126 15.08C126.246 14.98 127.686 14.88 128.966 14.88C130.106 14.88 131.306 14.94 132.486 15.06L132.426 17.46C131.426 17.34 130.206 17.22 128.986 17.22C127.626 17.22 126.386 17.28 125.126 17.42V15.08ZM148.046 9.32C147.886 9.86 147.706 10.84 147.586 11.34C147.526 11.6 147.466 11.84 147.406 12.1C150.546 12.82 152.626 15.36 152.626 18.86C152.626 23.1 149.606 25.52 145.446 26.16L143.926 23.84C148.306 23.48 150.046 21.22 150.046 18.72C150.046 16.5 148.806 14.84 146.806 14.3C146.106 16.62 145.226 18.92 144.086 20.66C144.446 21.08 144.806 21.5 145.186 21.86L143.166 23.46C142.926 23.2 142.686 22.94 142.486 22.68C141.146 24.14 140.026 24.8 138.546 24.8C136.886 24.8 135.366 23.4 135.366 20.82C135.366 18.54 136.506 16.1 138.326 14.5C138.126 13.96 137.966 13.42 137.786 12.88C137.566 12.16 137.346 11.52 136.986 10.8L139.606 9.98C139.726 10.64 139.886 11.3 140.046 11.9C140.146 12.28 140.266 12.7 140.406 13.12C141.926 12.36 143.406 11.98 144.946 11.92C145.026 11.58 145.086 11.26 145.126 10.96C145.226 10.38 145.286 9.52 145.286 9.06L148.046 9.32ZM137.706 20.62C137.706 21.6 138.126 22.22 138.846 22.22C139.566 22.22 140.306 21.6 141.046 20.7C140.406 19.72 139.766 18.36 139.186 16.86C138.246 17.96 137.706 19.38 137.706 20.62ZM141.126 15.3C141.586 16.54 142.086 17.7 142.566 18.5C143.286 17.22 143.886 15.66 144.346 14.18C143.126 14.32 142.066 14.74 141.126 15.3ZM172.206 17.96C172.206 22.18 169.626 25.16 164.586 25.94L163.086 23.56C163.846 23.48 164.406 23.36 164.946 23.24C167.506 22.64 169.506 20.8 169.506 17.88C169.506 15.12 168.006 13.06 165.306 12.6C165.026 14.3 164.686 16.14 164.106 18.02C162.906 22.06 161.186 24.54 159.006 24.54C156.786 24.54 154.946 22.1 154.946 18.72C154.946 14.1 158.946 10.16 164.126 10.16C169.086 10.16 172.206 13.6 172.206 17.96ZM157.506 18.46C157.506 20.48 158.306 21.46 159.086 21.46C159.926 21.46 160.706 20.2 161.526 17.5C161.986 16.02 162.366 14.32 162.586 12.66C159.286 13.34 157.506 16.26 157.506 18.46Z" fill="url(#paint8_linear_360_10)"/>
<path d="M6.24 25.28C4.26 25.28 2.28 24.5 0.84 23.12L2.54 21.08C3.6 22.06 5 22.72 6.3 22.72C7.84 22.72 8.66 22.06 8.66 21.02C8.66 19.92 7.76 19.58 6.44 19.02L4.46 18.18C2.96 17.56 1.46 16.36 1.46 14.2C1.46 11.78 3.58 9.92 6.58 9.92C8.3 9.92 10.02 10.6 11.22 11.82L9.72 13.68C8.78 12.9 7.8 12.46 6.58 12.46C5.28 12.46 4.46 13.04 4.46 14.02C4.46 15.08 5.5 15.46 6.76 15.96L8.7 16.78C10.5 17.52 11.68 18.66 11.68 20.8C11.68 23.22 9.66 25.28 6.24 25.28ZM13.9005 25V10.18H22.9805V12.66H16.8605V16.08H22.0605V18.56H16.8605V22.52H23.2005V25H13.9005ZM30.2252 25.28C28.2452 25.28 26.2652 24.5 24.8252 23.12L26.5252 21.08C27.5852 22.06 28.9852 22.72 30.2852 22.72C31.8252 22.72 32.6452 22.06 32.6452 21.02C32.6452 19.92 31.7452 19.58 30.4252 19.02L28.4452 18.18C26.9452 17.56 25.4452 16.36 25.4452 14.2C25.4452 11.78 27.5652 9.92 30.5652 9.92C32.2852 9.92 34.0052 10.6 35.2052 11.82L33.7052 13.68C32.7652 12.9 31.7852 12.46 30.5652 12.46C29.2652 12.46 28.4452 13.04 28.4452 14.02C28.4452 15.08 29.4852 15.46 30.7452 15.96L32.6852 16.78C34.4852 17.52 35.6652 18.66 35.6652 20.8C35.6652 23.22 33.6452 25.28 30.2252 25.28ZM50.8056 22.12V21.18H47.2056V22.12H50.8056ZM47.2056 18.5V19.36H50.8056V18.5H47.2056ZM41.6456 14.52H44.7856V13.56H41.6456V14.52ZM50.4456 13.56H47.2056V14.52H50.4456V13.56ZM55.3056 19.36V21.18H53.2256V24.66H50.8056V23.84H47.2056V24.46C47.2056 25.64 46.9256 26.12 46.1456 26.46C45.3856 26.76 44.3056 26.8 42.6056 26.8C42.4856 26.24 42.1256 25.42 41.8256 24.92C42.7856 24.96 43.9656 24.96 44.2856 24.96C44.6656 24.94 44.7856 24.82 44.7856 24.46V23.84H38.7056V22.12H44.7856V21.18H36.8656V19.36H44.7856V18.5H38.8656V16.9H44.7856V16.02H39.3656V12.06H44.7856V11.24H37.3256V9.36H44.7856V8.06H47.2056V9.36H54.8456V11.24H47.2056V12.06H52.8856V16.02H47.2056V16.9H53.2256V19.36H55.3056ZM68.1256 13.26H63.3456C63.6256 13.78 63.8856 14.38 64.0256 14.8L63.6856 14.86H67.4256C67.6656 14.38 67.9056 13.8 68.1256 13.26ZM74.5856 22.18H68.7856C70.4856 23.22 72.8056 24 75.1256 24.36C74.5856 24.88 73.8856 25.88 73.5256 26.52C71.0656 25.9 68.6456 24.7 66.8056 23.14V26.74H64.4656V23.26C62.6056 24.72 60.1456 25.88 57.7656 26.5C57.4256 25.92 56.7456 25 56.2456 24.52C58.4856 24.06 60.8456 23.22 62.5656 22.18H56.8256V20.22H64.4656V19.34H58.7056V17.62H64.4656V16.72H57.7056V14.86H61.5056C61.3456 14.36 61.0856 13.76 60.8256 13.3L61.0656 13.26H56.8856V11.32H59.5656C59.2856 10.56 58.7656 9.6 58.3256 8.84L60.3656 8.14C60.9456 9 61.6056 10.18 61.8856 10.96L60.9056 11.32H62.7256V8.06H64.9456V11.32H66.4256V8.06H68.6656V11.32H70.4456L69.7256 11.1C70.2056 10.28 70.7056 9.08 70.9856 8.2L73.4856 8.8C72.9256 9.72 72.3856 10.62 71.9256 11.32H74.5256V13.26H70.7656C70.4456 13.84 70.1256 14.38 69.8256 14.86H73.7456V16.72H66.8056V17.62H72.8056V19.34H66.8056V20.22H74.5856V22.18ZM85.0856 12.28V14.1H86.1856C86.9456 13.52 87.6656 12.92 88.3456 12.28H85.0856ZM89.4456 21.02V19.74H82.5656V21.02H89.4456ZM82.5656 24.18H89.4456V22.82H82.5656V24.18ZM94.2256 16.2H87.0256C86.2456 16.76 85.4856 17.28 84.6656 17.8H91.9456V26.68H89.4456V26.16H82.5656V26.76H80.1856V20.22C79.1856 20.66 78.1456 21.1 77.1256 21.48C76.8456 20.96 76.1256 20 75.6856 19.52C78.3056 18.7 80.8056 17.56 83.1056 16.2H76.3056V14.1H82.7256V12.28H78.0256V10.22H82.7256V8.06H85.0856V10.22H89.4256V11.2C90.1856 10.38 90.8656 9.54 91.4856 8.66L93.5256 9.7C92.3856 11.28 91.0456 12.76 89.5856 14.1H94.2256V16.2ZM113.406 17.96C113.406 22.18 110.826 25.16 105.786 25.94L104.286 23.56C105.046 23.48 105.606 23.36 106.146 23.24C108.706 22.64 110.706 20.8 110.706 17.88C110.706 15.12 109.206 13.06 106.506 12.6C106.226 14.3 105.886 16.14 105.306 18.02C104.106 22.06 102.386 24.54 100.206 24.54C97.9856 24.54 96.1456 22.1 96.1456 18.72C96.1456 14.1 100.146 10.16 105.326 10.16C110.286 10.16 113.406 13.6 113.406 17.96ZM98.7056 18.46C98.7056 20.48 99.5056 21.46 100.286 21.46C101.126 21.46 101.906 20.2 102.726 17.5C103.186 16.02 103.566 14.32 103.786 12.66C100.486 13.34 98.7056 16.26 98.7056 18.46ZM126.206 20.12C126.046 20.68 125.926 21.34 125.926 21.78C125.926 22.66 126.526 23.32 128.666 23.32C130.006 23.32 131.386 23.16 132.826 22.9L132.726 25.46C131.606 25.6 130.246 25.74 128.646 25.74C125.286 25.74 123.466 24.58 123.466 22.56C123.466 21.64 123.666 20.68 123.826 19.88L126.206 20.12ZM123.946 9.04C123.786 9.58 123.606 10.48 123.526 10.92C123.486 11.14 123.426 11.4 123.366 11.68C124.486 11.52 125.606 11.3 126.706 11.04V13.54C125.506 13.82 124.146 14.04 122.806 14.2C122.626 15.06 122.426 15.94 122.206 16.76C121.486 19.56 120.146 23.64 119.026 26.02L116.246 25.08C117.446 23.08 118.966 18.88 119.706 16.08C119.846 15.54 120.006 14.98 120.126 14.4C119.666 14.42 119.226 14.44 118.806 14.44C117.846 14.44 117.086 14.4 116.386 14.36L116.326 11.86C117.346 11.98 118.026 12.02 118.846 12.02C119.426 12.02 120.026 12 120.646 11.96C120.726 11.52 120.786 11.14 120.826 10.82C120.906 10.08 120.946 9.26 120.886 8.8L123.946 9.04ZM125.126 15.08C126.246 14.98 127.686 14.88 128.966 14.88C130.106 14.88 131.306 14.94 132.486 15.06L132.426 17.46C131.426 17.34 130.206 17.22 128.986 17.22C127.626 17.22 126.386 17.28 125.126 17.42V15.08ZM148.046 9.32C147.886 9.86 147.706 10.84 147.586 11.34C147.526 11.6 147.466 11.84 147.406 12.1C150.546 12.82 152.626 15.36 152.626 18.86C152.626 23.1 149.606 25.52 145.446 26.16L143.926 23.84C148.306 23.48 150.046 21.22 150.046 18.72C150.046 16.5 148.806 14.84 146.806 14.3C146.106 16.62 145.226 18.92 144.086 20.66C144.446 21.08 144.806 21.5 145.186 21.86L143.166 23.46C142.926 23.2 142.686 22.94 142.486 22.68C141.146 24.14 140.026 24.8 138.546 24.8C136.886 24.8 135.366 23.4 135.366 20.82C135.366 18.54 136.506 16.1 138.326 14.5C138.126 13.96 137.966 13.42 137.786 12.88C137.566 12.16 137.346 11.52 136.986 10.8L139.606 9.98C139.726 10.64 139.886 11.3 140.046 11.9C140.146 12.28 140.266 12.7 140.406 13.12C141.926 12.36 143.406 11.98 144.946 11.92C145.026 11.58 145.086 11.26 145.126 10.96C145.226 10.38 145.286 9.52 145.286 9.06L148.046 9.32ZM137.706 20.62C137.706 21.6 138.126 22.22 138.846 22.22C139.566 22.22 140.306 21.6 141.046 20.7C140.406 19.72 139.766 18.36 139.186 16.86C138.246 17.96 137.706 19.38 137.706 20.62ZM141.126 15.3C141.586 16.54 142.086 17.7 142.566 18.5C143.286 17.22 143.886 15.66 144.346 14.18C143.126 14.32 142.066 14.74 141.126 15.3ZM172.206 17.96C172.206 22.18 169.626 25.16 164.586 25.94L163.086 23.56C163.846 23.48 164.406 23.36 164.946 23.24C167.506 22.64 169.506 20.8 169.506 17.88C169.506 15.12 168.006 13.06 165.306 12.6C165.026 14.3 164.686 16.14 164.106 18.02C162.906 22.06 161.186 24.54 159.006 24.54C156.786 24.54 154.946 22.1 154.946 18.72C154.946 14.1 158.946 10.16 164.126 10.16C169.086 10.16 172.206 13.6 172.206 17.96ZM157.506 18.46C157.506 20.48 158.306 21.46 159.086 21.46C159.926 21.46 160.706 20.2 161.526 17.5C161.986 16.02 162.366 14.32 162.586 12.66C159.286 13.34 157.506 16.26 157.506 18.46Z" fill="url(#paint9_linear_360_10)"/>
<mask id="path-20-inside-2_360_10" fill="white">
<path d="M0 36H307V68H0V36Z"/>
</mask>
<path d="M307 67H0V69H307V67Z" fill="black" mask="url(#path-20-inside-2_360_10)"/>
<path d="M307 67H0V69H307V67Z" fill="url(#paint10_linear_360_10)" mask="url(#path-20-inside-2_360_10)"/>
<path d="M307 67H0V69H307V67Z" fill="url(#paint11_linear_360_10)" mask="url(#path-20-inside-2_360_10)"/>
<path d="M7.02 47.98H4C4.34 48.66 4.6 49.58 4.68 50.18L3.68 50.46H7.6L6.28 50.18C6.54 49.58 6.86 48.66 7.02 47.98ZM6.76 55.96V56.12C7.48 56.62 9.14 57.94 9.6 58.3L8.22 60C7.9 59.6 7.34 59 6.76 58.44V62.7H4.46V58.68C3.68 59.8 2.78 60.8 1.92 61.5C1.56 60.98 0.88 60.2 0.38 59.82C1.68 58.96 3.06 57.46 3.98 55.96H0.94V53.96H4.46V52.42H0.88V50.46H2.72C2.64 49.8 2.4 48.94 2.12 48.26L3.34 47.98H1.1V46.04H4.46V44.22H6.76V46.04H10.08V47.98H8.02L9.18 48.2C8.82 49.06 8.5 49.86 8.22 50.46H10.24V52.42H6.76V53.96H10.06V55.96H6.76ZM19.32 50.64V52.84H17.42V62.62H15.12V52.84H13.08C13.06 55.82 12.64 60.04 10 62.78C9.7 62.26 8.84 61.44 8.3 61.16C10.6 58.72 10.84 55.32 10.84 52.56V45.64L12.22 46.02C14.12 45.56 16.1 44.92 17.32 44.26L19.22 46C17.46 46.78 15.18 47.4 13.08 47.84V50.64H19.32ZM23.02 45.18H29.94C29.94 48.96 30.48 56.26 37.84 60.6C37.32 61.02 36.34 62.06 35.92 62.68C31.78 60.18 29.66 56.4 28.56 52.82C27.06 57.3 24.66 60.62 21.18 62.7C20.74 62.2 19.62 61.22 19 60.76C23.16 58.66 25.54 54.8 26.64 49.54L27.86 49.76C27.72 49 27.64 48.28 27.58 47.6H23.02V45.18ZM46.3 55.36L44.86 57.3C44.44 56.74 43.76 55.94 43.08 55.2V62.74H40.72V55.84C39.92 56.58 39.08 57.24 38.24 57.76C38.04 57.12 37.48 55.96 37.12 55.5C39.3 54.32 41.4 52.22 42.7 49.92H37.88V47.76H40.72V44.08H43.08V47.76H43.98L44.4 47.66L45.74 48.52C45.14 50.04 44.34 51.48 43.38 52.8C44.34 53.58 45.88 54.96 46.3 55.36ZM52.06 59.84H56.32V62.16H45V59.84H49.62V52.52H45.82V50.22H49.62V44.24H52.06V50.22H55.84V52.52H52.06V59.84ZM70.08 47.84V46.54H62V47.84H70.08ZM72.62 44.68V49.68H59.6V44.68H72.62ZM61.06 56.78V57.66H70.86V56.78H61.06ZM61.06 54.42V55.26H70.86V54.42H61.06ZM61.06 52.04V52.9H70.86V52.04H61.06ZM73.32 59.26H70.08C71.96 59.82 74.06 60.54 75.44 61.1L73.34 62.78C71.8 62.06 69.04 61.08 66.92 60.46L68.6 59.26H63.14L64.68 60.34C63.06 61.28 60.5 62.24 58.48 62.74C58.04 62.24 57.22 61.5 56.68 61.04C58.42 60.66 60.48 59.94 61.84 59.26H58.7V50.42H73.32V59.26ZM86.12 53.74H82.64V56.4H86.12V53.74ZM88.3 58.48H82.64V59.88H80.5V51.66H88.3V58.48ZM92.7 47.4V59.96C92.7 61.26 92.42 61.94 91.58 62.32C90.74 62.7 89.46 62.74 87.66 62.74C87.58 62.06 87.22 60.98 86.88 60.34C88.06 60.42 89.4 60.4 89.8 60.38C90.18 60.38 90.3 60.28 90.3 59.92V49.72H78.54V62.72H76.16V47.4H81.68C82.1 46.32 82.5 45.06 82.74 44.06L85.76 44.48C85.34 45.48 84.84 46.52 84.36 47.4H92.7ZM108.56 45.1C108.5 45.54 108.48 46.02 108.46 46.46C108.46 46.88 108.46 47.92 108.46 49.02C109.58 48.94 110.64 48.82 111.46 48.66L111.44 51.26C110.64 51.36 109.6 51.44 108.48 51.5C108.48 51.84 108.48 52.14 108.48 52.34C108.48 57.06 108.12 59.96 104.12 62.5L101.82 60.68C102.58 60.34 103.58 59.7 104.14 59.08C105.68 57.48 106 55.7 106 52.32C106 52.12 106 51.88 106 51.6C105.24 51.62 104.5 51.64 103.76 51.64C102.9 51.64 101.66 51.58 100.68 51.54V49C101.66 49.14 102.64 49.22 103.7 49.22C104.42 49.22 105.2 49.2 105.96 49.18C105.94 48.06 105.92 47.02 105.88 46.48C105.84 45.98 105.74 45.42 105.66 45.1H108.56ZM98.62 45.44C98.44 45.92 98.24 46.64 98.14 47.06C97.64 49.28 96.94 53.48 97.48 55.96C97.74 55.34 98.1 54.38 98.44 53.64L99.68 54.44C99.1 56.16 98.56 58.18 98.32 59.32C98.24 59.62 98.2 60.06 98.2 60.3C98.2 60.5 98.22 60.84 98.24 61.12L96.02 61.34C95.58 60.14 94.88 57.34 94.88 54.86C94.88 51.58 95.28 48.5 95.52 46.88C95.62 46.32 95.64 45.64 95.66 45.14L98.62 45.44ZM111.44 53.22C115.02 52.3 117.96 51 120.18 49.64C122.24 48.36 124.52 46.36 125.82 44.78L127.98 46.84C126.46 48.34 124.54 49.9 122.6 51.18V59.26C122.6 60.14 122.64 61.38 122.78 61.88H119.62C119.7 61.4 119.76 60.14 119.76 59.26V52.86C117.7 53.94 115.16 55.02 112.7 55.74L111.44 53.22ZM131.02 45.8C132.42 46.74 135.02 48.82 136.18 50.04L134.14 52.12C133.1 51 130.6 48.82 129.14 47.8L131.02 45.8ZM128.52 59.12C131.64 58.68 134.24 57.66 136.18 56.5C139.6 54.48 142.2 51.42 143.46 48.72L145.02 51.54C143.5 54.24 140.84 57 137.62 58.94C135.6 60.16 133.02 61.28 130.2 61.76L128.52 59.12ZM161.375 47.68C161.195 48.08 161.035 48.66 160.935 49.08C160.475 51.04 159.595 54.14 157.935 56.36C156.115 58.76 153.455 60.74 149.895 61.88L147.715 59.5C151.675 58.56 153.935 56.82 155.555 54.8C156.875 53.14 157.635 50.86 157.895 49.16H148.575C147.675 49.16 146.715 49.2 146.195 49.24V46.42C146.795 46.48 147.935 46.58 148.595 46.58H157.835C158.235 46.58 158.875 46.56 159.415 46.42L161.375 47.68ZM164.855 45.66C165.415 45.74 166.255 45.76 166.935 45.76H174.635C175.255 45.76 176.235 45.74 176.795 45.66V48.24C176.255 48.2 175.315 48.18 174.595 48.18H166.935C166.295 48.18 165.435 48.2 164.855 48.24V45.66ZM178.475 51.46C178.335 51.72 178.175 52.08 178.095 52.3C177.495 54.24 176.635 56.18 175.135 57.84C173.115 60.08 170.555 61.44 167.995 62.16L166.015 59.9C169.015 59.28 171.415 57.96 172.935 56.4C174.015 55.3 174.635 54.06 174.995 52.94H165.335C164.855 52.94 163.855 52.96 163.015 53.04V50.44C163.855 50.5 164.715 50.56 165.335 50.56H175.235C175.875 50.56 176.415 50.48 176.695 50.36L178.475 51.46ZM180.775 47.04C181.295 47.1 182.115 47.16 182.675 47.16H193.555C194.155 47.16 194.855 47.1 195.435 47.04V49.78C194.835 49.74 194.135 49.7 193.555 49.7H189.335V57.86H194.635C195.355 57.86 195.995 57.78 196.515 57.7V60.6C195.935 60.52 195.095 60.5 194.635 60.5H181.455C180.855 60.5 180.155 60.52 179.495 60.6V57.7C180.115 57.8 180.835 57.86 181.455 57.86H186.535V49.7H182.675C182.135 49.7 181.275 49.74 180.775 49.78V47.04ZM200.415 45.8C201.815 46.74 204.415 48.82 205.575 50.04L203.535 52.12C202.495 51 199.995 48.82 198.535 47.8L200.415 45.8ZM197.915 59.12C201.035 58.68 203.635 57.66 205.575 56.5C208.995 54.48 211.595 51.42 212.855 48.72L214.415 51.54C212.895 54.24 210.235 57 207.015 58.94C204.995 60.16 202.415 61.28 199.595 61.76L197.915 59.12ZM228.795 45.64C229.355 46.48 230.155 47.82 230.615 48.74L228.875 49.48C228.295 48.22 227.835 47.36 227.115 46.34L228.795 45.64ZM231.535 44.68C232.155 45.48 232.935 46.78 233.415 47.66L231.715 48.42C231.075 47.16 230.575 46.38 229.835 45.38L231.535 44.68ZM220.095 45.26C221.415 45.98 223.615 47.38 224.655 48.12L223.175 50.32C222.055 49.54 219.975 48.2 218.655 47.46L220.095 45.26ZM216.395 59.46C218.635 59.08 221.035 58.4 223.195 57.2C226.595 55.3 229.395 52.56 230.975 49.7L232.515 52.42C230.675 55.2 227.835 57.72 224.575 59.62C222.535 60.76 219.655 61.76 217.895 62.08L216.395 59.46ZM217.015 49.82C218.375 50.54 220.575 51.92 221.595 52.64L220.135 54.88C218.995 54.08 216.915 52.74 215.575 52.02L217.015 49.82ZM235.195 47.42C235.915 47.5 236.855 47.54 237.535 47.54H245.815C246.615 47.54 247.475 47.48 248.035 47.42V50.32C247.455 50.3 246.515 50.24 245.815 50.24H237.555C236.795 50.24 235.875 50.28 235.195 50.32V47.42ZM233.515 57.2C234.295 57.26 235.235 57.32 236.015 57.32H247.495C248.175 57.32 249.015 57.28 249.695 57.2V60.26C248.995 60.18 248.095 60.14 247.495 60.14H236.015C235.235 60.14 234.255 60.2 233.515 60.26V57.2ZM267.695 47.46C267.475 47.72 267.095 48.2 266.915 48.5C265.975 50.06 264.075 52.58 262.115 53.98L260.035 52.32C261.635 51.34 263.195 49.58 263.715 48.6H253.295C252.455 48.6 251.795 48.66 250.855 48.74V45.96C251.615 46.08 252.455 46.16 253.295 46.16H264.075C264.635 46.16 265.735 46.1 266.115 45.98L267.695 47.46ZM259.535 50.16C259.535 55.12 259.435 59.2 253.995 62.12L251.655 60.22C252.295 60 253.015 59.66 253.755 59.12C256.295 57.36 256.775 55.24 256.775 51.96C256.775 51.34 256.735 50.8 256.635 50.16H259.535ZM273.095 58.24V53.24H271.295V58.24H273.095ZM275.375 47.16H272.455C272.175 48.5 271.815 49.86 271.375 51.14H275.115V60.34H271.295V61.8H269.315V55.6C269.055 55.98 268.795 56.34 268.515 56.68C268.435 56.04 268.015 54.52 267.695 53.84C268.915 52.2 269.735 49.78 270.235 47.16H268.115V45H275.375V47.16ZM279.935 52.2H282.175V47.26H279.935V52.2ZM286.535 52.2V54.44H284.435V62.76H282.175V54.44H279.895C279.775 57.38 279.195 60.72 277.135 62.9C276.735 62.48 275.875 61.82 275.335 61.52C277.055 59.66 277.555 56.88 277.675 54.44H275.815V52.2H277.715V47.26H276.335V45.06H286.135V47.26H284.435V52.2H286.535ZM291.015 44.12L293.195 44.78C292.775 46.02 292.275 47.32 291.715 48.56V62.72H289.455V52.72C289.055 53.32 288.635 53.9 288.195 54.4C287.995 53.84 287.435 52.46 287.055 51.84C288.655 49.96 290.135 47.04 291.015 44.12ZM294.895 49.64V52.42C296.315 52.06 297.595 51.58 298.715 50.94C298.155 50.44 297.655 49.92 297.235 49.4C296.875 49.84 296.475 50.24 296.075 50.6C295.815 50.34 295.335 49.96 294.895 49.64ZM301.915 47.98H298.395C298.895 48.62 299.535 49.26 300.315 49.82C300.955 49.28 301.475 48.68 301.915 47.98ZM305.895 47.98H304.395C303.815 49.12 303.055 50.08 302.175 50.92C303.415 51.52 304.875 52 306.535 52.26C306.115 52.7 305.535 53.6 305.255 54.16C303.415 53.76 301.815 53.08 300.495 52.26C299.155 53.14 297.615 53.82 295.935 54.32C295.755 53.96 295.295 53.34 294.895 52.88V59.4H292.835V46.6H294.895V48.72C296.195 47.5 297.275 45.8 297.895 44.06L300.035 44.56C299.855 45.06 299.635 45.58 299.395 46.06H305.895V47.98ZM302.555 55.06L304.255 55.76C302.675 57.48 300.015 58.68 297.295 59.38C297.035 58.94 296.555 58.28 296.135 57.9C298.635 57.38 301.235 56.38 302.555 55.06ZM300.595 53.24L302.335 53.96C301.095 55.22 299.115 56.16 297.255 56.76C296.975 56.32 296.455 55.76 295.995 55.4C297.695 54.96 299.615 54.14 300.595 53.24ZM303.995 57.32L306.035 58.14C303.955 60.58 300.415 61.92 296.335 62.66C296.075 62.08 295.595 61.3 295.135 60.78C298.815 60.28 302.275 59.2 303.995 57.32Z" fill="#222222"/>
<path d="M7.02 47.98H4C4.34 48.66 4.6 49.58 4.68 50.18L3.68 50.46H7.6L6.28 50.18C6.54 49.58 6.86 48.66 7.02 47.98ZM6.76 55.96V56.12C7.48 56.62 9.14 57.94 9.6 58.3L8.22 60C7.9 59.6 7.34 59 6.76 58.44V62.7H4.46V58.68C3.68 59.8 2.78 60.8 1.92 61.5C1.56 60.98 0.88 60.2 0.38 59.82C1.68 58.96 3.06 57.46 3.98 55.96H0.94V53.96H4.46V52.42H0.88V50.46H2.72C2.64 49.8 2.4 48.94 2.12 48.26L3.34 47.98H1.1V46.04H4.46V44.22H6.76V46.04H10.08V47.98H8.02L9.18 48.2C8.82 49.06 8.5 49.86 8.22 50.46H10.24V52.42H6.76V53.96H10.06V55.96H6.76ZM19.32 50.64V52.84H17.42V62.62H15.12V52.84H13.08C13.06 55.82 12.64 60.04 10 62.78C9.7 62.26 8.84 61.44 8.3 61.16C10.6 58.72 10.84 55.32 10.84 52.56V45.64L12.22 46.02C14.12 45.56 16.1 44.92 17.32 44.26L19.22 46C17.46 46.78 15.18 47.4 13.08 47.84V50.64H19.32ZM23.02 45.18H29.94C29.94 48.96 30.48 56.26 37.84 60.6C37.32 61.02 36.34 62.06 35.92 62.68C31.78 60.18 29.66 56.4 28.56 52.82C27.06 57.3 24.66 60.62 21.18 62.7C20.74 62.2 19.62 61.22 19 60.76C23.16 58.66 25.54 54.8 26.64 49.54L27.86 49.76C27.72 49 27.64 48.28 27.58 47.6H23.02V45.18ZM46.3 55.36L44.86 57.3C44.44 56.74 43.76 55.94 43.08 55.2V62.74H40.72V55.84C39.92 56.58 39.08 57.24 38.24 57.76C38.04 57.12 37.48 55.96 37.12 55.5C39.3 54.32 41.4 52.22 42.7 49.92H37.88V47.76H40.72V44.08H43.08V47.76H43.98L44.4 47.66L45.74 48.52C45.14 50.04 44.34 51.48 43.38 52.8C44.34 53.58 45.88 54.96 46.3 55.36ZM52.06 59.84H56.32V62.16H45V59.84H49.62V52.52H45.82V50.22H49.62V44.24H52.06V50.22H55.84V52.52H52.06V59.84ZM70.08 47.84V46.54H62V47.84H70.08ZM72.62 44.68V49.68H59.6V44.68H72.62ZM61.06 56.78V57.66H70.86V56.78H61.06ZM61.06 54.42V55.26H70.86V54.42H61.06ZM61.06 52.04V52.9H70.86V52.04H61.06ZM73.32 59.26H70.08C71.96 59.82 74.06 60.54 75.44 61.1L73.34 62.78C71.8 62.06 69.04 61.08 66.92 60.46L68.6 59.26H63.14L64.68 60.34C63.06 61.28 60.5 62.24 58.48 62.74C58.04 62.24 57.22 61.5 56.68 61.04C58.42 60.66 60.48 59.94 61.84 59.26H58.7V50.42H73.32V59.26ZM86.12 53.74H82.64V56.4H86.12V53.74ZM88.3 58.48H82.64V59.88H80.5V51.66H88.3V58.48ZM92.7 47.4V59.96C92.7 61.26 92.42 61.94 91.58 62.32C90.74 62.7 89.46 62.74 87.66 62.74C87.58 62.06 87.22 60.98 86.88 60.34C88.06 60.42 89.4 60.4 89.8 60.38C90.18 60.38 90.3 60.28 90.3 59.92V49.72H78.54V62.72H76.16V47.4H81.68C82.1 46.32 82.5 45.06 82.74 44.06L85.76 44.48C85.34 45.48 84.84 46.52 84.36 47.4H92.7ZM108.56 45.1C108.5 45.54 108.48 46.02 108.46 46.46C108.46 46.88 108.46 47.92 108.46 49.02C109.58 48.94 110.64 48.82 111.46 48.66L111.44 51.26C110.64 51.36 109.6 51.44 108.48 51.5C108.48 51.84 108.48 52.14 108.48 52.34C108.48 57.06 108.12 59.96 104.12 62.5L101.82 60.68C102.58 60.34 103.58 59.7 104.14 59.08C105.68 57.48 106 55.7 106 52.32C106 52.12 106 51.88 106 51.6C105.24 51.62 104.5 51.64 103.76 51.64C102.9 51.64 101.66 51.58 100.68 51.54V49C101.66 49.14 102.64 49.22 103.7 49.22C104.42 49.22 105.2 49.2 105.96 49.18C105.94 48.06 105.92 47.02 105.88 46.48C105.84 45.98 105.74 45.42 105.66 45.1H108.56ZM98.62 45.44C98.44 45.92 98.24 46.64 98.14 47.06C97.64 49.28 96.94 53.48 97.48 55.96C97.74 55.34 98.1 54.38 98.44 53.64L99.68 54.44C99.1 56.16 98.56 58.18 98.32 59.32C98.24 59.62 98.2 60.06 98.2 60.3C98.2 60.5 98.22 60.84 98.24 61.12L96.02 61.34C95.58 60.14 94.88 57.34 94.88 54.86C94.88 51.58 95.28 48.5 95.52 46.88C95.62 46.32 95.64 45.64 95.66 45.14L98.62 45.44ZM111.44 53.22C115.02 52.3 117.96 51 120.18 49.64C122.24 48.36 124.52 46.36 125.82 44.78L127.98 46.84C126.46 48.34 124.54 49.9 122.6 51.18V59.26C122.6 60.14 122.64 61.38 122.78 61.88H119.62C119.7 61.4 119.76 60.14 119.76 59.26V52.86C117.7 53.94 115.16 55.02 112.7 55.74L111.44 53.22ZM131.02 45.8C132.42 46.74 135.02 48.82 136.18 50.04L134.14 52.12C133.1 51 130.6 48.82 129.14 47.8L131.02 45.8ZM128.52 59.12C131.64 58.68 134.24 57.66 136.18 56.5C139.6 54.48 142.2 51.42 143.46 48.72L145.02 51.54C143.5 54.24 140.84 57 137.62 58.94C135.6 60.16 133.02 61.28 130.2 61.76L128.52 59.12ZM161.375 47.68C161.195 48.08 161.035 48.66 160.935 49.08C160.475 51.04 159.595 54.14 157.935 56.36C156.115 58.76 153.455 60.74 149.895 61.88L147.715 59.5C151.675 58.56 153.935 56.82 155.555 54.8C156.875 53.14 157.635 50.86 157.895 49.16H148.575C147.675 49.16 146.715 49.2 146.195 49.24V46.42C146.795 46.48 147.935 46.58 148.595 46.58H157.835C158.235 46.58 158.875 46.56 159.415 46.42L161.375 47.68ZM164.855 45.66C165.415 45.74 166.255 45.76 166.935 45.76H174.635C175.255 45.76 176.235 45.74 176.795 45.66V48.24C176.255 48.2 175.315 48.18 174.595 48.18H166.935C166.295 48.18 165.435 48.2 164.855 48.24V45.66ZM178.475 51.46C178.335 51.72 178.175 52.08 178.095 52.3C177.495 54.24 176.635 56.18 175.135 57.84C173.115 60.08 170.555 61.44 167.995 62.16L166.015 59.9C169.015 59.28 171.415 57.96 172.935 56.4C174.015 55.3 174.635 54.06 174.995 52.94H165.335C164.855 52.94 163.855 52.96 163.015 53.04V50.44C163.855 50.5 164.715 50.56 165.335 50.56H175.235C175.875 50.56 176.415 50.48 176.695 50.36L178.475 51.46ZM180.775 47.04C181.295 47.1 182.115 47.16 182.675 47.16H193.555C194.155 47.16 194.855 47.1 195.435 47.04V49.78C194.835 49.74 194.135 49.7 193.555 49.7H189.335V57.86H194.635C195.355 57.86 195.995 57.78 196.515 57.7V60.6C195.935 60.52 195.095 60.5 194.635 60.5H181.455C180.855 60.5 180.155 60.52 179.495 60.6V57.7C180.115 57.8 180.835 57.86 181.455 57.86H186.535V49.7H182.675C182.135 49.7 181.275 49.74 180.775 49.78V47.04ZM200.415 45.8C201.815 46.74 204.415 48.82 205.575 50.04L203.535 52.12C202.495 51 199.995 48.82 198.535 47.8L200.415 45.8ZM197.915 59.12C201.035 58.68 203.635 57.66 205.575 56.5C208.995 54.48 211.595 51.42 212.855 48.72L214.415 51.54C212.895 54.24 210.235 57 207.015 58.94C204.995 60.16 202.415 61.28 199.595 61.76L197.915 59.12ZM228.795 45.64C229.355 46.48 230.155 47.82 230.615 48.74L228.875 49.48C228.295 48.22 227.835 47.36 227.115 46.34L228.795 45.64ZM231.535 44.68C232.155 45.48 232.935 46.78 233.415 47.66L231.715 48.42C231.075 47.16 230.575 46.38 229.835 45.38L231.535 44.68ZM220.095 45.26C221.415 45.98 223.615 47.38 224.655 48.12L223.175 50.32C222.055 49.54 219.975 48.2 218.655 47.46L220.095 45.26ZM216.395 59.46C218.635 59.08 221.035 58.4 223.195 57.2C226.595 55.3 229.395 52.56 230.975 49.7L232.515 52.42C230.675 55.2 227.835 57.72 224.575 59.62C222.535 60.76 219.655 61.76 217.895 62.08L216.395 59.46ZM217.015 49.82C218.375 50.54 220.575 51.92 221.595 52.64L220.135 54.88C218.995 54.08 216.915 52.74 215.575 52.02L217.015 49.82ZM235.195 47.42C235.915 47.5 236.855 47.54 237.535 47.54H245.815C246.615 47.54 247.475 47.48 248.035 47.42V50.32C247.455 50.3 246.515 50.24 245.815 50.24H237.555C236.795 50.24 235.875 50.28 235.195 50.32V47.42ZM233.515 57.2C234.295 57.26 235.235 57.32 236.015 57.32H247.495C248.175 57.32 249.015 57.28 249.695 57.2V60.26C248.995 60.18 248.095 60.14 247.495 60.14H236.015C235.235 60.14 234.255 60.2 233.515 60.26V57.2ZM267.695 47.46C267.475 47.72 267.095 48.2 266.915 48.5C265.975 50.06 264.075 52.58 262.115 53.98L260.035 52.32C261.635 51.34 263.195 49.58 263.715 48.6H253.295C252.455 48.6 251.795 48.66 250.855 48.74V45.96C251.615 46.08 252.455 46.16 253.295 46.16H264.075C264.635 46.16 265.735 46.1 266.115 45.98L267.695 47.46ZM259.535 50.16C259.535 55.12 259.435 59.2 253.995 62.12L251.655 60.22C252.295 60 253.015 59.66 253.755 59.12C256.295 57.36 256.775 55.24 256.775 51.96C256.775 51.34 256.735 50.8 256.635 50.16H259.535ZM273.095 58.24V53.24H271.295V58.24H273.095ZM275.375 47.16H272.455C272.175 48.5 271.815 49.86 271.375 51.14H275.115V60.34H271.295V61.8H269.315V55.6C269.055 55.98 268.795 56.34 268.515 56.68C268.435 56.04 268.015 54.52 267.695 53.84C268.915 52.2 269.735 49.78 270.235 47.16H268.115V45H275.375V47.16ZM279.935 52.2H282.175V47.26H279.935V52.2ZM286.535 52.2V54.44H284.435V62.76H282.175V54.44H279.895C279.775 57.38 279.195 60.72 277.135 62.9C276.735 62.48 275.875 61.82 275.335 61.52C277.055 59.66 277.555 56.88 277.675 54.44H275.815V52.2H277.715V47.26H276.335V45.06H286.135V47.26H284.435V52.2H286.535ZM291.015 44.12L293.195 44.78C292.775 46.02 292.275 47.32 291.715 48.56V62.72H289.455V52.72C289.055 53.32 288.635 53.9 288.195 54.4C287.995 53.84 287.435 52.46 287.055 51.84C288.655 49.96 290.135 47.04 291.015 44.12ZM294.895 49.64V52.42C296.315 52.06 297.595 51.58 298.715 50.94C298.155 50.44 297.655 49.92 297.235 49.4C296.875 49.84 296.475 50.24 296.075 50.6C295.815 50.34 295.335 49.96 294.895 49.64ZM301.915 47.98H298.395C298.895 48.62 299.535 49.26 300.315 49.82C300.955 49.28 301.475 48.68 301.915 47.98ZM305.895 47.98H304.395C303.815 49.12 303.055 50.08 302.175 50.92C303.415 51.52 304.875 52 306.535 52.26C306.115 52.7 305.535 53.6 305.255 54.16C303.415 53.76 301.815 53.08 300.495 52.26C299.155 53.14 297.615 53.82 295.935 54.32C295.755 53.96 295.295 53.34 294.895 52.88V59.4H292.835V46.6H294.895V48.72C296.195 47.5 297.275 45.8 297.895 44.06L300.035 44.56C299.855 45.06 299.635 45.58 299.395 46.06H305.895V47.98ZM302.555 55.06L304.255 55.76C302.675 57.48 300.015 58.68 297.295 59.38C297.035 58.94 296.555 58.28 296.135 57.9C298.635 57.38 301.235 56.38 302.555 55.06ZM300.595 53.24L302.335 53.96C301.095 55.22 299.115 56.16 297.255 56.76C296.975 56.32 296.455 55.76 295.995 55.4C297.695 54.96 299.615 54.14 300.595 53.24ZM303.995 57.32L306.035 58.14C303.955 60.58 300.415 61.92 296.335 62.66C296.075 62.08 295.595 61.3 295.135 60.78C298.815 60.28 302.275 59.2 303.995 57.32Z" fill="url(#paint12_linear_360_10)"/>
<path d="M7.02 47.98H4C4.34 48.66 4.6 49.58 4.68 50.18L3.68 50.46H7.6L6.28 50.18C6.54 49.58 6.86 48.66 7.02 47.98ZM6.76 55.96V56.12C7.48 56.62 9.14 57.94 9.6 58.3L8.22 60C7.9 59.6 7.34 59 6.76 58.44V62.7H4.46V58.68C3.68 59.8 2.78 60.8 1.92 61.5C1.56 60.98 0.88 60.2 0.38 59.82C1.68 58.96 3.06 57.46 3.98 55.96H0.94V53.96H4.46V52.42H0.88V50.46H2.72C2.64 49.8 2.4 48.94 2.12 48.26L3.34 47.98H1.1V46.04H4.46V44.22H6.76V46.04H10.08V47.98H8.02L9.18 48.2C8.82 49.06 8.5 49.86 8.22 50.46H10.24V52.42H6.76V53.96H10.06V55.96H6.76ZM19.32 50.64V52.84H17.42V62.62H15.12V52.84H13.08C13.06 55.82 12.64 60.04 10 62.78C9.7 62.26 8.84 61.44 8.3 61.16C10.6 58.72 10.84 55.32 10.84 52.56V45.64L12.22 46.02C14.12 45.56 16.1 44.92 17.32 44.26L19.22 46C17.46 46.78 15.18 47.4 13.08 47.84V50.64H19.32ZM23.02 45.18H29.94C29.94 48.96 30.48 56.26 37.84 60.6C37.32 61.02 36.34 62.06 35.92 62.68C31.78 60.18 29.66 56.4 28.56 52.82C27.06 57.3 24.66 60.62 21.18 62.7C20.74 62.2 19.62 61.22 19 60.76C23.16 58.66 25.54 54.8 26.64 49.54L27.86 49.76C27.72 49 27.64 48.28 27.58 47.6H23.02V45.18ZM46.3 55.36L44.86 57.3C44.44 56.74 43.76 55.94 43.08 55.2V62.74H40.72V55.84C39.92 56.58 39.08 57.24 38.24 57.76C38.04 57.12 37.48 55.96 37.12 55.5C39.3 54.32 41.4 52.22 42.7 49.92H37.88V47.76H40.72V44.08H43.08V47.76H43.98L44.4 47.66L45.74 48.52C45.14 50.04 44.34 51.48 43.38 52.8C44.34 53.58 45.88 54.96 46.3 55.36ZM52.06 59.84H56.32V62.16H45V59.84H49.62V52.52H45.82V50.22H49.62V44.24H52.06V50.22H55.84V52.52H52.06V59.84ZM70.08 47.84V46.54H62V47.84H70.08ZM72.62 44.68V49.68H59.6V44.68H72.62ZM61.06 56.78V57.66H70.86V56.78H61.06ZM61.06 54.42V55.26H70.86V54.42H61.06ZM61.06 52.04V52.9H70.86V52.04H61.06ZM73.32 59.26H70.08C71.96 59.82 74.06 60.54 75.44 61.1L73.34 62.78C71.8 62.06 69.04 61.08 66.92 60.46L68.6 59.26H63.14L64.68 60.34C63.06 61.28 60.5 62.24 58.48 62.74C58.04 62.24 57.22 61.5 56.68 61.04C58.42 60.66 60.48 59.94 61.84 59.26H58.7V50.42H73.32V59.26ZM86.12 53.74H82.64V56.4H86.12V53.74ZM88.3 58.48H82.64V59.88H80.5V51.66H88.3V58.48ZM92.7 47.4V59.96C92.7 61.26 92.42 61.94 91.58 62.32C90.74 62.7 89.46 62.74 87.66 62.74C87.58 62.06 87.22 60.98 86.88 60.34C88.06 60.42 89.4 60.4 89.8 60.38C90.18 60.38 90.3 60.28 90.3 59.92V49.72H78.54V62.72H76.16V47.4H81.68C82.1 46.32 82.5 45.06 82.74 44.06L85.76 44.48C85.34 45.48 84.84 46.52 84.36 47.4H92.7ZM108.56 45.1C108.5 45.54 108.48 46.02 108.46 46.46C108.46 46.88 108.46 47.92 108.46 49.02C109.58 48.94 110.64 48.82 111.46 48.66L111.44 51.26C110.64 51.36 109.6 51.44 108.48 51.5C108.48 51.84 108.48 52.14 108.48 52.34C108.48 57.06 108.12 59.96 104.12 62.5L101.82 60.68C102.58 60.34 103.58 59.7 104.14 59.08C105.68 57.48 106 55.7 106 52.32C106 52.12 106 51.88 106 51.6C105.24 51.62 104.5 51.64 103.76 51.64C102.9 51.64 101.66 51.58 100.68 51.54V49C101.66 49.14 102.64 49.22 103.7 49.22C104.42 49.22 105.2 49.2 105.96 49.18C105.94 48.06 105.92 47.02 105.88 46.48C105.84 45.98 105.74 45.42 105.66 45.1H108.56ZM98.62 45.44C98.44 45.92 98.24 46.64 98.14 47.06C97.64 49.28 96.94 53.48 97.48 55.96C97.74 55.34 98.1 54.38 98.44 53.64L99.68 54.44C99.1 56.16 98.56 58.18 98.32 59.32C98.24 59.62 98.2 60.06 98.2 60.3C98.2 60.5 98.22 60.84 98.24 61.12L96.02 61.34C95.58 60.14 94.88 57.34 94.88 54.86C94.88 51.58 95.28 48.5 95.52 46.88C95.62 46.32 95.64 45.64 95.66 45.14L98.62 45.44ZM111.44 53.22C115.02 52.3 117.96 51 120.18 49.64C122.24 48.36 124.52 46.36 125.82 44.78L127.98 46.84C126.46 48.34 124.54 49.9 122.6 51.18V59.26C122.6 60.14 122.64 61.38 122.78 61.88H119.62C119.7 61.4 119.76 60.14 119.76 59.26V52.86C117.7 53.94 115.16 55.02 112.7 55.74L111.44 53.22ZM131.02 45.8C132.42 46.74 135.02 48.82 136.18 50.04L134.14 52.12C133.1 51 130.6 48.82 129.14 47.8L131.02 45.8ZM128.52 59.12C131.64 58.68 134.24 57.66 136.18 56.5C139.6 54.48 142.2 51.42 143.46 48.72L145.02 51.54C143.5 54.24 140.84 57 137.62 58.94C135.6 60.16 133.02 61.28 130.2 61.76L128.52 59.12ZM161.375 47.68C161.195 48.08 161.035 48.66 160.935 49.08C160.475 51.04 159.595 54.14 157.935 56.36C156.115 58.76 153.455 60.74 149.895 61.88L147.715 59.5C151.675 58.56 153.935 56.82 155.555 54.8C156.875 53.14 157.635 50.86 157.895 49.16H148.575C147.675 49.16 146.715 49.2 146.195 49.24V46.42C146.795 46.48 147.935 46.58 148.595 46.58H157.835C158.235 46.58 158.875 46.56 159.415 46.42L161.375 47.68ZM164.855 45.66C165.415 45.74 166.255 45.76 166.935 45.76H174.635C175.255 45.76 176.235 45.74 176.795 45.66V48.24C176.255 48.2 175.315 48.18 174.595 48.18H166.935C166.295 48.18 165.435 48.2 164.855 48.24V45.66ZM178.475 51.46C178.335 51.72 178.175 52.08 178.095 52.3C177.495 54.24 176.635 56.18 175.135 57.84C173.115 60.08 170.555 61.44 167.995 62.16L166.015 59.9C169.015 59.28 171.415 57.96 172.935 56.4C174.015 55.3 174.635 54.06 174.995 52.94H165.335C164.855 52.94 163.855 52.96 163.015 53.04V50.44C163.855 50.5 164.715 50.56 165.335 50.56H175.235C175.875 50.56 176.415 50.48 176.695 50.36L178.475 51.46ZM180.775 47.04C181.295 47.1 182.115 47.16 182.675 47.16H193.555C194.155 47.16 194.855 47.1 195.435 47.04V49.78C194.835 49.74 194.135 49.7 193.555 49.7H189.335V57.86H194.635C195.355 57.86 195.995 57.78 196.515 57.7V60.6C195.935 60.52 195.095 60.5 194.635 60.5H181.455C180.855 60.5 180.155 60.52 179.495 60.6V57.7C180.115 57.8 180.835 57.86 181.455 57.86H186.535V49.7H182.675C182.135 49.7 181.275 49.74 180.775 49.78V47.04ZM200.415 45.8C201.815 46.74 204.415 48.82 205.575 50.04L203.535 52.12C202.495 51 199.995 48.82 198.535 47.8L200.415 45.8ZM197.915 59.12C201.035 58.68 203.635 57.66 205.575 56.5C208.995 54.48 211.595 51.42 212.855 48.72L214.415 51.54C212.895 54.24 210.235 57 207.015 58.94C204.995 60.16 202.415 61.28 199.595 61.76L197.915 59.12ZM228.795 45.64C229.355 46.48 230.155 47.82 230.615 48.74L228.875 49.48C228.295 48.22 227.835 47.36 227.115 46.34L228.795 45.64ZM231.535 44.68C232.155 45.48 232.935 46.78 233.415 47.66L231.715 48.42C231.075 47.16 230.575 46.38 229.835 45.38L231.535 44.68ZM220.095 45.26C221.415 45.98 223.615 47.38 224.655 48.12L223.175 50.32C222.055 49.54 219.975 48.2 218.655 47.46L220.095 45.26ZM216.395 59.46C218.635 59.08 221.035 58.4 223.195 57.2C226.595 55.3 229.395 52.56 230.975 49.7L232.515 52.42C230.675 55.2 227.835 57.72 224.575 59.62C222.535 60.76 219.655 61.76 217.895 62.08L216.395 59.46ZM217.015 49.82C218.375 50.54 220.575 51.92 221.595 52.64L220.135 54.88C218.995 54.08 216.915 52.74 215.575 52.02L217.015 49.82ZM235.195 47.42C235.915 47.5 236.855 47.54 237.535 47.54H245.815C246.615 47.54 247.475 47.48 248.035 47.42V50.32C247.455 50.3 246.515 50.24 245.815 50.24H237.555C236.795 50.24 235.875 50.28 235.195 50.32V47.42ZM233.515 57.2C234.295 57.26 235.235 57.32 236.015 57.32H247.495C248.175 57.32 249.015 57.28 249.695 57.2V60.26C248.995 60.18 248.095 60.14 247.495 60.14H236.015C235.235 60.14 234.255 60.2 233.515 60.26V57.2ZM267.695 47.46C267.475 47.72 267.095 48.2 266.915 48.5C265.975 50.06 264.075 52.58 262.115 53.98L260.035 52.32C261.635 51.34 263.195 49.58 263.715 48.6H253.295C252.455 48.6 251.795 48.66 250.855 48.74V45.96C251.615 46.08 252.455 46.16 253.295 46.16H264.075C264.635 46.16 265.735 46.1 266.115 45.98L267.695 47.46ZM259.535 50.16C259.535 55.12 259.435 59.2 253.995 62.12L251.655 60.22C252.295 60 253.015 59.66 253.755 59.12C256.295 57.36 256.775 55.24 256.775 51.96C256.775 51.34 256.735 50.8 256.635 50.16H259.535ZM273.095 58.24V53.24H271.295V58.24H273.095ZM275.375 47.16H272.455C272.175 48.5 271.815 49.86 271.375 51.14H275.115V60.34H271.295V61.8H269.315V55.6C269.055 55.98 268.795 56.34 268.515 56.68C268.435 56.04 268.015 54.52 267.695 53.84C268.915 52.2 269.735 49.78 270.235 47.16H268.115V45H275.375V47.16ZM279.935 52.2H282.175V47.26H279.935V52.2ZM286.535 52.2V54.44H284.435V62.76H282.175V54.44H279.895C279.775 57.38 279.195 60.72 277.135 62.9C276.735 62.48 275.875 61.82 275.335 61.52C277.055 59.66 277.555 56.88 277.675 54.44H275.815V52.2H277.715V47.26H276.335V45.06H286.135V47.26H284.435V52.2H286.535ZM291.015 44.12L293.195 44.78C292.775 46.02 292.275 47.32 291.715 48.56V62.72H289.455V52.72C289.055 53.32 288.635 53.9 288.195 54.4C287.995 53.84 287.435 52.46 287.055 51.84C288.655 49.96 290.135 47.04 291.015 44.12ZM294.895 49.64V52.42C296.315 52.06 297.595 51.58 298.715 50.94C298.155 50.44 297.655 49.92 297.235 49.4C296.875 49.84 296.475 50.24 296.075 50.6C295.815 50.34 295.335 49.96 294.895 49.64ZM301.915 47.98H298.395C298.895 48.62 299.535 49.26 300.315 49.82C300.955 49.28 301.475 48.68 301.915 47.98ZM305.895 47.98H304.395C303.815 49.12 303.055 50.08 302.175 50.92C303.415 51.52 304.875 52 306.535 52.26C306.115 52.7 305.535 53.6 305.255 54.16C303.415 53.76 301.815 53.08 300.495 52.26C299.155 53.14 297.615 53.82 295.935 54.32C295.755 53.96 295.295 53.34 294.895 52.88V59.4H292.835V46.6H294.895V48.72C296.195 47.5 297.275 45.8 297.895 44.06L300.035 44.56C299.855 45.06 299.635 45.58 299.395 46.06H305.895V47.98ZM302.555 55.06L304.255 55.76C302.675 57.48 300.015 58.68 297.295 59.38C297.035 58.94 296.555 58.28 296.135 57.9C298.635 57.38 301.235 56.38 302.555 55.06ZM300.595 53.24L302.335 53.96C301.095 55.22 299.115 56.16 297.255 56.76C296.975 56.32 296.455 55.76 295.995 55.4C297.695 54.96 299.615 54.14 300.595 53.24ZM303.995 57.32L306.035 58.14C303.955 60.58 300.415 61.92 296.335 62.66C296.075 62.08 295.595 61.3 295.135 60.78C298.815 60.28 302.275 59.2 303.995 57.32Z" fill="url(#paint13_linear_360_10)"/>
<defs>
<linearGradient id="paint0_linear_360_10" x1="477.015" y1="118" x2="460.299" y2="118" gradientUnits="userSpaceOnUse">
<stop stop-color="#0072BE"/>
<stop offset="1" stop-color="#00A0E6"/>
</linearGradient>
<linearGradient id="paint1_linear_360_10" x1="424" y1="118" x2="484" y2="118" gradientUnits="userSpaceOnUse">
<stop stop-color="#4889D8"/>
<stop offset="1" stop-color="#63B1C2"/>
</linearGradient>
<linearGradient id="paint2_linear_360_10" x1="422.015" y1="118" x2="405.299" y2="118" gradientUnits="userSpaceOnUse">
<stop stop-color="#0072BE"/>
<stop offset="1" stop-color="#00A0E6"/>
</linearGradient>
<linearGradient id="paint3_linear_360_10" x1="369" y1="118" x2="429" y2="118" gradientUnits="userSpaceOnUse">
<stop stop-color="#4889D8"/>
<stop offset="1" stop-color="#63B1C2"/>
</linearGradient>
<linearGradient id="paint4_linear_360_10" x1="378.522" y1="93.9999" x2="353.449" y2="93.9999" gradientUnits="userSpaceOnUse">
<stop stop-color="#0072BE"/>
<stop offset="1" stop-color="#00A0E6"/>
</linearGradient>
<linearGradient id="paint5_linear_360_10" x1="299" y1="94" x2="389" y2="94" gradientUnits="userSpaceOnUse">
<stop stop-color="#4889D8"/>
<stop offset="1" stop-color="#63B1C2"/>
</linearGradient>
<linearGradient id="paint6_linear_360_10" x1="153.742" y1="16" x2="105.268" y2="15.9999" gradientUnits="userSpaceOnUse">
<stop stop-color="#0072BE"/>
<stop offset="1" stop-color="#00A0E6"/>
</linearGradient>
<linearGradient id="paint7_linear_360_10" x1="6.48201e-07" y1="16" x2="174" y2="16" gradientUnits="userSpaceOnUse">
<stop stop-color="#4889D8"/>
<stop offset="1" stop-color="#63B1C2"/>
</linearGradient>
<linearGradient id="paint8_linear_360_10" x1="153.742" y1="16" x2="105.268" y2="15.9998" gradientUnits="userSpaceOnUse">
<stop stop-color="#0072BE"/>
<stop offset="1" stop-color="#00A0E6"/>
</linearGradient>
<linearGradient id="paint9_linear_360_10" x1="6.48201e-07" y1="16" x2="174" y2="16" gradientUnits="userSpaceOnUse">
<stop stop-color="#4889D8"/>
<stop offset="1" stop-color="#63B1C2"/>
</linearGradient>
<linearGradient id="paint10_linear_360_10" x1="271.258" y1="52" x2="185.732" y2="51.9997" gradientUnits="userSpaceOnUse">
<stop stop-color="#0072BE"/>
<stop offset="1" stop-color="#00A0E6"/>
</linearGradient>
<linearGradient id="paint11_linear_360_10" x1="1.14366e-06" y1="52" x2="307" y2="52" gradientUnits="userSpaceOnUse">
<stop stop-color="#4889D8"/>
<stop offset="1" stop-color="#63B1C2"/>
</linearGradient>
<linearGradient id="paint12_linear_360_10" x1="271.258" y1="52" x2="185.732" y2="51.9996" gradientUnits="userSpaceOnUse">
<stop stop-color="#0072BE"/>
<stop offset="1" stop-color="#00A0E6"/>
</linearGradient>
<linearGradient id="paint13_linear_360_10" x1="1.14366e-06" y1="52" x2="307" y2="52" gradientUnits="userSpaceOnUse">
<stop stop-color="#4889D8"/>
<stop offset="1" stop-color="#63B1C2"/>
</linearGradient>
<clipPath id="clip0_360_10">
<rect width="203" height="125" fill="white" transform="translate(302 55)"/>
</clipPath>
</defs>
</svg>
