<svg width="158" height="158" viewBox="0 0 158 158" fill="none" xmlns="http://www.w3.org/2000/svg">
<path d="M117.5 43C123.842 43 129 37.6177 129 31C129 24.3823 123.842 19 117.5 19C111.158 19 106 24.3823 106 31C106 37.6177 111.158 43 117.5 43ZM117.5 22.2229C122.138 22.2229 125.911 26.1603 125.911 31C125.911 35.8397 122.138 39.7771 117.5 39.7771C112.862 39.7771 109.089 35.8397 109.089 31C109.089 26.1603 112.862 22.2229 117.5 22.2229Z" fill="#1F1F1F"/>
<path d="M117.5 43C123.842 43 129 37.6177 129 31C129 24.3823 123.842 19 117.5 19C111.158 19 106 24.3823 106 31C106 37.6177 111.158 43 117.5 43ZM117.5 22.2229C122.138 22.2229 125.911 26.1603 125.911 31C125.911 35.8397 122.138 39.7771 117.5 39.7771C112.862 39.7771 109.089 35.8397 109.089 31C109.089 26.1603 112.862 22.2229 117.5 22.2229Z" fill="url(#paint0_linear_68_109)"/>
<path d="M40.5 43C46.842 43 52 37.6177 52 31C52 24.3823 46.842 19 40.5 19C34.158 19 29 24.3823 29 31C29 37.6177 34.158 43 40.5 43ZM40.5 22.2229C45.1381 22.2229 48.9114 26.1603 48.9114 31C48.9114 35.8397 45.1381 39.7771 40.5 39.7771C35.8619 39.7771 32.0886 35.8397 32.0886 31C32.0886 26.1603 35.8619 22.2229 40.5 22.2229Z" fill="#1F1F1F"/>
<path d="M40.5 43C46.842 43 52 37.6177 52 31C52 24.3823 46.842 19 40.5 19C34.158 19 29 24.3823 29 31C29 37.6177 34.158 43 40.5 43ZM40.5 22.2229C45.1381 22.2229 48.9114 26.1603 48.9114 31C48.9114 35.8397 45.1381 39.7771 40.5 39.7771C35.8619 39.7771 32.0886 35.8397 32.0886 31C32.0886 26.1603 35.8619 22.2229 40.5 22.2229Z" fill="url(#paint1_linear_68_109)"/>
<path d="M133.397 48.0192C132.239 46.74 130.586 46.0053 128.865 46.0053H124.881C124.202 46.0053 123.596 46.444 123.381 47.0889L121.365 53.1624V47.5858C121.365 46.7083 120.659 46 119.786 46H114.922C114.049 46 113.343 46.7083 113.343 47.5858V53.2787L111.291 47.0889C111.075 46.4387 110.475 46.0053 109.791 46.0053H107.475C104.711 46.0053 102.053 47.1788 100.195 49.2138L82 68.8509L84.158 71.1767L102.517 51.3652C103.79 49.975 105.601 49.1768 107.48 49.1768H108.659L115.843 70.8437C116.059 71.4939 116.659 71.9273 117.343 71.9273C118.028 71.9273 118.628 71.4886 118.844 70.8437L126.028 49.1768H128.876C129.723 49.1768 130.502 49.5257 131.07 50.1547C131.639 50.7837 131.912 51.5978 131.828 52.4435C131.828 52.4699 131.828 52.4911 131.828 52.5175L130.186 86.9762C130.065 88.1286 129.281 89.1117 128.186 89.487L123.991 90.9142C123.37 91.1257 122.938 91.7071 122.917 92.3679L121.654 133.587C121.602 134.84 120.586 135.823 119.338 135.823H111.891C110.643 135.823 109.622 134.84 109.575 133.603L108.306 92.3679C108.306 92.3203 108.301 92.2674 108.296 92.2198L104.875 64.7649C104.801 64.1782 104.406 63.676 103.853 63.4752C103.675 63.4117 103.49 63.38 103.306 63.38C102.917 63.38 102.538 63.5227 102.238 63.7976L88.0108 76.8696C88.4002 78.1382 88.5424 79.465 88.4371 80.7759L102.122 68.206L105.154 92.5476L106.417 133.725C106.538 136.685 108.943 139 111.891 139H119.338C122.286 139 124.691 136.685 124.812 133.709L126.044 93.573L129.202 92.5C131.486 91.723 133.107 89.6615 133.334 87.2564C133.334 87.23 133.334 87.2088 133.339 87.1824L134.976 52.7184C135.128 51.011 134.555 49.3037 133.407 48.0351L133.397 48.0192ZM116.507 62.8091V49.1768H118.212V62.6929L117.338 65.3252L116.507 62.8091Z" fill="#1F1F1F"/>
<path d="M133.397 48.0192C132.239 46.74 130.586 46.0053 128.865 46.0053H124.881C124.202 46.0053 123.596 46.444 123.381 47.0889L121.365 53.1624V47.5858C121.365 46.7083 120.659 46 119.786 46H114.922C114.049 46 113.343 46.7083 113.343 47.5858V53.2787L111.291 47.0889C111.075 46.4387 110.475 46.0053 109.791 46.0053H107.475C104.711 46.0053 102.053 47.1788 100.195 49.2138L82 68.8509L84.158 71.1767L102.517 51.3652C103.79 49.975 105.601 49.1768 107.48 49.1768H108.659L115.843 70.8437C116.059 71.4939 116.659 71.9273 117.343 71.9273C118.028 71.9273 118.628 71.4886 118.844 70.8437L126.028 49.1768H128.876C129.723 49.1768 130.502 49.5257 131.07 50.1547C131.639 50.7837 131.912 51.5978 131.828 52.4435C131.828 52.4699 131.828 52.4911 131.828 52.5175L130.186 86.9762C130.065 88.1286 129.281 89.1117 128.186 89.487L123.991 90.9142C123.37 91.1257 122.938 91.7071 122.917 92.3679L121.654 133.587C121.602 134.84 120.586 135.823 119.338 135.823H111.891C110.643 135.823 109.622 134.84 109.575 133.603L108.306 92.3679C108.306 92.3203 108.301 92.2674 108.296 92.2198L104.875 64.7649C104.801 64.1782 104.406 63.676 103.853 63.4752C103.675 63.4117 103.49 63.38 103.306 63.38C102.917 63.38 102.538 63.5227 102.238 63.7976L88.0108 76.8696C88.4002 78.1382 88.5424 79.465 88.4371 80.7759L102.122 68.206L105.154 92.5476L106.417 133.725C106.538 136.685 108.943 139 111.891 139H119.338C122.286 139 124.691 136.685 124.812 133.709L126.044 93.573L129.202 92.5C131.486 91.723 133.107 89.6615 133.334 87.2564C133.334 87.23 133.334 87.2088 133.339 87.1824L134.976 52.7184C135.128 51.011 134.555 49.3037 133.407 48.0351L133.397 48.0192ZM116.507 62.8091V49.1768H118.212V62.6929L117.338 65.3252L116.507 62.8091Z" fill="url(#paint2_linear_68_109)"/>
<path d="M82.3469 75.6853L57.8159 49.2197C55.9468 47.1737 53.2878 46.0053 50.5235 46.0053H48.2068C47.5276 46.0053 46.9221 46.4441 46.7062 47.0891L44.6527 53.2799V47.586C44.6527 46.7084 43.9472 46 43.0731 46H38.208C37.334 46 36.6284 46.7084 36.6284 47.586V53.1636L34.6118 47.0838C34.3959 46.4335 33.7904 46 33.1112 46H29.1254C27.4036 46 25.7503 46.7349 24.592 48.0143C23.4441 49.2831 22.8755 50.9907 23.0229 52.6984L24.6657 87.1736C24.6657 87.1736 24.6657 87.2211 24.671 87.2476C24.8974 89.6583 26.5191 91.7149 28.8042 92.4921L31.9581 93.5653L33.1902 133.724C33.3113 136.684 35.7175 139 38.6661 139H46.1165C49.065 139 51.4713 136.684 51.5924 133.708L52.856 92.5396L55.8888 68.194L73.5802 84.4456C74.8123 85.6034 76.4129 86.1955 78.0978 86.1162C79.7827 86.0369 81.3202 85.2967 82.4364 84.0279C84.5583 81.6224 84.5162 78.0327 82.3364 75.6801L82.3469 75.6853ZM39.7876 49.1721H41.4935V62.8067L40.6616 65.3232L39.7876 62.6904V49.1721ZM80.0828 81.9291C79.5353 82.5476 78.7823 82.9124 77.9609 82.9494C77.1395 82.9864 76.355 82.6956 75.739 82.1194L55.7783 63.7848C55.3413 63.383 54.7199 63.2614 54.1671 63.4676C53.6142 63.6738 53.2193 64.1707 53.1456 64.7575L49.7232 92.2172C49.7179 92.2647 49.7127 92.3176 49.7127 92.3652L48.449 133.592C48.3963 134.845 47.3801 135.828 46.1323 135.828H38.6819C37.434 135.828 36.4125 134.845 36.3652 133.607L35.0962 92.3652C35.0752 91.7043 34.6487 91.1228 34.0221 90.9113L29.8257 89.4839C28.7305 89.1085 27.946 88.1252 27.8249 86.9727L26.1821 52.5133C26.1821 52.5133 26.1821 52.4657 26.1768 52.4393C26.0978 51.5934 26.3664 50.7793 26.935 50.1501C27.5037 49.521 28.2882 49.1721 29.1307 49.1721H31.9739L39.161 70.8426C39.3769 71.4929 39.9771 71.9264 40.6616 71.9264C41.3461 71.9264 41.9464 71.4876 42.1622 70.8426L49.3494 49.1721H50.5288C52.4085 49.1721 54.2197 49.9704 55.4992 51.3714L80.0355 77.8477C81.1043 79.0002 81.1254 80.7554 80.0828 81.9343V81.9291Z" fill="#1F1F1F"/>
<path d="M82.3469 75.6853L57.8159 49.2197C55.9468 47.1737 53.2878 46.0053 50.5235 46.0053H48.2068C47.5276 46.0053 46.9221 46.4441 46.7062 47.0891L44.6527 53.2799V47.586C44.6527 46.7084 43.9472 46 43.0731 46H38.208C37.334 46 36.6284 46.7084 36.6284 47.586V53.1636L34.6118 47.0838C34.3959 46.4335 33.7904 46 33.1112 46H29.1254C27.4036 46 25.7503 46.7349 24.592 48.0143C23.4441 49.2831 22.8755 50.9907 23.0229 52.6984L24.6657 87.1736C24.6657 87.1736 24.6657 87.2211 24.671 87.2476C24.8974 89.6583 26.5191 91.7149 28.8042 92.4921L31.9581 93.5653L33.1902 133.724C33.3113 136.684 35.7175 139 38.6661 139H46.1165C49.065 139 51.4713 136.684 51.5924 133.708L52.856 92.5396L55.8888 68.194L73.5802 84.4456C74.8123 85.6034 76.4129 86.1955 78.0978 86.1162C79.7827 86.0369 81.3202 85.2967 82.4364 84.0279C84.5583 81.6224 84.5162 78.0327 82.3364 75.6801L82.3469 75.6853ZM39.7876 49.1721H41.4935V62.8067L40.6616 65.3232L39.7876 62.6904V49.1721ZM80.0828 81.9291C79.5353 82.5476 78.7823 82.9124 77.9609 82.9494C77.1395 82.9864 76.355 82.6956 75.739 82.1194L55.7783 63.7848C55.3413 63.383 54.7199 63.2614 54.1671 63.4676C53.6142 63.6738 53.2193 64.1707 53.1456 64.7575L49.7232 92.2172C49.7179 92.2647 49.7127 92.3176 49.7127 92.3652L48.449 133.592C48.3963 134.845 47.3801 135.828 46.1323 135.828H38.6819C37.434 135.828 36.4125 134.845 36.3652 133.607L35.0962 92.3652C35.0752 91.7043 34.6487 91.1228 34.0221 90.9113L29.8257 89.4839C28.7305 89.1085 27.946 88.1252 27.8249 86.9727L26.1821 52.5133C26.1821 52.5133 26.1821 52.4657 26.1768 52.4393C26.0978 51.5934 26.3664 50.7793 26.935 50.1501C27.5037 49.521 28.2882 49.1721 29.1307 49.1721H31.9739L39.161 70.8426C39.3769 71.4929 39.9771 71.9264 40.6616 71.9264C41.3461 71.9264 41.9464 71.4876 42.1622 70.8426L49.3494 49.1721H50.5288C52.4085 49.1721 54.2197 49.9704 55.4992 51.3714L80.0355 77.8477C81.1043 79.0002 81.1254 80.7554 80.0828 81.9343V81.9291Z" fill="url(#paint3_linear_68_109)"/>
<defs>
<linearGradient id="paint0_linear_68_109" x1="106" y1="31" x2="129" y2="31" gradientUnits="userSpaceOnUse">
<stop stop-color="#4889D8"/>
<stop offset="1" stop-color="#63B1C2"/>
</linearGradient>
<linearGradient id="paint1_linear_68_109" x1="29" y1="31" x2="52" y2="31" gradientUnits="userSpaceOnUse">
<stop stop-color="#4889D8"/>
<stop offset="1" stop-color="#63B1C2"/>
</linearGradient>
<linearGradient id="paint2_linear_68_109" x1="82" y1="92.5" x2="135" y2="92.5" gradientUnits="userSpaceOnUse">
<stop stop-color="#4889D8"/>
<stop offset="1" stop-color="#63B1C2"/>
</linearGradient>
<linearGradient id="paint3_linear_68_109" x1="23" y1="92.5" x2="84" y2="92.5" gradientUnits="userSpaceOnUse">
<stop stop-color="#4889D8"/>
<stop offset="1" stop-color="#63B1C2"/>
</linearGradient>
</defs>
</svg>
