<svg width="158" height="158" viewBox="0 0 158 158" fill="none" xmlns="http://www.w3.org/2000/svg">
<path d="M55.3488 60.8968C55.41 61.1877 55.5552 61.4633 55.7768 61.6776C58.2302 64.066 70.7187 76 76.0076 76C81.2965 76 93.3341 66.0333 95.6958 64.0354C95.9557 63.821 96.1315 63.5225 96.2079 63.1857L100.274 44.079C100.274 44.079 100.274 44.056 100.274 44.0484C100.274 44.0484 100.274 44.0177 100.282 44.0101C100.289 43.9718 100.297 43.9412 100.304 43.9029L100.526 42.8618L100.572 42.6399V42.6092C100.855 41.1242 101 39.5855 101 38.0469C101 37.6029 100.985 37.1589 100.962 36.7149C100.939 36.2939 100.908 35.8882 100.862 35.4748C100.236 29.4045 97.4002 23.7399 92.8679 19.5832C92.7915 19.5143 92.7227 19.4378 92.6463 19.3689C91.5992 18.4273 90.4604 17.57 89.2528 16.8122C85.2861 14.3243 80.708 13 76 13C65.7432 13 56.373 19.4301 52.6738 29.0064C52.6662 29.0294 52.6585 29.0447 52.6509 29.0677C51.8637 31.1192 51.3592 33.2549 51.1376 35.4136V35.4289C51.0459 36.2786 51 37.1513 51 38.0469C51 40.6572 51.4051 43.2369 52.1999 45.7018L55.3488 60.9045V60.8968ZM97.9658 38.0392C97.9658 39.2947 97.8588 40.5501 97.6524 41.7442C93.5176 40.0142 90.3916 37.3273 88.9318 34.2194C88.328 32.9258 88.0223 31.5785 88.0223 30.2236C88.0223 27.4908 89.2605 24.8498 91.6145 22.5687C95.6729 26.6793 97.9734 32.2445 97.9734 38.0469L97.9658 38.0392ZM55.517 30.1087C55.517 30.1087 55.5323 30.0705 55.5323 30.0475C58.7958 21.6654 67.0119 16.039 76 16.039C80.0584 16.039 84.0174 17.1566 87.4491 19.2617C87.9612 19.8512 88.4045 20.4635 88.7713 21.0989C86.2797 23.8011 84.9651 26.932 84.9651 30.2159C84.9651 31.6474 85.225 33.0712 85.7294 34.4414C81.8392 37.7024 75.9389 39.6238 69.7022 39.6238C63.4656 39.6238 58.1691 37.9168 54.2559 34.916C54.4852 33.2779 54.9055 31.6627 55.5093 30.1087H55.517ZM58.1079 40.5118C61.6007 41.9126 65.5827 42.6705 69.7099 42.6705C72.8053 42.6705 75.8319 42.2341 78.6368 41.4151C81.8621 40.4812 84.7741 39.0574 87.1357 37.2125C88.2975 38.9961 89.9025 40.6113 91.8591 41.9968C93.38 43.0762 95.115 44.0101 97.018 44.7526L93.3418 62.0221C88.1064 66.3854 79.1183 72.938 76.0076 72.938C73.0804 72.938 63.9777 65.3673 58.2302 59.8022L54.2024 40.3357L54.1412 40.0525C54.0954 39.5166 54.0648 38.9885 54.0572 38.4526C55.3106 39.2411 56.6634 39.9224 58.1079 40.4965V40.5118Z" fill="url(#paint0_linear_68_129)"/>
<path d="M55.3488 60.8968C55.41 61.1877 55.5552 61.4633 55.7768 61.6776C58.2302 64.066 70.7187 76 76.0076 76C81.2965 76 93.3341 66.0333 95.6958 64.0354C95.9557 63.821 96.1315 63.5225 96.2079 63.1857L100.274 44.079C100.274 44.079 100.274 44.056 100.274 44.0484C100.274 44.0484 100.274 44.0177 100.282 44.0101C100.289 43.9718 100.297 43.9412 100.304 43.9029L100.526 42.8618L100.572 42.6399V42.6092C100.855 41.1242 101 39.5855 101 38.0469C101 37.6029 100.985 37.1589 100.962 36.7149C100.939 36.2939 100.908 35.8882 100.862 35.4748C100.236 29.4045 97.4002 23.7399 92.8679 19.5832C92.7915 19.5143 92.7227 19.4378 92.6463 19.3689C91.5992 18.4273 90.4604 17.57 89.2528 16.8122C85.2861 14.3243 80.708 13 76 13C65.7432 13 56.373 19.4301 52.6738 29.0064C52.6662 29.0294 52.6585 29.0447 52.6509 29.0677C51.8637 31.1192 51.3592 33.2549 51.1376 35.4136V35.4289C51.0459 36.2786 51 37.1513 51 38.0469C51 40.6572 51.4051 43.2369 52.1999 45.7018L55.3488 60.9045V60.8968ZM97.9658 38.0392C97.9658 39.2947 97.8588 40.5501 97.6524 41.7442C93.5176 40.0142 90.3916 37.3273 88.9318 34.2194C88.328 32.9258 88.0223 31.5785 88.0223 30.2236C88.0223 27.4908 89.2605 24.8498 91.6145 22.5687C95.6729 26.6793 97.9734 32.2445 97.9734 38.0469L97.9658 38.0392ZM55.517 30.1087C55.517 30.1087 55.5323 30.0705 55.5323 30.0475C58.7958 21.6654 67.0119 16.039 76 16.039C80.0584 16.039 84.0174 17.1566 87.4491 19.2617C87.9612 19.8512 88.4045 20.4635 88.7713 21.0989C86.2797 23.8011 84.9651 26.932 84.9651 30.2159C84.9651 31.6474 85.225 33.0712 85.7294 34.4414C81.8392 37.7024 75.9389 39.6238 69.7022 39.6238C63.4656 39.6238 58.1691 37.9168 54.2559 34.916C54.4852 33.2779 54.9055 31.6627 55.5093 30.1087H55.517ZM58.1079 40.5118C61.6007 41.9126 65.5827 42.6705 69.7099 42.6705C72.8053 42.6705 75.8319 42.2341 78.6368 41.4151C81.8621 40.4812 84.7741 39.0574 87.1357 37.2125C88.2975 38.9961 89.9025 40.6113 91.8591 41.9968C93.38 43.0762 95.115 44.0101 97.018 44.7526L93.3418 62.0221C88.1064 66.3854 79.1183 72.938 76.0076 72.938C73.0804 72.938 63.9777 65.3673 58.2302 59.8022L54.2024 40.3357L54.1412 40.0525C54.0954 39.5166 54.0648 38.9885 54.0572 38.4526C55.3106 39.2411 56.6634 39.9224 58.1079 40.4965V40.5118Z" fill="url(#paint1_linear_68_129)"/>
<path d="M138.1 130.191C139.06 129.328 139.612 128.395 139.781 127.37C140.625 122.114 129.551 98.3763 127.226 93.4823C123.09 82.2301 99.2617 80.7118 97.604 80.6193C97.0362 80.5422 96.5373 80.4035 96.0999 80.1954C95.5244 79.9179 95.0562 79.5249 94.6802 79.0008C93.8054 77.7523 93.5905 75.9334 93.6212 74.392C93.6365 73.3284 93.7747 72.3882 93.8898 71.8718C94.0739 71.0472 93.5598 70.2225 92.7386 70.0375C91.9175 69.8526 91.104 70.3689 90.9122 71.1936C90.8585 71.4171 89.7764 76.3881 91.7257 80.0181C91.3036 80.2725 90.8508 80.5345 90.3904 80.812C86.1235 83.2782 80.3065 86.2146 77.9736 86.2146H77.9659C75.4335 86.2069 69.5014 83.0701 65.9559 81.205C65.7104 81.0817 65.4725 80.9507 65.2422 80.8351C64.7818 80.5962 64.3674 80.3727 63.9913 80.18C66.0634 76.5346 64.9429 71.4325 64.8892 71.2013C64.705 70.3767 63.8839 69.8603 63.0704 70.053C62.2493 70.2302 61.7275 71.0549 61.9117 71.8795C62.0421 72.4498 62.1879 73.5057 62.1879 74.6926C62.1879 76.1646 61.95 77.8371 61.1289 79.0085C60.8603 79.3939 60.538 79.6944 60.162 79.9488C59.6248 80.3033 58.9801 80.5268 58.2051 80.6347C56.5474 80.7272 32.6962 82.2455 28.5752 93.5131C26.4035 98.3763 15.9436 122.214 17.0871 127.455C17.3556 128.649 18.1461 129.721 19.5044 130.692C18.1768 132.75 17.348 134.985 17.1331 137.328C17.0564 138.168 17.6703 138.915 18.5144 138.992C18.5605 139 18.6065 139 18.6526 139C19.4353 139 20.103 138.407 20.1721 137.613C20.1721 137.566 20.1797 137.52 20.1874 137.474C21.1467 128.357 33.5481 121.228 48.528 121.228C62.6484 121.228 74.4896 127.57 76.5923 135.933H22.4743C21.6301 135.933 20.9471 136.619 20.9471 137.466C20.9471 138.314 21.6301 139 22.4743 139H135.292C136.128 139 136.819 138.314 136.819 137.466C136.819 136.619 136.136 135.933 135.292 135.933H80.2221C82.3248 127.563 94.1584 121.228 108.286 121.228C123.474 121.228 136.988 128.657 137.932 137.474C137.932 137.52 137.947 137.566 137.955 137.613C138.024 138.407 138.691 139 139.474 139C139.52 139 139.566 139 139.612 138.992C140.449 138.915 141.07 138.168 140.994 137.328C140.756 134.807 139.743 132.395 138.1 130.191ZM92.8231 108.064C88.3721 111.232 85.2257 114.746 83.0078 117.937C80.9742 120.881 79.5622 123.763 78.5875 126.299C77.9659 123.316 77.4057 119.193 77.6973 114.715C78.3803 103.933 83.4683 96.0256 92.8231 91.201V108.072V108.064ZM118.079 119.131C114.971 118.515 111.678 118.16 108.286 118.16C96.7676 118.16 86.607 122.214 81.1277 128.28C82.0409 125.705 83.4453 122.653 85.6094 119.563C92.8 109.274 104.595 103.216 120.695 101.536V117.49C120.695 117.69 120.742 117.875 120.811 118.045C121.041 118.615 121.586 119.016 122.23 119.016C123.074 119.016 123.757 118.33 123.757 117.482V99.8483C123.757 99.4167 123.581 99.016 123.266 98.7231C122.952 98.4302 122.53 98.2838 122.108 98.3223C115.608 98.8772 110.051 100.095 105.309 101.737C101.725 102.977 98.6017 104.465 95.885 106.083V88.7733C95.885 88.2569 95.6241 87.7791 95.1944 87.494C94.7569 87.2088 94.2197 87.1625 93.7516 87.3706C78.9866 93.8445 75.2186 105.706 74.6661 114.515C74.5203 116.742 74.574 118.869 74.7351 120.827C74.1903 119.879 73.5917 118.915 72.9164 117.937C69.1407 112.488 62.633 106.13 51.6206 102.083C46.6632 100.257 40.7848 98.9158 33.8243 98.3223C33.4023 98.2838 32.9802 98.4302 32.6655 98.7231C32.3509 99.016 32.1744 99.4167 32.1744 99.8483V117.482C32.1744 118.322 32.8574 119.016 33.7015 119.016C34.3462 119.016 34.891 118.615 35.1213 118.052C35.1903 117.867 35.2287 117.682 35.2287 117.49V101.536C51.3367 103.216 63.1395 109.274 70.3225 119.563C72.0876 122.091 73.3461 124.58 74.244 126.807C68.5268 121.574 59.1183 118.168 48.5587 118.168C44.9518 118.168 41.4908 118.569 38.2523 119.301C31.1384 120.904 25.1602 124.125 21.3999 128.287C20.6632 127.802 20.2028 127.301 20.0953 126.807C19.4123 123.678 26.296 106.16 31.407 94.7154C31.43 94.6846 31.4377 94.6461 31.453 94.6075C34.3001 86.6693 51.8969 84.0412 58.443 83.7021C58.4736 83.7021 58.512 83.7021 58.5427 83.6944C58.6118 83.6867 58.6809 83.6713 58.7499 83.6636C59.9241 83.4863 60.9601 83.1087 61.8426 82.5383C62.4795 82.8389 63.5693 83.4092 64.5592 83.9333C69.9004 86.7464 74.9423 89.2897 77.9736 89.2974H77.9966C82.2021 89.2974 91.4878 83.7946 93.79 82.3919C94.7646 83.0932 95.9464 83.5325 97.3201 83.7098C97.3585 83.7098 97.3815 83.7098 97.4199 83.7175C97.4889 83.7175 97.558 83.7175 97.6271 83.7252C104.319 84.1106 121.593 86.7695 124.417 94.623C124.433 94.6692 124.448 94.7154 124.471 94.7617C129.521 105.413 137.341 123.547 136.796 126.908C136.742 127.239 136.512 127.586 136.136 127.925C131.999 123.825 125.576 120.665 118.102 119.154L118.079 119.131Z" fill="url(#paint2_linear_68_129)"/>
<path d="M138.1 130.191C139.06 129.328 139.612 128.395 139.781 127.37C140.625 122.114 129.551 98.3763 127.226 93.4823C123.09 82.2301 99.2617 80.7118 97.604 80.6193C97.0362 80.5422 96.5373 80.4035 96.0999 80.1954C95.5244 79.9179 95.0562 79.5249 94.6802 79.0008C93.8054 77.7523 93.5905 75.9334 93.6212 74.392C93.6365 73.3284 93.7747 72.3882 93.8898 71.8718C94.0739 71.0472 93.5598 70.2225 92.7386 70.0375C91.9175 69.8526 91.104 70.3689 90.9122 71.1936C90.8585 71.4171 89.7764 76.3881 91.7257 80.0181C91.3036 80.2725 90.8508 80.5345 90.3904 80.812C86.1235 83.2782 80.3065 86.2146 77.9736 86.2146H77.9659C75.4335 86.2069 69.5014 83.0701 65.9559 81.205C65.7104 81.0817 65.4725 80.9507 65.2422 80.8351C64.7818 80.5962 64.3674 80.3727 63.9913 80.18C66.0634 76.5346 64.9429 71.4325 64.8892 71.2013C64.705 70.3767 63.8839 69.8603 63.0704 70.053C62.2493 70.2302 61.7275 71.0549 61.9117 71.8795C62.0421 72.4498 62.1879 73.5057 62.1879 74.6926C62.1879 76.1646 61.95 77.8371 61.1289 79.0085C60.8603 79.3939 60.538 79.6944 60.162 79.9488C59.6248 80.3033 58.9801 80.5268 58.2051 80.6347C56.5474 80.7272 32.6962 82.2455 28.5752 93.5131C26.4035 98.3763 15.9436 122.214 17.0871 127.455C17.3556 128.649 18.1461 129.721 19.5044 130.692C18.1768 132.75 17.348 134.985 17.1331 137.328C17.0564 138.168 17.6703 138.915 18.5144 138.992C18.5605 139 18.6065 139 18.6526 139C19.4353 139 20.103 138.407 20.1721 137.613C20.1721 137.566 20.1797 137.52 20.1874 137.474C21.1467 128.357 33.5481 121.228 48.528 121.228C62.6484 121.228 74.4896 127.57 76.5923 135.933H22.4743C21.6301 135.933 20.9471 136.619 20.9471 137.466C20.9471 138.314 21.6301 139 22.4743 139H135.292C136.128 139 136.819 138.314 136.819 137.466C136.819 136.619 136.136 135.933 135.292 135.933H80.2221C82.3248 127.563 94.1584 121.228 108.286 121.228C123.474 121.228 136.988 128.657 137.932 137.474C137.932 137.52 137.947 137.566 137.955 137.613C138.024 138.407 138.691 139 139.474 139C139.52 139 139.566 139 139.612 138.992C140.449 138.915 141.07 138.168 140.994 137.328C140.756 134.807 139.743 132.395 138.1 130.191ZM92.8231 108.064C88.3721 111.232 85.2257 114.746 83.0078 117.937C80.9742 120.881 79.5622 123.763 78.5875 126.299C77.9659 123.316 77.4057 119.193 77.6973 114.715C78.3803 103.933 83.4683 96.0256 92.8231 91.201V108.072V108.064ZM118.079 119.131C114.971 118.515 111.678 118.16 108.286 118.16C96.7676 118.16 86.607 122.214 81.1277 128.28C82.0409 125.705 83.4453 122.653 85.6094 119.563C92.8 109.274 104.595 103.216 120.695 101.536V117.49C120.695 117.69 120.742 117.875 120.811 118.045C121.041 118.615 121.586 119.016 122.23 119.016C123.074 119.016 123.757 118.33 123.757 117.482V99.8483C123.757 99.4167 123.581 99.016 123.266 98.7231C122.952 98.4302 122.53 98.2838 122.108 98.3223C115.608 98.8772 110.051 100.095 105.309 101.737C101.725 102.977 98.6017 104.465 95.885 106.083V88.7733C95.885 88.2569 95.6241 87.7791 95.1944 87.494C94.7569 87.2088 94.2197 87.1625 93.7516 87.3706C78.9866 93.8445 75.2186 105.706 74.6661 114.515C74.5203 116.742 74.574 118.869 74.7351 120.827C74.1903 119.879 73.5917 118.915 72.9164 117.937C69.1407 112.488 62.633 106.13 51.6206 102.083C46.6632 100.257 40.7848 98.9158 33.8243 98.3223C33.4023 98.2838 32.9802 98.4302 32.6655 98.7231C32.3509 99.016 32.1744 99.4167 32.1744 99.8483V117.482C32.1744 118.322 32.8574 119.016 33.7015 119.016C34.3462 119.016 34.891 118.615 35.1213 118.052C35.1903 117.867 35.2287 117.682 35.2287 117.49V101.536C51.3367 103.216 63.1395 109.274 70.3225 119.563C72.0876 122.091 73.3461 124.58 74.244 126.807C68.5268 121.574 59.1183 118.168 48.5587 118.168C44.9518 118.168 41.4908 118.569 38.2523 119.301C31.1384 120.904 25.1602 124.125 21.3999 128.287C20.6632 127.802 20.2028 127.301 20.0953 126.807C19.4123 123.678 26.296 106.16 31.407 94.7154C31.43 94.6846 31.4377 94.6461 31.453 94.6075C34.3001 86.6693 51.8969 84.0412 58.443 83.7021C58.4736 83.7021 58.512 83.7021 58.5427 83.6944C58.6118 83.6867 58.6809 83.6713 58.7499 83.6636C59.9241 83.4863 60.9601 83.1087 61.8426 82.5383C62.4795 82.8389 63.5693 83.4092 64.5592 83.9333C69.9004 86.7464 74.9423 89.2897 77.9736 89.2974H77.9966C82.2021 89.2974 91.4878 83.7946 93.79 82.3919C94.7646 83.0932 95.9464 83.5325 97.3201 83.7098C97.3585 83.7098 97.3815 83.7098 97.4199 83.7175C97.4889 83.7175 97.558 83.7175 97.6271 83.7252C104.319 84.1106 121.593 86.7695 124.417 94.623C124.433 94.6692 124.448 94.7154 124.471 94.7617C129.521 105.413 137.341 123.547 136.796 126.908C136.742 127.239 136.512 127.586 136.136 127.925C131.999 123.825 125.576 120.665 118.102 119.154L118.079 119.131Z" fill="url(#paint3_linear_68_129)"/>
<path d="M138.467 142H18.5327C17.6855 142 17 142.671 17 143.5C17 144.329 17.6855 145 18.5327 145H138.467C139.315 145 140 144.322 140 143.5C140 142.678 139.315 142 138.467 142Z" fill="url(#paint4_linear_68_129)"/>
<path d="M138.467 142H18.5327C17.6855 142 17 142.671 17 143.5C17 144.329 17.6855 145 18.5327 145H138.467C139.315 145 140 144.322 140 143.5C140 142.678 139.315 142 138.467 142Z" fill="url(#paint5_linear_68_129)"/>
<path fill-rule="evenodd" clip-rule="evenodd" d="M134 48C147.255 48 158 37.2548 158 24C158 10.7452 147.255 0 134 0C120.745 0 110 10.7452 110 24C110 31.4634 113.407 38.1311 118.75 42.5329L118.75 50.6601L125.829 46.5731C128.379 47.4965 131.131 48 134 48Z" fill="#D9D9D9"/>
<path fill-rule="evenodd" clip-rule="evenodd" d="M134 48C147.255 48 158 37.2548 158 24C158 10.7452 147.255 0 134 0C120.745 0 110 10.7452 110 24C110 31.4634 113.407 38.1311 118.75 42.5329L118.75 50.6601L125.829 46.5731C128.379 47.4965 131.131 48 134 48Z" fill="url(#paint6_linear_68_129)"/>
<path d="M128.518 35.448C123.686 35.448 120.486 31.224 120.486 23.064C120.486 14.872 123.686 10.872 128.518 10.872C133.35 10.872 136.518 14.904 136.518 23.064C136.518 31.224 133.35 35.448 128.518 35.448ZM128.518 31.768C130.566 31.768 132.07 29.72 132.07 23.064C132.07 16.44 130.566 14.52 128.518 14.52C126.47 14.52 124.934 16.44 124.934 23.064C124.934 29.72 126.47 31.768 128.518 31.768Z" fill="white"/>
<path d="M145.672 27.032H148.672V24.008H145.672V27.032ZM141.424 24.008V27.032H144.256V24.008H141.424ZM150.112 22.592V31.364C150.112 32.144 149.944 32.54 149.44 32.768C148.96 33.008 148.24 33.032 147.172 33.032C147.1 32.636 146.86 31.976 146.656 31.604C147.34 31.652 148.12 31.64 148.36 31.64C148.588 31.628 148.672 31.556 148.672 31.352V28.448H141.424V33.032H139.984V22.592H150.112Z" fill="white"/>
<defs>
<linearGradient id="paint0_linear_68_129" x1="101" y1="44.5" x2="51" y2="44.5" gradientUnits="userSpaceOnUse">
<stop stop-color="#0072BE"/>
<stop offset="1" stop-color="#00A0E6"/>
</linearGradient>
<linearGradient id="paint1_linear_68_129" x1="51" y1="44.5" x2="101" y2="44.5" gradientUnits="userSpaceOnUse">
<stop stop-color="#4889D8"/>
<stop offset="1" stop-color="#63B1C2"/>
</linearGradient>
<linearGradient id="paint2_linear_68_129" x1="141" y1="104.5" x2="17" y2="104.5" gradientUnits="userSpaceOnUse">
<stop stop-color="#0072BE"/>
<stop offset="1" stop-color="#00A0E6"/>
</linearGradient>
<linearGradient id="paint3_linear_68_129" x1="17" y1="104.5" x2="141" y2="104.5" gradientUnits="userSpaceOnUse">
<stop stop-color="#4889D8"/>
<stop offset="1" stop-color="#63B1C2"/>
</linearGradient>
<linearGradient id="paint4_linear_68_129" x1="78.5" y1="144.375" x2="78.5" y2="142.396" gradientUnits="userSpaceOnUse">
<stop stop-color="#0072BE"/>
<stop offset="1" stop-color="#36A4ED"/>
</linearGradient>
<linearGradient id="paint5_linear_68_129" x1="17" y1="143.5" x2="140" y2="143.5" gradientUnits="userSpaceOnUse">
<stop stop-color="#4889D8"/>
<stop offset="1" stop-color="#63B1C2"/>
</linearGradient>
<linearGradient id="paint6_linear_68_129" x1="110" y1="25.3301" x2="158" y2="25.3301" gradientUnits="userSpaceOnUse">
<stop stop-color="#4889D8"/>
<stop offset="1" stop-color="#63B1C2"/>
</linearGradient>
</defs>
</svg>
