<svg width="158" height="158" viewBox="0 0 158 158" fill="none" xmlns="http://www.w3.org/2000/svg">
<g filter="url(#filter0_i_68_142)">
<circle cx="79" cy="79" r="79" fill="white"/>
</g>
<g filter="url(#filter1_i_68_142)">
<circle cx="79" cy="79" r="79" fill="white"/>
<circle cx="79" cy="79" r="79" fill="url(#paint0_linear_68_142)" fill-opacity="0.1"/>
</g>
<path d="M79 6.00023C88.3478 6.00023 97.2852 7.75723 105.5 10.959" stroke="url(#paint1_linear_68_142)" stroke-width="12"/>
<path d="M79 6.00023C88.3478 6.00023 97.2852 7.75723 105.5 10.959" stroke="url(#paint2_linear_68_142)" stroke-width="12"/>
<circle cx="79" cy="79" r="67" fill="white"/>
<path d="M36.5752 99.2236L44.8096 98.2246C45.0719 100.324 45.7783 101.928 46.9287 103.038C48.0791 104.148 49.4717 104.703 51.1064 104.703C52.8623 104.703 54.3356 104.037 55.5264 102.705C56.7373 101.373 57.3428 99.5768 57.3428 97.3164C57.3428 95.1771 56.7676 93.4818 55.6172 92.2305C54.4668 90.9792 53.0641 90.3535 51.4092 90.3535C50.3193 90.3535 49.0176 90.5654 47.5039 90.9893L48.4424 84.0566C50.7432 84.1172 52.499 83.6227 53.71 82.5732C54.9209 81.5036 55.5264 80.0908 55.5264 78.335C55.5264 76.8415 55.0824 75.6507 54.1943 74.7627C53.3063 73.8747 52.1257 73.4307 50.6523 73.4307C49.1992 73.4307 47.958 73.9352 46.9287 74.9443C45.8994 75.9535 45.2738 77.4268 45.0518 79.3643L37.2109 78.0322C37.7559 75.348 38.5732 73.2087 39.6631 71.6143C40.7731 69.9997 42.307 68.7383 44.2646 67.8301C46.2425 66.9017 48.4525 66.4375 50.8945 66.4375C55.0723 66.4375 58.4225 67.7695 60.9453 70.4336C63.0241 72.6133 64.0635 75.0755 64.0635 77.8203C64.0635 81.7155 61.9342 84.8236 57.6758 87.1445C60.2188 87.6895 62.2471 88.9105 63.7607 90.8076C65.2946 92.7048 66.0615 94.9954 66.0615 97.6797C66.0615 101.575 64.6387 104.895 61.793 107.64C58.9473 110.384 55.4053 111.757 51.167 111.757C47.1507 111.757 43.8206 110.606 41.1768 108.306C38.5329 105.985 36.999 102.957 36.5752 99.2236Z" fill="url(#paint3_linear_68_142)"/>
<path d="M36.5752 99.2236L44.8096 98.2246C45.0719 100.324 45.7783 101.928 46.9287 103.038C48.0791 104.148 49.4717 104.703 51.1064 104.703C52.8623 104.703 54.3356 104.037 55.5264 102.705C56.7373 101.373 57.3428 99.5768 57.3428 97.3164C57.3428 95.1771 56.7676 93.4818 55.6172 92.2305C54.4668 90.9792 53.0641 90.3535 51.4092 90.3535C50.3193 90.3535 49.0176 90.5654 47.5039 90.9893L48.4424 84.0566C50.7432 84.1172 52.499 83.6227 53.71 82.5732C54.9209 81.5036 55.5264 80.0908 55.5264 78.335C55.5264 76.8415 55.0824 75.6507 54.1943 74.7627C53.3063 73.8747 52.1257 73.4307 50.6523 73.4307C49.1992 73.4307 47.958 73.9352 46.9287 74.9443C45.8994 75.9535 45.2738 77.4268 45.0518 79.3643L37.2109 78.0322C37.7559 75.348 38.5732 73.2087 39.6631 71.6143C40.7731 69.9997 42.307 68.7383 44.2646 67.8301C46.2425 66.9017 48.4525 66.4375 50.8945 66.4375C55.0723 66.4375 58.4225 67.7695 60.9453 70.4336C63.0241 72.6133 64.0635 75.0755 64.0635 77.8203C64.0635 81.7155 61.9342 84.8236 57.6758 87.1445C60.2188 87.6895 62.2471 88.9105 63.7607 90.8076C65.2946 92.7048 66.0615 94.9954 66.0615 97.6797C66.0615 101.575 64.6387 104.895 61.793 107.64C58.9473 110.384 55.4053 111.757 51.167 111.757C47.1507 111.757 43.8206 110.606 41.1768 108.306C38.5329 105.985 36.999 102.957 36.5752 99.2236Z" fill="url(#paint4_linear_68_142)"/>
<path d="M70.2617 95.9062C70.2617 94.1107 70.6536 92.7799 71.4375 91.9141C72.2305 91.0482 73.3014 90.6152 74.6504 90.6152C76.0449 90.6152 77.1341 91.0482 77.918 91.9141C78.7109 92.7708 79.1074 94.1016 79.1074 95.9062C79.1074 97.7018 78.7109 99.0326 77.918 99.8984C77.1341 100.764 76.0677 101.197 74.7188 101.197C73.3242 101.197 72.2305 100.769 71.4375 99.9121C70.6536 99.0462 70.2617 97.7109 70.2617 95.9062ZM73.2559 95.8789C73.2559 97.1823 73.4062 98.0573 73.707 98.5039C73.9349 98.832 74.2493 98.9961 74.6504 98.9961C75.0605 98.9961 75.3796 98.832 75.6074 98.5039C75.8991 98.0573 76.0449 97.1823 76.0449 95.8789C76.0449 94.5755 75.8991 93.7051 75.6074 93.2676C75.3796 92.9303 75.0605 92.7617 74.6504 92.7617C74.2493 92.7617 73.9349 92.9258 73.707 93.2539C73.4062 93.7005 73.2559 94.5755 73.2559 95.8789ZM77.5762 111.766H74.7324L85.4102 90.6152H88.1719L77.5762 111.766ZM83.7832 106.502C83.7832 104.706 84.1751 103.376 84.959 102.51C85.752 101.644 86.832 101.211 88.1992 101.211C89.5755 101.211 90.6556 101.644 91.4395 102.51C92.2324 103.376 92.6289 104.706 92.6289 106.502C92.6289 108.307 92.2324 109.642 91.4395 110.508C90.6556 111.374 89.5892 111.807 88.2402 111.807C86.8457 111.807 85.752 111.374 84.959 110.508C84.1751 109.642 83.7832 108.307 83.7832 106.502ZM86.7773 106.488C86.7773 107.792 86.9277 108.662 87.2285 109.1C87.4564 109.437 87.7708 109.605 88.1719 109.605C88.582 109.605 88.8965 109.441 89.1152 109.113C89.416 108.667 89.5664 107.792 89.5664 106.488C89.5664 105.185 89.4206 104.31 89.1289 103.863C88.901 103.535 88.582 103.371 88.1719 103.371C87.7617 103.371 87.4473 103.535 87.2285 103.863C86.9277 104.31 86.7773 105.185 86.7773 106.488Z" fill="url(#paint5_linear_68_142)"/>
<path d="M70.2617 95.9062C70.2617 94.1107 70.6536 92.7799 71.4375 91.9141C72.2305 91.0482 73.3014 90.6152 74.6504 90.6152C76.0449 90.6152 77.1341 91.0482 77.918 91.9141C78.7109 92.7708 79.1074 94.1016 79.1074 95.9062C79.1074 97.7018 78.7109 99.0326 77.918 99.8984C77.1341 100.764 76.0677 101.197 74.7188 101.197C73.3242 101.197 72.2305 100.769 71.4375 99.9121C70.6536 99.0462 70.2617 97.7109 70.2617 95.9062ZM73.2559 95.8789C73.2559 97.1823 73.4062 98.0573 73.707 98.5039C73.9349 98.832 74.2493 98.9961 74.6504 98.9961C75.0605 98.9961 75.3796 98.832 75.6074 98.5039C75.8991 98.0573 76.0449 97.1823 76.0449 95.8789C76.0449 94.5755 75.8991 93.7051 75.6074 93.2676C75.3796 92.9303 75.0605 92.7617 74.6504 92.7617C74.2493 92.7617 73.9349 92.9258 73.707 93.2539C73.4062 93.7005 73.2559 94.5755 73.2559 95.8789ZM77.5762 111.766H74.7324L85.4102 90.6152H88.1719L77.5762 111.766ZM83.7832 106.502C83.7832 104.706 84.1751 103.376 84.959 102.51C85.752 101.644 86.832 101.211 88.1992 101.211C89.5755 101.211 90.6556 101.644 91.4395 102.51C92.2324 103.376 92.6289 104.706 92.6289 106.502C92.6289 108.307 92.2324 109.642 91.4395 110.508C90.6556 111.374 89.5892 111.807 88.2402 111.807C86.8457 111.807 85.752 111.374 84.959 110.508C84.1751 109.642 83.7832 108.307 83.7832 106.502ZM86.7773 106.488C86.7773 107.792 86.9277 108.662 87.2285 109.1C87.4564 109.437 87.7708 109.605 88.1719 109.605C88.582 109.605 88.8965 109.441 89.1152 109.113C89.416 108.667 89.5664 107.792 89.5664 106.488C89.5664 105.185 89.4206 104.31 89.1289 103.863C88.901 103.535 88.582 103.371 88.1719 103.371C87.7617 103.371 87.4473 103.535 87.2285 103.863C86.9277 104.31 86.7773 105.185 86.7773 106.488Z" fill="url(#paint6_linear_68_142)"/>
<path d="M63.512 45.744V47.248H55.544V45.744H58.584V44.448H60.424V45.744H63.512ZM65.768 55.344V56.928H67.08V55.344H65.768ZM67.08 50.608V49.12H65.768V50.608H67.08ZM67.08 53.744V52.208H65.768V53.744H67.08ZM61.592 54.32H59.832C59.736 54.848 59.624 55.36 59.512 55.808L60.2 55.776C60.12 55.504 60.024 55.248 59.928 55.008L60.92 54.752C61.192 55.392 61.464 56.192 61.592 56.8V54.32ZM70.472 56.928V58.656H65.768V59.408H64.056V51.136C63.96 51.296 63.848 51.44 63.752 51.584C63.544 51.376 63.176 51.04 62.824 50.752V52.176H60.248L60.104 52.96H63.192V57.792C63.192 58.512 63.064 58.896 62.552 59.152C62.088 59.376 61.416 59.392 60.488 59.392C60.424 58.96 60.2 58.368 60.008 57.968C60.568 58 61.176 57.984 61.352 57.984C61.544 57.984 61.592 57.936 61.592 57.776V57.184L60.6 57.488C60.584 57.328 60.552 57.136 60.504 56.928C59.512 57.008 58.568 57.088 57.704 57.136L57.576 55.904L58.168 55.872C58.28 55.408 58.36 54.864 58.456 54.32H57.416V59.408H55.88V52.96H58.632C58.664 52.688 58.696 52.432 58.728 52.176H56.248V47.648H57.56V50.88H58.552C58.296 50.672 57.896 50.368 57.64 50.192C58.024 49.92 58.392 49.6 58.712 49.248C58.392 49.04 58.056 48.848 57.752 48.672L58.488 47.84C58.776 48 59.096 48.176 59.416 48.368C59.608 48.064 59.784 47.76 59.928 47.44L61.144 47.728C60.952 48.176 60.712 48.608 60.44 49.008C60.792 49.248 61.112 49.488 61.336 49.696L60.568 50.64C60.36 50.432 60.056 50.176 59.72 49.936C59.416 50.288 59.08 50.608 58.744 50.88H61.464V47.648H62.824V49.776C63.784 48.352 64.568 46.384 65.064 44.464L66.76 44.848C66.52 45.712 66.232 46.592 65.896 47.424H67.048C67.368 46.56 67.688 45.456 67.864 44.608L69.656 45.008C69.352 45.824 69.032 46.688 68.728 47.424H70.312V49.12H68.68V50.608H70.136V52.208H68.68V53.744H70.136V55.344H68.68V56.928H70.472ZM78.904 56.08H80.376V55.12H78.904V56.08ZM80.376 52.928H78.904V53.888H80.376V52.928ZM80.328 47.312H78.744C78.984 47.92 79.128 48.736 79.16 49.264L78.44 49.44H80.728L79.912 49.264C80.072 48.704 80.248 47.888 80.328 47.312ZM74.984 48.448V46.72H73.928V48.448H74.984ZM73.928 55.184L74.984 54.992V53.248H73.928V55.184ZM74.984 51.712V49.984H73.928V51.712H74.984ZM84.808 51.504L86.328 51.84C85.896 53.376 85.304 54.752 84.552 55.952C84.696 56.72 84.872 57.152 85.064 57.168C85.256 57.168 85.384 56.432 85.448 55.168C85.72 55.552 86.408 56.048 86.68 56.224C86.28 58.816 85.528 59.376 84.984 59.376C84.264 59.36 83.736 58.72 83.352 57.552C82.728 58.272 82.024 58.896 81.256 59.424C81.048 59.104 80.504 58.48 80.168 58.176C80.568 57.936 80.952 57.664 81.304 57.376H78.904V58.304H77.448V51.616H81.848V56.88C82.232 56.512 82.584 56.096 82.904 55.648C82.696 54.352 82.552 52.752 82.472 50.912H76.856V49.44H77.864C77.832 48.912 77.704 48.128 77.512 47.536L78.44 47.312H77.176V46.72H76.568V59.392H74.984V56.656C73.848 56.896 72.712 57.136 71.752 57.328L71.432 55.584C71.72 55.552 72.04 55.504 72.376 55.44V46.72H71.752V45.056H77.24V45.92H78.808V44.48H80.424V45.92H82.056V47.312H80.68L81.768 47.52C81.528 48.208 81.304 48.928 81.128 49.44H82.408C82.36 47.92 82.328 46.24 82.312 44.464H83.976V45.664L85 45.12C85.656 45.904 86.28 46.944 86.552 47.664L85.24 48.4C85.016 47.76 84.504 46.816 83.976 46.064C83.976 47.248 83.992 48.368 84.024 49.44H86.488V50.912H84.088C84.12 51.76 84.168 52.544 84.232 53.264C84.456 52.704 84.648 52.112 84.808 51.504ZM91.96 52.32L92.808 52.288C93.112 52 93.416 51.696 93.72 51.392C93.144 50.896 92.376 50.336 91.704 49.888L90.536 50.88C90.04 50.368 88.984 49.6 88.136 49.12L89.4 48.08C90.136 48.48 91.112 49.104 91.704 49.6L92.44 48.72L92.824 48.944C93.08 48.56 93.352 48.112 93.576 47.712H88.344V46.016H93.976V44.464H95.928V46.016H101.704V47.712H95.08L95.432 47.84C94.936 48.48 94.408 49.136 93.944 49.68C94.232 49.888 94.504 50.08 94.744 50.272C95.288 49.616 95.8 48.976 96.2 48.4L97.688 49.088C96.808 50.128 95.736 51.248 94.712 52.208L96.36 52.128C96.184 51.824 95.976 51.536 95.784 51.264L97.128 50.704C97.384 51.04 97.672 51.424 97.928 51.808L98.904 51.024C100.008 51.568 101.496 52.448 102.248 53.072L100.872 54.208C100.328 53.728 99.304 53.024 98.328 52.464C98.568 52.88 98.76 53.28 98.872 53.616L97.432 54.256C97.352 54.016 97.24 53.744 97.096 53.456C95.16 53.632 93.208 53.776 91.672 53.888L91.48 52.784C90.472 53.28 89.416 53.776 88.552 54.16L87.656 52.624C88.664 52.304 90.2 51.712 91.672 51.136L91.96 52.32ZM99.352 50.704L97.96 49.952C98.68 49.408 99.576 48.576 100.12 47.92L101.816 48.736C101 49.488 100.072 50.208 99.352 50.704ZM95.928 53.76V54.784H102.2V56.544H95.928V59.392H93.976V56.544H87.832V54.784H93.976V53.76H95.928Z" fill="#222222"/>
<path d="M109.272 104.338H104.652C105.87 105.892 107.774 107.376 109.636 108.188C109.244 108.524 108.712 109.196 108.432 109.63C106.78 108.776 105.156 107.376 103.882 105.78V110.232H102.104V105.864C100.83 107.404 99.192 108.762 97.554 109.616C97.274 109.196 96.728 108.524 96.336 108.174C98.198 107.376 100.102 105.892 101.334 104.338H96.798V102.686H102.104V100.894H97.848V99.242H102.104V97.156H103.882V99.242H108.264V100.894H103.882V102.686H109.272V104.338ZM112.226 110.05L110.742 109.07C111.386 107.992 112.282 106.228 112.996 104.59L114.312 105.584C113.682 107.082 112.954 108.692 112.226 110.05ZM113.808 102.28L112.884 103.68C112.366 103.232 111.26 102.658 110.392 102.308L111.274 101.048C112.128 101.314 113.248 101.832 113.808 102.28ZM111.064 98.458L112.044 97.254C112.87 97.632 113.92 98.262 114.452 98.738L113.416 100.054C112.94 99.564 111.904 98.864 111.064 98.458ZM117.798 99.732V100.768H119.674V99.732H117.798ZM123.496 102.224H119.506V103.064H123.188V108.622C123.188 109.35 123.048 109.728 122.572 109.952C122.096 110.176 121.424 110.19 120.472 110.19C120.444 109.784 120.276 109.196 120.094 108.804C120.612 108.832 121.214 108.832 121.396 108.832C121.578 108.818 121.634 108.762 121.634 108.608V104.506H119.324V106.732H120.01V105.08H120.976V108.398H120.01V107.936H117.476V108.748H116.482V105.08H117.476V106.732H118.106V104.506H115.908V110.204H114.438V103.064H117.91V102.224H114.018V100.768H116.244V99.732H114.452V98.29H116.244V97.156H117.798V98.29H119.674V97.156H121.284V98.29H123.104V99.732H121.284V100.768H123.496V102.224Z" fill="#222222"/>
<defs>
<filter id="filter0_i_68_142" x="0" y="0" width="158" height="162" filterUnits="userSpaceOnUse" color-interpolation-filters="sRGB">
<feFlood flood-opacity="0" result="BackgroundImageFix"/>
<feBlend mode="normal" in="SourceGraphic" in2="BackgroundImageFix" result="shape"/>
<feColorMatrix in="SourceAlpha" type="matrix" values="0 0 0 0 0 0 0 0 0 0 0 0 0 0 0 0 0 0 127 0" result="hardAlpha"/>
<feOffset dy="4"/>
<feGaussianBlur stdDeviation="2"/>
<feComposite in2="hardAlpha" operator="arithmetic" k2="-1" k3="1"/>
<feColorMatrix type="matrix" values="0 0 0 0 0 0 0 0 0 0 0 0 0 0 0 0 0 0 0.2 0"/>
<feBlend mode="normal" in2="shape" result="effect1_innerShadow_68_142"/>
</filter>
<filter id="filter1_i_68_142" x="0" y="0" width="158" height="158" filterUnits="userSpaceOnUse" color-interpolation-filters="sRGB">
<feFlood flood-opacity="0" result="BackgroundImageFix"/>
<feBlend mode="normal" in="SourceGraphic" in2="BackgroundImageFix" result="shape"/>
<feColorMatrix in="SourceAlpha" type="matrix" values="0 0 0 0 0 0 0 0 0 0 0 0 0 0 0 0 0 0 127 0" result="hardAlpha"/>
<feOffset/>
<feGaussianBlur stdDeviation="2"/>
<feComposite in2="hardAlpha" operator="arithmetic" k2="-1" k3="1"/>
<feColorMatrix type="matrix" values="0 0 0 0 0 0 0 0 0 0 0 0 0 0 0 0 0 0 0.2 0"/>
<feBlend mode="normal" in2="shape" result="effect1_innerShadow_68_142"/>
</filter>
<linearGradient id="paint0_linear_68_142" x1="-2167.98" y1="-468.038" x2="-2167.98" y2="468.038" gradientUnits="userSpaceOnUse">
<stop stop-color="#0072BE"/>
<stop offset="1" stop-color="#00A0E6"/>
</linearGradient>
<linearGradient id="paint1_linear_68_142" x1="67" y1="31" x2="106" y2="7.99994" gradientUnits="userSpaceOnUse">
<stop stop-color="#0072BE"/>
<stop offset="1" stop-color="#00A0E6"/>
</linearGradient>
<linearGradient id="paint2_linear_68_142" x1="92.25" y1="10.959" x2="92.25" y2="6.00023" gradientUnits="userSpaceOnUse">
<stop stop-color="#4889D8"/>
<stop offset="1" stop-color="#63B1C2"/>
</linearGradient>
<linearGradient id="paint3_linear_68_142" x1="60" y1="111" x2="41.4999" y2="75.0001" gradientUnits="userSpaceOnUse">
<stop stop-color="#0072BE"/>
<stop offset="1" stop-color="#00A0E6"/>
</linearGradient>
<linearGradient id="paint4_linear_68_142" x1="34" y1="90" x2="69" y2="90" gradientUnits="userSpaceOnUse">
<stop stop-color="#4889D8"/>
<stop offset="1" stop-color="#63B1C2"/>
</linearGradient>
<linearGradient id="paint5_linear_68_142" x1="89.5" y1="111" x2="74.5" y2="92" gradientUnits="userSpaceOnUse">
<stop stop-color="#0072BE"/>
<stop offset="1" stop-color="#00A0E6"/>
</linearGradient>
<linearGradient id="paint6_linear_68_142" x1="69" y1="101" x2="94" y2="101" gradientUnits="userSpaceOnUse">
<stop stop-color="#4889D8"/>
<stop offset="1" stop-color="#63B1C2"/>
</linearGradient>
</defs>
</svg>
