<svg width="158" height="158" viewBox="0 0 158 158" fill="none" xmlns="http://www.w3.org/2000/svg">
<path d="M61.9489 85.148C67.0055 87.3219 71.3768 89.1958 73.1227 93.1044C73.1313 93.1174 73.1399 93.1261 73.1485 93.1391C73.2994 93.4478 73.5451 93.713 73.8814 93.8652C74.084 93.9565 74.2952 94 74.5022 94C75.0755 94 75.6273 93.6652 75.8773 93.1044C77.6275 89.1958 81.9945 87.3175 87.0511 85.148C92.2069 82.935 98.0568 80.4221 102.626 75.1352C108.851 67.9354 110.649 59.0791 107.433 51.4401C104.864 45.3403 99.3759 41.3491 93.1079 41.0273C82.9644 40.5056 76.9938 47.5794 74.5022 51.4575C72.0062 47.5794 66.0356 40.5143 55.8921 41.0273C49.6241 41.3491 44.1363 45.3403 41.567 51.4401C38.3511 59.0747 40.1488 67.9354 46.3737 75.1352C50.9475 80.4264 56.7931 82.935 61.9489 85.148ZM44.3432 52.6314C46.4901 47.5359 50.8656 44.3316 56.0473 44.0664C67.803 43.4664 72.9028 54.6444 73.1227 55.1357C73.1485 55.1922 73.1744 55.2444 73.2046 55.2879C73.3598 55.5531 73.5926 55.7792 73.8943 55.9096C74.6573 56.2487 75.5454 55.9009 75.886 55.1357C75.9377 55.0183 81.1625 43.4621 92.9613 44.0664C98.143 44.3316 102.519 47.5315 104.665 52.6314C107.42 59.1704 105.808 66.8354 100.363 73.1353C96.2462 77.9004 90.974 80.1612 85.8786 82.3481C81.3866 84.2741 77.1102 86.1219 74.5108 89.5523C71.907 86.1219 67.6306 84.2785 63.143 82.3481C58.0475 80.1612 52.7753 77.896 48.6584 73.1353C43.2095 66.8354 41.6015 59.1704 44.3562 52.6314H44.3432Z" fill="url(#paint0_linear_68_117)"/>
<path d="M118.694 109.582C118.28 107.986 117.201 106.636 115.651 105.784C113.62 104.669 110.995 104.464 108.449 105.222L79.6342 113.64C78.9735 111.26 76.7888 109.178 73.3135 107.752L45.027 97H23.0346C20.8103 97 19 98.7501 19 100.9V121.514C19 123.664 20.8103 125.414 23.0346 125.414H34.7289L67.9795 136.544L68.1293 136.587C69.3274 136.864 70.5562 137 71.7807 137C74.0007 137 76.2162 136.553 78.2511 135.676L113.695 119.167C117.686 117.434 119.831 113.321 118.699 109.578L118.694 109.582ZM112.413 116.459L76.9694 132.968C74.4499 134.049 71.5913 134.313 68.9089 133.709L35.4909 122.518L35.2443 122.438H23.0346C22.5105 122.438 22.0832 122.024 22.0832 121.518V100.905C22.0832 100.398 22.5105 99.9849 23.0346 99.9849H44.4456L72.1507 110.515C73.7892 111.188 77.4935 113.074 76.6302 116.127C75.626 119.159 71.8292 119.708 69.966 119.329L49.9426 113.713L49.0837 116.574L69.16 122.203L69.2569 122.229C72.5075 122.927 78.0353 121.748 79.5813 117L79.5946 116.957C79.6122 116.889 79.6298 116.825 79.6474 116.762L109.352 108.084C111.07 107.573 112.854 107.688 114.131 108.386C114.708 108.701 115.448 109.297 115.713 110.336L115.735 110.409C116.351 112.418 115.281 115.237 112.418 116.472L112.413 116.459Z" fill="url(#paint1_linear_68_117)"/>
<path fill-rule="evenodd" clip-rule="evenodd" d="M134 48C147.255 48 158 37.2548 158 24C158 10.7452 147.255 0 134 0C120.745 0 110 10.7452 110 24C110 31.4634 113.407 38.1311 118.75 42.5329L118.75 50.6601L125.829 46.5731C128.379 47.4965 131.131 48 134 48Z" fill="#D9D9D9"/>
<path fill-rule="evenodd" clip-rule="evenodd" d="M134 48C147.255 48 158 37.2548 158 24C158 10.7452 147.255 0 134 0C120.745 0 110 10.7452 110 24C110 31.4634 113.407 38.1311 118.75 42.5329L118.75 50.6601L125.829 46.5731C128.379 47.4965 131.131 48 134 48Z" fill="url(#paint2_linear_68_117)"/>
<path d="M128.518 35.448C123.686 35.448 120.486 31.224 120.486 23.064C120.486 14.872 123.686 10.872 128.518 10.872C133.35 10.872 136.518 14.904 136.518 23.064C136.518 31.224 133.35 35.448 128.518 35.448ZM128.518 31.768C130.566 31.768 132.07 29.72 132.07 23.064C132.07 16.44 130.566 14.52 128.518 14.52C126.47 14.52 124.934 16.44 124.934 23.064C124.934 29.72 126.47 31.768 128.518 31.768Z" fill="white"/>
<path d="M145.672 27.032H148.672V24.008H145.672V27.032ZM141.424 24.008V27.032H144.256V24.008H141.424ZM150.112 22.592V31.364C150.112 32.144 149.944 32.54 149.44 32.768C148.96 33.008 148.24 33.032 147.172 33.032C147.1 32.636 146.86 31.976 146.656 31.604C147.34 31.652 148.12 31.64 148.36 31.64C148.588 31.628 148.672 31.556 148.672 31.352V28.448H141.424V33.032H139.984V22.592H150.112Z" fill="white"/>
<defs>
<linearGradient id="paint0_linear_68_117" x1="40" y1="67.5" x2="109" y2="67.5" gradientUnits="userSpaceOnUse">
<stop stop-color="#4889D8"/>
<stop offset="1" stop-color="#63B1C2"/>
</linearGradient>
<linearGradient id="paint1_linear_68_117" x1="19" y1="117" x2="119" y2="117" gradientUnits="userSpaceOnUse">
<stop stop-color="#4889D8"/>
<stop offset="1" stop-color="#63B1C2"/>
</linearGradient>
<linearGradient id="paint2_linear_68_117" x1="110" y1="25.3301" x2="158" y2="25.3301" gradientUnits="userSpaceOnUse">
<stop stop-color="#4889D8"/>
<stop offset="1" stop-color="#63B1C2"/>
</linearGradient>
</defs>
</svg>
