<svg width="158" height="158" viewBox="0 0 158 158" fill="none" xmlns="http://www.w3.org/2000/svg">
<g clip-path="url(#clip0_345_7119)">
<path d="M151.695 53.9088H122.807C121.621 40.9891 110.726 30.8248 97.5045 30.8248C84.2831 30.8248 73.3793 40.9891 72.2022 53.9088H68.4794V43.2245C68.4703 24.3558 53.1138 9 34.2352 9C15.3565 9 0 24.3558 0 43.2245C0 62.0931 15.3565 77.4672 34.2352 77.4672H40.1752V142.704C40.1752 146.181 43.0038 149.009 46.4802 149.009H151.704C155.171 149.009 158.009 146.181 158.009 142.704V60.2135C158.009 56.7464 155.181 53.9088 151.704 53.9088H151.695ZM122.88 57.5401H151.695C153.164 57.5401 154.368 58.7354 154.368 60.2044V74.6113H119.568L122.296 61.7828L122.442 61.1077L122.487 60.8978C122.487 60.8978 122.487 60.8248 122.497 60.7974C122.697 59.7208 122.834 58.6259 122.88 57.5219V57.5401ZM97.4954 34.4562C109.503 34.4562 119.276 44.2281 119.276 56.2354C119.276 57.6588 119.139 59.0456 118.874 60.3869L118.856 60.4416L114.659 80.1588C109.084 84.7847 100.37 90.9799 97.4863 90.9799C94.6029 90.9799 85.6335 83.4891 79.8851 77.9416L75.8703 58.5529L75.8064 58.2336C75.7426 57.5766 75.7061 56.9106 75.7061 56.2263C75.7061 44.219 85.4784 34.4471 97.4863 34.4471L97.4954 34.4562ZM68.4703 57.5401H72.111C72.2296 59.7664 72.6311 61.9197 73.2789 63.9635L75.4871 74.6204H68.4612V57.5401H68.4703ZM34.226 73.8358C17.3548 73.8358 3.62243 60.104 3.62243 43.2245C3.62243 26.3449 17.3639 12.6314 34.2352 12.6314C51.1064 12.6314 64.8388 26.3631 64.8388 43.2336V73.8449H34.2352L34.226 73.8358ZM154.359 142.695C154.359 144.173 153.155 145.369 151.686 145.369H46.4802C45.0112 145.369 43.8068 144.173 43.8068 142.695V78.261H76.2535L76.4543 79.2372C76.5364 79.5839 76.7097 79.9124 76.9744 80.1679C79.4471 82.5858 92.0754 94.6204 97.5045 94.6204C102.934 94.6204 115.087 84.5657 117.487 82.5493C117.797 82.2938 118.007 81.938 118.099 81.5365L118.792 78.261H154.378V142.695H154.359Z" fill="url(#paint0_linear_345_7119)"/>
<path d="M151.695 53.9088H122.807C121.621 40.9891 110.726 30.8248 97.5045 30.8248C84.2831 30.8248 73.3793 40.9891 72.2022 53.9088H68.4794V43.2245C68.4703 24.3558 53.1138 9 34.2352 9C15.3565 9 0 24.3558 0 43.2245C0 62.0931 15.3565 77.4672 34.2352 77.4672H40.1752V142.704C40.1752 146.181 43.0038 149.009 46.4802 149.009H151.704C155.171 149.009 158.009 146.181 158.009 142.704V60.2135C158.009 56.7464 155.181 53.9088 151.704 53.9088H151.695ZM122.88 57.5401H151.695C153.164 57.5401 154.368 58.7354 154.368 60.2044V74.6113H119.568L122.296 61.7828L122.442 61.1077L122.487 60.8978C122.487 60.8978 122.487 60.8248 122.497 60.7974C122.697 59.7208 122.834 58.6259 122.88 57.5219V57.5401ZM97.4954 34.4562C109.503 34.4562 119.276 44.2281 119.276 56.2354C119.276 57.6588 119.139 59.0456 118.874 60.3869L118.856 60.4416L114.659 80.1588C109.084 84.7847 100.37 90.9799 97.4863 90.9799C94.6029 90.9799 85.6335 83.4891 79.8851 77.9416L75.8703 58.5529L75.8064 58.2336C75.7426 57.5766 75.7061 56.9106 75.7061 56.2263C75.7061 44.219 85.4784 34.4471 97.4863 34.4471L97.4954 34.4562ZM68.4703 57.5401H72.111C72.2296 59.7664 72.6311 61.9197 73.2789 63.9635L75.4871 74.6204H68.4612V57.5401H68.4703ZM34.226 73.8358C17.3548 73.8358 3.62243 60.104 3.62243 43.2245C3.62243 26.3449 17.3639 12.6314 34.2352 12.6314C51.1064 12.6314 64.8388 26.3631 64.8388 43.2336V73.8449H34.2352L34.226 73.8358ZM154.359 142.695C154.359 144.173 153.155 145.369 151.686 145.369H46.4802C45.0112 145.369 43.8068 144.173 43.8068 142.695V78.261H76.2535L76.4543 79.2372C76.5364 79.5839 76.7097 79.9124 76.9744 80.1679C79.4471 82.5858 92.0754 94.6204 97.5045 94.6204C102.934 94.6204 115.087 84.5657 117.487 82.5493C117.797 82.2938 118.007 81.938 118.099 81.5365L118.792 78.261H154.378V142.695H154.359Z" fill="url(#paint1_linear_345_7119)"/>
<path d="M126.53 68.9269C128.373 68.9269 129.869 67.4305 129.869 65.5875C129.869 63.7444 128.373 62.248 126.53 62.248C124.686 62.248 123.19 63.7444 123.19 65.5875C123.19 67.4305 124.686 68.9269 126.53 68.9269Z" fill="url(#paint2_linear_345_7119)"/>
<path d="M126.53 68.9269C128.373 68.9269 129.869 67.4305 129.869 65.5875C129.869 63.7444 128.373 62.248 126.53 62.248C124.686 62.248 123.19 63.7444 123.19 65.5875C123.19 67.4305 124.686 68.9269 126.53 68.9269Z" fill="url(#paint3_linear_345_7119)"/>
<path d="M142.771 68.9269C144.614 68.9269 146.111 67.4305 146.111 65.5875C146.111 63.7444 144.614 62.248 142.771 62.248C140.928 62.248 139.432 63.7444 139.432 65.5875C139.432 67.4305 140.928 68.9269 142.771 68.9269Z" fill="url(#paint4_linear_345_7119)"/>
<path d="M142.771 68.9269C144.614 68.9269 146.111 67.4305 146.111 65.5875C146.111 63.7444 144.614 62.248 142.771 62.248C140.928 62.248 139.432 63.7444 139.432 65.5875C139.432 67.4305 140.928 68.9269 142.771 68.9269Z" fill="url(#paint5_linear_345_7119)"/>
<path d="M116.119 97.6677C115.106 96.2443 115.014 94.0089 115.151 92.3757C115.206 91.7188 115.297 91.144 115.379 90.7881C115.598 89.8118 114.987 88.8356 114.011 88.6166C113.034 88.3885 112.058 89.0089 111.839 89.9852C111.702 90.5965 110.553 96.0619 113.153 99.7571C114.348 101.454 116.192 102.503 118.464 102.777C118.5 102.786 118.546 102.786 118.591 102.786C119.896 102.859 121.657 103.014 123.646 103.288C131.411 104.365 142.771 107.175 145.253 113.197V133.388C145.253 134.392 146.065 135.204 147.069 135.204C148.073 135.204 148.885 134.392 148.885 133.388V112.85C148.885 112.64 148.848 112.43 148.775 112.239C145.189 102.275 126.466 99.8118 120.544 99.2827C119.677 99.2005 119.084 99.1732 118.856 99.1549C117.624 98.9907 116.739 98.5071 116.137 97.6586L116.119 97.6677Z" fill="url(#paint6_linear_345_7119)"/>
<path d="M51.1246 135.204C52.1283 135.204 52.9404 134.392 52.9404 133.388V113.197C55.4132 107.184 66.7641 104.356 74.5381 103.288C76.5273 103.014 78.2883 102.85 79.5931 102.786C79.6387 102.786 79.6752 102.786 79.7209 102.777C81.9929 102.503 83.8269 101.454 85.0313 99.7571C87.6318 96.0619 86.4912 90.5965 86.3452 89.9852C86.1263 89.0089 85.1499 88.3885 84.1736 88.6166C83.1973 88.8356 82.586 89.8118 82.8049 90.7881C82.8049 90.8064 82.9509 91.4542 83.0239 92.3848C83.1517 93.8994 83.1152 96.1622 82.0659 97.6677C81.4636 98.5162 80.5786 99.0089 79.3468 99.164C79.1186 99.1823 78.5255 99.2188 77.6587 99.2918C71.7369 99.821 53.0134 102.284 49.4275 112.248C49.3545 112.44 49.318 112.649 49.318 112.859V133.398C49.318 134.401 50.1301 135.213 51.1338 135.213L51.1246 135.204Z" fill="url(#paint7_linear_345_7119)"/>
<path d="M147.059 137.795H48.4418C47.4381 137.795 46.626 138.607 46.626 139.611C46.626 140.615 47.4381 141.427 48.4418 141.427H147.059C148.054 141.427 148.875 140.615 148.875 139.611C148.875 138.607 148.063 137.795 147.059 137.795Z" fill="url(#paint8_linear_345_7119)"/>
<path d="M34.2351 19.8027C25.1198 19.8027 17.7015 27.2206 17.7015 36.3356C17.7015 39.7389 18.7326 43.0053 20.6761 45.7973C21.3148 46.7097 22.0448 47.5582 22.8478 48.3246C24.7822 50.7425 26.014 52.8958 26.306 54.3648C26.3424 54.7024 26.4154 55.0308 26.4976 55.3502V63.6348C26.4976 64.5655 27.191 65.3228 28.0944 65.4323C28.5415 68.4159 31.1146 70.7151 34.226 70.7151C37.3375 70.7151 39.9197 68.4159 40.3577 65.4232C41.2336 65.2954 41.918 64.5473 41.918 63.6348V55.4962C41.991 55.2498 42.0457 55.0035 42.0914 54.748C42.1278 54.6476 42.1643 54.529 42.1826 54.4104C42.4655 52.8867 43.7611 50.6513 45.8141 48.1148C46.4437 47.4943 47.0186 46.8192 47.5387 46.1257L47.639 46.0071C47.8033 45.8429 47.931 45.6421 48.0132 45.4414C49.8016 42.7224 50.7505 39.5929 50.7505 36.3356C50.7505 27.2206 43.3323 19.8027 34.2169 19.8027H34.2351ZM34.2351 56.9378H38.2956V61.8192H30.1382V56.9378H34.2351ZM34.2351 67.0929C33.1493 67.0929 32.2186 66.4177 31.8445 65.4597H36.644C36.2608 66.4086 35.3301 67.0929 34.2351 67.0929ZM44.8196 43.7261C44.8196 43.7261 44.774 43.79 44.7557 43.8265C44.7283 43.8538 44.7101 43.8812 44.6827 43.9086C44.2539 44.5108 43.752 45.0765 43.2137 45.6057C43.168 45.6513 43.1133 45.706 43.0768 45.7608C40.7044 48.6713 39.2445 51.2078 38.7244 53.2973V53.3064H36.0509V40.5692C36.0509 39.5655 35.2388 38.7535 34.2351 38.7535C33.2315 38.7535 32.4194 39.5655 32.4194 40.5692V53.3064H29.7733C29.2714 51.2535 27.8754 48.79 25.5942 45.9615C25.5395 45.8885 25.4847 45.8246 25.4209 45.7699C24.7639 45.1586 24.1617 44.4651 23.6416 43.717C22.1178 41.5454 21.324 38.9907 21.324 36.3356C21.324 29.2188 27.1089 23.425 34.226 23.425C41.3431 23.425 47.1372 29.2188 47.1372 36.3356C47.1372 38.9907 46.3342 41.5454 44.8196 43.717V43.7261Z" fill="url(#paint9_linear_345_7119)"/>
<path d="M34.2351 19.8027C25.1198 19.8027 17.7015 27.2206 17.7015 36.3356C17.7015 39.7389 18.7326 43.0053 20.6761 45.7973C21.3148 46.7097 22.0448 47.5582 22.8478 48.3246C24.7822 50.7425 26.014 52.8958 26.306 54.3648C26.3424 54.7024 26.4154 55.0308 26.4976 55.3502V63.6348C26.4976 64.5655 27.191 65.3228 28.0944 65.4323C28.5415 68.4159 31.1146 70.7151 34.226 70.7151C37.3375 70.7151 39.9197 68.4159 40.3577 65.4232C41.2336 65.2954 41.918 64.5473 41.918 63.6348V55.4962C41.991 55.2498 42.0457 55.0035 42.0914 54.748C42.1278 54.6476 42.1643 54.529 42.1826 54.4104C42.4655 52.8867 43.7611 50.6513 45.8141 48.1148C46.4437 47.4943 47.0186 46.8192 47.5387 46.1257L47.639 46.0071C47.8033 45.8429 47.931 45.6421 48.0132 45.4414C49.8016 42.7224 50.7505 39.5929 50.7505 36.3356C50.7505 27.2206 43.3323 19.8027 34.2169 19.8027H34.2351ZM34.2351 56.9378H38.2956V61.8192H30.1382V56.9378H34.2351ZM34.2351 67.0929C33.1493 67.0929 32.2186 66.4177 31.8445 65.4597H36.644C36.2608 66.4086 35.3301 67.0929 34.2351 67.0929ZM44.8196 43.7261C44.8196 43.7261 44.774 43.79 44.7557 43.8265C44.7283 43.8538 44.7101 43.8812 44.6827 43.9086C44.2539 44.5108 43.752 45.0765 43.2137 45.6057C43.168 45.6513 43.1133 45.706 43.0768 45.7608C40.7044 48.6713 39.2445 51.2078 38.7244 53.2973V53.3064H36.0509V40.5692C36.0509 39.5655 35.2388 38.7535 34.2351 38.7535C33.2315 38.7535 32.4194 39.5655 32.4194 40.5692V53.3064H29.7733C29.2714 51.2535 27.8754 48.79 25.5942 45.9615C25.5395 45.8885 25.4847 45.8246 25.4209 45.7699C24.7639 45.1586 24.1617 44.4651 23.6416 43.717C22.1178 41.5454 21.324 38.9907 21.324 36.3356C21.324 29.2188 27.1089 23.425 34.226 23.425C41.3431 23.425 47.1372 29.2188 47.1372 36.3356C47.1372 38.9907 46.3342 41.5454 44.8196 43.717V43.7261Z" fill="url(#paint10_linear_345_7119)"/>
</g>
<defs>
<linearGradient id="paint0_linear_345_7119" x1="158.009" y1="79.0045" x2="2.97083e-05" y2="79.0044" gradientUnits="userSpaceOnUse">
<stop stop-color="#0072BE"/>
<stop offset="1" stop-color="#00A0E6"/>
</linearGradient>
<linearGradient id="paint1_linear_345_7119" x1="5.8863e-07" y1="79.0045" x2="158.009" y2="79.0045" gradientUnits="userSpaceOnUse">
<stop stop-color="#4889D8"/>
<stop offset="1" stop-color="#63B1C2"/>
</linearGradient>
<linearGradient id="paint2_linear_345_7119" x1="129.869" y1="65.5875" x2="123.19" y2="65.5875" gradientUnits="userSpaceOnUse">
<stop stop-color="#0072BE"/>
<stop offset="1" stop-color="#00A0E6"/>
</linearGradient>
<linearGradient id="paint3_linear_345_7119" x1="123.19" y1="65.5875" x2="129.869" y2="65.5875" gradientUnits="userSpaceOnUse">
<stop stop-color="#4889D8"/>
<stop offset="1" stop-color="#63B1C2"/>
</linearGradient>
<linearGradient id="paint4_linear_345_7119" x1="146.111" y1="65.5875" x2="139.432" y2="65.5875" gradientUnits="userSpaceOnUse">
<stop stop-color="#0072BE"/>
<stop offset="1" stop-color="#00A0E6"/>
</linearGradient>
<linearGradient id="paint5_linear_345_7119" x1="139.432" y1="65.5875" x2="146.111" y2="65.5875" gradientUnits="userSpaceOnUse">
<stop stop-color="#4889D8"/>
<stop offset="1" stop-color="#63B1C2"/>
</linearGradient>
<linearGradient id="paint6_linear_345_7119" x1="130.177" y1="125.489" x2="130.177" y2="94.7225" gradientUnits="userSpaceOnUse">
<stop stop-color="#0072BE"/>
<stop offset="1" stop-color="#36A4ED"/>
</linearGradient>
<linearGradient id="paint7_linear_345_7119" x1="68.0186" y1="125.496" x2="68.0186" y2="94.7237" gradientUnits="userSpaceOnUse">
<stop stop-color="#0072BE"/>
<stop offset="1" stop-color="#36A4ED"/>
</linearGradient>
<linearGradient id="paint8_linear_345_7119" x1="97.7506" y1="140.67" x2="97.7506" y2="138.275" gradientUnits="userSpaceOnUse">
<stop stop-color="#0072BE"/>
<stop offset="1" stop-color="#36A4ED"/>
</linearGradient>
<linearGradient id="paint9_linear_345_7119" x1="50.7505" y1="45.2589" x2="17.7015" y2="45.2589" gradientUnits="userSpaceOnUse">
<stop stop-color="#0072BE"/>
<stop offset="1" stop-color="#00A0E6"/>
</linearGradient>
<linearGradient id="paint10_linear_345_7119" x1="17.7015" y1="45.2589" x2="50.7505" y2="45.2589" gradientUnits="userSpaceOnUse">
<stop stop-color="#4889D8"/>
<stop offset="1" stop-color="#63B1C2"/>
</linearGradient>
<clipPath id="clip0_345_7119">
<rect width="158" height="158" fill="white"/>
</clipPath>
</defs>
</svg>
