<svg width="228" height="228" viewBox="0 0 228 228" fill="none" xmlns="http://www.w3.org/2000/svg">
<circle cx="114" cy="114" r="112" fill="white" stroke="#005694" stroke-width="4"/>
<path d="M52.296 78V74.668H56.748V61.564H52.996V59.016C55.068 58.624 56.496 58.092 57.812 57.252H60.864V74.668H64.756V78H52.296ZM78.6123 76.32H88.1043V70.86H78.6123V76.32ZM83.5403 59.94H76.5683C76.1203 60.416 75.6723 60.892 75.1963 61.368C76.6803 62.46 78.4723 63.86 79.6483 65.064C81.2163 63.524 82.5323 61.788 83.5403 59.94ZM91.5763 67.836V80.436H88.1043V79.316H78.6123V80.408H75.2803V72.456C73.3203 73.576 71.2203 74.472 69.0923 75.2C68.7003 74.276 67.8603 72.904 67.1603 72.232C70.6603 71.224 74.0483 69.544 76.9603 67.388C75.8403 66.156 74.1603 64.7 72.6763 63.524C71.7243 64.28 70.6883 64.98 69.5683 65.652C69.0643 64.84 67.9723 63.608 67.2163 63.048C71.8083 60.612 74.8883 57.196 76.5123 54.144L80.2643 54.844C79.8443 55.572 79.3683 56.3 78.8643 57.028H85.2203L85.7803 56.86L88.0763 58.064C86.6483 61.9 84.3803 65.176 81.5803 67.836H91.5763ZM108.376 55.46C108.208 56.02 108.096 56.524 107.984 56.944C107.9 57.42 107.788 57.924 107.704 58.484C111.12 58.344 114.144 57.98 117.224 57.252L117.252 60.5C114.508 61.004 110.756 61.34 107.312 61.48C107.228 62.32 107.144 63.188 107.116 64.028C108.46 63.72 109.916 63.524 111.288 63.524C111.456 63.524 111.624 63.524 111.792 63.524C111.904 62.964 112.016 62.264 112.044 61.844L115.46 62.656C115.348 62.964 115.124 63.552 114.956 64.084C118.204 65.148 120.36 67.696 120.36 70.944C120.36 74.92 118.036 78.756 111.148 79.792L109.3 76.852C114.704 76.264 116.888 73.52 116.888 70.776C116.888 69.096 115.908 67.612 113.976 66.856C112.464 70.664 110.224 73.604 108.096 75.368C108.292 76.068 108.516 76.768 108.74 77.44L105.52 78.42C105.408 78.056 105.268 77.664 105.156 77.272C103.784 77.944 102.3 78.392 100.816 78.392C98.7723 78.392 97.0363 77.16 97.0363 74.332C97.0363 70.72 100.004 66.968 103.924 65.12C103.98 63.916 104.064 62.74 104.176 61.592C103.868 61.592 103.588 61.592 103.28 61.592C101.824 61.592 99.6403 61.48 98.3243 61.424L98.2403 58.176C99.2203 58.344 101.684 58.568 103.392 58.568C103.784 58.568 104.148 58.568 104.512 58.568C104.568 58.036 104.624 57.532 104.68 57.056C104.708 56.524 104.764 55.852 104.736 55.376L108.376 55.46ZM100.34 73.604C100.34 74.5 100.732 74.976 101.628 74.976C102.412 74.976 103.42 74.64 104.428 74.052C104.12 72.316 103.896 70.384 103.84 68.452C101.74 69.88 100.34 72.008 100.34 73.604ZM107.004 67.08C107.004 68.788 107.116 70.328 107.34 71.728C108.656 70.356 109.916 68.648 110.868 66.38C109.384 66.408 108.096 66.66 107.004 66.996V67.08ZM138.924 71.168C138.7 71.952 138.532 72.876 138.532 73.492C138.532 74.724 139.372 75.648 142.368 75.648C144.244 75.648 146.176 75.424 148.192 75.06L148.052 78.644C146.484 78.84 144.58 79.036 142.34 79.036C137.636 79.036 135.088 77.412 135.088 74.584C135.088 73.296 135.368 71.952 135.592 70.832L138.924 71.168ZM135.76 55.656C135.536 56.412 135.284 57.672 135.172 58.288C135.116 58.596 135.032 58.96 134.948 59.352C136.516 59.128 138.084 58.82 139.624 58.456V61.956C137.944 62.348 136.04 62.656 134.164 62.88C133.912 64.084 133.632 65.316 133.324 66.464C132.316 70.384 130.44 76.096 128.872 79.428L124.98 78.112C126.66 75.312 128.788 69.432 129.824 65.512C130.02 64.756 130.244 63.972 130.412 63.16C129.768 63.188 129.152 63.216 128.564 63.216C127.22 63.216 126.156 63.16 125.176 63.104L125.092 59.604C126.52 59.772 127.472 59.828 128.62 59.828C129.432 59.828 130.272 59.8 131.14 59.744C131.252 59.128 131.336 58.596 131.392 58.148C131.504 57.112 131.56 55.964 131.476 55.32L135.76 55.656ZM137.412 64.112C138.98 63.972 140.996 63.832 142.788 63.832C144.384 63.832 146.064 63.916 147.716 64.084L147.632 67.444C146.232 67.276 144.524 67.108 142.816 67.108C140.912 67.108 139.176 67.192 137.412 67.388V64.112ZM160.596 55.516C160.204 56.888 159.644 59.772 159.476 61.34C160.82 59.156 163.256 56.804 166.42 56.804C170.312 56.804 173.336 60.612 173.336 66.772C173.336 74.696 168.492 78.476 161.072 79.82L158.944 76.572C165.16 75.62 169.556 73.576 169.556 66.8C169.556 62.488 168.1 60.08 165.748 60.08C162.444 60.08 159.56 65.036 159.42 68.732C159.364 69.488 159.392 70.384 159.56 71.7L156.116 71.924C155.948 70.832 155.752 69.124 155.752 67.248C155.752 64.644 156.144 61.172 156.536 58.288C156.676 57.224 156.76 56.104 156.76 55.348L160.596 55.516Z" fill="#222222"/>
<path d="M66 173.56C65.344 173.56 64.8 173.016 64.8 172.36C64.8 171.704 65.344 171.16 66 171.16C66.656 171.16 67.2 171.704 67.2 172.36C67.2 173.016 66.656 173.56 66 173.56ZM66 176.456L71.28 171.176L71.744 171.64L66.464 176.92L71.744 182.2L71.28 182.664L66 177.384L60.704 182.68L60.24 182.216L65.536 176.92L60.256 171.64L60.72 171.176L66 176.456ZM62.64 176.92C62.64 177.576 62.096 178.12 61.44 178.12C60.784 178.12 60.24 177.576 60.24 176.92C60.24 176.264 60.784 175.72 61.44 175.72C62.096 175.72 62.64 176.264 62.64 176.92ZM69.36 176.92C69.36 176.264 69.904 175.72 70.56 175.72C71.216 175.72 71.76 176.264 71.76 176.92C71.76 177.576 71.216 178.12 70.56 178.12C69.904 178.12 69.36 177.576 69.36 176.92ZM66 180.28C66.656 180.28 67.2 180.824 67.2 181.48C67.2 182.136 66.656 182.68 66 182.68C65.344 182.68 64.8 182.136 64.8 181.48C64.8 180.824 65.344 180.28 66 180.28ZM76.832 178.264V181.016C77.76 180.824 78.768 180.6 79.824 180.376V178.264H76.832ZM79.824 171.48H76.832V173.816H79.824V171.48ZM79.824 177.192V174.888H76.832V177.192H79.824ZM81.824 179.944L81.904 181.016C79.408 181.608 76.72 182.232 74.816 182.664L74.608 181.464L75.744 181.24V170.392H80.944V180.136L81.824 179.944ZM85.216 173.224H88.832C88.832 173.224 88.816 173.672 88.816 173.816C88.656 180.52 88.496 182.792 87.968 183.496C87.664 183.912 87.328 184.04 86.816 184.104C86.336 184.152 85.472 184.12 84.624 184.088C84.592 183.736 84.48 183.256 84.272 182.952C85.184 183.016 86.016 183.016 86.352 183.016C86.624 183.032 86.8 182.984 86.944 182.776C87.344 182.296 87.52 180.184 87.664 174.36H85.168C84.928 178.52 84.048 182.12 80.816 184.264C80.64 183.976 80.256 183.56 79.952 183.384C82.992 181.48 83.792 178.184 84.016 174.36H81.472V173.224H84.064C84.112 172.056 84.112 170.856 84.112 169.624H85.264C85.264 170.856 85.264 172.056 85.216 173.224ZM100.72 170.408L101.424 169.688C102.416 170.184 103.664 170.952 104.288 171.512L103.552 172.328C102.944 171.768 101.728 170.952 100.72 170.408ZM102.992 174.728L104.192 175.032C103.504 177.096 102.56 178.92 101.376 180.44C101.968 182.008 102.704 182.92 103.52 182.92C103.968 182.92 104.16 182.088 104.272 179.96C104.544 180.232 104.976 180.504 105.296 180.6C105.072 183.32 104.64 184.104 103.424 184.104C102.192 184.104 101.232 183.128 100.496 181.48C99.536 182.52 98.432 183.416 97.2 184.136C97.024 183.896 96.608 183.416 96.336 183.192C97.76 182.424 98.992 181.432 100.016 180.232C99.44 178.424 99.056 176.072 98.848 173.496H93.328V175.576H97.408V176.088C97.328 179.672 97.232 181.016 96.896 181.432C96.656 181.736 96.384 181.848 95.936 181.896C95.536 181.928 94.816 181.928 94.032 181.896C94.016 181.528 93.888 181.08 93.696 180.776C94.432 180.84 95.12 180.856 95.392 180.856C95.616 180.856 95.776 180.824 95.872 180.68C96.096 180.44 96.176 179.432 96.24 176.68H93.328V176.808C93.328 179.048 93.088 182.264 91.648 184.344C91.44 184.104 90.928 183.688 90.656 183.544C91.968 181.592 92.112 178.856 92.112 176.792V172.328H98.784C98.72 171.448 98.704 170.552 98.688 169.64H99.92C99.92 170.568 99.936 171.464 99.984 172.328H105.152V173.496H100.064C100.224 175.624 100.512 177.528 100.944 179.048C101.808 177.784 102.496 176.344 102.992 174.728ZM110.192 174.456H117.872C116.304 173.32 114.864 171.992 113.936 170.744C113.104 171.944 111.76 173.272 110.192 174.456ZM114.544 178.696V182.648H120.8V183.704H107.232V182.648H113.312V178.696H107.952V177.656H113.312V175.512H110.016V174.6C109.184 175.208 108.288 175.784 107.376 176.264C107.248 175.992 106.912 175.576 106.656 175.336C109.408 173.944 112.032 171.592 113.28 169.592H114.464C116.16 171.88 118.928 174.024 121.408 175.128C121.12 175.432 120.832 175.832 120.64 176.184C119.76 175.736 118.848 175.16 117.968 174.52V175.512H114.544V177.656H120.032V178.696H114.544ZM109.28 179.496L110.24 179.128C110.896 180.008 111.536 181.192 111.76 181.992L110.736 182.44C110.528 181.64 109.904 180.408 109.28 179.496ZM116.752 182.44L115.872 182.04C116.448 181.256 117.184 179.992 117.584 179.096L118.704 179.528C118.112 180.536 117.36 181.688 116.752 182.44ZM127.344 171.464V174.408H130.4V175.496H127.344V176.664C128.064 177.224 129.888 178.792 130.352 179.208L129.664 180.184C129.184 179.656 128.16 178.632 127.344 177.88V184.184H126.192V177.288C125.36 179.112 124.24 180.92 123.152 182.008C123.008 181.688 122.704 181.192 122.496 180.904C123.776 179.688 125.168 177.48 125.952 175.496H122.848V174.408H126.192V171.704C125.152 171.896 124.096 172.056 123.104 172.2C123.056 171.912 122.88 171.512 122.736 171.256C125.072 170.904 127.856 170.36 129.344 169.704L130.224 170.616C129.424 170.936 128.416 171.224 127.344 171.464ZM132.624 171.512V180.264H131.472V171.512H132.624ZM135.376 169.928H136.56V182.632C136.56 183.448 136.336 183.816 135.84 184.024C135.312 184.2 134.416 184.232 132.96 184.232C132.896 183.912 132.72 183.368 132.528 183.032C133.648 183.064 134.656 183.064 134.96 183.048C135.248 183.048 135.376 182.952 135.376 182.648V169.928ZM146.672 178.216H150.976V175.56H146.672V178.216ZM141.6 178.216H145.488V175.56H141.664V176.504C141.664 177.032 141.648 177.624 141.6 178.216ZM145.488 171.88H141.664V174.44H145.488V171.88ZM150.976 174.44V171.88H146.672V174.44H150.976ZM152.144 170.744V182.616C152.144 183.384 151.936 183.736 151.424 183.944C150.88 184.136 149.952 184.152 148.448 184.136C148.4 183.816 148.208 183.304 148.048 182.984C149.168 183.032 150.256 183.016 150.544 183.016C150.864 183 150.976 182.904 150.976 182.6V179.352H146.672V184.072H145.488V179.352H141.488C141.248 181.128 140.704 182.952 139.488 184.312C139.312 184.072 138.832 183.672 138.576 183.528C140.336 181.544 140.496 178.728 140.496 176.504V170.744H152.144ZM158.688 171.736H156.368V175.288H158.688V171.736ZM156.368 180.024H158.688V176.328H156.368V180.024ZM159.808 170.664V181.096H156.368V182.392H155.28V170.664H159.808ZM161.12 179.624L162.08 179.08C162.896 179.88 163.792 181.016 164.16 181.8L163.152 182.44C162.784 181.656 161.936 180.472 161.12 179.624ZM169.376 175.656H167.344V177.464H169.2V178.52H167.344V182.808C167.344 183.48 167.168 183.832 166.688 184.008C166.192 184.184 165.392 184.2 164.096 184.2C164.048 183.88 163.888 183.4 163.712 183.096C164.704 183.128 165.584 183.128 165.84 183.112C166.112 183.096 166.192 183.032 166.192 182.792V178.52H160.144V177.464H166.192V175.656H160.064V174.6H164.08V172.568H160.752V171.512H164.08V169.608H165.248V171.512H168.688V172.568H165.248V174.6H169.376V175.656Z" fill="#222222"/>
<path d="M147.32 130.464H132.76C132.704 131.948 132.648 133.488 132.508 135H145.08C145.08 135 145.052 136.064 144.996 136.484C144.576 145.08 144.1 148.468 143.008 149.7C142.168 150.68 141.272 150.96 140.012 151.1C138.92 151.24 136.988 151.212 135.14 151.128C135.056 150.176 134.58 148.776 133.964 147.852C135.896 148.02 137.8 148.02 138.64 148.02C139.228 148.02 139.592 147.964 139.956 147.656C140.684 146.956 141.132 144.212 141.44 138.22H132.116C131.248 143.4 129.232 148.244 124.024 151.38C123.52 150.484 122.484 149.336 121.616 148.692C128.812 144.66 129.036 137.212 129.232 130.464H122.708V127.188H147.32V130.464ZM164.568 137.408H171.568V130.352H164.568V137.408ZM154.656 130.352V137.408H161.264V130.352H154.656ZM174.928 127.048V147.516C174.928 149.336 174.536 150.26 173.36 150.792C172.24 151.352 170.56 151.408 168.068 151.408C167.9 150.484 167.34 148.944 166.864 148.076C168.46 148.188 170.28 148.16 170.84 148.16C171.372 148.132 171.568 147.964 171.568 147.488V140.712H154.656V151.408H151.296V127.048H174.928ZM189.74 139.564C188.536 138.304 187.528 137.548 185.568 137.548C183.776 137.548 182.18 138.92 181.116 140.908L178.036 139.228C179.912 135.756 182.656 134.076 185.652 134.076C188.312 134.076 190.356 135.084 192.26 137.156C193.464 138.444 194.5 139.172 196.432 139.172C198.224 139.172 199.82 137.8 200.884 135.812L203.964 137.492C202.088 140.964 199.344 142.644 196.348 142.644C193.688 142.644 191.644 141.636 189.74 139.564Z" fill="#005694"/>
<path d="M45.4961 138.488H25.2109L26.9688 130.051L54.8477 97.4609H63.5664L56.7812 129.91H63.0391L61.2461 138.488H54.9883L52.7734 149H43.2812L45.4961 138.488ZM47.2891 129.91L50.6289 113.844L37.0234 129.91H47.2891ZM66.7891 142.508H73.4453L72.0859 149H65.4297L66.7891 142.508ZM95.6992 113.527L85.8203 112.051C86.6172 107.27 88.4688 103.613 91.375 101.082C94.3047 98.5273 97.9609 97.25 102.344 97.25C107.148 97.25 110.922 98.5508 113.664 101.152C116.406 103.754 117.777 107.059 117.777 111.066C117.777 113.105 117.355 115.156 116.512 117.219C115.668 119.258 114.285 121.402 112.363 123.652C110.98 125.246 108.719 127.508 105.578 130.438C102.438 133.344 100.352 135.336 99.3203 136.414C98.3125 137.469 97.3398 138.594 96.4023 139.789H114.262L112.363 149H81.0391C81.3672 146.469 82.1055 144.066 83.2539 141.793C84.4258 139.496 85.8789 137.363 87.6133 135.395C89.3477 133.426 92.5234 130.25 97.1406 125.867C100.609 122.539 102.801 120.371 103.715 119.363C105.355 117.535 106.48 115.953 107.09 114.617C107.699 113.281 108.004 112.074 108.004 110.996C108.004 109.262 107.488 107.855 106.457 106.777C105.449 105.699 104.16 105.16 102.59 105.16C100.996 105.16 99.6016 105.77 98.4062 106.988C97.2109 108.184 96.3086 110.363 95.6992 113.527Z" fill="#005694"/>
</svg>
