<svg width="130" height="135" viewBox="0 0 130 135" fill="none" xmlns="http://www.w3.org/2000/svg">
<g clip-path="url(#clip0_345_7228)">
<path d="M124.224 117.844C124.224 117.844 121.445 111.477 115.491 109.786L90.928 102.805C90.928 102.805 79.5572 101.559 77.747 93.7607C77.747 93.7607 76.0627 80.7507 80.617 74.7305H46.6252C51.1822 80.7507 49.4952 93.7607 49.4952 93.7607C47.685 101.559 36.3142 102.805 36.3142 102.805L11.7514 109.786C5.79493 111.48 3.01796 117.844 3.01796 117.844L1.24606 135.334L2.28127 136.528H124.961L125.996 135.334L124.224 117.844Z" fill="white"/>
<path d="M48.1615 81.4116C48.1615 81.4116 51.489 86.7708 50.1251 92.13L79.6914 97.3116C79.6914 97.3116 76.531 86.8746 77.9441 83.3237L48.1615 81.4116Z" fill="#DCDDDD"/>
<path d="M1.25156 136.582C1.2187 136.582 1.18309 136.582 1.15023 136.577C0.462834 136.522 -0.0492896 135.921 0.00822162 135.233L1.12011 121.608C1.15297 112.636 9.98231 109.044 10.3575 108.896C10.3958 108.88 10.4342 108.869 10.4753 108.855L43.0732 99.59C50.7468 97.1453 48.3094 85.7086 48.282 85.5938C48.1342 84.9219 48.5586 84.2582 49.2296 84.1079C49.906 83.9577 50.5688 84.3811 50.7194 85.053C51.7847 89.8113 51.7108 99.4698 43.8099 101.969C43.7989 101.972 43.7852 101.977 43.7743 101.98L11.2256 111.232C10.5026 111.532 3.615 114.594 3.615 121.66C3.615 121.693 3.615 121.729 3.61226 121.761L2.4949 135.435C2.44286 136.085 1.89514 136.58 1.25156 136.58V136.582Z" fill="#3E3A39"/>
<path d="M126.716 136.582C126.073 136.582 125.525 136.088 125.473 135.438L124.356 121.764C124.356 121.731 124.353 121.696 124.353 121.663C124.353 114.602 117.479 111.54 116.742 111.234L84.1937 101.983C84.1937 101.983 84.169 101.977 84.1581 101.972C74.3346 98.8633 76.7035 84.6268 76.8103 84.0231C76.9281 83.3457 77.5772 82.8923 78.2563 83.0097C78.9355 83.1272 79.3901 83.7718 79.2724 84.4492C79.2477 84.5967 77.1773 97.1288 84.8975 99.5898L117.495 108.855C117.537 108.866 117.575 108.88 117.613 108.896C117.991 109.043 126.818 112.635 126.851 121.608L127.962 135.233C128.017 135.919 127.508 136.519 126.82 136.577C126.785 136.58 126.752 136.582 126.716 136.582Z" fill="#3E3A39"/>
<path d="M98.4236 46.9542C96.3066 44.7143 94.7182 48.298 93.1764 48.7952L95.2742 34.3484C97.8731 15.4329 85.0372 8.31735 85.0372 8.31735C72.0451 -4.40316 57.0237 4.54791 57.0237 4.54791L53.6361 5.18434C31.5052 6.07754 31.2888 19.0712 31.2888 19.0712C23.4783 24.9275 28.1093 39.4371 28.1093 39.4371L30.4371 51.6141C29.3882 51.7233 28.2325 52.9033 27.3151 54.2936C27.3151 54.2936 25.9184 61.5403 36.6593 69.3305C36.6593 69.3305 40.0141 69.5572 41.0164 67.2163C41.0164 67.2163 49.3967 90.9583 66.9047 88.4836C88.9479 85.58 88.8028 63.0207 88.8028 63.0207C89.7175 64.3482 93.275 64.9437 93.275 64.9437C106.3 54.5395 98.4263 46.9542 98.4263 46.9542H98.4236Z" fill="white"/>
<path d="M65.33 89.7538C58.7573 89.7538 53.2253 86.3285 52.6063 85.9297C42.2707 80.322 39.4938 66.3723 39.3815 65.7796C39.2528 65.1049 39.6964 64.4521 40.3729 64.3237C41.0493 64.1953 41.7038 64.6378 41.8326 65.3125C41.8572 65.4463 44.5192 78.7404 53.836 83.7636L53.9291 83.8182C53.9893 83.8565 60.1458 87.8199 66.8116 87.1916C73.5076 86.659 78.8835 81.7014 78.9382 81.6495L79.0177 81.5812C87.3486 75.0174 87.6526 61.4802 87.6526 61.3436C87.6635 60.6635 88.2195 60.1172 88.9014 60.1172C88.9069 60.1172 88.9151 60.1172 88.9206 60.1172C89.6107 60.1281 90.1612 60.6935 90.1502 61.3819C90.142 61.9855 89.8161 76.2056 80.6061 83.5041C80.02 84.0422 74.3483 89.0927 67.028 89.6745C66.4556 89.7292 65.8859 89.7538 65.3273 89.7538H65.33Z" fill="#3E3A39"/>
<path d="M92.2288 66.2684C91.221 66.2684 89.8983 65.8778 88.6221 64.3345C88.1839 63.8046 88.2578 63.0179 88.7891 62.5809C89.3204 62.1438 90.1091 62.2176 90.5473 62.7475C91.4867 63.8811 92.1823 63.7936 92.4096 63.7636C94.2965 63.5232 96.5422 59.9614 97.3309 58.2761L97.3638 58.2105C101.006 51.4829 98.2839 48.5083 97.7417 48.0084C94.6388 46.6072 93.2722 48.5902 93.0285 49.0081C92.6834 49.5981 91.9221 49.8057 91.3278 49.467C90.7335 49.1283 90.5199 48.3799 90.854 47.7844C91.7441 46.1947 94.5813 43.7391 98.9631 45.8287L99.0754 45.8833L99.174 45.9571C99.3958 46.1237 104.555 50.1417 99.5793 59.3659C99.2014 60.1635 96.4244 65.7685 92.7273 66.2383C92.5712 66.2574 92.4068 66.2711 92.2288 66.2711V66.2684Z" fill="#3E3A39"/>
<path d="M37.574 70.7073C33.9152 70.7073 30.3248 65.8207 29.8237 65.1132C23.3276 56.8833 27.7177 52.0376 27.9066 51.8355L27.9915 51.7454L28.0929 51.6743C32.0447 48.8637 35.2653 50.7948 36.4183 52.207C36.8537 52.7424 36.7716 53.5263 36.2348 53.9579C35.7008 54.3894 34.9203 54.3102 34.4848 53.7858C34.1671 53.4143 32.4801 51.6989 29.6676 53.6164C29.2431 54.1682 27.0357 57.5716 31.8064 63.5973L31.8503 63.6546C33.1237 65.4629 35.8158 68.3063 37.6479 68.2135C37.878 68.2025 38.5791 68.1698 39.3075 66.8914C39.6499 66.2932 40.4112 66.0856 41.011 66.4244C41.6107 66.7631 41.8216 67.5251 41.4793 68.1233C40.3154 70.1665 38.8173 70.6527 37.7657 70.7019C37.7027 70.7046 37.6397 70.7073 37.5767 70.7073H37.574Z" fill="#3E3A39"/>
<path d="M117.027 109.787L87.0117 101.393C87.0117 101.393 83.0133 96.2358 82.2547 95.4272H46.5293C45.7707 96.2358 41.7723 101.393 41.7723 101.393L11.7569 109.787C-0.0848942 112.835 2.28402 136.528 2.28402 136.528H126.5C126.5 136.528 128.869 112.832 117.03 109.787H117.027Z" fill="#00A0E6"/>
<path d="M75.1781 58.0796C73.2501 58.0796 71.5741 57.4705 70.1856 56.2632C66.7185 53.2449 66.4035 47.5361 66.3898 47.293V47.2875C66.3323 45.9956 66.8034 44.8647 67.7564 44.0152C71.0099 41.1171 79.3408 42.2807 80.5732 42.4719C81.896 42.5566 83.2078 43.1958 84.1827 44.2365C85.2344 45.3564 85.7793 46.7986 85.7164 48.3009C85.7218 48.8144 85.6999 53.1357 83.7035 55.6732C82.378 57.3585 79.5627 57.73 76.0243 58.0414C75.7368 58.066 75.4547 58.0796 75.1781 58.0796ZM68.8875 47.1728C68.8957 47.2957 69.1915 52.095 71.8342 54.3894C72.905 55.3181 74.2032 55.7005 75.8053 55.5585C77.7387 55.3891 80.9758 55.105 81.7399 54.1354C83.0079 52.5238 83.2379 49.3799 83.2187 48.3037C83.2187 48.2763 83.2187 48.2463 83.2187 48.219C83.2598 47.3831 82.9558 46.5719 82.3588 45.9382C81.8111 45.3564 81.0716 44.9876 80.3788 44.9549C80.3322 44.9549 80.2884 44.9467 80.2418 44.9412C77.0322 44.4331 71.2537 44.2365 69.416 45.8726C69.0217 46.2223 68.8574 46.6238 68.882 47.1701L68.8875 47.1728Z" fill="#3E3A39"/>
<path d="M49.068 60.2673C47.0469 60.2673 45.3024 59.986 44.2179 58.9808C41.8463 56.7874 41.1452 52.5209 41.0685 52.0128C40.77 50.5378 41.0794 49.03 41.9421 47.7599C42.7418 46.5799 43.9386 45.7441 45.2285 45.4518C46.4143 45.0694 54.4604 42.6192 58.1301 44.9683C59.179 45.6403 59.8199 46.6536 59.9842 47.8992C60.1595 48.6312 61.181 53.4031 58.7463 56.8175C57.3496 58.7732 55.1423 59.8822 52.1846 60.1117C51.1083 60.1963 50.0539 60.2619 49.068 60.2619V60.2673ZM53.7702 46.4542C51.2397 46.4542 48.0136 47.1699 45.9432 47.8418C45.8994 47.8555 45.8556 47.8664 45.8118 47.8773C45.1326 48.0194 44.4589 48.4974 44.0098 49.1584C43.5223 49.8768 43.347 50.7263 43.5196 51.5457C43.525 51.573 43.5305 51.6004 43.5332 51.6304C43.6839 52.6957 44.4069 55.7659 45.9131 57.1562C46.8607 58.033 50.325 57.7653 51.9874 57.6342C54.1701 57.4648 55.7558 56.7082 56.7033 55.3862C58.6176 52.7148 57.555 48.4865 57.5441 48.4428C57.5304 48.3854 57.5194 48.328 57.5112 48.2707C57.4482 47.7244 57.2237 47.3556 56.7773 47.0688C56.0926 46.6291 55.0136 46.457 53.7675 46.457L53.7702 46.4542Z" fill="#3E3A39"/>
<path d="M59.1407 49.3088C58.7518 49.3088 58.3711 49.1313 58.1274 48.7926C57.7248 48.2381 57.8453 47.4624 58.4013 47.0581C58.5848 46.9243 62.9474 43.8213 67.8851 46.5418C68.4876 46.8751 68.7067 47.6317 68.3754 48.2354C68.0412 48.839 67.2826 49.0548 66.6774 48.7243C63.1583 46.7822 60.0034 48.9811 59.8692 49.0739C59.6473 49.2324 59.3926 49.3061 59.1407 49.3061V49.3088Z" fill="#3E3A39"/>
<path d="M74.6057 42.1824C73.4473 42.1824 71.8452 41.9858 70.0541 41.2046C69.4215 40.9287 69.134 40.1939 69.4106 39.5657C69.6872 38.9347 70.4239 38.6479 71.0537 38.9238C73.7458 40.0983 75.819 39.5848 75.8381 39.5793C76.5036 39.399 77.191 39.7896 77.3717 40.4534C77.5525 41.1171 77.1609 41.8027 76.4954 41.983C76.4379 41.9994 75.7286 42.1852 74.603 42.1852L74.6057 42.1824Z" fill="#3E3A39"/>
<path d="M49.0407 44.5174C48.3943 44.5174 48 44.4491 47.9562 44.4409C47.277 44.3153 46.8306 43.6652 46.9538 42.9905C47.0771 42.3159 47.7261 41.8706 48.3998 41.9908C48.5039 42.0072 50.5551 42.3213 53.1185 40.9365C53.7237 40.6087 54.4823 40.8327 54.811 41.4391C55.1396 42.0427 54.915 42.7993 54.307 43.1271C52.1353 44.3016 50.1881 44.5202 49.0379 44.5202L49.0407 44.5174Z" fill="#3E3A39"/>
<path d="M65.1465 63.9794C64.9493 63.9794 64.7467 63.933 64.5605 63.8347L63.6868 63.3703C63.0789 63.048 62.8461 62.2941 63.1692 61.685C63.4924 61.0786 64.251 60.8464 64.859 61.1687L65.7326 61.6331C66.3406 61.9554 66.5733 62.7093 66.2502 63.3184C66.0256 63.7391 65.5929 63.9794 65.1465 63.9794Z" fill="#3E3A39"/>
<path d="M75.0823 50.0487C73.7513 50.1635 72.5655 49.1719 72.4504 47.8444C72.3354 46.5169 73.3295 45.3342 74.6605 45.2195C75.9915 45.1048 77.1773 46.0963 77.2923 47.4238C77.4074 48.7513 76.4132 49.934 75.0823 50.0487Z" fill="#3E3A39"/>
<path d="M52.5598 52.7338C51.2288 52.8485 50.043 51.857 49.928 50.5295C49.8129 49.202 50.8071 48.0193 52.138 47.9045C53.469 47.7898 54.6548 48.7813 54.7699 50.1088C54.8849 51.4363 53.8908 52.6191 52.5598 52.7338Z" fill="#3E3A39"/>
<path d="M35.0846 36.3587C34.6327 36.3587 34.1973 36.1129 33.9754 35.6867C33.6578 35.0749 33.896 34.3237 34.5095 34.0069C37.5767 32.4226 41.3725 26.0064 42.5775 23.6682C42.8924 23.0564 43.6455 22.816 44.259 23.1301C44.8724 23.4443 45.1134 24.1954 44.8012 24.8073C44.6095 25.1787 40.0634 33.9468 35.6597 36.2221C35.4762 36.3177 35.279 36.3614 35.0873 36.3614L35.0846 36.3587Z" fill="#3E3A39"/>
<path d="M29.5772 42.9799C29.2075 42.9799 28.8405 42.816 28.594 42.5018C28.1696 41.961 28.2654 41.1771 28.8077 40.7537L33.6906 36.9405C34.2329 36.5172 35.0189 36.6128 35.4434 37.1536C35.8678 37.6944 35.772 38.4784 35.2297 38.9017L30.3468 42.7149C30.1195 42.8924 29.8456 42.9799 29.5772 42.9799Z" fill="#3E3A39"/>
<path d="M30.763 47.7516C30.3933 47.7516 30.0263 47.5878 29.7799 47.2736C29.3554 46.7328 29.4512 45.9489 29.9935 45.5255L34.1535 42.275C34.6957 41.8516 35.4817 41.9472 35.9062 42.4881C36.3307 43.0289 36.2348 43.8128 35.6926 44.2362L31.5326 47.4867C31.3053 47.6642 31.0314 47.7516 30.763 47.7516Z" fill="#3E3A39"/>
<path d="M31.8667 52.5892C31.497 52.5892 31.13 52.4253 30.8835 52.1112C30.459 51.5703 30.5549 50.7864 31.0971 50.363L34.619 47.6124C35.1613 47.189 35.9473 47.2846 36.3717 47.8255C36.7962 48.3663 36.7004 49.1502 36.1581 49.5736L32.6363 52.3242C32.4089 52.5018 32.1351 52.5892 31.8667 52.5892Z" fill="#3E3A39"/>
<path d="M92.6834 37.5116C92.4835 37.5116 92.2836 37.4652 92.0946 37.3641L86.6256 34.4469C86.0176 34.1218 85.7876 33.3679 86.1135 32.7615C86.4394 32.1552 87.1952 31.9257 87.8032 32.2508L93.2722 35.168C93.8802 35.493 94.1103 36.2469 93.7844 36.8533C93.5598 37.2739 93.1271 37.5116 92.6807 37.5116H92.6834Z" fill="#3E3A39"/>
<path d="M93.1463 42.849C92.9463 42.849 92.7464 42.8026 92.5575 42.7015L87.0884 39.7843C86.4804 39.4592 86.2504 38.7053 86.5763 38.0989C86.9022 37.4926 87.658 37.2631 88.266 37.5882L93.7351 40.5054C94.343 40.8304 94.5731 41.5843 94.2472 42.1907C94.0226 42.6114 93.5899 42.849 93.1435 42.849H93.1463Z" fill="#3E3A39"/>
<path d="M92.8012 47.7543C92.6013 47.7543 92.4013 47.7079 92.2124 47.6068L87.554 45.1212C86.946 44.7961 86.716 44.0422 87.0418 43.4359C87.3677 42.8295 88.1236 42.6 88.7316 42.9251L93.39 45.4107C93.998 45.7358 94.228 46.4897 93.9021 47.096C93.6776 47.5167 93.2449 47.7543 92.7985 47.7543H92.8012Z" fill="#3E3A39"/>
<path d="M86.2066 31.6115C85.6753 31.6115 85.1823 31.2701 85.0153 30.7402C81.9288 20.9478 75.337 20.6692 75.0576 20.661C74.373 20.6446 73.8252 20.0765 73.8362 19.3936C73.8499 18.7135 74.4004 18.1699 75.0795 18.1699H75.0932C75.4438 18.1754 83.7418 18.4021 87.3951 29.9918C87.6033 30.6473 87.2363 31.3466 86.579 31.5542C86.4558 31.5924 86.3271 31.6115 86.2038 31.6115H86.2066Z" fill="#3E3A39"/>
<path d="M61.9642 89.1667C61.8766 89.1667 61.7862 89.1585 61.6986 89.1366C61.0249 88.9891 60.5977 88.3281 60.7428 87.6534L61.4028 84.6324C61.5507 83.9605 62.2189 83.5343 62.8899 83.6791C63.5636 83.8266 63.9908 84.4876 63.8457 85.1623L63.1857 88.1833C63.0597 88.7651 62.5421 89.1639 61.967 89.1639L61.9642 89.1667Z" fill="#3E3A39"/>
<path d="M72.8722 87.6833C72.3792 87.6833 71.9137 87.391 71.7165 86.9076L70.5444 84.0477C70.2842 83.4113 70.5909 82.6847 71.229 82.4225C71.8671 82.163 72.5956 82.4689 72.8585 83.1053L74.0306 85.9652C74.2908 86.6016 73.9841 87.3282 73.346 87.5904C73.1926 87.6533 73.031 87.6833 72.8749 87.6833H72.8722Z" fill="#3E3A39"/>
<path d="M65.6669 88.8444C65.026 88.8444 64.481 88.3554 64.4235 87.7054L64.1688 84.7663C64.1086 84.0807 64.618 83.477 65.3054 83.4169C65.9955 83.3568 66.598 83.8649 66.6582 84.5505L66.9129 87.4896C66.9732 88.1752 66.4638 88.7788 65.7764 88.8389C65.7408 88.8417 65.7025 88.8444 65.6669 88.8444Z" fill="#3E3A39"/>
<path d="M68.7615 88.5766C68.1207 88.5766 67.5757 88.0877 67.5182 87.4376L67.2635 84.4958C67.2032 83.8102 67.7126 83.2065 68.4 83.1464C69.0901 83.0863 69.6926 83.5944 69.7529 84.28L70.0076 87.2218C70.0678 87.9074 69.5584 88.5111 68.871 88.5712C68.8354 88.5739 68.7971 88.5766 68.7615 88.5766Z" fill="#3E3A39"/>
<path d="M28.1093 40.6827C27.6081 40.6827 27.1343 40.3795 26.9426 39.8824C26.7263 39.317 21.7091 25.9354 29.7525 18.3228C30.2536 17.8503 31.0424 17.8694 31.5189 18.3692C31.9927 18.8691 31.9735 19.6558 31.4723 20.131C24.6449 26.5937 29.2294 38.869 29.2759 38.9919C29.5224 39.6338 29.1993 40.3549 28.5557 40.6008C28.4078 40.6554 28.2572 40.6827 28.1093 40.6827Z" fill="#3E3A39"/>
<path d="M47.9233 24.7937H47.9123C47.2249 24.7882 46.6745 24.2337 46.6745 23.5509C46.6745 23.193 46.8306 14.7173 58.9244 11.2155C59.5871 11.0243 60.28 11.404 60.4717 12.065C60.6634 12.726 60.2827 13.4171 59.62 13.6083C49.4021 16.5665 49.1748 23.2805 49.1694 23.5645C49.1584 24.2447 48.6025 24.7937 47.9205 24.7937H47.9233Z" fill="#3E3A39"/>
<path d="M57.3633 23.0099C57.2018 23.0099 57.0402 22.9798 56.8813 22.9143C56.246 22.6493 55.9475 21.9227 56.2104 21.289C56.3144 21.0405 58.8121 15.2033 65.6888 12.7149C66.3378 12.48 67.0526 12.8132 67.2881 13.4606C67.5237 14.108 67.1895 14.8209 66.5405 15.0558C60.7291 17.159 58.5382 22.1959 58.5163 22.2478C58.3136 22.7231 57.8508 23.0099 57.3633 23.0099Z" fill="#3E3A39"/>
<path d="M65.571 23.297C65.4122 23.297 65.2533 23.2669 65.0972 23.2041C64.4619 22.9419 64.1579 22.2181 64.4153 21.5844C64.5002 21.374 66.587 16.4164 72.3382 14.3104C72.9845 14.0728 73.702 14.4033 73.9403 15.0507C74.1785 15.6953 73.8471 16.4109 73.1981 16.6486C68.5123 18.3639 66.7404 22.4885 66.724 22.5294C66.5241 23.0075 66.0585 23.297 65.5683 23.297H65.571Z" fill="#3E3A39"/>
<path d="M30.6124 20.4725C30.5631 20.4725 30.5138 20.4698 30.4645 20.4643C29.7799 20.3824 29.2897 19.7623 29.3718 19.0795C29.391 18.9101 29.9004 14.9194 33.2086 11.0516C36.2184 7.53349 42.2078 3.44173 53.6881 3.94159C54.3782 3.97164 54.9123 4.55344 54.8821 5.23904C54.852 5.92738 54.2742 6.46275 53.5813 6.42997C45.2969 6.07214 38.9077 8.22728 35.1092 12.6687C32.2857 15.9683 31.8558 19.3417 31.8503 19.3745C31.7736 20.0082 31.2341 20.4725 30.6124 20.4725Z" fill="#3E3A39"/>
<path d="M95.2742 35.5938C95.2386 35.5938 95.203 35.5938 95.1674 35.5883C94.48 35.5282 93.9706 34.9273 94.0308 34.2417C94.7566 25.7959 93.3489 18.8307 89.953 14.1052C87.4198 10.5761 84.6319 9.49719 84.6017 9.48627C84.4237 9.42071 84.2594 9.31145 84.128 9.17488C79.2149 3.99053 73.3022 1.80261 66.5542 2.67122C61.4357 3.32951 57.7139 5.58844 57.6783 5.6103C57.0922 5.97085 56.3227 5.79057 55.9612 5.20604C55.5997 4.6215 55.7777 3.85395 56.3637 3.4934C56.5308 3.3896 60.5073 0.961314 66.1352 0.21562C71.3303 -0.472714 78.93 0.201963 85.7574 7.27377C86.6448 7.66983 89.356 9.08201 91.8591 12.4909C94.532 16.1347 97.5116 22.9006 96.5175 34.4602C96.4627 35.1103 95.915 35.5992 95.2742 35.5992V35.5938Z" fill="#3E3A39"/>
<path d="M30.9657 52.0267C30.4043 52.0267 29.8921 51.6471 29.7552 51.0762L28.2079 44.7828C28.0436 44.1136 28.4544 43.439 29.1226 43.2778C29.7936 43.1139 30.47 43.5236 30.6316 44.1901L32.1789 50.4835C32.3432 51.1527 31.9324 51.8246 31.2642 51.9885C31.1629 52.0131 31.0643 52.024 30.9657 52.024V52.0267Z" fill="#3E3A39"/>
<path d="M92.8039 47.7546C92.7574 47.7546 92.7136 47.7546 92.667 47.7464C91.9823 47.6727 91.4866 47.0553 91.5606 46.3725L92.478 38.0278C92.5547 37.3449 93.1682 36.8505 93.8556 36.9243C94.5402 36.998 95.0359 37.6153 94.962 38.2982L94.0445 46.6429C93.9733 47.2793 93.4338 47.7519 92.8039 47.7519V47.7546Z" fill="#3E3A39"/>
<path d="M31.0725 51.9884L43.5113 47.8857L42.7089 52.0649L35.4488 52.9909L31.0725 51.9884Z" fill="#3E3A39"/>
<path d="M95.3153 46.4241L82.3533 44.5229L83.8651 48.5L92.1549 49.161L95.3153 46.4241Z" fill="#3E3A39"/>
<path d="M59.5323 74.1377C59.1654 74.1377 58.8011 73.9766 58.5546 73.6679C58.1274 73.1298 58.2123 72.3513 58.7491 71.9225C58.9709 71.7449 64.2702 67.604 72.7325 69.0162C73.4117 69.1309 73.8718 69.7728 73.7568 70.4502C73.6417 71.1276 72.9982 71.5865 72.319 71.4718C65.0041 70.2508 60.3539 73.8318 60.3074 73.8673C60.0773 74.0476 59.8035 74.135 59.5323 74.135V74.1377Z" fill="#3E3A39"/>
<path d="M107.357 27.4924C105.352 27.5497 103.947 25.411 103.044 23.8923C102.644 23.2203 101.973 22.0403 102.504 21.2783C102.904 20.7046 103.846 20.5025 104.481 20.1283C105.503 19.5274 105.843 18.5823 105.541 17.446C105.413 16.9598 105.344 16.5528 105.555 16.0748C105.755 15.6214 106.108 15.2253 106.516 14.9521C107.513 14.2857 108.759 14.1054 109.912 13.8787C111.298 13.6055 112.684 13.3351 114.078 13.1029C116.666 12.6741 119.358 12.3217 121.984 12.5484C123.901 12.7151 126.152 13.4416 126.859 15.4247C127.138 16.2059 127.212 17.0909 126.864 17.8093C126.656 18.2354 126.336 18.4894 125.969 18.7871C125.484 19.1805 125.172 19.735 125.18 20.3687C125.199 21.6006 126.128 22.4009 127.004 23.1165C127.363 23.4088 127.79 23.7448 127.897 24.2201C127.993 24.6489 127.806 25.0805 127.565 25.4301C126.914 26.3725 125.714 26.7358 124.706 27.1619C123.611 27.6235 122.693 28.2599 121.784 29.0193C120.99 29.6803 120.187 30.4287 119.207 30.8029C118.032 31.2509 116.767 31.0815 115.584 30.762C114.938 30.5871 114.305 30.3659 113.675 30.1392C113.278 29.9971 112.821 30.3003 112.714 30.6827C112.596 31.1143 112.862 31.4967 113.259 31.6415C114.636 32.1332 116.058 32.6084 117.534 32.6358C118.889 32.6603 120.146 32.2178 121.242 31.4366C122.23 30.7319 123.085 29.8496 124.112 29.1995C125.221 28.4976 126.547 28.2189 127.637 27.4814C128.664 26.7877 129.581 25.5858 129.471 24.2829C129.414 23.6055 129.124 23.0237 128.666 22.5265C128.266 22.0922 127.76 21.7754 127.33 21.3739C127.061 21.1226 126.651 20.6582 126.746 20.2621C126.799 20.0464 127.048 19.9043 127.212 19.7732C127.434 19.5984 127.631 19.4181 127.809 19.1969C128.494 18.3392 128.751 17.2329 128.62 16.1513C128.483 15.0286 128.014 13.9688 127.248 13.1302C126.399 12.207 125.177 11.6252 123.978 11.3111C121.258 10.6009 118.273 10.9478 115.529 11.3165C114.028 11.5187 112.538 11.7836 111.054 12.0677C109.677 12.3327 108.214 12.5129 106.9 13.0237C105.623 13.5208 104.523 14.3676 104.035 15.6842C103.805 16.3042 103.802 16.9652 103.964 17.5989C104.019 17.812 104.139 18.0715 104.12 18.2955C104.117 18.3419 104.095 18.4075 104.079 18.4512C104.095 18.4129 104.134 18.3583 104.06 18.4758C104.06 18.4758 103.986 18.5795 104.032 18.5222C104.079 18.4621 103.95 18.6014 103.936 18.6151C103.857 18.6861 103.923 18.6396 103.805 18.7134C103.72 18.7653 103.635 18.8172 103.545 18.8636C103.331 18.9783 103.109 19.0739 102.89 19.175C102.441 19.3799 102.011 19.6039 101.633 19.9289C100.647 20.7811 100.62 22.1633 101.042 23.305C101.472 24.4768 102.203 25.5284 102.967 26.5036C103.695 27.4323 104.572 28.2818 105.681 28.7379C106.215 28.9564 106.782 29.063 107.36 29.0466C108.362 29.0193 108.368 27.4623 107.36 27.4896L107.357 27.4924Z" fill="#3E3A39"/>
<path d="M117.635 33.152C117.597 33.152 117.561 33.152 117.523 33.152C115.986 33.1247 114.543 32.6521 113.081 32.1277C112.391 31.8818 112.024 31.2154 112.21 30.5434C112.303 30.202 112.558 29.8988 112.886 29.7267C113.196 29.5655 113.538 29.5382 113.848 29.6475C114.475 29.8715 115.088 30.0873 115.718 30.2566C117.115 30.6363 118.134 30.6527 119.018 30.314C119.79 30.019 120.475 29.4399 121.138 28.8799C121.242 28.7925 121.346 28.7051 121.45 28.6177C122.537 27.7109 123.479 27.1154 124.504 26.6811C124.657 26.6155 124.816 26.5527 124.977 26.4872C125.813 26.1512 126.675 25.8043 127.138 25.1323C127.286 24.9166 127.45 24.6024 127.39 24.3266C127.327 24.0452 127.004 23.7803 126.716 23.5454L126.675 23.5126C125.835 22.8242 124.684 21.8846 124.662 20.3686C124.651 19.6066 124.999 18.8991 125.643 18.3774L125.673 18.3528C126.007 18.0824 126.248 17.8857 126.399 17.5771C126.648 17.0635 126.64 16.3397 126.371 15.5913C125.681 13.6601 123.299 13.1739 121.94 13.0565C119.374 12.8352 116.688 13.1903 114.163 13.6082C112.782 13.8349 111.413 14.1026 110.013 14.3785L109.622 14.455C108.63 14.6435 107.603 14.8401 106.809 15.3755C106.467 15.6049 106.185 15.9327 106.034 16.2769C105.897 16.591 105.927 16.8587 106.048 17.3066C106.418 18.6997 105.958 19.8579 104.75 20.568C104.509 20.7101 104.24 20.8248 103.983 20.9368C103.556 21.1198 103.118 21.3083 102.937 21.5678C102.581 22.0813 103.246 23.2012 103.496 23.6218C104.481 25.2798 105.7 26.9706 107.283 26.9706C107.305 26.9706 107.324 26.9706 107.346 26.9706C107.809 26.9542 108.209 27.1646 108.439 27.5388C108.688 27.943 108.699 28.4784 108.469 28.9073C108.25 29.3115 107.85 29.5519 107.376 29.5655C106.73 29.5819 106.089 29.4672 105.484 29.2186C104.443 28.7898 103.487 28.0059 102.559 26.8231C101.836 25.9026 101.034 24.7854 100.554 23.4825C100.108 22.2698 100.067 20.5954 101.294 19.5355C101.729 19.1586 102.214 18.9128 102.674 18.7024L102.789 18.6505C102.97 18.5686 103.14 18.4921 103.301 18.4047C103.381 18.3637 103.457 18.3173 103.534 18.2709L103.567 18.2517C103.567 18.2517 103.58 18.2381 103.589 18.2299L103.597 18.2217L103.608 18.2108C103.6 18.1589 103.559 18.0332 103.531 17.954C103.507 17.8748 103.482 17.801 103.463 17.73C103.268 16.9598 103.298 16.1895 103.55 15.5066C104.041 14.1818 105.136 13.1575 106.713 12.5429C107.792 12.1223 108.945 11.9202 110.063 11.7235C110.364 11.6716 110.663 11.617 110.958 11.5623C112.758 11.2182 114.146 10.9833 115.461 10.8057C118.457 10.4015 121.373 10.0983 124.109 10.8112C125.136 11.0789 126.582 11.6388 127.631 12.7833C128.464 13.6902 128.984 14.8347 129.137 16.0911C129.291 17.3695 128.965 18.5877 128.214 19.5219C128.031 19.7513 127.82 19.9535 127.535 20.1829C127.5 20.2102 127.461 20.2403 127.42 20.2703C127.368 20.3085 127.289 20.3659 127.253 20.4041C127.264 20.4834 127.374 20.7073 127.686 20.9969C127.85 21.1498 128.028 21.2919 128.217 21.4394C128.499 21.6606 128.79 21.8928 129.05 22.1769C129.608 22.786 129.926 23.4798 129.989 24.2419C130.123 25.8316 129.011 27.181 127.927 27.913C127.316 28.3254 126.651 28.5986 126.004 28.8635C125.426 29.1012 124.882 29.3252 124.386 29.6366C123.835 29.9835 123.337 30.4014 122.811 30.8466C122.406 31.188 121.987 31.5404 121.54 31.86C120.349 32.7095 118.999 33.1547 117.632 33.1547L117.635 33.152ZM113.461 30.6199C113.423 30.6199 113.382 30.639 113.366 30.6472C113.292 30.6854 113.229 30.7537 113.212 30.8166C113.149 31.0405 113.401 31.1389 113.431 31.1471C114.812 31.6415 116.162 32.0867 117.542 32.1113C118.733 32.1331 119.881 31.7617 120.938 31.0105C121.351 30.7155 121.738 30.3932 122.143 30.049C122.671 29.6038 123.222 29.1422 123.833 28.757C124.405 28.3965 125.018 28.1452 125.61 27.8993C126.234 27.6426 126.823 27.4022 127.344 27.0471C128.146 26.5063 129.05 25.4656 128.954 24.3238C128.91 23.7912 128.691 23.3159 128.283 22.8734C128.077 22.6494 127.831 22.4555 127.571 22.2479C127.374 22.0922 127.171 21.931 126.977 21.7508C126.558 21.3602 126.092 20.7647 126.243 20.1392C126.328 19.7786 126.615 19.5683 126.807 19.429C126.837 19.4072 126.864 19.3853 126.892 19.3662C127.113 19.1886 127.272 19.0384 127.407 18.8718C127.979 18.1561 128.228 17.211 128.108 16.2113C127.982 15.1706 127.552 14.2255 126.867 13.4798C125.988 12.5238 124.742 12.0458 123.849 11.8109C121.297 11.1444 118.492 11.4394 115.603 11.83C114.308 12.0048 112.936 12.2343 111.155 12.5757C110.854 12.6331 110.55 12.6877 110.246 12.7396C109.178 12.9281 108.075 13.122 107.094 13.5044C105.782 14.0152 104.92 14.8073 104.528 15.8617C104.345 16.3534 104.328 16.8942 104.473 17.4705C104.487 17.5224 104.503 17.5743 104.523 17.6317C104.586 17.8284 104.665 18.0742 104.643 18.3364L104.758 18.4375L104.443 18.8417C104.41 18.8827 104.377 18.9182 104.339 18.9455C104.314 18.9701 104.292 18.992 104.287 18.9974C104.216 19.0685 104.175 19.0958 104.125 19.1231L104.076 19.1531C103.983 19.2105 103.887 19.2679 103.791 19.3198C103.6 19.4208 103.405 19.511 103.219 19.5956L103.107 19.6475C102.718 19.8251 102.312 20.0299 101.973 20.3222C101.146 21.0351 101.201 22.2397 101.529 23.1247C101.959 24.2938 102.704 25.3263 103.378 26.184C104.191 27.2219 105.01 27.8993 105.881 28.2599C106.349 28.4538 106.839 28.544 107.346 28.5303C107.447 28.5276 107.513 28.4921 107.554 28.4156C107.606 28.3173 107.606 28.1725 107.554 28.0851C107.53 28.0441 107.488 28.0086 107.376 28.0113C107.346 28.0113 107.313 28.0113 107.283 28.0113C104.892 28.0113 103.348 25.4137 102.6 24.1545C102.192 23.4689 101.343 22.0403 102.08 20.9805C102.43 20.4752 103.035 20.2157 103.569 19.9862C103.808 19.8824 104.035 19.7868 104.219 19.6776C105.021 19.205 105.289 18.5167 105.04 17.5743C104.903 17.0635 104.796 16.5091 105.081 15.8617C105.314 15.3345 105.722 14.8565 106.229 14.5178C107.201 13.865 108.332 13.6492 109.427 13.4416L109.814 13.3679C111.221 13.0892 112.601 12.8216 113.995 12.5894C116.586 12.1605 119.352 11.7972 122.031 12.0294C123.638 12.1687 126.467 12.7724 127.352 15.2498C127.716 16.2714 127.711 17.2629 127.335 18.036C127.083 18.5549 126.7 18.8663 126.328 19.1668L126.297 19.1914C125.908 19.5082 125.695 19.9234 125.703 20.3604C125.717 21.3165 126.418 21.9666 127.335 22.715L127.374 22.7478C127.771 23.0728 128.264 23.4743 128.403 24.108C128.516 24.6134 128.373 25.1733 127.993 25.7251C127.352 26.6565 126.295 27.0799 125.364 27.4541C125.21 27.5169 125.057 27.577 124.909 27.6398C123.983 28.0304 123.123 28.5795 122.118 29.418C122.017 29.5027 121.916 29.5901 121.812 29.6748C121.083 30.2921 120.33 30.9285 119.391 31.2864C117.958 31.8327 116.452 31.5349 115.444 31.2618C114.779 31.0815 114.143 30.8575 113.497 30.6281C113.486 30.6254 113.475 30.6226 113.464 30.6226L113.461 30.6199ZM104.12 18.5959L104.361 18.8554C104.388 18.839 104.413 18.8226 104.438 18.8035L104.123 18.5959H104.12ZM104.561 18.6423C104.55 18.6615 104.542 18.6806 104.531 18.6997C104.544 18.6806 104.553 18.6615 104.561 18.6423Z" fill="#3E3A39"/>
<path d="M107.916 32.532C106.998 31.8846 105.826 32.6604 105.528 33.5891C105.218 34.5588 105.938 35.5175 106.785 35.9136C107.614 36.3014 108.63 36.3943 109.499 36.0665C109.929 35.9054 110.331 35.665 110.63 35.3099C110.95 34.9248 111.114 34.5014 111.155 34.0043C111.232 33.0728 110.638 32.0458 109.682 31.8437C109.285 31.759 108.819 31.9611 108.721 32.3872C108.63 32.7778 108.839 33.2558 109.266 33.346C109.31 33.3542 109.389 33.3951 109.433 33.3924C109.411 33.3924 109.266 33.3023 109.362 33.3678C109.384 33.3815 109.411 33.3979 109.433 33.4115C109.537 33.4689 109.307 33.2832 109.422 33.4088C109.441 33.4279 109.46 33.4525 109.479 33.4689C109.548 33.5263 109.381 33.3187 109.449 33.4279C109.479 33.4771 109.507 33.5263 109.537 33.5754C109.603 33.6874 109.485 33.4115 109.537 33.57C109.553 33.6273 109.57 33.682 109.586 33.742C109.592 33.7612 109.589 33.7912 109.6 33.8076C109.586 33.6819 109.581 33.6492 109.586 33.712C109.586 33.7338 109.592 33.7557 109.592 33.7803C109.594 33.8322 109.594 33.8841 109.592 33.9387C109.592 33.9688 109.586 33.9988 109.586 34.0288C109.586 34.1299 109.625 33.8595 109.594 33.9551C109.581 34.0043 109.573 34.0562 109.556 34.1081C109.553 34.1217 109.526 34.1736 109.526 34.1927C109.575 34.0835 109.586 34.0562 109.562 34.1081C109.553 34.1272 109.542 34.149 109.531 34.1682C109.521 34.1873 109.507 34.2064 109.499 34.2255C109.479 34.2583 109.466 34.3293 109.49 34.2474C109.515 34.1627 109.499 34.2392 109.466 34.2747C109.447 34.2938 109.43 34.3157 109.411 34.3348C109.386 34.3594 109.359 34.3839 109.334 34.4085C109.241 34.5041 109.343 34.3976 109.367 34.3894C109.304 34.4085 109.222 34.4877 109.164 34.5205C109.137 34.5369 108.929 34.6243 109.039 34.5861C109.143 34.5506 108.962 34.6107 108.926 34.6216C108.855 34.6434 108.784 34.6626 108.713 34.6762C108.677 34.6844 108.639 34.6899 108.603 34.6981C108.455 34.7254 108.715 34.6926 108.617 34.6981C108.474 34.7035 108.337 34.7145 108.195 34.709C108.124 34.7063 108.042 34.6844 107.973 34.6899C107.995 34.6899 108.154 34.7226 108.017 34.6926C107.981 34.6844 107.946 34.6789 107.91 34.6707C107.773 34.6407 107.625 34.556 107.488 34.5396C107.513 34.5424 107.642 34.6161 107.524 34.5506C107.491 34.5342 107.458 34.5178 107.425 34.4987C107.362 34.4632 107.302 34.4222 107.239 34.3839C107.111 34.2993 107.269 34.4085 107.269 34.4085C107.258 34.4085 107.19 34.3375 107.19 34.3375C107.165 34.3129 107.141 34.2883 107.116 34.261C107.058 34.2037 107.108 34.1955 107.138 34.2965C107.121 34.2474 107.067 34.19 107.042 34.1436L107.031 34.1217C107.001 34.0589 107.001 34.0589 107.031 34.1217C107.056 34.1818 107.058 34.1818 107.034 34.1163L107.02 34.0644C106.982 33.9606 107.069 34.0562 107.023 34.1245C107.034 34.1081 107.023 34.0261 107.023 34.007C107.015 33.9141 106.968 34.1518 107.017 34.0753C107.023 34.0671 107.053 33.9633 107.053 33.9633C107.064 33.9824 106.96 34.1299 107.034 34.0207C107.05 33.9933 107.067 33.966 107.083 33.9387C107.152 33.8185 107.064 33.9851 107.048 33.9824C107.048 33.9824 107.143 33.8841 107.146 33.8813C107.163 33.865 107.226 33.8021 107.141 33.8813C107.05 33.966 107.152 33.8813 107.176 33.865C107.275 33.7939 107.138 33.8895 107.111 33.8868C107.121 33.8868 107.201 33.8622 107.215 33.854C107.297 33.8076 107.039 33.8677 107.135 33.865C107.283 33.8595 107.102 33.8759 107.075 33.8486C107.075 33.8486 107.152 33.8732 107.157 33.8732C107.091 33.8841 106.998 33.7885 107.13 33.8813C107.464 34.1163 108.012 33.9524 108.198 33.6027C108.409 33.2012 108.274 32.7888 107.918 32.5375L107.916 32.532Z" fill="#3E3A39"/>
<path d="M108.359 36.3968C107.809 36.3968 107.245 36.2739 106.727 36.0335C105.834 35.6156 105.065 34.605 105.402 33.5506C105.588 32.9634 106.105 32.4389 106.683 32.245C107.143 32.092 107.606 32.1548 107.987 32.4252C108.417 32.7284 108.543 33.2119 108.307 33.6571C108.198 33.8675 107.976 34.0286 107.713 34.0887C107.516 34.1352 107.321 34.1188 107.16 34.045C107.16 34.0587 107.16 34.0751 107.16 34.0915C107.168 34.1051 107.176 34.116 107.184 34.1242C107.204 34.1461 107.223 34.1707 107.237 34.2007L107.275 34.239C107.275 34.239 107.294 34.2581 107.308 34.2745C107.379 34.3209 107.428 34.3537 107.48 34.381L107.543 34.4138C107.62 34.4274 107.691 34.4575 107.765 34.4848C107.82 34.5066 107.877 34.5285 107.932 34.5394L108.003 34.5531C108.044 34.5531 108.083 34.5585 108.118 34.564C108.143 34.5667 108.17 34.5722 108.195 34.5722C108.302 34.5777 108.406 34.5722 108.51 34.5667L108.68 34.5476C108.748 34.534 108.817 34.5148 108.882 34.4957L108.959 34.4711C108.984 34.4575 109.011 34.4438 109.039 34.4329C109.063 34.422 109.088 34.411 109.099 34.4056C109.118 34.3946 109.137 34.3783 109.162 34.3619C109.195 34.3373 109.23 34.31 109.269 34.2881L109.318 34.2417C109.337 34.2226 109.353 34.2062 109.37 34.1871C109.37 34.1871 109.375 34.1789 109.384 34.1625L109.43 34.045H109.441C109.441 34.045 109.449 34.0177 109.452 34.0013C109.455 33.9849 109.46 33.9685 109.463 33.9549V33.933C109.466 33.8921 109.466 33.8511 109.463 33.8074C109.463 33.7992 109.463 33.7883 109.46 33.7828C109.447 33.7282 109.433 33.679 109.419 33.6298L109.364 33.5397C109.364 33.5397 109.348 33.5206 109.34 33.5124C109.321 33.5042 109.304 33.4987 109.285 33.4905C109.269 33.4851 109.252 33.4769 109.238 33.4741C109.03 33.4304 108.847 33.3021 108.726 33.1136C108.587 32.8951 108.537 32.6137 108.595 32.3624C108.713 31.8462 109.266 31.6277 109.709 31.7205C110.78 31.9445 111.361 33.089 111.287 34.0177C111.243 34.5476 111.062 34.9983 110.731 35.3971C110.452 35.7331 110.052 36.0008 109.545 36.192C109.178 36.3313 108.773 36.3996 108.362 36.3996L108.359 36.3968ZM107.176 32.4225C107.023 32.4225 106.88 32.4526 106.765 32.4908C106.262 32.6602 105.812 33.1163 105.648 33.6298C105.358 34.5421 106.042 35.4271 106.837 35.7986C107.677 36.192 108.655 36.2493 109.449 35.9461C109.912 35.7713 110.274 35.5282 110.526 35.2277C110.821 34.8727 110.983 34.4684 111.021 33.9931C111.087 33.1737 110.583 32.1658 109.652 31.9718C109.329 31.9035 108.929 32.0538 108.844 32.4171C108.803 32.6028 108.839 32.8104 108.943 32.9715C109.003 33.0644 109.11 33.1819 109.29 33.2201C109.318 33.2146 109.353 33.2146 109.397 33.2365C109.406 33.2365 109.414 33.2365 109.425 33.242L109.455 33.2201L109.54 33.3157C109.54 33.3157 109.551 33.3294 109.556 33.3348C109.575 33.3567 109.603 33.3895 109.616 33.4304C109.633 33.4468 109.647 33.4687 109.66 33.496C109.679 33.537 109.688 33.5752 109.688 33.6052C109.699 33.6244 109.704 33.6462 109.709 33.6708C109.709 33.6708 109.709 33.6954 109.712 33.7036C109.718 33.7309 109.72 33.7582 109.723 33.7883L109.794 34.4001L109.668 34.1871C109.66 34.2034 109.655 34.2198 109.647 34.239L109.422 34.7443L109.411 34.5066C109.411 34.5066 109.4 34.5176 109.395 34.523C109.389 34.5285 109.386 34.534 109.384 34.534C109.359 34.5531 109.334 34.5695 109.307 34.5722C109.277 34.594 109.249 34.6132 109.225 34.6268C109.217 34.6323 109.186 34.6459 109.156 34.6596C109.143 34.6705 109.123 34.6842 109.102 34.6924H109.099C109.099 34.6924 109.085 34.6978 109.077 34.7006C109.066 34.7033 109.055 34.7088 109.044 34.7088L108.959 34.7361C108.885 34.7579 108.808 34.7771 108.735 34.7934L108.688 34.8016C108.652 34.818 108.611 34.8208 108.589 34.8235L108.463 34.8371L108.458 34.8208C108.368 34.8262 108.277 34.8262 108.184 34.8208H108.173V34.8371L108.033 34.8126C108.017 34.8098 107.981 34.8016 107.965 34.8016L107.875 34.7798C107.809 34.7661 107.74 34.7388 107.672 34.7142C107.647 34.706 107.625 34.6951 107.601 34.6869C107.568 34.6951 107.538 34.6869 107.505 34.6733C107.505 34.6733 107.467 34.6541 107.447 34.6459L107.354 34.594C107.308 34.5695 107.264 34.5421 107.22 34.5121C107.201 34.5066 107.182 34.493 107.163 34.4766C107.116 34.4493 107.072 34.4083 107.061 34.3783C107.056 34.3728 107.05 34.3673 107.048 34.3646L107.02 34.3346C106.987 34.3018 106.971 34.2745 106.963 34.2471V34.2417C106.938 34.2226 106.924 34.1952 106.916 34.1761C106.875 34.1461 106.842 34.086 106.872 33.9658C106.883 33.9166 106.905 33.8866 106.93 33.8675L106.908 33.8456L106.919 33.8292L106.9 33.7883L106.976 33.7227C107.023 33.6845 107.069 33.6845 107.113 33.7036C107.127 33.7009 107.146 33.6954 107.165 33.6927L107.231 33.6544L107.267 33.6981C107.299 33.709 107.327 33.7309 107.346 33.7719L107.371 33.8292C107.458 33.8484 107.554 33.8456 107.656 33.8238C107.842 33.7801 108.003 33.6653 108.077 33.5233C108.25 33.1955 108.159 32.8514 107.836 32.6246C107.609 32.4635 107.379 32.4089 107.174 32.4089L107.176 32.4225ZM107.02 34.3318C107.02 34.3318 107.034 34.3373 107.048 34.34L107.042 34.3236L107.02 34.3291V34.3318Z" fill="#3E3A39"/>
<path d="M102.463 36.2934C102.107 36.3262 101.8 36.4273 101.518 36.6458C101.294 36.8206 101.102 37.0391 100.981 37.3013C100.716 37.8804 100.686 38.566 101.055 39.1123C101.428 39.6641 102.008 39.9591 102.663 40.0273C103.271 40.0902 103.876 39.8361 104.314 39.4237C104.818 38.9457 105.092 38.2355 105.089 37.5472C105.087 37.1402 104.733 36.7496 104.309 36.7687C103.887 36.7878 103.526 37.1101 103.528 37.5472C103.528 37.6373 103.523 37.7247 103.512 37.8149C103.52 37.7466 103.531 37.6755 103.539 37.6073C103.528 37.6892 103.512 37.7711 103.49 37.8531C103.479 37.8968 103.465 37.9405 103.449 37.9815C103.427 38.0416 103.359 38.1481 103.471 37.9378C103.435 38.0061 103.402 38.0743 103.364 38.1399C103.345 38.1727 103.323 38.2027 103.301 38.2355C103.224 38.353 103.433 38.0825 103.318 38.2109C103.263 38.2737 103.203 38.3284 103.142 38.383C103.044 38.4704 103.301 38.2792 103.181 38.353C103.148 38.3721 103.118 38.3939 103.085 38.413C103.052 38.4322 103.016 38.4458 102.983 38.4649C103.183 38.353 103.104 38.4158 103.038 38.4376C102.962 38.4622 102.885 38.4786 102.803 38.4923C102.871 38.4841 102.942 38.4731 103.011 38.4649C102.885 38.4813 102.759 38.4786 102.633 38.4649C102.701 38.4731 102.773 38.4841 102.841 38.4923C102.726 38.4759 102.619 38.4376 102.51 38.4049C102.751 38.4731 102.589 38.4376 102.51 38.3939C102.48 38.3775 102.452 38.3584 102.425 38.3393C102.323 38.2765 102.551 38.454 102.488 38.3885C102.449 38.3475 102.406 38.312 102.367 38.271C102.315 38.2164 102.329 38.1672 102.417 38.3366C102.403 38.312 102.384 38.2901 102.37 38.2655C102.356 38.241 102.343 38.2164 102.329 38.1918C102.271 38.0853 102.384 38.3557 102.362 38.271C102.348 38.2109 102.329 38.1563 102.321 38.0962C102.329 38.1645 102.34 38.2355 102.348 38.3038C102.334 38.2055 102.337 38.1071 102.348 38.0088C102.34 38.0771 102.329 38.1481 102.321 38.2164C102.329 38.1672 102.337 38.118 102.351 38.0716C102.359 38.0443 102.367 38.0197 102.375 37.9924C102.403 37.8941 102.343 38.0853 102.334 38.0853C102.34 38.0853 102.403 37.9514 102.411 37.9405C102.422 37.9214 102.436 37.905 102.447 37.8859C102.51 37.7875 102.332 38.0142 102.395 37.9542C102.43 37.9214 102.463 37.8859 102.496 37.8504C102.567 37.7793 102.422 37.9159 102.414 37.9105C102.422 37.9132 102.474 37.8695 102.48 37.8667C102.499 37.8558 102.518 37.8449 102.534 37.8367C102.652 37.7684 102.46 37.8804 102.449 37.8695C102.455 37.8749 102.589 37.834 102.605 37.8312C102.537 37.8394 102.466 37.8504 102.397 37.8586C102.419 37.8558 102.441 37.8531 102.463 37.8504C102.674 37.8312 102.86 37.7766 103.016 37.6236C103.15 37.4898 103.255 37.2658 103.244 37.0719C103.227 36.6813 102.899 36.2552 102.463 36.2934Z" fill="#3E3A39"/>
<path d="M102.844 40.1666C102.778 40.1666 102.712 40.1639 102.649 40.1557C101.913 40.0792 101.327 39.7432 100.949 39.186C100.584 38.6479 100.554 37.924 100.864 37.2494C100.984 36.9871 101.181 36.744 101.439 36.5474C101.726 36.3261 102.05 36.2032 102.452 36.1677C102.66 36.1486 102.863 36.2169 103.033 36.3644C103.233 36.5392 103.364 36.8069 103.375 37.0691C103.386 37.2876 103.276 37.5471 103.109 37.7164C102.978 37.8476 102.825 37.924 102.619 37.9623L102.595 37.9705C102.578 37.9759 102.562 37.9814 102.545 37.9841L102.501 38.0442C102.493 38.0579 102.488 38.0715 102.482 38.0852L102.474 38.107C102.474 38.107 102.471 38.1234 102.469 38.1316C102.469 38.1426 102.469 38.1562 102.469 38.1699V38.1808C102.482 38.1945 102.49 38.2108 102.501 38.2272L102.518 38.2409C102.518 38.2409 102.537 38.26 102.545 38.2682C102.556 38.2737 102.564 38.2791 102.575 38.2873C102.586 38.2928 102.605 38.301 102.622 38.3092C102.627 38.3092 102.636 38.3119 102.641 38.3146C102.685 38.3283 102.726 38.3392 102.767 38.3501C102.808 38.3501 102.849 38.3501 102.89 38.3501C102.918 38.3447 102.942 38.3365 102.967 38.331C102.994 38.3146 103.019 38.3037 103.041 38.2955C103.052 38.2901 103.06 38.2846 103.071 38.2764L103.096 38.2627C103.137 38.2245 103.178 38.1863 103.216 38.1426L103.222 38.1316C103.233 38.1152 103.246 38.0961 103.257 38.077C103.276 38.047 103.29 38.0169 103.307 37.9869C103.315 37.9677 103.326 37.9486 103.337 37.924C103.348 37.8913 103.359 37.8558 103.37 37.823C103.381 37.782 103.389 37.7438 103.397 37.7028C103.4 37.6536 103.402 37.6045 103.402 37.5526C103.4 37.0664 103.797 36.6648 104.306 36.643C104.536 36.632 104.75 36.7195 104.925 36.8833C105.111 37.0609 105.221 37.304 105.224 37.5498C105.229 38.2983 104.925 39.0358 104.408 39.522C103.969 39.9344 103.4 40.1693 102.849 40.1693L102.844 40.1666ZM102.474 36.4245C102.123 36.4545 101.844 36.5583 101.595 36.7495C101.373 36.9216 101.201 37.1292 101.099 37.3559C100.828 37.9486 100.85 38.5796 101.162 39.0412C101.496 39.5356 102.019 39.8306 102.674 39.8989C103.208 39.9563 103.786 39.7432 104.224 39.3308C104.687 38.8937 104.963 38.2272 104.958 37.5498C104.958 37.3777 104.876 37.1975 104.742 37.0691C104.618 36.9516 104.465 36.8915 104.314 36.8997C103.945 36.9161 103.654 37.2002 103.657 37.5471C103.657 37.5744 103.657 37.599 103.657 37.6236H103.668L103.641 37.8312H103.63C103.624 37.8476 103.622 37.8667 103.616 37.8858C103.605 37.9213 103.594 37.9596 103.583 37.9951H103.586L103.572 38.0251C103.553 38.0797 103.531 38.118 103.512 38.1398C103.501 38.1617 103.49 38.1808 103.476 38.2027C103.465 38.2436 103.438 38.2791 103.424 38.2983C103.405 38.3228 103.372 38.3665 103.328 38.3857C103.307 38.4321 103.26 38.4676 103.233 38.4867C103.2 38.5113 103.17 38.525 103.142 38.5332C103.123 38.5441 103.101 38.5523 103.077 38.5605H103.074C103.074 38.5605 103.055 38.5714 103.044 38.5769V38.5714C103.044 38.5714 103.03 38.5741 103.025 38.5769V38.5933L102.819 38.6206L102.614 38.5933V38.5741H102.611C102.584 38.5687 102.553 38.5605 102.512 38.5441L102.485 38.5359C102.43 38.5277 102.381 38.4867 102.343 38.4567C102.318 38.4348 102.299 38.4157 102.288 38.3966C102.266 38.3775 102.247 38.3502 102.233 38.3228H102.222L102.217 38.2846C102.217 38.2846 102.208 38.2627 102.203 38.2518C102.181 38.1917 102.181 38.1508 102.195 38.1207C102.195 38.1207 102.203 38.1016 102.208 38.0961L102.222 37.9978H102.236C102.236 37.9978 102.247 37.9677 102.252 37.9568V37.9459C102.266 37.8967 102.304 37.8503 102.334 37.812C102.354 37.7875 102.373 37.7711 102.389 37.7602V37.7328C102.389 37.7328 102.403 37.7328 102.411 37.7301L102.452 37.7246C102.48 37.7083 102.504 37.7028 102.526 37.7028C102.562 37.6891 102.597 37.6837 102.633 37.6973C102.756 37.6673 102.849 37.6154 102.931 37.5334C103.049 37.416 103.129 37.2275 103.123 37.08C103.115 36.8861 103.016 36.6867 102.871 36.5583C102.792 36.4873 102.658 36.4081 102.485 36.4245H102.474ZM102.337 37.8066C102.337 37.8066 102.329 37.823 102.329 37.8312L102.345 37.8148L102.337 37.8093V37.8066Z" fill="#3E3A39"/>
</g>
<defs>
<clipPath id="clip0_345_7228">
<rect width="130" height="135" fill="white"/>
</clipPath>
</defs>
</svg>
