<svg width="130" height="135" viewBox="0 0 130 135" fill="none" xmlns="http://www.w3.org/2000/svg">
<g clip-path="url(#clip0_345_7194)">
<path d="M127.287 119.535C127.287 119.535 124.413 112.936 118.257 111.184L92.8612 103.949C92.8612 103.949 81.1045 102.658 79.2329 94.5769C79.2329 94.5769 77.4914 81.0947 82.2003 74.856H47.055C51.7667 81.0947 50.0224 94.5769 50.0224 94.5769C48.1508 102.658 36.3941 103.949 36.3941 103.949L10.9978 111.184C4.83914 112.939 1.40729 121.782 1.40729 121.782L4.07179 137.223L5.09965 138.208L63.5602 138.896H125.045L126.851 133.982L127.285 119.535H127.287Z" fill="white"/>
<path d="M48.4368 81.7822C48.4368 81.7822 51.8771 87.3359 50.467 92.8896L81.0366 98.2593C81.0366 98.2593 77.769 87.4435 79.23 83.7637L48.4368 81.7822Z" fill="#DCDDDD"/>
<path d="M102.177 50.0738C98.6234 46.1392 94.2373 49.1085 94.2373 49.1085L92.932 27.9157L79.5613 21.6826L64.6559 22.6535L62.6172 22.7866L47.7119 23.7575L35.2643 31.6719L36.7848 53.8102C36.7848 53.8102 32.3053 49.9351 29.2925 54.2971C29.2925 54.2971 25.5634 63.7146 38.379 71.3969C38.379 71.3969 41.6891 70.3779 42.4168 68.8748C42.4168 68.8748 49.7902 91.0273 67.9434 88.8533C86.224 88.6552 90.947 66.0923 90.947 66.0923C91.8645 67.4878 94.9962 67.7114 94.9962 67.7114C107.82 58.4524 102.174 50.0738 102.174 50.0738H102.177Z" fill="white"/>
<path d="M129.119 120.103C129.119 120.103 124.521 113.449 118.365 111.694L92.9688 104.459C61.8952 119.88 48.7312 108.945 41.6438 102.995C41.406 103.029 36.5045 104.459 36.5045 104.459L11.1082 111.694C4.94957 113.449 1.50922 121.202 1.50922 121.202L4.56164 137.294L4.91842 138.803L63.6677 139.408H124.923L125.605 136.535L129.114 120.106L129.119 120.103Z" fill="#00A0E6"/>
<path d="M66.7088 90.1383C59.729 90.1383 53.8677 86.3226 53.2249 85.8895C42.666 79.849 40.1091 65.3335 40.0043 64.7164C39.8854 64.0144 40.3583 63.3464 41.0633 63.2304C41.7656 63.1115 42.4338 63.5842 42.5499 64.289C42.5726 64.4277 45.0247 78.261 54.5444 83.6731L54.6379 83.7326C54.7002 83.775 60.9692 88.0153 67.8783 87.5171C74.8383 87.1152 80.4787 82.0993 80.5354 82.0484L80.6203 81.9776C89.3585 75.3766 89.9956 61.3423 90.0013 61.2008C90.0296 60.4903 90.6157 59.9327 91.3406 59.961C92.0513 59.9865 92.6092 60.5866 92.5808 61.297C92.5582 61.9226 91.9041 76.6475 82.2201 84.0043C81.6029 84.5478 75.6254 89.6542 68.0453 90.093C67.5951 90.127 67.1449 90.1411 66.7032 90.1411L66.7088 90.1383Z" fill="#3E3A39"/>
<path d="M38.6792 72.2147C34.8623 72.2147 31.2095 66.9951 30.7027 66.245C24.1731 57.5748 28.8169 52.6523 29.0179 52.4457L29.1085 52.3551L29.2161 52.2815C33.3644 49.4565 36.6518 51.5285 37.8099 53.0203C38.246 53.5836 38.144 54.3931 37.5834 54.8319C37.0227 55.2678 36.2186 55.1687 35.7797 54.6139C35.4597 54.2205 33.7523 52.4089 30.8046 54.3309C30.3516 54.8942 27.9957 58.3702 32.7924 64.7221L32.8349 64.7844C34.1006 66.6724 36.7934 69.6389 38.6792 69.6389C38.6934 69.6389 38.7104 69.6389 38.7245 69.6389C38.9624 69.6332 39.6872 69.6134 40.4688 68.3057C40.834 67.6942 41.6269 67.4933 42.2385 67.8584C42.8501 68.2236 43.0511 69.0161 42.6859 69.6276C41.4372 71.7166 39.877 72.1893 38.7896 72.2176C38.7557 72.2176 38.7189 72.2176 38.6849 72.2176L38.6792 72.2147Z" fill="#3E3A39"/>
<path d="M94.3478 68.5916C93.2944 68.5916 91.8985 68.1812 90.5761 66.5083C90.1344 65.9478 90.2307 65.1382 90.7885 64.6967C91.3491 64.2551 92.159 64.3513 92.6035 64.909C93.5464 66.1035 94.2685 66.0299 94.5063 66.0044C96.3865 65.8091 98.6999 62.4803 99.7193 60.4281L99.7532 60.363C103.669 53.4732 100.923 50.3312 100.373 49.8019C97.0179 48.1941 95.5455 50.6143 95.4861 50.719C95.1265 51.3333 94.3336 51.5399 93.7192 51.1804C93.1047 50.8209 92.898 50.0284 93.2576 49.4141C94.2119 47.7865 97.202 45.3069 101.682 47.5686L101.798 47.6252L101.9 47.7044C102.126 47.8828 107.37 52.1598 102.018 61.6056C101.611 62.4237 98.6149 68.167 94.781 68.5718C94.6451 68.5859 94.5035 68.5944 94.3534 68.5944L94.3478 68.5916Z" fill="#3E3A39"/>
<path d="M98.1137 22.2178C93.351 3.38285 70.8967 1.99018 70.8967 1.99018C56.8522 -1.51413 51.3759 9.20262 51.3759 9.20262C51.3759 9.20262 31.436 7.84958 27.6842 29.8917C27.6842 29.8917 24.1674 45.5422 33.2595 52.1687L36.0798 53.1424C34.4007 37.9986 43.2182 33.1525 43.2182 33.1525C43.153 36.6908 40.9246 41.8652 40.9246 41.8652C53.2306 37.6561 54.2839 24.3323 54.2839 24.3323C57.7073 29.4104 56.484 37.7381 56.484 37.7381C71.8085 30.9956 72.1256 20.8138 72.1256 20.8138C72.1256 20.8138 77.146 31.5334 89.7776 37.8627L94.2402 49.1116L96.2987 47.3708C101.557 38.3382 98.1166 22.2178 98.1166 22.2178H98.1137Z" fill="#3E3A39"/>
<path d="M36.077 54.4302C35.9354 54.4302 35.7938 54.4075 35.6551 54.3594L32.8348 53.3857C32.7131 53.3432 32.5998 53.2838 32.495 53.2073C22.9555 46.2553 26.1806 30.6925 26.4128 29.6395C28.4544 17.7113 35.151 12.4293 40.4121 10.0997C44.8435 8.13529 48.9521 7.89751 50.651 7.89185C51.3079 6.86717 52.7464 4.93102 55.1164 3.22981C58.1745 1.03608 63.4242 -1.17464 71.0978 0.707728C71.9897 0.775663 77.3215 1.27951 83.2339 3.85538C91.737 7.55784 97.3152 13.7965 99.3653 21.9006C99.3681 21.9148 99.3738 21.9318 99.3766 21.9487C99.521 22.6281 102.859 38.6636 97.4115 48.0188C97.3379 48.1462 97.2416 48.2594 97.1283 48.3556L95.0698 50.0965C94.7527 50.3654 94.3251 50.4645 93.923 50.3625C93.5209 50.2606 93.1896 49.9719 93.0367 49.587L88.7554 38.791C80.1163 34.3355 75.0393 27.978 72.6438 24.2953C71.2761 28.1053 67.4903 34.3044 57.0022 38.9212C56.5718 39.1108 56.0735 39.0514 55.6997 38.7655C55.3259 38.4796 55.1362 38.0154 55.2042 37.5511C55.2127 37.4917 55.8696 32.8042 54.737 28.5554C53.3976 33.0986 49.9715 40.1327 41.3408 43.085C40.8595 43.2492 40.3215 43.1162 39.976 42.7397C39.6277 42.366 39.5343 41.8197 39.7382 41.3527C39.7523 41.3187 40.7745 38.9268 41.4173 36.3821C39.1832 38.9155 36.3629 43.9993 37.3625 53.0007C37.4106 53.4394 37.2322 53.8754 36.8868 54.1499C36.6546 54.3368 36.3686 54.433 36.0798 54.433L36.077 54.4302ZM33.8683 51.0108L34.6272 51.2712C33.823 37.0133 42.2243 32.2239 42.5981 32.0173C43.003 31.7965 43.4928 31.805 43.8864 32.0427C44.28 32.2805 44.5179 32.7108 44.5094 33.1722C44.4725 35.1819 43.8128 37.6162 43.1955 39.4788C52.0215 34.7913 52.9587 24.6916 52.9984 24.2246C53.0437 23.6782 53.4288 23.2197 53.9583 23.081C54.4878 22.9423 55.0484 23.1518 55.3543 23.6075C57.8942 27.375 58.0924 32.6259 57.9593 35.615C70.3134 29.3961 70.8174 21.1307 70.8344 20.7655C70.8599 20.1711 71.2875 19.6673 71.8708 19.5512C72.4541 19.4351 73.0402 19.7267 73.2922 20.2645C73.3404 20.3664 78.3041 30.6671 90.3552 36.7048C90.6384 36.8463 90.8593 37.0898 90.9782 37.3841L94.7781 46.9658L95.2907 46.5327C99.9967 38.1484 96.9924 23.1716 96.8565 22.5092C94.9848 15.1411 90.0806 9.67232 82.2768 6.25575C76.3418 3.65724 70.8712 3.2836 70.8174 3.27794C70.741 3.27227 70.6617 3.26095 70.5852 3.24114C57.7554 0.0397005 52.7322 9.39209 52.5227 9.7912C52.2848 10.2469 51.795 10.5215 51.2881 10.4875C51.2428 10.4847 46.4745 10.2073 41.3663 12.5001C34.6045 15.5345 30.428 21.459 28.9556 30.1038C28.9527 30.1264 28.9471 30.1491 28.9414 30.1689C28.9074 30.3161 25.7672 44.8966 33.8655 51.0079L33.8683 51.0108Z" fill="#3E3A39"/>
<path d="M79.4849 42.8612C79.029 42.8612 76.2286 42.765 73.2611 40.509C72.6948 40.0787 72.5844 39.2691 73.0148 38.7002C73.4452 38.1312 74.255 38.0208 74.8241 38.4539C77.2395 40.2882 79.4424 40.2797 79.4707 40.2797C80.1815 40.257 80.7789 40.8203 80.7987 41.5336C80.8186 42.247 80.2579 42.8414 79.5472 42.8612C79.5387 42.8612 79.5189 42.8612 79.4877 42.8612H79.4849Z" fill="#3E3A39"/>
<path d="M50.3623 44.1833C49.9998 44.1833 49.7846 44.1578 49.7535 44.155C49.0456 44.0673 48.5444 43.4219 48.6322 42.7142C48.7199 42.0094 49.357 41.5084 50.0649 41.5905C50.1754 41.6018 52.3104 41.7999 54.8701 40.2091C55.4761 39.8327 56.2717 40.0195 56.6483 40.6252C57.0249 41.231 56.838 42.0264 56.2321 42.4029C53.7092 43.971 51.4184 44.1833 50.3651 44.1833H50.3623Z" fill="#3E3A39"/>
<path d="M67.3573 65.4272C67.1449 65.4272 66.9269 65.3734 66.7287 65.263L65.8367 64.7648C65.2138 64.4166 64.9929 63.6297 65.3412 63.007C65.6895 62.3842 66.4767 62.1634 67.0996 62.5116L67.9915 63.0098C68.6145 63.358 68.8353 64.1449 68.4871 64.7676C68.2492 65.1894 67.8103 65.4272 67.3601 65.4272H67.3573Z" fill="#3E3A39"/>
<path d="M77.4858 51.9135C76.1068 52.0041 74.9034 50.9482 74.8156 49.5697C74.725 48.1912 75.7812 46.9882 77.1601 46.9004C78.5391 46.8099 79.7425 47.8657 79.8303 49.2442C79.9209 50.6227 78.8647 51.8257 77.4858 51.9135Z" fill="#3E3A39"/>
<path d="M54.2556 53.4281C52.8766 53.5187 51.6732 52.4629 51.5854 51.0844C51.4948 49.7059 52.551 48.5028 53.93 48.4151C55.309 48.3245 56.5124 49.3803 56.6001 50.7588C56.6908 52.1374 55.6346 53.3404 54.2556 53.4281Z" fill="#3E3A39"/>
<path d="M4.91843 140.093C4.3323 140.093 3.80279 139.694 3.66405 139.1L0.0339788 123.789C0.0113263 123.693 0 123.591 0 123.492C0 114.154 9.16295 110.417 9.55087 110.264C9.59051 110.247 9.63015 110.236 9.67263 110.222L43.3768 100.62C51.3221 98.0841 49.2919 87.741 49.2013 87.3023C49.0569 86.606 49.5071 85.921 50.2037 85.7766C50.9002 85.6322 51.5826 86.0795 51.7299 86.7758C52.6699 91.2878 52.2962 100.501 44.1413 103.086C44.1299 103.089 44.1158 103.094 44.1045 103.097L10.4513 112.685C9.70944 112.996 2.67866 116.127 2.58522 123.345L6.17848 138.505C6.34271 139.199 5.91231 139.895 5.21858 140.059C5.11947 140.082 5.01753 140.093 4.91843 140.093Z" fill="#3E3A39"/>
<path d="M124.929 140.696C124.83 140.696 124.73 140.685 124.629 140.662C123.935 140.498 123.507 139.802 123.671 139.108L127.418 123.342C127.324 116.129 120.305 112.999 119.552 112.682L85.8984 103.094C85.8984 103.094 85.8729 103.089 85.8616 103.083C75.7047 99.8617 78.154 85.1085 78.2645 84.4829C78.3862 83.7809 79.0573 83.3111 79.7595 83.4328C80.4618 83.5545 80.9318 84.2225 80.8101 84.9245C80.7874 85.0547 78.6382 98.0614 86.6261 100.615L120.33 110.216C120.373 110.227 120.412 110.242 120.452 110.259C120.843 110.414 130.003 114.151 130.003 123.486C130.003 123.585 129.992 123.687 129.969 123.783L126.186 139.7C126.044 140.294 125.515 140.693 124.932 140.693L124.929 140.696Z" fill="#3E3A39"/>
<path d="M97.5928 108.475C97.1171 108.475 96.6583 108.209 96.4318 107.754C96.1175 107.114 96.3809 106.341 97.0208 106.027L99.4474 104.832C100.087 104.518 100.86 104.781 101.178 105.421C101.492 106.061 101.228 106.834 100.589 107.148L98.1619 108.342C97.9779 108.433 97.7853 108.475 97.5928 108.475Z" fill="#3E3A39"/>
<path d="M65.967 113.658C61.4082 113.658 57.5487 112.922 54.4482 111.957C45.5372 109.186 40.8736 104.074 40.6811 103.856C40.2054 103.326 40.2479 102.508 40.7802 102.033C41.3097 101.557 42.1252 101.602 42.6009 102.129C42.6434 102.177 47.0719 106.995 55.3571 109.534C66.3266 112.897 79.1139 110.751 92.3345 103.332C92.9575 102.984 93.7446 103.205 94.0929 103.824C94.4412 104.447 94.2203 105.234 93.6002 105.582C82.7015 111.696 73.4055 113.655 65.9698 113.655L65.967 113.658Z" fill="#3E3A39"/>
<path d="M65.7093 118.631C60.1877 118.631 54.9239 117.706 50.0139 115.869C39.8826 112.076 34.8396 105.769 34.63 105.503C34.1883 104.943 34.2874 104.13 34.8452 103.691C35.4059 103.25 36.2157 103.349 36.6574 103.907C36.7226 103.989 41.5674 109.99 51.0559 113.502C63.6423 118.162 78.726 116.347 94.6762 108.252C95.3105 107.929 96.0892 108.184 96.412 108.818C96.7348 109.455 96.4799 110.23 95.8456 110.553C86.5751 115.257 77.6019 117.938 69.1751 118.513C68.0085 118.592 66.8532 118.631 65.7093 118.631Z" fill="#3E3A39"/>
<path d="M30.6177 139.499C30.0712 139.499 29.5644 139.148 29.3888 138.601C25.1726 125.419 14.8261 120.211 14.7213 120.16C14.0814 119.846 13.8152 119.073 14.1295 118.433C14.441 117.793 15.214 117.527 15.8539 117.839C16.3183 118.065 27.2821 123.54 31.8494 137.814C32.0675 138.494 31.6909 139.218 31.0113 139.436C30.881 139.479 30.748 139.499 30.6177 139.499Z" fill="#3E3A39"/>
<path d="M61.9547 75.4589C61.5526 75.4589 61.159 75.2721 60.9041 74.9211C60.4879 74.3436 60.621 73.5369 61.1986 73.1208C61.4025 72.9736 66.2813 69.5429 73.0657 71.2979C73.7566 71.4762 74.17 72.181 73.9916 72.8717C73.8132 73.5624 73.1082 73.9756 72.4173 73.7973C66.7938 72.3424 62.7447 75.19 62.705 75.2183C62.4757 75.3825 62.2123 75.4617 61.9518 75.4617L61.9547 75.4589Z" fill="#3E3A39"/>
<path d="M84.7686 105.144C84.9244 99.4147 81.2971 100.1 81.2971 100.1L81.6681 99.5534C82.7129 93.2921 79.114 93.9431 79.114 93.9431L78.3863 94.1045C79.4311 87.8431 75.8322 88.4942 75.8322 88.4942C76.3305 84.8681 71.8935 85.522 71.8935 85.522L56.8296 90.7445C50.9031 91.9588 52.9135 97.9145 52.9135 97.9145C52.9135 97.9145 52.9305 104.057 54.3406 109.916L55.9291 118.502L52.585 139.414H71.6613L72.743 126.676L75.8718 115.883C76.9393 113.474 76.0842 109.393 75.903 108.609L76.3306 110.423L81.2235 108.343L84.7686 105.15V105.144Z" fill="white"/>
<path d="M52.1008 140.578C52.0357 140.578 51.9706 140.572 51.9026 140.563C51.1976 140.456 50.7134 139.796 50.8238 139.091L54.0008 118.467L53.0664 110.134C51.778 104.728 51.6393 99.2079 51.6251 98.104C51.4071 97.3284 50.8125 94.6648 52.1065 92.4144C52.9701 90.9142 54.4425 89.932 56.4841 89.4932L71.4687 84.299C71.6131 84.2481 71.7576 84.2254 71.9133 84.2283C72.2219 84.2339 74.9629 84.3302 76.4721 86.0936C77.2281 86.9768 77.534 88.1204 77.3584 89.4026C77.2961 89.8612 76.9903 90.2518 76.5599 90.4245L64.8316 95.1233C64.169 95.3894 63.4186 95.0667 63.1524 94.4044C62.8863 93.742 63.2091 92.9919 63.8717 92.7258L74.793 88.3525C74.7364 88.0723 74.6146 87.8968 74.5127 87.775C73.935 87.1013 72.6523 86.8749 72.0747 86.8239L57.2515 91.9615C57.1977 91.9813 57.1439 91.9955 57.0872 92.0068C55.7451 92.2814 54.8503 92.8334 54.3519 93.691C53.426 95.2847 54.1311 97.4812 54.1396 97.5039C54.182 97.6313 54.2047 97.7728 54.2047 97.9087C54.2047 97.9681 54.2415 103.978 55.595 109.613C55.6063 109.664 55.6176 109.718 55.6233 109.772L56.586 118.357C56.5974 118.47 56.5974 118.584 56.5804 118.697L53.3779 139.491C53.2788 140.127 52.7294 140.586 52.1037 140.586L52.1008 140.578Z" fill="#3E3A39"/>
<path d="M68.1247 99.8533C67.6263 99.8533 67.1506 99.5646 66.9411 99.0777C66.6579 98.4239 66.9552 97.6624 67.6093 97.3794L77.3329 93.1532C77.6076 92.171 77.6048 91.4237 77.3131 91.0189C76.9592 90.5236 76.1238 90.5151 76.1097 90.5151C75.4046 90.5406 74.8072 89.9801 74.7845 89.2668C74.7619 88.5535 75.3282 87.959 76.0417 87.9364C76.2654 87.9279 78.2362 87.9138 79.3915 89.4847C80.2806 90.6963 80.3542 92.3918 79.6067 94.5289C79.4877 94.8686 79.2329 95.1432 78.9016 95.2875L68.64 99.7486C68.473 99.8222 68.2974 99.8562 68.1247 99.8562V99.8533Z" fill="#3E3A39"/>
<path d="M72.7429 104.493C72.2333 104.493 71.7519 104.19 71.548 103.692C71.279 103.032 71.5933 102.279 72.2531 102.007L80.4929 98.6362C80.745 96.4821 80.2806 95.715 80.0512 95.4772C79.7567 95.1687 79.3547 95.2083 79.3093 95.214L79.3405 95.2083L78.8818 92.6692C79.0545 92.6381 80.6062 92.4003 81.8464 93.6232C83.0527 94.812 83.4179 96.8784 82.9366 99.7656C82.863 100.207 82.5657 100.578 82.1522 100.748L73.2271 104.399C73.0657 104.464 72.9015 104.496 72.7373 104.496L72.7429 104.493Z" fill="#3E3A39"/>
<path d="M78.627 110.253C78.2164 110.253 77.8001 110.205 77.4009 110.089C76.4693 109.82 75.7303 109.217 75.2631 108.351C74.9261 107.722 75.1611 106.941 75.7869 106.601C76.4155 106.264 77.197 106.499 77.5368 107.125C77.6784 107.385 77.8511 107.53 78.1173 107.609C78.9356 107.85 80.3032 107.38 81.0791 106.983C81.9625 106.097 82.6959 105.489 83.1461 105.141C83.2707 104.057 83.2283 102.788 82.5487 102.067C81.8295 101.302 80.6261 101.393 80.6147 101.393C79.904 101.469 79.2697 100.951 79.1961 100.244C79.1225 99.5361 79.6378 98.8992 80.3457 98.8256C80.5977 98.8001 82.8488 98.619 84.4288 100.298C85.6436 101.588 86.0457 103.53 85.6209 106.069C85.5615 106.42 85.3633 106.732 85.0659 106.93C85.0603 106.935 84.1032 107.589 82.778 108.937C82.6931 109.024 82.5968 109.098 82.4892 109.157C82.2514 109.29 80.4675 110.256 78.6241 110.256L78.627 110.253Z" fill="#3E3A39"/>
<path d="M71.6613 140.696C71.6245 140.696 71.5877 140.696 71.5509 140.691C70.8401 140.631 70.3135 140.006 70.3729 139.295L71.4546 126.557C71.4631 126.472 71.4772 126.387 71.4999 126.308L74.6288 115.515C74.6458 115.458 74.6656 115.405 74.6882 115.351C75.5122 113.491 74.9148 109.978 74.6174 108.781C74.4447 108.09 74.8638 107.388 75.5575 107.216C76.2456 107.043 76.9507 107.462 77.1234 108.155C77.2536 108.679 78.3579 113.318 77.0894 116.313L74.02 126.905L72.9497 139.516C72.893 140.19 72.3267 140.696 71.6641 140.696H71.6613Z" fill="#3E3A39"/>
<path d="M75.6481 109.322C75.2149 109.322 74.793 109.104 74.5466 108.707C74.1728 108.102 74.3597 107.306 74.9685 106.933L78.4938 104.759C79.0998 104.385 79.8954 104.572 80.272 105.18C80.6458 105.786 80.4589 106.582 79.8501 106.955L76.3248 109.129C76.1125 109.259 75.8803 109.322 75.6481 109.322Z" fill="#3E3A39"/>
</g>
<defs>
<clipPath id="clip0_345_7194">
<rect width="130" height="135" fill="white"/>
</clipPath>
</defs>
</svg>
