<svg width="130" height="134" viewBox="0 0 130 134" fill="none" xmlns="http://www.w3.org/2000/svg">
<g clip-path="url(#clip0_345_7154)">
<path d="M125.661 115.329C125.661 115.329 122.87 108.945 116.892 107.25L92.231 100.25C92.231 100.25 80.8145 99.001 78.997 91.1821C78.997 91.1821 77.306 78.1376 81.8786 72.1016H47.7502C52.3256 78.1376 50.6318 91.1821 50.6318 91.1821C48.8143 99.001 37.3978 100.25 37.3978 100.25L12.7363 107.25C6.75586 108.948 3.96773 115.329 3.96773 115.329L2.18872 132.865L3.22808 134.062H126.401L127.44 132.865L125.661 115.329Z" fill="white"/>
<path d="M49.125 79.9975C49.125 79.9975 52.4658 85.3708 51.0965 90.7441L80.7815 95.9394C80.7815 95.9394 79.3627 80.8328 80.7815 77.2725L49.125 79.9947V79.9975Z" fill="#DCDDDD"/>
<path d="M100.298 54.2178C99.4543 52.8649 98.4177 52.1336 97.3921 51.7666L100.612 40.1354L101.134 28.5507C99.9932 15.5556 85.6017 6.49327 85.6017 6.49327C66.5494 -5.76513 54.4126 7.21081 54.4126 7.21081L50.5438 9.16898C42.2234 8.16662 34.365 15.9226 34.365 15.9226C28.643 20.6359 29.9353 33.3106 29.9353 33.3106L32.5777 44.3338C31.7308 44.4297 30.8289 44.8323 29.9243 45.7388C29.9243 45.7388 24.7385 54.0672 35.6628 63.5786C35.6628 63.5786 39.0009 63.1761 39.955 61.8697C39.955 61.8697 43.1858 84.2284 60.9072 85.2719C78.4114 88.2187 86.8115 67.5415 86.8115 67.5415C87.4467 69.0286 90.4025 69.779 90.4025 69.779C104.252 63.1624 100.301 54.215 100.301 54.215L100.298 54.2178Z" fill="white"/>
<path d="M63.0189 86.6002C62.2875 86.6002 61.5451 86.5591 60.7944 86.4687C53.4804 85.6937 47.9234 80.482 47.3487 79.926C38.2996 72.3645 38.3546 58.1041 38.3629 57.4988C38.3711 56.8141 38.9293 56.2637 39.6167 56.2637H39.6305C40.3234 56.2719 40.8788 56.8361 40.8706 57.5262C40.8706 57.6631 40.8293 71.2553 48.9957 78.039L49.0755 78.113C49.1277 78.1623 54.3905 83.2782 61.0776 83.9875C67.773 84.7954 74.0532 80.9886 74.1164 80.9503L74.2099 80.8982C83.6961 76.111 86.7235 62.8584 86.7537 62.7243C86.9022 62.0505 87.5704 61.6233 88.2468 61.7712C88.9232 61.9191 89.3521 62.5846 89.2036 63.2583C89.0744 63.8499 85.9123 77.757 75.3895 83.1029C74.7763 83.4726 69.4035 86.6002 63.0189 86.6002Z" fill="#3E3A39"/>
<path d="M36.5042 64.4717C36.2897 64.4717 36.0862 64.4552 35.902 64.4251C32.2038 63.8555 29.5641 58.1645 29.2066 57.3565C24.4608 47.9792 29.7456 44.0903 29.9738 43.9287L30.0755 43.8575L30.191 43.8055C34.6427 41.8281 37.4253 44.3642 38.2749 45.9827C38.5967 46.5935 38.3602 47.3493 37.7443 47.667C37.1338 47.9847 36.3804 47.7519 36.056 47.1494C35.8195 46.7222 34.4997 44.701 31.3486 46.0266C30.8207 46.4839 27.9666 49.3897 31.4586 56.2611L31.4888 56.3268C32.3797 58.3562 34.4695 61.6809 36.2842 61.9575C36.5124 61.9932 37.2081 62.1 38.1815 60.9881C38.6351 60.4677 39.427 60.4129 39.9495 60.8675C40.4719 61.3194 40.5269 62.1109 40.0705 62.6285C38.7919 64.0883 37.5023 64.4717 36.5014 64.4717H36.5042Z" fill="#3E3A39"/>
<path d="M81.4854 43.2438C81.2132 43.2438 77.9796 43.1973 74.3034 41.083C73.704 40.7379 73.4977 39.9738 73.8442 39.3768C74.1906 38.7798 74.9578 38.5744 75.5572 38.9194C78.6945 40.7242 81.4552 40.7462 81.4827 40.7462C82.1728 40.7462 82.7365 41.3021 82.7393 41.9895C82.7393 42.6769 82.1893 43.2384 81.4992 43.2438H81.4854Z" fill="#3E3A39"/>
<path d="M54.8773 40.0425C52.8068 40.0425 51.465 39.6536 51.3797 39.6262C50.7171 39.429 50.3404 38.7306 50.5383 38.0706C50.7363 37.4106 51.432 37.0354 52.0946 37.2326C52.1276 37.2408 54.7838 37.9884 58.2978 37.1285C58.9687 36.9642 59.6506 37.375 59.8128 38.0432C59.9778 38.7142 59.5654 39.3906 58.8945 39.5522C57.3932 39.9192 56.0238 40.0397 54.8773 40.0397V40.0425Z" fill="#3E3A39"/>
<path d="M64.6027 62.886C64.3222 62.886 64.0418 62.7929 63.8081 62.6012L63.0409 61.9713C62.5075 61.5331 62.4305 60.7471 62.8704 60.213C63.3104 59.679 64.0995 59.605 64.6357 60.0432L65.4029 60.6731C65.9363 61.1113 66.0133 61.8973 65.5733 62.4314C65.3259 62.7326 64.9657 62.886 64.6055 62.886H64.6027Z" fill="#3E3A39"/>
<path d="M76.4564 51.1178C75.1228 50.9672 74.1549 49.7567 74.3089 48.4284C74.4601 47.1001 75.6755 46.1361 77.009 46.2895C78.3426 46.4401 79.3105 47.6506 79.1565 48.9789C79.0053 50.3071 77.7899 51.2712 76.4564 51.1178Z" fill="#3E3A39"/>
<path d="M53.9946 48.5734C52.661 48.4227 51.6931 47.2122 51.8471 45.884C51.9983 44.5557 53.2137 43.5917 54.5472 43.745C55.8808 43.8957 56.8487 45.1062 56.6947 46.4344C56.5435 47.7627 55.3281 48.7267 53.9946 48.5734Z" fill="#3E3A39"/>
<path d="M2.19148 134.114C2.15849 134.114 2.12274 134.114 2.087 134.109C1.39684 134.054 0.882656 133.451 0.940399 132.764L2.05675 119.103C2.08975 110.107 10.9546 106.505 11.3313 106.355C11.3698 106.338 11.4083 106.327 11.4495 106.314L44.1784 97.0239C51.8746 94.5782 49.6969 84.5163 49.6007 84.089C49.4495 83.418 49.8729 82.7471 50.5466 82.5964C51.2202 82.4431 51.8911 82.8648 52.0451 83.5358C53.0515 87.9287 52.8563 96.9034 44.9181 99.4093C44.9071 99.412 44.8933 99.4175 44.8823 99.4202L12.2029 108.696C11.477 109 4.56167 112.068 4.56167 119.153C4.56167 119.185 4.56167 119.221 4.55892 119.254L3.43707 132.964C3.38482 133.616 2.8349 134.111 2.18873 134.111L2.19148 134.114Z" fill="#3E3A39"/>
<path d="M128.163 134.114C127.517 134.114 126.967 133.618 126.915 132.966L125.793 119.257C125.793 119.224 125.79 119.188 125.79 119.155C125.79 112.076 118.889 109.006 118.149 108.699L85.4697 99.4229C85.4697 99.4229 85.4449 99.4174 85.4339 99.4119C77.4765 96.8978 77.581 87.5999 78.7496 83.0345C78.92 82.3663 79.6019 81.961 80.2729 82.1335C80.9438 82.3033 81.348 82.9825 81.1775 83.6507C81.0593 84.1163 78.5131 94.5891 86.1736 97.0265L118.902 106.316C118.944 106.327 118.982 106.341 119.021 106.357C119.4 106.505 128.262 110.107 128.295 119.106L129.412 132.767C129.467 133.454 128.955 134.056 128.265 134.111C128.229 134.114 128.196 134.117 128.161 134.117L128.163 134.114Z" fill="#3E3A39"/>
<path d="M90.3393 70.5706C90.2403 70.5706 90.1385 70.5679 90.0396 70.5596C88.9864 70.483 87.4961 69.9544 86.3798 67.8757C86.0526 67.2677 86.2835 66.5118 86.894 66.1859C87.5044 65.8628 88.2633 66.0901 88.5905 66.7008C89.2889 68.0017 89.9901 68.0537 90.221 68.0702C92.1238 68.2126 95.0466 65.1562 96.1602 63.6554L96.2042 63.5979C101.132 57.7097 99.0501 54.2452 98.6157 53.6482C95.8413 51.6544 94.1008 53.3332 93.7763 53.6948C93.3171 54.2041 92.528 54.2589 92.011 53.807C91.4941 53.3552 91.4336 52.5801 91.8818 52.0597C93.0752 50.674 96.3582 48.8226 100.252 51.7475L100.351 51.8215L100.433 51.9146C100.617 52.1227 104.893 57.0962 98.1537 65.1699C97.6368 65.86 93.9743 70.5733 90.3365 70.5733L90.3393 70.5706Z" fill="#3E3A39"/>
<path d="M93.4161 48.5926C92.8057 48.5926 92.2722 48.149 92.1787 47.53C91.7196 44.4901 91.8103 37.7036 91.8131 37.416C91.824 36.7313 92.3822 36.1836 93.0669 36.1836H93.0861C93.779 36.1945 94.3317 36.7615 94.3207 37.4516C94.3207 37.5201 94.2272 44.3203 94.6562 47.1575C94.7607 47.8395 94.2877 48.4749 93.6031 48.5789C93.5398 48.5871 93.4766 48.5926 93.4133 48.5926H93.4161Z" fill="#3E3A39"/>
<path d="M100.351 29.7122C99.666 29.7122 99.1078 29.1645 99.0968 28.4798C98.9951 21.0415 95.1758 14.6111 87.7436 9.36646C82.0876 5.37618 76.3601 3.61793 76.3051 3.6015C61.2948 -0.637999 54.9707 8.44352 54.7095 8.83241C54.3245 9.40206 53.5491 9.5609 52.9717 9.17749C52.397 8.79681 52.2375 8.02449 52.6197 7.45211C52.6967 7.33708 54.5472 4.59017 58.5067 2.4622C62.1142 0.523208 68.2514 -1.2679 77.0118 1.20514C77.2785 1.28457 83.1517 3.08115 89.1376 7.28779C97.1831 12.9432 101.495 20.2582 101.607 28.4442C101.615 29.1344 101.063 29.7013 100.37 29.7095C100.364 29.7095 100.359 29.7095 100.353 29.7095L100.351 29.7122Z" fill="#3E3A39"/>
<path d="M29.7538 31.5114C29.7318 31.5114 29.7098 31.5114 29.6878 31.5114C28.9977 31.4758 28.4642 30.8897 28.5 30.1996C28.9097 22.2491 31.4311 16.2678 35.9927 12.4227C42.3746 7.04664 50.3486 7.8929 50.684 7.93124C51.3715 8.01066 51.8664 8.62961 51.7866 9.31428C51.7069 9.99895 51.0882 10.4892 50.3981 10.4125C50.2908 10.4015 43.1116 9.67579 37.5903 14.348C33.5923 17.7303 31.3761 23.1064 31.0049 30.3256C30.9719 30.9938 30.4165 31.5114 29.7538 31.5114Z" fill="#3E3A39"/>
<path d="M92.6709 38.536C81.9226 38.536 76.2171 29.9311 72.1916 23.8594C71.8672 23.3719 71.5537 22.8953 71.2458 22.4407C70.0249 20.6332 68.7903 19.7951 68.5346 19.6336C58.6222 15.4954 53.9341 22.7748 53.7388 23.0871C53.3731 23.6704 52.6032 23.8539 52.0148 23.4924C51.4264 23.1309 51.2422 22.3668 51.6024 21.7807C51.6601 21.6848 57.5966 12.2966 69.596 17.3687C69.6372 17.3851 69.6785 17.407 69.717 17.4289C69.794 17.47 71.6032 18.497 73.3272 21.0495C73.638 21.5096 73.9569 21.9916 74.2841 22.4845C79.0547 29.6818 85.5934 39.5384 99.8887 34.7484C100.546 34.5293 101.255 34.8799 101.478 35.5344C101.698 36.189 101.346 36.8956 100.689 37.1174C97.7385 38.1061 95.0769 38.5388 92.6682 38.5388L92.6709 38.536Z" fill="#3E3A39"/>
<path d="M31.3816 38.8401C31.2936 38.8401 31.2386 38.8401 31.2221 38.8374C30.532 38.8045 29.9958 38.2184 30.0315 37.5283C30.0645 36.8409 30.6392 36.3123 31.3376 36.3424C31.3981 36.3424 34.7774 36.4136 38.7094 33.4038C39.2593 32.9848 40.0457 33.0861 40.4664 33.6311C40.8898 34.1789 40.7854 34.9621 40.2354 35.3812C35.9707 38.6457 32.201 38.8374 31.3816 38.8374V38.8401Z" fill="#3E3A39"/>
<path d="M32.179 42.3238C31.6895 42.3238 31.3926 42.291 31.3513 42.2882C30.6639 42.2116 30.169 41.5926 30.246 40.9052C30.3257 40.2205 30.9416 39.7303 31.6291 39.8042C31.6868 39.8097 34.5079 40.0754 37.472 38.4678C38.0797 38.1391 38.8414 38.361 39.1713 38.9689C39.5013 39.5742 39.2758 40.3328 38.6681 40.6615C35.9955 42.1075 33.4438 42.3211 32.1762 42.3211L32.179 42.3238Z" fill="#3E3A39"/>
<path d="M99.2508 46.2949C99.1793 46.2949 99.1051 46.2894 99.0308 46.2757C98.8961 46.2511 95.6625 45.654 92.352 42.7948C91.8295 42.3429 91.7718 41.5542 92.2255 41.0338C92.6792 40.5135 93.4711 40.456 93.9935 40.9079C96.7514 43.2905 99.4433 43.8109 99.4708 43.8164C100.15 43.9423 100.601 44.5914 100.477 45.2679C100.367 45.8704 99.842 46.2949 99.2481 46.2949H99.2508Z" fill="#3E3A39"/>
<path d="M97.975 50.5398C97.953 50.5398 97.931 50.5398 97.9063 50.5398C97.6835 50.5288 95.6378 50.3673 92.7095 48.3817C92.1375 47.9928 91.989 47.2178 92.3795 46.6454C92.7699 46.0757 93.5481 45.9278 94.1228 46.3167C96.4627 47.9052 98.041 48.0449 98.0547 48.0449C98.7449 48.0805 99.2701 48.6693 99.2316 49.3567C99.1958 50.0222 98.6349 50.5398 97.9722 50.5398H97.975Z" fill="#3E3A39"/>
<path d="M96.8614 52.8598C96.6277 52.8598 96.3885 52.794 96.1795 52.6571C95.5993 52.2819 95.4344 51.5069 95.8138 50.929C97.1364 48.9051 98.8467 42.2528 99.3911 39.8592C99.5451 39.1855 100.216 38.7664 100.892 38.9198C101.566 39.0732 101.989 39.7414 101.836 40.4151C101.624 41.3408 99.7183 49.5323 97.9145 52.2956C97.6753 52.6626 97.2711 52.8625 96.8614 52.8625V52.8598Z" fill="#3E3A39"/>
<path d="M32.0965 45.4186C31.5053 45.4186 30.9774 44.9995 30.8647 44.397C30.2707 41.2064 28.7172 33.6394 28.7007 33.5655C28.5632 32.889 29.0004 32.229 29.6768 32.0921C30.3532 31.9551 31.0186 32.3906 31.1561 33.0643C31.1726 33.141 32.7289 40.7299 33.3283 43.9397C33.4548 44.6189 33.0066 45.2707 32.3247 45.3967C32.2477 45.4103 32.1707 45.4186 32.0937 45.4186H32.0965Z" fill="#3E3A39"/>
<path d="M100.043 33.9245C89.5446 33.9245 84.7575 27.1599 84.5568 26.8696C84.1636 26.2999 84.3093 25.5249 84.8812 25.1333C85.4504 24.7444 86.2286 24.8868 86.6218 25.4509C86.7977 25.7029 90.9717 31.5144 100.232 31.4268H100.243C100.931 31.4268 101.492 31.98 101.497 32.6647C101.503 33.3548 100.947 33.919 100.254 33.9245C100.183 33.9245 100.114 33.9245 100.043 33.9245Z" fill="#3E3A39"/>
<path d="M82.6375 23.4706C82.2471 23.4706 81.8621 23.2898 81.6174 22.9475C76.9045 16.3774 72.0239 12.7842 67.1186 12.2693C62.1555 11.7462 58.8449 14.6958 58.8147 14.7259C58.306 15.1888 57.5114 15.1559 57.0439 14.652C56.5765 14.1453 56.6067 13.3593 57.1127 12.8937C57.2776 12.7404 61.2234 9.16091 67.3276 9.77985C72.9973 10.3522 78.4938 14.296 83.6604 21.496C84.0618 22.0574 83.9326 22.8379 83.3689 23.2378C83.149 23.3939 82.8932 23.4706 82.6403 23.4706H82.6375Z" fill="#3E3A39"/>
<path d="M49.6832 25.4395C46.8153 25.4395 38.1979 24.9219 35.2971 18.8776C34.9974 18.2559 35.2641 17.511 35.8882 17.2125C36.5124 16.914 37.2631 17.1796 37.56 17.8013C40.2574 23.4266 50.3623 22.9309 50.4641 22.9254C51.1487 22.8871 51.7481 23.4129 51.7866 24.1003C51.8251 24.7877 51.2972 25.3793 50.607 25.4176C50.5328 25.4231 50.2028 25.4395 49.6832 25.4395Z" fill="#3E3A39"/>
<path d="M41.7587 29.6244C36.4794 29.6244 33.4741 26.3763 33.3119 26.1956C32.8499 25.6834 32.8912 24.892 33.4081 24.4319C33.9223 23.9718 34.7114 24.0128 35.1761 24.5222C35.3521 24.7139 39.383 28.9589 46.4166 26.1655C47.06 25.9108 47.7887 26.223 48.0444 26.8638C48.3001 27.5047 47.9867 28.2304 47.3432 28.4851C45.2728 29.3067 43.4058 29.6244 41.7587 29.6244Z" fill="#3E3A39"/>
<path d="M37.1421 43.6493C37.0128 43.6493 36.8809 43.6301 36.7516 43.5863C36.0945 43.3727 35.7343 42.6661 35.9515 42.0115L39.2455 32.0016C39.4628 31.3471 40.1694 30.9883 40.8266 31.2046C41.4837 31.4183 41.8439 32.1248 41.6267 32.7794L38.3327 42.7893C38.1594 43.3152 37.67 43.6493 37.1421 43.6493Z" fill="#3E3A39"/>
<path d="M93.1246 51.1641C92.4317 51.1641 91.8708 50.6026 91.8735 49.9152L91.8845 38.3607C91.8845 37.6705 92.4455 37.1118 93.1384 37.1118C93.8313 37.1118 94.3922 37.6733 94.3895 38.3607L94.3785 49.9152C94.3785 50.6054 93.8175 51.1641 93.1246 51.1641Z" fill="#3E3A39"/>
<path d="M65.3094 123.581C65.0756 123.581 64.8419 123.515 64.6357 123.386L36.1247 105.33C35.5391 104.96 35.3686 104.188 35.7398 103.608C36.111 103.024 36.8864 102.854 37.4693 103.224L65.3066 120.853L94.9339 102.03C95.5168 101.66 96.2922 101.83 96.6662 102.411C97.0374 102.991 96.8669 103.764 96.284 104.136L65.983 123.386C65.7768 123.518 65.5431 123.584 65.3094 123.584V123.581Z" fill="#3E3A39"/>
<path d="M34.2192 101.151L35.0084 134.059H2.19147L3.41505 117.605C3.41505 117.605 6.20868 109.101 11.7959 107.516L34.2192 101.151Z" fill="#00A0E6"/>
<path d="M97.9722 101.151L97.1831 134.059H130L128.776 117.605C128.776 117.605 125.983 109.101 120.396 107.516L97.9722 101.151Z" fill="#00A0E6"/>
<path d="M68.5676 70.6504C68.4577 70.6504 68.3449 70.6367 68.2322 70.6038C65.0371 69.7219 59.2216 70.1327 59.1639 70.1355C58.4682 70.1875 57.8716 69.6699 57.8221 68.9825C57.7726 68.2951 58.2895 67.6953 58.9797 67.646C59.2354 67.6268 65.2873 67.1969 68.9031 68.1992C69.5713 68.3827 69.9617 69.0729 69.7747 69.7356C69.6207 70.2888 69.1176 70.6504 68.5676 70.6504Z" fill="#3E3A39"/>
<path d="M2.09518 23.0955C1.98794 20.1706 3.40401 17.4429 5.40299 15.3724C6.46985 14.2687 7.68519 13.3266 8.97202 12.4913C10.1791 11.7053 11.4549 10.9029 12.794 10.3579C13.8801 9.91694 15.3072 9.51983 16.3658 10.2401C17.4491 10.9768 17.5426 12.4694 17.2209 13.6197C16.8305 15.0054 15.9506 16.2981 15.0652 17.4182C14.1468 18.5794 13.08 19.6421 11.9004 20.5403C11.4659 20.8717 10.7923 21.5181 10.1984 21.4085C9.67317 21.3127 9.34322 20.7485 9.28548 20.2583C9.137 19.0341 9.97563 17.6839 10.7593 16.8102C11.5814 15.8955 12.6263 15.1698 13.7949 14.7672C14.3943 14.5618 15.0185 14.4221 15.6536 14.392C16.2283 14.3646 16.913 14.3865 17.3364 14.8329C18.0706 15.6025 17.7901 16.9691 17.5069 17.9002C17.0972 19.2532 16.4813 20.5294 15.6976 21.7043C15.3127 22.2822 14.8865 22.8299 14.419 23.342C14.1908 23.5913 13.9571 23.835 13.7124 24.0705C13.5914 24.1883 13.4677 24.3033 13.3412 24.4156C13.3164 24.4375 12.97 24.684 12.9617 24.7169C12.9645 24.7032 13.2202 24.9277 13.2257 24.9277C13.2202 24.9277 13.2807 24.6621 13.2889 24.6402C13.3824 24.3745 13.5392 24.1034 13.6794 23.8487C13.9406 23.3831 14.2651 22.8518 14.771 22.6135C15.7719 22.148 16.6737 23.2927 16.803 24.2047C16.8937 24.8483 16.6957 25.5412 16.4455 26.1328C16.2998 26.4751 16.1211 26.8065 15.9368 27.1296C15.8461 27.2885 15.7554 27.4446 15.6619 27.598C15.6096 27.6829 15.3209 28.0362 15.3319 28.1265C15.3319 28.1375 15.3017 28.1347 15.3154 28.1567C15.3512 28.2087 14.914 28.7811 15.5161 28.1731C15.4887 28.2005 15.3897 28.0416 15.3842 28.0334C15.2852 27.8855 15.2577 27.7075 15.2852 27.4829C15.3209 27.1762 15.5381 26.7599 15.9121 26.6175C16.836 26.2642 17.7571 27.2419 17.7406 28.1649C17.7296 28.7318 17.4739 29.2686 17.0862 29.6794C16.3933 30.4106 17.5014 31.5143 18.1943 30.7831C19.4344 29.4767 19.7808 27.2967 18.4308 25.9301C17.2127 24.6977 15.0625 24.6621 14.1083 26.2259C13.7234 26.8585 13.5914 27.6911 13.8389 28.3977C14.1413 29.2604 15.0817 30.0546 16.0193 29.5561C16.451 29.3288 16.704 28.9071 16.9487 28.5045C17.2072 28.0772 17.4601 27.6473 17.6746 27.1981C18.0953 26.3217 18.428 25.3604 18.3868 24.3745C18.318 22.7176 17.001 20.8936 15.1944 20.9457C14.3338 20.9703 13.5584 21.4222 13.014 22.0685C12.4861 22.693 12.0021 23.4899 11.7656 24.2759C11.4797 25.2208 11.9141 26.3464 13.0607 26.2807C13.9791 26.2286 14.7737 25.2591 15.3594 24.6347C16.6188 23.2927 17.6526 21.7344 18.3785 20.0474C19.0302 18.5329 19.6571 16.7637 19.2117 15.104C18.9944 14.2934 18.4665 13.5621 17.6966 13.1924C16.8635 12.7926 15.9258 12.7761 15.024 12.8912C13.2972 13.113 11.6942 13.8579 10.3826 14.9917C9.09025 16.1064 7.9959 17.7277 7.75943 19.4394C7.62195 20.4253 7.83367 21.4058 8.51558 22.1534C9.14524 22.8436 10.1214 23.1531 11.026 22.8765C11.9774 22.5862 12.8215 21.8248 13.5694 21.2004C14.2733 20.6116 14.9332 19.968 15.5409 19.2805C16.8085 17.8482 18.0128 16.1858 18.6315 14.3618C19.2007 12.6803 19.0632 10.577 17.6829 9.30895C16.2805 8.01629 14.2871 8.14775 12.6098 8.77217C10.839 9.42946 9.16724 10.4674 7.61645 11.53C4.49561 13.6662 1.70748 16.5857 0.80835 20.3569C0.593878 21.2551 0.494891 22.1836 0.527887 23.1038C0.563632 24.1061 2.13092 24.1089 2.09518 23.1038V23.0955Z" fill="#3E3A39"/>
<path d="M17.6719 31.5471C17.5784 31.5471 17.4849 31.5362 17.3914 31.5143C16.9267 31.4047 16.5363 31.0323 16.3961 30.5667C16.3356 30.3613 16.3246 30.1559 16.3658 29.9587C16.3328 29.9779 16.2998 29.997 16.2641 30.0162C15.7829 30.2709 15.2632 30.301 14.76 30.1038C14.1331 29.8601 13.5887 29.2713 13.344 28.5702C13.1487 28.0142 13.1432 27.3734 13.3082 26.7736C13.2367 26.7873 13.1625 26.7955 13.0855 26.7982C12.4723 26.8311 11.9361 26.6065 11.5814 26.1574C11.1635 25.6316 11.0398 24.851 11.2597 24.1225C11.3505 23.8213 11.4797 23.5063 11.6392 23.1914C11.488 23.2598 11.334 23.3174 11.1745 23.3667C10.1021 23.6953 8.90604 23.353 8.12515 22.4985C7.3855 21.6878 7.06929 20.5732 7.23702 19.3627C7.47349 17.662 8.4936 15.9229 10.0361 14.5919C11.455 13.3677 13.1542 12.6008 14.9552 12.3708C15.6646 12.2804 16.2943 12.2832 16.858 12.3818C16.847 11.7135 16.6353 11.0507 16.0661 10.6673C15.3979 10.2127 14.3888 10.2675 12.9865 10.8371C11.6914 11.363 10.4321 12.1572 9.2525 12.924C7.86393 13.8278 6.72558 14.7452 5.77421 15.7312C3.64324 17.9386 2.52139 20.5458 2.61213 23.0736C2.62863 23.5365 2.42516 23.9336 2.05121 24.1664C1.64701 24.4183 1.10808 24.4347 0.676388 24.2047C0.263943 23.9883 0.0192253 23.5885 -2.21068e-05 23.112C-0.0357674 22.1589 0.0632195 21.1894 0.294189 20.2254C1.11358 16.7911 3.47552 13.7182 7.31401 11.0891C8.67783 10.1552 10.4926 8.98851 12.4201 8.27371C14.6445 7.44662 16.6903 7.68215 18.0321 8.9173C19.5279 10.2976 19.6571 12.3818 19.2804 13.9647C19.4674 14.2687 19.6131 14.6056 19.7121 14.9671C20.1878 16.75 19.5801 18.5575 18.8542 20.25C18.6095 20.8169 18.3345 21.3702 18.0266 21.9042C18.5518 22.6108 18.868 23.4899 18.9065 24.3499C18.923 24.7442 18.89 25.1468 18.802 25.5658C20.416 27.2008 19.9513 29.6821 18.571 31.1391C18.3208 31.402 18.0046 31.5417 17.6719 31.5417V31.5471ZM18.1338 27.4418C18.2191 27.6801 18.2631 27.9293 18.2576 28.1785C18.2438 28.8495 17.9606 29.5096 17.4602 30.0381C17.3887 30.1121 17.3694 30.1833 17.3942 30.2682C17.4272 30.3777 17.5289 30.4763 17.6306 30.501C17.6774 30.5119 17.7324 30.5119 17.8094 30.4298C18.6975 29.4931 19.1017 27.943 18.4253 26.7846C18.3428 26.9927 18.2466 27.2063 18.1421 27.4254C18.1393 27.4309 18.1366 27.4391 18.1338 27.4446V27.4418ZM16.1101 25.5549C16.0798 25.5549 16.0496 25.5604 16.0221 25.5631C15.3979 25.6343 14.8783 25.9657 14.5538 26.497C14.2293 27.0283 14.1441 27.6911 14.3311 28.2278C14.4741 28.6386 14.7985 29.0029 15.1422 29.1344C15.3594 29.2193 15.5684 29.2083 15.7746 29.096C16.0771 28.9344 16.2833 28.5948 16.5005 28.2361C16.671 27.954 16.8222 27.6965 16.9597 27.4473C16.8882 27.3569 16.8057 27.2775 16.715 27.2118C16.6655 27.1789 16.6105 27.1433 16.5445 27.1187C16.495 27.209 16.4428 27.2994 16.3933 27.3871C16.3026 27.5486 16.2063 27.7075 16.1128 27.8663C16.0936 27.8992 16.0523 27.9595 16.0001 28.0279C15.9699 28.069 15.9149 28.1429 15.8736 28.2032L15.9066 28.436L15.8269 28.4743L15.8929 28.5401L15.7169 28.7181H15.7114C15.4722 28.9372 15.2055 29.096 14.8947 28.8687C14.7243 28.7427 14.5675 28.5017 14.7985 28.069V28.0635L14.8123 28.0224C14.76 27.8472 14.7463 27.65 14.771 27.4281C14.8233 26.9626 15.1477 26.3601 15.7279 26.1382C15.7856 26.1163 15.8461 26.0971 15.9039 26.0807C15.9259 26.0314 15.9479 25.9821 15.9699 25.9328C16.0249 25.8041 16.0716 25.6781 16.1128 25.5576L16.1101 25.5549ZM15.5464 28.2032L15.6784 28.2415C15.6482 28.1703 15.5987 28.1019 15.5244 28.0444L15.5162 28.0389L15.5107 28.1676L15.5492 28.2032H15.5464ZM14.8123 28.1347C14.8123 28.1594 14.8123 28.1813 14.8178 28.2059C14.815 28.1813 14.8123 28.1566 14.8123 28.1347ZM16.9927 26.1793C17.1027 26.2286 17.2099 26.2888 17.3144 26.3601C17.3557 26.3902 17.3969 26.4203 17.4354 26.4504C17.5069 26.2779 17.5674 26.1108 17.6224 25.9465C17.4767 25.8534 17.3199 25.7767 17.1577 25.7137C17.111 25.8643 17.056 26.0177 16.9955 26.1766L16.9927 26.1793ZM15.2302 21.466C15.2302 21.466 15.2137 21.466 15.2055 21.466C14.551 21.4852 13.8966 21.8275 13.4099 22.4054C12.8793 23.0353 12.4613 23.772 12.2633 24.4265C12.1451 24.8209 12.2001 25.2591 12.4036 25.5165C12.5466 25.6973 12.7528 25.7794 13.0277 25.763C13.3742 25.7438 13.7372 25.5056 14.0754 25.2071L13.3879 25.4262C13.1075 25.5138 12.9205 25.355 12.8188 25.2673C12.772 25.229 12.7115 25.1742 12.6785 25.1523C12.7033 25.1715 12.7363 25.1906 12.7803 25.2071C12.7198 25.1139 12.673 24.9606 12.739 24.6758L12.4558 24.6182L12.5163 24.3252L12.6895 24.2649C12.7583 24.2074 12.8435 24.1444 12.9535 24.0623L12.9893 24.0349C13.058 23.898 13.1322 23.7665 13.201 23.6433L13.2285 23.5967C13.5337 23.0517 13.9159 22.4437 14.5565 22.1452C14.6445 22.1041 14.7325 22.0713 14.8205 22.0466C14.9635 21.8549 15.1037 21.6605 15.2357 21.466H15.2302ZM12.9123 25.2344C12.9838 25.2427 13.0635 25.2344 13.1487 25.2016L13.0937 25.0564L12.9123 25.2344ZM13.8059 24.7415L14.2046 25.0811C14.4136 24.8839 14.6115 24.6703 14.7848 24.4813L14.9717 24.2786C15.2632 23.9692 15.5409 23.6487 15.8021 23.3201C15.7169 23.2325 15.6262 23.1585 15.5327 23.1092C15.4749 23.0791 15.4172 23.0544 15.3622 23.0435C15.1835 23.2653 14.9992 23.4817 14.8068 23.6926C14.5703 23.9527 14.3256 24.2047 14.0754 24.4457C13.9956 24.5224 13.9186 24.5963 13.8389 24.6703C13.8279 24.6949 13.8169 24.7168 13.8086 24.7415H13.8059ZM17.3447 24.6785C17.5179 24.7333 17.6856 24.8017 17.8479 24.8839C17.8616 24.7196 17.8671 24.558 17.8589 24.3991C17.8369 23.8843 17.6801 23.353 17.4162 22.8874C17.3089 23.049 17.1962 23.2078 17.0807 23.3667C17.1989 23.6131 17.2814 23.8761 17.3172 24.139C17.3419 24.3142 17.3502 24.495 17.3419 24.6812L17.3447 24.6785ZM16.2943 24.3663C16.2531 24.4156 16.2091 24.4649 16.1678 24.5142C16.2118 24.5142 16.2586 24.5142 16.3026 24.5142C16.3026 24.4649 16.2998 24.4156 16.2943 24.369V24.3663ZM14.9607 8.82693C14.1276 8.82693 13.3357 9.0515 12.7885 9.25416C10.9683 9.93062 9.225 11.0507 7.90793 11.9518C4.28941 14.4303 2.07045 17.295 1.31155 20.4719C1.10258 21.3428 1.01459 22.2219 1.04484 23.0791C1.04759 23.1832 1.08608 23.2489 1.16582 23.29C1.26756 23.342 1.41054 23.342 1.49853 23.29C1.52328 23.2735 1.57277 23.2434 1.57002 23.1174C1.46828 20.3048 2.69462 17.4264 5.02356 15.0164C6.02993 13.9729 7.22602 13.0062 8.68332 12.0613C9.90416 11.2671 11.213 10.4428 12.5933 9.88132C13.2367 9.61841 15.1972 8.82419 16.6573 9.81286C17.6581 10.4921 17.9523 11.6505 17.8946 12.7131C17.9029 12.7186 17.9139 12.7214 17.9221 12.7268C18.0871 12.8063 18.2438 12.8994 18.3923 13.0062C18.5133 11.8587 18.285 10.5687 17.3254 9.68688C16.6215 9.04054 15.7719 8.82693 14.9635 8.82693H14.9607ZM16.0029 22.1835L16.0303 22.1972C16.1706 22.2739 16.3053 22.3698 16.429 22.4821C16.5308 22.3369 16.6298 22.1863 16.726 22.0384C16.5913 21.9234 16.4483 21.8248 16.2971 21.7399C16.2421 21.8248 16.1871 21.9097 16.1293 21.9973C16.0881 22.0603 16.0441 22.1233 16.0029 22.1863V22.1835ZM15.9176 13.3513C15.6591 13.3513 15.3814 13.3704 15.0872 13.4088C13.4924 13.6142 11.9829 14.2961 10.7208 15.3861C9.38723 16.5364 8.4716 18.0782 8.27088 19.5106C8.18289 20.146 8.21864 21.0607 8.8978 21.8029C9.40648 22.3616 10.1819 22.5861 10.8665 22.378C11.6337 22.1425 12.3788 21.5153 13.036 20.9621L13.2285 20.8005C13.9104 20.2281 14.5565 19.601 15.145 18.9355C16.0358 17.9303 16.7398 16.9773 17.2732 16.0571C17.2539 15.7723 17.1879 15.5367 17.0752 15.3532C16.5968 16.268 15.9974 17.0786 15.4722 17.7441C14.5071 18.9628 13.4099 20.0446 12.2139 20.9593C12.1506 21.0059 12.0846 21.0607 12.0131 21.1182C11.5182 21.518 10.839 22.063 10.0994 21.9261C9.29649 21.7782 8.8428 20.9922 8.76306 20.3267C8.56234 18.678 9.81892 17.0786 10.3661 16.4679C11.2735 15.4573 12.4008 14.6987 13.6217 14.2797C14.3091 14.0441 14.9855 13.9072 15.6262 13.8771C15.9204 13.8634 16.2503 13.8634 16.572 13.9182C16.6243 13.7757 16.671 13.6306 16.7123 13.4854C16.7178 13.4663 16.7233 13.4471 16.7288 13.4279C16.4785 13.3786 16.2091 13.3567 15.9204 13.3567L15.9176 13.3513ZM16.8305 20.8388C16.9817 20.9237 17.1275 21.0223 17.2649 21.1291C17.4932 20.7101 17.7021 20.2829 17.8919 19.8447C18.5133 18.3987 19.0412 16.8732 18.7525 15.4573C18.6233 15.7421 18.4803 16.027 18.3208 16.3173C18.307 17.0485 18.1008 17.7277 18.0018 18.0536C17.7131 19.0067 17.3199 19.9406 16.8277 20.8388H16.8305ZM15.9506 14.9068C15.8599 14.9068 15.7664 14.9096 15.6756 14.915C15.1312 14.9397 14.5565 15.0575 13.9626 15.2601C12.9095 15.6216 11.9361 16.2789 11.1442 17.158C10.7895 17.5524 9.6457 18.9382 9.79968 20.198C9.83542 20.4992 10.0334 20.8525 10.2891 20.8991C10.5558 20.9484 11.0563 20.5458 11.356 20.3048C11.4357 20.2418 11.5099 20.1816 11.5787 20.1295C12.706 19.2696 13.7399 18.248 14.65 17.0978C15.1037 16.5254 15.6729 15.7613 16.1238 14.9096C16.0661 14.9096 16.0084 14.9068 15.9506 14.9068ZM15.266 20.4253C15.4612 20.4253 15.6536 20.4445 15.8379 20.4773C16.1513 19.9186 16.4235 19.349 16.6518 18.7656C16.4235 19.0477 16.1843 19.3326 15.9286 19.6201C15.6839 19.8967 15.4309 20.1651 15.1725 20.4253H15.1752C15.2055 20.4253 15.2357 20.4253 15.266 20.4253ZM17.5371 14.318C17.5976 14.3673 17.6554 14.4193 17.7104 14.4769C17.7901 14.5618 17.8616 14.6494 17.9249 14.7425C18.0018 14.5563 18.0706 14.3728 18.1311 14.192C18.1311 14.1866 18.1338 14.1811 18.1366 14.1756C18.0073 14.0304 17.8644 13.9045 17.7049 13.8004C17.6554 13.9757 17.5976 14.1482 17.5344 14.318H17.5371Z" fill="#3E3A39"/>
</g>
<defs>
<clipPath id="clip0_345_7154">
<rect width="130" height="134" fill="white"/>
</clipPath>
</defs>
</svg>
