<svg width="17" height="15" viewBox="0 0 17 15" fill="none" xmlns="http://www.w3.org/2000/svg">
<path d="M8.28 15C7.16 15 6.13333 14.84 5.2 14.52C4.26667 14.2 3.46667 13.7333 2.8 13.12C2.14667 12.4933 1.63333 11.7333 1.26 10.84C0.9 9.93333 0.72 8.9 0.72 7.74C0.72 6.66 0.913333 5.67333 1.3 4.78C1.68667 3.88667 2.22 3.12 2.9 2.48C3.59333 1.84 4.40667 1.34667 5.34 0.999999C6.28667 0.639999 7.30667 0.459999 8.4 0.459999C9.49333 0.459999 10.5067 0.639999 11.44 0.999999C12.3733 1.34667 13.18 1.84 13.86 2.48C14.54 3.10667 15.0667 3.86667 15.44 4.76C15.8267 5.64 16.02 6.61333 16.02 7.68C16.02 8.22667 15.96 8.74 15.84 9.22C15.72 9.68667 15.56 10.1133 15.36 10.5C15.16 10.8867 14.9333 11.2333 14.68 11.54C14.4267 11.8333 14.1733 12.08 13.92 12.28V12.34L16.9 12.28V15H8.28ZM12.4 7.78C12.4 7.16667 12.3 6.6 12.1 6.08C11.9133 5.56 11.64 5.11333 11.28 4.74C10.9333 4.36667 10.5133 4.08 10.02 3.88C9.52667 3.66667 8.98667 3.56 8.4 3.56C7.82667 3.56 7.29333 3.66667 6.8 3.88C6.32 4.08 5.9 4.36667 5.54 4.74C5.18 5.11333 4.9 5.56 4.7 6.08C4.5 6.6 4.4 7.16667 4.4 7.78C4.4 8.42 4.49333 9.00667 4.68 9.54C4.88 10.06 5.15333 10.5133 5.5 10.9C5.86 11.2733 6.28 11.5667 6.76 11.78C7.25333 11.98 7.79333 12.08 8.38 12.08C8.95333 12.08 9.48667 11.98 9.98 11.78C10.4733 11.5667 10.9 11.2733 11.26 10.9C11.62 10.5133 11.9 10.06 12.1 9.54C12.3 9.00667 12.4 8.42 12.4 7.78Z" fill="#005694"/>
</svg>
