<svg width="44" height="30" viewBox="0 0 44 30" fill="none" xmlns="http://www.w3.org/2000/svg">
<path opacity="0.2" d="M37.6953 29.1016H23.584L25.8789 17.9199C27.2461 11.4421 29.3945 6.86849 32.3242 4.19922C35.2865 1.4974 39.1113 0.0976562 43.7988 0L42.4316 6.49414C40.0879 7.04753 38.2812 7.99154 37.0117 9.32617C35.7422 10.6608 34.7656 12.7441 34.082 15.5762H40.5273L37.6953 29.1016ZM14.1602 29.1016H0L2.34375 17.9199C3.71094 11.4421 5.85938 6.86849 8.78906 4.19922C11.7188 1.4974 15.5273 0.0976562 20.2148 0L18.8477 6.49414C16.5039 7.04753 14.6973 7.99154 13.4277 9.32617C12.1582 10.6608 11.1979 12.7441 10.5469 15.5762H16.9922L14.1602 29.1016Z" fill="url(#paint0_linear_345_8274)"/>
<defs>
<linearGradient id="paint0_linear_345_8274" x1="37.5" y1="37.4121" x2="-12.5" y2="37.412" gradientUnits="userSpaceOnUse">
<stop stop-color="#0072BE"/>
<stop offset="1" stop-color="#00A0E6"/>
</linearGradient>
</defs>
</svg>
