<svg width="20" height="16" viewBox="0 0 20 16" fill="none" xmlns="http://www.w3.org/2000/svg">
<path d="M5.64584 15.521H14.3542L16.7292 7.2085L12.7708 9.18766L10 3.646L7.22918 9.18766L3.27084 7.2085L5.64584 15.521Z" fill="#E6C100"/>
<path d="M2.47917 8.39583C3.57223 8.39583 4.45833 7.50973 4.45833 6.41667C4.45833 5.3236 3.57223 4.4375 2.47917 4.4375C1.3861 4.4375 0.5 5.3236 0.5 6.41667C0.5 7.50973 1.3861 8.39583 2.47917 8.39583Z" fill="#E6C100"/>
<path d="M10 4.43758C11.0931 4.43758 11.9792 3.55148 11.9792 2.45841C11.9792 1.36535 11.0931 0.479248 10 0.479248C8.90695 0.479248 8.02084 1.36535 8.02084 2.45841C8.02084 3.55148 8.90695 4.43758 10 4.43758Z" fill="#E6C100"/>
<path d="M17.5208 8.39583C18.6139 8.39583 19.5 7.50973 19.5 6.41667C19.5 5.3236 18.6139 4.4375 17.5208 4.4375C16.4278 4.4375 15.5417 5.3236 15.5417 6.41667C15.5417 7.50973 16.4278 8.39583 17.5208 8.39583Z" fill="#E6C100"/>
</svg>
