<svg width="296" height="62" viewBox="0 0 296 62" fill="none" xmlns="http://www.w3.org/2000/svg">
<mask id="mask0_467_1782" style="mask-type:luminance" maskUnits="userSpaceOnUse" x="64" y="0" width="168" height="32">
<path d="M64.335 0.429688H231.976V31.2138H64.335V0.429688Z" fill="white"/>
</mask>
<g mask="url(#mask0_467_1782)">
<path d="M231.976 30.252H64.335V32.176H231.976V30.252Z" fill="url(#paint0_linear_467_1782)"/>
</g>
<path d="M70.3462 24.7483C68.4386 24.7483 66.5309 23.998 65.1436 22.6704L66.7814 20.7079C67.8027 21.6507 69.1515 22.2856 70.404 22.2856C71.8877 22.2856 72.6778 21.6507 72.6778 20.6502C72.6778 19.592 71.8107 19.2649 70.5389 18.7262L68.6313 17.9181C67.1861 17.3217 65.7409 16.1673 65.7409 14.0893C65.7409 11.7613 67.7834 9.97194 70.6738 9.97194C72.3309 9.97194 73.9881 10.6261 75.1442 11.7998L73.699 13.5891C72.7934 12.8387 71.8492 12.4154 70.6738 12.4154C69.4213 12.4154 68.6313 12.9734 68.6313 13.9162C68.6313 14.9359 69.6333 15.3014 70.8472 15.7825L72.7163 16.5713C74.4505 17.2832 75.5874 18.3799 75.5874 20.4385C75.5874 22.7666 73.6412 24.7483 70.3462 24.7483ZM77.7268 24.479V10.2221H86.4749V12.6078H80.5786V15.8979H85.5886V18.2837H80.5786V22.0932H86.6869V24.479H77.7268ZM93.4549 24.7483C91.5472 24.7483 89.6396 23.998 88.2522 22.6704L89.8901 20.7079C90.9114 21.6507 92.2602 22.2856 93.5127 22.2856C94.9964 22.2856 95.7864 21.6507 95.7864 20.6502C95.7864 19.592 94.9193 19.2649 93.6476 18.7262L91.7399 17.9181C90.2947 17.3217 88.8496 16.1673 88.8496 14.0893C88.8496 11.7613 90.8921 9.97194 93.7825 9.97194C95.4396 9.97194 97.0967 10.6261 98.2529 11.7998L96.8077 13.5891C95.9021 12.8387 94.9579 12.4154 93.7825 12.4154C92.53 12.4154 91.7399 12.9734 91.7399 13.9162C91.7399 14.9359 92.7419 15.3014 93.9559 15.7825L95.825 16.5713C97.5592 17.2832 98.6961 18.3799 98.6961 20.4385C98.6961 22.7666 96.7499 24.7483 93.4549 24.7483ZM113.283 21.7084V20.8041H109.815V21.7084H113.283ZM109.815 18.2259V19.0533H113.283V18.2259H109.815ZM104.458 14.3972H107.483V13.4736H104.458V14.3972ZM112.936 13.4736H109.815V14.3972H112.936V13.4736ZM117.619 19.0533V20.8041H115.615V24.1519H113.283V23.363H109.815V23.9595C109.815 25.0947 109.545 25.5564 108.793 25.8835C108.061 26.1721 107.021 26.2106 105.383 26.2106C105.267 25.6719 104.92 24.883 104.631 24.402C105.556 24.4405 106.693 24.4405 107.001 24.4405C107.368 24.4212 107.483 24.3058 107.483 23.9595V23.363H101.625V21.7084H107.483V20.8041H99.8526V19.0533H107.483V18.2259H101.78V16.6867H107.483V15.8402H102.261V12.0306H107.483V11.2418H100.296V9.43322H107.483V8.18262H109.815V9.43322H117.176V11.2418H109.815V12.0306H115.287V15.8402H109.815V16.6867H115.615V19.0533H117.619ZM129.97 13.185H125.365C125.635 13.6853 125.885 14.2625 126.02 14.6665L125.692 14.7242H129.296C129.527 14.2625 129.758 13.7045 129.97 13.185ZM136.194 21.7661H130.606C132.244 22.7666 134.479 23.517 136.714 23.8633C136.194 24.3635 135.52 25.3255 135.173 25.9412C132.803 25.3448 130.471 24.1904 128.698 22.6896V26.1529H126.444V22.8051C124.652 24.2096 122.282 25.3255 119.989 25.922C119.661 25.364 119.006 24.479 118.524 24.0172C120.683 23.5747 122.956 22.7666 124.613 21.7661H119.083V19.8806H126.444V19.034H120.894V17.3794H126.444V16.5136H119.931V14.7242H123.592C123.438 14.2432 123.187 13.666 122.937 13.2235L123.168 13.185H119.141V11.3188H121.723C121.453 10.5876 120.952 9.6641 120.528 8.93298L122.494 8.25958C123.053 9.0869 123.688 10.2221 123.958 10.9724L123.014 11.3188H124.768V8.18262H126.906V11.3188H128.332V8.18262H130.49V11.3188H132.205L131.512 11.1071C131.974 10.3183 132.456 9.16386 132.726 8.3173L135.134 8.8945C134.595 9.77954 134.075 10.6453 133.631 11.3188H136.136V13.185H132.514C132.205 13.743 131.897 14.2625 131.608 14.7242H135.385V16.5136H128.698V17.3794H134.479V19.034H128.698V19.8806H136.194V21.7661ZM146.31 12.2423V13.9931H147.37C148.102 13.4352 148.796 12.858 149.451 12.2423H146.31ZM150.511 20.6502V19.4188H143.883V20.6502H150.511ZM143.883 23.6901H150.511V22.3818H143.883V23.6901ZM155.116 16.0133H148.18C147.428 16.5521 146.696 17.0523 145.906 17.5525H152.92V26.0951H150.511V25.5949H143.883V26.1721H141.589V19.8806C140.626 20.3039 139.624 20.7272 138.641 21.0927C138.372 20.5925 137.678 19.6689 137.254 19.2072C139.778 18.4183 142.187 17.3217 144.403 16.0133H137.851V13.9931H144.037V12.2423H139.508V10.2605H144.037V8.18262H146.31V10.2605H150.492V11.2033C151.224 10.4145 151.879 9.60638 152.477 8.75982L154.442 9.7603C153.344 11.2803 152.053 12.704 150.646 13.9931H155.116V16.0133ZM173.596 17.7065C173.596 21.7661 171.11 24.6329 166.254 25.3833L164.809 23.0937C165.541 23.0167 166.081 22.9013 166.601 22.7858C169.068 22.2086 170.995 20.4385 170.995 17.6295C170.995 14.9744 169.549 12.9926 166.948 12.5501C166.678 14.1855 166.351 15.9556 165.792 17.7642C164.636 21.6507 162.979 24.0364 160.878 24.0364C158.739 24.0364 156.966 21.6892 156.966 18.4376C156.966 13.9931 160.82 10.2028 165.811 10.2028C170.59 10.2028 173.596 13.5121 173.596 17.7065ZM159.433 18.1875C159.433 20.1307 160.203 21.0735 160.955 21.0735C161.765 21.0735 162.516 19.8613 163.306 17.2639C163.749 15.8402 164.115 14.2048 164.327 12.6078C161.148 13.262 159.433 16.0711 159.433 18.1875ZM185.928 19.7844C185.774 20.3231 185.658 20.958 185.658 21.3813C185.658 22.2279 186.236 22.8628 188.298 22.8628C189.589 22.8628 190.919 22.7089 192.306 22.4588L192.21 24.9215C191.131 25.0562 189.82 25.1909 188.279 25.1909C185.042 25.1909 183.288 24.0749 183.288 22.1317C183.288 21.2466 183.481 20.3231 183.635 19.5535L185.928 19.7844ZM183.751 9.12538C183.597 9.64486 183.423 10.5107 183.346 10.9339C183.307 11.1456 183.25 11.3957 183.192 11.6651C184.271 11.5112 185.35 11.2995 186.41 11.0494V13.4544C185.254 13.7238 183.943 13.9354 182.652 14.0893C182.479 14.9166 182.286 15.7632 182.074 16.5521C181.381 19.2457 180.09 23.1706 179.01 25.4602L176.332 24.5559C177.488 22.6319 178.953 18.5915 179.666 15.8979C179.801 15.3784 179.955 14.8397 180.07 14.2817C179.627 14.301 179.203 14.3202 178.799 14.3202C177.874 14.3202 177.141 14.2817 176.467 14.2432L176.409 11.8382C177.392 11.9537 178.047 11.9922 178.837 11.9922C179.396 11.9922 179.974 11.9729 180.571 11.9344C180.648 11.5112 180.706 11.1456 180.745 10.8377C180.822 10.1259 180.86 9.33702 180.803 8.8945L183.751 9.12538ZM184.888 14.9359C185.967 14.8397 187.354 14.7435 188.587 14.7435C189.686 14.7435 190.842 14.8012 191.979 14.9166L191.921 17.2255C190.957 17.11 189.782 16.9946 188.606 16.9946C187.296 16.9946 186.102 17.0523 184.888 17.187V14.9359ZM206.97 9.39474C206.816 9.91422 206.642 10.857 206.527 11.338C206.469 11.5881 206.411 11.819 206.353 12.0691C209.379 12.7618 211.383 15.2052 211.383 18.5723C211.383 22.6512 208.473 24.9792 204.465 25.5949L203.001 23.363C207.22 23.0167 208.897 20.8426 208.897 18.4376C208.897 16.3019 207.702 14.705 205.775 14.1855C205.101 16.4174 204.253 18.63 203.155 20.3039C203.502 20.7079 203.848 21.112 204.214 21.4583L202.268 22.9975C202.037 22.7474 201.806 22.4972 201.613 22.2471C200.322 23.6516 199.243 24.2866 197.817 24.2866C196.218 24.2866 194.753 22.9398 194.753 20.4578C194.753 18.2644 195.852 15.9171 197.605 14.3779C197.412 13.8584 197.258 13.339 197.085 12.8195C196.873 12.1268 196.661 11.5112 196.314 10.8185L198.838 10.0297C198.954 10.6646 199.108 11.2995 199.262 11.8767C199.359 12.2423 199.474 12.6463 199.609 13.0504C201.074 12.3192 202.5 11.9537 203.983 11.896C204.06 11.5689 204.118 11.261 204.157 10.9724C204.253 10.4145 204.311 9.58714 204.311 9.14462L206.97 9.39474ZM197.008 20.2654C197.008 21.2082 197.412 21.8046 198.106 21.8046C198.8 21.8046 199.513 21.2082 200.226 20.3424C199.609 19.3996 198.993 18.0913 198.434 16.6483C197.528 17.7065 197.008 19.0725 197.008 20.2654ZM200.303 15.1475C200.746 16.3404 201.228 17.4563 201.69 18.2259C202.384 16.9946 202.962 15.4938 203.405 14.0701C202.23 14.2048 201.208 14.6088 200.303 15.1475ZM230.247 17.7065C230.247 21.7661 227.761 24.6329 222.906 25.3833L221.46 23.0937C222.193 23.0167 222.732 22.9013 223.252 22.7858C225.719 22.2086 227.646 20.4385 227.646 17.6295C227.646 14.9744 226.201 12.9926 223.599 12.5501C223.329 14.1855 223.002 15.9556 222.443 17.7642C221.287 21.6507 219.63 24.0364 217.529 24.0364C215.391 24.0364 213.618 21.6892 213.618 18.4376C213.618 13.9931 217.472 10.2028 222.462 10.2028C227.241 10.2028 230.247 13.5121 230.247 17.7065ZM216.084 18.1875C216.084 20.1307 216.855 21.0735 217.606 21.0735C218.416 21.0735 219.167 19.8613 219.957 17.2639C220.401 15.8402 220.767 14.2048 220.979 12.6078C217.799 13.262 216.084 16.0711 216.084 18.1875Z" fill="url(#paint1_linear_467_1782)"/>
<mask id="mask1_467_1782" style="mask-type:luminance" maskUnits="userSpaceOnUse" x="0" y="31" width="296" height="31">
<path d="M0 31.2158H295.781V62H0V31.2158Z" fill="white"/>
</mask>
<g mask="url(#mask1_467_1782)">
<path d="M295.781 61.0381H0V62.9621H295.781V61.0381Z" fill="url(#paint2_linear_467_1782)"/>
</g>
<path d="M6.76258 42.7408H3.85294C4.18052 43.3949 4.43102 44.28 4.50809 44.8572L3.54464 45.1266H7.32138L6.04962 44.8572C6.30012 44.28 6.60842 43.3949 6.76258 42.7408ZM6.51208 50.4176V50.5715C7.20577 51.0525 8.8051 52.3223 9.24829 52.6687L7.91872 54.3041C7.61042 53.9193 7.07088 53.3421 6.51208 52.8033V56.9015H4.29613V53.0342C3.54464 54.1117 2.67753 55.0737 1.84896 55.7471C1.50211 55.2468 0.846962 54.4965 0.365234 54.1309C1.61773 53.3036 2.94729 51.8606 3.83367 50.4176H0.904769V48.4936H4.29613V47.0121H0.846962V45.1266H2.61972C2.54264 44.4916 2.31141 43.6643 2.04165 43.0101L3.21706 42.7408H1.05892V40.8745H4.29613V39.1236H6.51208V40.8745H9.71075V42.7408H7.72603L8.84364 42.9524C8.4968 43.7797 8.18849 44.5493 7.91872 45.1266H9.8649V47.0121H6.51208V48.4936H9.69148V50.4176H6.51208ZM18.6131 45.2997V47.4161H16.7825V56.8245H14.5666V47.4161H12.6011C12.5818 50.2829 12.1772 54.3426 9.63367 56.9784C9.34464 56.4782 8.51607 55.6894 7.9958 55.42C10.2117 53.0727 10.443 49.8019 10.443 47.1468V40.4897L11.7725 40.8553C13.6031 40.4127 15.5108 39.797 16.6862 39.1621L18.5167 40.836C16.8211 41.5864 14.6244 42.1828 12.6011 42.6061V45.2997H18.6131ZM22.1779 40.0472H28.845C28.845 43.6835 29.3652 50.7062 36.4563 54.8813C35.9553 55.2853 35.0111 56.2858 34.6064 56.8822C30.6177 54.4772 28.5752 50.8409 27.5154 47.3969C26.0702 51.7067 23.7579 54.9005 20.4051 56.9015C19.9812 56.4205 18.9021 55.4777 18.3048 55.0352C22.3127 53.015 24.6058 49.3017 25.6656 44.2415L26.841 44.4531C26.7061 43.722 26.629 43.0294 26.5712 42.3752H22.1779V40.0472ZM44.6071 49.8404L43.2197 51.7067C42.8151 51.1679 42.1599 50.3983 41.5048 49.6865V56.94H39.231V50.3021C38.4603 51.014 37.651 51.6489 36.8417 52.1492C36.649 51.5335 36.1094 50.4176 35.7626 49.9751C37.8629 48.8399 39.8862 46.8197 41.1387 44.6071H36.4948V42.5291H39.231V38.989H41.5048V42.5291H42.3719L42.7765 42.4329L44.0676 43.2603C43.4895 44.7225 42.7187 46.1078 41.7938 47.3776C42.7187 48.128 44.2024 49.4556 44.6071 49.8404ZM50.1566 54.1502H54.2609V56.382H43.3546V54.1502H47.8058V47.1083H44.1446V44.8957H47.8058V39.1429H50.1566V44.8957H53.7985V47.1083H50.1566V54.1502ZM67.5181 42.6061V41.3555H59.7333V42.6061H67.5181ZM69.9652 39.5662V44.3762H57.4211V39.5662H69.9652ZM58.8277 51.2064V52.053H68.2696V51.2064H58.8277ZM58.8277 48.9361V49.7442H68.2696V48.9361H58.8277ZM58.8277 46.6465V47.4738H68.2696V46.6465H58.8277ZM70.6397 53.5922H67.5181C69.3294 54.1309 71.3526 54.8236 72.6822 55.3623L70.6589 56.9784C69.1752 56.2858 66.5161 55.343 64.4735 54.7466L66.0922 53.5922H60.8317L62.3154 54.6312C60.7546 55.5354 58.2882 56.459 56.342 56.94C55.9181 56.459 55.128 55.7471 54.6078 55.3046C56.2842 54.939 58.2689 54.2464 59.5792 53.5922H56.5539V45.0881H70.6397V53.5922ZM82.9719 48.2819H79.6191V50.8409H82.9719V48.2819ZM85.0722 52.8418H79.6191V54.1886H77.5573V46.281H85.0722V52.8418ZM89.3114 42.1828V54.2656C89.3114 55.5162 89.0417 56.1704 88.2324 56.5359C87.4231 56.9015 86.1898 56.94 84.4556 56.94C84.3785 56.2858 84.0317 55.2468 83.7041 54.6312C84.841 54.7081 86.132 54.6889 86.5174 54.6696C86.8835 54.6696 86.9991 54.5734 86.9991 54.2271V44.4147H75.6689V56.9207H73.3759V42.1828H78.6942C79.0988 41.1439 79.4842 39.9317 79.7154 38.9697L82.625 39.3738C82.2204 40.3358 81.7387 41.3363 81.2762 42.1828H89.3114ZM104.592 39.9702C104.534 40.3935 104.515 40.8553 104.495 41.2785C104.495 41.6826 104.495 42.6831 104.495 43.7413C105.575 43.6643 106.596 43.5489 107.386 43.3949L107.367 45.8962C106.596 45.9924 105.594 46.0693 104.515 46.127C104.515 46.4541 104.515 46.7427 104.515 46.9351C104.515 51.4758 104.168 54.2656 100.314 56.7091L98.0981 54.9582C98.8304 54.6312 99.7938 54.0155 100.333 53.419C101.817 51.8798 102.125 50.1675 102.125 46.9159C102.125 46.7235 102.125 46.4926 102.125 46.2232C101.393 46.2425 100.68 46.2617 99.9672 46.2617C99.1387 46.2617 97.944 46.204 96.9998 46.1655V43.722C97.944 43.8567 98.8882 43.9337 99.9094 43.9337C100.603 43.9337 101.355 43.9144 102.087 43.8952C102.068 42.8177 102.048 41.8173 102.01 41.2978C101.971 40.8168 101.875 40.278 101.798 39.9702H104.592ZM95.0151 40.2973C94.8417 40.7591 94.649 41.4517 94.5526 41.8557C94.0709 43.9914 93.3965 48.0318 93.9167 50.4176C94.1672 49.8211 94.5141 48.8976 94.8417 48.1857L96.0363 48.9553C95.4775 50.61 94.9573 52.5532 94.726 53.6499C94.649 53.9385 94.6104 54.3618 94.6104 54.5927C94.6104 54.7851 94.6297 55.1122 94.649 55.3815L92.5101 55.5932C92.0862 54.4388 91.4118 51.7451 91.4118 49.3594C91.4118 46.204 91.7971 43.241 92.0284 41.6826C92.1247 41.1439 92.144 40.4897 92.1633 40.0087L95.0151 40.2973ZM107.367 47.7817C110.816 46.8966 113.648 45.646 115.787 44.3377C117.772 43.1063 119.969 41.1823 121.221 39.6624L123.302 41.6441C121.838 43.0871 119.988 44.5878 118.119 45.8192V53.5922C118.119 54.4388 118.157 55.6316 118.292 56.1126H115.248C115.325 55.6509 115.383 54.4388 115.383 53.5922V47.4354C113.398 48.4743 110.951 49.5133 108.581 50.2059L107.367 47.7817ZM126.231 40.6436C127.58 41.5479 130.085 43.5489 131.202 44.7225L129.237 46.7235C128.235 45.646 125.826 43.5489 124.42 42.5676L126.231 40.6436ZM123.822 53.4575C126.828 53.0342 129.333 52.053 131.202 50.9371C134.497 48.9938 137.002 46.0501 138.216 43.4527L139.719 46.1655C138.255 48.7629 135.692 51.4181 132.59 53.2843C130.644 54.458 128.158 55.5354 125.441 55.9972L123.822 53.4575ZM155.477 42.4522C155.303 42.837 155.149 43.3949 155.053 43.799C154.61 45.6845 153.762 48.6667 152.162 50.8024C150.409 53.1112 147.846 55.016 144.416 56.1126L142.316 53.8231C146.131 52.9188 148.309 51.2449 149.869 49.3017C151.141 47.7047 151.873 45.5114 152.124 43.8759H143.144C142.277 43.8759 141.352 43.9144 140.851 43.9529V41.2401C141.43 41.2978 142.528 41.394 143.164 41.394H152.066C152.451 41.394 153.068 41.3747 153.588 41.2401L155.477 42.4522ZM158.83 40.5089C159.369 40.5859 160.178 40.6051 160.834 40.6051H168.252C168.849 40.6051 169.794 40.5859 170.333 40.5089V42.9909C169.813 42.9524 168.907 42.9332 168.214 42.9332H160.834C160.217 42.9332 159.388 42.9524 158.83 42.9909V40.5089ZM171.952 46.0886C171.817 46.3387 171.663 46.685 171.586 46.8966C171.008 48.7629 170.179 50.6292 168.734 52.2261C166.788 54.381 164.321 55.6894 161.855 56.382L159.947 54.2079C162.838 53.6114 165.15 52.3416 166.614 50.8409C167.655 49.7827 168.252 48.5898 168.599 47.5123H159.292C158.83 47.5123 157.866 47.5316 157.057 47.6085V45.1073C157.866 45.165 158.695 45.2228 159.292 45.2228H168.83C169.447 45.2228 169.967 45.1458 170.237 45.0304L171.952 46.0886ZM174.168 41.8365C174.669 41.8942 175.459 41.9519 175.998 41.9519H186.481C187.059 41.9519 187.733 41.8942 188.292 41.8365V44.4724C187.714 44.4339 187.039 44.3954 186.481 44.3954H182.415V52.2454H187.521C188.215 52.2454 188.832 52.1684 189.333 52.0915V54.8813C188.774 54.8043 187.964 54.7851 187.521 54.7851H174.823C174.245 54.7851 173.57 54.8043 172.935 54.8813V52.0915C173.532 52.1877 174.226 52.2454 174.823 52.2454H179.717V44.3954H175.998C175.478 44.3954 174.649 44.4339 174.168 44.4724V41.8365ZM193.09 40.6436C194.439 41.5479 196.944 43.5489 198.061 44.7225L196.096 46.7235C195.094 45.646 192.685 43.5489 191.279 42.5676L193.09 40.6436ZM190.681 53.4575C193.687 53.0342 196.192 52.053 198.061 50.9371C201.356 48.9938 203.861 46.0501 205.075 43.4527L206.578 46.1655C205.114 48.7629 202.551 51.4181 199.449 53.2843C197.503 54.458 195.017 55.5354 192.3 55.9972L190.681 53.4575ZM220.433 40.4897C220.972 41.2978 221.743 42.5869 222.186 43.4719L220.51 44.1838C219.951 42.9717 219.508 42.1443 218.814 41.1631L220.433 40.4897ZM223.073 39.5662C223.67 40.3358 224.422 41.5864 224.884 42.4329L223.246 43.1641C222.63 41.9519 222.148 41.2016 221.435 40.2396L223.073 39.5662ZM212.051 40.1241C213.323 40.8168 215.442 42.1636 216.444 42.8755L215.018 44.9919C213.939 44.2415 211.935 42.9524 210.663 42.2405L212.051 40.1241ZM208.486 53.7846C210.644 53.419 212.956 52.7649 215.038 51.6105C218.313 49.7827 221.011 47.1468 222.533 44.3954L224.017 47.0121C222.244 49.6865 219.508 52.1107 216.367 53.9385C214.402 55.0352 211.627 55.9972 209.931 56.305L208.486 53.7846ZM209.083 44.5109C210.394 45.2035 212.513 46.5311 213.496 47.2237L212.089 49.3786C210.991 48.609 208.987 47.3199 207.696 46.6273L209.083 44.5109ZM226.599 42.2021C227.293 42.279 228.198 42.3175 228.853 42.3175H236.831C237.602 42.3175 238.43 42.2598 238.97 42.2021V44.9919C238.411 44.9726 237.505 44.9149 236.831 44.9149H228.873C228.141 44.9149 227.254 44.9534 226.599 44.9919V42.2021ZM224.98 51.6105C225.732 51.6682 226.638 51.7259 227.389 51.7259H238.449C239.105 51.7259 239.914 51.6874 240.569 51.6105V54.5542C239.895 54.4772 239.028 54.4388 238.449 54.4388H227.389C226.638 54.4388 225.693 54.4965 224.98 54.5542V51.6105ZM257.911 42.2405C257.699 42.4907 257.333 42.9524 257.16 43.241C256.254 44.7418 254.424 47.166 252.535 48.5128L250.531 46.9159C252.073 45.9731 253.576 44.28 254.077 43.3372H244.038C243.228 43.3372 242.592 43.3949 241.687 43.4719V40.7975C242.419 40.913 243.228 40.9899 244.038 40.9899H254.424C254.963 40.9899 256.023 40.9322 256.389 40.8168L257.911 42.2405ZM250.049 44.838C250.049 49.6095 249.953 53.5345 244.712 56.3435L242.457 54.5157C243.074 54.3041 243.768 53.977 244.481 53.4575C246.928 51.7644 247.39 49.7249 247.39 46.5696C247.39 45.9731 247.352 45.4536 247.255 44.838H250.049ZM263.114 52.6109V47.8009H261.38V52.6109H263.114ZM265.311 41.9519H262.497C262.228 43.241 261.881 44.5493 261.457 45.7807H265.06V54.6312H261.38V56.0357H259.472V50.0713C259.222 50.4368 258.971 50.7831 258.701 51.1102C258.624 50.4945 258.22 49.0323 257.911 48.3781C259.087 46.8004 259.877 44.4724 260.358 41.9519H258.316V39.874H265.311V41.9519ZM269.704 46.8004H271.862V42.0481H269.704V46.8004ZM276.063 46.8004V48.9553H274.04V56.9592H271.862V48.9553H269.665C269.55 51.7836 268.991 54.9967 267.006 57.0939C266.621 56.6898 265.792 56.0549 265.272 55.7663C266.929 53.977 267.411 51.3026 267.527 48.9553H265.735V46.8004H267.565V42.0481H266.236V39.9317H275.677V42.0481H274.04V46.8004H276.063ZM280.379 39.0274L282.479 39.6624C282.075 40.8553 281.593 42.1059 281.053 43.2987V56.9207H278.876V47.3007C278.491 47.8779 278.086 48.4358 277.662 48.9169C277.469 48.3781 276.93 47.0506 276.564 46.4541C278.105 44.6456 279.531 41.8365 280.379 39.0274ZM284.117 44.3377V47.0121C285.485 46.6658 286.719 46.204 287.798 45.5883C287.258 45.1073 286.776 44.6071 286.372 44.1068C286.025 44.5301 285.64 44.9149 285.254 45.2612C285.004 45.0111 284.541 44.6456 284.117 44.3377ZM290.881 42.7408H287.489C287.971 43.3565 288.588 43.9721 289.339 44.5109C289.956 43.9914 290.457 43.4142 290.881 42.7408ZM294.715 42.7408H293.27C292.711 43.8375 291.979 44.761 291.131 45.5691C292.326 46.1463 293.733 46.608 295.332 46.8582C294.927 47.2814 294.368 48.1472 294.099 48.686C292.326 48.3012 290.784 47.647 289.513 46.8582C288.222 47.7047 286.738 48.3589 285.119 48.8399C284.946 48.4936 284.503 47.8971 284.117 47.4546V53.7269H282.133V41.4132H284.117V43.4527C285.37 42.279 286.41 40.6436 287.008 38.9697L289.069 39.4507C288.896 39.9317 288.684 40.432 288.453 40.8937H294.715V42.7408ZM291.497 49.5518L293.135 50.2252C291.613 51.8798 289.05 53.0342 286.43 53.7076C286.179 53.2844 285.717 52.6494 285.312 52.2839C287.721 51.7836 290.226 50.8216 291.497 49.5518ZM289.609 47.8009L291.285 48.4936C290.091 49.7057 288.183 50.61 286.391 51.1872C286.121 50.7639 285.62 50.2252 285.177 49.8789C286.815 49.4556 288.665 48.6667 289.609 47.8009ZM292.885 51.7259L294.85 52.5147C292.846 54.862 289.436 56.1511 285.505 56.863C285.254 56.305 284.792 55.5547 284.348 55.0544C287.894 54.5734 291.228 53.5345 292.885 51.7259Z" fill="url(#paint3_linear_467_1782)"/>
<defs>
<linearGradient id="paint0_linear_467_1782" x1="64.335" y1="15.8219" x2="231.976" y2="15.8219" gradientUnits="userSpaceOnUse">
<stop stop-color="#4889D8"/>
<stop offset="1" stop-color="#63B1C2"/>
</linearGradient>
<linearGradient id="paint1_linear_467_1782" x1="64.3343" y1="15.8209" x2="231.975" y2="15.8209" gradientUnits="userSpaceOnUse">
<stop stop-color="#4889D8"/>
<stop offset="1" stop-color="#63B1C2"/>
</linearGradient>
<linearGradient id="paint2_linear_467_1782" x1="1.10187e-06" y1="46.608" x2="295.781" y2="46.608" gradientUnits="userSpaceOnUse">
<stop stop-color="#4889D8"/>
<stop offset="1" stop-color="#63B1C2"/>
</linearGradient>
<linearGradient id="paint3_linear_467_1782" x1="-0.000877502" y1="46.608" x2="295.78" y2="46.608" gradientUnits="userSpaceOnUse">
<stop stop-color="#4889D8"/>
<stop offset="1" stop-color="#63B1C2"/>
</linearGradient>
</defs>
</svg>
